<svg fill="none" height="160" viewBox="0 0 550 160" width="550" xmlns="http://www.w3.org/2000/svg"><path d="m0 0h550v160h-550z" fill="#3f3948"/><path d="m45 68h93v15.9999h-93z" fill="#9178bc"/><g fill="#fff"><path d="m45 43.2054 17.2631-.0283c.1105 1.1319.5893 1.9526 1.4363 2.462.8655.4905 2.2557.7358 4.1708.7358 1.602 0 2.8081-.1793 3.6184-.5377.8286-.3773 1.2429-.9339 1.2429-1.6697 0-1.2829-2.1452-2.1224-6.4357-2.5186-.847-.0943-1.4915-.1604-1.9335-.1981-.0368 0-.0736 0-.1104 0-6.9237-.698-11.6009-1.6036-14.0315-2.7167-1.4179-.6415-2.5135-1.6508-3.2869-3.028-.755-1.3773-1.1325-2.9998-1.1325-4.8675 0-3.7544 1.6757-6.4994 5.027-8.2351 3.3514-1.7357 8.6915-2.6035 16.0202-2.6035 6.9237 0 12.0704.8867 15.4402 2.6601 3.3882 1.7734 5.1927 4.5185 5.4137 8.2351h-16.2688c-.0921-1.0942-.5892-1.8866-1.4915-2.3771-.8839-.4906-2.311-.7358-4.2813-.7358-1.6756 0-2.9094.1886-3.7012.566-.7734.3584-1.1601.9244-1.1601 1.6979 0 1.2452 1.8414 2.0187 5.5242 2.3206.7734.0754 1.3627.132 1.7678.1698.2946.0188.755.0565 1.381.1131 7.4209.6792 11.7482 1.2358 12.9819 1.6697 2.4307.8867 4.1432 1.9809 5.1375 3.2827.9944 1.2829 1.4916 3.0469 1.4916 5.292 0 4.1505-1.7862 7.1502-5.3585 8.9991-3.5539 1.8489-9.3912 2.7733-17.5118 2.7733-7.2182 0-12.5215-.915-15.9097-2.745-3.3697-1.8489-5.1375-4.7543-5.3032-8.7161z"/><path d="m138 39.3001c-.516 5.1127-2.67 8.9519-6.463 11.5177-3.775 2.5658-9.161 3.8487-16.159 3.8487-7.236 0-12.834-1.5093-16.7932-4.5278-3.9406-3.0186-5.9109-7.2824-5.9109-12.7913 0-5.49 1.9703-9.7538 5.9109-12.7912 3.9592-3.0375 9.5572-4.5562 16.7932-4.5562 6.721 0 11.96 1.1791 15.717 3.5374 3.756 2.3583 5.966 5.8579 6.629 10.499h-15.164c-.571-1.4904-1.427-2.6035-2.569-3.3393-1.142-.7546-2.569-1.132-4.281-1.132-2.523 0-4.502.6886-5.939 2.0659-1.436 1.3583-2.154 3.245-2.154 5.6598 0 2.3394.7 4.1977 2.099 5.575 1.4 1.3772 3.287 2.0658 5.662 2.0658 1.971 0 3.628-.4999 4.972-1.4999 1.363-1.0187 2.21-2.396 2.541-4.1316z"/><path d="m58.8561 122.933c0 2.138.6495 3.858 1.9485 5.159 1.2991 1.283 3.013 1.925 5.142 1.925 2.165 0 3.888-.642 5.169-1.925 1.299-1.301 1.9485-3.021 1.9485-5.159 0-2.156-.6495-3.876-1.9485-5.159-1.281-1.282-3.004-1.924-5.169-1.924-2.129 0-3.8429.642-5.142 1.924-1.299 1.283-1.9485 3.003-1.9485 5.159zm-13.8561 15.979v-41.5785h13.8561v12.2145c1.6779-1.153 3.455-2.008 5.3314-2.566 1.8944-.576 3.9602-.864 6.1974-.864 5.2682 0 9.4539 1.515 12.5571 4.545 3.1212 3.031 4.6818 7.121 4.6818 12.27 0 5.076-1.5425 9.147-4.6277 12.215-3.0851 3.049-7.2167 4.573-12.3947 4.573-2.4357 0-4.6729-.325-6.7116-.976-2.0387-.669-3.897-1.664-5.5749-2.984l-.1083 3.151z"/><path d="m135.417 124.858c-.506 5.038-2.616 8.821-6.333 11.349-3.699 2.529-8.976 3.793-15.832 3.793-7.09 0-12.575-1.487-16.4539-4.462-3.8609-2.974-5.7914-7.176-5.7914-12.605 0-5.41 1.9305-9.611 5.7914-12.604 3.8789-2.994 9.3639-4.49 16.4539-4.49 6.586 0 11.718 1.162 15.399 3.486s5.846 5.772 6.495 10.346h-14.857c-.56-1.469-1.399-2.566-2.517-3.291-1.119-.744-2.517-1.115-4.195-1.115-2.472 0-4.411.678-5.818 2.035-1.408 1.339-2.111 3.198-2.111 5.578 0 2.305.685 4.136 2.056 5.493 1.372 1.357 3.221 2.036 5.548 2.036 1.931 0 3.555-.493 4.872-1.478 1.335-1.004 2.165-2.361 2.489-4.071z"/><path d="m174.512 37.22c-1.071 0-2.009-.198-2.816-.594-.807-.4107-1.437-.9753-1.892-1.694-.44-.7333-.66-1.584-.66-2.552h3.3c0 .6307.176 1.122.528 1.474.367.3373.88.506 1.54.506s1.166-.1687 1.518-.506c.367-.352.55-.8433.55-1.474v-1.98h-4.51v-2.97h4.51v-1.87c0-.6453-.183-1.1367-.55-1.474-.352-.3373-.858-.506-1.518-.506s-1.173.1687-1.54.506c-.352.3373-.528.8287-.528 1.474h-3.3c0-.9827.22-1.8333.66-2.552.455-.7187 1.085-1.276 1.892-1.672.807-.4107 1.745-.616 2.816-.616 1.085 0 2.024.2053 2.816.616.807.396 1.43.9533 1.87 1.672.455.7187.682 1.5693.682 2.552v6.82c0 .968-.227 1.8187-.682 2.552-.44.7187-1.063 1.2833-1.87 1.694-.792.396-1.731.594-2.816.594zm11.937 3.74v-3.96c-1.393 0-2.493-.4033-3.3-1.21-.792-.8213-1.188-1.936-1.188-3.344v-3.014c0-1.3933.404-2.4933 1.21-3.3.807-.8213 1.9-1.232 3.278-1.232v-3.96h2.684v3.96c1.394 0 2.486.4107 3.278 1.232.807.8067 1.21 1.9067 1.21 3.3v3.014c0 1.408-.403 2.5227-1.21 3.344-.792.8067-1.884 1.21-3.278 1.21v3.96zm.154-6.556v-6.93c-.572 0-1.026.176-1.364.528-.322.3373-.484.814-.484 1.43v3.014c0 .616.162 1.1.484 1.452.338.3373.792.506 1.364.506zm2.376 0c.572 0 1.02-.1687 1.342-.506.338-.352.506-.836.506-1.452v-3.014c0-.616-.168-1.0927-.506-1.43-.322-.352-.77-.528-1.342-.528zm10.662 6.556v-3.96c-1.394 0-2.494-.4033-3.3-1.21-.792-.8213-1.188-1.936-1.188-3.344v-3.014c0-1.3933.403-2.4933 1.21-3.3.806-.8213 1.899-1.232 3.278-1.232v-3.96h2.684v3.96c1.393 0 2.486.4107 3.278 1.232.806.8067 1.21 1.9067 1.21 3.3v3.014c0 1.408-.404 2.5227-1.21 3.344-.792.8067-1.885 1.21-3.278 1.21v3.96zm.154-6.556v-6.93c-.572 0-1.027.176-1.364.528-.323.3373-.484.814-.484 1.43v3.014c0 .616.161 1.1.484 1.452.337.3373.792.506 1.364.506zm2.376 0c.572 0 1.019-.1687 1.342-.506.337-.352.506-.836.506-1.452v-3.014c0-.616-.169-1.0927-.506-1.43-.323-.352-.77-.528-1.342-.528zm12.025 2.816c-1.07 0-2.009-.198-2.816-.594-.792-.4107-1.408-.9753-1.848-1.694-.425-.7333-.638-1.584-.638-2.552v-2.86c0-.968.213-1.8113.638-2.53.44-.7333 1.056-1.298 1.848-1.694.807-.4107 1.746-.616 2.816-.616 1.071 0 1.995.2053 2.772.616.792.396 1.401.9607 1.826 1.694.44.7187.66 1.562.66 2.53v2.2h-7.414v.66c0 .7627.184 1.342.55 1.738.367.3813.917.572 1.65.572.514 0 .924-.088 1.232-.264.323-.176.536-.418.638-.726h3.234c-.264 1.056-.865 1.9067-1.804 2.552-.924.6453-2.038.968-3.344.968zm2.112-7.194v-.55c0-.748-.176-1.32-.528-1.716-.337-.396-.865-.594-1.584-.594-.718 0-1.261.2053-1.628.616-.352.4107-.528.99-.528 1.738v.33l4.488-.044zm5.976 6.974v-12.1h3.3v4.576h1.628l2.53-4.576h3.674l-3.366 5.918 3.432 6.182h-3.74l-2.552-4.752h-1.606v4.752zm16.623 0v-9.02h-3.96v-3.08h11.22v3.08h-3.96v9.02zm9.693 0v-12.1h2.904v5.5c0 .3667-.022.8287-.066 1.386-.044.5427-.102 1.0927-.176 1.65-.058.5573-.124 1.0487-.198 1.474l3.828-10.01h4.004v12.1h-2.904v-5.5c0-.3813.022-.814.066-1.298.044-.4987.096-.9973.154-1.496.059-.4987.118-.924.176-1.276l-3.784 9.57zm13.17 0v-12.1h5.478c1.481 0 2.655.3007 3.52.902.88.5867 1.32 1.386 1.32 2.398 0 .8067-.33 1.4593-.99 1.958-.66.484-1.533.726-2.618.726v-.22c1.188 0 2.134.264 2.838.792.719.528 1.078 1.2247 1.078 2.09 0 1.0707-.44 1.914-1.32 2.53-.865.616-2.046.924-3.542.924zm3.234-2.332h2.376c.543 0 .975-.1247 1.298-.374.337-.264.506-.6013.506-1.012 0-.44-.169-.792-.506-1.056-.323-.264-.755-.396-1.298-.396h-2.376zm0-4.774h2.266c.499 0 .895-.1173 1.188-.352.293-.2493.44-.572.44-.968 0-.4107-.147-.7407-.44-.99s-.689-.374-1.188-.374h-2.266zm9.979 7.106v-12.1h3.3v4.422h3.696v-4.422h3.3v12.1h-3.3v-4.598h-3.696v4.598zm12.62 0v-12.1h2.75v3.85h.66c1.305 0 2.346.3813 3.124 1.144.777.7627 1.166 1.782 1.166 3.058 0 1.2173-.396 2.2-1.188 2.948-.778.7333-1.812 1.1-3.102 1.1zm2.75-2.53h.66c.528 0 .931-.132 1.21-.396.293-.264.44-.6453.44-1.144 0-.528-.147-.9313-.44-1.21-.279-.2933-.682-.44-1.21-.44h-.66zm5.94 2.53v-12.1h2.75v12.1zm10.243.22c-1.071 0-2.009-.198-2.816-.594-.792-.4107-1.408-.9753-1.848-1.694-.425-.7333-.638-1.584-.638-2.552v-2.86c0-.968.213-1.8113.638-2.53.44-.7333 1.056-1.298 1.848-1.694.807-.4107 1.745-.616 2.816-.616s1.995.2053 2.772.616c.792.396 1.401.9607 1.826 1.694.44.7187.66 1.562.66 2.53v2.2h-7.414v.66c0 .7627.183 1.342.55 1.738.367.3813.917.572 1.65.572.513 0 .924-.088 1.232-.264.323-.176.535-.418.638-.726h3.234c-.264 1.056-.865 1.9067-1.804 2.552-.924.6453-2.039.968-3.344.968zm2.112-7.194v-.55c0-.748-.176-1.32-.528-1.716-.337-.396-.865-.594-1.584-.594s-1.261.2053-1.628.616c-.352.4107-.528.99-.528 1.738v.33l4.488-.044zm19.167 6.974v-12.1h3.3v4.576h1.628l2.53-4.576h3.674l-3.366 5.918 3.432 6.182h-3.74l-2.552-4.752h-1.606v4.752zm15.127 3.96 1.65-4.554-4.532-11.506h3.586l1.826 5.28c.132.396.264.88.396 1.452.147.5573.257 1.012.33 1.364.074-.352.176-.8067.308-1.364.147-.572.286-1.056.418-1.452l1.76-5.28h3.432l-5.72 16.06zm11.19 0v-16.06h3.19v2.31h.77l-.77.77c0-1.0413.286-1.848.858-2.42.572-.5867 1.356-.88 2.354-.88 1.217 0 2.192.4327 2.926 1.298.733.8507 1.1 1.9947 1.1 3.432v3.08c0 .9533-.169 1.7893-.506 2.508-.323.704-.785 1.254-1.386 1.65-.602.3813-1.313.572-2.134.572-.998 0-1.782-.286-2.354-.858-.572-.5867-.858-1.4007-.858-2.442l.77.77h-.77l.11 2.97v3.3zm5.214-6.6c.616 0 1.085-.1687 1.408-.506.337-.352.506-.8433.506-1.474v-2.86c0-.6453-.169-1.1367-.506-1.474-.323-.3373-.792-.506-1.408-.506-.602 0-1.071.176-1.408.528-.338.3373-.506.8213-.506 1.452v2.86c0 .6307.168 1.122.506 1.474.337.3373.806.506 1.408.506zm13.191 2.86c-1.071 0-2.009-.198-2.816-.594-.807-.4107-1.43-.9753-1.87-1.694-.44-.7333-.66-1.584-.66-2.552v-2.86c0-.9827.22-1.8333.66-2.552s1.063-1.276 1.87-1.672c.807-.4107 1.745-.616 2.816-.616 1.599 0 2.875.4033 3.828 1.21s1.459 1.9067 1.518 3.3h-3.3c-.044-.5133-.249-.9167-.616-1.21-.352-.2933-.829-.44-1.43-.44-.66 0-1.166.1687-1.518.506s-.528.8287-.528 1.474v2.86c0 .6307.176 1.122.528 1.474.352.3373.858.506 1.518.506.601 0 1.078-.1393 1.43-.418.367-.2933.572-.704.616-1.232h3.3c-.059 1.3933-.565 2.4933-1.518 3.3s-2.229 1.21-3.828 1.21zm7.406-.22v-12.1h2.75v3.85h.66c1.305 0 2.346.3813 3.124 1.144.777.7627 1.166 1.782 1.166 3.058 0 1.2173-.396 2.2-1.188 2.948-.778.7333-1.812 1.1-3.102 1.1zm2.75-2.53h.66c.528 0 .931-.132 1.209-.396.294-.264.441-.6453.441-1.144 0-.528-.147-.9313-.441-1.21-.278-.2933-.681-.44-1.209-.44h-.66zm5.94 2.53v-12.1h2.75v12.1zm18.264 0v-12.1h10.296v12.1h-3.3v-9.02h-3.696v9.02zm18.34.22c-1.071 0-2.002-.198-2.794-.594-.792-.4107-1.408-.9753-1.848-1.694-.426-.7333-.638-1.584-.638-2.552v-2.86c0-.968.212-1.8113.638-2.53.44-.7333 1.056-1.298 1.848-1.694.792-.4107 1.723-.616 2.794-.616 1.085 0 2.016.2053 2.794.616.792.396 1.4.9607 1.826 1.694.44.7187.66 1.562.66 2.53v2.86c0 .968-.22 1.8187-.66 2.552-.426.7187-1.034 1.2833-1.826 1.694-.778.396-1.709.594-2.794.594zm0-2.86c.645 0 1.136-.1687 1.474-.506.337-.352.506-.8433.506-1.474v-2.86c0-.6453-.169-1.1367-.506-1.474-.338-.3373-.829-.506-1.474-.506-.631 0-1.122.1687-1.474.506-.338.3373-.506.8287-.506 1.474v2.86c0 .6307.168 1.122.506 1.474.352.3373.843.506 1.474.506zm-251.297 31.882c-1.687 0-3.029-.4547-4.026-1.364-.983-.924-1.474-2.1633-1.474-3.718h3.3c0 .6747.198 1.2173.594 1.628.396.396.931.594 1.606.594s1.21-.1907 1.606-.572c.396-.396.594-.9313.594-1.606v-8.184h-3.63v-3.08h6.93v11.264c0 1.5547-.491 2.7867-1.474 3.696-.983.8947-2.325 1.342-4.026 1.342zm12.289-.022c-1.217 0-2.185-.33-2.904-.99-.704-.66-1.056-1.5547-1.056-2.684 0-1.2173.418-2.1487 1.254-2.794.851-.66 2.068-.99 3.652-.99h2.508v-.902c0-.4693-.168-.8433-.506-1.122-.322-.2787-.762-.418-1.32-.418-.513 0-.938.1173-1.276.352-.337.2347-.542.5573-.616.968h-3.19c.132-1.2173.66-2.178 1.584-2.882.939-.7187 2.142-1.078 3.608-1.078 1.54 0 2.758.3813 3.652 1.144.91.748 1.364 1.76 1.364 3.036v8.14h-3.19v-1.98h-.528l.55-.77c0 .9093-.33 1.6353-.99 2.178-.645.528-1.51.792-2.596.792zm1.232-2.42c.646 0 1.174-.1687 1.584-.506.426-.352.638-.8067.638-1.364v-1.298h-2.442c-.498 0-.902.1467-1.21.44-.308.2787-.462.6527-.462 1.122 0 .4987.169.8947.506 1.188.338.2787.8.418 1.386.418zm11.476 2.2-3.96-12.1h3.41l2.024 6.798c.117.4107.234.858.352 1.342.117.484.205.8727.264 1.166.073-.2933.161-.682.264-1.166.117-.484.227-.924.33-1.32l2.002-6.82h3.366l-3.916 12.1zm13.675.22c-1.217 0-2.185-.33-2.904-.99-.704-.66-1.056-1.5547-1.056-2.684 0-1.2173.418-2.1487 1.254-2.794.851-.66 2.068-.99 3.652-.99h2.508v-.902c0-.4693-.168-.8433-.506-1.122-.322-.2787-.762-.418-1.32-.418-.513 0-.938.1173-1.276.352-.337.2347-.542.5573-.616.968h-3.19c.132-1.2173.66-2.178 1.584-2.882.939-.7187 2.142-1.078 3.608-1.078 1.54 0 2.758.3813 3.652 1.144.91.748 1.364 1.76 1.364 3.036v8.14h-3.19v-1.98h-.528l.55-.77c0 .9093-.33 1.6353-.99 2.178-.645.528-1.51.792-2.596.792zm1.232-2.42c.646 0 1.174-.1687 1.584-.506.426-.352.638-.8067.638-1.364v-1.298h-2.442c-.498 0-.902.1467-1.21.44-.308.2787-.462.6527-.462 1.122 0 .4987.169.8947.506 1.188.338.2787.8.418 1.386.418zm13.016 2.42c-.998 0-1.87-.154-2.618-.462-.748-.3227-1.335-.7627-1.76-1.32-.411-.5573-.616-1.21-.616-1.958h3.3c0 .352.154.638.462.858.322.2053.733.308 1.232.308h.968c.601 0 1.056-.11 1.364-.33.322-.22.484-.528.484-.924 0-.3667-.14-.6453-.418-.836-.279-.2053-.712-.3447-1.298-.418l-1.408-.176c-1.511-.1907-2.611-.5573-3.3-1.1-.69-.5427-1.034-1.3713-1.034-2.486 0-1.1733.403-2.0827 1.21-2.728.806-.6453 1.987-.968 3.542-.968h.836c1.481 0 2.662.3227 3.542.968s1.32 1.5107 1.32 2.596h-3.3c0-.2933-.147-.528-.44-.704-.279-.1907-.653-.286-1.122-.286h-.836c-.543 0-.939.0953-1.188.286-.25.176-.374.4473-.374.814 0 .3373.11.594.33.77.234.176.601.3007 1.1.374l1.518.198c1.525.1907 2.654.572 3.388 1.144.748.572 1.122 1.4227 1.122 2.552 0 1.232-.426 2.178-1.276 2.838-.851.66-2.105.99-3.762.99zm13.763 0c-1.071 0-2.009-.198-2.816-.594-.807-.4107-1.43-.9753-1.87-1.694-.44-.7333-.66-1.584-.66-2.552v-2.86c0-.9827.22-1.8333.66-2.552s1.063-1.276 1.87-1.672c.807-.4107 1.745-.616 2.816-.616 1.599 0 2.875.4033 3.828 1.21s1.459 1.9067 1.518 3.3h-3.3c-.044-.5133-.249-.9167-.616-1.21-.352-.2933-.829-.44-1.43-.44-.66 0-1.166.1687-1.518.506s-.528.8287-.528 1.474v2.86c0 .6307.176 1.122.528 1.474.352.3373.858.506 1.518.506.601 0 1.078-.1393 1.43-.418.367-.2933.572-.704.616-1.232h3.3c-.059 1.3933-.565 2.4933-1.518 3.3s-2.229 1.21-3.828 1.21zm8.329-.22v-12.1h3.08v2.31h.836l-.946 1.408c0-1.3053.301-2.288.902-2.948.602-.66 1.482-.99 2.64-.99 1.335 0 2.369.4033 3.102 1.21.748.8067 1.122 1.9433 1.122 3.41v.99h-3.52v-.77c0-.66-.183-1.1733-.55-1.54-.352-.3667-.828-.55-1.43-.55-.63 0-1.114.1833-1.452.55-.322.3667-.484.88-.484 1.54v7.48zm12.928 0v-2.992h4.18v-6.138h-3.63v-2.97h6.71v9.108h3.52v2.992zm5.5-14.014c-.601 0-1.085-.154-1.452-.462-.352-.308-.528-.726-.528-1.254s.176-.946.528-1.254c.367-.308.851-.462 1.452-.462s1.078.154 1.43.462c.367.308.55.726.55 1.254s-.183.946-.55 1.254c-.352.308-.829.462-1.43.462zm7.603 17.974v-16.06h3.19v2.31h.77l-.77.77c0-1.0413.286-1.848.858-2.42.572-.5867 1.357-.88 2.354-.88 1.218 0 2.193.4327 2.926 1.298.734.8507 1.1 1.9947 1.1 3.432v3.08c0 .9533-.168 1.7893-.506 2.508-.322.704-.784 1.254-1.386 1.65-.601.3813-1.312.572-2.134.572-.997 0-1.782-.286-2.354-.858-.572-.5867-.858-1.4007-.858-2.442l.77.77h-.77l.11 2.97v3.3zm5.214-6.6c.616 0 1.086-.1687 1.408-.506.338-.352.506-.8433.506-1.474v-2.86c0-.6453-.168-1.1367-.506-1.474-.322-.3373-.792-.506-1.408-.506-.601 0-1.07.176-1.408.528-.337.3373-.506.8213-.506 1.452v2.86c0 .6307.169 1.122.506 1.474.338.3373.807.506 1.408.506zm14.446 2.64c-1.232 0-2.2-.352-2.904-1.056s-1.056-1.672-1.056-2.904v-5.17h-3.19v-2.97h3.19v-3.41h3.3v3.41h4.51v2.97h-4.51v5.17c0 .66.33.99.99.99h3.3v2.97z"/><path d="m172.864 99.16c-.747 0-1.392-.128-1.936-.384s-.965-.6187-1.264-1.088c-.299-.48-.453-1.0507-.464-1.712h1.28c0 .6293.213 1.1307.64 1.504.427.3627 1.008.544 1.744.544.704 0 1.253-.176 1.648-.528.405-.352.608-.8373.608-1.456 0-.512-.139-.9547-.416-1.328-.277-.384-.667-.6507-1.168-.8l-1.52-.48c-.8-.2347-1.419-.6347-1.856-1.2-.427-.576-.64-1.248-.64-2.016 0-.6293.139-1.168.416-1.616.277-.4587.667-.816 1.168-1.072.512-.256 1.109-.384 1.792-.384 1.013 0 1.824.2827 2.432.848s.912 1.3227.912 2.272h-1.264c0-.608-.187-1.088-.56-1.44s-.885-.528-1.536-.528-1.163.16-1.536.48c-.363.3093-.544.752-.544 1.328 0 .5013.139.9387.416 1.312s.667.64 1.168.8l1.52.48c.789.2453 1.403.6613 1.84 1.248s.656 1.2747.656 2.064c0 .6293-.149 1.184-.448 1.664-.288.4693-.699.8373-1.232 1.104-.523.256-1.141.384-1.856.384zm8.842 0c-.928 0-1.659-.2347-2.192-.704-.534-.48-.8-1.1253-.8-1.936 0-.8.261-1.4293.784-1.888.522-.4693 1.226-.704 2.112-.704h2.8v-.928c0-.5867-.171-1.04-.512-1.36-.342-.32-.827-.48-1.456-.48-.555 0-1.019.1227-1.392.368-.363.2453-.571.576-.624.992h-1.28c.106-.7573.458-1.36 1.056-1.808.608-.448 1.365-.672 2.272-.672.981 0 1.76.2667 2.336.8.576.5227.864 1.232.864 2.128v6.032h-1.248v-1.712h-.208l.24-.256c0 .6507-.251 1.168-.752 1.552-.502.384-1.168.576-2 .576zm.304-1.024c.704 0 1.28-.176 1.728-.528s.672-.8107.672-1.376v-1.328h-2.784c-.502 0-.902.1387-1.2.416-.299.2773-.448.656-.448 1.136 0 .512.181.9227.544 1.232.362.2987.858.448 1.488.448zm6.586.864v-1.152h3.136v-6.496h-2.736v-1.152h4.016v7.648h2.976v1.152zm3.632-10.416c-.331 0-.598-.0853-.8-.256-.192-.1707-.288-.4053-.288-.704 0-.3093.096-.5547.288-.736.202-.1813.469-.272.8-.272.33 0 .592.0907.784.272.202.1813.304.4267.304.736 0 .288-.102.5227-.304.704-.192.1707-.454.256-.784.256zm6.105 10.416v-8.8h1.264v1.632h.32l-.352.464c0-.704.214-1.2533.64-1.648.438-.4053 1.03-.608 1.776-.608.875 0 1.574.2773 2.096.832.523.544.784 1.2853.784 2.224v5.904h-1.264v-5.76c0-.672-.176-1.1893-.528-1.552s-.832-.544-1.44-.544c-.629 0-1.125.192-1.488.576-.362.384-.544.928-.544 1.632v5.648zm13.802 0c-.736 0-1.307-.192-1.712-.576-.405-.3947-.608-.9493-.608-1.664v-5.408h-2.496v-1.152h2.496v-2.48h1.28v2.48h3.536v1.152h-3.536v5.408c0 .7253.347 1.088 1.04 1.088h2.336v1.152zm8.682.16c-.683 0-1.28-.1333-1.792-.4s-.912-.6453-1.2-1.136c-.278-.5013-.416-1.0933-.416-1.776v-2.496c0-.6827.138-1.2693.416-1.76.288-.5013.688-.8853 1.2-1.152s1.109-.4 1.792-.4c1.002 0 1.808.272 2.416.816s.922 1.2853.944 2.224h-1.264c-.022-.608-.219-1.0773-.592-1.408-.363-.3307-.864-.496-1.504-.496-.651 0-1.168.192-1.552.576-.384.3733-.576.9067-.576 1.6v2.496c0 .6827.192 1.216.576 1.6s.901.576 1.552.576c.64 0 1.141-.1653 1.504-.496.373-.3413.57-.8107.592-1.408h1.264c-.022.9387-.336 1.68-.944 2.224s-1.414.816-2.416.816zm9.546-.016c-.683 0-1.275-.1333-1.776-.4-.502-.2667-.891-.6507-1.168-1.152-.278-.5013-.416-1.0933-.416-1.776v-2.432c0-.6933.138-1.2853.416-1.776.277-.5013.666-.8853 1.168-1.152.501-.2667 1.093-.4 1.776-.4.682 0 1.274.1333 1.776.4.501.2667.89.6507 1.168 1.152.277.4907.416 1.0773.416 1.76v2.448c0 .6827-.139 1.2747-.416 1.776-.278.5013-.667.8853-1.168 1.152-.502.2667-1.094.4-1.776.4zm0-1.136c.661 0 1.173-.1867 1.536-.56.362-.3733.544-.9173.544-1.632v-2.432c0-.7147-.187-1.2587-.56-1.632-.363-.3733-.87-.56-1.52-.56-.651 0-1.163.1867-1.536.56-.363.3733-.544.9173-.544 1.632v2.432c0 .7147.181 1.2587.544 1.632.373.3733.885.56 1.536.56zm9.161 1.152c-.874 0-1.584-.2933-2.128-.88-.533-.5867-.8-1.376-.8-2.368v-2.608c0-1.0027.267-1.7973.8-2.384.534-.5867 1.243-.88 2.128-.88.736 0 1.328.2027 1.776.608.459.4053.688.9493.688 1.632l-.336-.528h.304l-.016-1.92v-2.512h1.264v11.68h-1.264v-1.552h-.336l.384-.528c0 .6933-.229 1.2427-.688 1.648-.448.3947-1.04.592-1.776.592zm.4-1.104c.63 0 1.12-.192 1.472-.576.363-.3947.544-.9387.544-1.632v-2.496c0-.6933-.181-1.232-.544-1.616-.352-.3947-.842-.592-1.472-.592-.64 0-1.141.192-1.504.576-.362.384-.544.928-.544 1.632v2.496c0 .704.182 1.248.544 1.632.363.384.864.576 1.504.576zm9.626 1.104c-.683 0-1.275-.1333-1.776-.4-.501-.2773-.891-.6667-1.168-1.168s-.416-1.0827-.416-1.744v-2.496c0-.672.139-1.2533.416-1.744.277-.5013.667-.8853 1.168-1.152.501-.2773 1.093-.416 1.776-.416s1.275.1387 1.776.416c.501.2667.891.6507 1.168 1.152.277.4907.416 1.072.416 1.744v1.552h-5.472v.944c0 .7147.181 1.2693.544 1.664.373.384.896.576 1.568.576.565 0 1.024-.112 1.376-.336.363-.224.592-.5493.688-.976h1.264c-.117.736-.475 1.3173-1.072 1.744s-1.349.64-2.256.64zm2.112-5.104v-.704c0-.7147-.181-1.264-.544-1.648-.363-.3947-.885-.592-1.568-.592-.672 0-1.195.1973-1.568.592-.363.384-.544.9333-.544 1.648v.56h4.352zm13.844 4.944v-11.68h3.216c1.045 0 1.866.272 2.464.816.597.5333.896 1.2693.896 2.208 0 .5333-.112 1.0027-.336 1.408-.214.3947-.523.704-.928.928-.395.2133-.875.3147-1.44.304v-.224c.608 0 1.13.1227 1.568.368.448.2347.794.5813 1.04 1.04.245.448.368.9813.368 1.6 0 .6613-.139 1.2373-.416 1.728-.278.48-.672.8533-1.184 1.12-.512.256-1.126.384-1.84.384zm1.232-1.152h2.064c.714 0 1.274-.1867 1.68-.56.416-.384.624-.9013.624-1.552 0-.672-.208-1.2107-.624-1.616-.406-.416-.966-.624-1.68-.624h-2.064zm0-5.456h1.984c.65 0 1.162-.176 1.536-.528.373-.352.56-.832.56-1.44s-.187-1.0827-.56-1.424c-.363-.352-.875-.528-1.536-.528h-1.984zm11.593 6.752c-.682 0-1.274-.1333-1.776-.4-.501-.2667-.89-.6507-1.168-1.152-.277-.5013-.416-1.0933-.416-1.776v-2.432c0-.6933.139-1.2853.416-1.776.278-.5013.667-.8853 1.168-1.152.502-.2667 1.094-.4 1.776-.4.683 0 1.275.1333 1.776.4.502.2667.891.6507 1.168 1.152.278.4907.416 1.0773.416 1.76v2.448c0 .6827-.138 1.2747-.416 1.776-.277.5013-.666.8853-1.168 1.152-.501.2667-1.093.4-1.776.4zm0-1.136c.662 0 1.174-.1867 1.536-.56.363-.3733.544-.9173.544-1.632v-2.432c0-.7147-.186-1.2587-.56-1.632-.362-.3733-.869-.56-1.52-.56-.65 0-1.162.1867-1.536.56-.362.3733-.544.9173-.544 1.632v2.432c0 .7147.182 1.2587.544 1.632.374.3733.886.56 1.536.56zm9.594 1.136c-.683 0-1.275-.1333-1.776-.4s-.891-.6507-1.168-1.152-.416-1.0933-.416-1.776v-2.432c0-.6933.139-1.2853.416-1.776.277-.5013.667-.8853 1.168-1.152s1.093-.4 1.776-.4 1.275.1333 1.776.4.891.6507 1.168 1.152c.277.4907.416 1.0773.416 1.76v2.448c0 .6827-.139 1.2747-.416 1.776s-.667.8853-1.168 1.152-1.093.4-1.776.4zm0-1.136c.661 0 1.173-.1867 1.536-.56s.544-.9173.544-1.632v-2.432c0-.7147-.187-1.2587-.56-1.632-.363-.3733-.869-.56-1.52-.56s-1.163.1867-1.536.56c-.363.3733-.544.9173-.544 1.632v2.432c0 .7147.181 1.2587.544 1.632.373.3733.885.56 1.536.56zm10.554.992c-.736 0-1.307-.192-1.712-.576-.406-.3947-.608-.9493-.608-1.664v-5.408h-2.496v-1.152h2.496v-2.48h1.28v2.48h3.536v1.152h-3.536v5.408c0 .7253.346 1.088 1.04 1.088h2.336v1.152zm8.682.16c-.683 0-1.28-.1333-1.792-.4s-.912-.6453-1.2-1.136c-.278-.5013-.416-1.0933-.416-1.776v-2.496c0-.6827.138-1.2693.416-1.76.288-.5013.688-.8853 1.2-1.152s1.109-.4 1.792-.4c1.002 0 1.808.272 2.416.816s.922 1.2853.944 2.224h-1.264c-.022-.608-.219-1.0773-.592-1.408-.363-.3307-.864-.496-1.504-.496-.651 0-1.168.192-1.552.576-.384.3733-.576.9067-.576 1.6v2.496c0 .6827.192 1.216.576 1.6s.901.576 1.552.576c.64 0 1.141-.1653 1.504-.496.373-.3413.57-.8107.592-1.408h1.264c-.022.9387-.336 1.68-.944 2.224s-1.414.816-2.416.816zm8.857 0c-.928 0-1.658-.2347-2.192-.704-.533-.48-.8-1.1253-.8-1.936 0-.8.262-1.4293.784-1.888.523-.4693 1.227-.704 2.112-.704h2.8v-.928c0-.5867-.17-1.04-.512-1.36-.341-.32-.826-.48-1.456-.48-.554 0-1.018.1227-1.392.368-.362.2453-.57.576-.624.992h-1.28c.107-.7573.459-1.36 1.056-1.808.608-.448 1.366-.672 2.272-.672.982 0 1.76.2667 2.336.8.576.5227.864 1.232.864 2.128v6.032h-1.248v-1.712h-.208l.24-.256c0 .6507-.25 1.168-.752 1.552-.501.384-1.168.576-2 .576zm.304-1.024c.704 0 1.28-.176 1.728-.528s.672-.8107.672-1.376v-1.328h-2.784c-.501 0-.901.1387-1.2.416-.298.2773-.448.656-.448 1.136 0 .512.182.9227.544 1.232.363.2987.859.448 1.488.448zm6.282.864v-8.8h1.12v1.088h.24l-.176.352c0-.4907.128-.88.384-1.168.267-.288.629-.432 1.088-.432.48 0 .853.1707 1.12.512.277.3413.421.8213.432 1.44l-.336-.704h.528l-.224.352c0-.4907.133-.88.4-1.168s.629-.432 1.088-.432c.544 0 .965.2027 1.264.608.309.4053.464.944.464 1.616v6.736h-1.184v-6.736c0-.384-.085-.6827-.256-.896-.171-.224-.411-.336-.72-.336s-.555.112-.736.336c-.181.2133-.272.512-.272.896v6.736h-1.056v-6.736c0-.3947-.091-.6987-.272-.912-.171-.2133-.411-.32-.72-.32s-.549.1067-.72.32-.261.5173-.272.912v6.736zm10.042 2.88v-11.68h1.264v1.552h.336l-.384.528c0-.6933.224-1.2373.672-1.632.458-.4053 1.061-.608 1.808-.608.885 0 1.589.2933 2.112.88.533.576.8 1.3653.8 2.368v2.608c0 .672-.123 1.2533-.368 1.744-.246.48-.587.8533-1.024 1.12-.427.2667-.934.4-1.52.4-.736 0-1.334-.2027-1.792-.608-.459-.4053-.688-.9493-.688-1.632l.336.528h-.304l.016 1.792v2.64zm3.296-3.824c.64 0 1.136-.192 1.488-.576.362-.384.544-.928.544-1.632v-2.496c0-.7147-.182-1.2587-.544-1.632-.352-.384-.848-.576-1.488-.576-.619 0-1.115.1973-1.488.592-.363.384-.544.9227-.544 1.616v2.496c0 .6933.181 1.2373.544 1.632.373.384.869.576 1.488.576zm14.339-3.776v-1.136h9.6v1.136zm23.348 4.72v-7.664h-3.2v-1.136h7.68v1.136h-3.2v7.664zm10.234.144c-.683 0-1.275-.1333-1.776-.4-.502-.2667-.891-.6507-1.168-1.152-.278-.5013-.416-1.0933-.416-1.776v-2.432c0-.6933.138-1.2853.416-1.776.277-.5013.666-.8853 1.168-1.152.501-.2667 1.093-.4 1.776-.4.682 0 1.274.1333 1.776.4.501.2667.89.6507 1.168 1.152.277.4907.416 1.0773.416 1.76v2.448c0 .6827-.139 1.2747-.416 1.776-.278.5013-.667.8853-1.168 1.152-.502.2667-1.094.4-1.776.4zm0-1.136c.661 0 1.173-.1867 1.536-.56.362-.3733.544-.9173.544-1.632v-2.432c0-.7147-.187-1.2587-.56-1.632-.363-.3733-.87-.56-1.52-.56-.651 0-1.163.1867-1.536.56-.363.3733-.544.9173-.544 1.632v2.432c0 .7147.181 1.2587.544 1.632.373.3733.885.56 1.536.56zm5.241 1.104v-1.2h.32c.459 0 .795-.1867 1.008-.56.214-.384.326-1.0187.336-1.904l.112-5.248h5.808v8.8h-1.28v-7.648h-3.28l-.096 4.144c-.01.832-.112 1.5147-.304 2.048-.181.5333-.458.928-.832 1.184-.362.256-.837.384-1.424.384zm10.794-.112v-8.8h1.264v3.232h2.64c.981 0 1.755.2507 2.32.752.576.4907.864 1.168.864 2.032 0 .8533-.288 1.5307-.864 2.032-.565.5013-1.339.752-2.32.752zm1.264-1.152h2.64c.608 0 1.072-.1387 1.392-.416.32-.288.48-.6933.48-1.216s-.16-.9227-.48-1.2c-.32-.288-.784-.432-1.392-.432h-2.64zm8.298 1.152v-8.8h1.28v3.696h1.664l2.608-3.696h1.456l-2.96 4.192 3.024 4.608h-1.488l-2.64-4h-1.664v4zm12.778.144c-.683 0-1.275-.1333-1.776-.4-.502-.2667-.891-.6507-1.168-1.152-.278-.5013-.416-1.0933-.416-1.776v-2.432c0-.6933.138-1.2853.416-1.776.277-.5013.666-.8853 1.168-1.152.501-.2667 1.093-.4 1.776-.4.682 0 1.274.1333 1.776.4.501.2667.89.6507 1.168 1.152.277.4907.416 1.0773.416 1.76v2.448c0 .6827-.139 1.2747-.416 1.776-.278.5013-.667.8853-1.168 1.152-.502.2667-1.094.4-1.776.4zm0-1.136c.661 0 1.173-.1867 1.536-.56.362-.3733.544-.9173.544-1.632v-2.432c0-.7147-.187-1.2587-.56-1.632-.363-.3733-.87-.56-1.52-.56-.651 0-1.163.1867-1.536.56-.363.3733-.544.9173-.544 1.632v2.432c0 .7147.181 1.2587.544 1.632.373.3733.885.56 1.536.56zm-249.854 22.12c-.917 0-1.659-.197-2.224-.592s-.907-.928-1.024-1.6h1.328c.085.309.293.565.624.768.341.192.773.288 1.296.288h.784c.544 0 .971-.133 1.28-.4.32-.277.48-.624.48-1.04 0-.448-.149-.811-.448-1.088s-.725-.416-1.28-.416h-1.968v-1.104h1.936c.501 0 .885-.128 1.152-.384.277-.256.416-.587.416-.992 0-.277-.064-.517-.192-.72s-.315-.357-.56-.464c-.245-.117-.528-.176-.848-.176h-.832c-.48 0-.875.107-1.184.32-.309.203-.501.464-.576.784h-1.328c.107-.661.432-1.2.976-1.616.555-.416 1.259-.624 2.112-.624h.832c.597 0 1.115.101 1.552.304s.773.485 1.008.848c.245.363.368.789.368 1.28 0 .533-.165.976-.496 1.328-.32.341-.773.533-1.36.576v.064c.704.043 1.221.251 1.552.624.331.363.496.864.496 1.504 0 .757-.283 1.371-.848 1.84-.555.459-1.301.688-2.24.688zm9.322.032c-.928 0-1.659-.235-2.192-.704-.534-.48-.8-1.125-.8-1.936 0-.8.261-1.429.784-1.888.522-.469 1.226-.704 2.112-.704h2.8v-.928c0-.587-.171-1.04-.512-1.36-.342-.32-.827-.48-1.456-.48-.555 0-1.019.123-1.392.368-.363.245-.571.576-.624.992h-1.28c.106-.757.458-1.36 1.056-1.808.608-.448 1.365-.672 2.272-.672.981 0 1.76.267 2.336.8.576.523.864 1.232.864 2.128v6.032h-1.248v-1.712h-.208l.24-.256c0 .651-.251 1.168-.752 1.552-.502.384-1.168.576-2 .576zm.304-1.024c.704 0 1.28-.176 1.728-.528s.672-.811.672-1.376v-1.328h-2.784c-.502 0-.902.139-1.2.416-.299.277-.448.656-.448 1.136 0 .512.181.923.544 1.232.362.299.858.448 1.488.448zm6.746.864v-8.8h1.28v3.744h3.904v-3.744h1.28v8.8h-1.28v-3.904h-3.904v3.904zm9.097 0 2.24-3.408c-.682-.149-1.21-.453-1.584-.912-.373-.459-.56-1.035-.56-1.728 0-.853.283-1.525.848-2.016.576-.491 1.355-.736 2.336-.736h3.68v8.8h-1.28v-3.296h-2.128l-2.08 3.296zm3.28-4.432h2.4v-3.232h-2.4c-.576 0-1.034.144-1.376.432-.341.288-.512.683-.512 1.184s.171.896.512 1.184c.342.288.8.432 1.376.432zm9.402 4.432v-7.664h-3.2v-1.136h7.68v1.136h-3.2v7.664zm7.002 0v-8.8h1.232v5.008c0 .299-.011.619-.032.96-.011.331-.027.645-.048.944-.022.299-.043.549-.064.752l3.728-7.664h1.648v8.8h-1.232v-5.008c0-.309.005-.629.016-.96.021-.331.042-.645.064-.944.032-.309.053-.565.064-.768l-3.744 7.68zm9.098 0 2.24-3.408c-.683-.149-1.211-.453-1.584-.912-.374-.459-.56-1.035-.56-1.728 0-.853.282-1.525.848-2.016.576-.491 1.354-.736 2.336-.736h3.68v8.8h-1.28v-3.296h-2.128l-2.08 3.296zm3.28-4.432h2.4v-3.232h-2.4c-.576 0-1.035.144-1.376.432-.342.288-.512.683-.512 1.184s.17.896.512 1.184c.341.288.8.432 1.376.432zm16.403 4.432v-8.8h3.776c.875 0 1.563.208 2.064.624.501.405.752.971.752 1.696 0 .608-.208 1.099-.624 1.472-.405.363-.949.544-1.632.544v-.112c.736 0 1.328.192 1.776.576.448.373.672.875.672 1.504 0 .779-.267 1.392-.8 1.84-.523.437-1.248.656-2.176.656zm1.248-1.12h2.56c.523 0 .939-.123 1.248-.368.309-.256.464-.597.464-1.024 0-.448-.155-.795-.464-1.04-.309-.256-.725-.384-1.248-.384h-2.56zm0-3.92h2.528c.469 0 .843-.117 1.12-.352.288-.235.432-.555.432-.96s-.144-.725-.432-.96c-.277-.245-.651-.368-1.12-.368h-2.528zm7.146 5.04 1.92-4.512-1.792-4.288h1.232l1.584 3.888h.944v-3.888h1.088v3.888h.912l1.632-3.888h1.216l-1.792 4.24 1.92 4.56h-1.28l-1.648-4.048h-.96v4.048h-1.088v-4.048h-.96l-1.68 4.048zm10.794 0v-8.8h1.232v5.008c0 .299-.011.619-.032.96-.011.331-.027.645-.048.944-.022.299-.043.549-.064.752l3.728-7.664h1.648v8.8h-1.232v-5.008c0-.309.005-.629.016-.96.021-.331.042-.645.064-.944.032-.309.053-.565.064-.768l-3.744 7.68zm9.593 0v-8.8h3.776c.875 0 1.563.208 2.064.624.502.405.752.971.752 1.696 0 .608-.208 1.099-.624 1.472-.405.363-.949.544-1.632.544v-.112c.736 0 1.328.192 1.776.576.448.373.672.875.672 1.504 0 .779-.266 1.392-.8 1.84-.522.437-1.248.656-2.176.656zm1.248-1.12h2.56c.523 0 .939-.123 1.248-.368.31-.256.464-.597.464-1.024 0-.448-.154-.795-.464-1.04-.309-.256-.725-.384-1.248-.384h-2.56zm0-3.92h2.528c.47 0 .843-.117 1.12-.352.288-.235.432-.555.432-.96s-.144-.725-.432-.96c-.277-.245-.65-.368-1.12-.368h-2.528zm9.722 7.92 1.296-3.44-3.264-8.24h1.408l2.08 5.488c.085.213.165.453.24.72.085.256.149.469.192.64.053-.171.117-.389.192-.656s.149-.507.224-.72l1.952-5.472h1.36l-4.336 11.68zm12.826-2.72c-.736 0-1.328-.245-1.776-.736-.438-.501-.656-1.163-.656-1.984v-1.392h-1.52v3.952h-1.168v-8.8h1.168v3.824h1.52v-1.264c0-.832.218-1.493.656-1.984.437-.491 1.029-.736 1.776-.736.778 0 1.402.245 1.872.736.469.491.704 1.152.704 1.984v3.68c0 .821-.235 1.483-.704 1.984-.47.491-1.094.736-1.872.736zm0-1.008c.437 0 .778-.149 1.024-.448.245-.309.368-.731.368-1.264v-3.68c0-.533-.123-.949-.368-1.248-.246-.309-.587-.464-1.024-.464-.427 0-.763.155-1.008.464-.246.299-.368.715-.368 1.248v3.68c0 .533.122.955.368 1.264.245.299.581.448 1.008.448zm17.827 1.008c-.682 0-1.28-.133-1.792-.4s-.912-.645-1.2-1.136c-.277-.501-.416-1.093-.416-1.776v-2.496c0-.683.139-1.269.416-1.76.288-.501.688-.885 1.2-1.152s1.11-.4 1.792-.4c1.003 0 1.808.272 2.416.816s.923 1.285.944 2.224h-1.264c-.021-.608-.218-1.077-.592-1.408-.362-.331-.864-.496-1.504-.496-.65 0-1.168.192-1.552.576-.384.373-.576.907-.576 1.6v2.496c0 .683.192 1.216.576 1.6s.902.576 1.552.576c.64 0 1.142-.165 1.504-.496.374-.341.571-.811.592-1.408h1.264c-.021.939-.336 1.68-.944 2.224s-1.413.816-2.416.816zm15.94-.16v-8.8h1.28v3.744h3.904v-3.744h1.28v8.8h-1.28v-3.904h-3.904v3.904zm12.137.16c-.927 0-1.658-.235-2.191-.704-.534-.48-.8-1.125-.8-1.936 0-.8.261-1.429.784-1.888.522-.469 1.226-.704 2.112-.704h2.8v-.928c0-.587-.171-1.04-.512-1.36-.342-.32-.827-.48-1.456-.48-.555 0-1.019.123-1.392.368-.363.245-.571.576-.624.992h-1.28c.106-.757.458-1.36 1.056-1.808.608-.448 1.365-.672 2.272-.672.981 0 1.76.267 2.336.8.576.523.863 1.232.863 2.128v6.032h-1.247v-1.712h-.208l.24-.256c0 .651-.251 1.168-.752 1.552-.502.384-1.168.576-2.001.576zm.305-1.024c.704 0 1.28-.176 1.728-.528s.672-.811.672-1.376v-1.328h-2.784c-.502 0-.902.139-1.2.416-.299.277-.448.656-.448 1.136 0 .512.181.923.544 1.232.362.299.858.448 1.488.448zm9.993 1.024c-.682 0-1.28-.133-1.792-.4s-.912-.645-1.2-1.136c-.277-.501-.416-1.093-.416-1.776v-2.496c0-.683.139-1.269.416-1.76.288-.501.688-.885 1.2-1.152s1.11-.4 1.792-.4c1.003 0 1.808.272 2.416.816s.923 1.285.944 2.224h-1.264c-.021-.608-.218-1.077-.592-1.408-.362-.331-.864-.496-1.504-.496-.65 0-1.168.192-1.552.576-.384.373-.576.907-.576 1.6v2.496c0 .683.192 1.216.576 1.6s.902.576 1.552.576c.64 0 1.142-.165 1.504-.496.374-.341.571-.811.592-1.408h1.264c-.021.939-.336 1.68-.944 2.224s-1.413.816-2.416.816zm8.938-.16v-7.664h-3.2v-1.136h7.68v1.136h-3.2v7.664zm9.546.16c-.928 0-1.659-.235-2.192-.704-.534-.48-.8-1.125-.8-1.936 0-.8.261-1.429.784-1.888.522-.469 1.226-.704 2.112-.704h2.8v-.928c0-.587-.171-1.04-.512-1.36-.342-.32-.827-.48-1.456-.48-.555 0-1.019.123-1.392.368-.363.245-.571.576-.624.992h-1.28c.106-.757.458-1.36 1.056-1.808.608-.448 1.365-.672 2.272-.672.981 0 1.76.267 2.336.8.576.523.864 1.232.864 2.128v6.032h-1.248v-1.712h-.208l.24-.256c0 .651-.251 1.168-.752 1.552-.502.384-1.168.576-2 .576zm.304-1.024c.704 0 1.28-.176 1.728-.528s.672-.811.672-1.376v-1.328h-2.784c-.502 0-.902.139-1.2.416-.299.277-.448.656-.448 1.136 0 .512.181.923.544 1.232.362.299.858.448 1.488.448zm6.746.864v-8.8h3.776c.874 0 1.562.208 2.064.624.501.405.752.971.752 1.696 0 .608-.208 1.099-.624 1.472-.406.363-.95.544-1.632.544v-.112c.736 0 1.328.192 1.776.576.448.373.672.875.672 1.504 0 .779-.267 1.392-.8 1.84-.523.437-1.248.656-2.176.656zm1.248-1.12h2.56c.522 0 .938-.123 1.248-.368.309-.256.464-.597.464-1.024 0-.448-.155-.795-.464-1.04-.31-.256-.726-.384-1.248-.384h-2.56zm0-3.92h2.528c.469 0 .842-.117 1.12-.352.288-.235.432-.555.432-.96s-.144-.725-.432-.96c-.278-.245-.651-.368-1.12-.368h-2.528zm8.345 5.04v-8.8h1.28v3.744h3.904v-3.744h1.28v8.8h-1.28v-3.904h-3.904v3.904zm9.594 0v-8.8h1.232v5.008c0 .299-.011.619-.032.96-.011.331-.027.645-.048.944s-.043.549-.064.752l3.728-7.664h1.648v8.8h-1.232v-5.008c0-.309.005-.629.016-.96.021-.331.043-.645.064-.944.032-.309.053-.565.064-.768l-3.744 7.68zm9.642 0v-8.8h1.28v3.696h1.664l2.608-3.696h1.456l-2.96 4.192 3.024 4.608h-1.488l-2.64-4h-1.664v4zm12.089.16c-.927 0-1.658-.235-2.191-.704-.534-.48-.8-1.125-.8-1.936 0-.8.261-1.429.784-1.888.522-.469 1.226-.704 2.112-.704h2.8v-.928c0-.587-.171-1.04-.512-1.36-.342-.32-.827-.48-1.456-.48-.555 0-1.019.123-1.392.368-.363.245-.571.576-.624.992h-1.28c.106-.757.458-1.36 1.056-1.808.608-.448 1.365-.672 2.272-.672.981 0 1.76.267 2.336.8.576.523.863 1.232.863 2.128v6.032h-1.247v-1.712h-.208l.24-.256c0 .651-.251 1.168-.752 1.552-.502.384-1.168.576-2.001.576zm.305-1.024c.704 0 1.28-.176 1.728-.528s.672-.811.672-1.376v-1.328h-2.784c-.502 0-.902.139-1.2.416-.299.277-.448.656-.448 1.136 0 .512.181.923.544 1.232.362.299.858.448 1.488.448zm6.457.864v-8.8h1.76l1.28 3.584c.107.309.208.624.304.944s.166.571.208.752c.054-.181.123-.432.208-.752.096-.32.198-.64.304-.96l1.232-3.568h1.744v8.8h-1.232v-2.112c0-.459.006-.949.016-1.472.011-.523.022-1.045.032-1.568.011-.523.027-1.013.048-1.472.022-.469.038-.88.048-1.232l-1.744 5.216h-1.344l-1.744-5.184c.022.427.038.965.048 1.616.011.64.022 1.317.032 2.032.022.715.032 1.403.032 2.064v2.112zm9.882 0v-8.8h1.232v5.008c0 .299-.011.619-.032.96-.011.331-.027.645-.048.944s-.043.549-.064.752l3.728-7.664h1.648v8.8h-1.232v-5.008c0-.309.005-.629.016-.96.021-.331.043-.645.064-.944.032-.309.053-.565.064-.768l-3.744 7.68zm10.778 2.56 1.248-4.976h1.92l-2.064 4.976zm-276.811 18.44v-7.664h-3.2v-1.136h7.68v1.136h-3.2v7.664zm10.234.144c-.683 0-1.275-.133-1.776-.4-.502-.267-.891-.651-1.168-1.152-.278-.501-.416-1.093-.416-1.776v-2.432c0-.693.138-1.285.416-1.776.277-.501.666-.885 1.168-1.152.501-.267 1.093-.4 1.776-.4.682 0 1.274.133 1.776.4.501.267.89.651 1.168 1.152.277.491.416 1.077.416 1.76v2.448c0 .683-.139 1.275-.416 1.776-.278.501-.667.885-1.168 1.152-.502.267-1.094.4-1.776.4zm0-1.136c.661 0 1.173-.187 1.536-.56.362-.373.544-.917.544-1.632v-2.432c0-.715-.187-1.259-.56-1.632-.363-.373-.87-.56-1.52-.56-.651 0-1.163.187-1.536.56-.363.373-.544.917-.544 1.632v2.432c0 .715.181 1.259.544 1.632.373.373.885.56 1.536.56zm5.242 1.104v-1.2h.32c.458 0 .794-.187 1.008-.56.213-.384.325-1.019.335-1.904l.113-5.248h5.808v8.8h-1.28v-7.648h-3.28l-.096 4.144c-.011.832-.112 1.515-.304 2.048-.182.533-.459.928-.832 1.184-.363.256-.838.384-1.424.384zm10.793-.112v-8.8h1.264v3.232h2.64c.982 0 1.755.251 2.32.752.576.491.864 1.168.864 2.032 0 .853-.288 1.531-.864 2.032-.565.501-1.338.752-2.32.752zm1.264-1.152h2.64c.608 0 1.072-.139 1.392-.416.32-.288.48-.693.48-1.216s-.16-.923-.48-1.2c-.32-.288-.784-.432-1.392-.432h-2.64zm8.298 1.152v-8.8h1.28v3.696h1.664l2.608-3.696h1.456l-2.96 4.192 3.024 4.608h-1.488l-2.64-4h-1.664v4zm12.778.144c-.683 0-1.275-.133-1.776-.4-.502-.267-.891-.651-1.168-1.152-.278-.501-.416-1.093-.416-1.776v-2.432c0-.693.138-1.285.416-1.776.277-.501.666-.885 1.168-1.152.501-.267 1.093-.4 1.776-.4.682 0 1.274.133 1.776.4.501.267.89.651 1.168 1.152.277.491.416 1.077.416 1.76v2.448c0 .683-.139 1.275-.416 1.776-.278.501-.667.885-1.168 1.152-.502.267-1.094.4-1.776.4zm0-1.136c.661 0 1.173-.187 1.536-.56.362-.373.544-.917.544-1.632v-2.432c0-.715-.187-1.259-.56-1.632-.363-.373-.87-.56-1.52-.56-.651 0-1.163.187-1.536.56-.363.373-.544.917-.544 1.632v2.432c0 .715.181 1.259.544 1.632.373.373.885.56 1.536.56zm15.299.992 3.12-4.528-2.928-4.272h1.488l1.856 2.848c.064.107.128.229.192.368.075.128.134.229.176.304.043-.075.096-.176.16-.304.075-.139.144-.261.208-.368l1.856-2.848h1.472l-2.928 4.288 3.104 4.512h-1.488l-1.984-3.008c-.074-.107-.149-.235-.224-.384-.064-.149-.122-.267-.176-.352-.042.085-.106.203-.192.352-.085.149-.165.277-.24.384l-2 3.008zm12.794.16c-.928 0-1.659-.235-2.192-.704-.533-.48-.8-1.125-.8-1.936 0-.8.261-1.429.784-1.888.523-.469 1.227-.704 2.112-.704h2.8v-.928c0-.587-.171-1.04-.512-1.36s-.827-.48-1.456-.48c-.555 0-1.019.123-1.392.368-.363.245-.571.576-.624.992h-1.28c.107-.757.459-1.36 1.056-1.808.608-.448 1.365-.672 2.272-.672.981 0 1.76.267 2.336.8.576.523.864 1.232.864 2.128v6.032h-1.248v-1.712h-.208l.24-.256c0 .651-.251 1.168-.752 1.552s-1.168.576-2 .576zm.304-1.024c.704 0 1.28-.176 1.728-.528s.672-.811.672-1.376v-1.328h-2.784c-.501 0-.901.139-1.2.416s-.448.656-.448 1.136c0 .512.181.923.544 1.232.363.299.859.448 1.488.448zm6.73 3.744v-11.68h1.264v1.552h.336l-.384.528c0-.693.224-1.237.672-1.632.458-.405 1.061-.608 1.808-.608.885 0 1.589.293 2.112.88.533.576.8 1.365.8 2.368v2.608c0 .672-.123 1.253-.368 1.744-.246.48-.587.853-1.024 1.12-.427.267-.934.4-1.52.4-.736 0-1.334-.203-1.792-.608-.459-.405-.688-.949-.688-1.632l.336.528h-.304l.016 1.792v2.64zm3.296-3.824c.64 0 1.136-.192 1.488-.576.362-.384.544-.928.544-1.632v-2.496c0-.715-.182-1.259-.544-1.632-.352-.384-.848-.576-1.488-.576-.619 0-1.115.197-1.488.592-.363.384-.544.923-.544 1.616v2.496c0 .693.181 1.237.544 1.632.373.384.869.576 1.488.576zm5.29 3.184v-3.328h.72c.181-.203.368-.565.56-1.088.202-.533.309-1.179.32-1.936l.096-4.688h5.6v7.712h1.136v3.328h-1.136v-2.24h-6.16v2.24zm2.08-3.328h3.952v-6.576h-3.136l-.064 3.568c-.011.8-.102 1.456-.272 1.968-.171.512-.331.859-.48 1.04zm8.585 1.088v-8.8h1.28v3.696h1.664l2.608-3.696h1.456l-2.96 4.192 3.024 4.608h-1.488l-2.64-4h-1.664v4zm12.778.144c-.683 0-1.275-.133-1.776-.4s-.891-.651-1.168-1.152-.416-1.093-.416-1.776v-2.432c0-.693.139-1.285.416-1.776.277-.501.667-.885 1.168-1.152s1.093-.4 1.776-.4 1.275.133 1.776.4.891.651 1.168 1.152c.277.491.416 1.077.416 1.76v2.448c0 .683-.139 1.275-.416 1.776s-.667.885-1.168 1.152-1.093.4-1.776.4zm0-1.136c.661 0 1.173-.187 1.536-.56s.544-.917.544-1.632v-2.432c0-.715-.187-1.259-.56-1.632-.363-.373-.869-.56-1.52-.56s-1.163.187-1.536.56c-.363.373-.544.917-.544 1.632v2.432c0 .715.181 1.259.544 1.632.373.373.885.56 1.536.56zm6.346 3.872v-11.68h1.264v1.552h.336l-.384.528c0-.693.224-1.237.672-1.632.458-.405 1.061-.608 1.808-.608.885 0 1.589.293 2.112.88.533.576.8 1.365.8 2.368v2.608c0 .672-.123 1.253-.368 1.744-.246.48-.587.853-1.024 1.12-.427.267-.934.4-1.52.4-.736 0-1.334-.203-1.792-.608-.459-.405-.688-.949-.688-1.632l.336.528h-.304l.016 1.792v2.64zm3.296-3.824c.64 0 1.136-.192 1.488-.576.362-.384.544-.928.544-1.632v-2.496c0-.715-.182-1.259-.544-1.632-.352-.384-.848-.576-1.488-.576-.619 0-1.115.197-1.488.592-.363.384-.544.923-.544 1.616v2.496c0 .693.181 1.237.544 1.632.373.384.869.576 1.488.576zm9.546 1.104c-.395 0-.71-.112-.944-.336-.224-.235-.336-.544-.336-.928 0-.405.112-.725.336-.96.234-.235.549-.352.944-.352.394 0 .704.117.928.352.234.235.352.555.352.96 0 .384-.118.693-.352.928-.224.224-.534.336-.928.336z"/></g></svg>