<svg fill="none" height="160" viewBox="0 0 550 160" width="550" xmlns="http://www.w3.org/2000/svg"><path d="m0 0h550v160h-550z" fill="#ec5a5f"/><g fill="#000"><path d="m45 68h93v15.9999h-93z"/><path d="m45 43.2054 17.2631-.0283c.1105 1.1319.5893 1.9526 1.4363 2.462.8655.4905 2.2557.7358 4.1708.7358 1.602 0 2.8081-.1793 3.6184-.5377.8286-.3773 1.2429-.9339 1.2429-1.6697 0-1.2829-2.1452-2.1224-6.4357-2.5186-.847-.0943-1.4915-.1604-1.9335-.1981-.0368 0-.0736 0-.1104 0-6.9237-.698-11.6009-1.6036-14.0315-2.7167-1.4179-.6415-2.5135-1.6508-3.2869-3.028-.755-1.3773-1.1325-2.9998-1.1325-4.8675 0-3.7544 1.6757-6.4994 5.027-8.2351 3.3514-1.7357 8.6915-2.6035 16.0202-2.6035 6.9237 0 12.0704.8867 15.4402 2.6601 3.3882 1.7734 5.1927 4.5185 5.4137 8.2351h-16.2688c-.0921-1.0942-.5892-1.8866-1.4915-2.3771-.8839-.4906-2.311-.7358-4.2813-.7358-1.6756 0-2.9094.1886-3.7012.566-.7734.3584-1.1601.9244-1.1601 1.6979 0 1.2452 1.8414 2.0187 5.5242 2.3206.7734.0754 1.3627.132 1.7678.1698.2946.0188.755.0565 1.381.1131 7.4209.6792 11.7482 1.2358 12.9819 1.6697 2.4307.8867 4.1432 1.9809 5.1375 3.2827.9944 1.2829 1.4916 3.0469 1.4916 5.292 0 4.1505-1.7862 7.1502-5.3585 8.9991-3.5539 1.8489-9.3912 2.7733-17.5118 2.7733-7.2182 0-12.5215-.915-15.9097-2.745-3.3697-1.8489-5.1375-4.7543-5.3032-8.7161z"/><path d="m138 39.3001c-.516 5.1127-2.67 8.9519-6.463 11.5177-3.775 2.5658-9.161 3.8487-16.159 3.8487-7.236 0-12.834-1.5093-16.7932-4.5278-3.9406-3.0186-5.9109-7.2824-5.9109-12.7913 0-5.49 1.9703-9.7538 5.9109-12.7912 3.9592-3.0375 9.5572-4.5562 16.7932-4.5562 6.721 0 11.96 1.1791 15.717 3.5374 3.756 2.3583 5.966 5.8579 6.629 10.499h-15.164c-.571-1.4904-1.427-2.6035-2.569-3.3393-1.142-.7546-2.569-1.132-4.281-1.132-2.523 0-4.502.6886-5.939 2.0659-1.436 1.3583-2.154 3.245-2.154 5.6598 0 2.3394.7 4.1977 2.099 5.575 1.4 1.3772 3.287 2.0658 5.662 2.0658 1.971 0 3.628-.4999 4.972-1.4999 1.363-1.0187 2.21-2.396 2.541-4.1316z"/><path d="m58.8561 122.933c0 2.138.6495 3.858 1.9485 5.159 1.2991 1.283 3.013 1.924 5.142 1.924 2.165 0 3.888-.641 5.169-1.924 1.299-1.301 1.9485-3.021 1.9485-5.159 0-2.156-.6495-3.876-1.9485-5.159-1.281-1.283-3.004-1.924-5.169-1.924-2.129 0-3.8429.641-5.142 1.924-1.299 1.283-1.9485 3.003-1.9485 5.159zm-13.8561 15.979v-41.5787h13.8561v12.2147c1.6779-1.153 3.455-2.008 5.3314-2.566 1.8944-.576 3.9602-.864 6.1974-.864 5.2682 0 9.4539 1.515 12.5571 4.545 3.1212 3.03 4.6818 7.12 4.6818 12.27 0 5.076-1.5425 9.147-4.6277 12.214-3.0851 3.049-7.2167 4.574-12.3947 4.574-2.4357 0-4.6729-.325-6.7116-.976-2.0387-.669-3.897-1.664-5.5749-2.984l-.1083 3.151z"/><path d="m135.417 124.857c-.506 5.039-2.616 8.822-6.333 11.35-3.699 2.529-8.976 3.793-15.832 3.793-7.09 0-12.575-1.488-16.4539-4.462-3.8609-2.975-5.7914-7.176-5.7914-12.605 0-5.41 1.9305-9.611 5.7914-12.605 3.8789-2.993 9.3639-4.489 16.4539-4.489 6.586 0 11.718 1.162 15.399 3.485 3.681 2.324 5.846 5.773 6.495 10.346h-14.857c-.56-1.468-1.399-2.565-2.517-3.29-1.119-.744-2.517-1.116-4.195-1.116-2.472 0-4.411.679-5.818 2.036-1.408 1.339-2.111 3.198-2.111 5.577 0 2.306.685 4.137 2.056 5.494 1.372 1.357 3.221 2.036 5.548 2.036 1.931 0 3.555-.493 4.872-1.478 1.335-1.004 2.165-2.361 2.489-4.072z"/><path d="m168.44 37 4.312-8.294-4.026-7.766h3.63l1.672 3.52c.161.3227.293.616.396.88.117.264.191.4547.22.572.029-.1173.095-.308.198-.572s.227-.5573.374-.88l1.716-3.52h3.542l-4.026 7.766 4.312 8.294h-3.63l-1.936-3.96c-.147-.3227-.279-.6233-.396-.902s-.205-.4913-.264-.638c-.044.1467-.117.3593-.22.638s-.235.5793-.396.902l-1.936 3.96zm19.351.22c-1.07 0-2.002-.198-2.794-.594-.792-.4107-1.408-.9753-1.848-1.694-.425-.7333-.638-1.584-.638-2.552v-2.86c0-.968.213-1.8113.638-2.53.44-.7333 1.056-1.298 1.848-1.694.792-.4107 1.724-.616 2.794-.616 1.086 0 2.017.2053 2.794.616.792.396 1.401.9607 1.826 1.694.44.7187.66 1.562.66 2.53v2.86c0 .968-.22 1.8187-.66 2.552-.425.7187-1.034 1.2833-1.826 1.694-.777.396-1.708.594-2.794.594zm0-2.86c.646 0 1.137-.1687 1.474-.506.338-.352.506-.8433.506-1.474v-2.86c0-.6453-.168-1.1367-.506-1.474-.337-.3373-.828-.506-1.474-.506-.63 0-1.122.1687-1.474.506-.337.3373-.506.8287-.506 1.474v2.86c0 .6307.169 1.122.506 1.474.352.3373.844.506 1.474.506zm14.952 2.64v-3.85c-.176.044-.455.0953-.836.154-.367.044-.785.066-1.254.066-1.599 0-2.86-.396-3.784-1.188-.924-.8067-1.386-1.914-1.386-3.322v-3.96h3.3v3.74c0 .5427.198.9753.594 1.298.396.308.931.462 1.606.462.41 0 .77-.022 1.078-.066.322-.0587.55-.11.682-.154v-5.28h3.3v12.1zm11.453.22c-1.07 0-2.009-.198-2.816-.594-.792-.4107-1.408-.9753-1.848-1.694-.425-.7333-.638-1.584-.638-2.552v-2.86c0-.968.213-1.8113.638-2.53.44-.7333 1.056-1.298 1.848-1.694.807-.4107 1.746-.616 2.816-.616 1.071 0 1.995.2053 2.772.616.792.396 1.401.9607 1.826 1.694.44.7187.66 1.562.66 2.53v2.2h-7.414v.66c0 .7627.184 1.342.55 1.738.367.3813.917.572 1.65.572.514 0 .924-.088 1.232-.264.323-.176.536-.418.638-.726h3.234c-.264 1.056-.865 1.9067-1.804 2.552-.924.6453-2.038.968-3.344.968zm2.112-7.194v-.55c0-.748-.176-1.32-.528-1.716-.337-.396-.865-.594-1.584-.594-.718 0-1.261.2053-1.628.616-.352.4107-.528.99-.528 1.738v.33l4.488-.044zm5.338 6.974v-12.1h2.706v9.9h1.87v-9.9h2.288v9.9h1.87v-9.9h2.706v12.1zm13.851 0v-12.1h3.3v3.63h2.838c1.525 0 2.713.3813 3.564 1.144.865.748 1.298 1.7893 1.298 3.124 0 1.2907-.44 2.3173-1.32 3.08-.865.748-2.039 1.122-3.52 1.122zm3.3-2.86h2.64c.557 0 .983-.1173 1.276-.352.308-.2493.462-.5867.462-1.012 0-.44-.154-.7773-.462-1.012-.293-.2493-.719-.374-1.276-.374h-2.64zm-69.367 31.86v-12.1h5.478c1.481 0 2.655.3007 3.52.902.88.5867 1.32 1.386 1.32 2.398 0 .8067-.33 1.4593-.99 1.958-.66.484-1.533.726-2.618.726v-.22c1.188 0 2.134.264 2.838.792.719.528 1.078 1.2247 1.078 2.09 0 1.0707-.44 1.914-1.32 2.53-.865.616-2.046.924-3.542.924zm3.234-2.332h2.376c.543 0 .975-.1247 1.298-.374.337-.264.506-.6013.506-1.012 0-.44-.169-.792-.506-1.056-.323-.264-.755-.396-1.298-.396h-2.376zm0-4.774h2.266c.499 0 .895-.1173 1.188-.352.293-.2493.44-.572.44-.968 0-.4107-.147-.7407-.44-.99s-.689-.374-1.188-.374h-2.266zm15.127 7.326c-1.07 0-2.002-.198-2.794-.594-.792-.4107-1.408-.9753-1.848-1.694-.425-.7333-.638-1.584-.638-2.552v-2.86c0-.968.213-1.8113.638-2.53.44-.7333 1.056-1.298 1.848-1.694.792-.4107 1.724-.616 2.794-.616 1.086 0 2.017.2053 2.794.616.792.396 1.401.9607 1.826 1.694.44.7187.66 1.562.66 2.53v2.86c0 .968-.22 1.8187-.66 2.552-.425.7187-1.034 1.2833-1.826 1.694-.777.396-1.708.594-2.794.594zm0-2.86c.646 0 1.137-.1687 1.474-.506.338-.352.506-.8433.506-1.474v-2.86c0-.6453-.168-1.1367-.506-1.474-.337-.3373-.828-.506-1.474-.506-.63 0-1.122.1687-1.474.506-.337.3373-.506.8287-.506 1.474v2.86c0 .6307.169 1.122.506 1.474.352.3373.844.506 1.474.506zm25.041 6.6v-3.96c-1.393 0-2.493-.4033-3.3-1.21-.792-.8213-1.188-1.936-1.188-3.344v-3.014c0-1.3933.404-2.4933 1.21-3.3.807-.8213 1.9-1.232 3.278-1.232v-3.96h2.684v3.96c1.394 0 2.486.4107 3.278 1.232.807.8067 1.21 1.9067 1.21 3.3v3.014c0 1.408-.403 2.5227-1.21 3.344-.792.8067-1.884 1.21-3.278 1.21v3.96zm.154-6.556v-6.93c-.572 0-1.026.176-1.364.528-.322.3373-.484.814-.484 1.43v3.014c0 .616.162 1.1.484 1.452.338.3373.792.506 1.364.506zm2.376 0c.572 0 1.02-.1687 1.342-.506.338-.352.506-.836.506-1.452v-3.014c0-.616-.168-1.0927-.506-1.43-.322-.352-.77-.528-1.342-.528zm6.856 6.556v-16.06h3.19v2.31h.77l-.77.77c0-1.0413.286-1.848.858-2.42.572-.5867 1.356-.88 2.354-.88 1.217 0 2.192.4327 2.926 1.298.733.8507 1.1 1.9947 1.1 3.432v3.08c0 .9533-.169 1.7893-.506 2.508-.323.704-.785 1.254-1.386 1.65-.602.3813-1.313.572-2.134.572-.998 0-1.782-.286-2.354-.858-.572-.5867-.858-1.4007-.858-2.442l.77.77h-.77l.11 2.97v3.3zm5.214-6.6c.616 0 1.085-.1687 1.408-.506.337-.352.506-.8433.506-1.474v-2.86c0-.6453-.169-1.1367-.506-1.474-.323-.3373-.792-.506-1.408-.506-.602 0-1.071.176-1.408.528-.338.3373-.506.8213-.506 1.452v2.86c0 .6307.168 1.122.506 1.474.337.3373.806.506 1.408.506zm13.125 2.86c-1.071 0-2.002-.198-2.794-.594-.792-.4107-1.408-.9753-1.848-1.694-.425-.7333-.638-1.584-.638-2.552v-2.86c0-.968.213-1.8113.638-2.53.44-.7333 1.056-1.298 1.848-1.694.792-.4107 1.723-.616 2.794-.616 1.085 0 2.017.2053 2.794.616.792.396 1.401.9607 1.826 1.694.44.7187.66 1.562.66 2.53v2.86c0 .968-.22 1.8187-.66 2.552-.425.7187-1.034 1.2833-1.826 1.694-.777.396-1.709.594-2.794.594zm0-2.86c.645 0 1.137-.1687 1.474-.506.337-.352.506-.8433.506-1.474v-2.86c0-.6453-.169-1.1367-.506-1.474s-.829-.506-1.474-.506c-.631 0-1.122.1687-1.474.506-.337.3373-.506.8287-.506 1.474v2.86c0 .6307.169 1.122.506 1.474.352.3373.843.506 1.474.506zm8.043 2.64v-12.1h3.3v4.422h3.696v-4.422h3.3v12.1h-3.3v-4.598h-3.696v4.598zm16.69 0v-9.02h-3.96v-3.08h11.22v3.08h-3.96v9.02zm14.863.22c-1.07 0-2.009-.198-2.816-.594-.792-.4107-1.408-.9753-1.848-1.694-.425-.7333-.638-1.584-.638-2.552v-2.86c0-.968.213-1.8113.638-2.53.44-.7333 1.056-1.298 1.848-1.694.807-.4107 1.746-.616 2.816-.616 1.071 0 1.995.2053 2.772.616.792.396 1.401.9607 1.826 1.694.44.7187.66 1.562.66 2.53v2.2h-7.414v.66c0 .7627.184 1.342.55 1.738.367.3813.917.572 1.65.572.514 0 .924-.088 1.232-.264.323-.176.536-.418.638-.726h3.234c-.264 1.056-.865 1.9067-1.804 2.552-.924.6453-2.038.968-3.344.968zm2.112-7.194v-.55c0-.748-.176-1.32-.528-1.716-.337-.396-.865-.594-1.584-.594-.718 0-1.261.2053-1.628.616-.352.4107-.528.99-.528 1.738v.33l4.488-.044zm5.91 6.974v-12.1h3.3v4.422h3.696v-4.422h3.3v12.1h-3.3v-4.598h-3.696v4.598zm12.223 3.08v-5.874h.682c.249-.2493.506-.682.77-1.298.279-.6307.425-1.3933.44-2.288l.11-5.72h8.91v9.306h1.32v5.874h-3.08v-3.08h-6.072v3.08zm3.96-5.874h3.872v-6.468h-2.794l-.066 2.86c-.015.8507-.139 1.5987-.374 2.244-.22.6307-.433 1.0853-.638 1.364zm12.729-2.156-.11-4.73h2.2c.602 0 1.078-.1467 1.43-.44.352-.308.528-.7113.528-1.21 0-.5133-.183-.9167-.55-1.21-.352-.2933-.828-.44-1.43-.44h-3.63v-3.08h3.41c1.13 0 2.105.198 2.926.594.822.3813 1.452.924 1.892 1.628.455.704.682 1.54.682 2.508 0 .924-.19 1.7307-.572 2.42-.381.6893-.916 1.232-1.606 1.628-.689.3813-1.496.572-2.42.572v1.76zm1.056 5.06c-.498 0-.902-.1393-1.21-.418-.293-.2933-.44-.6673-.44-1.122 0-.4693.147-.8433.44-1.122.308-.2787.712-.418 1.21-.418h.66c.499 0 .895.1393 1.188.418.308.2787.462.6527.462 1.122s-.154.8433-.462 1.122c-.293.2787-.696.418-1.21.418z"/><path d="m174.672 99v-2.608h-5.312v-2.08l4.64-6.992h1.376l-4.736 7.28v.64h4.032v-2.96h1.264v6.72zm4.41 0v-1.312l3.6-3.776c.64-.672 1.109-1.28 1.408-1.824.298-.544.448-1.072.448-1.584 0-.6827-.198-1.2213-.592-1.616-.384-.4053-.912-.608-1.584-.608-.704 0-1.264.2027-1.68.608-.406.4053-.608.96-.608 1.664h-1.28c.021-.6933.181-1.296.48-1.808.298-.512.709-.9013 1.232-1.168.533-.2773 1.152-.416 1.856-.416s1.312.1333 1.824.4c.522.2667.922.6507 1.2 1.152.277.4907.416 1.0827.416 1.776 0 .672-.182 1.344-.544 2.016-.363.672-.944 1.424-1.744 2.256l-3.04 3.088h5.552v1.152zm12.906.16c-.704 0-1.318-.1387-1.84-.416-.523-.288-.928-.688-1.216-1.2-.278-.5227-.416-1.1307-.416-1.824v-5.12c0-.704.138-1.312.416-1.824.288-.512.693-.9067 1.216-1.184.522-.288 1.136-.432 1.84-.432.714 0 1.328.144 1.84.432.522.2773.922.672 1.2 1.184.288.512.432 1.12.432 1.824v5.12c0 .704-.144 1.312-.432 1.824-.278.512-.678.912-1.2 1.2-.523.2773-1.136.416-1.84.416zm0-1.12c.672 0 1.205-.2133 1.6-.64.405-.4267.608-.9867.608-1.68v-5.12c0-.6933-.203-1.2533-.608-1.68-.395-.4267-.928-.64-1.6-.64s-1.211.2133-1.616.64c-.395.4267-.592.9867-.592 1.68v5.12c0 .6933.197 1.2533.592 1.68.405.4267.944.64 1.616.64zm0-3.984c-.278 0-.502-.0853-.672-.256-.16-.1813-.24-.4107-.24-.688s.08-.496.24-.656c.17-.1707.394-.256.672-.256.277 0 .496.0853.656.256.17.16.256.3787.256.656s-.086.5067-.256.688c-.16.1707-.379.256-.656.256zm21.059 4.944v-3.248c-.171.0427-.437.0853-.8.128-.363.032-.768.048-1.216.048-1.056.0107-1.877-.2507-2.464-.784-.576-.5333-.864-1.2853-.864-2.256v-2.688h1.264v2.688c0 .5973.181 1.0613.544 1.392.373.3307.901.496 1.584.496.491 0 .907-.016 1.248-.048.341-.0427.576-.08.704-.112v-4.416h1.264v8.8zm7.034.16c-.928 0-1.659-.2347-2.192-.704-.534-.48-.8-1.1253-.8-1.936 0-.8.261-1.4293.784-1.888.522-.4693 1.226-.704 2.112-.704h2.8v-.928c0-.5867-.171-1.04-.512-1.36-.342-.32-.827-.48-1.456-.48-.555 0-1.019.1227-1.392.368-.363.2453-.571.576-.624.992h-1.28c.106-.7573.458-1.36 1.056-1.808.608-.448 1.365-.672 2.272-.672.981 0 1.76.2667 2.336.8.576.5227.864 1.232.864 2.128v6.032h-1.248v-1.712h-.208l.24-.256c0 .6507-.251 1.168-.752 1.552-.502.384-1.168.576-2 .576zm.304-1.024c.704 0 1.28-.176 1.728-.528s.672-.8107.672-1.376v-1.328h-2.784c-.502 0-.902.1387-1.2.416-.299.2773-.448.656-.448 1.136 0 .512.181.9227.544 1.232.362.2987.858.448 1.488.448zm9.994 1.024c-.683 0-1.28-.1333-1.792-.4s-.912-.6453-1.2-1.136c-.278-.5013-.416-1.0933-.416-1.776v-2.496c0-.6827.138-1.2693.416-1.76.288-.5013.688-.8853 1.2-1.152s1.109-.4 1.792-.4c1.002 0 1.808.272 2.416.816s.922 1.2853.944 2.224h-1.264c-.022-.608-.219-1.0773-.592-1.408-.363-.3307-.864-.496-1.504-.496-.651 0-1.168.192-1.552.576-.384.3733-.576.9067-.576 1.6v2.496c0 .6827.192 1.216.576 1.6s.901.576 1.552.576c.64 0 1.141-.1653 1.504-.496.373-.3413.57-.8107.592-1.408h1.264c-.022.9387-.336 1.68-.944 2.224s-1.414.816-2.416.816zm9.577-.016c-.682 0-1.274-.1333-1.776-.4-.501-.2667-.89-.6507-1.168-1.152-.277-.5013-.416-1.0933-.416-1.776v-2.432c0-.6933.139-1.2853.416-1.776.278-.5013.667-.8853 1.168-1.152.502-.2667 1.094-.4 1.776-.4.683 0 1.275.1333 1.776.4.502.2667.891.6507 1.168 1.152.278.4907.416 1.0773.416 1.76v2.448c0 .6827-.138 1.2747-.416 1.776-.277.5013-.666.8853-1.168 1.152-.501.2667-1.093.4-1.776.4zm0-1.136c.662 0 1.174-.1867 1.536-.56.363-.3733.544-.9173.544-1.632v-2.432c0-.7147-.186-1.2587-.56-1.632-.362-.3733-.869-.56-1.52-.56-.65 0-1.162.1867-1.536.56-.362.3733-.544.9173-.544 1.632v2.432c0 .7147.182 1.2587.544 1.632.374.3733.886.56 1.536.56zm6.362.992v-8.8h3.776c.875 0 1.563.208 2.064.624.501.4053.752.9707.752 1.696 0 .608-.208 1.0987-.624 1.472-.405.3627-.949.544-1.632.544v-.112c.736 0 1.328.192 1.776.576.448.3733.672.8747.672 1.504 0 .7787-.267 1.392-.8 1.84-.523.4373-1.248.656-2.176.656zm1.248-1.12h2.56c.523 0 .939-.1227 1.248-.368.309-.256.464-.5973.464-1.024 0-.448-.155-.7947-.464-1.04-.309-.256-.725-.384-1.248-.384h-2.56zm0-3.92h2.528c.469 0 .843-.1173 1.12-.352.288-.2347.432-.5547.432-.96s-.144-.7253-.432-.96c-.277-.2453-.651-.368-1.12-.368h-2.528zm17.94 5.04v-8.8h6.464v8.8h-1.28v-7.648h-3.904v7.648zm9.577 2.88v-11.68h1.264v1.552h.336l-.384.528c0-.6933.224-1.2373.672-1.632.459-.4053 1.062-.608 1.808-.608.886 0 1.59.2933 2.112.88.534.576.8 1.3653.8 2.368v2.608c0 .672-.122 1.2533-.368 1.744-.245.48-.586.8533-1.024 1.12-.426.2667-.933.4-1.52.4-.736 0-1.333-.2027-1.792-.608-.458-.4053-.688-.9493-.688-1.632l.336.528h-.304l.016 1.792v2.64zm3.296-3.824c.64 0 1.136-.192 1.488-.576.363-.384.544-.928.544-1.632v-2.496c0-.7147-.181-1.2587-.544-1.632-.352-.384-.848-.576-1.488-.576-.618 0-1.114.1973-1.488.592-.362.384-.544.9227-.544 1.616v2.496c0 .6933.182 1.2373.544 1.632.374.384.87.576 1.488.576zm8.858 1.104c-.928 0-1.659-.2347-2.192-.704-.533-.48-.8-1.1253-.8-1.936 0-.8.261-1.4293.784-1.888.523-.4693 1.227-.704 2.112-.704h2.8v-.928c0-.5867-.171-1.04-.512-1.36s-.827-.48-1.456-.48c-.555 0-1.019.1227-1.392.368-.363.2453-.571.576-.624.992h-1.28c.107-.7573.459-1.36 1.056-1.808.608-.448 1.365-.672 2.272-.672.981 0 1.76.2667 2.336.8.576.5227.864 1.232.864 2.128v6.032h-1.248v-1.712h-.208l.24-.256c0 .6507-.251 1.168-.752 1.552s-1.168.576-2 .576zm.304-1.024c.704 0 1.28-.176 1.728-.528s.672-.8107.672-1.376v-1.328h-2.784c-.501 0-.901.1387-1.2.416s-.448.656-.448 1.136c0 .512.181.9227.544 1.232.363.2987.859.448 1.488.448zm6.794.864v-8.8h1.28v3.696h1.664l2.608-3.696h1.456l-2.96 4.192 3.024 4.608h-1.488l-2.64-4h-1.664v4zm12.138 0v-7.664h-3.2v-1.136h7.68v1.136h-3.2v7.664zm7.001 0v-8.8h1.232v5.008c0 .2987-.01.6187-.032.96-.01.3307-.026.6453-.048.944-.021.2987-.042.5493-.064.752l3.728-7.664h1.648v8.8h-1.232v-5.008c0-.3093.006-.6293.016-.96.022-.3307.043-.6453.064-.944.032-.3093.054-.5653.064-.768l-3.744 7.68zm9.642 0v-8.8h1.28v3.696h1.664l2.608-3.696h1.456l-2.96 4.192 3.024 4.608h-1.488l-2.64-4h-1.664v4zm9.546 0v-8.8h1.232v5.008c0 .2987-.011.6187-.032.96-.011.3307-.027.6453-.048.944-.022.2987-.043.5493-.064.752l3.728-7.664h1.648v8.8h-1.232v-5.008c0-.3093.005-.6293.016-.96.021-.3307.042-.6453.064-.944.032-.3093.053-.5653.064-.768l-3.744 7.68zm22.435.16c-.682 0-1.28-.1333-1.792-.4s-.912-.6453-1.2-1.136c-.277-.5013-.416-1.0933-.416-1.776v-2.496c0-.6827.139-1.2693.416-1.76.288-.5013.688-.8853 1.2-1.152s1.11-.4 1.792-.4c1.003 0 1.808.272 2.416.816s.923 1.2853.944 2.224h-1.264c-.021-.608-.218-1.0773-.592-1.408-.362-.3307-.864-.496-1.504-.496-.65 0-1.168.192-1.552.576-.384.3733-.576.9067-.576 1.6v2.496c0 .6827.192 1.216.576 1.6s.902.576 1.552.576c.64 0 1.142-.1653 1.504-.496.374-.3413.571-.8107.592-1.408h1.264c-.021.9387-.336 1.68-.944 2.224s-1.413.816-2.416.816zm15.94-.16v-8.8h1.28v3.744h3.904v-3.744h1.28v8.8h-1.28v-3.904h-3.904v3.904zm12.137.16c-.927 0-1.658-.2347-2.191-.704-.534-.48-.8-1.1253-.8-1.936 0-.8.261-1.4293.784-1.888.522-.4693 1.226-.704 2.112-.704h2.8v-.928c0-.5867-.171-1.04-.512-1.36-.342-.32-.827-.48-1.456-.48-.555 0-1.019.1227-1.392.368-.363.2453-.571.576-.624.992h-1.28c.106-.7573.458-1.36 1.056-1.808.608-.448 1.365-.672 2.272-.672.981 0 1.76.2667 2.336.8.576.5227.863 1.232.863 2.128v6.032h-1.247v-1.712h-.208l.24-.256c0 .6507-.251 1.168-.752 1.552-.502.384-1.168.576-2.001.576zm.305-1.024c.704 0 1.28-.176 1.728-.528s.672-.8107.672-1.376v-1.328h-2.784c-.502 0-.902.1387-1.2.416-.299.2773-.448.656-.448 1.136 0 .512.181.9227.544 1.232.362.2987.858.448 1.488.448zm9.993 1.024c-.682 0-1.28-.1333-1.792-.4s-.912-.6453-1.2-1.136c-.277-.5013-.416-1.0933-.416-1.776v-2.496c0-.6827.139-1.2693.416-1.76.288-.5013.688-.8853 1.2-1.152s1.11-.4 1.792-.4c1.003 0 1.808.272 2.416.816s.923 1.2853.944 2.224h-1.264c-.021-.608-.218-1.0773-.592-1.408-.362-.3307-.864-.496-1.504-.496-.65 0-1.168.192-1.552.576-.384.3733-.576.9067-.576 1.6v2.496c0 .6827.192 1.216.576 1.6s.902.576 1.552.576c.64 0 1.142-.1653 1.504-.496.374-.3413.571-.8107.592-1.408h1.264c-.021.9387-.336 1.68-.944 2.224s-1.413.816-2.416.816zm8.938-.16v-7.664h-3.2v-1.136h7.68v1.136h-3.2v7.664zm9.546.16c-.928 0-1.659-.2347-2.192-.704-.534-.48-.8-1.1253-.8-1.936 0-.8.261-1.4293.784-1.888.522-.4693 1.226-.704 2.112-.704h2.8v-.928c0-.5867-.171-1.04-.512-1.36-.342-.32-.827-.48-1.456-.48-.555 0-1.019.1227-1.392.368-.363.2453-.571.576-.624.992h-1.28c.106-.7573.458-1.36 1.056-1.808.608-.448 1.365-.672 2.272-.672.981 0 1.76.2667 2.336.8.576.5227.864 1.232.864 2.128v6.032h-1.248v-1.712h-.208l.24-.256c0 .6507-.251 1.168-.752 1.552-.502.384-1.168.576-2 .576zm.304-1.024c.704 0 1.28-.176 1.728-.528s.672-.8107.672-1.376v-1.328h-2.784c-.502 0-.902.1387-1.2.416-.299.2773-.448.656-.448 1.136 0 .512.181.9227.544 1.232.362.2987.858.448 1.488.448zm6.746.864v-8.8h3.776c.874 0 1.562.208 2.064.624.501.4053.752.9707.752 1.696 0 .608-.208 1.0987-.624 1.472-.406.3627-.95.544-1.632.544v-.112c.736 0 1.328.192 1.776.576.448.3733.672.8747.672 1.504 0 .7787-.267 1.392-.8 1.84-.523.4373-1.248.656-2.176.656zm1.248-1.12h2.56c.522 0 .938-.1227 1.248-.368.309-.256.464-.5973.464-1.024 0-.448-.155-.7947-.464-1.04-.31-.256-.726-.384-1.248-.384h-2.56zm0-3.92h2.528c.469 0 .842-.1173 1.12-.352.288-.2347.432-.5547.432-.96s-.144-.7253-.432-.96c-.278-.2453-.651-.368-1.12-.368h-2.528zm8.345 5.04v-8.8h1.28v3.744h3.904v-3.744h1.28v8.8h-1.28v-3.904h-3.904v3.904zm9.594 0v-8.8h1.232v5.008c0 .2987-.011.6187-.032.96-.011.3307-.027.6453-.048.944s-.043.5493-.064.752l3.728-7.664h1.648v8.8h-1.232v-5.008c0-.3093.005-.6293.016-.96.021-.3307.043-.6453.064-.944.032-.3093.053-.5653.064-.768l-3.744 7.68zm9.642 0v-8.8h1.28v3.696h1.664l2.608-3.696h1.456l-2.96 4.192 3.024 4.608h-1.488l-2.64-4h-1.664v4zm12.778.144c-.683 0-1.275-.1333-1.776-.4-.502-.2667-.891-.6507-1.168-1.152-.278-.5013-.416-1.0933-.416-1.776v-2.432c0-.6933.138-1.2853.416-1.776.277-.5013.666-.8853 1.168-1.152.501-.2667 1.093-.4 1.776-.4.682 0 1.274.1333 1.776.4.501.2667.89.6507 1.168 1.152.277.4907.416 1.0773.416 1.76v2.448c0 .6827-.139 1.2747-.416 1.776-.278.5013-.667.8853-1.168 1.152-.502.2667-1.094.4-1.776.4zm0-1.136c.661 0 1.173-.1867 1.536-.56.362-.3733.544-.9173.544-1.632v-2.432c0-.7147-.187-1.2587-.56-1.632-.363-.3733-.87-.56-1.52-.56-.651 0-1.163.1867-1.536.56-.363.3733-.544.9173-.544 1.632v2.432c0 .7147.181 1.2587.544 1.632.373.3733.885.56 1.536.56zm6.073.992v-8.8h1.76l1.28 3.584c.107.3093.208.624.304.944s.166.5707.208.752c.054-.1813.123-.432.208-.752.096-.32.198-.64.304-.96l1.232-3.568h1.744v8.8h-1.232v-2.112c0-.4587.006-.9493.016-1.472.011-.5227.022-1.0453.032-1.568.011-.5227.027-1.0133.048-1.472.022-.4693.038-.88.048-1.232l-1.744 5.216h-1.344l-1.744-5.184c.022.4267.038.9653.048 1.616.011.64.022 1.3173.032 2.032.022.7147.032 1.4027.032 2.064v2.112zm11.066 2.56 1.248-4.976h1.92l-2.064 4.976zm-308.184 18.44v-8.8h6.464v8.8h-1.28v-7.648h-3.904v7.648zm12.826.16c-.683 0-1.275-.133-1.776-.4-.502-.277-.891-.667-1.168-1.168-.278-.501-.416-1.083-.416-1.744v-2.496c0-.672.138-1.253.416-1.744.277-.501.666-.885 1.168-1.152.501-.277 1.093-.416 1.776-.416.682 0 1.274.139 1.776.416.501.267.89.651 1.168 1.152.277.491.416 1.072.416 1.744v1.552h-5.472v.944c0 .715.181 1.269.544 1.664.373.384.896.576 1.568.576.565 0 1.024-.112 1.376-.336.362-.224.592-.549.688-.976h1.264c-.118.736-.475 1.317-1.072 1.744-.598.427-1.35.64-2.256.64zm2.112-5.104v-.704c0-.715-.182-1.264-.544-1.648-.363-.395-.886-.592-1.568-.592-.672 0-1.195.197-1.568.592-.363.384-.544.933-.544 1.648v.56h4.352zm4.234 7.824v-11.68h1.264v1.552h.336l-.384.528c0-.693.224-1.237.672-1.632.458-.405 1.061-.608 1.808-.608.885 0 1.589.293 2.112.88.533.576.8 1.365.8 2.368v2.608c0 .672-.123 1.253-.368 1.744-.246.48-.587.853-1.024 1.12-.427.267-.934.4-1.52.4-.736 0-1.334-.203-1.792-.608-.459-.405-.688-.949-.688-1.632l.336.528h-.304l.016 1.792v2.64zm3.296-3.824c.64 0 1.136-.192 1.488-.576.362-.384.544-.928.544-1.632v-2.496c0-.715-.182-1.259-.544-1.632-.352-.384-.848-.576-1.488-.576-.619 0-1.115.197-1.488.592-.363.384-.544.923-.544 1.616v2.496c0 .693.181 1.237.544 1.632.373.384.869.576 1.488.576zm6.313.944v-8.8h3.776c.875 0 1.563.208 2.064.624.502.405.752.971.752 1.696 0 .608-.208 1.099-.624 1.472-.405.363-.949.544-1.632.544v-.112c.736 0 1.328.192 1.776.576.448.373.672.875.672 1.504 0 .779-.266 1.392-.8 1.84-.522.437-1.248.656-2.176.656zm1.248-1.12h2.56c.523 0 .939-.123 1.248-.368.31-.256.464-.597.464-1.024 0-.448-.154-.795-.464-1.04-.309-.256-.725-.384-1.248-.384h-2.56zm0-3.92h2.528c.47 0 .843-.117 1.12-.352.288-.235.432-.555.432-.96s-.144-.725-.432-.96c-.277-.245-.65-.368-1.12-.368h-2.528zm7.882 5.04v-8.8h1.2v3.264h.784c.939 0 1.68.251 2.224.752.555.491.832 1.163.832 2.016s-.272 1.531-.816 2.032c-.544.491-1.291.736-2.24.736zm1.2-1.04h.784c.597 0 1.061-.149 1.392-.448.341-.309.512-.736.512-1.28s-.171-.965-.512-1.264c-.331-.309-.795-.464-1.392-.464h-.784zm4.992 1.04v-8.8h1.2v8.8zm3.866 0v-8.8h1.232v5.008c0 .299-.011.619-.032.96-.011.331-.027.645-.048.944-.022.299-.043.549-.064.752l3.728-7.664h1.648v8.8h-1.232v-5.008c0-.309.005-.629.016-.96.021-.331.042-.645.064-.944.032-.309.053-.565.064-.768l-3.744 7.68zm3.296-10.256c-.758 0-1.366-.208-1.824-.624-.448-.427-.672-.987-.672-1.68h1.024c0 .437.128.789.384 1.056.266.267.624.4 1.072.4.458 0 .821-.133 1.088-.4.266-.267.4-.619.4-1.056h1.024c0 .693-.23 1.253-.688 1.68-.448.416-1.051.624-1.808.624zm15.939 10.256v-8.8h1.28v3.696h1.664l2.608-3.696h1.456l-2.96 4.192 3.024 4.608h-1.488l-2.64-4h-1.664v4zm12.778.144c-.683 0-1.275-.133-1.776-.4s-.891-.651-1.168-1.152-.416-1.093-.416-1.776v-2.432c0-.693.139-1.285.416-1.776.277-.501.667-.885 1.168-1.152s1.093-.4 1.776-.4 1.275.133 1.776.4.891.651 1.168 1.152c.277.491.416 1.077.416 1.76v2.448c0 .683-.139 1.275-.416 1.776s-.667.885-1.168 1.152-1.093.4-1.776.4zm0-1.136c.661 0 1.173-.187 1.536-.56s.544-.917.544-1.632v-2.432c0-.715-.187-1.259-.56-1.632-.363-.373-.869-.56-1.52-.56s-1.163.187-1.536.56c-.363.373-.544.917-.544 1.632v2.432c0 .715.181 1.259.544 1.632.373.373.885.56 1.536.56zm6.074.992v-8.8h1.76l1.28 3.584c.106.309.208.624.304.944s.165.571.208.752c.053-.181.122-.432.208-.752.096-.32.197-.64.304-.96l1.232-3.568h1.744v8.8h-1.232v-2.112c0-.459.005-.949.016-1.472.01-.523.021-1.045.032-1.568.01-.523.026-1.013.048-1.472.021-.469.037-.88.048-1.232l-1.744 5.216h-1.344l-1.744-5.184c.021.427.037.965.048 1.616.01.64.021 1.317.032 2.032.021.715.032 1.403.032 2.064v2.112zm9.594 0v-8.8h1.76l1.28 3.584c.106.309.208.624.304.944s.165.571.208.752c.053-.181.122-.432.208-.752.096-.32.197-.64.304-.96l1.232-3.568h1.744v8.8h-1.232v-2.112c0-.459.005-.949.016-1.472.01-.523.021-1.045.032-1.568.01-.523.026-1.013.048-1.472.021-.469.037-.88.048-1.232l-1.744 5.216h-1.344l-1.744-5.184c.021.427.037.965.048 1.616.01.64.021 1.317.032 2.032.021.715.032 1.403.032 2.064v2.112zm13.113.16c-.682 0-1.274-.133-1.776-.4-.501-.277-.89-.667-1.168-1.168-.277-.501-.416-1.083-.416-1.744v-2.496c0-.672.139-1.253.416-1.744.278-.501.667-.885 1.168-1.152.502-.277 1.094-.416 1.776-.416.683 0 1.275.139 1.776.416.502.267.891.651 1.168 1.152.278.491.416 1.072.416 1.744v1.552h-5.472v.944c0 .715.182 1.269.544 1.664.374.384.896.576 1.568.576.566 0 1.024-.112 1.376-.336.363-.224.592-.549.688-.976h1.264c-.117.736-.474 1.317-1.072 1.744-.597.427-1.349.64-2.256.64zm2.112-5.104v-.704c0-.715-.181-1.264-.544-1.648-.362-.395-.885-.592-1.568-.592-.672 0-1.194.197-1.568.592-.362.384-.544.933-.544 1.648v.56h4.352zm4.234 7.824v-11.68h1.264v1.552h.336l-.384.528c0-.693.224-1.237.672-1.632.459-.405 1.061-.608 1.808-.608.885 0 1.589.293 2.112.88.533.576.8 1.365.8 2.368v2.608c0 .672-.123 1.253-.368 1.744-.245.48-.587.853-1.024 1.12-.427.267-.933.4-1.52.4-.736 0-1.333-.203-1.792-.608s-.688-.949-.688-1.632l.336.528h-.304l.016 1.792v2.64zm3.296-3.824c.64 0 1.136-.192 1.488-.576.363-.384.544-.928.544-1.632v-2.496c0-.715-.181-1.259-.544-1.632-.352-.384-.848-.576-1.488-.576-.619 0-1.115.197-1.488.592-.363.384-.544.923-.544 1.616v2.496c0 .693.181 1.237.544 1.632.373.384.869.576 1.488.576zm11.418.944v-3.248c-.171.043-.438.085-.8.128-.363.032-.768.048-1.216.048-1.056.011-1.878-.251-2.464-.784-.576-.533-.864-1.285-.864-2.256v-2.688h1.264v2.688c0 .597.181 1.061.544 1.392.373.331.901.496 1.584.496.49 0 .906-.016 1.248-.048.341-.043.576-.08.704-.112v-4.416h1.264v8.8zm7.722.16c-.683 0-1.275-.133-1.776-.4-.502-.277-.891-.667-1.168-1.168-.278-.501-.416-1.083-.416-1.744v-2.496c0-.672.138-1.253.416-1.744.277-.501.666-.885 1.168-1.152.501-.277 1.093-.416 1.776-.416.682 0 1.274.139 1.776.416.501.267.89.651 1.168 1.152.277.491.416 1.072.416 1.744v1.552h-5.472v.944c0 .715.181 1.269.544 1.664.373.384.896.576 1.568.576.565 0 1.024-.112 1.376-.336.362-.224.592-.549.688-.976h1.264c-.118.736-.475 1.317-1.072 1.744-.598.427-1.35.64-2.256.64zm2.112-5.104v-.704c0-.715-.182-1.264-.544-1.648-.363-.395-.886-.592-1.568-.592-.672 0-1.195.197-1.568.592-.363.384-.544.933-.544 1.648v.56h4.352zm7.497 5.104c-.682 0-1.28-.133-1.792-.4s-.912-.645-1.2-1.136c-.277-.501-.416-1.093-.416-1.776v-2.496c0-.683.139-1.269.416-1.76.288-.501.688-.885 1.2-1.152s1.11-.4 1.792-.4c1.003 0 1.808.272 2.416.816s.923 1.285.944 2.224h-1.264c-.021-.608-.218-1.077-.592-1.408-.362-.331-.864-.496-1.504-.496-.65 0-1.168.192-1.552.576-.384.373-.576.907-.576 1.6v2.496c0 .683.192 1.216.576 1.6s.902.576 1.552.576c.64 0 1.142-.165 1.504-.496.374-.341.571-.811.592-1.408h1.264c-.021.939-.336 1.68-.944 2.224s-1.413.816-2.416.816zm6.394-.16v-8.8h1.28v3.696h1.664l2.608-3.696h1.456l-2.96 4.192 3.024 4.608h-1.488l-2.64-4h-1.664v4zm9.546 0v-8.8h1.232v5.008c0 .299-.011.619-.032.96-.011.331-.027.645-.048.944-.022.299-.043.549-.064.752l3.728-7.664h1.648v8.8h-1.232v-5.008c0-.309.005-.629.016-.96.021-.331.042-.645.064-.944.032-.309.053-.565.064-.768l-3.744 7.68zm9.594 0v-8.8h1.232v5.008c0 .299-.011.619-.032.96-.011.331-.027.645-.048.944-.022.299-.043.549-.064.752l3.728-7.664h1.648v8.8h-1.232v-5.008c0-.309.005-.629.016-.96.021-.331.042-.645.064-.944.032-.309.053-.565.064-.768l-3.744 7.68zm3.296-10.256c-.758 0-1.366-.208-1.824-.624-.448-.427-.672-.987-.672-1.68h1.024c0 .437.128.789.384 1.056.266.267.624.4 1.072.4.458 0 .821-.133 1.088-.4.266-.267.4-.619.4-1.056h1.024c0 .693-.23 1.253-.688 1.68-.448.416-1.051.624-1.808.624zm15.891 10.256v-8.8h6.464v8.8h-1.28v-7.648h-3.904v7.648zm9.578 2.88v-11.68h1.264v1.552h.336l-.384.528c0-.693.224-1.237.672-1.632.458-.405 1.061-.608 1.808-.608.885 0 1.589.293 2.112.88.533.576.8 1.365.8 2.368v2.608c0 .672-.123 1.253-.368 1.744-.246.48-.587.853-1.024 1.12-.427.267-.934.4-1.52.4-.736 0-1.334-.203-1.792-.608-.459-.405-.688-.949-.688-1.632l.336.528h-.304l.016 1.792v2.64zm3.296-3.824c.64 0 1.136-.192 1.488-.576.362-.384.544-.928.544-1.632v-2.496c0-.715-.182-1.259-.544-1.632-.352-.384-.848-.576-1.488-.576-.619 0-1.115.197-1.488.592-.363.384-.544.923-.544 1.616v2.496c0 .693.181 1.237.544 1.632.373.384.869.576 1.488.576zm9.546 1.088c-.683 0-1.275-.133-1.776-.4-.502-.267-.891-.651-1.168-1.152-.278-.501-.416-1.093-.416-1.776v-2.432c0-.693.138-1.285.416-1.776.277-.501.666-.885 1.168-1.152.501-.267 1.093-.4 1.776-.4.682 0 1.274.133 1.776.4.501.267.89.651 1.168 1.152.277.491.416 1.077.416 1.76v2.448c0 .683-.139 1.275-.416 1.776-.278.501-.667.885-1.168 1.152-.502.267-1.094.4-1.776.4zm0-1.136c.661 0 1.173-.187 1.536-.56.362-.373.544-.917.544-1.632v-2.432c0-.715-.187-1.259-.56-1.632-.363-.373-.87-.56-1.52-.56-.651 0-1.163.187-1.536.56-.363.373-.544.917-.544 1.632v2.432c0 .715.181 1.259.544 1.632.373.373.885.56 1.536.56zm9.593 1.152c-.682 0-1.274-.133-1.776-.4-.501-.277-.89-.667-1.168-1.168-.277-.501-.416-1.083-.416-1.744v-2.496c0-.672.139-1.253.416-1.744.278-.501.667-.885 1.168-1.152.502-.277 1.094-.416 1.776-.416.683 0 1.275.139 1.776.416.502.267.891.651 1.168 1.152.278.491.416 1.072.416 1.744v1.552h-5.472v.944c0 .715.182 1.269.544 1.664.374.384.896.576 1.568.576.566 0 1.024-.112 1.376-.336.363-.224.592-.549.688-.976h1.264c-.117.736-.474 1.317-1.072 1.744-.597.427-1.349.64-2.256.64zm2.112-5.104v-.704c0-.715-.181-1.264-.544-1.648-.362-.395-.885-.592-1.568-.592-.672 0-1.194.197-1.568.592-.362.384-.544.933-.544 1.648v.56h4.352zm4.298 4.944v-8.8h1.28v3.696h1.664l2.608-3.696h1.456l-2.96 4.192 3.024 4.608h-1.488l-2.64-4h-1.664v4zm12.138 0v-7.664h-3.2v-1.136h7.68v1.136h-3.2v7.664zm-242.436 21v-8.8h1.232v5.008c0 .299-.011.619-.032.96-.011.331-.027.645-.048.944s-.043.549-.064.752l3.728-7.664h1.648v8.8h-1.232v-5.008c0-.309.005-.629.016-.96.021-.331.043-.645.064-.944.032-.309.053-.565.064-.768l-3.744 7.68zm19.188 0v-8.8h6.464v8.8h-1.28v-7.648h-3.904v7.648zm12.825.144c-.682 0-1.274-.133-1.776-.4-.501-.267-.89-.651-1.168-1.152-.277-.501-.416-1.093-.416-1.776v-2.432c0-.693.139-1.285.416-1.776.278-.501.667-.885 1.168-1.152.502-.267 1.094-.4 1.776-.4.683 0 1.275.133 1.776.4.502.267.891.651 1.168 1.152.278.491.416 1.077.416 1.76v2.448c0 .683-.138 1.275-.416 1.776-.277.501-.666.885-1.168 1.152-.501.267-1.093.4-1.776.4zm0-1.136c.662 0 1.174-.187 1.536-.56.363-.373.544-.917.544-1.632v-2.432c0-.715-.186-1.259-.56-1.632-.362-.373-.869-.56-1.52-.56-.65 0-1.162.187-1.536.56-.362.373-.544.917-.544 1.632v2.432c0 .715.182 1.259.544 1.632.374.373.886.56 1.536.56zm5.338 3.232v-3.328h.72c.181-.203.368-.565.56-1.088.203-.533.309-1.179.32-1.936l.096-4.688h5.6v7.712h1.136v3.328h-1.136v-2.24h-6.16v2.24zm2.08-3.328h3.952v-6.576h-3.136l-.064 3.568c-.011.8-.101 1.456-.272 1.968s-.331.859-.48 1.04zm9.114 1.088v-8.8h6.24v1.152h-4.976v7.648zm12.25.144c-.683 0-1.275-.133-1.776-.4-.502-.267-.891-.651-1.168-1.152-.278-.501-.416-1.093-.416-1.776v-2.432c0-.693.138-1.285.416-1.776.277-.501.666-.885 1.168-1.152.501-.267 1.093-.4 1.776-.4.682 0 1.274.133 1.776.4.501.267.89.651 1.168 1.152.277.491.416 1.077.416 1.76v2.448c0 .683-.139 1.275-.416 1.776-.278.501-.667.885-1.168 1.152-.502.267-1.094.4-1.776.4zm0-1.136c.661 0 1.173-.187 1.536-.56.362-.373.544-.917.544-1.632v-2.432c0-.715-.187-1.259-.56-1.632-.363-.373-.87-.56-1.52-.56-.651 0-1.163.187-1.536.56-.363.373-.544.917-.544 1.632v2.432c0 .715.181 1.259.544 1.632.373.373.885.56 1.536.56zm8.953.992v-7.664h-3.2v-1.136h7.68v1.136h-3.2v7.664zm10.234.144c-.683 0-1.275-.133-1.776-.4s-.891-.651-1.168-1.152-.416-1.093-.416-1.776v-2.432c0-.693.139-1.285.416-1.776.277-.501.667-.885 1.168-1.152s1.093-.4 1.776-.4 1.275.133 1.776.4.891.651 1.168 1.152c.277.491.416 1.077.416 1.76v2.448c0 .683-.139 1.275-.416 1.776s-.667.885-1.168 1.152-1.093.4-1.776.4zm0-1.136c.661 0 1.173-.187 1.536-.56s.544-.917.544-1.632v-2.432c0-.715-.187-1.259-.56-1.632-.363-.373-.869-.56-1.52-.56s-1.163.187-1.536.56c-.363.373-.544.917-.544 1.632v2.432c0 .715.181 1.259.544 1.632.373.373.885.56 1.536.56zm6.362.992v-8.8h3.776c.874 0 1.562.208 2.064.624.501.405.752.971.752 1.696 0 .608-.208 1.099-.624 1.472-.406.363-.95.544-1.632.544v-.112c.736 0 1.328.192 1.776.576.448.373.672.875.672 1.504 0 .779-.267 1.392-.8 1.84-.523.437-1.248.656-2.176.656zm1.248-1.12h2.56c.522 0 .938-.123 1.248-.368.309-.256.464-.597.464-1.024 0-.448-.155-.795-.464-1.04-.31-.256-.726-.384-1.248-.384h-2.56zm0-3.92h2.528c.469 0 .842-.117 1.12-.352.288-.235.432-.555.432-.96s-.144-.725-.432-.96c-.278-.245-.651-.368-1.12-.368h-2.528zm8.394 5.04v-8.8h1.28v3.696h1.664l2.608-3.696h1.456l-2.96 4.192 3.024 4.608h-1.488l-2.64-4h-1.664v4zm12.089.16c-.928 0-1.658-.235-2.192-.704-.533-.48-.8-1.125-.8-1.936 0-.8.262-1.429.784-1.888.523-.469 1.227-.704 2.112-.704h2.8v-.928c0-.587-.17-1.04-.512-1.36-.341-.32-.826-.48-1.456-.48-.554 0-1.018.123-1.392.368-.362.245-.57.576-.624.992h-1.28c.107-.757.459-1.36 1.056-1.808.608-.448 1.366-.672 2.272-.672.982 0 1.76.267 2.336.8.576.523.864 1.232.864 2.128v6.032h-1.248v-1.712h-.208l.24-.256c0 .651-.25 1.168-.752 1.552-.501.384-1.168.576-2 .576zm.304-1.024c.704 0 1.28-.176 1.728-.528s.672-.811.672-1.376v-1.328h-2.784c-.501 0-.901.139-1.2.416-.298.277-.448.656-.448 1.136 0 .512.182.923.544 1.232.363.299.859.448 1.488.448zm16.388.864v-8.8h1.28v3.696h1.664l2.608-3.696h1.456l-2.96 4.192 3.024 4.608h-1.488l-2.64-4h-1.664v4zm22.387.16c-.682 0-1.28-.133-1.792-.4s-.912-.645-1.2-1.136c-.277-.501-.416-1.093-.416-1.776v-2.496c0-.683.139-1.269.416-1.76.288-.501.688-.885 1.2-1.152s1.11-.4 1.792-.4c1.003 0 1.808.272 2.416.816s.923 1.285.944 2.224h-1.264c-.021-.608-.218-1.077-.592-1.408-.362-.331-.864-.496-1.504-.496-.65 0-1.168.192-1.552.576-.384.373-.576.907-.576 1.6v2.496c0 .683.192 1.216.576 1.6s.902.576 1.552.576c.64 0 1.142-.165 1.504-.496.374-.341.571-.811.592-1.408h1.264c-.021.939-.336 1.68-.944 2.224s-1.413.816-2.416.816zm9.578-.016c-.683 0-1.275-.133-1.776-.4s-.891-.651-1.168-1.152-.416-1.093-.416-1.776v-2.432c0-.693.139-1.285.416-1.776.277-.501.667-.885 1.168-1.152s1.093-.4 1.776-.4 1.275.133 1.776.4.891.651 1.168 1.152c.277.491.416 1.077.416 1.76v2.448c0 .683-.139 1.275-.416 1.776s-.667.885-1.168 1.152-1.093.4-1.776.4zm0-1.136c.661 0 1.173-.187 1.536-.56s.544-.917.544-1.632v-2.432c0-.715-.187-1.259-.56-1.632-.363-.373-.869-.56-1.52-.56s-1.163.187-1.536.56c-.363.373-.544.917-.544 1.632v2.432c0 .715.181 1.259.544 1.632.373.373.885.56 1.536.56zm9.594 1.152c-1.024 0-1.83-.304-2.416-.912-.587-.608-.88-1.445-.88-2.512v-4.096c0-1.387.346-2.453 1.04-3.2.693-.747 1.685-1.12 2.976-1.12h2.176v1.264h-2.176c-.896 0-1.579.267-2.048.8-.47.523-.704 1.275-.704 2.256v1.104h.224l-.224.384c.01-.64.224-1.141.64-1.504.426-.363 1.008-.544 1.744-.544.938 0 1.664.299 2.176.896.512.587.768 1.408.768 2.464v1.296c0 .715-.134 1.328-.4 1.84-.256.512-.63.907-1.12 1.184-.491.267-1.083.4-1.776.4zm0-1.136c.65 0 1.152-.197 1.504-.592s.528-.96.528-1.696v-1.296c0-.725-.176-1.291-.528-1.696s-.854-.608-1.504-.608c-.651 0-1.152.203-1.504.608s-.528.971-.528 1.696v1.296c0 .736.176 1.301.528 1.696.362.395.864.592 1.504.592zm9.594 1.136c-.683 0-1.275-.133-1.776-.4-.502-.277-.891-.667-1.168-1.168-.278-.501-.416-1.083-.416-1.744v-2.496c0-.672.138-1.253.416-1.744.277-.501.666-.885 1.168-1.152.501-.277 1.093-.416 1.776-.416.682 0 1.274.139 1.776.416.501.267.89.651 1.168 1.152.277.491.416 1.072.416 1.744v1.552h-5.472v.944c0 .715.181 1.269.544 1.664.373.384.896.576 1.568.576.565 0 1.024-.112 1.376-.336.362-.224.592-.549.688-.976h1.264c-.118.736-.475 1.317-1.072 1.744-.598.427-1.35.64-2.256.64zm2.112-5.104v-.704c0-.715-.182-1.264-.544-1.648-.363-.395-.886-.592-1.568-.592-.672 0-1.195.197-1.568.592-.363.384-.544.933-.544 1.648v.56h4.352zm7.497 5.104c-.682 0-1.28-.133-1.792-.4s-.912-.645-1.2-1.136c-.277-.501-.416-1.093-.416-1.776v-2.496c0-.683.139-1.269.416-1.76.288-.501.688-.885 1.2-1.152s1.11-.4 1.792-.4c1.003 0 1.808.272 2.416.816s.923 1.285.944 2.224h-1.264c-.021-.608-.218-1.077-.592-1.408-.362-.331-.864-.496-1.504-.496-.65 0-1.168.192-1.552.576-.384.373-.576.907-.576 1.6v2.496c0 .683.192 1.216.576 1.6s.902.576 1.552.576c.64 0 1.142-.165 1.504-.496.374-.341.571-.811.592-1.408h1.264c-.021.939-.336 1.68-.944 2.224s-1.413.816-2.416.816zm9.578 0c-.683 0-1.275-.133-1.776-.4-.501-.277-.891-.667-1.168-1.168s-.416-1.083-.416-1.744v-2.496c0-.672.139-1.253.416-1.744.277-.501.667-.885 1.168-1.152.501-.277 1.093-.416 1.776-.416s1.275.139 1.776.416c.501.267.891.651 1.168 1.152.277.491.416 1.072.416 1.744v1.552h-5.472v.944c0 .715.181 1.269.544 1.664.373.384.896.576 1.568.576.565 0 1.024-.112 1.376-.336.363-.224.592-.549.688-.976h1.264c-.117.736-.475 1.317-1.072 1.744s-1.349.64-2.256.64zm2.112-5.104v-.704c0-.715-.181-1.264-.544-1.648-.363-.395-.885-.592-1.568-.592-.672 0-1.195.197-1.568.592-.363.384-.544.933-.544 1.648v.56h4.352zm3.226 7.184v-3.328h.72c.181-.203.368-.565.56-1.088.202-.533.309-1.179.32-1.936l.096-4.688h5.6v7.712h1.136v3.328h-1.136v-2.24h-6.16v2.24zm2.08-3.328h3.952v-6.576h-3.136l-.064 3.568c-.011.8-.102 1.456-.272 1.968-.171.512-.331.859-.48 1.04zm11.77 1.232c-.683 0-1.275-.133-1.776-.4-.502-.267-.891-.651-1.168-1.152-.278-.501-.416-1.093-.416-1.776v-2.432c0-.693.138-1.285.416-1.776.277-.501.666-.885 1.168-1.152.501-.267 1.093-.4 1.776-.4.682 0 1.274.133 1.776.4.501.267.89.651 1.168 1.152.277.491.416 1.077.416 1.76v2.448c0 .683-.139 1.275-.416 1.776-.278.501-.667.885-1.168 1.152-.502.267-1.094.4-1.776.4zm0-1.136c.661 0 1.173-.187 1.536-.56.362-.373.544-.917.544-1.632v-2.432c0-.715-.187-1.259-.56-1.632-.363-.373-.87-.56-1.52-.56-.651 0-1.163.187-1.536.56-.363.373-.544.917-.544 1.632v2.432c0 .715.181 1.259.544 1.632.373.373.885.56 1.536.56zm6.361.992v-8.8h3.776c.875 0 1.563.208 2.064.624.502.405.752.971.752 1.696 0 .608-.208 1.099-.624 1.472-.405.363-.949.544-1.632.544v-.112c.736 0 1.328.192 1.776.576.448.373.672.875.672 1.504 0 .779-.266 1.392-.8 1.84-.522.437-1.248.656-2.176.656zm1.248-1.12h2.56c.523 0 .939-.123 1.248-.368.31-.256.464-.597.464-1.024 0-.448-.154-.795-.464-1.04-.309-.256-.725-.384-1.248-.384h-2.56zm0-3.92h2.528c.47 0 .843-.117 1.12-.352.288-.235.432-.555.432-.96s-.144-.725-.432-.96c-.277-.245-.65-.368-1.12-.368h-2.528zm10.89 5.2c-.928 0-1.659-.235-2.192-.704-.533-.48-.8-1.125-.8-1.936 0-.8.261-1.429.784-1.888.523-.469 1.227-.704 2.112-.704h2.8v-.928c0-.587-.171-1.04-.512-1.36s-.827-.48-1.456-.48c-.555 0-1.019.123-1.392.368-.363.245-.571.576-.624.992h-1.28c.107-.757.459-1.36 1.056-1.808.608-.448 1.365-.672 2.272-.672.981 0 1.76.267 2.336.8.576.523.864 1.232.864 2.128v6.032h-1.248v-1.712h-.208l.24-.256c0 .651-.251 1.168-.752 1.552s-1.168.576-2 .576zm.304-1.024c.704 0 1.28-.176 1.728-.528s.672-.811.672-1.376v-1.328h-2.784c-.501 0-.901.139-1.2.416s-.448.656-.448 1.136c0 .512.181.923.544 1.232.363.299.859.448 1.488.448zm6.746.864v-8.8h1.28v3.744h3.904v-3.744h1.28v8.8h-1.28v-3.904h-3.904v3.904zm9.594 0v-8.8h1.232v5.008c0 .299-.011.619-.032.96-.011.331-.027.645-.048.944-.022.299-.043.549-.064.752l3.728-7.664h1.648v8.8h-1.232v-5.008c0-.309.005-.629.016-.96.021-.331.042-.645.064-.944.032-.309.053-.565.064-.768l-3.744 7.68zm14.201.16c-.736 0-1.328-.245-1.776-.736-.437-.501-.656-1.163-.656-1.984v-1.392h-1.52v3.952h-1.168v-8.8h1.168v3.824h1.52v-1.264c0-.832.219-1.493.656-1.984.438-.491 1.03-.736 1.776-.736.779 0 1.403.245 1.872.736.47.491.704 1.152.704 1.984v3.68c0 .821-.234 1.483-.704 1.984-.469.491-1.093.736-1.872.736zm0-1.008c.438 0 .779-.149 1.024-.448.246-.309.368-.731.368-1.264v-3.68c0-.533-.122-.949-.368-1.248-.245-.309-.586-.464-1.024-.464-.426 0-.762.155-1.008.464-.245.299-.368.715-.368 1.248v3.68c0 .533.123.955.368 1.264.246.299.582.448 1.008.448z"/></g></svg>