<svg fill="none" height="125" viewBox="0 0 970 125" width="970" xmlns="http://www.w3.org/2000/svg" xmlns:xlink="http://www.w3.org/1999/xlink"><filter id="a" color-interpolation-filters="sRGB" filterUnits="userSpaceOnUse" height="268" width="268" x="548" y="-11"><feFlood flood-opacity="0" result="BackgroundImageFix"/><feBlend in="SourceGraphic" in2="BackgroundImageFix" mode="normal" result="shape"/><feGaussianBlur result="effect1_foregroundBlur_61_1036" stdDeviation="50"/></filter><filter id="b" color-interpolation-filters="sRGB" filterUnits="userSpaceOnUse" height="280" width="280" x="-81" y="-131"><feFlood flood-opacity="0" result="BackgroundImageFix"/><feBlend in="SourceGraphic" in2="BackgroundImageFix" mode="normal" result="shape"/><feGaussianBlur result="effect1_foregroundBlur_61_1036" stdDeviation="50"/></filter><clipPath id="c"><path d="m0 0h970v125h-970z"/></clipPath><g clip-path="url(#c)"><path d="m0 0h970v125h-970z" fill="#232735"/><g filter="url(#a)"><circle cx="682" cy="123" fill="#738ada" r="34"/></g><g filter="url(#b)"><circle cx="59" cy="9" fill="#738ada" r="40"/></g><path d="m62.0342 59.0254h60.2053v6.95746h-60.2053z" fill="#738ada"/><g fill="#fff"><path d="m50 44.8905 6.2282-.0111c.0399.4422.2126.7628.5182.9618.3122.1916.8138.2875 1.5047.2875.578 0 1.0131-.0701 1.3055-.2101.2989-.1474.4484-.3648.4484-.6523 0-.5011-.774-.8291-2.3219-.9839-.3056-.0368-.5381-.0626-.6975-.0774-.0133 0-.0266 0-.0399 0-2.4979-.2727-4.1854-.6264-5.0623-1.0613-.5115-.2506-.9068-.6449-1.1858-1.1829-.2724-.538-.4086-1.1718-.4086-1.9015 0-1.4667.6045-2.539 1.8136-3.2171 1.2091-.678 3.1357-1.0171 5.7798-1.0171 2.4979 0 4.3548.3464 5.5705 1.0392 1.2224.6928 1.8735 1.7652 1.9532 3.2171h-5.8695c-.0332-.4275-.2126-.737-.5381-.9286-.3189-.1917-.8337-.2875-1.5446-.2875-.6045 0-1.0496.0737-1.3353.2211-.279.1401-.4185.3612-.4185.6634 0 .4864.6643.7886 1.993.9065.279.0295.4916.0516.6377.0663.1063.0074.2724.0221.4983.0442 2.6773.2654 4.2385.4828 4.6836.6523.8769.3464 1.4948.7739 1.8535 1.2824.3588.5012.5381 1.1903.5381 2.0674 0 1.6214-.6444 2.7933-1.9332 3.5155-1.2822.7223-3.3881 1.0835-6.3179 1.0835-2.6042 0-4.5175-.3575-5.7399-1.0724-1.2157-.7223-1.8535-1.8573-1.9133-3.405z"/><path d="m78.3209 43.0332c-.5315.2948-1.4416.4901-2.7305.5859-.372.0221-.6577.0442-.857.0663-.7507.0737-1.2622.1954-1.5346.3649-.2657.1695-.3986.4311-.3986.7849 0 .398.1594.7075.4783.9286.3256.2138.784.3206 1.3752.3206 1.1228 0 2.0196-.2505 2.6906-.7517s1.0065-1.1645 1.0065-1.99c0-.0884-.0033-.1511-.01-.1879 0-.0442-.0066-.0848-.0199-.1216zm.0199 4.1678c-.6378.7444-1.4084 1.2898-2.3119 1.6362-.8969.339-2.0362.5085-3.418.5085-1.8668 0-3.2686-.3463-4.2053-1.0391s-1.4051-1.7357-1.4051-3.1287c0-.4569.0532-.877.1594-1.2603.1063-.3906.2558-.726.4485-1.006.3919-.5381.9134-.936 1.5645-1.194.6577-.2653 1.8934-.4643 3.707-.597.5979-.0442 1.3752-.0847 2.3319-.1216 1.9266-.0884 2.8899-.3869 2.8899-.8955 0-.3464-.2027-.6228-.6079-.8291-.4053-.2138-.9567-.3206-1.6542-.3206-.9035 0-1.5479.0958-1.9333.2874-.3853.1916-.6112.5196-.6776.9839h-5.2715c.1063-1.5403.754-2.6422 1.9432-3.3055 1.1958-.6707 3.1622-1.006 5.8993-1.006 1.4948 0 2.7537.1179 3.7768.3537 1.0231.2285 1.797.5712 2.3219 1.0282.5713.4938.9766 1.0908 1.2157 1.7909.2392.6928.3588 1.6878.3588 2.985v4.8975c0 .4717.0365.8365.1096 1.0944.0797.2506.2126.4496.3986.597v.2764h-5.3114c-.093-.2506-.1694-.5196-.2292-.807-.0532-.2948-.0864-.6044-.0997-.9287z"/><path d="m86.3229 48.9367v-12.6804h5.2018v12.6804zm0-13.7196v-3.2171h5.2018v3.2171z"/><path d="m94.3847 48.9367v-12.6804h5.1021v1.3156c.6842-.5307 1.3952-.9213 2.1322-1.1719.738-.258 1.532-.3869 2.382-.3869 1.674 0 2.897.4717 3.667 1.415.777.9434 1.166 2.4396 1.166 4.4885v7.0201h-5.102v-5.9588c0-.9434-.136-1.592-.409-1.9457-.272-.3612-.747-.5417-1.425-.5417-.75 0-1.342.199-1.773.5969-.4256.398-.6382.9471-.6382 1.6473v6.202z"/><path d="m119.198 48.9146c-.445.0811-.877.14-1.296.1769-.418.0442-.823.0663-1.215.0663-.631 0-1.2-.0442-1.704-.1327-.505-.081-.957-.21-1.356-.3869-.564-.2579-.963-.6338-1.195-1.1276-.233-.4938-.349-1.3009-.349-2.4211v-4.9639h-1.824v-3.5487h1.824v-4.1457h5.142v4.1457h1.833v3.5487h-1.833v2.6312c0 1.2529.083 2.0121.249 2.2774s.498.398.996.398h.728z"/><path d="m136.587 43.3648c-.186 1.9974-.963 3.4972-2.332 4.4995-1.362 1.0024-3.305 1.5036-5.829 1.5036-2.611 0-4.631-.5897-6.059-1.7689-1.422-1.1792-2.133-2.8449-2.133-4.997 0-2.1447.711-3.8104 2.133-4.997 1.428-1.1866 3.448-1.7799 6.059-1.7799 2.424 0 4.314.4607 5.67 1.3819 1.355.9213 2.152 2.2885 2.391 4.1016h-5.471c-.205-.5823-.514-1.0171-.926-1.3046-.412-.2948-.927-.4422-1.545-.4422-.91 0-1.624.269-2.142.8071-.519.5306-.778 1.2676-.778 2.211 0 .9139.253 1.6399.758 2.1779s1.186.807 2.043.807c.71 0 1.308-.1953 1.793-.5859.492-.398.797-.936.917-1.6141z"/><path d="m143.244 42.602c0 .8697.236 1.5625.707 2.0784.479.5159 1.12.7739 1.923.7739.804 0 1.442-.258 1.914-.7739.478-.5159.717-1.2087.717-2.0784 0-.877-.239-1.5698-.717-2.0784-.472-.5159-1.11-.7738-1.914-.7738-.803 0-1.444.2579-1.923.7738-.471.5086-.707 1.2014-.707 2.0784zm-5.391 0c0-2.1521.7-3.8177 2.102-4.997 1.402-1.1866 3.382-1.7799 5.939-1.7799 2.565 0 4.541.5896 5.93 1.7689 1.395 1.1792 2.092 2.8486 2.092 5.008 0 2.1521-.697 3.8178-2.092 4.997-1.389 1.1792-3.365 1.7689-5.93 1.7689-2.557 0-4.537-.5897-5.939-1.7689s-2.102-2.8449-2.102-4.997z"/><path d="m165.765 42.602c0-.8549-.239-1.5367-.718-2.0452-.471-.5085-1.102-.7628-1.893-.7628s-1.425.2543-1.903.7628c-.472.5085-.708 1.1903-.708 2.0452 0 .8476.236 1.5293.708 2.0453.478.5085 1.112.7628 1.903.7628s1.422-.2543 1.893-.7628c.479-.516.718-1.1977.718-2.0453zm5.102-10.1487v16.4834h-4.853l-.04-1.2492c-.618.5232-1.302.9175-2.053 1.1829-.75.2579-1.577.3869-2.481.3869-1.907 0-3.428-.6043-4.564-1.8131-1.136-1.216-1.704-2.8301-1.704-4.8422 0-2.0415.571-3.663 1.714-4.8643 1.149-1.2013 2.694-1.802 4.634-1.802.824 0 1.581.1142 2.272.3427.697.2211 1.355.5601 1.973 1.0171v-4.8422z"/><path d="m178.082 41.198h6.059c-.074-.7002-.359-1.2419-.857-1.6251-.499-.3833-1.166-.5749-2.003-.5749-.904 0-1.631.1879-2.183.5638-.545.3759-.883.9213-1.016 1.6362zm11.201 3.8694c-.386 1.4077-1.279 2.4763-2.681 3.206-1.402.7296-3.269 1.0945-5.6 1.0945-2.591 0-4.594-.5897-6.009-1.7689s-2.123-2.8449-2.123-4.997c0-2.1594.708-3.8288 2.123-5.008 1.415-1.1793 3.418-1.7689 6.009-1.7689 2.75 0 4.833.667 6.248 2.001 1.421 1.3267 2.132 3.2798 2.132 5.8593v.2211h-11.041c0 .6855.259 1.2161.777 1.592s1.246.5638 2.182.5638c.618 0 1.133-.0847 1.545-.2542.412-.1696.708-.4165.887-.7407z"/><path d="m55.9791 81.5634c0 .8476.2392 1.5294.7175 2.0453.4783.5085 1.1094.7628 1.8934.7628.7972 0 1.4316-.2543 1.9033-.7628.4783-.5159.7175-1.1977.7175-2.0453 0-.8549-.2392-1.5366-.7175-2.0452-.4717-.5085-1.1061-.7628-1.9033-.7628-.784 0-1.4151.2543-1.8934.7628-.4783.5086-.7175 1.1903-.7175 2.0452zm-5.1021 6.3347v-16.4834h5.1021v4.8422c.6178-.4569 1.2722-.796 1.9631-1.0171.6976-.2285 1.4583-.3427 2.282-.3427 1.9399 0 3.4812.6007 4.6239 1.802 1.1493 1.2014 1.7239 2.8228 1.7239 4.8643 0 2.0121-.568 3.6262-1.704 4.8423-1.136 1.2087-2.6574 1.813-4.564 1.813-.8969 0-1.7207-.1289-2.4714-.3869-.7507-.2653-1.435-.6596-2.0528-1.1829l-.0399 1.2492z"/><path d="m73.2088 81.5634c0 .8697.2358 1.5625.7075 2.0784.4783.516 1.1194.7739 1.9233.7739.8038 0 1.4416-.2579 1.9133-.7739.4783-.5159.7175-1.2087.7175-2.0784 0-.877-.2392-1.5698-.7175-2.0783-.4717-.516-1.1095-.7739-1.9133-.7739-.8039 0-1.445.2579-1.9233.7739-.4717.5085-.7075 1.2013-.7075 2.0783zm-5.3911 0c0-2.1521.7008-3.8177 2.1026-4.9969 1.4018-1.1866 3.3815-1.7799 5.9392-1.7799 2.5644 0 4.5408.5896 5.9293 1.7688 1.3951 1.1792 2.0927 2.8486 2.0927 5.008 0 2.1521-.6976 3.8178-2.0927 4.997-1.3885 1.1793-3.3649 1.7689-5.9293 1.7689-2.5577 0-4.5374-.5896-5.9392-1.7689-1.4018-1.1792-2.1026-2.8449-2.1026-4.997z"/><path d="m90.5083 81.5634c0 .8697.2358 1.5625.7075 2.0784.4783.516 1.1194.7739 1.9233.7739.8038 0 1.4416-.2579 1.9133-.7739.4783-.5159.7174-1.2087.7174-2.0784 0-.877-.2391-1.5698-.7174-2.0783-.4717-.516-1.1095-.7739-1.9133-.7739-.8039 0-1.445.2579-1.9233.7739-.4717.5085-.7075 1.2013-.7075 2.0783zm-5.3912 0c0-2.1521.7009-3.8177 2.1027-4.9969 1.4017-1.1866 3.3815-1.7799 5.9392-1.7799 2.5643 0 4.5408.5896 5.9292 1.7688 1.3948 1.1792 2.0928 2.8486 2.0928 5.008 0 2.1521-.698 3.8178-2.0928 4.997-1.3884 1.1793-3.3649 1.7689-5.9292 1.7689-2.5577 0-4.5375-.5896-5.9392-1.7689-1.4018-1.1792-2.1027-2.8449-2.1027-4.997z"/><path d="m110.867 87.876c-.445.0811-.877.14-1.295.1769-.419.0442-.824.0663-1.216.0663-.631 0-1.199-.0442-1.704-.1326-.505-.0811-.957-.2101-1.355-.387-.565-.2579-.964-.6338-1.196-1.1276-.233-.4938-.349-1.3008-.349-2.4211v-4.9638h-1.824v-3.5488h1.824v-4.1457h5.142v4.1457h1.834v3.5488h-1.834v2.6311c0 1.253.083 2.0121.249 2.2774s.498.398.997.398h.727z"/><path d="m128.256 82.3263c-.186 1.9973-.963 3.4971-2.332 4.4995-1.362 1.0023-3.305 1.5035-5.829 1.5035-2.611 0-4.631-.5896-6.059-1.7689-1.422-1.1792-2.133-2.8449-2.133-4.997 0-2.1447.711-3.8103 2.133-4.9969 1.428-1.1866 3.448-1.7799 6.059-1.7799 2.425 0 4.315.4606 5.67 1.3819 1.355.9212 2.152 2.2884 2.392 4.1015h-5.471c-.206-.5823-.515-1.0171-.927-1.3045-.412-.2949-.927-.4423-1.545-.4423-.91 0-1.624.2691-2.142.8071-.518.5306-.777 1.2677-.777 2.211 0 .9139.252 1.6399.757 2.1779s1.186.8071 2.043.8071c.711 0 1.308-.1953 1.793-.586.492-.398.798-.936.917-1.614z"/><path d="m140.643 81.9946c-.532.2948-1.442.4901-2.731.5859-.372.0221-.657.0443-.857.0664-.75.0737-1.262.1953-1.534.3648-.266.1695-.399.4311-.399.7849 0 .398.16.7076.478.9287.326.2137.784.3206 1.376.3206 1.122 0 2.019-.2506 2.69-.7518s1.007-1.1645 1.007-1.9899c0-.0885-.004-.1511-.01-.188 0-.0442-.007-.0847-.02-.1216zm.02 4.1678c-.638.7444-1.409 1.2898-2.312 1.6362-.897.3391-2.036.5086-3.418.5086-1.867 0-3.269-.3464-4.205-1.0392-.937-.6928-1.406-1.7357-1.406-3.1287 0-.4569.054-.877.16-1.2603.106-.3906.256-.7259.448-1.006.392-.538.914-.936 1.565-1.194.658-.2653 1.893-.4643 3.707-.597.598-.0442 1.375-.0847 2.332-.1216 1.926-.0884 2.89-.3869 2.89-.8955 0-.3463-.203-.6227-.608-.8291-.406-.2137-.957-.3206-1.655-.3206-.903 0-1.547.0958-1.933.2874-.385.1917-.611.5196-.677.984h-5.272c.106-1.5404.754-2.6423 1.943-3.3056 1.196-.6707 3.163-1.006 5.9-1.006 1.494 0 2.753.1179 3.776.3538 1.023.2284 1.797.5712 2.322 1.0281.572.4938.977 1.0908 1.216 1.791.239.6928.359 1.6877.359 2.9849v4.8975c0 .4717.036.8365.109 1.0945.08.2505.213.4495.399.5969v.2764h-5.311c-.093-.2506-.17-.5196-.23-.807-.053-.2948-.086-.6044-.099-.9287z"/><path d="m148.455 87.8981v-12.6804h5.063v1.3156c.677-.538 1.372-.9323 2.082-1.1829.711-.2506 1.479-.3759 2.302-.3759.924 0 1.698.1842 2.322.5528.625.3611 1.16.936 1.605 1.7246.75-.7813 1.538-1.3561 2.361-1.7246.824-.3686 1.738-.5528 2.741-.5528 1.614 0 2.797.4717 3.547 1.4151.751.9434 1.126 2.4395 1.126 4.4884v7.0201h-5.042v-5.9588c0-.9286-.133-1.5735-.399-1.9347-.265-.3685-.717-.5527-1.355-.5527-.717 0-1.279.199-1.684.597s-.608.947-.608 1.6472v6.202h-4.952v-5.9588c0-.9286-.133-1.5735-.399-1.9347-.266-.3685-.721-.5527-1.365-.5527-.711 0-1.269.199-1.674.597-.406.398-.608.947-.608 1.6472v6.202z"/><path d="m179.407 81.5634c0 .8476.239 1.5294.718 2.0453.478.5085 1.109.7628 1.893.7628.797 0 1.432-.2543 1.903-.7628.479-.5159.718-1.1977.718-2.0453 0-.8549-.239-1.5366-.718-2.0452-.471-.5085-1.106-.7628-1.903-.7628-.784 0-1.415.2543-1.893.7628-.479.5086-.718 1.1903-.718 2.0452zm-5.102 10.4362v-16.7819h4.863l.04 1.2271c.604-.5159 1.282-.9028 2.033-1.1608.75-.2579 1.581-.3869 2.491-.3869 1.907 0 3.428.608 4.564 1.8241 1.136 1.2087 1.704 2.8228 1.704 4.8422 0 2.0342-.575 3.652-1.724 4.8533-1.143 1.2014-2.684 1.802-4.624 1.802-.823 0-1.584-.1105-2.282-.3316-.691-.2285-1.345-.5712-1.963-1.0282v5.1407z"/><path d="m241.755 43v-19.71h4.05v7.641h1.917l3.24-7.641h4.401l-4.05 9.423 4.212 10.287h-4.455l-3.348-8.343h-1.917v8.343zm20.617.27c-1.494 0-2.682-.405-3.564-1.215-.864-.81-1.296-1.908-1.296-3.294 0-1.494.513-2.637 1.539-3.429 1.044-.81 2.538-1.215 4.482-1.215h3.078v-1.107c0-.576-.207-1.035-.621-1.377-.396-.342-.936-.513-1.62-.513-.63 0-1.152.144-1.566.432s-.666.684-.756 1.188h-3.915c.162-1.494.81-2.673 1.944-3.537 1.152-.882 2.628-1.323 4.428-1.323 1.89 0 3.384.468 4.482 1.404 1.116.918 1.674 2.16 1.674 3.726v9.99h-3.915v-2.43h-.648l.675-.945c0 1.116-.405 2.007-1.215 2.673-.792.648-1.854.972-3.186.972zm1.512-2.97c.792 0 1.44-.207 1.944-.621.522-.432.783-.99.783-1.674v-1.593h-2.997c-.612 0-1.107.18-1.485.54-.378.342-.567.801-.567 1.377 0 .612.207 1.098.621 1.458.414.342.981.513 1.701.513zm10.358 2.7v-14.85h4.05v5.616h1.998l3.105-5.616h4.509l-4.131 7.263 4.212 7.587h-4.59l-3.132-5.832h-1.971v5.832zm32.298 0v-14.85h12.636v14.85h-4.05v-11.07h-4.536v11.07zm22.507.27c-1.314 0-2.457-.243-3.429-.729-.972-.504-1.728-1.197-2.268-2.079-.522-.9-.783-1.944-.783-3.132v-3.51c0-1.188.261-2.223.783-3.105.54-.9 1.296-1.593 2.268-2.079.972-.504 2.115-.756 3.429-.756 1.332 0 2.475.252 3.429.756.972.486 1.719 1.179 2.241 2.079.54.882.81 1.917.81 3.105v3.51c0 1.188-.27 2.232-.81 3.132-.522.882-1.269 1.575-2.241 2.079-.954.486-2.097.729-3.429.729zm0-3.51c.792 0 1.395-.207 1.809-.621.414-.432.621-1.035.621-1.809v-3.51c0-.792-.207-1.395-.621-1.809s-1.017-.621-1.809-.621c-.774 0-1.377.207-1.809.621-.414.414-.621 1.017-.621 1.809v3.51c0 .774.207 1.377.621 1.809.432.414 1.035.621 1.809.621zm9.872 3.24v-14.85h4.05v5.427h4.536v-5.427h4.05v14.85h-4.05v-5.643h-4.536v5.643zm15.757 0 3.24-5.211c-.954-.36-1.701-.927-2.241-1.701s-.81-1.683-.81-2.727c0-1.638.549-2.916 1.647-3.834s2.619-1.377 4.563-1.377h6.669v14.85h-4.023v-4.698h-1.782l-2.7 4.698zm6.642-7.776h2.43v-3.861h-2.43c-.756 0-1.35.171-1.782.513s-.648.819-.648 1.431.207 1.089.621 1.431c.432.324 1.035.486 1.809.486zm14.273 7.776v-11.07h-4.86v-3.78h13.77v3.78h-4.86v11.07zm12.004 0v-14.85h4.05v4.455h3.483c1.872 0 3.33.468 4.374 1.404 1.062.918 1.593 2.196 1.593 3.834 0 1.584-.54 2.844-1.62 3.78-1.062.918-2.502 1.377-4.32 1.377zm4.05-3.51h3.24c.684 0 1.206-.144 1.566-.432.378-.306.567-.72.567-1.242 0-.54-.189-.954-.567-1.242-.36-.306-.882-.459-1.566-.459h-3.24zm32.892 8.37v-4.86c-1.71 0-3.06-.495-4.05-1.485-.972-1.008-1.458-2.376-1.458-4.104v-3.699c0-1.71.495-3.06 1.485-4.05.99-1.008 2.331-1.512 4.023-1.512v-4.86h3.294v4.86c1.71 0 3.051.504 4.023 1.512.99.99 1.485 2.34 1.485 4.05v3.699c0 1.728-.495 3.096-1.485 4.104-.972.99-2.313 1.485-4.023 1.485v4.86zm.189-8.046v-8.505c-.702 0-1.26.216-1.674.648-.396.414-.594.999-.594 1.755v3.699c0 .756.198 1.35.594 1.782.414.414.972.621 1.674.621zm2.916 0c.702 0 1.251-.207 1.647-.621.414-.432.621-1.026.621-1.782v-3.699c0-.756-.207-1.341-.621-1.755-.396-.432-.945-.648-1.647-.648zm8.413 8.046v-19.71h3.915v2.835h.945l-.945.945c0-1.278.351-2.268 1.053-2.97.702-.72 1.665-1.08 2.889-1.08 1.494 0 2.691.531 3.591 1.593.9 1.044 1.35 2.448 1.35 4.212v3.78c0 1.17-.207 2.196-.621 3.078-.396.864-.963 1.539-1.701 2.025-.738.468-1.611.702-2.619.702-1.224 0-2.187-.351-2.889-1.053-.702-.72-1.053-1.719-1.053-2.997l.945.945h-.945l.135 3.645v4.05zm6.399-8.1c.756 0 1.332-.207 1.728-.621.414-.432.621-1.035.621-1.809v-3.51c0-.792-.207-1.395-.621-1.809-.396-.414-.972-.621-1.728-.621-.738 0-1.314.216-1.728.648-.414.414-.621 1.008-.621 1.782v3.51c0 .774.207 1.377.621 1.809.414.414.99.621 1.728.621zm16.109 3.51c-1.314 0-2.457-.243-3.429-.729-.972-.504-1.728-1.197-2.268-2.079-.522-.9-.783-1.944-.783-3.132v-3.51c0-1.188.261-2.223.783-3.105.54-.9 1.296-1.593 2.268-2.079.972-.504 2.115-.756 3.429-.756 1.332 0 2.475.252 3.429.756.972.486 1.719 1.179 2.241 2.079.54.882.81 1.917.81 3.105v3.51c0 1.188-.27 2.232-.81 3.132-.522.882-1.269 1.575-2.241 2.079-.954.486-2.097.729-3.429.729zm0-3.51c.792 0 1.395-.207 1.809-.621.414-.432.621-1.035.621-1.809v-3.51c0-.792-.207-1.395-.621-1.809s-1.017-.621-1.809-.621c-.774 0-1.377.207-1.809.621-.414.414-.621 1.017-.621 1.809v3.51c0 .774.207 1.377.621 1.809.432.414 1.035.621 1.809.621zm9.871 3.24v-14.85h4.05v5.427h4.536v-5.427h4.05v14.85h-4.05v-5.643h-4.536v5.643zm20.483 0v-11.07h-4.86v-3.78h13.77v3.78h-4.86v11.07zm18.241.27c-1.314 0-2.466-.243-3.456-.729-.972-.504-1.728-1.197-2.268-2.079-.522-.9-.783-1.944-.783-3.132v-3.51c0-1.188.261-2.223.783-3.105.54-.9 1.296-1.593 2.268-2.079.99-.504 2.142-.756 3.456-.756s2.448.252 3.402.756c.972.486 1.719 1.179 2.241 2.079.54.882.81 1.917.81 3.105v2.7h-9.099v.81c0 .936.225 1.647.675 2.133.45.468 1.125.702 2.025.702.63 0 1.134-.108 1.512-.324.396-.216.657-.513.783-.891h3.969c-.324 1.296-1.062 2.34-2.214 3.132-1.134.792-2.502 1.188-4.104 1.188zm2.592-8.829v-.675c0-.918-.216-1.62-.648-2.106-.414-.486-1.062-.729-1.944-.729s-1.548.252-1.998.756c-.432.504-.648 1.215-.648 2.133v.405l5.508-.054zm7.253 8.559v-14.85h4.05v5.427h4.536v-5.427h4.05v14.85h-4.05v-5.643h-4.536v5.643zm15.001 3.78v-7.209h.837c.306-.306.621-.837.945-1.593.342-.774.522-1.71.54-2.808l.135-7.02h10.935v11.421h1.62v7.209h-3.78v-3.78h-7.452v3.78zm4.86-7.209h4.752v-7.938h-3.429l-.081 3.51c-.018 1.044-.171 1.962-.459 2.754-.27.774-.531 1.332-.783 1.674z"/><path d="m244.698 79v-11.844h-3.69v-1.314h8.784v1.314h-3.672v11.844zm7.841 3.24v-13.14h1.422v1.746h.378l-.432.594c0-.78.252-1.392.756-1.836.516-.456 1.194-.684 2.034-.684.996 0 1.788.33 2.376.99.6.648.9 1.536.9 2.664v2.934c0 .756-.138 1.41-.414 1.962-.276.54-.66.96-1.152 1.26-.48.3-1.05.45-1.71.45-.828 0-1.5-.228-2.016-.684s-.774-1.068-.774-1.836l.378.594h-.342l.018 2.016v2.97zm3.708-4.302c.72 0 1.278-.216 1.674-.648.408-.432.612-1.044.612-1.836v-2.808c0-.804-.204-1.416-.612-1.836-.396-.432-.954-.648-1.674-.648-.696 0-1.254.222-1.674.666-.408.432-.612 1.038-.612 1.818v2.808c0 .78.204 1.392.612 1.836.42.432.978.648 1.674.648zm7.103 1.062v-9.9h1.386v5.634c0 .336-.012.696-.036 1.08-.012.372-.03.726-.054 1.062s-.048.618-.072.846l4.194-8.622h1.854v9.9h-1.386v-5.634c0-.348.006-.708.018-1.08.024-.372.048-.726.072-1.062.036-.348.06-.636.072-.864l-4.212 8.64zm21.262 0v-9.9h1.98l1.44 4.032c.12.348.234.702.342 1.062s.186.642.234.846c.06-.204.138-.486.234-.846.108-.36.222-.72.342-1.08l1.386-4.014h1.962v9.9h-1.386v-2.376c0-.516.006-1.068.018-1.656s.024-1.176.036-1.764.03-1.14.054-1.656c.024-.528.042-.99.054-1.386l-1.962 5.868h-1.512l-1.962-5.832c.024.48.042 1.086.054 1.818.012.72.024 1.482.036 2.286.024.804.036 1.578.036 2.322v2.376zm14.753.18c-.768 0-1.434-.15-1.998-.45-.564-.312-1.002-.75-1.314-1.314s-.468-1.218-.468-1.962v-2.808c0-.756.156-1.41.468-1.962.312-.564.75-.996 1.314-1.296.564-.312 1.23-.468 1.998-.468s1.434.156 1.998.468c.564.3 1.002.732 1.314 1.296.312.552.468 1.206.468 1.962v1.746h-6.156v1.062c0 .804.204 1.428.612 1.872.42.432 1.008.648 1.764.648.636 0 1.152-.126 1.548-.378.408-.252.666-.618.774-1.098h1.422c-.132.828-.534 1.482-1.206 1.962s-1.518.72-2.538.72zm2.376-5.742v-.792c0-.804-.204-1.422-.612-1.854-.408-.444-.996-.666-1.764-.666-.756 0-1.344.222-1.764.666-.408.432-.612 1.05-.612 1.854v.63h4.896zm8.435 5.742c-.768 0-1.44-.15-2.016-.45s-1.026-.726-1.35-1.278c-.312-.564-.468-1.23-.468-1.998v-2.808c0-.768.156-1.428.468-1.98.324-.564.774-.996 1.35-1.296s1.248-.45 2.016-.45c1.128 0 2.034.306 2.718.918s1.038 1.446 1.062 2.502h-1.422c-.024-.684-.246-1.212-.666-1.584-.408-.372-.972-.558-1.692-.558-.732 0-1.314.216-1.746.648-.432.42-.648 1.02-.648 1.8v2.808c0 .768.216 1.368.648 1.8s1.014.648 1.746.648c.72 0 1.284-.186 1.692-.558.42-.384.642-.912.666-1.584h1.422c-.024 1.056-.378 1.89-1.062 2.502s-1.59.918-2.718.918zm6.581-.18 2.52-3.834c-.768-.168-1.362-.51-1.782-1.026s-.63-1.164-.63-1.944c0-.96.318-1.716.954-2.268.648-.552 1.524-.828 2.628-.828h4.14v9.9h-1.44v-3.708h-2.394l-2.34 3.708zm3.69-4.986h2.7v-3.636h-2.7c-.648 0-1.164.162-1.548.486s-.576.768-.576 1.332.192 1.008.576 1.332.9.486 1.548.486zm14.699 7.506v-2.52h-7.038v-9.9h1.44v8.622h4.104v-8.622h1.422v8.622h1.368v3.798zm6.617-2.34c-1.044 0-1.866-.264-2.466-.792-.6-.54-.9-1.266-.9-2.178 0-.9.294-1.608.882-2.124.588-.528 1.38-.792 2.376-.792h3.15v-1.044c0-.66-.192-1.17-.576-1.53s-.93-.54-1.638-.54c-.624 0-1.146.138-1.566.414-.408.276-.642.648-.702 1.116h-1.44c.12-.852.516-1.53 1.188-2.034.684-.504 1.536-.756 2.556-.756 1.104 0 1.98.3 2.628.9.648.588.972 1.386.972 2.394v6.786h-1.404v-1.926h-.234l.27-.288c0 .732-.282 1.314-.846 1.746s-1.314.648-2.25.648zm.342-1.152c.792 0 1.44-.198 1.944-.594s.756-.912.756-1.548v-1.494h-3.132c-.564 0-1.014.156-1.35.468s-.504.738-.504 1.278c0 .576.204 1.038.612 1.386.408.336.966.504 1.674.504zm18.382.972v-9.9h7.272v9.9h-1.44v-8.604h-4.392v8.604zm9.533.126v-1.35h.36c.516 0 .894-.21 1.134-.63.24-.432.366-1.146.378-2.142l.126-5.904h6.534v9.9h-1.44v-8.604h-3.69l-.108 4.662c-.012.936-.126 1.704-.342 2.304-.204.6-.516 1.044-.936 1.332-.408.288-.942.432-1.602.432zm15.689.036c-.768 0-1.434-.15-1.998-.45s-1.002-.732-1.314-1.296-.468-1.23-.468-1.998v-2.736c0-.78.156-1.446.468-1.998.312-.564.75-.996 1.314-1.296s1.23-.45 1.998-.45 1.434.15 1.998.45 1.002.732 1.314 1.296c.312.552.468 1.212.468 1.98v2.754c0 .768-.156 1.434-.468 1.998s-.75.996-1.314 1.296-1.23.45-1.998.45zm0-1.278c.744 0 1.32-.21 1.728-.63s.612-1.032.612-1.836v-2.736c0-.804-.21-1.416-.63-1.836-.408-.42-.978-.63-1.71-.63s-1.308.21-1.728.63c-.408.42-.612 1.032-.612 1.836v2.736c0 .804.204 1.416.612 1.836.42.42.996.63 1.728.63zm10.073 1.116v-8.622h-3.6v-1.278h8.64v1.278h-3.6v8.622zm7.877 0v-9.9h1.44v4.212h4.392v-4.212h1.44v9.9h-1.44v-4.392h-4.392v4.392zm14.429.162c-.768 0-1.434-.15-1.998-.45s-1.002-.732-1.314-1.296-.468-1.23-.468-1.998v-2.736c0-.78.156-1.446.468-1.998.312-.564.75-.996 1.314-1.296s1.23-.45 1.998-.45 1.434.15 1.998.45 1.002.732 1.314 1.296c.312.552.468 1.212.468 1.98v2.754c0 .768-.156 1.434-.468 1.998s-.75.996-1.314 1.296-1.23.45-1.998.45zm0-1.278c.744 0 1.32-.21 1.728-.63s.612-1.032.612-1.836v-2.736c0-.804-.21-1.416-.63-1.836-.408-.42-.978-.63-1.71-.63s-1.308.21-1.728.63c-.408.42-.612 1.032-.612 1.836v2.736c0 .804.204 1.416.612 1.836.42.42.996.63 1.728.63zm7.804 1.116v-9.9h7.02v1.296h-5.598v8.604zm13.781.162c-.768 0-1.434-.15-1.998-.45s-1.002-.732-1.314-1.296-.468-1.23-.468-1.998v-2.736c0-.78.156-1.446.468-1.998.312-.564.75-.996 1.314-1.296s1.23-.45 1.998-.45 1.434.15 1.998.45 1.002.732 1.314 1.296c.312.552.468 1.212.468 1.98v2.754c0 .768-.156 1.434-.468 1.998s-.75.996-1.314 1.296-1.23.45-1.998.45zm0-1.278c.744 0 1.32-.21 1.728-.63s.612-1.032.612-1.836v-2.736c0-.804-.21-1.416-.63-1.836-.408-.42-.978-.63-1.71-.63s-1.308.21-1.728.63c-.408.42-.612 1.032-.612 1.836v2.736c0 .804.204 1.416.612 1.836.42.42.996.63 1.728.63zm21.586 1.278c-.768 0-1.434-.15-1.998-.45s-1.002-.732-1.314-1.296-.468-1.23-.468-1.998v-2.736c0-.78.156-1.446.468-1.998.312-.564.75-.996 1.314-1.296s1.23-.45 1.998-.45 1.434.15 1.998.45 1.002.732 1.314 1.296c.312.552.468 1.212.468 1.98v2.754c0 .768-.156 1.434-.468 1.998s-.75.996-1.314 1.296-1.23.45-1.998.45zm0-1.278c.744 0 1.32-.21 1.728-.63s.612-1.032.612-1.836v-2.736c0-.804-.21-1.416-.63-1.836-.408-.42-.978-.63-1.71-.63s-1.308.21-1.728.63c-.408.42-.612 1.032-.612 1.836v2.736c0 .804.204 1.416.612 1.836.42.42.996.63 1.728.63zm10.793 1.296c-1.152 0-2.058-.342-2.718-1.026s-.99-1.626-.99-2.826v-4.608c0-1.56.39-2.76 1.17-3.6s1.896-1.26 3.348-1.26h2.448v1.422h-2.448c-1.008 0-1.776.3-2.304.9-.528.588-.792 1.434-.792 2.538v1.242h.252l-.252.432c.012-.72.252-1.284.72-1.692.48-.408 1.134-.612 1.962-.612 1.056 0 1.872.336 2.448 1.008.576.66.864 1.584.864 2.772v1.458c0 .804-.15 1.494-.45 2.07-.288.576-.708 1.02-1.26 1.332-.552.3-1.218.45-1.998.45zm0-1.278c.732 0 1.296-.222 1.692-.666s.594-1.08.594-1.908v-1.458c0-.816-.198-1.452-.594-1.908s-.96-.684-1.692-.684-1.296.228-1.692.684-.594 1.092-.594 1.908v1.458c0 .828.198 1.464.594 1.908.408.444.972.666 1.692.666zm8.705 4.338 1.458-3.87-3.672-9.27h1.584l2.34 6.174c.096.24.186.51.27.81.096.288.168.528.216.72.06-.192.132-.438.216-.738s.168-.57.252-.81l2.196-6.156h1.53l-4.878 13.14zm14.987-3.24v-3.654c-.192.048-.492.096-.9.144-.408.036-.864.054-1.368.054-1.188.012-2.112-.282-2.772-.882-.648-.6-.972-1.446-.972-2.538v-3.024h1.422v3.024c0 .672.204 1.194.612 1.566.42.372 1.014.558 1.782.558.552 0 1.02-.018 1.404-.054.384-.048.648-.09.792-.126v-4.968h1.422v9.9zm8.687.18c-.768 0-1.434-.15-1.998-.45-.564-.312-1.002-.75-1.314-1.314s-.468-1.218-.468-1.962v-2.808c0-.756.156-1.41.468-1.962.312-.564.75-.996 1.314-1.296.564-.312 1.23-.468 1.998-.468s1.434.156 1.998.468c.564.3 1.002.732 1.314 1.296.312.552.468 1.206.468 1.962v1.746h-6.156v1.062c0 .804.204 1.428.612 1.872.42.432 1.008.648 1.764.648.636 0 1.152-.126 1.548-.378.408-.252.666-.618.774-1.098h1.422c-.132.828-.534 1.482-1.206 1.962s-1.518.72-2.538.72zm2.376-5.742v-.792c0-.804-.204-1.422-.612-1.854-.408-.444-.996-.666-1.764-.666-.756 0-1.344.222-1.764.666-.408.432-.612 1.05-.612 1.854v.63h4.896zm4.781 5.562v-9.9h1.44v4.212h4.392v-4.212h1.44v9.9h-1.44v-4.392h-4.392v4.392zm10.793 0v-9.9h1.386v5.634c0 .336-.012.696-.036 1.08-.012.372-.03.726-.054 1.062s-.048.618-.072.846l4.194-8.622h1.854v9.9h-1.386v-5.634c0-.348.006-.708.018-1.08.024-.372.048-.726.072-1.062.036-.348.06-.636.072-.864l-4.212 8.64zm10.235 0 2.52-3.834c-.768-.168-1.362-.51-1.782-1.026s-.63-1.164-.63-1.944c0-.96.318-1.716.954-2.268.648-.552 1.524-.828 2.628-.828h4.14v9.9h-1.44v-3.708h-2.394l-2.34 3.708zm3.69-4.986h2.7v-3.636h-2.7c-.648 0-1.164.162-1.548.486s-.576.768-.576 1.332.192 1.008.576 1.332.9.486 1.548.486zm8.993 7.866 1.404-5.598h2.16l-2.322 5.598zm25.996-2.88v-3.654c-.192.048-.492.096-.9.144-.408.036-.864.054-1.368.054-1.188.012-2.112-.282-2.772-.882-.648-.6-.972-1.446-.972-2.538v-3.024h1.422v3.024c0 .672.204 1.194.612 1.566.42.372 1.014.558 1.782.558.552 0 1.02-.018 1.404-.054.384-.048.648-.09.792-.126v-4.968h1.422v9.9zm7.967 0v-8.622h-3.6v-1.278h8.64v1.278h-3.6v8.622zm11.513.162c-.768 0-1.434-.15-1.998-.45s-1.002-.732-1.314-1.296-.468-1.23-.468-1.998v-2.736c0-.78.156-1.446.468-1.998.312-.564.75-.996 1.314-1.296s1.23-.45 1.998-.45 1.434.15 1.998.45 1.002.732 1.314 1.296c.312.552.468 1.212.468 1.98v2.754c0 .768-.156 1.434-.468 1.998s-.75.996-1.314 1.296-1.23.45-1.998.45zm0-1.278c.744 0 1.32-.21 1.728-.63s.612-1.032.612-1.836v-2.736c0-.804-.21-1.416-.63-1.836-.408-.42-.978-.63-1.71-.63s-1.308.21-1.728.63c-.408.42-.612 1.032-.612 1.836v2.736c0 .804.204 1.416.612 1.836.42.42.996.63 1.728.63zm10.793 1.296c-1.152 0-2.058-.342-2.718-1.026s-.99-1.626-.99-2.826v-4.608c0-1.56.39-2.76 1.17-3.6s1.896-1.26 3.348-1.26h2.448v1.422h-2.448c-1.008 0-1.776.3-2.304.9-.528.588-.792 1.434-.792 2.538v1.242h.252l-.252.432c.012-.72.252-1.284.72-1.692.48-.408 1.134-.612 1.962-.612 1.056 0 1.872.336 2.448 1.008.576.66.864 1.584.864 2.772v1.458c0 .804-.15 1.494-.45 2.07-.288.576-.708 1.02-1.26 1.332-.552.3-1.218.45-1.998.45zm0-1.278c.732 0 1.296-.222 1.692-.666s.594-1.08.594-1.908v-1.458c0-.816-.198-1.452-.594-1.908s-.96-.684-1.692-.684-1.296.228-1.692.684-.594 1.092-.594 1.908v1.458c0 .828.198 1.464.594 1.908.408.444.972.666 1.692.666zm6.635 1.098v-9.9h1.35v3.672h.882c1.056 0 1.89.282 2.502.846.624.552.936 1.308.936 2.268s-.306 1.722-.918 2.286c-.612.552-1.452.828-2.52.828zm1.35-1.17h.882c.672 0 1.194-.168 1.566-.504.384-.348.576-.828.576-1.44s-.192-1.086-.576-1.422c-.372-.348-.894-.522-1.566-.522h-.882zm5.616 1.17v-9.9h1.35v9.9zm15.124 3.24v-13.14h1.422v1.746h.378l-.432.594c0-.78.252-1.392.756-1.836.516-.456 1.194-.684 2.034-.684.996 0 1.788.33 2.376.99.6.648.9 1.536.9 2.664v2.934c0 .756-.138 1.41-.414 1.962-.276.54-.66.96-1.152 1.26-.48.3-1.05.45-1.71.45-.828 0-1.5-.228-2.016-.684s-.774-1.068-.774-1.836l.378.594h-.342l.018 2.016v2.97zm3.708-4.302c.72 0 1.278-.216 1.674-.648.408-.432.612-1.044.612-1.836v-2.808c0-.804-.204-1.416-.612-1.836-.396-.432-.954-.648-1.674-.648-.696 0-1.254.222-1.674.666-.408.432-.612 1.038-.612 1.818v2.808c0 .78.204 1.392.612 1.836.42.432.978.648 1.674.648zm9.965 1.242c-1.044 0-1.866-.264-2.466-.792-.6-.54-.9-1.266-.9-2.178 0-.9.294-1.608.882-2.124.588-.528 1.38-.792 2.376-.792h3.15v-1.044c0-.66-.192-1.17-.576-1.53s-.93-.54-1.638-.54c-.624 0-1.146.138-1.566.414-.408.276-.642.648-.702 1.116h-1.44c.12-.852.516-1.53 1.188-2.034.684-.504 1.536-.756 2.556-.756 1.104 0 1.98.3 2.628.9.648.588.972 1.386.972 2.394v6.786h-1.404v-1.926h-.234l.27-.288c0 .732-.282 1.314-.846 1.746s-1.314.648-2.25.648zm.342-1.152c.792 0 1.44-.198 1.944-.594s.756-.912.756-1.548v-1.494h-3.132c-.564 0-1.014.156-1.35.468s-.504.738-.504 1.278c0 .576.204 1.038.612 1.386.408.336.966.504 1.674.504zm10.757 1.116c-1.032 0-1.866-.222-2.502-.666s-1.02-1.044-1.152-1.8h1.494c.096.348.33.636.702.864.384.216.87.324 1.458.324h.882c.612 0 1.092-.15 1.44-.45.36-.312.54-.702.54-1.17 0-.504-.168-.912-.504-1.224s-.816-.468-1.44-.468h-2.214v-1.242h2.178c.564 0 .996-.144 1.296-.432.312-.288.468-.66.468-1.116 0-.312-.072-.582-.216-.81s-.354-.402-.63-.522c-.276-.132-.594-.198-.954-.198h-.936c-.54 0-.984.12-1.332.36-.348.228-.564.522-.648.882h-1.494c.12-.744.486-1.35 1.098-1.818.624-.468 1.416-.702 2.376-.702h.936c.672 0 1.254.114 1.746.342s.87.546 1.134.954c.276.408.414.888.414 1.44 0 .6-.186 1.098-.558 1.494-.36.384-.87.6-1.53.648v.072c.792.048 1.374.282 1.746.702.372.408.558.972.558 1.692 0 .852-.318 1.542-.954 2.07-.624.516-1.464.774-2.52.774zm11.261.036c-1.152 0-2.058-.342-2.718-1.026s-.99-1.626-.99-2.826v-4.608c0-1.56.39-2.76 1.17-3.6s1.896-1.26 3.348-1.26h2.448v1.422h-2.448c-1.008 0-1.776.3-2.304.9-.528.588-.792 1.434-.792 2.538v1.242h.252l-.252.432c.012-.72.252-1.284.72-1.692.48-.408 1.134-.612 1.962-.612 1.056 0 1.872.336 2.448 1.008.576.66.864 1.584.864 2.772v1.458c0 .804-.15 1.494-.45 2.07-.288.576-.708 1.02-1.26 1.332-.552.3-1.218.45-1.998.45zm0-1.278c.732 0 1.296-.222 1.692-.666s.594-1.08.594-1.908v-1.458c0-.816-.198-1.452-.594-1.908s-.96-.684-1.692-.684-1.296.228-1.692.684-.594 1.092-.594 1.908v1.458c0 .828.198 1.464.594 1.908.408.444.972.666 1.692.666zm7.157 1.098v-9.9h1.386v5.634c0 .336-.012.696-.036 1.08-.012.372-.03.726-.054 1.062s-.048.618-.072.846l4.194-8.622h1.854v9.9h-1.386v-5.634c0-.348.006-.708.018-1.08.024-.372.048-.726.072-1.062.036-.348.06-.636.072-.864l-4.212 8.64zm10.775 3.24v-13.14h1.422v1.746h.378l-.432.594c0-.78.252-1.392.756-1.836.516-.456 1.194-.684 2.034-.684.996 0 1.788.33 2.376.99.6.648.9 1.536.9 2.664v2.934c0 .756-.138 1.41-.414 1.962-.276.54-.66.96-1.152 1.26-.48.3-1.05.45-1.71.45-.828 0-1.5-.228-2.016-.684s-.774-1.068-.774-1.836l.378.594h-.342l.018 2.016v2.97zm3.708-4.302c.72 0 1.278-.216 1.674-.648.408-.432.612-1.044.612-1.836v-2.808c0-.804-.204-1.416-.612-1.836-.396-.432-.954-.648-1.674-.648-.696 0-1.254.222-1.674.666-.408.432-.612 1.038-.612 1.818v2.808c0 .78.204 1.392.612 1.836.42.432.978.648 1.674.648zm9.965 1.242c-1.044 0-1.866-.264-2.466-.792-.6-.54-.9-1.266-.9-2.178 0-.9.294-1.608.882-2.124.588-.528 1.38-.792 2.376-.792h3.15v-1.044c0-.66-.192-1.17-.576-1.53s-.93-.54-1.638-.54c-.624 0-1.146.138-1.566.414-.408.276-.642.648-.702 1.116h-1.44c.12-.852.516-1.53 1.188-2.034.684-.504 1.536-.756 2.556-.756 1.104 0 1.98.3 2.628.9.648.588.972 1.386.972 2.394v6.786h-1.404v-1.926h-.234l.27-.288c0 .732-.282 1.314-.846 1.746s-1.314.648-2.25.648zm.342-1.152c.792 0 1.44-.198 1.944-.594s.756-.912.756-1.548v-1.494h-3.132c-.564 0-1.014.156-1.35.468s-.504.738-.504 1.278c0 .576.204 1.038.612 1.386.408.336.966.504 1.674.504zm10.505.972v-8.622h-3.6v-1.278h8.64v1.278h-3.6v8.622zm7.967 0v-9.9h1.422v3.636h2.97c1.104 0 1.974.282 2.61.846.648.552.972 1.314.972 2.286 0 .96-.324 1.722-.972 2.286-.636.564-1.506.846-2.61.846zm1.422-1.296h2.97c.684 0 1.206-.156 1.566-.468.36-.324.54-.78.54-1.368s-.18-1.038-.54-1.35c-.36-.324-.882-.486-1.566-.486h-2.97zm12.935 1.476c-.768 0-1.44-.15-2.016-.45s-1.026-.726-1.35-1.278c-.312-.564-.468-1.23-.468-1.998v-2.808c0-.768.156-1.428.468-1.98.324-.564.774-.996 1.35-1.296s1.248-.45 2.016-.45c1.128 0 2.034.306 2.718.918s1.038 1.446 1.062 2.502h-1.422c-.024-.684-.246-1.212-.666-1.584-.408-.372-.972-.558-1.692-.558-.732 0-1.314.216-1.746.648-.432.42-.648 1.02-.648 1.8v2.808c0 .768.216 1.368.648 1.8s1.014.648 1.746.648c.72 0 1.284-.186 1.692-.558.42-.384.642-.912.666-1.584h1.422c-.024 1.056-.378 1.89-1.062 2.502s-1.59.918-2.718.918zm6.581-.18 2.52-3.834c-.768-.168-1.362-.51-1.782-1.026s-.63-1.164-.63-1.944c0-.96.318-1.716.954-2.268.648-.552 1.524-.828 2.628-.828h4.14v9.9h-1.44v-3.708h-2.394l-2.34 3.708zm3.69-4.986h2.7v-3.636h-2.7c-.648 0-1.164.162-1.548.486s-.576.768-.576 1.332.192 1.008.576 1.332.9.486 1.548.486zm18.454 4.986v-9.9h4.248c.984 0 1.758.234 2.322.702.564.456.846 1.092.846 1.908 0 .684-.234 1.236-.702 1.656-.456.408-1.068.612-1.836.612v-.126c.828 0 1.494.216 1.998.648.504.42.756.984.756 1.692 0 .876-.3 1.566-.9 2.07-.588.492-1.404.738-2.448.738zm1.404-1.26h2.88c.588 0 1.056-.138 1.404-.414.348-.288.522-.672.522-1.152 0-.504-.174-.894-.522-1.17-.348-.288-.816-.432-1.404-.432h-2.88zm0-4.41h2.844c.528 0 .948-.132 1.26-.396.324-.264.486-.624.486-1.08s-.162-.816-.486-1.08c-.312-.276-.732-.414-1.26-.414h-2.844zm23.349 5.814c-1.032 0-1.866-.222-2.502-.666s-1.02-1.044-1.152-1.8h1.494c.096.348.33.636.702.864.384.216.87.324 1.458.324h.882c.612 0 1.092-.15 1.44-.45.36-.312.54-.702.54-1.17 0-.504-.168-.912-.504-1.224s-.816-.468-1.44-.468h-2.214v-1.242h2.178c.564 0 .996-.144 1.296-.432.312-.288.468-.66.468-1.116 0-.312-.072-.582-.216-.81s-.354-.402-.63-.522c-.276-.132-.594-.198-.954-.198h-.936c-.54 0-.984.12-1.332.36-.348.228-.564.522-.648.882h-1.494c.12-.744.486-1.35 1.098-1.818.624-.468 1.416-.702 2.376-.702h.936c.672 0 1.254.114 1.746.342s.87.546 1.134.954c.276.408.414.888.414 1.44 0 .6-.186 1.098-.558 1.494-.36.384-.87.6-1.53.648v.072c.792.048 1.374.282 1.746.702.372.408.558.972.558 1.692 0 .852-.318 1.542-.954 2.07-.624.516-1.464.774-2.52.774zm10.487.036c-1.044 0-1.866-.264-2.466-.792-.6-.54-.9-1.266-.9-2.178 0-.9.294-1.608.882-2.124.588-.528 1.38-.792 2.376-.792h3.15v-1.044c0-.66-.192-1.17-.576-1.53s-.93-.54-1.638-.54c-.624 0-1.146.138-1.566.414-.408.276-.642.648-.702 1.116h-1.44c.12-.852.516-1.53 1.188-2.034.684-.504 1.536-.756 2.556-.756 1.104 0 1.98.3 2.628.9.648.588.972 1.386.972 2.394v6.786h-1.404v-1.926h-.234l.27-.288c0 .732-.282 1.314-.846 1.746s-1.314.648-2.25.648zm.342-1.152c.792 0 1.44-.198 1.944-.594s.756-.912.756-1.548v-1.494h-3.132c-.564 0-1.014.156-1.35.468s-.504.738-.504 1.278c0 .576.204 1.038.612 1.386.408.336.966.504 1.674.504zm6.437 3.492v-3.744h.81c.204-.228.414-.636.63-1.224.228-.6.348-1.326.36-2.178l.108-5.274h6.3v8.676h1.278v3.744h-1.278v-2.52h-6.93v2.52zm2.34-3.744h4.446v-7.398h-3.528l-.072 4.014c-.012.9-.114 1.638-.306 2.214s-.372.966-.54 1.17zm12.467 1.404c-1.044 0-1.866-.264-2.466-.792-.6-.54-.9-1.266-.9-2.178 0-.9.294-1.608.882-2.124.588-.528 1.38-.792 2.376-.792h3.15v-1.044c0-.66-.192-1.17-.576-1.53s-.93-.54-1.638-.54c-.624 0-1.146.138-1.566.414-.408.276-.642.648-.702 1.116h-1.44c.12-.852.516-1.53 1.188-2.034.684-.504 1.536-.756 2.556-.756 1.104 0 1.98.3 2.628.9.648.588.972 1.386.972 2.394v6.786h-1.404v-1.926h-.234l.27-.288c0 .732-.282 1.314-.846 1.746s-1.314.648-2.25.648zm.342-1.152c.792 0 1.44-.198 1.944-.594s.756-.912.756-1.548v-1.494h-3.132c-.564 0-1.014.156-1.35.468s-.504.738-.504 1.278c0 .576.204 1.038.612 1.386.408.336.966.504 1.674.504zm13.331.972v-3.654c-.192.048-.492.096-.9.144-.408.036-.864.054-1.368.054-1.188.012-2.112-.282-2.772-.882-.648-.6-.972-1.446-.972-2.538v-3.024h1.422v3.024c0 .672.204 1.194.612 1.566.42.372 1.014.558 1.782.558.552 0 1.02-.018 1.404-.054.384-.048.648-.09.792-.126v-4.968h1.422v9.9zm7.913.18c-1.044 0-1.866-.264-2.466-.792-.6-.54-.9-1.266-.9-2.178 0-.9.294-1.608.882-2.124.588-.528 1.38-.792 2.376-.792h3.15v-1.044c0-.66-.192-1.17-.576-1.53s-.93-.54-1.638-.54c-.624 0-1.146.138-1.566.414-.408.276-.642.648-.702 1.116h-1.44c.12-.852.516-1.53 1.188-2.034.684-.504 1.536-.756 2.556-.756 1.104 0 1.98.3 2.628.9.648.588.972 1.386.972 2.394v6.786h-1.404v-1.926h-.234l.27-.288c0 .732-.282 1.314-.846 1.746s-1.314.648-2.25.648zm.342-1.152c.792 0 1.44-.198 1.944-.594s.756-.912.756-1.548v-1.494h-3.132c-.564 0-1.014.156-1.35.468s-.504.738-.504 1.278c0 .576.204 1.038.612 1.386.408.336.966.504 1.674.504zm6.851.972 3.51-5.094-3.294-4.806h1.674l2.088 3.204c.072.12.144.258.216.414.084.144.15.258.198.342.048-.084.108-.198.18-.342.084-.156.162-.294.234-.414l2.088-3.204h1.656l-3.294 4.824 3.492 5.076h-1.674l-2.232-3.384c-.084-.12-.168-.264-.252-.432-.072-.168-.138-.3-.198-.396-.048.096-.12.228-.216.396s-.186.312-.27.432l-2.25 3.384zm-603.668 24v-9.9h1.386v5.634c0 .336-.012.696-.036 1.08-.012.372-.03.726-.054 1.062s-.048.618-.072.846l4.194-8.622h1.854v9.9h-1.386v-5.634c0-.348.006-.708.018-1.08.024-.372.048-.726.072-1.062.036-.348.06-.636.072-.864l-4.212 8.64zm20.434 2.52v-3.744h.81c.204-.228.414-.636.63-1.224.228-.6.348-1.326.36-2.178l.108-5.274h6.3v8.676h1.278v3.744h-1.278v-2.52h-6.93v2.52zm2.34-3.744h4.446v-7.398h-3.528l-.072 4.014c-.012.9-.114 1.638-.306 2.214s-.372.966-.54 1.17zm11.153 4.464 1.458-3.87-3.672-9.27h1.584l2.34 6.174c.096.24.186.51.27.81.096.288.168.528.216.72.06-.192.132-.438.216-.738s.168-.57.252-.81l2.196-6.156h1.53l-4.878 13.14zm8.921-3.24v-9.9h1.98l1.44 4.032c.12.348.234.702.342 1.062s.186.642.234.846c.06-.204.138-.486.234-.846.108-.36.222-.72.342-1.08l1.386-4.014h1.962v9.9h-1.386v-2.376c0-.516.006-1.068.018-1.656s.024-1.176.036-1.764.03-1.14.054-1.656c.024-.528.042-.99.054-1.386l-1.962 5.868h-1.512l-1.962-5.832c.024.48.042 1.086.054 1.818.012.72.024 1.482.036 2.286.024.804.036 1.578.036 2.322v2.376zm13.979.18c-1.044 0-1.866-.264-2.466-.792-.6-.54-.9-1.266-.9-2.178 0-.9.294-1.608.882-2.124.588-.528 1.38-.792 2.376-.792h3.15v-1.044c0-.66-.192-1.17-.576-1.53s-.93-.54-1.638-.54c-.624 0-1.146.138-1.566.414-.408.276-.642.648-.702 1.116h-1.44c.12-.852.516-1.53 1.188-2.034.684-.504 1.536-.756 2.556-.756 1.104 0 1.98.3 2.628.9.648.588.972 1.386.972 2.394v6.786h-1.404v-1.926h-.234l.27-.288c0 .732-.282 1.314-.846 1.746s-1.314.648-2.25.648zm.342-1.152c.792 0 1.44-.198 1.944-.594s.756-.912.756-1.548v-1.494h-3.132c-.564 0-1.014.156-1.35.468s-.504.738-.504 1.278c0 .576.204 1.038.612 1.386.408.336.966.504 1.674.504zm10.505.972v-8.622h-3.6v-1.278h8.64v1.278h-3.6v8.622zm7.967 0v-9.9h1.422v3.636h2.97c1.104 0 1.974.282 2.61.846.648.552.972 1.314.972 2.286 0 .96-.324 1.722-.972 2.286-.636.564-1.506.846-2.61.846zm1.422-1.296h2.97c.684 0 1.206-.156 1.566-.468.36-.324.54-.78.54-1.368s-.18-1.038-.54-1.35c-.36-.324-.882-.486-1.566-.486h-2.97zm20.128 1.296v-9.9h1.44v4.158h1.872l2.934-4.158h1.638l-3.33 4.716 3.402 5.184h-1.674l-2.97-4.5h-1.872v4.5zm13.601.18c-1.044 0-1.866-.264-2.466-.792-.6-.54-.9-1.266-.9-2.178 0-.9.294-1.608.882-2.124.588-.528 1.38-.792 2.376-.792h3.15v-1.044c0-.66-.192-1.17-.576-1.53s-.93-.54-1.638-.54c-.624 0-1.146.138-1.566.414-.408.276-.642.648-.702 1.116h-1.44c.12-.852.516-1.53 1.188-2.034.684-.504 1.536-.756 2.556-.756 1.104 0 1.98.3 2.628.9.648.588.972 1.386.972 2.394v6.786h-1.404v-1.926h-.234l.27-.288c0 .732-.282 1.314-.846 1.746s-1.314.648-2.25.648zm.342-1.152c.792 0 1.44-.198 1.944-.594s.756-.912.756-1.548v-1.494h-3.132c-.564 0-1.014.156-1.35.468s-.504.738-.504 1.278c0 .576.204 1.038.612 1.386.408.336.966.504 1.674.504zm7.643.972v-9.9h1.44v4.158h1.872l2.934-4.158h1.638l-3.33 4.716 3.402 5.184h-1.674l-2.97-4.5h-1.872v4.5zm21.514 3.24v-13.14h1.422v1.746h.378l-.432.594c0-.78.252-1.392.756-1.836.516-.456 1.194-.684 2.034-.684.996 0 1.788.33 2.376.99.6.648.9 1.536.9 2.664v2.934c0 .756-.138 1.41-.414 1.962-.276.54-.66.96-1.152 1.26-.48.3-1.05.45-1.71.45-.828 0-1.5-.228-2.016-.684s-.774-1.068-.774-1.836l.378.594h-.342l.018 2.016v2.97zm3.708-4.302c.72 0 1.278-.216 1.674-.648.408-.432.612-1.044.612-1.836v-2.808c0-.804-.204-1.416-.612-1.836-.396-.432-.954-.648-1.674-.648-.696 0-1.254.222-1.674.666-.408.432-.612 1.038-.612 1.818v2.808c0 .78.204 1.392.612 1.836.42.432.978.648 1.674.648zm9.965 1.242c-1.044 0-1.866-.264-2.466-.792-.6-.54-.9-1.266-.9-2.178 0-.9.294-1.608.882-2.124.588-.528 1.38-.792 2.376-.792h3.15v-1.044c0-.66-.192-1.17-.576-1.53s-.93-.54-1.638-.54c-.624 0-1.146.138-1.566.414-.408.276-.642.648-.702 1.116h-1.44c.12-.852.516-1.53 1.188-2.034.684-.504 1.536-.756 2.556-.756 1.104 0 1.98.3 2.628.9.648.588.972 1.386.972 2.394v6.786h-1.404v-1.926h-.234l.27-.288c0 .732-.282 1.314-.846 1.746s-1.314.648-2.25.648zm.342-1.152c.792 0 1.44-.198 1.944-.594s.756-.912.756-1.548v-1.494h-3.132c-.564 0-1.014.156-1.35.468s-.504.738-.504 1.278c0 .576.204 1.038.612 1.386.408.336.966.504 1.674.504zm10.757 1.116c-1.032 0-1.866-.222-2.502-.666s-1.02-1.044-1.152-1.8h1.494c.096.348.33.636.702.864.384.216.87.324 1.458.324h.882c.612 0 1.092-.15 1.44-.45.36-.312.54-.702.54-1.17 0-.504-.168-.912-.504-1.224s-.816-.468-1.44-.468h-2.214v-1.242h2.178c.564 0 .996-.144 1.296-.432.312-.288.468-.66.468-1.116 0-.312-.072-.582-.216-.81s-.354-.402-.63-.522c-.276-.132-.594-.198-.954-.198h-.936c-.54 0-.984.12-1.332.36-.348.228-.564.522-.648.882h-1.494c.12-.744.486-1.35 1.098-1.818.624-.468 1.416-.702 2.376-.702h.936c.672 0 1.254.114 1.746.342s.87.546 1.134.954c.276.408.414.888.414 1.44 0 .6-.186 1.098-.558 1.494-.36.384-.87.6-1.53.648v.072c.792.048 1.374.282 1.746.702.372.408.558.972.558 1.692 0 .852-.318 1.542-.954 2.07-.624.516-1.464.774-2.52.774zm7.607 3.096v-13.14h1.422v1.746h.378l-.432.594c0-.78.252-1.392.756-1.836.516-.456 1.194-.684 2.034-.684.996 0 1.788.33 2.376.99.6.648.9 1.536.9 2.664v2.934c0 .756-.138 1.41-.414 1.962-.276.54-.66.96-1.152 1.26-.48.3-1.05.45-1.71.45-.828 0-1.5-.228-2.016-.684s-.774-1.068-.774-1.836l.378.594h-.342l.018 2.016v2.97zm3.708-4.302c.72 0 1.278-.216 1.674-.648.408-.432.612-1.044.612-1.836v-2.808c0-.804-.204-1.416-.612-1.836-.396-.432-.954-.648-1.674-.648-.696 0-1.254.222-1.674.666-.408.432-.612 1.038-.612 1.818v2.808c0 .78.204 1.392.612 1.836.42.432.978.648 1.674.648zm9.964 1.242c-1.044 0-1.866-.264-2.466-.792-.6-.54-.9-1.266-.9-2.178 0-.9.294-1.608.882-2.124.588-.528 1.38-.792 2.376-.792h3.15v-1.044c0-.66-.192-1.17-.576-1.53s-.93-.54-1.638-.54c-.624 0-1.146.138-1.566.414-.408.276-.642.648-.702 1.116h-1.44c.12-.852.516-1.53 1.188-2.034.684-.504 1.536-.756 2.556-.756 1.104 0 1.98.3 2.628.9.648.588.972 1.386.972 2.394v6.786h-1.404v-1.926h-.234l.27-.288c0 .732-.282 1.314-.846 1.746s-1.314.648-2.25.648zm.342-1.152c.792 0 1.44-.198 1.944-.594s.756-.912.756-1.548v-1.494h-3.132c-.564 0-1.014.156-1.35.468s-.504.738-.504 1.278c0 .576.204 1.038.612 1.386.408.336.966.504 1.674.504zm11.225 1.152c-1.152 0-2.058-.342-2.718-1.026s-.99-1.626-.99-2.826v-4.608c0-1.56.39-2.76 1.17-3.6s1.896-1.26 3.348-1.26h2.448v1.422h-2.448c-1.008 0-1.776.3-2.304.9-.528.588-.792 1.434-.792 2.538v1.242h.252l-.252.432c.012-.72.252-1.284.72-1.692.48-.408 1.134-.612 1.962-.612 1.056 0 1.872.336 2.448 1.008.576.66.864 1.584.864 2.772v1.458c0 .804-.15 1.494-.45 2.07-.288.576-.708 1.02-1.26 1.332-.552.3-1.218.45-1.998.45zm0-1.278c.732 0 1.296-.222 1.692-.666s.594-1.08.594-1.908v-1.458c0-.816-.198-1.452-.594-1.908s-.96-.684-1.692-.684-1.296.228-1.692.684-.594 1.092-.594 1.908v1.458c0 .828.198 1.464.594 1.908.408.444.972.666 1.692.666zm10.793 1.26c-.768 0-1.434-.15-1.998-.45s-1.002-.732-1.314-1.296-.468-1.23-.468-1.998v-2.736c0-.78.156-1.446.468-1.998.312-.564.75-.996 1.314-1.296s1.23-.45 1.998-.45 1.434.15 1.998.45 1.002.732 1.314 1.296c.312.552.468 1.212.468 1.98v2.754c0 .768-.156 1.434-.468 1.998s-.75.996-1.314 1.296-1.23.45-1.998.45zm0-1.278c.744 0 1.32-.21 1.728-.63s.612-1.032.612-1.836v-2.736c0-.804-.21-1.416-.63-1.836-.408-.42-.978-.63-1.71-.63s-1.308.21-1.728.63c-.408.42-.612 1.032-.612 1.836v2.736c0 .804.204 1.416.612 1.836.42.42.996.63 1.728.63zm10.073 1.116v-8.622h-3.6v-1.278h8.64v1.278h-3.6v8.622zm13.619 0v-3.654c-.192.048-.492.096-.9.144-.408.036-.864.054-1.368.054-1.188.012-2.112-.282-2.772-.882-.648-.6-.972-1.446-.972-2.538v-3.024h1.422v3.024c0 .672.204 1.194.612 1.566.42.372 1.014.558 1.782.558.552 0 1.02-.018 1.404-.054.384-.048.648-.09.792-.126v-4.968h1.422v9.9zm5.051 0v-9.9h1.386v5.634c0 .336-.012.696-.036 1.08-.012.372-.03.726-.054 1.062s-.048.618-.072.846l4.194-8.622h1.854v9.9h-1.386v-5.634c0-.348.006-.708.018-1.08.024-.372.048-.726.072-1.062.036-.348.06-.636.072-.864l-4.212 8.64zm10.847 0v-9.9h1.44v4.158h1.872l2.934-4.158h1.638l-3.33 4.716 3.402 5.184h-1.674l-2.97-4.5h-1.872v4.5zm14.375.18c-.444 0-.798-.126-1.062-.378-.252-.264-.378-.612-.378-1.044 0-.456.126-.816.378-1.08.264-.264.618-.396 1.062-.396s.792.132 1.044.396c.264.264.396.624.396 1.08 0 .432-.132.78-.396 1.044-.252.252-.6.378-1.044.378z"/></g></g></svg>