<svg fill="none" height="160" viewBox="0 0 550 160" width="550" xmlns="http://www.w3.org/2000/svg" xmlns:xlink="http://www.w3.org/1999/xlink"><filter id="a" color-interpolation-filters="sRGB" filterUnits="userSpaceOnUse" height="310" width="310" x="-118" y="-141"><feFlood flood-opacity="0" result="BackgroundImageFix"/><feBlend in="SourceGraphic" in2="BackgroundImageFix" mode="normal" result="shape"/><feGaussianBlur result="effect1_foregroundBlur_86_334" stdDeviation="60"/></filter><filter id="b" color-interpolation-filters="sRGB" filterUnits="userSpaceOnUse" height="298" width="298" x="121" y="-29"><feFlood flood-opacity="0" result="BackgroundImageFix"/><feBlend in="SourceGraphic" in2="BackgroundImageFix" mode="normal" result="shape"/><feGaussianBlur result="effect1_foregroundBlur_86_334" stdDeviation="60"/></filter><clipPath id="c"><path d="m0 0h550v160h-550z"/></clipPath><g clip-path="url(#c)"><path d="m0 0h550v160h-550z" fill="#39483d"/><g filter="url(#a)"><circle cx="37" cy="14" fill="#59f881" r="35"/></g><g filter="url(#b)"><circle cx="270" cy="120" fill="#59f881" r="29"/></g><path d="m40 69h85v14.6666h-85z" fill="#59f881"/><g fill="#fff"><path d="m40 46.2716 15.7781-.026c.101 1.0377.5386 1.79 1.3128 2.2569.791.4496 2.0617.6745 3.812.6745 1.4642 0 2.5666-.1643 3.3071-.4929.7573-.3459 1.136-.8561 1.136-1.5305 0-1.176-1.9607-1.9456-5.8821-2.3088-.7742-.0864-1.3632-.147-1.7671-.1816-.0337 0-.0674 0-.101 0-6.3281-.6398-10.6029-1.47-12.8245-2.4903-1.2959-.588-2.2973-1.5132-3.0041-2.7757-.6901-1.2624-1.0351-2.7497-1.0351-4.4618 0-3.4415 1.5315-5.9578 4.5946-7.5488 3.0631-1.5911 7.9438-2.3866 14.6421-2.3866 6.3281 0 11.0321.8128 14.112 2.4384 3.0967 1.6257 4.746 4.142 4.948 7.5489h-14.8693c-.0842-1.0031-.5386-1.7294-1.3632-2.1791-.8079-.4496-2.1122-.6744-3.913-.6744-1.5316 0-2.6592.1729-3.3829.5188-.7068.3286-1.0602.8474-1.0602 1.5564 0 1.1414 1.683 1.8505 5.049 2.1272.7068.0692 1.2454.1211 1.6156.1556.2693.0173.6901.0519 1.2623.1038 6.7825.6226 10.7375 1.1328 11.8651 1.5305 2.2216.8128 3.7868 1.8159 4.6956 3.0092.9088 1.176 1.3633 2.7929 1.3633 4.8509 0 3.8047-1.6326 6.5544-4.8976 8.2492-3.2482 1.6949-8.5833 2.5423-16.0053 2.5423-6.5974 0-11.4444-.8388-14.5412-2.5163-3.0798-1.6948-4.6955-4.3581-4.847-7.9898z"/><path d="m125 42.6917c-.471 4.6867-2.44 8.206-5.907 10.558-3.45 2.352-8.373 3.528-14.769 3.528-6.6139 0-11.7302-1.3836-15.3487-4.1506-3.6016-2.767-5.4024-6.6755-5.4024-11.7253 0-5.0325 1.8008-8.941 5.4024-11.7253 3.6185-2.7843 8.7348-4.1765 15.3487-4.1765 6.143 0 10.931 1.0809 14.365 3.2426 3.433 2.1618 5.453 5.3698 6.059 9.6241h-13.86c-.522-1.3662-1.304-2.3866-2.348-3.061-1.043-.6918-2.348-1.0377-3.913-1.0377-2.305 0-4.115.6313-5.4274 1.8937-1.3128 1.2452-1.9691 2.9746-1.9691 5.1882 0 2.1445.6395 3.8479 1.9186 5.1104 1.2789 1.2624 3.0039 1.8937 5.1749 1.8937 1.801 0 3.316-.4583 4.544-1.3749 1.246-.9339 2.02-2.1963 2.323-3.7874z"/><path d="m52.6642 119.356c0 1.959.5936 3.536 1.7809 4.729 1.1873 1.176 2.7538 1.764 4.6996 1.764 1.9788 0 3.5536-.588 4.7244-1.764 1.1872-1.193 1.7809-2.77 1.7809-4.729 0-1.977-.5937-3.554-1.7809-4.729-1.1708-1.176-2.7456-1.764-4.7244-1.764-1.9458 0-3.5123.588-4.6996 1.764-1.1873 1.175-1.7809 2.752-1.7809 4.729zm-12.6642 14.647v-38.114h12.6642v11.197c1.5336-1.057 3.1578-1.841 4.8728-2.352 1.7314-.529 3.6195-.793 5.6642-.793 4.8151 0 8.6407 1.389 11.477 4.167 2.8527 2.778 4.2791 6.527 4.2791 11.248 0 4.652-1.4099 8.384-4.2297 11.196-2.8197 2.795-6.5959 4.192-11.3285 4.192-2.2261 0-4.2709-.298-6.1342-.894-1.8634-.614-3.5618-1.526-5.0954-2.736l-.0989 2.889z"/><path d="m122.639 121.119c-.462 4.619-2.391 8.087-5.788 10.404-3.38 2.318-8.204 3.477-14.47 3.477-6.4804 0-11.4933-1.363-15.0386-4.09-3.5289-2.727-5.2933-6.578-5.2933-11.554 0-4.96 1.7644-8.811 5.2933-11.555 3.5453-2.743 8.5582-4.115 15.0386-4.115 6.019 0 10.71 1.065 14.074 3.195s5.343 5.291 5.937 9.484h-13.58c-.511-1.347-1.278-2.352-2.3-3.017-1.023-.681-2.301-1.022-3.834-1.022-2.259 0-4.0319.622-5.3181 1.866-1.2862 1.227-1.9293 2.931-1.9293 5.112 0 2.114.6266 3.792 1.8799 5.036 1.2532 1.244 2.9435 1.866 5.0705 1.866 1.765 0 3.249-.451 4.452-1.354 1.221-.921 1.979-2.165 2.276-3.733z"/><path d="m169.452 47v-16.06h3.3v6.16h3.696v-6.16h3.3v16.06h-3.3v-6.82h-3.696v6.82zm16.777.22c-1.217 0-2.185-.33-2.904-.99-.704-.66-1.056-1.5547-1.056-2.684 0-1.2173.418-2.1487 1.254-2.794.851-.66 2.068-.99 3.652-.99h2.508v-.902c0-.4693-.168-.8433-.506-1.122-.322-.2787-.762-.418-1.32-.418-.513 0-.938.1173-1.276.352-.337.2347-.542.5573-.616.968h-3.19c.132-1.2173.66-2.178 1.584-2.882.939-.7187 2.142-1.078 3.608-1.078 1.54 0 2.758.3813 3.652 1.144.91.748 1.364 1.76 1.364 3.036v8.14h-3.19v-1.98h-.528l.55-.77c0 .9093-.33 1.6353-.99 2.178-.645.528-1.51.792-2.596.792zm1.232-2.42c.646 0 1.174-.1687 1.584-.506.426-.352.638-.8067.638-1.364v-1.298h-2.442c-.498 0-.902.1467-1.21.44-.308.2787-.462.6527-.462 1.122 0 .4987.169.8947.506 1.188.338.2787.8.418 1.386.418zm15.282 2.2v-3.85c-.176.044-.455.0953-.836.154-.367.044-.785.066-1.254.066-1.599 0-2.86-.396-3.784-1.188-.924-.8067-1.386-1.914-1.386-3.322v-3.96h3.3v3.74c0 .5427.198.9753.594 1.298.396.308.931.462 1.606.462.41 0 .77-.022 1.078-.066.322-.0587.55-.11.682-.154v-5.28h3.3v12.1zm6.283 0v-12.1h3.3v4.422h3.696v-4.422h3.3v12.1h-3.3v-4.598h-3.696v4.598zm13.192 0v-12.1h2.904v5.5c0 .3667-.022.8287-.066 1.386-.044.5427-.103 1.0927-.176 1.65-.059.5573-.125 1.0487-.198 1.474l3.828-10.01h4.004v12.1h-2.904v-5.5c0-.3813.022-.814.066-1.298.044-.4987.095-.9973.154-1.496.058-.4987.117-.924.176-1.276l-3.784 9.57zm31.53.22c-1.07 0-2.002-.198-2.794-.594-.792-.4107-1.408-.9753-1.848-1.694-.425-.7333-.638-1.584-.638-2.552v-2.86c0-.968.213-1.8113.638-2.53.44-.7333 1.056-1.298 1.848-1.694.792-.4107 1.724-.616 2.794-.616 1.086 0 2.017.2053 2.794.616.792.396 1.401.9607 1.826 1.694.44.7187.66 1.562.66 2.53v2.86c0 .968-.22 1.8187-.66 2.552-.425.7187-1.034 1.2833-1.826 1.694-.777.396-1.708.594-2.794.594zm0-2.86c.646 0 1.137-.1687 1.474-.506.338-.352.506-.8433.506-1.474v-2.86c0-.6453-.168-1.1367-.506-1.474-.337-.3373-.828-.506-1.474-.506-.63 0-1.122.1687-1.474.506-.337.3373-.506.8287-.506 1.474v2.86c0 .6307.169 1.122.506 1.474.352.3373.844.506 1.474.506zm13.192 2.86c-1.613-.0293-2.897-.4693-3.85-1.32-.953-.8653-1.43-2.0387-1.43-3.52v-5.39c0-1.936.543-3.4247 1.628-4.466 1.085-1.056 2.633-1.584 4.642-1.584h3.63v3.19h-3.63c-.968 0-1.709.242-2.222.726-.499.484-.748 1.1953-.748 2.134v1.54h.308l-.264.308c-.015-.8213.249-1.474.792-1.958.557-.4987 1.349-.748 2.376-.748 1.276 0 2.266.418 2.97 1.254.719.836 1.078 1.9947 1.078 3.476v1.518c0 .9827-.22 1.848-.66 2.596-.425.7333-1.034 1.298-1.826 1.694-.777.3813-1.709.5647-2.794.55zm0-2.86c.645 0 1.137-.1687 1.474-.506.337-.352.506-.8433.506-1.474v-1.518c0-.6453-.169-1.1367-.506-1.474s-.829-.506-1.474-.506c-.631 0-1.122.1687-1.474.506-.337.3373-.506.8287-.506 1.474v1.518c0 .6307.169 1.122.506 1.474.352.3373.843.506 1.474.506zm10.045 6.6 1.65-4.554-4.532-11.506h3.586l1.826 5.28c.132.396.264.88.396 1.452.147.5573.257 1.012.33 1.364.074-.352.176-.8067.308-1.364.147-.572.286-1.056.418-1.452l1.76-5.28h3.432l-5.72 16.06zm18.098-3.96v-3.85c-.176.044-.455.0953-.836.154-.367.044-.785.066-1.254.066-1.599 0-2.86-.396-3.784-1.188-.924-.8067-1.386-1.914-1.386-3.322v-3.96h3.3v3.74c0 .5427.198.9753.594 1.298.396.308.931.462 1.606.462.41 0 .77-.022 1.078-.066.322-.0587.55-.11.682-.154v-5.28h3.3v12.1zm11.453.22c-1.071 0-2.009-.198-2.816-.594-.792-.4107-1.408-.9753-1.848-1.694-.425-.7333-.638-1.584-.638-2.552v-2.86c0-.968.213-1.8113.638-2.53.44-.7333 1.056-1.298 1.848-1.694.807-.4107 1.745-.616 2.816-.616s1.995.2053 2.772.616c.792.396 1.401.9607 1.826 1.694.44.7187.66 1.562.66 2.53v2.2h-7.414v.66c0 .7627.183 1.342.55 1.738.367.3813.917.572 1.65.572.513 0 .924-.088 1.232-.264.323-.176.535-.418.638-.726h3.234c-.264 1.056-.865 1.9067-1.804 2.552-.924.6453-2.039.968-3.344.968zm2.112-7.194v-.55c0-.748-.176-1.32-.528-1.716-.337-.396-.865-.594-1.584-.594s-1.261.2053-1.628.616c-.352.4107-.528.99-.528 1.738v.33l4.488-.044zm5.909 6.974v-12.1h3.3v4.422h3.696v-4.422h3.3v12.1h-3.3v-4.598h-3.696v4.598zm13.192 0v-12.1h2.904v5.5c0 .3667-.022.8287-.066 1.386-.044.5427-.103 1.0927-.176 1.65-.059.5573-.125 1.0487-.198 1.474l3.828-10.01h4.004v12.1h-2.904v-5.5c0-.3813.022-.814.066-1.298.044-.4987.095-.9973.154-1.496s.117-.924.176-1.276l-3.784 9.57zm18.361.22c-1.07 0-2.009-.198-2.816-.594-.792-.4107-1.408-.9753-1.848-1.694-.425-.7333-.638-1.584-.638-2.552v-2.86c0-.968.213-1.8113.638-2.53.44-.7333 1.056-1.298 1.848-1.694.807-.4107 1.746-.616 2.816-.616 1.071 0 1.995.2053 2.772.616.792.396 1.401.9607 1.826 1.694.44.7187.66 1.562.66 2.53v2.2h-7.414v.66c0 .7627.184 1.342.55 1.738.367.3813.917.572 1.65.572.514 0 .924-.088 1.232-.264.323-.176.536-.418.638-.726h3.234c-.264 1.056-.865 1.9067-1.804 2.552-.924.6453-2.038.968-3.344.968zm2.112-7.194v-.55c0-.748-.176-1.32-.528-1.716-.337-.396-.865-.594-1.584-.594-.718 0-1.261.2053-1.628.616-.352.4107-.528.99-.528 1.738v.33l4.488-.044zm-178.792 35.974v-12.1h5.478c1.481 0 2.655.3007 3.52.902.88.5867 1.32 1.386 1.32 2.398 0 .8067-.33 1.4593-.99 1.958-.66.484-1.533.726-2.618.726v-.22c1.188 0 2.134.264 2.838.792.719.528 1.078 1.2247 1.078 2.09 0 1.0707-.44 1.914-1.32 2.53-.865.616-2.046.924-3.542.924zm3.234-2.332h2.376c.543 0 .975-.1247 1.298-.374.337-.264.506-.6013.506-1.012 0-.44-.169-.792-.506-1.056-.323-.264-.755-.396-1.298-.396h-2.376zm0-4.774h2.266c.499 0 .895-.1173 1.188-.352.293-.2493.44-.572.44-.968 0-.4107-.147-.7407-.44-.99s-.689-.374-1.188-.374h-2.266zm28.319 7.326c-1.13 0-2.112-.1907-2.948-.572s-1.482-.9167-1.936-1.606c-.455-.6893-.682-1.5033-.682-2.442h3.3c0 .5427.205.9753.616 1.298.425.308.997.462 1.716.462.689 0 1.224-.154 1.606-.462.396-.308.594-.7333.594-1.276 0-.4693-.147-.8727-.44-1.21-.294-.3373-.704-.5647-1.232-.682l-1.628-.374c-1.364-.3227-2.428-.9167-3.19-1.782-.748-.88-1.122-1.9507-1.122-3.212 0-.9387.212-1.7527.638-2.442.44-.704 1.056-1.2467 1.848-1.628s1.73-.572 2.816-.572c1.642 0 2.94.4107 3.894 1.232.968.8067 1.452 1.8993 1.452 3.278h-3.3c0-.5133-.184-.9167-.55-1.21-.352-.2933-.866-.44-1.54-.44-.631 0-1.115.1467-1.452.44-.338.2787-.506.682-.506 1.21 0 .4693.132.8727.396 1.21.278.3227.667.5427 1.166.66l1.716.396c1.422.3227 2.5.9093 3.234 1.76.733.836 1.1 1.9067 1.1 3.212 0 .9387-.235 1.7673-.704 2.486-.455.7187-1.1 1.276-1.936 1.672-.822.396-1.797.594-2.926.594zm11.629 0c-1.217 0-2.185-.33-2.904-.99-.704-.66-1.056-1.5547-1.056-2.684 0-1.2173.418-2.1487 1.254-2.794.851-.66 2.068-.99 3.652-.99h2.508v-.902c0-.4693-.168-.8433-.506-1.122-.322-.2787-.762-.418-1.32-.418-.513 0-.938.1173-1.276.352-.337.2347-.542.5573-.616.968h-3.19c.132-1.2173.66-2.178 1.584-2.882.939-.7187 2.142-1.078 3.608-1.078 1.54 0 2.758.3813 3.652 1.144.91.748 1.364 1.76 1.364 3.036v8.14h-3.19v-1.98h-.528l.55-.77c0 .9093-.33 1.6353-.99 2.178-.645.528-1.51.792-2.596.792zm1.232-2.42c.646 0 1.174-.1687 1.584-.506.426-.352.638-.8067.638-1.364v-1.298h-2.442c-.498 0-.902.1467-1.21.44-.308.2787-.462.6527-.462 1.122 0 .4987.169.8947.506 1.188.338.2787.8.418 1.386.418zm8.462 2.2v-2.992h4.18v-6.138h-3.63v-2.97h6.71v9.108h3.52v2.992zm5.5-14.014c-.602 0-1.086-.154-1.452-.462-.352-.308-.528-.726-.528-1.254s.176-.946.528-1.254c.366-.308.85-.462 1.452-.462.601 0 1.078.154 1.43.462.366.308.55.726.55 1.254s-.184.946-.55 1.254c-.352.308-.829.462-1.43.462zm7.603 14.014v-12.1h3.19v2.31h.968l-.968.77c0-1.0267.293-1.8333.88-2.42s1.379-.88 2.376-.88c1.173 0 2.112.4107 2.816 1.232.719.8213 1.078 1.914 1.078 3.278v7.81h-3.3v-7.48c0-.6307-.169-1.1147-.506-1.452-.323-.352-.785-.528-1.386-.528-.587 0-1.041.176-1.364.528-.323.3373-.484.8213-.484 1.452v7.48zm19.659 0c-1.232 0-2.2-.352-2.904-1.056s-1.056-1.672-1.056-2.904v-5.17h-3.19v-2.97h3.19v-3.41h3.3v3.41h4.51v2.97h-4.51v5.17c0 .66.33.99.99.99h3.3v2.97zm11.938.22c-1.071 0-2.009-.198-2.816-.594-.807-.4107-1.43-.9753-1.87-1.694-.44-.7333-.66-1.584-.66-2.552v-2.86c0-.9827.22-1.8333.66-2.552s1.063-1.276 1.87-1.672c.807-.4107 1.745-.616 2.816-.616 1.599 0 2.875.4033 3.828 1.21s1.459 1.9067 1.518 3.3h-3.3c-.044-.5133-.249-.9167-.616-1.21-.352-.2933-.829-.44-1.43-.44-.66 0-1.166.1687-1.518.506s-.528.8287-.528 1.474v2.86c0 .6307.176 1.122.528 1.474.352.3373.858.506 1.518.506.601 0 1.078-.1393 1.43-.418.367-.2933.572-.704.616-1.232h3.3c-.059 1.3933-.565 2.4933-1.518 3.3s-2.229 1.21-3.828 1.21zm13.125 0c-1.07 0-2.002-.198-2.794-.594-.792-.4107-1.408-.9753-1.848-1.694-.425-.7333-.638-1.584-.638-2.552v-2.86c0-.968.213-1.8113.638-2.53.44-.7333 1.056-1.298 1.848-1.694.792-.4107 1.724-.616 2.794-.616 1.086 0 2.017.2053 2.794.616.792.396 1.401.9607 1.826 1.694.44.7187.66 1.562.66 2.53v2.86c0 .968-.22 1.8187-.66 2.552-.425.7187-1.034 1.2833-1.826 1.694-.777.396-1.708.594-2.794.594zm0-2.86c.646 0 1.137-.1687 1.474-.506.338-.352.506-.8433.506-1.474v-2.86c0-.6453-.168-1.1367-.506-1.474-.337-.3373-.828-.506-1.474-.506-.63 0-1.122.1687-1.474.506-.337.3373-.506.8287-.506 1.474v2.86c0 .6307.169 1.122.506 1.474.352.3373.844.506 1.474.506zm11.938 2.86c-1.218 0-2.193-.4253-2.926-1.276-.734-.8507-1.1-2.002-1.1-3.454v-3.08c0-1.4373.366-2.5813 1.1-3.432.733-.8653 1.708-1.298 2.926-1.298.997 0 1.782.2933 2.354.88.572.572.858 1.3787.858 2.42l-.77-.77h.77l-.11-2.97v-3.3h3.3v16.06h-3.19v-2.31h-.77l.77-.77c0 1.0413-.286 1.8553-.858 2.442-.572.572-1.357.858-2.354.858zm1.188-2.86c.601 0 1.07-.1687 1.408-.506.337-.352.506-.8433.506-1.474v-2.86c0-.6307-.169-1.1147-.506-1.452-.338-.352-.807-.528-1.408-.528-.616 0-1.093.176-1.43.528-.323.3373-.484.8213-.484 1.452v2.86c0 .6307.161 1.122.484 1.474.337.3373.814.506 1.43.506zm13.279 2.86c-1.071 0-2.009-.198-2.816-.594-.792-.4107-1.408-.9753-1.848-1.694-.425-.7333-.638-1.584-.638-2.552v-2.86c0-.968.213-1.8113.638-2.53.44-.7333 1.056-1.298 1.848-1.694.807-.4107 1.745-.616 2.816-.616s1.995.2053 2.772.616c.792.396 1.401.9607 1.826 1.694.44.7187.66 1.562.66 2.53v2.2h-7.414v.66c0 .7627.183 1.342.55 1.738.367.3813.917.572 1.65.572.513 0 .924-.088 1.232-.264.323-.176.535-.418.638-.726h3.234c-.264 1.056-.865 1.9067-1.804 2.552-.924.6453-2.039.968-3.344.968zm2.112-7.194v-.55c0-.748-.176-1.32-.528-1.716-.337-.396-.865-.594-1.584-.594s-1.261.2053-1.628.616c-.352.4107-.528.99-.528 1.738v.33l4.488-.044zm19.101 6.974v-16.06h5.17c1.628 0 2.926.374 3.894 1.122.968.7333 1.452 1.7307 1.452 2.992 0 .704-.169 1.32-.506 1.848-.323.528-.763.9387-1.32 1.232-.543.2933-1.137.44-1.782.44v.066c.719-.0147 1.371.1173 1.958.396.601.2787 1.085.6967 1.452 1.254s.55 1.2467.55 2.068c0 .9387-.227 1.76-.682 2.464-.44.6893-1.071 1.2247-1.892 1.606s-1.797.572-2.926.572zm3.19-2.662h2.046c.719 0 1.283-.1907 1.694-.572s.616-.9093.616-1.584-.205-1.2027-.616-1.584c-.411-.396-.975-.594-1.694-.594h-2.046zm0-6.93h1.936c.645 0 1.151-.1687 1.518-.506.367-.352.55-.8213.55-1.408 0-.6013-.183-1.0633-.55-1.386-.367-.3373-.873-.506-1.518-.506h-1.936zm15.149 9.812c-1.07 0-2.002-.198-2.794-.594-.792-.4107-1.408-.9753-1.848-1.694-.425-.7333-.638-1.584-.638-2.552v-2.86c0-.968.213-1.8113.638-2.53.44-.7333 1.056-1.298 1.848-1.694.792-.4107 1.724-.616 2.794-.616 1.086 0 2.017.2053 2.794.616.792.396 1.401.9607 1.826 1.694.44.7187.66 1.562.66 2.53v2.86c0 .968-.22 1.8187-.66 2.552-.425.7187-1.034 1.2833-1.826 1.694-.777.396-1.708.594-2.794.594zm0-2.86c.646 0 1.137-.1687 1.474-.506.338-.352.506-.8433.506-1.474v-2.86c0-.6453-.168-1.1367-.506-1.474-.337-.3373-.828-.506-1.474-.506-.63 0-1.122.1687-1.474.506-.337.3373-.506.8287-.506 1.474v2.86c0 .6307.169 1.122.506 1.474.352.3373.844.506 1.474.506zm13.192 2.86c-1.071 0-2.002-.198-2.794-.594-.792-.4107-1.408-.9753-1.848-1.694-.426-.7333-.638-1.584-.638-2.552v-2.86c0-.968.212-1.8113.638-2.53.44-.7333 1.056-1.298 1.848-1.694.792-.4107 1.723-.616 2.794-.616 1.085 0 2.016.2053 2.794.616.792.396 1.4.9607 1.826 1.694.44.7187.66 1.562.66 2.53v2.86c0 .968-.22 1.8187-.66 2.552-.426.7187-1.034 1.2833-1.826 1.694-.778.396-1.709.594-2.794.594zm0-2.86c.645 0 1.136-.1687 1.474-.506.337-.352.506-.8433.506-1.474v-2.86c0-.6453-.169-1.1367-.506-1.474-.338-.3373-.829-.506-1.474-.506-.631 0-1.122.1687-1.474.506-.338.3373-.506.8287-.506 1.474v2.86c0 .6307.168 1.122.506 1.474.352.3373.843.506 1.474.506zm14.511 2.64c-1.232 0-2.2-.352-2.904-1.056s-1.056-1.672-1.056-2.904v-5.17h-3.19v-2.97h3.19v-3.41h3.3v3.41h4.51v2.97h-4.51v5.17c0 .66.33.99.99.99h3.3v2.97zm11.938.22c-1.071 0-2.01-.198-2.816-.594-.807-.4107-1.43-.9753-1.87-1.694-.44-.7333-.66-1.584-.66-2.552v-2.86c0-.9827.22-1.8333.66-2.552s1.063-1.276 1.87-1.672c.806-.4107 1.745-.616 2.816-.616 1.598 0 2.874.4033 3.828 1.21.953.8067 1.459 1.9067 1.518 3.3h-3.3c-.044-.5133-.25-.9167-.616-1.21-.352-.2933-.829-.44-1.43-.44-.66 0-1.166.1687-1.518.506s-.528.8287-.528 1.474v2.86c0 .6307.176 1.122.528 1.474.352.3373.858.506 1.518.506.601 0 1.078-.1393 1.43-.418.366-.2933.572-.704.616-1.232h3.3c-.059 1.3933-.565 2.4933-1.518 3.3-.954.8067-2.23 1.21-3.828 1.21zm11.563 0c-1.217 0-2.185-.33-2.904-.99-.704-.66-1.056-1.5547-1.056-2.684 0-1.2173.418-2.1487 1.254-2.794.851-.66 2.068-.99 3.652-.99h2.508v-.902c0-.4693-.169-.8433-.506-1.122-.323-.2787-.763-.418-1.32-.418-.513 0-.939.1173-1.276.352s-.543.5573-.616.968h-3.19c.132-1.2173.66-2.178 1.584-2.882.939-.7187 2.141-1.078 3.608-1.078 1.54 0 2.757.3813 3.652 1.144.909.748 1.364 1.76 1.364 3.036v8.14h-3.19v-1.98h-.528l.55-.77c0 .9093-.33 1.6353-.99 2.178-.645.528-1.511.792-2.596.792zm1.232-2.42c.645 0 1.173-.1687 1.584-.506.425-.352.638-.8067.638-1.364v-1.298h-2.442c-.499 0-.902.1467-1.21.44-.308.2787-.462.6527-.462 1.122 0 .4987.169.8947.506 1.188.337.2787.799.418 1.386.418zm7.845 2.2v-12.1h2.596v1.76h.528l-.418.308c0-.6893.198-1.2393.594-1.65.396-.4253.888-.638 1.474-.638.631 0 1.122.2713 1.474.814s.528 1.2613.528 2.156l-.396-.99h.616l-.198.308c0-.6893.191-1.2393.572-1.65.382-.4253.895-.638 1.54-.638.734 0 1.328.2787 1.782.836.455.5427.682 1.2907.682 2.244v9.24h-2.838v-9.02c0-.3373-.073-.594-.22-.77-.146-.1907-.359-.286-.638-.286-.278 0-.491.0953-.638.286-.146.176-.22.4327-.22.77v9.02h-2.266v-9.02c0-.3373-.073-.594-.22-.77-.146-.1907-.359-.286-.638-.286-.278 0-.491.0953-.638.286-.146.176-.22.4327-.22.77v9.02zm13.72 3.96v-16.06h3.19v2.31h.77l-.77.77c0-1.0413.286-1.848.858-2.42.572-.5867 1.356-.88 2.354-.88 1.217 0 2.192.4327 2.926 1.298.733.8507 1.1 1.9947 1.1 3.432v3.08c0 .9533-.169 1.7893-.506 2.508-.323.704-.785 1.254-1.386 1.65-.602.3813-1.313.572-2.134.572-.998 0-1.782-.286-2.354-.858-.572-.5867-.858-1.4007-.858-2.442l.77.77h-.77l.11 2.97v3.3zm5.214-6.6c.616 0 1.085-.1687 1.408-.506.337-.352.506-.8433.506-1.474v-2.86c0-.6453-.169-1.1367-.506-1.474-.323-.3373-.792-.506-1.408-.506-.602 0-1.071.176-1.408.528-.338.3373-.506.8213-.506 1.452v2.86c0 .6307.168 1.122.506 1.474.337.3373.806.506 1.408.506z"/><path d="m169.52 109v-11.68h1.232v7.2c0 .352-.011.72-.032 1.104-.011.384-.027.741-.048 1.072-.011.331-.021.608-.032.832l3.728-10.208h1.712v11.68h-1.232v-7.2c0-.309.005-.651.016-1.024.021-.373.043-.736.064-1.088s.043-.6507.064-.896l-3.776 10.208zm22.484.16c-.683 0-1.28-.133-1.792-.4s-.912-.645-1.2-1.136c-.278-.501-.416-1.093-.416-1.776v-2.496c0-.683.138-1.269.416-1.76.288-.501.688-.885 1.2-1.152s1.109-.4 1.792-.4c1.002 0 1.808.272 2.416.816s.922 1.285.944 2.224h-1.264c-.022-.608-.219-1.077-.592-1.408-.363-.331-.864-.496-1.504-.496-.651 0-1.168.192-1.552.576-.384.373-.576.907-.576 1.6v2.496c0 .683.192 1.216.576 1.6s.901.576 1.552.576c.64 0 1.141-.165 1.504-.496.373-.341.57-.811.592-1.408h1.264c-.022.939-.336 1.68-.944 2.224s-1.414.816-2.416.816zm8.937-.16v-7.664h-3.2v-1.136h7.68v1.136h-3.2v7.664zm9.546.16c-.928 0-1.659-.235-2.192-.704-.533-.48-.8-1.125-.8-1.936 0-.8.261-1.429.784-1.888.523-.469 1.227-.704 2.112-.704h2.8v-.928c0-.587-.171-1.04-.512-1.36s-.827-.48-1.456-.48c-.555 0-1.019.123-1.392.368-.363.245-.571.576-.624.992h-1.28c.107-.757.459-1.36 1.056-1.808.608-.448 1.365-.672 2.272-.672.981 0 1.76.267 2.336.8.576.523.864 1.232.864 2.128v6.032h-1.248v-1.712h-.208l.24-.256c0 .651-.251 1.168-.752 1.552s-1.168.576-2 .576zm.304-1.024c.704 0 1.28-.176 1.728-.528s.672-.811.672-1.376v-1.328h-2.784c-.501 0-.901.139-1.2.416s-.448.656-.448 1.136c0 .512.181.923.544 1.232.363.299.859.448 1.488.448zm6.746.864v-8.8h1.28v3.744h3.904v-3.744h1.28v8.8h-1.28v-3.904h-3.904v3.904zm9.674 0v-8.8h1.264v3.232h2.64c.981 0 1.754.251 2.32.752.576.491.864 1.168.864 2.032 0 .853-.288 1.531-.864 2.032-.566.501-1.339.752-2.32.752zm1.264-1.152h2.64c.608 0 1.072-.139 1.392-.416.32-.288.48-.693.48-1.216s-.16-.923-.48-1.2c-.32-.288-.784-.432-1.392-.432h-2.64zm80.51 22.152v-3.248c-.171.043-.438.085-.8.128-.363.032-.768.048-1.216.048-1.056.011-1.878-.251-2.464-.784-.576-.533-.864-1.285-.864-2.256v-2.688h1.264v2.688c0 .597.181 1.061.544 1.392.373.331.901.496 1.584.496.49 0 .906-.016 1.248-.048.341-.043.576-.08.704-.112v-4.416h1.264v8.8zm7.721.16c-.682 0-1.274-.133-1.776-.4-.501-.277-.89-.667-1.168-1.168-.277-.501-.416-1.083-.416-1.744v-2.496c0-.672.139-1.253.416-1.744.278-.501.667-.885 1.168-1.152.502-.277 1.094-.416 1.776-.416.683 0 1.275.139 1.776.416.502.267.891.651 1.168 1.152.278.491.416 1.072.416 1.744v1.552h-5.472v.944c0 .715.182 1.269.544 1.664.374.384.896.576 1.568.576.566 0 1.024-.112 1.376-.336.363-.224.592-.549.688-.976h1.264c-.117.736-.474 1.317-1.072 1.744-.597.427-1.349.64-2.256.64zm2.112-5.104v-.704c0-.715-.181-1.264-.544-1.648-.362-.395-.885-.592-1.568-.592-.672 0-1.194.197-1.568.592-.362.384-.544.933-.544 1.648v.56h4.352zm4.234 7.824v-11.68h1.264v1.552h.336l-.384.528c0-.693.224-1.237.672-1.632.459-.405 1.061-.608 1.808-.608.885 0 1.589.293 2.112.88.533.576.8 1.365.8 2.368v2.608c0 .672-.123 1.253-.368 1.744-.245.48-.587.853-1.024 1.12-.427.267-.933.4-1.52.4-.736 0-1.333-.203-1.792-.608s-.688-.949-.688-1.632l.336.528h-.304l.016 1.792v2.64zm3.296-3.824c.64 0 1.136-.192 1.488-.576.363-.384.544-.928.544-1.632v-2.496c0-.715-.181-1.259-.544-1.632-.352-.384-.848-.576-1.488-.576-.619 0-1.115.197-1.488.592-.363.384-.544.923-.544 1.616v2.496c0 .693.181 1.237.544 1.632.373.384.869.576 1.488.576zm9.546 1.104c-.683 0-1.275-.133-1.776-.4-.502-.277-.891-.667-1.168-1.168-.278-.501-.416-1.083-.416-1.744v-2.496c0-.672.138-1.253.416-1.744.277-.501.666-.885 1.168-1.152.501-.277 1.093-.416 1.776-.416.682 0 1.274.139 1.776.416.501.267.89.651 1.168 1.152.277.491.416 1.072.416 1.744v1.552h-5.472v.944c0 .715.181 1.269.544 1.664.373.384.896.576 1.568.576.565 0 1.024-.112 1.376-.336.362-.224.592-.549.688-.976h1.264c-.118.736-.475 1.317-1.072 1.744-.598.427-1.35.64-2.256.64zm2.112-5.104v-.704c0-.715-.182-1.264-.544-1.648-.363-.395-.886-.592-1.568-.592-.672 0-1.195.197-1.568.592-.363.384-.544.933-.544 1.648v.56h4.352zm7.066 5.072c-.918 0-1.659-.197-2.224-.592-.566-.395-.907-.928-1.024-1.6h1.328c.085.309.293.565.624.768.341.192.773.288 1.296.288h.784c.544 0 .97-.133 1.28-.4.32-.277.48-.624.48-1.04 0-.448-.15-.811-.448-1.088-.299-.277-.726-.416-1.28-.416h-1.968v-1.104h1.936c.501 0 .885-.128 1.152-.384.277-.256.416-.587.416-.992 0-.277-.064-.517-.192-.72s-.315-.357-.56-.464c-.246-.117-.528-.176-.848-.176h-.832c-.48 0-.875.107-1.184.32-.31.203-.502.464-.576.784h-1.328c.106-.661.432-1.2.976-1.616.554-.416 1.258-.624 2.112-.624h.832c.597 0 1.114.101 1.552.304.437.203.773.485 1.008.848.245.363.368.789.368 1.28 0 .533-.166.976-.496 1.328-.32.341-.774.533-1.36.576v.064c.704.043 1.221.251 1.552.624.33.363.496.864.496 1.504 0 .757-.283 1.371-.848 1.84-.555.459-1.302.688-2.24.688zm21.475-.128v-2.608h-5.312v-2.08l4.64-6.992h1.376l-4.736 7.28v.64h4.032v-2.96h1.264v6.72zm13.796 0v-8.8h1.76l1.28 3.584c.106.309.208.624.304.944s.165.571.208.752c.053-.181.122-.432.208-.752.096-.32.197-.64.304-.96l1.232-3.568h1.744v8.8h-1.232v-2.112c0-.459.005-.949.016-1.472.01-.523.021-1.045.032-1.568.01-.523.026-1.013.048-1.472.021-.469.037-.88.048-1.232l-1.744 5.216h-1.344l-1.744-5.184c.021.427.037.965.048 1.616.01.64.021 1.317.032 2.032.021.715.032 1.403.032 2.064v2.112zm13.113.16c-.682 0-1.274-.133-1.776-.4-.501-.277-.89-.667-1.168-1.168-.277-.501-.416-1.083-.416-1.744v-2.496c0-.672.139-1.253.416-1.744.278-.501.667-.885 1.168-1.152.502-.277 1.094-.416 1.776-.416.683 0 1.275.139 1.776.416.502.267.891.651 1.168 1.152.278.491.416 1.072.416 1.744v1.552h-5.472v.944c0 .715.182 1.269.544 1.664.374.384.896.576 1.568.576.566 0 1.024-.112 1.376-.336.363-.224.592-.549.688-.976h1.264c-.117.736-.474 1.317-1.072 1.744-.597.427-1.349.64-2.256.64zm2.112-5.104v-.704c0-.715-.181-1.264-.544-1.648-.362-.395-.885-.592-1.568-.592-.672 0-1.194.197-1.568.592-.362.384-.544.933-.544 1.648v.56h4.352zm7.498 5.104c-.683 0-1.28-.133-1.792-.4s-.912-.645-1.2-1.136c-.277-.501-.416-1.093-.416-1.776v-2.496c0-.683.139-1.269.416-1.76.288-.501.688-.885 1.2-1.152s1.109-.4 1.792-.4c1.003 0 1.808.272 2.416.816s.923 1.285.944 2.224h-1.264c-.021-.608-.219-1.077-.592-1.408-.363-.331-.864-.496-1.504-.496-.651 0-1.168.192-1.552.576-.384.373-.576.907-.576 1.6v2.496c0 .683.192 1.216.576 1.6s.901.576 1.552.576c.64 0 1.141-.165 1.504-.496.373-.341.571-.811.592-1.408h1.264c-.021.939-.336 1.68-.944 2.224s-1.413.816-2.416.816zm5.85-.16 2.24-3.408c-.683-.149-1.211-.453-1.584-.912-.374-.459-.56-1.035-.56-1.728 0-.853.282-1.525.848-2.016.576-.491 1.354-.736 2.336-.736h3.68v8.8h-1.28v-3.296h-2.128l-2.08 3.296zm3.28-4.432h2.4v-3.232h-2.4c-.576 0-1.035.144-1.376.432-.342.288-.512.683-.512 1.184s.17.896.512 1.184c.341.288.8.432 1.376.432zm13.066 6.672v-2.24h-6.256v-8.8h1.28v7.664h3.648v-7.664h1.264v7.664h1.216v3.376zm5.881-2.08c-.928 0-1.658-.235-2.192-.704-.533-.48-.8-1.125-.8-1.936 0-.8.262-1.429.784-1.888.523-.469 1.227-.704 2.112-.704h2.8v-.928c0-.587-.17-1.04-.512-1.36-.341-.32-.826-.48-1.456-.48-.554 0-1.018.123-1.392.368-.362.245-.57.576-.624.992h-1.28c.107-.757.459-1.36 1.056-1.808.608-.448 1.366-.672 2.272-.672.982 0 1.76.267 2.336.8.576.523.864 1.232.864 2.128v6.032h-1.248v-1.712h-.208l.24-.256c0 .651-.25 1.168-.752 1.552-.501.384-1.168.576-2 .576zm.304-1.024c.704 0 1.28-.176 1.728-.528s.672-.811.672-1.376v-1.328h-2.784c-.501 0-.901.139-1.2.416-.298.277-.448.656-.448 1.136 0 .512.182.923.544 1.232.363.299.859.448 1.488.448z"/></g><path d="m246.11 109v-8.8h3.872c.96 0 1.712.208 2.256.624s.816.992.816 1.728c0 .608-.219 1.093-.656 1.456s-1.013.544-1.728.544v-.144c.779 0 1.403.192 1.872.576.48.373.72.875.72 1.504 0 .789-.283 1.408-.848 1.856-.565.437-1.344.656-2.336.656zm1.696-1.392h2.24c.469 0 .837-.107 1.104-.32.277-.213.416-.507.416-.88 0-.384-.139-.683-.416-.896-.267-.224-.635-.336-1.104-.336h-2.24zm0-3.712h2.176c.427 0 .763-.101 1.008-.304s.368-.485.368-.848c0-.352-.123-.629-.368-.832-.245-.213-.581-.32-1.008-.32h-2.176zm11.338 5.248c-.726 0-1.355-.139-1.888-.416-.534-.277-.944-.672-1.232-1.184s-.432-1.115-.432-1.808v-2.272c0-.704.144-1.307.432-1.808.288-.512.698-.907 1.232-1.184.533-.277 1.162-.416 1.888-.416.725 0 1.354.139 1.888.416.533.277.944.672 1.232 1.184.288.501.432 1.104.432 1.808v2.272c0 .693-.144 1.296-.432 1.808s-.699.907-1.232 1.184c-.534.277-1.163.416-1.888.416zm0-1.52c.586 0 1.04-.16 1.36-.48.32-.331.48-.8.48-1.408v-2.272c0-.619-.16-1.088-.48-1.408s-.774-.48-1.36-.48c-.576 0-1.03.16-1.36.48-.32.32-.48.789-.48 1.408v2.272c0 .608.16 1.077.48 1.408.33.32.784.48 1.36.48zm9.642 1.536c-.726 0-1.366-.133-1.92-.4-.544-.277-.966-.672-1.264-1.184-.288-.523-.432-1.131-.432-1.824v-2.304c0-.704.144-1.312.432-1.824.298-.512.72-.901 1.264-1.168.554-.277 1.194-.416 1.92-.416 1.056 0 1.904.277 2.544.832s.976 1.312 1.008 2.272h-1.728c-.032-.501-.208-.891-.528-1.168s-.752-.416-1.296-.416c-.587 0-1.051.165-1.392.496-.342.32-.512.779-.512 1.376v2.32c0 .597.17 1.061.512 1.392.341.331.805.496 1.392.496.544 0 .976-.139 1.296-.416s.496-.667.528-1.168h1.728c-.032.96-.368 1.717-1.008 2.272s-1.488.832-2.544.832zm8.681-.16v-7.248h-3.104v-1.552h7.936v1.552h-3.104v7.248zm7.002 2.88v-11.68h1.712v1.68h.368l-.368.4c0-.693.213-1.237.64-1.632.437-.405 1.019-.608 1.744-.608.885 0 1.589.299 2.112.896.533.587.8 1.392.8 2.416v2.48c0 .683-.123 1.275-.368 1.776-.235.491-.571.875-1.008 1.152-.427.267-.939.4-1.536.4-.715 0-1.291-.197-1.728-.592-.437-.405-.656-.955-.656-1.648l.368.4h-.4l.048 2.048v2.512zm3.504-4.224c.565 0 1.003-.16 1.312-.48.32-.331.48-.805.48-1.424v-2.304c0-.619-.16-1.088-.48-1.408-.309-.331-.747-.496-1.312-.496-.544 0-.976.171-1.296.512-.32.331-.48.795-.48 1.392v2.304c0 .597.16 1.067.48 1.408.32.331.752.496 1.296.496zm9.546 1.504c-.715 0-1.344-.139-1.888-.416-.534-.288-.944-.688-1.232-1.2s-.432-1.109-.432-1.792v-2.304c0-.693.144-1.291.432-1.792.288-.512.698-.907 1.232-1.184.544-.288 1.173-.432 1.888-.432.725 0 1.354.144 1.888.432.533.277.944.672 1.232 1.184.288.501.432 1.099.432 1.792v1.568h-5.44v.736c0 .651.16 1.147.48 1.488.33.341.805.512 1.424.512.501 0 .906-.085 1.216-.256.309-.181.501-.443.576-.784h1.712c-.128.747-.512 1.344-1.152 1.792-.64.437-1.43.656-2.368.656zm1.888-5.184v-.544c0-.64-.16-1.136-.48-1.488s-.79-.528-1.408-.528c-.608 0-1.078.176-1.408.528-.32.352-.48.853-.48 1.504v.4l3.904-.016zm7.706 5.184c-1.078-.011-1.931-.32-2.56-.928-.63-.619-.944-1.461-.944-2.528v-3.984c0-1.408.362-2.4907 1.088-3.248.736-.768 1.781-1.152 3.136-1.152h2.352v1.696h-2.352c-.822 0-1.446.2347-1.872.704-.416.459-.624 1.125-.624 2v1.056h.224l-.208.304c0-.619.202-1.104.608-1.456.416-.363.986-.544 1.712-.544.928 0 1.648.304 2.16.912.522.597.784 1.424.784 2.48v1.232c0 .715-.144 1.333-.432 1.856-.278.512-.678.907-1.2 1.184-.523.277-1.147.416-1.872.416zm0-1.52c.576 0 1.013-.165 1.312-.496.309-.341.464-.821.464-1.44v-1.232c0-.629-.155-1.109-.464-1.44-.299-.341-.736-.512-1.312-.512s-1.019.165-1.328.496c-.299.331-.448.816-.448 1.456v1.232c0 .619.149 1.099.448 1.44.309.331.752.496 1.328.496zm9.593 1.504c-.725 0-1.354-.139-1.888-.416-.533-.277-.944-.672-1.232-1.184s-.432-1.115-.432-1.808v-2.272c0-.704.144-1.307.432-1.808.288-.512.699-.907 1.232-1.184.534-.277 1.163-.416 1.888-.416.726 0 1.355.139 1.888.416.534.277.944.672 1.232 1.184.288.501.432 1.104.432 1.808v2.272c0 .693-.144 1.296-.432 1.808s-.698.907-1.232 1.184c-.533.277-1.162.416-1.888.416zm0-1.52c.587 0 1.04-.16 1.36-.48.32-.331.48-.8.48-1.408v-2.272c0-.619-.16-1.088-.48-1.408s-.773-.48-1.36-.48c-.576 0-1.029.16-1.36.48-.32.32-.48.789-.48 1.408v2.272c0 .608.16 1.077.48 1.408.331.32.784.48 1.36.48zm6.154 1.376v-8.8h3.872c.96 0 1.712.208 2.256.624s.816.992.816 1.728c0 .608-.219 1.093-.656 1.456s-1.013.544-1.728.544v-.144c.779 0 1.403.192 1.872.576.48.373.72.875.72 1.504 0 .789-.283 1.408-.848 1.856-.565.437-1.344.656-2.336.656zm1.696-1.392h2.24c.469 0 .837-.107 1.104-.32.277-.213.416-.507.416-.88 0-.384-.139-.683-.416-.896-.267-.224-.635-.336-1.104-.336h-2.24zm0-3.712h2.176c.427 0 .763-.101 1.008-.304s.368-.485.368-.848c0-.352-.123-.629-.368-.832-.245-.213-.581-.32-1.008-.32h-2.176zm10.458 5.264c-.918 0-1.643-.235-2.176-.704-.523-.48-.784-1.131-.784-1.952 0-.832.277-1.483.832-1.952.565-.48 1.338-.72 2.32-.72h2.448v-.816c0-.48-.15-.853-.448-1.12-.299-.267-.72-.4-1.264-.4-.48 0-.88.107-1.2.32-.32.203-.507.475-.56.816h-1.696c.096-.789.458-1.419 1.088-1.888.64-.469 1.445-.704 2.416-.704 1.045 0 1.872.267 2.48.8.608.523.912 1.237.912 2.144v6.016h-1.68v-1.616h-.288l.288-.32c0 .64-.246 1.152-.736 1.536-.491.373-1.142.56-1.952.56zm.512-1.328c.618 0 1.125-.155 1.52-.464.405-.32.608-.725.608-1.216v-1.152h-2.416c-.448 0-.806.123-1.072.368-.256.245-.384.581-.384 1.008 0 .448.154.805.464 1.072.309.256.736.384 1.28.384zm6.538 1.168v-8.8h1.728v3.536h3.392v-3.536h1.727v8.8h-1.727v-3.68h-3.392v3.68zm9.593 0v-8.8h1.728v3.536h3.392v-3.536h1.728v8.8h-1.728v-3.68h-3.392v3.68zm9.146 0v-8.8h1.536v3.104h.64c.949 0 1.701.256 2.256.768s.832 1.211.832 2.096c0 .875-.277 1.568-.832 2.08-.555.501-1.307.752-2.256.752zm1.536-1.36h.64c.512 0 .907-.128 1.184-.384.288-.256.432-.619.432-1.088 0-.48-.144-.848-.432-1.104-.277-.267-.672-.4-1.184-.4h-.64zm4.672 1.36v-8.8h1.536v8.8zm3.514 0v-8.8h2.176l1.12 3.344c.117.352.218.693.304 1.024.085.32.144.565.176.736.042-.171.101-.416.176-.736.085-.331.181-.672.288-1.024l1.072-3.344h2.176v8.8h-1.632v-1.424c0-.448.005-.933.016-1.456.021-.533.037-1.072.048-1.616.021-.544.042-1.061.064-1.552.021-.501.042-.944.064-1.328l-1.456 4.784h-1.664l-1.488-4.752c.032.469.058 1.045.08 1.728.032.683.058 1.392.08 2.128.021.725.032 1.413.032 2.064v1.424zm-201.149 21v-8.8h6.848v8.8h-1.728v-7.216h-3.392v7.216zm9.562 2.88v-11.68h1.712v1.68h.368l-.368.4c0-.693.213-1.237.64-1.632.437-.405 1.018-.608 1.744-.608.885 0 1.589.299 2.112.896.533.587.8 1.392.8 2.416v2.48c0 .683-.123 1.275-.368 1.776-.235.491-.571.875-1.008 1.152-.427.267-.939.4-1.536.4-.715 0-1.291-.197-1.728-.592-.438-.405-.656-.955-.656-1.648l.368.4h-.4l.048 2.048v2.512zm3.504-4.224c.565 0 1.002-.16 1.312-.48.32-.331.48-.805.48-1.424v-2.304c0-.619-.16-1.088-.48-1.408-.31-.331-.747-.496-1.312-.496-.544 0-.976.171-1.296.512-.32.331-.48.795-.48 1.392v2.304c0 .597.16 1.067.48 1.408.32.331.752.496 1.296.496zm9.546 1.488c-.726 0-1.355-.139-1.888-.416-.534-.277-.944-.672-1.232-1.184s-.432-1.115-.432-1.808v-2.272c0-.704.144-1.307.432-1.808.288-.512.698-.907 1.232-1.184.533-.277 1.162-.416 1.888-.416.725 0 1.354.139 1.888.416.533.277.944.672 1.232 1.184.288.501.432 1.104.432 1.808v2.272c0 .693-.144 1.296-.432 1.808s-.699.907-1.232 1.184c-.534.277-1.163.416-1.888.416zm0-1.52c.586 0 1.04-.16 1.36-.48.32-.331.48-.8.48-1.408v-2.272c0-.619-.16-1.088-.48-1.408s-.774-.48-1.36-.48c-.576 0-1.03.16-1.36.48-.32.32-.48.789-.48 1.408v2.272c0 .608.16 1.077.48 1.408.33.32.784.48 1.36.48zm6.809 1.376v-8.8h6.432v1.584h-4.72v7.216zm8.922 2.88v-11.68h1.712v1.68h.368l-.368.4c0-.693.213-1.237.64-1.632.437-.405 1.019-.608 1.744-.608.885 0 1.589.299 2.112.896.533.587.8 1.392.8 2.416v2.48c0 .683-.123 1.275-.368 1.776-.235.491-.571.875-1.008 1.152-.427.267-.939.4-1.536.4-.715 0-1.291-.197-1.728-.592-.437-.405-.656-.955-.656-1.648l.368.4h-.4l.048 2.048v2.512zm3.504-4.224c.565 0 1.003-.16 1.312-.48.32-.331.48-.805.48-1.424v-2.304c0-.619-.16-1.088-.48-1.408-.309-.331-.747-.496-1.312-.496-.544 0-.976.171-1.296.512-.32.331-.48.795-.48 1.392v2.304c0 .597.16 1.067.48 1.408.32.331.752.496 1.296.496zm8.666 1.504c-.918 0-1.643-.235-2.176-.704-.523-.48-.784-1.131-.784-1.952 0-.832.277-1.483.832-1.952.565-.48 1.338-.72 2.32-.72h2.448v-.816c0-.48-.15-.853-.448-1.12-.299-.267-.72-.4-1.264-.4-.48 0-.88.107-1.2.32-.32.203-.507.475-.56.816h-1.696c.096-.789.458-1.419 1.088-1.888.64-.469 1.445-.704 2.416-.704 1.045 0 1.872.267 2.48.8.608.523.912 1.237.912 2.144v6.016h-1.68v-1.616h-.288l.288-.32c0 .64-.246 1.152-.736 1.536-.491.373-1.142.56-1.952.56zm.512-1.328c.618 0 1.125-.155 1.52-.464.405-.32.608-.725.608-1.216v-1.152h-2.416c-.448 0-.806.123-1.072.368-.256.245-.384.581-.384 1.008 0 .448.154.805.464 1.072.309.256.736.384 1.28.384zm6.217 1.168v-8.8h2.177l1.12 3.344c.117.352.218.693.304 1.024.085.32.144.565.176.736.042-.171.101-.416.176-.736.085-.331.181-.672.288-1.024l1.072-3.344h2.176v8.8h-1.632v-1.424c0-.448.005-.933.016-1.456.021-.533.037-1.072.048-1.616.021-.544.042-1.061.064-1.552.021-.501.042-.944.064-1.328l-1.456 4.784h-1.664l-1.488-4.752c.032.469.058 1.045.08 1.728.032.683.058 1.392.08 2.128.021.725.032 1.413.032 2.064v1.424zm9.594 0v-8.8h2.176l1.12 3.344c.118.352.219.693.304 1.024.086.32.144.565.176.736.043-.171.102-.416.176-.736.086-.331.182-.672.288-1.024l1.072-3.344h2.176v8.8h-1.632v-1.424c0-.448.006-.933.016-1.456.022-.533.038-1.072.048-1.616.022-.544.043-1.061.064-1.552.022-.501.043-.944.064-1.328l-1.456 4.784h-1.664l-1.488-4.752c.032.469.059 1.045.08 1.728.032.683.059 1.392.08 2.128.022.725.032 1.413.032 2.064v1.424zm9.914 0v-8.8h1.584v4.56c0 .299-.011.629-.032.992-.021.352-.048.699-.08 1.04-.032.331-.064.619-.096.864l3.312-7.456h2.16v8.8h-1.584v-4.56c0-.299.011-.619.032-.96.021-.352.048-.693.08-1.024s.064-.603.096-.816l-3.312 7.36zm13.066.16c-.726 0-1.366-.133-1.92-.4-.544-.277-.966-.672-1.264-1.184-.288-.523-.432-1.131-.432-1.824v-2.304c0-.704.144-1.312.432-1.824.298-.512.72-.901 1.264-1.168.554-.277 1.194-.416 1.92-.416 1.056 0 1.904.277 2.544.832s.976 1.312 1.008 2.272h-1.728c-.032-.501-.208-.891-.528-1.168s-.752-.416-1.296-.416c-.587 0-1.051.165-1.392.496-.342.32-.512.779-.512 1.376v2.32c0 .597.17 1.061.512 1.392.341.331.805.496 1.392.496.544 0 .976-.139 1.296-.416s.496-.667.528-1.168h1.728c-.032.96-.368 1.717-1.008 2.272s-1.488.832-2.544.832zm8.682-.16v-7.248h-3.104v-1.552h7.936v1.552h-3.104v7.248zm10.457.144c-.725 0-1.354-.139-1.888-.416-.533-.277-.944-.672-1.232-1.184s-.432-1.115-.432-1.808v-2.272c0-.704.144-1.307.432-1.808.288-.512.699-.907 1.232-1.184.534-.277 1.163-.416 1.888-.416.726 0 1.355.139 1.888.416.534.277.944.672 1.232 1.184.288.501.432 1.104.432 1.808v2.272c0 .693-.144 1.296-.432 1.808s-.698.907-1.232 1.184c-.533.277-1.162.416-1.888.416zm0-1.52c.587 0 1.04-.16 1.36-.48.32-.331.48-.8.48-1.408v-2.272c0-.619-.16-1.088-.48-1.408s-.773-.48-1.36-.48c-.576 0-1.029.16-1.36.48-.32.32-.48.789-.48 1.408v2.272c0 .608.16 1.077.48 1.408.331.32.784.48 1.36.48zm5.85 1.376v-8.8h2.176l1.12 3.344c.117.352.219.693.304 1.024.085.32.144.565.176.736.043-.171.101-.416.176-.736.085-.331.181-.672.288-1.024l1.072-3.344h2.176v8.8h-1.632v-1.424c0-.448.005-.933.016-1.456.021-.533.037-1.072.048-1.616.021-.544.043-1.061.064-1.552.021-.501.043-.944.064-1.328l-1.456 4.784h-1.664l-1.488-4.752c.032.469.059 1.045.08 1.728.032.683.059 1.392.08 2.128.021.725.032 1.413.032 2.064v1.424z" fill="#59f881"/></g></svg>