<svg fill="none" height="160" viewBox="0 0 375 160" width="375" xmlns="http://www.w3.org/2000/svg"><path d="m0 0h375v160h-375z" fill="#3f3948"/><path d="m20 38h35v5.99998h-35z" fill="#9178bc"/><g fill="#fff"><path d="m20 28.702 6.4969-.0106c.0416.4245.2217.7322.5405.9233.3257.1839.8489.2759 1.5697.2759.6029 0 1.0568-.0672 1.3617-.2017.3119-.1415.4678-.3502.4678-.6261 0-.4811-.8074-.7959-2.422-.9445-.3188-.0353-.5614-.0601-.7277-.0743-.0139 0-.0277 0-.0416 0-2.6057-.2617-4.3659-.6013-5.2806-1.0187-.5337-.2406-.946-.6191-1.237-1.1355-.2842-.5165-.4262-1.1249-.4262-1.8253 0-1.4079.6306-2.4373 1.8918-3.0882 1.2613-.6509 3.271-.9763 6.0292-.9763 2.6056 0 4.5426.3325 5.8108.9975 1.2751.6651 1.9542 1.6945 2.0374 3.0882h-6.1227c-.0346-.4103-.2217-.7075-.5613-.8914-.3326-.184-.8697-.2759-1.6112-.2759-.6307 0-1.095.0707-1.393.2122-.291.1344-.4366.3467-.4366.6367 0 .467.693.757 2.079.8702.2911.0283.5129.0496.6653.0637.1109.0071.2842.0212.5198.0425 2.7928.2546 4.4213.4634 4.8856.6261.9148.3325 1.5593.7428 1.9335 1.231.3742.4811.5613 1.1426.5613 1.9845 0 1.5564-.6722 2.6813-2.0166 3.3747-1.3375.6933-3.5343 1.04-6.5904 1.04-2.7166 0-4.7124-.3432-5.9876-1.0294-1.2681-.6934-1.9334-1.7829-1.9958-3.2686z"/><path d="m55 27.2375c-.194 1.9173-1.0049 3.357-2.4324 4.3192-1.4207.9622-3.4477 1.4433-6.0811 1.4433-2.7235 0-4.8302-.566-6.3202-1.698-1.483-1.132-2.2245-2.7309-2.2245-4.7967 0-2.0588.7415-3.6577 2.2245-4.7967 1.49-1.1391 3.5967-1.7086 6.3202-1.7086 2.5294 0 4.501.4422 5.9147 1.3265 1.4138.8844 2.2454 2.1968 2.4948 3.9372h-5.7068c-.2148-.559-.5371-.9764-.9668-1.2523-.4296-.283-.9667-.4245-1.6112-.4245-.9494 0-1.6944.2583-2.2349.7747-.5405.5094-.8108 1.2169-.8108 2.1225 0 .8772.2633 1.5741.79 2.0906.5267.5164 1.237.7747 2.131.7747.7415 0 1.3652-.1875 1.8711-.5625.5128-.382.8316-.8985.9563-1.5494z"/><path d="m25.2147 58.6c0 .8017.2444 1.4466.7333 1.9346.4889.481 1.1339.7216 1.9351.7216.8148 0 1.4632-.2406 1.9453-.7216.4889-.488.7333-1.1329.7333-1.9346 0-.8087-.2444-1.4536-.7333-1.9347-.4821-.481-1.1305-.7215-1.9453-.7215-.8012 0-1.4462.2405-1.9351.7215-.4889.4811-.7333 1.126-.7333 1.9347zm-5.2147 5.9921v-15.5921h5.2147v4.5804c.6314-.4323 1.3002-.753 2.0064-.9621.7129-.2161 1.4904-.3242 2.3323-.3242 1.9827 0 3.558.5682 4.7258 1.7046 1.1747 1.1364 1.762 2.6701 1.762 4.6013 0 1.9032-.5805 3.43-1.7416 4.5803-1.1611 1.1434-2.716 1.7151-4.6647 1.7151-.9166 0-1.7586-.122-2.5258-.366-.7673-.251-1.4667-.624-2.0981-1.119l-.0408 1.1817z"/><path d="m54.0278 59.3215c-.1901 1.8893-.9846 3.3081-2.3833 4.2562-1.3919.9482-3.378 1.4222-5.9582 1.4222-2.6684 0-4.7326-.5577-6.1924-1.6732-1.453-1.1154-2.1796-2.691-2.1796-4.7267 0-2.0288.7266-3.6044 2.1796-4.7268 1.4598-1.1225 3.524-1.6837 6.1924-1.6837 2.4784 0 4.4101.4358 5.7952 1.3072 1.3852.8715 2.2 2.1647 2.4444 3.8797h-5.5915c-.2105-.5507-.5262-.962-.9472-1.2339-.421-.2789-.9472-.4183-1.5786-.4183-.9303 0-1.6602.2544-2.1898.7634-.5296.5019-.7944 1.1991-.7944 2.0915 0 .8644.258 1.5511.774 2.0601.5161.5089 1.212.7634 2.0879.7634.7266 0 1.3377-.1848 1.8333-.5543.5025-.3764.8148-.8854.937-1.5268z"/><path d="m76.452 37v-16.06h3.3v6.16h3.696v-6.16h3.3v16.06h-3.3v-6.82h-3.696v6.82zm18.3614.22c-1.0707 0-2.0093-.198-2.816-.594-.792-.4107-1.408-.9753-1.848-1.694-.4253-.7333-.638-1.584-.638-2.552v-2.86c0-.968.2127-1.8113.638-2.53.44-.7333 1.056-1.298 1.848-1.694.8067-.4107 1.7453-.616 2.816-.616s1.9947.2053 2.772.616c.792.396 1.4007.9607 1.826 1.694.44.7187.6596 1.562.6596 2.53v2.2h-7.4136v.66c0 .7627.1833 1.342.55 1.738.3667.3813.9167.572 1.65.572.5133 0 .924-.088 1.232-.264.3227-.176.5353-.418.638-.726h3.234c-.264 1.056-.8653 1.9067-1.804 2.552-.924.6453-2.0387.968-3.344.968zm2.112-7.194v-.55c0-.748-.176-1.32-.528-1.716-.3373-.396-.8653-.594-1.584-.594s-1.2613.2053-1.628.616c-.352.4107-.528.99-.528 1.738v.33l4.488-.044zm24.2486 7.194c-1.07 0-2.002-.198-2.794-.594-.792-.4107-1.408-.9753-1.848-1.694-.425-.7333-.638-1.584-.638-2.552v-2.86c0-.968.213-1.8113.638-2.53.44-.7333 1.056-1.298 1.848-1.694.792-.4107 1.724-.616 2.794-.616 1.086 0 2.017.2053 2.794.616.792.396 1.401.9607 1.826 1.694.44.7187.66 1.562.66 2.53v2.86c0 .968-.22 1.8187-.66 2.552-.425.7187-1.034 1.2833-1.826 1.694-.777.396-1.708.594-2.794.594zm0-2.86c.646 0 1.137-.1687 1.474-.506.338-.352.506-.8433.506-1.474v-2.86c0-.6453-.168-1.1367-.506-1.474-.337-.3373-.828-.506-1.474-.506-.63 0-1.122.1687-1.474.506-.337.3373-.506.8287-.506 1.474v2.86c0 .6307.169 1.122.506 1.474.352.3373.844.506 1.474.506zm8.044 2.64v-12.1h3.3v4.422h3.696v-4.422h3.3v12.1h-3.3v-4.598h-3.696v4.598zm12.201.154v-2.97h.66c.381 0 .697-.1613.946-.484s.381-.748.396-1.276l.132-7.524h9.152v12.1h-3.3v-9.02h-2.618l-.088 4.664c-.015.8947-.213 1.6867-.594 2.376-.367.6747-.88 1.2027-1.54 1.584-.645.3667-1.401.55-2.266.55zm17.767.066c-1.217 0-2.185-.33-2.904-.99-.704-.66-1.056-1.5547-1.056-2.684 0-1.2173.418-2.1487 1.254-2.794.851-.66 2.068-.99 3.652-.99h2.508v-.902c0-.4693-.168-.8433-.506-1.122-.322-.2787-.762-.418-1.32-.418-.513 0-.938.1173-1.276.352-.337.2347-.542.5573-.616.968h-3.19c.132-1.2173.66-2.178 1.584-2.882.939-.7187 2.142-1.078 3.608-1.078 1.54 0 2.758.3813 3.652 1.144.91.748 1.364 1.76 1.364 3.036v8.14h-3.19v-1.98h-.528l.55-.77c0 .9093-.33 1.6353-.99 2.178-.645.528-1.51.792-2.596.792zm1.232-2.42c.646 0 1.174-.1687 1.584-.506.426-.352.638-.8067.638-1.364v-1.298h-2.442c-.498 0-.902.1467-1.21.44-.308.2787-.462.6527-.462 1.122 0 .4987.169.8947.506 1.188.338.2787.8.418 1.386.418zm8.374 2.2v-12.1h2.904v5.5c0 .3667-.022.8287-.066 1.386-.044.5427-.103 1.0927-.176 1.65-.059.5573-.125 1.0487-.198 1.474l3.828-10.01h4.004v12.1h-2.904v-5.5c0-.3813.022-.814.066-1.298.044-.4987.095-.9973.154-1.496s.117-.924.176-1.276l-3.784 9.57zm5.236-13.97c-1.203 0-2.185-.3007-2.948-.902-.748-.616-1.122-1.4153-1.122-2.398h2.53c0 .4107.139.748.418 1.012.293.2493.667.374 1.122.374.469 0 .843-.1247 1.122-.374.279-.264.418-.6013.418-1.012h2.53c0 .9827-.374 1.782-1.122 2.398-.748.6013-1.731.902-2.948.902zm7.955 13.97v-12.1h3.3v4.422h3.696v-4.422h3.3v12.1h-3.3v-4.598h-3.696v4.598zm14.82-5.72v-3.08h7.04v3.08zm10.991 5.72v-12.1h2.706v9.9h1.87v-9.9h2.288v9.9h1.87v-9.9h2.706v12.1zm13.829 0v-12.1h3.3v4.576h1.628l2.53-4.576h3.674l-3.366 5.918 3.432 6.182h-3.74l-2.552-4.752h-1.606v4.752zm18.274.22c-1.071 0-2.002-.198-2.794-.594-.792-.4107-1.408-.9753-1.848-1.694-.425-.7333-.638-1.584-.638-2.552v-2.86c0-.968.213-1.8113.638-2.53.44-.7333 1.056-1.298 1.848-1.694.792-.4107 1.723-.616 2.794-.616 1.085 0 2.017.2053 2.794.616.792.396 1.401.9607 1.826 1.694.44.7187.66 1.562.66 2.53v2.86c0 .968-.22 1.8187-.66 2.552-.425.7187-1.034 1.2833-1.826 1.694-.777.396-1.709.594-2.794.594zm0-2.86c.645 0 1.137-.1687 1.474-.506.337-.352.506-.8433.506-1.474v-2.86c0-.6453-.169-1.1367-.506-1.474s-.829-.506-1.474-.506c-.631 0-1.122.1687-1.474.506-.337.3373-.506.8287-.506 1.474v2.86c0 .6307.169 1.122.506 1.474.352.3373.843.506 1.474.506zm7.053 2.794v-2.97h.66c.382 0 .697-.1613.946-.484.25-.3227.382-.748.396-1.276l.132-7.524h9.152v12.1h-3.3v-9.02h-2.618l-.088 4.664c-.014.8947-.212 1.6867-.594 2.376-.366.6747-.88 1.2027-1.54 1.584-.645.3667-1.4.55-2.266.55zm17.768.066c-1.218 0-2.186-.33-2.904-.99-.704-.66-1.056-1.5547-1.056-2.684 0-1.2173.418-2.1487 1.254-2.794.85-.66 2.068-.99 3.652-.99h2.508v-.902c0-.4693-.169-.8433-.506-1.122-.323-.2787-.763-.418-1.32-.418-.514 0-.939.1173-1.276.352-.338.2347-.543.5573-.616.968h-3.19c.132-1.2173.66-2.178 1.584-2.882.938-.7187 2.141-1.078 3.608-1.078 1.54 0 2.757.3813 3.652 1.144.909.748 1.364 1.76 1.364 3.036v8.14h-3.19v-1.98h-.528l.55-.77c0 .9093-.33 1.6353-.99 2.178-.646.528-1.511.792-2.596.792zm1.232-2.42c.645 0 1.173-.1687 1.584-.506.425-.352.638-.8067.638-1.364v-1.298h-2.442c-.499 0-.902.1467-1.21.44-.308.2787-.462.6527-.462 1.122 0 .4987.168.8947.506 1.188.337.2787.799.418 1.386.418zm10.001 5.72 1.76-6.842h3.96l-2.86 6.842zm-195.913 25.7c-1.2173 0-2.1853-.33-2.904-.99-.704-.66-1.056-1.5547-1.056-2.684 0-1.2173.418-2.1487 1.254-2.794.8507-.66 2.068-.99 3.652-.99h2.508v-.902c0-.4693-.1687-.8433-.506-1.122-.3227-.2787-.7627-.418-1.32-.418-.5133 0-.9387.1173-1.276.352s-.5427.5573-.616.968h-3.19c.132-1.2173.66-2.178 1.584-2.882.9387-.7187 2.1413-1.078 3.608-1.078 1.54 0 2.7573.3813 3.652 1.144.9093.748 1.364 1.76 1.364 3.036v8.14h-3.19v-1.98h-.528l.55-.77c0 .9093-.33 1.6353-.99 2.178-.6453.528-1.5107.792-2.596.792zm1.232-2.42c.6453 0 1.1733-.1687 1.584-.506.4253-.352.638-.8067.638-1.364v-1.298h-2.442c-.4987 0-.902.1467-1.21.44-.308.2787-.462.6527-.462 1.122 0 .4987.1687.8947.506 1.188.3373.2787.7993.418 1.386.418zm26.713 2.42c-1.614-.0293-2.897-.4693-3.85-1.32-.954-.8653-1.43-2.0387-1.43-3.52v-5.39c0-1.936.542-3.4247 1.628-4.466 1.085-1.056 2.632-1.584 4.642-1.584h3.63v3.19h-3.63c-.968 0-1.709.242-2.222.726-.499.484-.748 1.1953-.748 2.134v1.54h.308l-.264.308c-.015-.8213.249-1.474.792-1.958.557-.4987 1.349-.748 2.376-.748 1.276 0 2.266.418 2.97 1.254.718.836 1.078 1.9947 1.078 3.476v1.518c0 .9827-.22 1.848-.66 2.596-.426.7333-1.034 1.298-1.826 1.694-.778.3813-1.709.5647-2.794.55zm0-2.86c.645 0 1.136-.1687 1.474-.506.337-.352.506-.8433.506-1.474v-1.518c0-.6453-.169-1.1367-.506-1.474-.338-.3373-.829-.506-1.474-.506-.631 0-1.122.1687-1.474.506-.338.3373-.506.8287-.506 1.474v1.518c0 .6307.168 1.122.506 1.474.352.3373.843.506 1.474.506zm10.045 6.6 1.65-4.554-4.532-11.506h3.586l1.826 5.28c.132.396.264.88.396 1.452.147.5573.257 1.012.33 1.364.074-.352.176-.8067.308-1.364.147-.572.286-1.056.418-1.452l1.76-5.28h3.432l-5.72 16.06zm14.688-3.96v-9.02h-3.96v-3.08h11.22v3.08h-3.96v9.02zm9.759 0v-12.1h3.3v4.576h1.628l2.53-4.576h3.674l-3.366 5.918 3.432 6.182h-3.74l-2.552-4.752h-1.606v4.752zm18.207.22c-1.598 0-2.874-.4033-3.828-1.21-.953-.8067-1.459-1.9067-1.518-3.3h3.3c.044.528.242.9387.594 1.232.367.2787.851.418 1.452.418.66 0 1.166-.1687 1.518-.506.352-.352.528-.8433.528-1.474v-.22h-3.454v-2.508h3.454v-.132c0-.6453-.176-1.1367-.528-1.474s-.858-.506-1.518-.506c-.586 0-1.063.1467-1.43.44-.366.2933-.572.6967-.616 1.21h-3.3c.059-1.3933.565-2.4933 1.518-3.3.954-.8067 2.23-1.21 3.828-1.21 1.086 0 2.024.2053 2.816.616.807.396 1.43.9533 1.87 1.672s.66 1.5693.66 2.552v2.86c0 .968-.22 1.8187-.66 2.552-.44.7187-1.063 1.2833-1.87 1.694-.792.396-1.73.594-2.816.594zm7.582-.22v-12.1h3.718l1.43 4.51c.161.5133.286.9827.374 1.408.103.4107.161.7187.176.924.029-.2053.081-.5133.154-.924.088-.4253.213-.8947.374-1.408l1.408-4.51h3.718v12.1h-3.014v-2.2c0-.484.007-1.0267.022-1.628.029-.616.059-1.2467.088-1.892.044-.66.081-1.2907.11-1.892.044-.616.088-1.1587.132-1.628l-1.606 5.83h-2.794l-1.694-5.83c.059.6013.117 1.32.176 2.156.073.836.132 1.6867.176 2.552.044.8507.066 1.628.066 2.332v2.2zm13.719 0v-12.1h10.296v12.1h-3.3v-9.02h-3.696v9.02z"/><path d="m23.136 99 1.184-3.04-3.44-8.64h1.392l2.128 5.712c.1387.3627.256.7147.352 1.056s.16.5973.192.768c.0427-.1707.1067-.4267.192-.768s.1867-.6933.304-1.056l1.904-5.712h1.376l-4.224 11.68zm13.1298 0v-3.248c-.1707.0427-.4374.0853-.8.128-.3627.032-.768.048-1.216.048-1.056.0107-1.8774-.2507-2.464-.784-.576-.5333-.864-1.2853-.864-2.256v-2.688h1.264v2.688c0 .5973.1813 1.0613.544 1.392.3733.3307.9013.496 1.584.496.4906 0 .9066-.016 1.248-.048.3413-.0427.576-.08.704-.112v-4.416h1.264v8.8zm4.4897 0v-8.8h1.232v5.008c0 .2987-.0107.6187-.032.96-.0107.3307-.0267.6453-.048.944s-.0427.5493-.064.752l3.728-7.664h1.648v8.8h-1.232v-5.008c0-.3093.0053-.6293.016-.96.0213-.3307.0427-.6453.064-.944.032-.3093.0533-.5653.064-.768l-3.744 7.68zm12.8418.16c-.6827 0-1.28-.1333-1.792-.4s-.912-.6453-1.2-1.136c-.2774-.5013-.416-1.0933-.416-1.776v-2.496c0-.6827.1386-1.2693.416-1.76.288-.5013.688-.8853 1.2-1.152s1.1093-.4 1.792-.4c1.0026 0 1.808.272 2.416.816s.9226 1.2853.944 2.224h-1.264c-.0214-.608-.2187-1.0773-.592-1.408-.3627-.3307-.864-.496-1.504-.496-.6507 0-1.168.192-1.552.576-.384.3733-.576.9067-.576 1.6v2.496c0 .6827.192 1.216.576 1.6s.9013.576 1.552.576c.64 0 1.1413-.1653 1.504-.496.3733-.3413.5706-.8107.592-1.408h1.264c-.0214.9387-.336 1.68-.944 2.224s-1.4134.816-2.416.816zm6.4257-.16v-8.8h1.264v3.232h2.64c.9813 0 1.7547.2507 2.32.752.576.4907.864 1.168.864 2.032 0 .8533-.288 1.5307-.864 2.032-.5653.5013-1.3387.752-2.32.752zm1.264-1.152h2.64c.608 0 1.072-.1387 1.392-.416.32-.288.48-.6933.48-1.216s-.16-.9227-.48-1.2c-.32-.288-.784-.432-1.392-.432h-2.64zm17.8915 1.152v-8.8h1.28v3.696h1.664l2.608-3.696h1.456l-2.96 4.192 3.024 4.608h-1.488l-2.64-4h-1.664v4zm12.7778.144c-.6827 0-1.2747-.1333-1.776-.4-.5014-.2667-.8907-.6507-1.168-1.152-.2774-.5013-.416-1.0933-.416-1.776v-2.432c0-.6933.1386-1.2853.416-1.776.2773-.5013.6666-.8853 1.168-1.152.5013-.2667 1.0933-.4 1.776-.4.6826 0 1.2746.1333 1.776.4.5013.2667.8906.6507 1.168 1.152.2773.4907.416 1.0773.416 1.76v2.448c0 .6827-.1387 1.2747-.416 1.776-.2774.5013-.6667.8853-1.168 1.152-.5014.2667-1.0934.4-1.776.4zm0-1.136c.6613 0 1.1733-.1867 1.536-.56.3626-.3733.544-.9173.544-1.632v-2.432c0-.7147-.1867-1.2587-.56-1.632-.3627-.3733-.8694-.56-1.52-.56-.6507 0-1.1627.1867-1.536.56-.3627.3733-.544.9173-.544 1.632v2.432c0 .7147.1813 1.2587.544 1.632.3733.3733.8853.56 1.536.56zm5.3377 3.232v-3.328h.72c.1813-.2027.368-.5653.56-1.088.2027-.5333.3093-1.1787.32-1.936l.096-4.688h5.6v7.712h1.136v3.328h-1.136v-2.24h-6.16v2.24zm2.08-3.328h3.952v-6.576h-3.136l-.064 3.568c-.011.8-.101 1.456-.272 1.968-.1707.512-.3307.8587-.48 1.04zm8.538 1.088v-8.8h1.232v5.008c0 .2987-.011.6187-.032.96-.011.3307-.027.6453-.048.944-.022.2987-.043.5493-.064.752l3.728-7.664h1.648v8.8h-1.232v-5.008c0-.3093.005-.6293.016-.96.021-.3307.042-.6453.064-.944.032-.3093.053-.5653.064-.768l-3.744 7.68zm12.186 0v-7.664h-3.2v-1.136h7.68v1.136h-3.2v7.664zm7.081 0v-8.8h1.264v3.232h2.64c.982 0 1.755.2507 2.32.752.576.4907.864 1.168.864 2.032 0 .8533-.288 1.5307-.864 2.032-.565.5013-1.338.752-2.32.752zm1.264-1.152h2.64c.608 0 1.072-.1387 1.392-.416.32-.288.48-.6933.48-1.216s-.16-.9227-.48-1.2c-.32-.288-.784-.432-1.392-.432h-2.64zm17.844 1.152v-8.8h6.464v8.8h-1.28v-7.648h-3.904v7.648zm12.826.144c-.683 0-1.275-.1333-1.776-.4-.502-.2667-.891-.6507-1.168-1.152-.278-.5013-.416-1.0933-.416-1.776v-2.432c0-.6933.138-1.2853.416-1.776.277-.5013.666-.8853 1.168-1.152.501-.2667 1.093-.4 1.776-.4.682 0 1.274.1333 1.776.4.501.2667.89.6507 1.168 1.152.277.4907.416 1.0773.416 1.76v2.448c0 .6827-.139 1.2747-.416 1.776-.278.5013-.667.8853-1.168 1.152-.502.2667-1.094.4-1.776.4zm0-1.136c.661 0 1.173-.1867 1.536-.56.362-.3733.544-.9173.544-1.632v-2.432c0-.7147-.187-1.2587-.56-1.632-.363-.3733-.87-.56-1.52-.56-.651 0-1.163.1867-1.536.56-.363.3733-.544.9173-.544 1.632v2.432c0 .7147.181 1.2587.544 1.632.373.3733.885.56 1.536.56zm18.771 1.12c-.917 0-1.659-.1973-2.224-.592s-.907-.928-1.024-1.6h1.328c.085.3093.293.5653.624.768.341.192.773.288 1.296.288h.784c.544 0 .971-.1333 1.28-.4.32-.2773.48-.624.48-1.04 0-.448-.149-.8107-.448-1.088s-.725-.416-1.28-.416h-1.968v-1.104h1.936c.501 0 .885-.128 1.152-.384.277-.256.416-.5867.416-.992 0-.2773-.064-.5173-.192-.72s-.315-.3573-.56-.464c-.245-.1173-.528-.176-.848-.176h-.832c-.48 0-.875.1067-1.184.32-.309.2027-.501.464-.576.784h-1.328c.107-.6613.432-1.2.976-1.616.555-.416 1.259-.624 2.112-.624h.832c.597 0 1.115.1013 1.552.304s.773.4853 1.008.848c.245.3627.368.7893.368 1.28 0 .5333-.165.976-.496 1.328-.32.3413-.773.5333-1.36.576v.064c.704.0427 1.221.2507 1.552.624.331.3627.496.864.496 1.504 0 .7573-.283 1.3707-.848 1.84-.555.4587-1.301.688-2.24.688zm9.322.032c-.928 0-1.659-.2347-2.192-.704-.534-.48-.8-1.1253-.8-1.936 0-.8.261-1.4293.784-1.888.522-.4693 1.226-.704 2.112-.704h2.8v-.928c0-.5867-.171-1.04-.512-1.36-.342-.32-.827-.48-1.456-.48-.555 0-1.019.1227-1.392.368-.363.2453-.571.576-.624.992h-1.28c.106-.7573.458-1.36 1.056-1.808.608-.448 1.365-.672 2.272-.672.981 0 1.76.2667 2.336.8.576.5227.864 1.232.864 2.128v6.032h-1.248v-1.712h-.208l.24-.256c0 .6507-.251 1.168-.752 1.552-.502.384-1.168.576-2 .576zm.304-1.024c.704 0 1.28-.176 1.728-.528s.672-.8107.672-1.376v-1.328h-2.784c-.502 0-.902.1387-1.2.416-.299.2773-.448.656-.448 1.136 0 .512.181.9227.544 1.232.362.2987.858.448 1.488.448zm6.746.864v-8.8h6.464v8.8h-1.28v-7.648h-3.904v7.648zm12.137.16c-.928 0-1.658-.2347-2.192-.704-.533-.48-.8-1.1253-.8-1.936 0-.8.262-1.4293.784-1.888.523-.4693 1.227-.704 2.112-.704h2.8v-.928c0-.5867-.17-1.04-.512-1.36-.341-.32-.826-.48-1.456-.48-.554 0-1.018.1227-1.392.368-.362.2453-.57.576-.624.992h-1.28c.107-.7573.459-1.36 1.056-1.808.608-.448 1.366-.672 2.272-.672.982 0 1.76.2667 2.336.8.576.5227.864 1.232.864 2.128v6.032h-1.248v-1.712h-.208l.24-.256c0 .6507-.25 1.168-.752 1.552-.501.384-1.168.576-2 .576zm.304-1.024c.704 0 1.28-.176 1.728-.528s.672-.8107.672-1.376v-1.328h-2.784c-.501 0-.901.1387-1.2.416-.298.2773-.448.656-.448 1.136 0 .512.182.9227.544 1.232.363.2987.859.448 1.488.448zm5.722 3.104v-3.328h.72c.181-.2027.368-.5653.56-1.088.203-.5333.309-1.1787.32-1.936l.096-4.688h5.6v7.712h1.136v3.328h-1.136v-2.24h-6.16v2.24zm2.08-3.328h3.952v-6.576h-3.136l-.064 3.568c-.011.8-.101 1.456-.272 1.968s-.331.8587-.48 1.04zm8.538 1.088v-8.8h1.28v3.744h3.904v-3.744h1.28v8.8h-1.28v-3.904h-3.904v3.904zm9.13 0v-8.8h1.2v3.264h.784c.938 0 1.68.2507 2.224.752.554.4907.832 1.1627.832 2.016s-.272 1.5307-.816 2.032c-.544.4907-1.291.736-2.24.736zm1.2-1.04h.784c.597 0 1.061-.1493 1.392-.448.341-.3093.512-.736.512-1.28s-.171-.9653-.512-1.264c-.331-.3093-.795-.464-1.392-.464h-.784zm4.992 1.04v-8.8h1.2v8.8zm3.577 0v-8.8h1.76l1.28 3.584c.107.3093.208.624.304.944s.166.5707.208.752c.054-.1813.123-.432.208-.752.096-.32.198-.64.304-.96l1.232-3.568h1.744v8.8h-1.232v-2.112c0-.4587.006-.9493.016-1.472.011-.5227.022-1.0453.032-1.568.011-.5227.027-1.0133.048-1.472.022-.4693.038-.88.048-1.232l-1.744 5.216h-1.344l-1.744-5.184c.022.4267.038.9653.048 1.616.011.64.022 1.3173.032 2.032.022.7147.032 1.4027.032 2.064v2.112zm-217.12 21.16c-.6827 0-1.28-.133-1.792-.4s-.912-.645-1.2-1.136c-.2773-.501-.416-1.093-.416-1.776v-2.496c0-.683.1387-1.269.416-1.76.288-.501.688-.885 1.2-1.152s1.1093-.4 1.792-.4c1.0027 0 1.808.272 2.416.816s.9227 1.285.944 2.224h-1.264c-.0213-.608-.2187-1.077-.592-1.408-.3627-.331-.864-.496-1.504-.496-.6507 0-1.168.192-1.552.576-.384.373-.576.907-.576 1.6v2.496c0 .683.192 1.216.576 1.6s.9013.576 1.552.576c.64 0 1.1413-.165 1.504-.496.3733-.341.5707-.811.592-1.408h1.264c-.0213.939-.336 1.68-.944 2.224s-1.4133.816-2.416.816zm8.9378-.16v-7.664h-3.2v-1.136h7.68v1.136h-3.2v7.664zm9.5457.16c-.928 0-1.6587-.235-2.192-.704-.5333-.48-.8-1.125-.8-1.936 0-.8.2613-1.429.784-1.888.5227-.469 1.2267-.704 2.112-.704h2.8v-.928c0-.587-.1707-1.04-.512-1.36s-.8267-.48-1.456-.48c-.5547 0-1.0187.123-1.392.368-.3627.245-.5707.576-.624.992h-1.28c.1067-.757.4587-1.36 1.056-1.808.608-.448 1.3653-.672 2.272-.672.9813 0 1.76.267 2.336.8.576.523.864 1.232.864 2.128v6.032h-1.248v-1.712h-.208l.24-.256c0 .651-.2507 1.168-.752 1.552s-1.168.576-2 .576zm.304-1.024c.704 0 1.28-.176 1.728-.528s.672-.811.672-1.376v-1.328h-2.784c-.5013 0-.9013.139-1.2.416s-.448.656-.448 1.136c0 .512.1813.923.544 1.232.3627.299.8587.448 1.488.448zm6.7458.864v-8.8h1.28v3.744h3.904v-3.744h1.28v8.8h-1.28v-3.904h-3.904v3.904zm8.5697 2.24v-3.328h.72c.1813-.203.368-.565.56-1.088.2027-.533.3093-1.179.32-1.936l.096-4.688h5.6v7.712h1.136v3.328h-1.136v-2.24h-6.16v2.24zm2.08-3.328h3.952v-6.576h-3.136l-.064 3.568c-.0107.8-.1013 1.456-.272 1.968s-.3307.859-.48 1.04zm11.0817 1.248c-.9279 0-1.6586-.235-2.1919-.704-.5334-.48-.8-1.125-.8-1.936 0-.8.2613-1.429.784-1.888.5226-.469 1.2266-.704 2.112-.704h2.8v-.928c0-.587-.1707-1.04-.512-1.36-.3414-.32-.8267-.48-1.456-.48-.5547 0-1.0187.123-1.392.368-.3627.245-.5707.576-.624.992h-1.28c.1066-.757.4586-1.36 1.056-1.808.608-.448 1.3653-.672 2.272-.672.9813 0 1.76.267 2.336.8.576.523.8639 1.232.8639 2.128v6.032h-1.2479v-1.712h-.208l.24-.256c0 .651-.2507 1.168-.752 1.552-.5014.384-1.168.576-2.0001.576zm.3041-1.024c.704 0 1.28-.176 1.728-.528s.672-.811.672-1.376v-1.328h-2.784c-.5014 0-.9014.139-1.2.416-.2987.277-.448.656-.448 1.136 0 .512.1813.923.544 1.232.3626.299.8586.448 1.488.448zm6.7297 3.744v-11.68h1.264v1.552h.336l-.384.528c0-.693.224-1.237.672-1.632.4587-.405 1.0613-.608 1.808-.608.8853 0 1.5893.293 2.112.88.5333.576.8 1.365.8 2.368v2.608c0 .672-.1227 1.253-.368 1.744-.2453.48-.5867.853-1.024 1.12-.4267.267-.9333.4-1.52.4-.736 0-1.3333-.203-1.792-.608s-.688-.949-.688-1.632l.336.528h-.304l.016 1.792v2.64zm3.296-3.824c.64 0 1.136-.192 1.488-.576.3627-.384.544-.928.544-1.632v-2.496c0-.715-.1813-1.259-.544-1.632-.352-.384-.848-.576-1.488-.576-.6187 0-1.1147.197-1.488.592-.3627.384-.544.923-.544 1.616v2.496c0 .693.1813 1.237.544 1.632.3733.384.8693.576 1.488.576zm8.9058.944v-7.664h-3.2v-1.136h7.68v1.136h-3.2v7.664zm9.5457.16c-.928 0-1.6587-.235-2.192-.704-.5333-.48-.8-1.125-.8-1.936 0-.8.2613-1.429.784-1.888.5227-.469 1.2267-.704 2.112-.704h2.8v-.928c0-.587-.171-1.04-.512-1.36s-.827-.48-1.456-.48c-.555 0-1.019.123-1.392.368-.3627.245-.5707.576-.624.992h-1.28c.1067-.757.4587-1.36 1.056-1.808.608-.448 1.365-.672 2.272-.672.981 0 1.76.267 2.336.8.576.523.864 1.232.864 2.128v6.032h-1.248v-1.712h-.208l.24-.256c0 .651-.251 1.168-.752 1.552s-1.168.576-2 .576zm.304-1.024c.704 0 1.28-.176 1.728-.528s.672-.811.672-1.376v-1.328h-2.784c-.501 0-.9013.139-1.2.416s-.448.656-.448 1.136c0 .512.1813.923.544 1.232.363.299.859.448 1.488.448zm6.458.864v-8.8h1.76l1.28 3.584c.106.309.208.624.304.944s.165.571.208.752c.053-.181.122-.432.208-.752.096-.32.197-.64.304-.96l1.232-3.568h1.744v8.8h-1.232v-2.112c0-.459.005-.949.016-1.472.01-.523.021-1.045.032-1.568.01-.523.026-1.013.048-1.472.021-.469.037-.88.048-1.232l-1.744 5.216h-1.344l-1.744-5.184c.021.427.037.965.048 1.616.01.64.021 1.317.032 2.032.021.715.032 1.403.032 2.064v2.112zm17.907-4.72v-1.136h9.6v1.136zm23.348 4.72v-7.664h-3.2v-1.136h7.68v1.136h-3.2v7.664zm6.986 2.88v-11.68h1.264v1.552h.336l-.384.528c0-.693.224-1.237.672-1.632.458-.405 1.061-.608 1.808-.608.885 0 1.589.293 2.112.88.533.576.8 1.365.8 2.368v2.608c0 .672-.123 1.253-.368 1.744-.246.48-.587.853-1.024 1.12-.427.267-.934.4-1.52.4-.736 0-1.334-.203-1.792-.608-.459-.405-.688-.949-.688-1.632l.336.528h-.304l.016 1.792v2.64zm3.296-3.824c.64 0 1.136-.192 1.488-.576.362-.384.544-.928.544-1.632v-2.496c0-.715-.182-1.259-.544-1.632-.352-.384-.848-.576-1.488-.576-.619 0-1.115.197-1.488.592-.363.384-.544.923-.544 1.616v2.496c0 .693.181 1.237.544 1.632.373.384.869.576 1.488.576zm6.313.944v-8.8h1.232v5.008c0 .299-.01.619-.032.96-.01.331-.026.645-.048.944-.021.299-.042.549-.064.752l3.728-7.664h1.648v8.8h-1.232v-5.008c0-.309.006-.629.016-.96.022-.331.043-.645.064-.944.032-.309.054-.565.064-.768l-3.744 7.68zm19.188 0v-8.8h1.28v3.744h3.904v-3.744h1.28v8.8h-1.28v-3.904h-3.904v3.904zm12.137.16c-.927 0-1.658-.235-2.191-.704-.534-.48-.8-1.125-.8-1.936 0-.8.261-1.429.784-1.888.522-.469 1.226-.704 2.112-.704h2.8v-.928c0-.587-.171-1.04-.512-1.36-.342-.32-.827-.48-1.456-.48-.555 0-1.019.123-1.392.368-.363.245-.571.576-.624.992h-1.28c.106-.757.458-1.36 1.056-1.808.608-.448 1.365-.672 2.272-.672.981 0 1.76.267 2.336.8.576.523.863 1.232.863 2.128v6.032h-1.247v-1.712h-.208l.24-.256c0 .651-.251 1.168-.752 1.552-.502.384-1.168.576-2.001.576zm.305-1.024c.704 0 1.28-.176 1.728-.528s.672-.811.672-1.376v-1.328h-2.784c-.502 0-.902.139-1.2.416-.299.277-.448.656-.448 1.136 0 .512.181.923.544 1.232.362.299.858.448 1.488.448zm9.993 1.024c-.682 0-1.28-.133-1.792-.4s-.912-.645-1.2-1.136c-.277-.501-.416-1.093-.416-1.776v-2.496c0-.683.139-1.269.416-1.76.288-.501.688-.885 1.2-1.152s1.11-.4 1.792-.4c1.003 0 1.808.272 2.416.816s.923 1.285.944 2.224h-1.264c-.021-.608-.218-1.077-.592-1.408-.362-.331-.864-.496-1.504-.496-.65 0-1.168.192-1.552.576-.384.373-.576.907-.576 1.6v2.496c0 .683.192 1.216.576 1.6s.902.576 1.552.576c.64 0 1.142-.165 1.504-.496.374-.341.571-.811.592-1.408h1.264c-.021.939-.336 1.68-.944 2.224s-1.413.816-2.416.816zm5.882-.16v-8.8h1.2v3.264h.784c.939 0 1.68.251 2.224.752.555.491.832 1.163.832 2.016s-.272 1.531-.816 2.032c-.544.491-1.291.736-2.24.736zm1.2-1.04h.784c.597 0 1.061-.149 1.392-.448.341-.309.512-.736.512-1.28s-.171-.965-.512-1.264c-.331-.309-.795-.464-1.392-.464h-.784zm4.992 1.04v-8.8h1.2v8.8zm10.298 2.24v-2.24h-6.928v-8.8h1.152v7.728h2v-7.728h1.024v7.728h2v-7.728h1.152v7.728h.752v3.312zm6.394-2.08c-.683 0-1.275-.133-1.776-.4-.502-.277-.891-.667-1.168-1.168-.278-.501-.416-1.083-.416-1.744v-2.496c0-.672.138-1.253.416-1.744.277-.501.666-.885 1.168-1.152.501-.277 1.093-.416 1.776-.416.682 0 1.274.139 1.776.416.501.267.89.651 1.168 1.152.277.491.416 1.072.416 1.744v1.552h-5.472v.944c0 .715.181 1.269.544 1.664.373.384.896.576 1.568.576.565 0 1.024-.112 1.376-.336.362-.224.592-.549.688-.976h1.264c-.118.736-.475 1.317-1.072 1.744-.598.427-1.35.64-2.256.64zm2.112-5.104v-.704c0-.715-.182-1.264-.544-1.648-.363-.395-.886-.592-1.568-.592-.672 0-1.195.197-1.568.592-.363.384-.544.933-.544 1.648v.56h4.352zm4.249 4.944v-8.8h1.28v3.744h3.904v-3.744h1.28v8.8h-1.28v-3.904h-3.904v3.904zm9.594 0v-8.8h1.28v3.744h3.904v-3.744h1.28v8.8h-1.28v-3.904h-3.904v3.904zm9.13 0v-8.8h1.2v3.264h.784c.938 0 1.68.251 2.224.752.554.491.832 1.163.832 2.016s-.272 1.531-.816 2.032c-.544.491-1.291.736-2.24.736zm1.2-1.04h.784c.597 0 1.061-.149 1.392-.448.341-.309.512-.736.512-1.28s-.171-.965-.512-1.264c-.331-.309-.795-.464-1.392-.464h-.784zm4.992 1.04v-8.8h1.2v8.8zm3.21 0 3.12-4.528-2.928-4.272h1.488l1.856 2.848c.064.107.128.229.192.368.074.128.133.229.176.304.042-.075.096-.176.16-.304.074-.139.144-.261.208-.368l1.856-2.848h1.472l-2.928 4.288 3.104 4.512h-1.488l-1.984-3.008c-.075-.107-.15-.235-.224-.384-.064-.149-.123-.267-.176-.352-.043.085-.107.203-.192.352-.086.149-.166.277-.24.384l-2 3.008zm19.555 0v-8.8h1.76l1.28 3.584c.107.309.208.624.304.944s.165.571.208.752c.053-.181.123-.432.208-.752.096-.32.197-.64.304-.96l1.232-3.568h1.744v8.8h-1.232v-2.112c0-.459.005-.949.016-1.472s.021-1.045.032-1.568.027-1.013.048-1.472c.021-.469.037-.88.048-1.232l-1.744 5.216h-1.344l-1.744-5.184c.021.427.037.965.048 1.616.011.64.021 1.317.032 2.032.021.715.032 1.403.032 2.064v2.112zm13.114.16c-.683 0-1.275-.133-1.776-.4-.502-.277-.891-.667-1.168-1.168-.278-.501-.416-1.083-.416-1.744v-2.496c0-.672.138-1.253.416-1.744.277-.501.666-.885 1.168-1.152.501-.277 1.093-.416 1.776-.416.682 0 1.274.139 1.776.416.501.267.89.651 1.168 1.152.277.491.416 1.072.416 1.744v1.552h-5.472v.944c0 .715.181 1.269.544 1.664.373.384.896.576 1.568.576.565 0 1.024-.112 1.376-.336.362-.224.592-.549.688-.976h1.264c-.118.736-.475 1.317-1.072 1.744-.598.427-1.35.64-2.256.64zm2.112-5.104v-.704c0-.715-.182-1.264-.544-1.648-.363-.395-.886-.592-1.568-.592-.672 0-1.195.197-1.568.592-.363.384-.544.933-.544 1.648v.56h4.352zm7.498 5.104c-.683 0-1.28-.133-1.792-.4s-.912-.645-1.2-1.136c-.278-.501-.416-1.093-.416-1.776v-2.496c0-.683.138-1.269.416-1.76.288-.501.688-.885 1.2-1.152s1.109-.4 1.792-.4c1.002 0 1.808.272 2.416.816s.922 1.285.944 2.224h-1.264c-.022-.608-.219-1.077-.592-1.408-.363-.331-.864-.496-1.504-.496-.651 0-1.168.192-1.552.576-.384.373-.576.907-.576 1.6v2.496c0 .683.192 1.216.576 1.6s.901.576 1.552.576c.64 0 1.141-.165 1.504-.496.373-.341.57-.811.592-1.408h1.264c-.022.939-.336 1.68-.944 2.224s-1.414.816-2.416.816zm5.849-.16 2.24-3.408c-.682-.149-1.21-.453-1.584-.912-.373-.459-.56-1.035-.56-1.728 0-.853.283-1.525.848-2.016.576-.491 1.355-.736 2.336-.736h3.68v8.8h-1.28v-3.296h-2.128l-2.08 3.296zm3.28-4.432h2.4v-3.232h-2.4c-.576 0-1.034.144-1.376.432-.341.288-.512.683-.512 1.184s.171.896.512 1.184c.342.288.8.432 1.376.432zm13.066 6.672v-2.24h-6.256v-8.8h1.28v7.664h3.648v-7.664h1.264v7.664h1.216v3.376zm5.882-2.08c-.928 0-1.659-.235-2.192-.704-.534-.48-.8-1.125-.8-1.936 0-.8.261-1.429.784-1.888.522-.469 1.226-.704 2.112-.704h2.8v-.928c0-.587-.171-1.04-.512-1.36-.342-.32-.827-.48-1.456-.48-.555 0-1.019.123-1.392.368-.363.245-.571.576-.624.992h-1.28c.106-.757.458-1.36 1.056-1.808.608-.448 1.365-.672 2.272-.672.981 0 1.76.267 2.336.8.576.523.864 1.232.864 2.128v6.032h-1.248v-1.712h-.208l.24-.256c0 .651-.251 1.168-.752 1.552-.502.384-1.168.576-2 .576zm.304-1.024c.704 0 1.28-.176 1.728-.528s.672-.811.672-1.376v-1.328h-2.784c-.502 0-.902.139-1.2.416-.299.277-.448.656-.448 1.136 0 .512.181.923.544 1.232.362.299.858.448 1.488.448zm-319.442 21.864v-8.8h3.776c.8747 0 1.5627.208 2.064.624.5013.405.752.971.752 1.696 0 .608-.208 1.099-.624 1.472-.4053.363-.9493.544-1.632.544v-.112c.736 0 1.328.192 1.776.576.448.373.672.875.672 1.504 0 .779-.2667 1.392-.8 1.84-.5227.437-1.248.656-2.176.656zm1.248-1.12h2.56c.5227 0 .9387-.123 1.248-.368.3093-.256.464-.597.464-1.024 0-.448-.1547-.795-.464-1.04-.3093-.256-.7253-.384-1.248-.384h-2.56zm0-3.92h2.528c.4693 0 .8427-.117 1.12-.352.288-.235.432-.555.432-.96s-.144-.725-.432-.96c-.2773-.245-.6507-.368-1.12-.368h-2.528zm8.0578 5.04v-8.8h1.76l1.28 3.584c.1066.309.208.624.304.944s.1653.571.208.752c.0533-.181.1226-.432.208-.752.096-.32.1973-.64.304-.96l1.232-3.568h1.744v8.8h-1.232v-2.112c0-.459.0053-.949.016-1.472.0106-.523.0213-1.045.032-1.568.0106-.523.0266-1.013.048-1.472.0213-.469.0373-.88.048-1.232l-1.744 5.216h-1.344l-1.744-5.184c.0213.427.0373.965.048 1.616.0106.64.0213 1.317.032 2.032.0213.715.032 1.403.032 2.064v2.112zm13.1137.16c-.6827 0-1.2747-.133-1.776-.4-.5013-.277-.8907-.667-1.168-1.168s-.416-1.083-.416-1.744v-2.496c0-.672.1387-1.253.416-1.744.2773-.501.6667-.885 1.168-1.152.5013-.277 1.0933-.416 1.776-.416s1.2747.139 1.776.416c.5013.267.8907.651 1.168 1.152.2773.491.416 1.072.416 1.744v1.552h-5.472v.944c0 .715.1813 1.269.544 1.664.3733.384.896.576 1.568.576.5653 0 1.024-.112 1.376-.336.3627-.224.592-.549.688-.976h1.264c-.1173.736-.4747 1.317-1.072 1.744s-1.3493.64-2.256.64zm2.112-5.104v-.704c0-.715-.1813-1.264-.544-1.648-.3627-.395-.8853-.592-1.568-.592-.672 0-1.1947.197-1.568.592-.3627.384-.544.933-.544 1.648v.56h4.352zm7.4978 5.104c-.6827 0-1.28-.133-1.792-.4s-.912-.645-1.2-1.136c-.2774-.501-.416-1.093-.416-1.776v-2.496c0-.683.1386-1.269.416-1.76.288-.501.688-.885 1.2-1.152s1.1093-.4 1.792-.4c1.0026 0 1.808.272 2.416.816s.9226 1.285.944 2.224h-1.264c-.0214-.608-.2187-1.077-.592-1.408-.3627-.331-.864-.496-1.504-.496-.6507 0-1.168.192-1.552.576-.384.373-.576.907-.576 1.6v2.496c0 .683.192 1.216.576 1.6s.9013.576 1.552.576c.64 0 1.1413-.165 1.504-.496.3733-.341.5706-.811.592-1.408h1.264c-.0214.939-.336 1.68-.944 2.224s-1.4134.816-2.416.816zm8.9377-.16v-7.664h-3.2v-1.136h7.68v1.136h-3.2v7.664zm10.2338.144c-.6827 0-1.2747-.133-1.776-.4-.5014-.267-.8907-.651-1.168-1.152-.2774-.501-.416-1.093-.416-1.776v-2.432c0-.693.1386-1.285.416-1.776.2773-.501.6666-.885 1.168-1.152.5013-.267 1.0933-.4 1.776-.4.6826 0 1.2746.133 1.776.4.5013.267.8906.651 1.168 1.152.2773.491.416 1.077.416 1.76v2.448c0 .683-.1387 1.275-.416 1.776-.2774.501-.6667.885-1.168 1.152-.5014.267-1.0934.4-1.776.4zm0-1.136c.6613 0 1.1733-.187 1.536-.56.3626-.373.544-.917.544-1.632v-2.432c0-.715-.1867-1.259-.56-1.632-.3627-.373-.8694-.56-1.52-.56-.6507 0-1.1627.187-1.536.56-.3627.373-.544.917-.544 1.632v2.432c0 .715.1813 1.259.544 1.632.3733.373.8853.56 1.536.56zm15.9555.992v-8.8h6.464v8.8h-1.28v-7.648h-3.904v7.648zm12.8257.144c-.683 0-1.275-.133-1.776-.4-.5013-.267-.8907-.651-1.168-1.152s-.416-1.093-.416-1.776v-2.432c0-.693.1387-1.285.416-1.776.2773-.501.6667-.885 1.168-1.152.501-.267 1.093-.4 1.776-.4s1.275.133 1.776.4.891.651 1.168 1.152c.277.491.416 1.077.416 1.76v2.448c0 .683-.139 1.275-.416 1.776s-.667.885-1.168 1.152-1.093.4-1.776.4zm0-1.136c.661 0 1.173-.187 1.536-.56s.544-.917.544-1.632v-2.432c0-.715-.187-1.259-.56-1.632-.363-.373-.869-.56-1.52-.56s-1.163.187-1.536.56c-.3627.373-.544.917-.544 1.632v2.432c0 .715.1813 1.259.544 1.632.373.373.885.56 1.536.56zm5.242 1.104v-1.2h.32c.458 0 .794-.187 1.008-.56.213-.384.325-1.019.336-1.904l.112-5.248h5.808v8.8h-1.28v-7.648h-3.28l-.096 4.144c-.011.832-.112 1.515-.304 2.048-.182.533-.459.928-.832 1.184-.363.256-.838.384-1.424.384zm12.09 2.768 1.296-3.44-3.264-8.24h1.408l2.08 5.488c.085.213.165.453.239.72.086.256.15.469.193.64.053-.171.117-.389.192-.656.074-.267.149-.507.224-.72l1.952-5.472h1.36l-4.336 11.68zm10.809-2.88v-7.664h-3.2v-1.136h7.68v1.136h-3.2v7.664zm10.234.144c-.683 0-1.275-.133-1.776-.4s-.891-.651-1.168-1.152-.416-1.093-.416-1.776v-2.432c0-.693.139-1.285.416-1.776.277-.501.667-.885 1.168-1.152s1.093-.4 1.776-.4 1.275.133 1.776.4.891.651 1.168 1.152c.277.491.416 1.077.416 1.76v2.448c0 .683-.139 1.275-.416 1.776s-.667.885-1.168 1.152-1.093.4-1.776.4zm0-1.136c.661 0 1.173-.187 1.536-.56s.544-.917.544-1.632v-2.432c0-.715-.187-1.259-.56-1.632-.363-.373-.869-.56-1.52-.56s-1.163.187-1.536.56c-.363.373-.544.917-.544 1.632v2.432c0 .715.181 1.259.544 1.632.373.373.885.56 1.536.56zm6.346 3.872v-11.68h1.264v1.552h.336l-.384.528c0-.693.224-1.237.672-1.632.458-.405 1.061-.608 1.808-.608.885 0 1.589.293 2.112.88.533.576.8 1.365.8 2.368v2.608c0 .672-.123 1.253-.368 1.744-.246.48-.587.853-1.024 1.12-.427.267-.934.4-1.52.4-.736 0-1.334-.203-1.792-.608-.459-.405-.688-.949-.688-1.632l.336.528h-.304l.016 1.792v2.64zm3.296-3.824c.64 0 1.136-.192 1.488-.576.362-.384.544-.928.544-1.632v-2.496c0-.715-.182-1.259-.544-1.632-.352-.384-.848-.576-1.488-.576-.619 0-1.115.197-1.488.592-.363.384-.544.923-.544 1.616v2.496c0 .693.181 1.237.544 1.632.373.384.869.576 1.488.576zm8.857 1.104c-.927 0-1.658-.235-2.191-.704-.534-.48-.8-1.125-.8-1.936 0-.8.261-1.429.784-1.888.522-.469 1.226-.704 2.112-.704h2.8v-.928c0-.587-.171-1.04-.512-1.36-.342-.32-.827-.48-1.456-.48-.555 0-1.019.123-1.392.368-.363.245-.571.576-.624.992h-1.28c.106-.757.458-1.36 1.056-1.808.608-.448 1.365-.672 2.272-.672.981 0 1.76.267 2.336.8.576.523.863 1.232.863 2.128v6.032h-1.247v-1.712h-.208l.24-.256c0 .651-.251 1.168-.752 1.552-.502.384-1.168.576-2.001.576zm.305-1.024c.704 0 1.28-.176 1.728-.528s.672-.811.672-1.376v-1.328h-2.784c-.502 0-.902.139-1.2.416-.299.277-.448.656-.448 1.136 0 .512.181.923.544 1.232.362.299.858.448 1.488.448zm16.323 3.744v-11.68h1.264v1.552h.336l-.384.528c0-.693.224-1.237.672-1.632.459-.405 1.061-.608 1.808-.608.885 0 1.589.293 2.112.88.533.576.8 1.365.8 2.368v2.608c0 .672-.123 1.253-.368 1.744-.245.48-.587.853-1.024 1.12-.427.267-.933.4-1.52.4-.736 0-1.333-.203-1.792-.608s-.688-.949-.688-1.632l.336.528h-.304l.016 1.792v2.64zm3.296-3.824c.64 0 1.136-.192 1.488-.576.363-.384.544-.928.544-1.632v-2.496c0-.715-.181-1.259-.544-1.632-.352-.384-.848-.576-1.488-.576-.619 0-1.115.197-1.488.592-.363.384-.544.923-.544 1.616v2.496c0 .693.181 1.237.544 1.632.373.384.869.576 1.488.576zm8.858 1.104c-.928 0-1.659-.235-2.192-.704-.534-.48-.8-1.125-.8-1.936 0-.8.261-1.429.784-1.888.522-.469 1.226-.704 2.112-.704h2.8v-.928c0-.587-.171-1.04-.512-1.36-.342-.32-.827-.48-1.456-.48-.555 0-1.019.123-1.392.368-.363.245-.571.576-.624.992h-1.28c.106-.757.458-1.36 1.056-1.808.608-.448 1.365-.672 2.272-.672.981 0 1.76.267 2.336.8.576.523.864 1.232.864 2.128v6.032h-1.248v-1.712h-.208l.24-.256c0 .651-.251 1.168-.752 1.552-.502.384-1.168.576-2 .576zm.304-1.024c.704 0 1.28-.176 1.728-.528s.672-.811.672-1.376v-1.328h-2.784c-.502 0-.902.139-1.2.416-.299.277-.448.656-.448 1.136 0 .512.181.923.544 1.232.362.299.858.448 1.488.448zm9.994 1.024c-.683 0-1.28-.133-1.792-.4s-.912-.645-1.2-1.136c-.278-.501-.416-1.093-.416-1.776v-2.496c0-.683.138-1.269.416-1.76.288-.501.688-.885 1.2-1.152s1.109-.4 1.792-.4c1.002 0 1.808.272 2.416.816s.922 1.285.944 2.224h-1.264c-.022-.608-.219-1.077-.592-1.408-.363-.331-.864-.496-1.504-.496-.651 0-1.168.192-1.552.576-.384.373-.576.907-.576 1.6v2.496c0 .683.192 1.216.576 1.6s.901.576 1.552.576c.64 0 1.141-.165 1.504-.496.373-.341.57-.811.592-1.408h1.264c-.022.939-.336 1.68-.944 2.224s-1.414.816-2.416.816zm8.937-.16v-7.664h-3.2v-1.136h7.68v1.136h-3.2v7.664zm6.506 0 2.24-3.408c-.683-.149-1.211-.453-1.584-.912s-.56-1.035-.56-1.728c0-.853.283-1.525.848-2.016.576-.491 1.355-.736 2.336-.736h3.68v8.8h-1.28v-3.296h-2.128l-2.08 3.296zm3.28-4.432h2.4v-3.232h-2.4c-.576 0-1.035.144-1.376.432s-.512.683-.512 1.184.171.896.512 1.184.8.432 1.376.432zm6.81 4.432v-8.8h1.28v3.744h3.904v-3.744h1.28v8.8h-1.28v-3.904h-3.904v3.904zm10.97 2.88 1.296-3.44-3.264-8.24h1.408l2.08 5.488c.085.213.165.453.239.72.086.256.15.469.193.64.053-.171.117-.389.192-.656.074-.267.149-.507.224-.72l1.952-5.472h1.36l-4.336 11.68zm10.809-2.88v-7.664h-3.2v-1.136h7.68v1.136h-3.2v7.664zm6.538 0v-8.8h1.2v3.264h.784c.939 0 1.68.251 2.224.752.555.491.832 1.163.832 2.016s-.272 1.531-.816 2.032c-.544.491-1.291.736-2.24.736zm1.2-1.04h.784c.597 0 1.061-.149 1.392-.448.341-.309.512-.736.512-1.28s-.171-.965-.512-1.264c-.331-.309-.795-.464-1.392-.464h-.784zm4.992 1.04v-8.8h1.2v8.8zm3.21 0 3.12-4.528-2.928-4.272h1.488l1.856 2.848c.064.107.128.229.192.368.074.128.133.229.176.304.042-.075.096-.176.16-.304.074-.139.144-.261.208-.368l1.856-2.848h1.472l-2.928 4.288 3.104 4.512h-1.488l-1.984-3.008c-.075-.107-.15-.235-.224-.384-.064-.149-.123-.267-.176-.352-.043.085-.107.203-.192.352-.086.149-.166.277-.24.384l-2 3.008zm18.723.112v-1.2h.32c.459 0 .795-.187 1.008-.56.214-.384.326-1.019.336-1.904l.112-5.248h5.808v8.8h-1.28v-7.648h-3.28l-.096 4.144c-.01.832-.112 1.515-.304 2.048-.181.533-.458.928-.832 1.184-.362.256-.837.384-1.424.384zm13.946.048c-.683 0-1.275-.133-1.776-.4-.501-.277-.891-.667-1.168-1.168s-.416-1.083-.416-1.744v-2.496c0-.672.139-1.253.416-1.744.277-.501.667-.885 1.168-1.152.501-.277 1.093-.416 1.776-.416s1.275.139 1.776.416c.501.267.891.651 1.168 1.152.277.491.416 1.072.416 1.744v1.552h-5.472v.944c0 .715.181 1.269.544 1.664.373.384.896.576 1.568.576.565 0 1.024-.112 1.376-.336.363-.224.592-.549.688-.976h1.264c-.117.736-.475 1.317-1.072 1.744s-1.349.64-2.256.64zm2.112-5.104v-.704c0-.715-.181-1.264-.544-1.648-.363-.395-.885-.592-1.568-.592-.672 0-1.195.197-1.568.592-.363.384-.544.933-.544 1.648v.56h4.352zm6.842 4.944v-7.664h-3.2v-1.136h7.68v1.136h-3.2v7.664zm10.234.16c-.395 0-.71-.112-.944-.336-.224-.235-.336-.544-.336-.928 0-.405.112-.725.336-.96.234-.235.549-.352.944-.352.394 0 .704.117.928.352.234.235.352.555.352.96 0 .384-.118.693-.352.928-.224.224-.534.336-.928.336z"/></g></svg>