<svg fill="none" height="160" viewBox="0 0 550 160" width="550" xmlns="http://www.w3.org/2000/svg"><path d="m0 0h550v160h-550z" fill="#3e2b2e"/><path d="m40 68.0001h93v16h-93z" fill="#e97a8c"/><g fill="#fff"><path d="m40 43.2054 17.2631-.0283c.1105 1.132.5893 1.9526 1.4363 2.462.8655.4905 2.2557.7358 4.1708.7358 1.602 0 2.8081-.1792 3.6184-.5377.8286-.3773 1.2429-.9339 1.2429-1.6696 0-1.2829-2.1452-2.1225-6.4357-2.5187-.847-.0943-1.4915-.1603-1.9335-.1981-.0368 0-.0736 0-.1104 0-6.9237-.698-11.6009-1.6036-14.0315-2.7167-1.4179-.6414-2.5135-1.6508-3.2869-3.028-.755-1.3772-1.1325-2.9997-1.1325-4.8675 0-3.7544 1.6757-6.4994 5.027-8.2351 3.3514-1.7357 8.6915-2.6035 16.0202-2.6035 6.9237 0 12.0704.8867 15.4402 2.6601 3.3882 1.7734 5.1927 4.5185 5.4137 8.2351h-16.2688c-.0921-1.0942-.5892-1.8866-1.4915-2.3771-.8839-.4905-2.311-.7358-4.2813-.7358-1.6756 0-2.9094.1887-3.7012.566-.7734.3584-1.1601.9244-1.1601 1.6979 0 1.2452 1.8414 2.0187 5.5242 2.3206.7734.0754 1.3627.132 1.7678.1698.2946.0188.755.0566 1.381.1132 7.4209.6791 11.7482 1.2357 12.9819 1.6696 2.4307.8867 4.1432 1.981 5.1375 3.2827.9944 1.2829 1.4916 3.0469 1.4916 5.292 0 4.1505-1.7862 7.1503-5.3585 8.9992-3.5539 1.8488-9.3912 2.7733-17.5118 2.7733-7.2182 0-12.5215-.915-15.9097-2.745-3.3697-1.8489-5.1375-4.7543-5.3032-8.7162z"/><path d="m133 39.3001c-.516 5.1127-2.67 8.952-6.463 11.5178-3.775 2.5658-9.161 3.8487-16.159 3.8487-7.236 0-12.8342-1.5093-16.7932-4.5279-3.9406-3.0186-5.9109-7.2823-5.9109-12.7913 0-5.49 1.9703-9.7538 5.9109-12.7912 3.959-3.0375 9.5572-4.5562 16.7932-4.5562 6.721 0 11.96 1.1791 15.717 3.5374 3.756 2.3583 5.966 5.858 6.629 10.499h-15.164c-.571-1.4904-1.427-2.6035-2.569-3.3393-1.142-.7546-2.569-1.132-4.281-1.132-2.523 0-4.502.6887-5.939 2.0659-1.436 1.3584-2.154 3.245-2.154 5.6598 0 2.3394.7 4.1978 2.099 5.575 1.4 1.3772 3.287 2.0658 5.662 2.0658 1.971 0 3.628-.4999 4.972-1.4998 1.363-1.0188 2.21-2.396 2.541-4.1317z"/><path d="m53.8561 122.933c0 2.138.6495 3.858 1.9485 5.159 1.2991 1.283 3.013 1.925 5.142 1.925 2.165 0 3.888-.642 5.169-1.925 1.299-1.301 1.9485-3.021 1.9485-5.159 0-2.156-.6495-3.876-1.9485-5.159-1.281-1.282-3.004-1.924-5.169-1.924-2.129 0-3.8429.642-5.142 1.924-1.299 1.283-1.9485 3.003-1.9485 5.159zm-13.8561 15.979v-41.5785h13.8561v12.2145c1.6779-1.153 3.455-2.008 5.3314-2.566 1.8944-.576 3.9602-.864 6.1974-.864 5.2682 0 9.4539 1.515 12.5571 4.545 3.1212 3.031 4.6818 7.121 4.6818 12.27 0 5.076-1.5425 9.147-4.6277 12.215-3.0851 3.049-7.2167 4.573-12.3947 4.573-2.4357 0-4.6729-.325-6.7116-.976-2.0387-.669-3.897-1.664-5.5749-2.984l-.1083 3.151z"/><path d="m130.417 124.858c-.506 5.038-2.616 8.821-6.333 11.349-3.699 2.529-8.976 3.793-15.832 3.793-7.09 0-12.5749-1.487-16.4539-4.462-3.8609-2.974-5.7914-7.176-5.7914-12.605 0-5.41 1.9305-9.611 5.7914-12.604 3.879-2.993 9.3639-4.49 16.4539-4.49 6.586 0 11.718 1.162 15.399 3.486s5.846 5.772 6.495 10.346h-14.857c-.56-1.469-1.399-2.566-2.517-3.291-1.119-.744-2.517-1.115-4.195-1.115-2.472 0-4.411.678-5.818 2.035-1.408 1.339-2.111 3.198-2.111 5.578 0 2.305.685 4.136 2.056 5.493 1.372 1.357 3.221 2.036 5.548 2.036 1.931 0 3.555-.493 4.872-1.478 1.335-1.004 2.165-2.361 2.489-4.071z"/><path d="m169.452 37v-16.06h3.3v6.16h3.696v-6.16h3.3v16.06h-3.3v-6.82h-3.696v6.82zm18.361.22c-1.07 0-2.009-.198-2.816-.594-.792-.4107-1.408-.9753-1.848-1.694-.425-.7333-.638-1.584-.638-2.552v-2.86c0-.968.213-1.8113.638-2.53.44-.7333 1.056-1.298 1.848-1.694.807-.4107 1.746-.616 2.816-.616 1.071 0 1.995.2053 2.772.616.792.396 1.401.9607 1.826 1.694.44.7187.66 1.562.66 2.53v2.2h-7.414v.66c0 .7627.184 1.342.55 1.738.367.3813.917.572 1.65.572.514 0 .924-.088 1.232-.264.323-.176.536-.418.638-.726h3.234c-.264 1.056-.865 1.9067-1.804 2.552-.924.6453-2.038.968-3.344.968zm2.112-7.194v-.55c0-.748-.176-1.32-.528-1.716-.337-.396-.865-.594-1.584-.594-.718 0-1.261.2053-1.628.616-.352.4107-.528.99-.528 1.738v.33l4.488-.044zm23.633 7.128c-1.349 0-2.471-.33-3.366-.99-.894-.66-1.437-1.5547-1.628-2.684h3.19c.103.3373.316.6087.638.814.323.1907.712.286 1.166.286h1.254c.484 0 .866-.11 1.144-.33.279-.2347.418-.55.418-.946 0-.3813-.139-.682-.418-.902-.278-.22-.66-.33-1.144-.33h-2.838v-2.508h2.706c.455 0 .807-.0953 1.056-.286.25-.2053.374-.484.374-.836 0-.2493-.058-.4547-.176-.616-.102-.1613-.264-.286-.484-.374-.205-.088-.462-.132-.77-.132h-1.012c-.454 0-.836.1027-1.144.308-.308.1907-.513.4547-.616.792h-3.19c.191-1.1293.726-2.024 1.606-2.684s1.995-.99 3.344-.99h1.012c.968 0 1.804.1393 2.508.418.704.264 1.247.6453 1.628 1.144.382.484.572 1.0633.572 1.738 0 .8067-.308 1.4593-.924 1.958-.601.4987-1.4.748-2.398.748v-.22c1.086 0 1.958.2787 2.618.836.66.5427.99 1.2687.99 2.178 0 1.1-.44 1.98-1.32 2.64-.88.6453-2.06.968-3.542.968zm8.66-.154v-12.1h3.3v4.422h3.696v-4.422h3.3v12.1h-3.3v-4.598h-3.696v4.598zm16.777.22c-1.217 0-2.185-.33-2.904-.99-.704-.66-1.056-1.5547-1.056-2.684 0-1.2173.418-2.1487 1.254-2.794.851-.66 2.068-.99 3.652-.99h2.508v-.902c0-.4693-.169-.8433-.506-1.122-.323-.2787-.763-.418-1.32-.418-.513 0-.939.1173-1.276.352s-.543.5573-.616.968h-3.19c.132-1.2173.66-2.178 1.584-2.882.939-.7187 2.141-1.078 3.608-1.078 1.54 0 2.757.3813 3.652 1.144.909.748 1.364 1.76 1.364 3.036v8.14h-3.19v-1.98h-.528l.55-.77c0 .9093-.33 1.6353-.99 2.178-.645.528-1.511.792-2.596.792zm1.232-2.42c.645 0 1.173-.1687 1.584-.506.425-.352.638-.8067.638-1.364v-1.298h-2.442c-.499 0-.902.1467-1.21.44-.308.2787-.462.6527-.462 1.122 0 .4987.169.8947.506 1.188.337.2787.799.418 1.386.418zm13.543 2.42c-1.07 0-2.009-.198-2.816-.594-.792-.4107-1.408-.9753-1.848-1.694-.425-.7333-.638-1.584-.638-2.552v-2.86c0-.968.213-1.8113.638-2.53.44-.7333 1.056-1.298 1.848-1.694.807-.4107 1.746-.616 2.816-.616 1.071 0 1.995.2053 2.772.616.792.396 1.401.9607 1.826 1.694.44.7187.66 1.562.66 2.53v2.2h-7.414v.66c0 .7627.184 1.342.55 1.738.367.3813.917.572 1.65.572.514 0 .924-.088 1.232-.264.323-.176.536-.418.638-.726h3.234c-.264 1.056-.865 1.9067-1.804 2.552-.924.6453-2.038.968-3.344.968zm2.112-7.194v-.55c0-.748-.176-1.32-.528-1.716-.337-.396-.865-.594-1.584-.594-.718 0-1.261.2053-1.628.616-.352.4107-.528.99-.528 1.738v.33l4.488-.044zm5.338 6.974v-12.1h2.706v9.9h1.87v-9.9h2.288v9.9h1.87v-9.9h2.706v12.1zm13.851 0v-12.1h3.3v3.63h2.838c1.526 0 2.714.3813 3.564 1.144.866.748 1.298 1.7893 1.298 3.124 0 1.2907-.44 2.3173-1.32 3.08-.865.748-2.038 1.122-3.52 1.122zm3.3-2.86h2.64c.558 0 .983-.1173 1.276-.352.308-.2493.462-.5867.462-1.012 0-.44-.154-.7773-.462-1.012-.293-.2493-.718-.374-1.276-.374h-2.64zm11.432 6.38 1.76-6.842h3.96l-2.86 6.842zm29.968-3.3c-1.07 0-2.009-.198-2.816-.594-.806-.4107-1.43-.9753-1.87-1.694-.44-.7333-.66-1.584-.66-2.552v-2.86c0-.9827.22-1.8333.66-2.552s1.064-1.276 1.87-1.672c.807-.4107 1.746-.616 2.816-.616 1.599 0 2.875.4033 3.828 1.21.954.8067 1.46 1.9067 1.518 3.3h-3.3c-.044-.5133-.249-.9167-.616-1.21-.352-.2933-.828-.44-1.43-.44-.66 0-1.166.1687-1.518.506s-.528.8287-.528 1.474v2.86c0 .6307.176 1.122.528 1.474.352.3373.858.506 1.518.506.602 0 1.078-.1393 1.43-.418.367-.2933.572-.704.616-1.232h3.3c-.058 1.3933-.564 2.4933-1.518 3.3-.953.8067-2.229 1.21-3.828 1.21zm28.077-.22v-3.85c-.176.044-.454.0953-.836.154-.366.044-.784.066-1.254.066-1.598 0-2.86-.396-3.784-1.188-.924-.8067-1.386-1.914-1.386-3.322v-3.96h3.3v3.74c0 .5427.198.9753.594 1.298.396.308.932.462 1.606.462.411 0 .77-.022 1.078-.066.323-.0587.55-.11.682-.154v-5.28h3.3v12.1zm11.454.22c-1.071 0-2.01-.198-2.816-.594-.792-.4107-1.408-.9753-1.848-1.694-.426-.7333-.638-1.584-.638-2.552v-2.86c0-.968.212-1.8113.638-2.53.44-.7333 1.056-1.298 1.848-1.694.806-.4107 1.745-.616 2.816-.616 1.07 0 1.994.2053 2.772.616.792.396 1.4.9607 1.826 1.694.44.7187.66 1.562.66 2.53v2.2h-7.414v.66c0 .7627.183 1.342.55 1.738.366.3813.916.572 1.65.572.513 0 .924-.088 1.232-.264.322-.176.535-.418.638-.726h3.234c-.264 1.056-.866 1.9067-1.804 2.552-.924.6453-2.039.968-3.344.968zm2.112-7.194v-.55c0-.748-.176-1.32-.528-1.716-.338-.396-.866-.594-1.584-.594-.719 0-1.262.2053-1.628.616-.352.4107-.528.99-.528 1.738v.33l4.488-.044zm6.987 6.974v-12.1h9.24v3.08h-5.94v9.02zm17.262.22c-1.071 0-2.002-.198-2.794-.594-.792-.4107-1.408-.9753-1.848-1.694-.426-.7333-.638-1.584-.638-2.552v-2.86c0-.968.212-1.8113.638-2.53.44-.7333 1.056-1.298 1.848-1.694.792-.4107 1.723-.616 2.794-.616 1.085 0 2.016.2053 2.794.616.792.396 1.4.9607 1.826 1.694.44.7187.66 1.562.66 2.53v2.86c0 .968-.22 1.8187-.66 2.552-.426.7187-1.034 1.2833-1.826 1.694-.778.396-1.709.594-2.794.594zm0-2.86c.645 0 1.136-.1687 1.474-.506.337-.352.506-.8433.506-1.474v-2.86c0-.6453-.169-1.1367-.506-1.474-.338-.3373-.829-.506-1.474-.506-.631 0-1.122.1687-1.474.506-.338.3373-.506.8287-.506 1.474v2.86c0 .6307.168 1.122.506 1.474.352.3373.843.506 1.474.506zm-216.211 31.64v-12.1h3.3v4.422h3.696v-4.422h3.3v12.1h-3.3v-4.598h-3.696v4.598zm16.777.22c-1.217 0-2.185-.33-2.904-.99-.704-.66-1.056-1.5547-1.056-2.684 0-1.2173.418-2.1487 1.254-2.794.851-.66 2.068-.99 3.652-.99h2.508v-.902c0-.4693-.168-.8433-.506-1.122-.322-.2787-.762-.418-1.32-.418-.513 0-.938.1173-1.276.352-.337.2347-.542.5573-.616.968h-3.19c.132-1.2173.66-2.178 1.584-2.882.939-.7187 2.142-1.078 3.608-1.078 1.54 0 2.758.3813 3.652 1.144.91.748 1.364 1.76 1.364 3.036v8.14h-3.19v-1.98h-.528l.55-.77c0 .9093-.33 1.6353-.99 2.178-.645.528-1.51.792-2.596.792zm1.232-2.42c.646 0 1.174-.1687 1.584-.506.426-.352.638-.8067.638-1.364v-1.298h-2.442c-.498 0-.902.1467-1.21.44-.308.2787-.462.6527-.462 1.122 0 .4987.169.8947.506 1.188.338.2787.8.418 1.386.418zm15.282 2.2v-3.85c-.176.044-.455.0953-.836.154-.367.044-.785.066-1.254.066-1.599 0-2.86-.396-3.784-1.188-.924-.8067-1.386-1.914-1.386-3.322v-3.96h3.3v3.74c0 .5427.198.9753.594 1.298.396.308.931.462 1.606.462.41 0 .77-.022 1.078-.066.322-.0587.55-.11.682-.154v-5.28h3.3v12.1zm9.869.22c-1.217 0-2.185-.33-2.904-.99-.704-.66-1.056-1.5547-1.056-2.684 0-1.2173.418-2.1487 1.254-2.794.851-.66 2.068-.99 3.652-.99h2.508v-.902c0-.4693-.168-.8433-.506-1.122-.322-.2787-.762-.418-1.32-.418-.513 0-.938.1173-1.276.352-.337.2347-.542.5573-.616.968h-3.19c.132-1.2173.66-2.178 1.584-2.882.939-.7187 2.142-1.078 3.608-1.078 1.54 0 2.758.3813 3.652 1.144.91.748 1.364 1.76 1.364 3.036v8.14h-3.19v-1.98h-.528l.55-.77c0 .9093-.33 1.6353-.99 2.178-.645.528-1.51.792-2.596.792zm1.232-2.42c.646 0 1.174-.1687 1.584-.506.426-.352.638-.8067.638-1.364v-1.298h-2.442c-.498 0-.902.1467-1.21.44-.308.2787-.462.6527-.462 1.122 0 .4987.169.8947.506 1.188.338.2787.8.418 1.386.418zm11.872 2.2v-9.02h-3.96v-3.08h11.22v3.08h-3.96v9.02zm9.781 0v-12.1h3.3v3.63h2.838c1.525 0 2.713.3813 3.564 1.144.865.748 1.298 1.7893 1.298 3.124 0 1.2907-.44 2.3173-1.32 3.08-.865.748-2.039 1.122-3.52 1.122zm3.3-2.86h2.64c.557 0 .983-.1173 1.276-.352.308-.2493.462-.5867.462-1.012 0-.44-.154-.7773-.462-1.012-.293-.2493-.719-.374-1.276-.374h-2.64zm22.973 2.86v-12.1h5.478c1.481 0 2.655.3007 3.52.902.88.5867 1.32 1.386 1.32 2.398 0 .8067-.33 1.4593-.99 1.958-.66.484-1.533.726-2.618.726v-.22c1.188 0 2.134.264 2.838.792.719.528 1.078 1.2247 1.078 2.09 0 1.0707-.44 1.914-1.32 2.53-.865.616-2.046.924-3.542.924zm3.234-2.332h2.376c.543 0 .975-.1247 1.298-.374.337-.264.506-.6013.506-1.012 0-.44-.169-.792-.506-1.056-.323-.264-.755-.396-1.298-.396h-2.376zm0-4.774h2.266c.499 0 .895-.1173 1.188-.352.293-.2493.44-.572.44-.968 0-.4107-.147-.7407-.44-.99s-.689-.374-1.188-.374h-2.266zm15.127 7.326c-1.07 0-2.002-.198-2.794-.594-.792-.4107-1.408-.9753-1.848-1.694-.425-.7333-.638-1.584-.638-2.552v-2.86c0-.968.213-1.8113.638-2.53.44-.7333 1.056-1.298 1.848-1.694.792-.4107 1.724-.616 2.794-.616 1.086 0 2.017.2053 2.794.616.792.396 1.401.9607 1.826 1.694.44.7187.66 1.562.66 2.53v2.86c0 .968-.22 1.8187-.66 2.552-.425.7187-1.034 1.2833-1.826 1.694-.777.396-1.708.594-2.794.594zm0-2.86c.646 0 1.137-.1687 1.474-.506.338-.352.506-.8433.506-1.474v-2.86c0-.6453-.168-1.1367-.506-1.474-.337-.3373-.828-.506-1.474-.506-.63 0-1.122.1687-1.474.506-.337.3373-.506.8287-.506 1.474v2.86c0 .6307.169 1.122.506 1.474.352.3373.844.506 1.474.506zm25.041 6.6v-3.96c-1.393 0-2.493-.4033-3.3-1.21-.792-.8213-1.188-1.936-1.188-3.344v-3.014c0-1.3933.403-2.4933 1.21-3.3.807-.8213 1.899-1.232 3.278-1.232v-3.96h2.684v3.96c1.393 0 2.486.4107 3.278 1.232.807.8067 1.21 1.9067 1.21 3.3v3.014c0 1.408-.403 2.5227-1.21 3.344-.792.8067-1.885 1.21-3.278 1.21v3.96zm.154-6.556v-6.93c-.572 0-1.027.176-1.364.528-.323.3373-.484.814-.484 1.43v3.014c0 .616.161 1.1.484 1.452.337.3373.792.506 1.364.506zm2.376 0c.572 0 1.019-.1687 1.342-.506.337-.352.506-.836.506-1.452v-3.014c0-.616-.169-1.0927-.506-1.43-.323-.352-.77-.528-1.342-.528zm6.855 6.556v-16.06h3.19v2.31h.77l-.77.77c0-1.0413.286-1.848.858-2.42.572-.5867 1.357-.88 2.354-.88 1.218 0 2.193.4327 2.926 1.298.734.8507 1.1 1.9947 1.1 3.432v3.08c0 .9533-.168 1.7893-.506 2.508-.322.704-.784 1.254-1.386 1.65-.601.3813-1.312.572-2.134.572-.997 0-1.782-.286-2.354-.858-.572-.5867-.858-1.4007-.858-2.442l.77.77h-.77l.11 2.97v3.3zm5.214-6.6c.616 0 1.086-.1687 1.408-.506.338-.352.506-.8433.506-1.474v-2.86c0-.6453-.168-1.1367-.506-1.474-.322-.3373-.792-.506-1.408-.506-.601 0-1.07.176-1.408.528-.337.3373-.506.8213-.506 1.452v2.86c0 .6307.169 1.122.506 1.474.338.3373.807.506 1.408.506zm13.126 2.86c-1.071 0-2.002-.198-2.794-.594-.792-.4107-1.408-.9753-1.848-1.694-.425-.7333-.638-1.584-.638-2.552v-2.86c0-.968.213-1.8113.638-2.53.44-.7333 1.056-1.298 1.848-1.694.792-.4107 1.723-.616 2.794-.616 1.085 0 2.017.2053 2.794.616.792.396 1.401.9607 1.826 1.694.44.7187.66 1.562.66 2.53v2.86c0 .968-.22 1.8187-.66 2.552-.425.7187-1.034 1.2833-1.826 1.694-.777.396-1.709.594-2.794.594zm0-2.86c.645 0 1.137-.1687 1.474-.506.337-.352.506-.8433.506-1.474v-2.86c0-.6453-.169-1.1367-.506-1.474s-.829-.506-1.474-.506c-.631 0-1.122.1687-1.474.506-.337.3373-.506.8287-.506 1.474v2.86c0 .6307.169 1.122.506 1.474.352.3373.843.506 1.474.506zm8.043 2.64v-12.1h3.3v4.422h3.696v-4.422h3.3v12.1h-3.3v-4.598h-3.696v4.598zm16.69 0v-9.02h-3.96v-3.08h11.22v3.08h-3.96v9.02zm14.863.22c-1.071 0-2.009-.198-2.816-.594-.792-.4107-1.408-.9753-1.848-1.694-.425-.7333-.638-1.584-.638-2.552v-2.86c0-.968.213-1.8113.638-2.53.44-.7333 1.056-1.298 1.848-1.694.807-.4107 1.745-.616 2.816-.616s1.995.2053 2.772.616c.792.396 1.401.9607 1.826 1.694.44.7187.66 1.562.66 2.53v2.2h-7.414v.66c0 .7627.183 1.342.55 1.738.367.3813.917.572 1.65.572.513 0 .924-.088 1.232-.264.323-.176.535-.418.638-.726h3.234c-.264 1.056-.865 1.9067-1.804 2.552-.924.6453-2.039.968-3.344.968zm2.112-7.194v-.55c0-.748-.176-1.32-.528-1.716-.337-.396-.865-.594-1.584-.594s-1.261.2053-1.628.616c-.352.4107-.528.99-.528 1.738v.33l4.488-.044zm5.909 6.974v-12.1h3.301v4.422h3.696v-4.422h3.3v12.1h-3.3v-4.598h-3.696v4.598zm12.224 3.08v-5.874h.682c.249-.2493.506-.682.77-1.298.279-.6307.425-1.3933.44-2.288l.11-5.72h8.91v9.306h1.32v5.874h-3.08v-3.08h-6.072v3.08zm3.96-5.874h3.872v-6.468h-2.794l-.066 2.86c-.015.8507-.139 1.5987-.374 2.244-.22.6307-.433 1.0853-.638 1.364zm15.369 3.014c-1.07 0-2.009-.198-2.816-.594-.792-.4107-1.408-.9753-1.848-1.694-.425-.7333-.638-1.584-.638-2.552v-2.86c0-.968.213-1.8113.638-2.53.44-.7333 1.056-1.298 1.848-1.694.807-.4107 1.746-.616 2.816-.616 1.071 0 1.995.2053 2.772.616.792.396 1.401.9607 1.826 1.694.44.7187.66 1.562.66 2.53v2.2h-7.414v.66c0 .7627.184 1.342.55 1.738.367.3813.917.572 1.65.572.514 0 .924-.088 1.232-.264.323-.176.536-.418.638-.726h3.234c-.264 1.056-.865 1.9067-1.804 2.552-.924.6453-2.038.968-3.344.968zm2.112-7.194v-.55c0-.748-.176-1.32-.528-1.716-.337-.396-.865-.594-1.584-.594-.718 0-1.261.2053-1.628.616-.352.4107-.528.99-.528 1.738v.33l4.488-.044zm8.44 2.024-.11-4.73h2.2c.601 0 1.078-.1467 1.43-.44.352-.308.528-.7113.528-1.21 0-.5133-.184-.9167-.55-1.21-.352-.2933-.829-.44-1.43-.44h-3.63v-3.08h3.41c1.129 0 2.104.198 2.926.594.821.3813 1.452.924 1.892 1.628.454.704.682 1.54.682 2.508 0 .924-.191 1.7307-.572 2.42-.382.6893-.917 1.232-1.606 1.628-.69.3813-1.496.572-2.42.572v1.76zm1.056 5.06c-.499 0-.902-.1393-1.21-.418-.294-.2933-.44-.6673-.44-1.122 0-.4693.146-.8433.44-1.122.308-.2787.711-.418 1.21-.418h.66c.498 0 .894.1393 1.188.418.308.2787.462.6527.462 1.122s-.154.8433-.462 1.122c-.294.2787-.697.418-1.21.418z"/><path d="m169.28 99v-11.68h1.712l1.328 3.968c.107.3093.208.624.304.944s.165.5707.208.752c.053-.1813.123-.432.208-.752.096-.32.197-.64.304-.96l1.264-3.952h1.712v11.68h-1.248v-4.992c0-.448.011-.944.032-1.488.032-.5547.069-1.1093.112-1.664s.085-1.0827.128-1.584c.043-.512.08-.9493.112-1.312l-1.968 5.904h-1.344l-1.984-5.904c.043.3627.085.7893.128 1.28.043.48.08.9973.112 1.552.032.544.059 1.0933.08 1.648.032.5547.048 1.0773.048 1.568v4.992zm9.418 0v-8.8h1.2v3.264h.784c.938 0 1.68.2507 2.224.752.554.4907.832 1.1627.832 2.016s-.272 1.5307-.816 2.032c-.544.4907-1.291.736-2.24.736zm1.2-1.04h.784c.597 0 1.061-.1493 1.392-.448.341-.3093.512-.736.512-1.28s-.171-.9653-.512-1.264c-.331-.3093-.795-.464-1.392-.464h-.784zm4.992 1.04v-8.8h1.2v8.8zm13.459 0v-8.8h6.464v8.8h-1.28v-7.648h-3.904v7.648zm12.826.144c-.683 0-1.275-.1333-1.776-.4s-.891-.6507-1.168-1.152-.416-1.0933-.416-1.776v-2.432c0-.6933.139-1.2853.416-1.776.277-.5013.667-.8853 1.168-1.152s1.093-.4 1.776-.4 1.275.1333 1.776.4.891.6507 1.168 1.152c.277.4907.416 1.0773.416 1.76v2.448c0 .6827-.139 1.2747-.416 1.776s-.667.8853-1.168 1.152-1.093.4-1.776.4zm0-1.136c.661 0 1.173-.1867 1.536-.56s.544-.9173.544-1.632v-2.432c0-.7147-.187-1.2587-.56-1.632-.363-.3733-.869-.56-1.52-.56s-1.163.1867-1.536.56c-.363.3733-.544.9173-.544 1.632v2.432c0 .7147.181 1.2587.544 1.632.373.3733.885.56 1.536.56zm6.362.992v-8.8h1.28v3.744h3.904v-3.744h1.28v8.8h-1.28v-3.904h-3.904v3.904zm9.594 0v-8.8h1.232v5.008c0 .2987-.011.6187-.032.96-.011.3307-.027.6453-.048.944-.022.2987-.043.5493-.064.752l3.728-7.664h1.648v8.8h-1.232v-5.008c0-.3093.005-.6293.016-.96.021-.3307.042-.6453.064-.944.032-.3093.053-.5653.064-.768l-3.744 7.68zm9.305 0v-8.8h1.76l1.28 3.584c.107.3093.208.624.304.944s.166.5707.208.752c.054-.1813.123-.432.208-.752.096-.32.198-.64.304-.96l1.232-3.568h1.744v8.8h-1.232v-2.112c0-.4587.006-.9493.016-1.472.011-.5227.022-1.0453.032-1.568.011-.5227.027-1.0133.048-1.472.022-.4693.038-.88.048-1.232l-1.744 5.216h-1.344l-1.744-5.184c.022.4267.038.9653.048 1.616.011.64.022 1.3173.032 2.032.022.7147.032 1.4027.032 2.064v2.112zm12.426.16c-.928 0-1.659-.2347-2.192-.704-.533-.48-.8-1.1253-.8-1.936 0-.8.261-1.4293.784-1.888.523-.4693 1.227-.704 2.112-.704h2.8v-.928c0-.5867-.171-1.04-.512-1.36s-.827-.48-1.456-.48c-.555 0-1.019.1227-1.392.368-.363.2453-.571.576-.624.992h-1.28c.107-.7573.459-1.36 1.056-1.808.608-.448 1.365-.672 2.272-.672.981 0 1.76.2667 2.336.8.576.5227.864 1.232.864 2.128v6.032h-1.248v-1.712h-.208l.24-.256c0 .6507-.251 1.168-.752 1.552s-1.168.576-2 .576zm.304-1.024c.704 0 1.28-.176 1.728-.528s.672-.8107.672-1.376v-1.328h-2.784c-.501 0-.901.1387-1.2.416s-.448.656-.448 1.136c0 .512.181.9227.544 1.232.363.2987.859.448 1.488.448zm9.978 1.024c-.683 0-1.275-.1333-1.776-.4-.502-.2773-.891-.6667-1.168-1.168-.278-.5013-.416-1.0827-.416-1.744v-2.496c0-.672.138-1.2533.416-1.744.277-.5013.666-.8853 1.168-1.152.501-.2773 1.093-.416 1.776-.416.682 0 1.274.1387 1.776.416.501.2667.89.6507 1.168 1.152.277.4907.416 1.072.416 1.744v1.552h-5.472v.944c0 .7147.181 1.2693.544 1.664.373.384.896.576 1.568.576.565 0 1.024-.112 1.376-.336.362-.224.592-.5493.688-.976h1.264c-.118.736-.475 1.3173-1.072 1.744-.598.4267-1.35.64-2.256.64zm2.112-5.104v-.704c0-.7147-.182-1.264-.544-1.648-.363-.3947-.886-.592-1.568-.592-.672 0-1.195.1973-1.568.592-.363.384-.544.9333-.544 1.648v.56h4.352zm3.962 4.944v-8.8h1.76l1.28 3.584c.106.3093.208.624.304.944s.165.5707.208.752c.053-.1813.122-.432.208-.752.096-.32.197-.64.304-.96l1.232-3.568h1.744v8.8h-1.232v-2.112c0-.4587.005-.9493.016-1.472.01-.5227.021-1.0453.032-1.568.01-.5227.026-1.0133.048-1.472.021-.4693.037-.88.048-1.232l-1.744 5.216h-1.344l-1.744-5.184c.021.4267.037.9653.048 1.616.01.64.021 1.3173.032 2.032.021.7147.032 1.4027.032 2.064v2.112zm11.065 2.56 1.248-4.976h1.92l-2.064 4.976zm18.052-2.56v-8.8h1.28v3.696h1.664l2.608-3.696h1.456l-2.96 4.192 3.024 4.608h-1.488l-2.64-4h-1.664v4zm12.089.16c-.927 0-1.658-.2347-2.191-.704-.534-.48-.8-1.1253-.8-1.936 0-.8.261-1.4293.784-1.888.522-.4693 1.226-.704 2.112-.704h2.8v-.928c0-.5867-.171-1.04-.512-1.36-.342-.32-.827-.48-1.456-.48-.555 0-1.019.1227-1.392.368-.363.2453-.571.576-.624.992h-1.28c.106-.7573.458-1.36 1.056-1.808.608-.448 1.365-.672 2.272-.672.981 0 1.76.2667 2.336.8.576.5227.863 1.232.863 2.128v6.032h-1.247v-1.712h-.208l.24-.256c0 .6507-.251 1.168-.752 1.552-.502.384-1.168.576-2.001.576zm.305-1.024c.704 0 1.28-.176 1.728-.528s.672-.8107.672-1.376v-1.328h-2.784c-.502 0-.902.1387-1.2.416-.299.2773-.448.656-.448 1.136 0 .512.181.9227.544 1.232.362.2987.858.448 1.488.448zm6.793.864v-8.8h1.28v3.696h1.664l2.608-3.696h1.456l-2.96 4.192 3.024 4.608h-1.488l-2.64-4h-1.664v4zm9.546 0v-8.8h1.232v5.008c0 .2987-.011.6187-.032.96-.011.3307-.027.6453-.048.944s-.043.5493-.064.752l3.728-7.664h1.648v8.8h-1.232v-5.008c0-.3093.005-.6293.016-.96.021-.3307.043-.6453.064-.944.032-.3093.053-.5653.064-.768l-3.744 7.68zm12.826.16c-.683 0-1.275-.1333-1.776-.4-.502-.2773-.891-.6667-1.168-1.168-.278-.5013-.416-1.0827-.416-1.744v-2.496c0-.672.138-1.2533.416-1.744.277-.5013.666-.8853 1.168-1.152.501-.2773 1.093-.416 1.776-.416.682 0 1.274.1387 1.776.416.501.2667.89.6507 1.168 1.152.277.4907.416 1.072.416 1.744v1.552h-5.472v.944c0 .7147.181 1.2693.544 1.664.373.384.896.576 1.568.576.565 0 1.024-.112 1.376-.336.362-.224.592-.5493.688-.976h1.264c-.118.736-.475 1.3173-1.072 1.744-.598.4267-1.35.64-2.256.64zm2.112-5.104v-.704c0-.7147-.182-1.264-.544-1.648-.363-.3947-.886-.592-1.568-.592-.672 0-1.195.1973-1.568.592-.363.384-.544.9333-.544 1.648v.56h4.352zm13.843 4.944v-8.8h1.28v3.744h3.904v-3.744h1.28v8.8h-1.28v-3.904h-3.904v3.904zm12.138.16c-.928 0-1.659-.2347-2.192-.704-.533-.48-.8-1.1253-.8-1.936 0-.8.261-1.4293.784-1.888.523-.4693 1.227-.704 2.112-.704h2.8v-.928c0-.5867-.171-1.04-.512-1.36s-.827-.48-1.456-.48c-.555 0-1.019.1227-1.392.368-.363.2453-.571.576-.624.992h-1.28c.107-.7573.459-1.36 1.056-1.808.608-.448 1.365-.672 2.272-.672.981 0 1.76.2667 2.336.8.576.5227.864 1.232.864 2.128v6.032h-1.248v-1.712h-.208l.24-.256c0 .6507-.251 1.168-.752 1.552s-1.168.576-2 .576zm.304-1.024c.704 0 1.28-.176 1.728-.528s.672-.8107.672-1.376v-1.328h-2.784c-.501 0-.901.1387-1.2.416s-.448.656-.448 1.136c0 .512.181.9227.544 1.232.363.2987.859.448 1.488.448zm6.746.864v-8.8h3.776c.874 0 1.562.208 2.064.624.501.4053.752.9707.752 1.696 0 .608-.208 1.0987-.624 1.472-.406.3627-.95.544-1.632.544v-.112c.736 0 1.328.192 1.776.576.448.3733.672.8747.672 1.504 0 .7787-.267 1.392-.8 1.84-.523.4373-1.248.656-2.176.656zm1.248-1.12h2.56c.522 0 .938-.1227 1.248-.368.309-.256.464-.5973.464-1.024 0-.448-.155-.7947-.464-1.04-.31-.256-.726-.384-1.248-.384h-2.56zm0-3.92h2.528c.469 0 .842-.1173 1.12-.352.288-.2347.432-.5547.432-.96s-.144-.7253-.432-.96c-.278-.2453-.651-.368-1.12-.368h-2.528zm7.882 5.04v-8.8h1.2v3.264h.784c.938 0 1.68.2507 2.224.752.554.4907.832 1.1627.832 2.016s-.272 1.5307-.816 2.032c-.544.4907-1.291.736-2.24.736zm1.2-1.04h.784c.597 0 1.061-.1493 1.392-.448.341-.3093.512-.736.512-1.28s-.171-.9653-.512-1.264c-.331-.3093-.795-.464-1.392-.464h-.784zm4.992 1.04v-8.8h1.2v8.8zm3.913 0v-8.8h1.28v3.696h1.664l2.608-3.696h1.456l-2.96 4.192 3.024 4.608h-1.488l-2.64-4h-1.664v4zm9.546 0v-8.8h1.232v5.008c0 .2987-.011.6187-.032.96-.011.3307-.027.6453-.048.944s-.043.5493-.064.752l3.728-7.664h1.648v8.8h-1.232v-5.008c0-.3093.005-.6293.016-.96.021-.3307.043-.6453.064-.944.032-.3093.053-.5653.064-.768l-3.744 7.68zm19.188 0v-8.8h6.464v8.8h-1.28v-7.648h-3.904v7.648zm12.825.144c-.682 0-1.274-.1333-1.776-.4-.501-.2667-.89-.6507-1.168-1.152-.277-.5013-.416-1.0933-.416-1.776v-2.432c0-.6933.139-1.2853.416-1.776.278-.5013.667-.8853 1.168-1.152.502-.2667 1.094-.4 1.776-.4.683 0 1.275.1333 1.776.4.502.2667.891.6507 1.168 1.152.278.4907.416 1.0773.416 1.76v2.448c0 .6827-.138 1.2747-.416 1.776-.277.5013-.666.8853-1.168 1.152-.501.2667-1.093.4-1.776.4zm0-1.136c.662 0 1.174-.1867 1.536-.56.363-.3733.544-.9173.544-1.632v-2.432c0-.7147-.186-1.2587-.56-1.632-.362-.3733-.869-.56-1.52-.56-.65 0-1.162.1867-1.536.56-.362.3733-.544.9173-.544 1.632v2.432c0 .7147.182 1.2587.544 1.632.374.3733.886.56 1.536.56zm6.074.992v-8.8h1.76l1.28 3.584c.107.3093.208.624.304.944s.165.5707.208.752c.053-.1813.123-.432.208-.752.096-.32.197-.64.304-.96l1.232-3.568h1.744v8.8h-1.232v-2.112c0-.4587.005-.9493.016-1.472s.021-1.0453.032-1.568.027-1.0133.048-1.472c.021-.4693.037-.88.048-1.232l-1.744 5.216h-1.344l-1.744-5.184c.021.4267.037.9653.048 1.616.011.64.021 1.3173.032 2.032.021.7147.032 1.4027.032 2.064v2.112zm13.114.144c-.683 0-1.275-.1333-1.776-.4-.502-.2667-.891-.6507-1.168-1.152-.278-.5013-.416-1.0933-.416-1.776v-2.432c0-.6933.138-1.2853.416-1.776.277-.5013.666-.8853 1.168-1.152.501-.2667 1.093-.4 1.776-.4.682 0 1.274.1333 1.776.4.501.2667.89.6507 1.168 1.152.277.4907.416 1.0773.416 1.76v2.448c0 .6827-.139 1.2747-.416 1.776-.278.5013-.667.8853-1.168 1.152-.502.2667-1.094.4-1.776.4zm0-1.136c.661 0 1.173-.1867 1.536-.56.362-.3733.544-.9173.544-1.632v-2.432c0-.7147-.187-1.2587-.56-1.632-.363-.3733-.87-.56-1.52-.56-.651 0-1.163.1867-1.536.56-.363.3733-.544.9173-.544 1.632v2.432c0 .7147.181 1.2587.544 1.632.373.3733.885.56 1.536.56zm6.938.992v-8.8h6.24v1.152h-4.976v7.648zm10.393 2.88 1.296-3.44-3.264-8.24h1.408l2.08 5.488c.086.2133.166.4533.24.72.086.256.15.4693.192.64.054-.1707.118-.3893.192-.656.075-.2667.15-.5067.224-.72l1.952-5.472h1.36l-4.336 11.68zm10.81-2.88v-7.664h-3.2v-1.136h7.68v1.136h-3.2v7.664zm-309.592 21v-8.8h1.28v3.744h3.904v-3.744h1.28v8.8h-1.28v-3.904h-3.904v3.904zm12.826.144c-.683 0-1.275-.133-1.776-.4-.502-.267-.891-.651-1.168-1.152-.278-.501-.416-1.093-.416-1.776v-2.432c0-.693.138-1.285.416-1.776.277-.501.666-.885 1.168-1.152.501-.267 1.093-.4 1.776-.4.682 0 1.274.133 1.776.4.501.267.89.651 1.168 1.152.277.491.416 1.077.416 1.76v2.448c0 .683-.139 1.275-.416 1.776-.278.501-.667.885-1.168 1.152-.502.267-1.094.4-1.776.4zm0-1.136c.661 0 1.173-.187 1.536-.56.362-.373.544-.917.544-1.632v-2.432c0-.715-.187-1.259-.56-1.632-.363-.373-.87-.56-1.52-.56-.651 0-1.163.187-1.536.56-.363.373-.544.917-.544 1.632v2.432c0 .715.181 1.259.544 1.632.373.373.885.56 1.536.56zm6.362.992v-8.8h3.776c.874 0 1.562.208 2.064.624.501.405.752.971.752 1.696 0 .608-.208 1.099-.624 1.472-.406.363-.95.544-1.632.544v-.112c.736 0 1.328.192 1.776.576.448.373.672.875.672 1.504 0 .779-.267 1.392-.8 1.84-.523.437-1.248.656-2.176.656zm1.248-1.12h2.56c.522 0 .938-.123 1.248-.368.309-.256.464-.597.464-1.024 0-.448-.155-.795-.464-1.04-.31-.256-.726-.384-1.248-.384h-2.56zm0-3.92h2.528c.469 0 .842-.117 1.12-.352.288-.235.432-.555.432-.96s-.144-.725-.432-.96c-.278-.245-.651-.368-1.12-.368h-2.528zm8.345 5.04v-8.8h1.232v5.008c0 .299-.01.619-.032.96-.01.331-.026.645-.048.944-.021.299-.042.549-.064.752l3.728-7.664h1.648v8.8h-1.232v-5.008c0-.309.006-.629.016-.96.022-.331.043-.645.064-.944.032-.309.054-.565.064-.768l-3.744 7.68zm14.698 0v-3.248c-.171.043-.437.085-.8.128-.363.032-.768.048-1.216.048-1.056.011-1.877-.251-2.464-.784-.576-.533-.864-1.285-.864-2.256v-2.688h1.264v2.688c0 .597.181 1.061.544 1.392.373.331.901.496 1.584.496.491 0 .907-.016 1.248-.048.341-.043.576-.08.704-.112v-4.416h1.264v8.8zm4.538 0v-8.8h1.28v3.696h1.664l2.608-3.696h1.456l-2.96 4.192 3.024 4.608h-1.488l-2.64-4h-1.664v4zm10.922 2.88 1.296-3.44-3.264-8.24h1.408l2.08 5.488c.085.213.165.453.239.72.086.256.15.469.193.64.053-.171.117-.389.192-.656.074-.267.149-.507.224-.72l1.952-5.472h1.36l-4.336 11.68zm21.059-2.72c-.683 0-1.28-.133-1.792-.4s-.912-.645-1.2-1.136c-.277-.501-.416-1.093-.416-1.776v-2.496c0-.683.139-1.269.416-1.76.288-.501.688-.885 1.2-1.152s1.109-.4 1.792-.4c1.003 0 1.808.272 2.416.816s.923 1.285.944 2.224h-1.264c-.021-.608-.219-1.077-.592-1.408-.363-.331-.864-.496-1.504-.496-.651 0-1.168.192-1.552.576-.384.373-.576.907-.576 1.6v2.496c0 .683.192 1.216.576 1.6s.901.576 1.552.576c.64 0 1.141-.165 1.504-.496.373-.341.571-.811.592-1.408h1.264c-.021.939-.336 1.68-.944 2.224s-1.413.816-2.416.816zm8.938-.16v-7.664h-3.2v-1.136h7.68v1.136h-3.2v7.664zm9.545.16c-.927 0-1.658-.235-2.191-.704-.534-.48-.8-1.125-.8-1.936 0-.8.261-1.429.784-1.888.522-.469 1.226-.704 2.112-.704h2.8v-.928c0-.587-.171-1.04-.512-1.36-.342-.32-.827-.48-1.456-.48-.555 0-1.019.123-1.392.368-.363.245-.571.576-.624.992h-1.28c.106-.757.458-1.36 1.056-1.808.608-.448 1.365-.672 2.272-.672.981 0 1.76.267 2.336.8.576.523.863 1.232.863 2.128v6.032h-1.247v-1.712h-.208l.24-.256c0 .651-.251 1.168-.752 1.552-.502.384-1.168.576-2.001.576zm.305-1.024c.704 0 1.28-.176 1.728-.528s.672-.811.672-1.376v-1.328h-2.784c-.502 0-.902.139-1.2.416-.299.277-.448.656-.448 1.136 0 .512.181.923.544 1.232.362.299.858.448 1.488.448zm9.337.864v-7.664h-3.2v-1.136h7.68v1.136h-3.2v7.664zm7.082 0v-8.8h1.264v3.232h2.64c.981 0 1.755.251 2.32.752.576.491.864 1.168.864 2.032 0 .853-.288 1.531-.864 2.032-.565.501-1.339.752-2.32.752zm1.264-1.152h2.64c.608 0 1.072-.139 1.392-.416.32-.288.48-.693.48-1.216s-.16-.923-.48-1.2c-.32-.288-.784-.432-1.392-.432h-2.64zm17.844 1.152v-8.8h3.776c.874 0 1.562.208 2.064.624.501.405.752.971.752 1.696 0 .608-.208 1.099-.624 1.472-.406.363-.95.544-1.632.544v-.112c.736 0 1.328.192 1.776.576.448.373.672.875.672 1.504 0 .779-.267 1.392-.8 1.84-.523.437-1.248.656-2.176.656zm1.248-1.12h2.56c.522 0 .938-.123 1.248-.368.309-.256.464-.597.464-1.024 0-.448-.155-.795-.464-1.04-.31-.256-.726-.384-1.248-.384h-2.56zm0-3.92h2.528c.469 0 .842-.117 1.12-.352.288-.235.432-.555.432-.96s-.144-.725-.432-.96c-.278-.245-.651-.368-1.12-.368h-2.528zm11.577 5.184c-.682 0-1.274-.133-1.776-.4-.501-.267-.89-.651-1.168-1.152-.277-.501-.416-1.093-.416-1.776v-2.432c0-.693.139-1.285.416-1.776.278-.501.667-.885 1.168-1.152.502-.267 1.094-.4 1.776-.4.683 0 1.275.133 1.776.4.502.267.891.651 1.168 1.152.278.491.416 1.077.416 1.76v2.448c0 .683-.138 1.275-.416 1.776-.277.501-.666.885-1.168 1.152-.501.267-1.093.4-1.776.4zm0-1.136c.662 0 1.174-.187 1.536-.56.363-.373.544-.917.544-1.632v-2.432c0-.715-.186-1.259-.56-1.632-.362-.373-.869-.56-1.52-.56-.65 0-1.162.187-1.536.56-.362.373-.544.917-.544 1.632v2.432c0 .715.182 1.259.544 1.632.374.373.886.56 1.536.56zm9.61 1.152c-.683 0-1.28-.133-1.792-.4s-.912-.645-1.2-1.136c-.277-.501-.416-1.093-.416-1.776v-2.496c0-.683.139-1.269.416-1.76.288-.501.688-.885 1.2-1.152s1.109-.4 1.792-.4c1.003 0 1.808.272 2.416.816s.923 1.285.944 2.224h-1.264c-.021-.608-.219-1.077-.592-1.408-.363-.331-.864-.496-1.504-.496-.651 0-1.168.192-1.552.576-.384.373-.576.907-.576 1.6v2.496c0 .683.192 1.216.576 1.6s.901.576 1.552.576c.64 0 1.141-.165 1.504-.496.373-.341.571-.811.592-1.408h1.264c-.021.939-.336 1.68-.944 2.224s-1.413.816-2.416.816zm8.938-.16v-7.664h-3.2v-1.136h7.68v1.136h-3.2v7.664zm6.986 2.88v-11.68h1.264v1.552h.336l-.384.528c0-.693.224-1.237.672-1.632.458-.405 1.061-.608 1.808-.608.885 0 1.589.293 2.112.88.533.576.8 1.365.8 2.368v2.608c0 .672-.123 1.253-.368 1.744-.246.48-.587.853-1.024 1.12-.427.267-.934.4-1.52.4-.736 0-1.334-.203-1.792-.608-.459-.405-.688-.949-.688-1.632l.336.528h-.304l.016 1.792v2.64zm3.296-3.824c.64 0 1.136-.192 1.488-.576.362-.384.544-.928.544-1.632v-2.496c0-.715-.182-1.259-.544-1.632-.352-.384-.848-.576-1.488-.576-.619 0-1.115.197-1.488.592-.363.384-.544.923-.544 1.616v2.496c0 .693.181 1.237.544 1.632.373.384.869.576 1.488.576zm9.545 1.104c-.682 0-1.274-.133-1.776-.4-.501-.277-.89-.667-1.168-1.168-.277-.501-.416-1.083-.416-1.744v-2.496c0-.672.139-1.253.416-1.744.278-.501.667-.885 1.168-1.152.502-.277 1.094-.416 1.776-.416.683 0 1.275.139 1.776.416.502.267.891.651 1.168 1.152.278.491.416 1.072.416 1.744v1.552h-5.472v.944c0 .715.182 1.269.544 1.664.374.384.896.576 1.568.576.566 0 1.024-.112 1.376-.336.363-.224.592-.549.688-.976h1.264c-.117.736-.474 1.317-1.072 1.744-.597.427-1.349.64-2.256.64zm2.112-5.104v-.704c0-.715-.181-1.264-.544-1.648-.362-.395-.885-.592-1.568-.592-.672 0-1.194.197-1.568.592-.362.384-.544.933-.544 1.648v.56h4.352zm7.482 5.104c-1.024 0-1.829-.304-2.416-.912s-.88-1.445-.88-2.512v-4.096c0-1.387.347-2.453 1.04-3.2s1.685-1.12 2.976-1.12h2.176v1.264h-2.176c-.896 0-1.579.267-2.048.8-.469.523-.704 1.275-.704 2.256v1.104h.224l-.224.384c.011-.64.224-1.141.64-1.504.427-.363 1.008-.544 1.744-.544.939 0 1.664.299 2.176.896.512.587.768 1.408.768 2.464v1.296c0 .715-.133 1.328-.4 1.84-.256.512-.629.907-1.12 1.184-.491.267-1.083.4-1.776.4zm0-1.136c.651 0 1.152-.197 1.504-.592s.528-.96.528-1.696v-1.296c0-.725-.176-1.291-.528-1.696s-.853-.608-1.504-.608-1.152.203-1.504.608-.528.971-.528 1.696v1.296c0 .736.176 1.301.528 1.696.363.395.864.592 1.504.592zm9.594 1.12c-.683 0-1.275-.133-1.776-.4-.502-.267-.891-.651-1.168-1.152-.278-.501-.416-1.093-.416-1.776v-2.432c0-.693.138-1.285.416-1.776.277-.501.666-.885 1.168-1.152.501-.267 1.093-.4 1.776-.4.682 0 1.274.133 1.776.4.501.267.89.651 1.168 1.152.277.491.416 1.077.416 1.76v2.448c0 .683-.139 1.275-.416 1.776-.278.501-.667.885-1.168 1.152-.502.267-1.094.4-1.776.4zm0-1.136c.661 0 1.173-.187 1.536-.56.362-.373.544-.917.544-1.632v-2.432c0-.715-.187-1.259-.56-1.632-.363-.373-.87-.56-1.52-.56-.651 0-1.163.187-1.536.56-.363.373-.544.917-.544 1.632v2.432c0 .715.181 1.259.544 1.632.373.373.885.56 1.536.56zm6.362.992v-8.8h3.776c.874 0 1.562.208 2.064.624.501.405.752.971.752 1.696 0 .608-.208 1.099-.624 1.472-.406.363-.95.544-1.632.544v-.112c.736 0 1.328.192 1.776.576.448.373.672.875.672 1.504 0 .779-.267 1.392-.8 1.84-.523.437-1.248.656-2.176.656zm1.248-1.12h2.56c.522 0 .938-.123 1.248-.368.309-.256.464-.597.464-1.024 0-.448-.155-.795-.464-1.04-.31-.256-.726-.384-1.248-.384h-2.56zm0-3.92h2.528c.469 0 .842-.117 1.12-.352.288-.235.432-.555.432-.96s-.144-.725-.432-.96c-.278-.245-.651-.368-1.12-.368h-2.528zm10.889 5.2c-.928 0-1.658-.235-2.192-.704-.533-.48-.8-1.125-.8-1.936 0-.8.262-1.429.784-1.888.523-.469 1.227-.704 2.112-.704h2.8v-.928c0-.587-.17-1.04-.512-1.36-.341-.32-.826-.48-1.456-.48-.554 0-1.018.123-1.392.368-.362.245-.57.576-.624.992h-1.28c.107-.757.459-1.36 1.056-1.808.608-.448 1.366-.672 2.272-.672.982 0 1.76.267 2.336.8.576.523.864 1.232.864 2.128v6.032h-1.248v-1.712h-.208l.24-.256c0 .651-.25 1.168-.752 1.552-.501.384-1.168.576-2 .576zm.304-1.024c.704 0 1.28-.176 1.728-.528s.672-.811.672-1.376v-1.328h-2.784c-.501 0-.901.139-1.2.416-.298.277-.448.656-.448 1.136 0 .512.182.923.544 1.232.363.299.859.448 1.488.448zm6.746.864v-8.8h1.28v3.744h3.904v-3.744h1.28v8.8h-1.28v-3.904h-3.904v3.904zm9.594 0v-8.8h1.28v3.744h3.904v-3.744h1.28v8.8h-1.28v-3.904h-3.904v3.904zm9.13 0v-8.8h1.2v3.264h.784c.938 0 1.68.251 2.224.752.554.491.832 1.163.832 2.016s-.272 1.531-.816 2.032c-.544.491-1.291.736-2.24.736zm1.2-1.04h.784c.597 0 1.061-.149 1.392-.448.341-.309.512-.736.512-1.28s-.171-.965-.512-1.264c-.331-.309-.795-.464-1.392-.464h-.784zm4.992 1.04v-8.8h1.2v8.8zm3.577 0v-8.8h1.76l1.28 3.584c.107.309.208.624.304.944s.166.571.208.752c.054-.181.123-.432.208-.752.096-.32.198-.64.304-.96l1.232-3.568h1.744v8.8h-1.232v-2.112c0-.459.006-.949.016-1.472.011-.523.022-1.045.032-1.568.011-.523.027-1.013.048-1.472.022-.469.038-.88.048-1.232l-1.744 5.216h-1.344l-1.744-5.184c.022.427.038.965.048 1.616.011.64.022 1.317.032 2.032.022.715.032 1.403.032 2.064v2.112zm-258.743 21v-8.8h6.464v8.8h-1.28v-7.648h-3.904v7.648zm9.578 2.88v-11.68h1.264v1.552h.336l-.384.528c0-.693.224-1.237.672-1.632.458-.405 1.061-.608 1.808-.608.885 0 1.589.293 2.112.88.533.576.8 1.365.8 2.368v2.608c0 .672-.123 1.253-.368 1.744-.246.48-.587.853-1.024 1.12-.427.267-.934.4-1.52.4-.736 0-1.334-.203-1.792-.608-.459-.405-.688-.949-.688-1.632l.336.528h-.304l.016 1.792v2.64zm3.296-3.824c.64 0 1.136-.192 1.488-.576.362-.384.544-.928.544-1.632v-2.496c0-.715-.182-1.259-.544-1.632-.352-.384-.848-.576-1.488-.576-.619 0-1.115.197-1.488.592-.363.384-.544.923-.544 1.616v2.496c0 .693.181 1.237.544 1.632.373.384.869.576 1.488.576zm9.546 1.088c-.683 0-1.275-.133-1.776-.4-.502-.267-.891-.651-1.168-1.152-.278-.501-.416-1.093-.416-1.776v-2.432c0-.693.138-1.285.416-1.776.277-.501.666-.885 1.168-1.152.501-.267 1.093-.4 1.776-.4.682 0 1.274.133 1.776.4.501.267.89.651 1.168 1.152.277.491.416 1.077.416 1.76v2.448c0 .683-.139 1.275-.416 1.776-.278.501-.667.885-1.168 1.152-.502.267-1.094.4-1.776.4zm0-1.136c.661 0 1.173-.187 1.536-.56.362-.373.544-.917.544-1.632v-2.432c0-.715-.187-1.259-.56-1.632-.363-.373-.87-.56-1.52-.56-.651 0-1.163.187-1.536.56-.363.373-.544.917-.544 1.632v2.432c0 .715.181 1.259.544 1.632.373.373.885.56 1.536.56zm6.937.992v-8.8h6.24v1.152h-4.976v7.648zm9.002 2.88v-11.68h1.264v1.552h.336l-.384.528c0-.693.224-1.237.672-1.632.459-.405 1.061-.608 1.808-.608.885 0 1.589.293 2.112.88.533.576.8 1.365.8 2.368v2.608c0 .672-.123 1.253-.368 1.744-.245.48-.587.853-1.024 1.12-.427.267-.933.4-1.52.4-.736 0-1.333-.203-1.792-.608s-.688-.949-.688-1.632l.336.528h-.304l.016 1.792v2.64zm3.296-3.824c.64 0 1.136-.192 1.488-.576.363-.384.544-.928.544-1.632v-2.496c0-.715-.181-1.259-.544-1.632-.352-.384-.848-.576-1.488-.576-.619 0-1.115.197-1.488.592-.363.384-.544.923-.544 1.616v2.496c0 .693.181 1.237.544 1.632.373.384.869.576 1.488.576zm8.858 1.104c-.928 0-1.659-.235-2.192-.704-.534-.48-.8-1.125-.8-1.936 0-.8.261-1.429.784-1.888.522-.469 1.226-.704 2.112-.704h2.8v-.928c0-.587-.171-1.04-.512-1.36-.342-.32-.827-.48-1.456-.48-.555 0-1.019.123-1.392.368-.363.245-.571.576-.624.992h-1.28c.106-.757.458-1.36 1.056-1.808.608-.448 1.365-.672 2.272-.672.981 0 1.76.267 2.336.8.576.523.864 1.232.864 2.128v6.032h-1.248v-1.712h-.208l.24-.256c0 .651-.251 1.168-.752 1.552-.502.384-1.168.576-2 .576zm.304-1.024c.704 0 1.28-.176 1.728-.528s.672-.811.672-1.376v-1.328h-2.784c-.502 0-.902.139-1.2.416-.299.277-.448.656-.448 1.136 0 .512.181.923.544 1.232.362.299.858.448 1.488.448zm6.458.864v-8.8h1.76l1.28 3.584c.106.309.208.624.304.944s.165.571.208.752c.053-.181.122-.432.208-.752.096-.32.197-.64.304-.96l1.232-3.568h1.744v8.8h-1.232v-2.112c0-.459.005-.949.016-1.472.01-.523.021-1.045.032-1.568.01-.523.026-1.013.048-1.472.021-.469.037-.88.048-1.232l-1.744 5.216h-1.344l-1.744-5.184c.021.427.037.965.048 1.616.01.64.021 1.317.032 2.032.021.715.032 1.403.032 2.064v2.112zm9.593 0v-8.8h1.76l1.28 3.584c.107.309.208.624.304.944s.166.571.208.752c.054-.181.123-.432.208-.752.096-.32.198-.64.304-.96l1.232-3.568h1.744v8.8h-1.232v-2.112c0-.459.006-.949.016-1.472.011-.523.022-1.045.032-1.568.011-.523.027-1.013.048-1.472.022-.469.038-.88.048-1.232l-1.744 5.216h-1.344l-1.744-5.184c.022.427.038.965.048 1.616.011.64.022 1.317.032 2.032.022.715.032 1.403.032 2.064v2.112zm9.882 0v-8.8h1.232v5.008c0 .299-.011.619-.032.96-.011.331-.027.645-.048.944s-.043.549-.064.752l3.728-7.664h1.648v8.8h-1.232v-5.008c0-.309.005-.629.016-.96.021-.331.043-.645.064-.944.032-.309.053-.565.064-.768l-3.744 7.68zm12.842.16c-.683 0-1.28-.133-1.792-.4s-.912-.645-1.2-1.136c-.278-.501-.416-1.093-.416-1.776v-2.496c0-.683.138-1.269.416-1.76.288-.501.688-.885 1.2-1.152s1.109-.4 1.792-.4c1.002 0 1.808.272 2.416.816s.922 1.285.944 2.224h-1.264c-.022-.608-.219-1.077-.592-1.408-.363-.331-.864-.496-1.504-.496-.651 0-1.168.192-1.552.576-.384.373-.576.907-.576 1.6v2.496c0 .683.192 1.216.576 1.6s.901.576 1.552.576c.64 0 1.141-.165 1.504-.496.373-.341.57-.811.592-1.408h1.264c-.022.939-.336 1.68-.944 2.224s-1.414.816-2.416.816zm8.938-.16v-7.664h-3.2v-1.136h7.68v1.136h-3.2v7.664zm10.233.144c-.682 0-1.274-.133-1.776-.4-.501-.267-.89-.651-1.168-1.152-.277-.501-.416-1.093-.416-1.776v-2.432c0-.693.139-1.285.416-1.776.278-.501.667-.885 1.168-1.152.502-.267 1.094-.4 1.776-.4.683 0 1.275.133 1.776.4.502.267.891.651 1.168 1.152.278.491.416 1.077.416 1.76v2.448c0 .683-.138 1.275-.416 1.776-.277.501-.666.885-1.168 1.152-.501.267-1.093.4-1.776.4zm0-1.136c.662 0 1.174-.187 1.536-.56.363-.373.544-.917.544-1.632v-2.432c0-.715-.186-1.259-.56-1.632-.362-.373-.869-.56-1.52-.56-.65 0-1.162.187-1.536.56-.362.373-.544.917-.544 1.632v2.432c0 .715.182 1.259.544 1.632.374.373.886.56 1.536.56zm6.074.992v-8.8h1.76l1.28 3.584c.107.309.208.624.304.944s.165.571.208.752c.053-.181.123-.432.208-.752.096-.32.197-.64.304-.96l1.232-3.568h1.744v8.8h-1.232v-2.112c0-.459.005-.949.016-1.472s.021-1.045.032-1.568.027-1.013.048-1.472c.021-.469.037-.88.048-1.232l-1.744 5.216h-1.344l-1.744-5.184c.021.427.037.965.048 1.616.011.64.021 1.317.032 2.032.021.715.032 1.403.032 2.064v2.112zm13.114.16c-.395 0-.71-.112-.944-.336-.224-.235-.336-.544-.336-.928 0-.405.112-.725.336-.96.234-.235.549-.352.944-.352.394 0 .704.117.928.352.234.235.352.555.352.96 0 .384-.118.693-.352.928-.224.224-.534.336-.928.336z"/></g></svg>