<svg fill="none" height="90" viewBox="0 0 970 90" width="970" xmlns="http://www.w3.org/2000/svg" xmlns:xlink="http://www.w3.org/1999/xlink"><clipPath id="a"><path d="m0 0h970v90h-970z"/></clipPath><g clip-path="url(#a)"><path d="m0 0h970v90h-970z" fill="#ec5a5f"/><g fill="#000"><path d="m261.65 39v-18.25h11.7v18.25h-3.75v-14.75h-4.2v14.75zm14.99 4.5v-18.25h3.625v2.625h.875l-.875.875c0-1.1833.325-2.1.975-2.75.65-.6667 1.542-1 2.675-1 1.384 0 2.492.4917 3.325 1.475.834.9667 1.25 2.2667 1.25 3.9v3.5c0 1.0833-.191 2.0333-.575 2.85-.366.8-.891 1.425-1.575 1.875-.683.4333-1.491.65-2.425.65-1.133 0-2.025-.325-2.675-.975-.65-.6667-.975-1.5917-.975-2.775l.875.875h-.875l.125 3.375v3.75zm5.925-7.5c.7 0 1.234-.1917 1.6-.575.384-.4.575-.9583.575-1.675v-3.25c0-.7333-.191-1.2917-.575-1.675-.366-.3833-.9-.575-1.6-.575-.683 0-1.216.2-1.6.6-.383.3833-.575.9333-.575 1.65v3.25c0 .7167.192 1.275.575 1.675.384.3833.917.575 1.6.575zm9.065 3v-13.75h3.3v6.25c0 .4167-.025.9417-.075 1.575-.05.6167-.116 1.2417-.2 1.875-.066.6333-.141 1.1917-.225 1.675l4.35-11.375h4.55v13.75h-3.3v-6.25c0-.4333.025-.925.075-1.475.05-.5667.109-1.1333.175-1.7.067-.5667.134-1.05.2-1.45l-4.3 10.875zm13.991 0 4.75-7.125-4.425-6.625h4.175l1.7 2.75c.133.2167.258.4583.375.725.116.2667.208.4833.275.65.066-.1667.158-.3833.275-.65.133-.2667.258-.5083.375-.725l1.7-2.75h4.175l-4.4 6.625 4.725 7.125h-4.175l-2-3.25c-.134-.2333-.267-.475-.4-.725-.117-.2667-.209-.4833-.275-.65-.067.1667-.159.3833-.275.65-.117.25-.242.4917-.375.725l-2.025 3.25zm21.84.25c-1.217 0-2.275-.225-3.175-.675-.9-.4667-1.6-1.1083-2.1-1.925-.483-.8333-.725-1.8-.725-2.9v-3.25c0-1.1.242-2.0583.725-2.875.5-.8333 1.2-1.475 2.1-1.925.9-.4667 1.958-.7 3.175-.7 1.233 0 2.292.2333 3.175.7.9.45 1.592 1.0917 2.075 1.925.5.8167.75 1.775.75 2.875v3.25c0 1.1-.25 2.0667-.75 2.9-.483.8167-1.175 1.4583-2.075 1.925-.883.45-1.942.675-3.175.675zm0-3.25c.733 0 1.292-.1917 1.675-.575.383-.4.575-.9583.575-1.675v-3.25c0-.7333-.192-1.2917-.575-1.675s-.942-.575-1.675-.575c-.717 0-1.275.1917-1.675.575-.383.3833-.575.9417-.575 1.675v3.25c0 .7167.192 1.275.575 1.675.4.3833.958.575 1.675.575zm8.04 6.5v-6.675h.775c.284-.2833.575-.775.875-1.475.317-.7167.484-1.5833.5-2.6l.125-6.5h10.125v10.575h1.5v6.675h-3.5v-3.5h-6.9v3.5zm4.5-6.675h4.4v-7.35h-3.175l-.075 3.25c-.016.9667-.158 1.8167-.425 2.55-.25.7167-.491 1.2333-.725 1.55zm11.59 3.175v-13.75h3.3v6.25c0 .4167-.025.9417-.075 1.575-.05.6167-.116 1.2417-.2 1.875-.066.6333-.141 1.1917-.225 1.675l4.35-11.375h4.55v13.75h-3.3v-6.25c0-.4333.025-.925.075-1.475.05-.5667.109-1.1333.175-1.7.067-.5667.134-1.05.2-1.45l-4.3 10.875zm29.956 0v-13.75h6.225c1.683 0 3.017.3417 4 1.025 1 .6667 1.5 1.575 1.5 2.725 0 .9167-.375 1.6583-1.125 2.225-.75.55-1.742.825-2.975.825v-.25c1.35 0 2.425.3 3.225.9.817.6 1.225 1.3917 1.225 2.375 0 1.2167-.5 2.175-1.5 2.875-.983.7-2.325 1.05-4.025 1.05zm3.675-2.65h2.7c.617 0 1.108-.1417 1.475-.425.383-.3.575-.6833.575-1.15 0-.5-.192-.9-.575-1.2-.367-.3-.858-.45-1.475-.45h-2.7zm0-5.425h2.575c.567 0 1.017-.1333 1.35-.4.333-.2833.5-.65.5-1.1 0-.4667-.167-.8417-.5-1.125s-.783-.425-1.35-.425h-2.575zm32.18 8.325c-1.283 0-2.4-.2167-3.35-.65s-1.683-1.0417-2.2-1.825c-.516-.7833-.775-1.7083-.775-2.775h3.75c0 .6167.234 1.1083.7 1.475.484.35 1.134.525 1.95.525.784 0 1.392-.175 1.825-.525.45-.35.675-.8333.675-1.45 0-.5333-.166-.9917-.5-1.375-.333-.3833-.8-.6417-1.4-.775l-1.85-.425c-1.55-.3667-2.758-1.0417-3.625-2.025-.85-1-1.275-2.2167-1.275-3.65 0-1.0667.242-1.9917.725-2.775.5-.8 1.2-1.4167 2.1-1.85s1.967-.65 3.2-.65c1.867 0 3.342.4667 4.425 1.4 1.1.9167 1.65 2.1583 1.65 3.725h-3.75c0-.5833-.208-1.0417-.625-1.375-.4-.3333-.983-.5-1.75-.5-.716 0-1.266.1667-1.65.5-.383.3167-.575.775-.575 1.375 0 .5333.15.9917.45 1.375.317.3667.759.6167 1.325.75l1.95.45c1.617.3667 2.842 1.0333 3.675 2 .834.95 1.25 2.1667 1.25 3.65 0 1.0667-.266 2.0083-.8 2.825-.516.8167-1.25 1.45-2.2 1.9-.933.45-2.041.675-3.325.675zm13.216 0c-1.384 0-2.484-.375-3.3-1.125-.8-.75-1.2-1.7667-1.2-3.05 0-1.3833.475-2.4417 1.425-3.175.966-.75 2.35-1.125 4.15-1.125h2.85v-1.025c0-.5333-.192-.9583-.575-1.275-.367-.3167-.867-.475-1.5-.475-.584 0-1.067.1333-1.45.4-.384.2667-.617.6333-.7 1.1h-3.625c.15-1.3833.75-2.475 1.8-3.275 1.066-.8167 2.433-1.225 4.1-1.225 1.75 0 3.133.4333 4.15 1.3 1.033.85 1.55 2 1.55 3.45v9.25h-3.625v-2.25h-.6l.625-.875c0 1.0333-.375 1.8583-1.125 2.475-.734.6-1.717.9-2.95.9zm1.4-2.75c.733 0 1.333-.1917 1.8-.575.483-.4.725-.9167.725-1.55v-1.475h-2.775c-.567 0-1.025.1667-1.375.5-.35.3167-.525.7417-.525 1.275 0 .5667.191 1.0167.575 1.35.383.3167.908.475 1.575.475zm9.615 2.5v-3.4h4.75v-6.975h-4.125v-3.375h7.625v10.35h4v3.4zm6.25-15.925c-.684 0-1.234-.175-1.65-.525-.4-.35-.6-.825-.6-1.425s.2-1.075.6-1.425c.416-.35.966-.525 1.65-.525.683 0 1.225.175 1.625.525.416.35.625.825.625 1.425s-.209 1.075-.625 1.425c-.4.35-.942.525-1.625.525zm8.64 15.925v-13.75h3.625v2.625h1.1l-1.1.875c0-1.1667.333-2.0833 1-2.75s1.567-1 2.7-1c1.333 0 2.4.4667 3.2 1.4.817.9333 1.225 2.175 1.225 3.725v8.875h-3.75v-8.5c0-.7167-.192-1.2667-.575-1.65-.367-.4-.892-.6-1.575-.6-.667 0-1.183.2-1.55.6-.367.3833-.55.9333-.55 1.65v8.5zm22.34 0c-1.4 0-2.5-.4-3.3-1.2s-1.2-1.9-1.2-3.3v-5.875h-3.625v-3.375h3.625v-3.875h3.75v3.875h5.125v3.375h-5.125v5.875c0 .75.375 1.125 1.125 1.125h3.75v3.375zm13.566.25c-1.217 0-2.284-.225-3.2-.675-.917-.4667-1.625-1.1083-2.125-1.925-.5-.8333-.75-1.8-.75-2.9v-3.25c0-1.1167.25-2.0833.75-2.9s1.208-1.45 2.125-1.9c.916-.4667 1.983-.7 3.2-.7 1.816 0 3.266.4583 4.35 1.375 1.083.9167 1.658 2.1667 1.725 3.75h-3.75c-.05-.5833-.284-1.0417-.7-1.375-.4-.3333-.942-.5-1.625-.5-.75 0-1.325.1917-1.725.575s-.6.9417-.6 1.675v3.25c0 .7167.2 1.275.6 1.675.4.3833.975.575 1.725.575.683 0 1.225-.1583 1.625-.475.416-.3333.65-.8.7-1.4h3.75c-.067 1.5833-.642 2.8333-1.725 3.75-1.084.9167-2.534 1.375-4.35 1.375zm14.915 0c-1.217 0-2.275-.225-3.175-.675-.9-.4667-1.6-1.1083-2.1-1.925-.484-.8333-.725-1.8-.725-2.9v-3.25c0-1.1.241-2.0583.725-2.875.5-.8333 1.2-1.475 2.1-1.925.9-.4667 1.958-.7 3.175-.7 1.233 0 2.291.2333 3.175.7.9.45 1.591 1.0917 2.075 1.925.5.8167.75 1.775.75 2.875v3.25c0 1.1-.25 2.0667-.75 2.9-.484.8167-1.175 1.4583-2.075 1.925-.884.45-1.942.675-3.175.675zm0-3.25c.733 0 1.291-.1917 1.675-.575.383-.4.575-.9583.575-1.675v-3.25c0-.7333-.192-1.2917-.575-1.675-.384-.3833-.942-.575-1.675-.575-.717 0-1.275.1917-1.675.575-.384.3833-.575.9417-.575 1.675v3.25c0 .7167.191 1.275.575 1.675.4.3833.958.575 1.675.575zm13.565 3.25c-1.383 0-2.492-.4833-3.325-1.45s-1.25-2.275-1.25-3.925v-3.5c0-1.6333.417-2.9333 1.25-3.9.833-.9833 1.942-1.475 3.325-1.475 1.133 0 2.025.3333 2.675 1 .65.65.975 1.5667.975 2.75l-.875-.875h.875l-.125-3.375v-3.75h3.75v18.25h-3.625v-2.625h-.875l.875-.875c0 1.1833-.325 2.1083-.975 2.775-.65.65-1.542.975-2.675.975zm1.35-3.25c.683 0 1.217-.1917 1.6-.575.383-.4.575-.9583.575-1.675v-3.25c0-.7167-.192-1.2667-.575-1.65-.383-.4-.917-.6-1.6-.6-.7 0-1.242.2-1.625.6-.367.3833-.55.9333-.55 1.65v3.25c0 .7167.183 1.275.55 1.675.383.3833.925.575 1.625.575zm15.09 3.25c-1.216 0-2.283-.225-3.2-.675-.9-.4667-1.6-1.1083-2.1-1.925-.483-.8333-.725-1.8-.725-2.9v-3.25c0-1.1.242-2.0583.725-2.875.5-.8333 1.2-1.475 2.1-1.925.917-.4667 1.984-.7 3.2-.7 1.217 0 2.267.2333 3.15.7.9.45 1.592 1.0917 2.075 1.925.5.8167.75 1.775.75 2.875v2.5h-8.425v.75c0 .8667.209 1.525.625 1.975.417.4333 1.042.65 1.875.65.584 0 1.05-.1 1.4-.3.367-.2.609-.475.725-.825h3.675c-.3 1.2-.983 2.1667-2.05 2.9-1.05.7333-2.316 1.1-3.8 1.1zm2.4-8.175v-.625c0-.85-.2-1.5-.6-1.95-.383-.45-.983-.675-1.8-.675-.816 0-1.433.2333-1.85.7-.4.4667-.6 1.125-.6 1.975v.375l5.1-.05zm21.706 7.925v-18.25h5.875c1.85 0 3.325.425 4.425 1.275 1.1.8333 1.65 1.9667 1.65 3.4 0 .8-.192 1.5-.575 2.1-.367.6-.867 1.0667-1.5 1.4-.617.3333-1.292.5-2.025.5v.075c.816-.0167 1.558.1333 2.225.45.683.3167 1.233.7917 1.65 1.425.416.6333.625 1.4167.625 2.35 0 1.0667-.259 2-.775 2.8-.5.7833-1.217 1.3917-2.15 1.825-.934.4333-2.042.65-3.325.65zm3.625-3.025h2.325c.816 0 1.458-.2167 1.925-.65.466-.4333.7-1.0333.7-1.8s-.234-1.3667-.7-1.8c-.467-.45-1.109-.675-1.925-.675h-2.325zm0-7.875h2.2c.733 0 1.308-.1917 1.725-.575.416-.4.625-.9333.625-1.6 0-.6833-.209-1.2083-.625-1.575-.417-.3833-.992-.575-1.725-.575h-2.2zm17.215 11.15c-1.217 0-2.275-.225-3.175-.675-.9-.4667-1.6-1.1083-2.1-1.925-.483-.8333-.725-1.8-.725-2.9v-3.25c0-1.1.242-2.0583.725-2.875.5-.8333 1.2-1.475 2.1-1.925.9-.4667 1.958-.7 3.175-.7 1.233 0 2.292.2333 3.175.7.9.45 1.592 1.0917 2.075 1.925.5.8167.75 1.775.75 2.875v3.25c0 1.1-.25 2.0667-.75 2.9-.483.8167-1.175 1.4583-2.075 1.925-.883.45-1.942.675-3.175.675zm0-3.25c.733 0 1.292-.1917 1.675-.575.383-.4.575-.9583.575-1.675v-3.25c0-.7333-.192-1.2917-.575-1.675s-.942-.575-1.675-.575c-.717 0-1.275.1917-1.675.575-.383.3833-.575.9417-.575 1.675v3.25c0 .7167.192 1.275.575 1.675.4.3833.958.575 1.675.575zm14.99 3.25c-1.217 0-2.275-.225-3.175-.675-.9-.4667-1.6-1.1083-2.1-1.925-.483-.8333-.725-1.8-.725-2.9v-3.25c0-1.1.242-2.0583.725-2.875.5-.8333 1.2-1.475 2.1-1.925.9-.4667 1.958-.7 3.175-.7 1.233 0 2.292.2333 3.175.7.9.45 1.592 1.0917 2.075 1.925.5.8167.75 1.775.75 2.875v3.25c0 1.1-.25 2.0667-.75 2.9-.483.8167-1.175 1.4583-2.075 1.925-.883.45-1.942.675-3.175.675zm0-3.25c.733 0 1.292-.1917 1.675-.575.383-.4.575-.9583.575-1.675v-3.25c0-.7333-.192-1.2917-.575-1.675s-.942-.575-1.675-.575c-.717 0-1.275.1917-1.675.575-.383.3833-.575.9417-.575 1.675v3.25c0 .7167.192 1.275.575 1.675.4.3833.958.575 1.675.575zm16.49 3c-1.4 0-2.5-.4-3.3-1.2s-1.2-1.9-1.2-3.3v-5.875h-3.625v-3.375h3.625v-3.875h3.75v3.875h5.125v3.375h-5.125v5.875c0 .75.375 1.125 1.125 1.125h3.75v3.375zm13.566.25c-1.217 0-2.284-.225-3.2-.675-.917-.4667-1.625-1.1083-2.125-1.925-.5-.8333-.75-1.8-.75-2.9v-3.25c0-1.1167.25-2.0833.75-2.9s1.208-1.45 2.125-1.9c.916-.4667 1.983-.7 3.2-.7 1.816 0 3.266.4583 4.35 1.375 1.083.9167 1.658 2.1667 1.725 3.75h-3.75c-.05-.5833-.284-1.0417-.7-1.375-.4-.3333-.942-.5-1.625-.5-.75 0-1.325.1917-1.725.575s-.6.9417-.6 1.675v3.25c0 .7167.2 1.275.6 1.675.4.3833.975.575 1.725.575.683 0 1.225-.1583 1.625-.475.416-.3333.65-.8.7-1.4h3.75c-.067 1.5833-.642 2.8333-1.725 3.75-1.084.9167-2.534 1.375-4.35 1.375zm13.14 0c-1.383 0-2.483-.375-3.3-1.125-.8-.75-1.2-1.7667-1.2-3.05 0-1.3833.475-2.4417 1.425-3.175.967-.75 2.35-1.125 4.15-1.125h2.85v-1.025c0-.5333-.192-.9583-.575-1.275-.367-.3167-.867-.475-1.5-.475-.583 0-1.067.1333-1.45.4s-.617.6333-.7 1.1h-3.625c.15-1.3833.75-2.475 1.8-3.275 1.067-.8167 2.433-1.225 4.1-1.225 1.75 0 3.133.4333 4.15 1.3 1.033.85 1.55 2 1.55 3.45v9.25h-3.625v-2.25h-.6l.625-.875c0 1.0333-.375 1.8583-1.125 2.475-.733.6-1.717.9-2.95.9zm1.4-2.75c.733 0 1.333-.1917 1.8-.575.483-.4.725-.9167.725-1.55v-1.475h-2.775c-.567 0-1.025.1667-1.375.5-.35.3167-.525.7417-.525 1.275 0 .5667.192 1.0167.575 1.35.383.3167.908.475 1.575.475zm8.915 2.5v-13.75h2.95v2h.6l-.475.35c0-.7833.225-1.4083.675-1.875.45-.4833 1.008-.725 1.675-.725.717 0 1.275.3083 1.675.925s.6 1.4333.6 2.45l-.45-1.125h.7l-.225.35c0-.7833.217-1.4083.65-1.875.433-.4833 1.017-.725 1.75-.725.833 0 1.508.3167 2.025.95.517.6167.775 1.4667.775 2.55v10.5h-3.225v-10.25c0-.3833-.083-.675-.25-.875-.167-.2167-.408-.325-.725-.325s-.558.1083-.725.325c-.167.2-.25.4917-.25.875v10.25h-2.575v-10.25c0-.3833-.083-.675-.25-.875-.167-.2167-.408-.325-.725-.325s-.558.1083-.725.325c-.167.2-.25.4917-.25.875v10.25zm15.59 4.5v-18.25h3.625v2.625h.875l-.875.875c0-1.1833.325-2.1.975-2.75.65-.6667 1.542-1 2.675-1 1.384 0 2.492.4917 3.325 1.475.834.9667 1.25 2.2667 1.25 3.9v3.5c0 1.0833-.191 2.0333-.575 2.85-.366.8-.891 1.425-1.575 1.875-.683.4333-1.491.65-2.425.65-1.133 0-2.025-.325-2.675-.975-.65-.6667-.975-1.5917-.975-2.775l.875.875h-.875l.125 3.375v3.75zm5.925-7.5c.7 0 1.234-.1917 1.6-.575.384-.4.575-.9583.575-1.675v-3.25c0-.7333-.191-1.2917-.575-1.675-.366-.3833-.9-.575-1.6-.575-.683 0-1.216.2-1.6.6-.383.3833-.575.9333-.575 1.65v3.25c0 .7167.192 1.275.575 1.675.384.3833.917.575 1.6.575z"/><path d="m263.136 67 1.184-3.04-3.44-8.64h1.392l2.128 5.712c.139.3627.256.7147.352 1.056s.16.5973.192.768c.043-.1707.107-.4267.192-.768s.187-.6933.304-1.056l1.904-5.712h1.376l-4.224 11.68zm13.13 0v-3.248c-.171.0427-.438.0853-.8.128-.363.032-.768.048-1.216.048-1.056.0107-1.878-.2507-2.464-.784-.576-.5333-.864-1.2853-.864-2.256v-2.688h1.264v2.688c0 .5973.181 1.0613.544 1.392.373.3307.901.496 1.584.496.49 0 .906-.016 1.248-.048.341-.0427.576-.08.704-.112v-4.416h1.264v8.8zm4.49 0v-8.8h1.232v5.008c0 .2987-.011.6187-.032.96-.011.3307-.027.6453-.048.944-.022.2987-.043.5493-.064.752l3.728-7.664h1.648v8.8h-1.232v-5.008c0-.3093.005-.6293.016-.96.021-.3307.042-.6453.064-.944.032-.3093.053-.5653.064-.768l-3.744 7.68zm12.841.16c-.682 0-1.28-.1333-1.792-.4s-.912-.6453-1.2-1.136c-.277-.5013-.416-1.0933-.416-1.776v-2.496c0-.6827.139-1.2693.416-1.76.288-.5013.688-.8853 1.2-1.152s1.11-.4 1.792-.4c1.003 0 1.808.272 2.416.816s.923 1.2853.944 2.224h-1.264c-.021-.608-.218-1.0773-.592-1.408-.362-.3307-.864-.496-1.504-.496-.65 0-1.168.192-1.552.576-.384.3733-.576.9067-.576 1.6v2.496c0 .6827.192 1.216.576 1.6s.902.576 1.552.576c.64 0 1.142-.1653 1.504-.496.374-.3413.571-.8107.592-1.408h1.264c-.021.9387-.336 1.68-.944 2.224s-1.413.816-2.416.816zm6.426-.16v-8.8h1.264v3.232h2.64c.981 0 1.755.2507 2.32.752.576.4907.864 1.168.864 2.032 0 .8533-.288 1.5307-.864 2.032-.565.5013-1.339.752-2.32.752zm1.264-1.152h2.64c.608 0 1.072-.1387 1.392-.416.32-.288.48-.6933.48-1.216s-.16-.9227-.48-1.2c-.32-.288-.784-.432-1.392-.432h-2.64zm16.82 3.392v-3.328h.72c.181-.2027.368-.5653.56-1.088.202-.5333.309-1.1787.32-1.936l.096-4.688h5.6v7.712h1.136v3.328h-1.136v-2.24h-6.16v2.24zm2.08-3.328h3.952v-6.576h-3.136l-.064 3.568c-.011.8-.102 1.456-.272 1.968-.171.512-.331.8587-.48 1.04zm9.913 3.968 1.296-3.44-3.264-8.24h1.408l2.08 5.488c.086.2133.166.4533.24.72.086.256.15.4693.192.64.054-.1707.118-.3893.192-.656.075-.2667.15-.5067.224-.72l1.952-5.472h1.36l-4.336 11.68zm7.93-2.88v-8.8h1.76l1.28 3.584c.107.3093.208.624.304.944s.165.5707.208.752c.053-.1813.123-.432.208-.752.096-.32.197-.64.304-.96l1.232-3.568h1.744v8.8h-1.232v-2.112c0-.4587.005-.9493.016-1.472s.021-1.0453.032-1.568.027-1.0133.048-1.472c.021-.4693.037-.88.048-1.232l-1.744 5.216h-1.344l-1.744-5.184c.021.4267.037.9653.048 1.616.011.64.021 1.3173.032 2.032.021.7147.032 1.4027.032 2.064v2.112zm12.426.16c-.928 0-1.659-.2347-2.192-.704-.534-.48-.8-1.1253-.8-1.936 0-.8.261-1.4293.784-1.888.522-.4693 1.226-.704 2.112-.704h2.8v-.928c0-.5867-.171-1.04-.512-1.36-.342-.32-.827-.48-1.456-.48-.555 0-1.019.1227-1.392.368-.363.2453-.571.576-.624.992h-1.28c.106-.7573.458-1.36 1.056-1.808.608-.448 1.365-.672 2.272-.672.981 0 1.76.2667 2.336.8.576.5227.864 1.232.864 2.128v6.032h-1.248v-1.712h-.208l.24-.256c0 .6507-.251 1.168-.752 1.552-.502.384-1.168.576-2 .576zm.304-1.024c.704 0 1.28-.176 1.728-.528s.672-.8107.672-1.376v-1.328h-2.784c-.502 0-.902.1387-1.2.416-.299.2773-.448.656-.448 1.136 0 .512.181.9227.544 1.232.362.2987.858.448 1.488.448zm9.338.864v-7.664h-3.2v-1.136h7.68v1.136h-3.2v7.664zm7.081 0v-8.8h1.264v3.232h2.64c.982 0 1.755.2507 2.32.752.576.4907.864 1.168.864 2.032 0 .8533-.288 1.5307-.864 2.032-.565.5013-1.338.752-2.32.752zm1.264-1.152h2.64c.608 0 1.072-.1387 1.392-.416.32-.288.48-.6933.48-1.216s-.16-.9227-.48-1.2c-.32-.288-.784-.432-1.392-.432h-2.64zm9.434 3.712 1.248-4.976h1.92l-2.064 4.976zm18.052-2.56v-8.8h1.28v3.696h1.664l2.608-3.696h1.456l-2.96 4.192 3.024 4.608h-1.488l-2.64-4h-1.664v4zm12.089.16c-.928 0-1.658-.2347-2.192-.704-.533-.48-.8-1.1253-.8-1.936 0-.8.262-1.4293.784-1.888.523-.4693 1.227-.704 2.112-.704h2.8v-.928c0-.5867-.17-1.04-.512-1.36-.341-.32-.826-.48-1.456-.48-.554 0-1.018.1227-1.392.368-.362.2453-.57.576-.624.992h-1.28c.107-.7573.459-1.36 1.056-1.808.608-.448 1.366-.672 2.272-.672.982 0 1.76.2667 2.336.8.576.5227.864 1.232.864 2.128v6.032h-1.248v-1.712h-.208l.24-.256c0 .6507-.25 1.168-.752 1.552-.501.384-1.168.576-2 .576zm.304-1.024c.704 0 1.28-.176 1.728-.528s.672-.8107.672-1.376v-1.328h-2.784c-.501 0-.901.1387-1.2.416-.298.2773-.448.656-.448 1.136 0 .512.182.9227.544 1.232.363.2987.859.448 1.488.448zm6.794.864v-8.8h1.28v3.696h1.664l2.608-3.696h1.456l-2.96 4.192 3.024 4.608h-1.488l-2.64-4h-1.664v4zm19.124 2.88v-11.68h1.264v1.552h.336l-.384.528c0-.6933.224-1.2373.672-1.632.458-.4053 1.061-.608 1.808-.608.885 0 1.589.2933 2.112.88.533.576.8 1.3653.8 2.368v2.608c0 .672-.123 1.2533-.368 1.744-.246.48-.587.8533-1.024 1.12-.427.2667-.934.4-1.52.4-.736 0-1.334-.2027-1.792-.608-.459-.4053-.688-.9493-.688-1.632l.336.528h-.304l.016 1.792v2.64zm3.296-3.824c.64 0 1.136-.192 1.488-.576.362-.384.544-.928.544-1.632v-2.496c0-.7147-.182-1.2587-.544-1.632-.352-.384-.848-.576-1.488-.576-.619 0-1.115.1973-1.488.592-.363.384-.544.9227-.544 1.616v2.496c0 .6933.181 1.2373.544 1.632.373.384.869.576 1.488.576zm8.857 1.104c-.928 0-1.658-.2347-2.192-.704-.533-.48-.8-1.1253-.8-1.936 0-.8.262-1.4293.784-1.888.523-.4693 1.227-.704 2.112-.704h2.8v-.928c0-.5867-.17-1.04-.512-1.36-.341-.32-.826-.48-1.456-.48-.554 0-1.018.1227-1.392.368-.362.2453-.57.576-.624.992h-1.28c.107-.7573.459-1.36 1.056-1.808.608-.448 1.366-.672 2.272-.672.982 0 1.76.2667 2.336.8.576.5227.864 1.232.864 2.128v6.032h-1.248v-1.712h-.208l.24-.256c0 .6507-.25 1.168-.752 1.552-.501.384-1.168.576-2 .576zm.304-1.024c.704 0 1.28-.176 1.728-.528s.672-.8107.672-1.376v-1.328h-2.784c-.501 0-.901.1387-1.2.416-.298.2773-.448.656-.448 1.136 0 .512.182.9227.544 1.232.363.2987.859.448 1.488.448zm9.562.992c-.917 0-1.659-.1973-2.224-.592s-.907-.928-1.024-1.6h1.328c.085.3093.293.5653.624.768.341.192.773.288 1.296.288h.784c.544 0 .971-.1333 1.28-.4.32-.2773.48-.624.48-1.04 0-.448-.149-.8107-.448-1.088s-.725-.416-1.28-.416h-1.968v-1.104h1.936c.501 0 .885-.128 1.152-.384.277-.256.416-.5867.416-.992 0-.2773-.064-.5173-.192-.72s-.315-.3573-.56-.464c-.245-.1173-.528-.176-.848-.176h-.832c-.48 0-.875.1067-1.184.32-.309.2027-.501.464-.576.784h-1.328c.107-.6613.432-1.2.976-1.616.555-.416 1.259-.624 2.112-.624h.832c.597 0 1.115.1013 1.552.304s.773.4853 1.008.848c.245.3627.368.7893.368 1.28 0 .5333-.165.976-.496 1.328-.32.3413-.773.5333-1.36.576v.064c.704.0427 1.221.2507 1.552.624.331.3627.496.864.496 1.504 0 .7573-.283 1.3707-.848 1.84-.555.4587-1.301.688-2.24.688zm6.762 2.752v-11.68h1.264v1.552h.336l-.384.528c0-.6933.224-1.2373.672-1.632.458-.4053 1.061-.608 1.808-.608.885 0 1.589.2933 2.112.88.533.576.8 1.3653.8 2.368v2.608c0 .672-.123 1.2533-.368 1.744-.246.48-.587.8533-1.024 1.12-.427.2667-.934.4-1.52.4-.736 0-1.334-.2027-1.792-.608-.459-.4053-.688-.9493-.688-1.632l.336.528h-.304l.016 1.792v2.64zm3.296-3.824c.64 0 1.136-.192 1.488-.576.362-.384.544-.928.544-1.632v-2.496c0-.7147-.182-1.2587-.544-1.632-.352-.384-.848-.576-1.488-.576-.619 0-1.115.1973-1.488.592-.363.384-.544.9227-.544 1.616v2.496c0 .6933.181 1.2373.544 1.632.373.384.869.576 1.488.576zm8.857 1.104c-.927 0-1.658-.2347-2.191-.704-.534-.48-.8-1.1253-.8-1.936 0-.8.261-1.4293.784-1.888.522-.4693 1.226-.704 2.112-.704h2.8v-.928c0-.5867-.171-1.04-.512-1.36-.342-.32-.827-.48-1.456-.48-.555 0-1.019.1227-1.392.368-.363.2453-.571.576-.624.992h-1.28c.106-.7573.458-1.36 1.056-1.808.608-.448 1.365-.672 2.272-.672.981 0 1.76.2667 2.336.8.576.5227.863 1.232.863 2.128v6.032h-1.247v-1.712h-.208l.24-.256c0 .6507-.251 1.168-.752 1.552-.502.384-1.168.576-2.001.576zm.305-1.024c.704 0 1.28-.176 1.728-.528s.672-.8107.672-1.376v-1.328h-2.784c-.502 0-.902.1387-1.2.416-.299.2773-.448.656-.448 1.136 0 .512.181.9227.544 1.232.362.2987.858.448 1.488.448zm9.977 1.024c-1.024 0-1.829-.304-2.416-.912-.586-.608-.88-1.4453-.88-2.512v-4.096c0-1.3867.347-2.4533 1.04-3.2.694-.7467 1.686-1.12 2.976-1.12h2.176v1.264h-2.176c-.896 0-1.578.2667-2.048.8-.469.5227-.704 1.2747-.704 2.256v1.104h.224l-.224.384c.011-.64.224-1.1413.64-1.504.427-.3627 1.008-.544 1.744-.544.939 0 1.664.2987 2.176.896.512.5867.768 1.408.768 2.464v1.296c0 .7147-.133 1.328-.4 1.84-.256.512-.629.9067-1.12 1.184-.49.2667-1.082.4-1.776.4zm0-1.136c.651 0 1.152-.1973 1.504-.592s.528-.96.528-1.696v-1.296c0-.7253-.176-1.2907-.528-1.696s-.853-.608-1.504-.608c-.65 0-1.152.2027-1.504.608s-.528.9707-.528 1.696v1.296c0 .736.176 1.3013.528 1.696.363.3947.864.592 1.504.592zm9.594 1.12c-.683 0-1.275-.1333-1.776-.4s-.891-.6507-1.168-1.152-.416-1.0933-.416-1.776v-2.432c0-.6933.139-1.2853.416-1.776.277-.5013.667-.8853 1.168-1.152s1.093-.4 1.776-.4 1.275.1333 1.776.4.891.6507 1.168 1.152c.277.4907.416 1.0773.416 1.76v2.448c0 .6827-.139 1.2747-.416 1.776s-.667.8853-1.168 1.152-1.093.4-1.776.4zm0-1.136c.661 0 1.173-.1867 1.536-.56s.544-.9173.544-1.632v-2.432c0-.7147-.187-1.2587-.56-1.632-.363-.3733-.869-.56-1.52-.56s-1.163.1867-1.536.56c-.363.3733-.544.9173-.544 1.632v2.432c0 .7147.181 1.2587.544 1.632.373.3733.885.56 1.536.56zm8.954.992v-7.664h-3.2v-1.136h7.68v1.136h-3.2v7.664zm12.106 0v-3.248c-.171.0427-.438.0853-.8.128-.363.032-.768.048-1.216.048-1.056.0107-1.878-.2507-2.464-.784-.576-.5333-.864-1.2853-.864-2.256v-2.688h1.264v2.688c0 .5973.181 1.0613.544 1.392.373.3307.901.496 1.584.496.49 0 .906-.016 1.248-.048.341-.0427.576-.08.704-.112v-4.416h1.264v8.8zm4.489 0v-8.8h1.232v5.008c0 .2987-.01.6187-.032.96-.01.3307-.026.6453-.048.944-.021.2987-.042.5493-.064.752l3.728-7.664h1.648v8.8h-1.232v-5.008c0-.3093.006-.6293.016-.96.022-.3307.043-.6453.064-.944.032-.3093.054-.5653.064-.768l-3.744 7.68zm9.642 0v-8.8h1.28v3.696h1.664l2.608-3.696h1.456l-2.96 4.192 3.024 4.608h-1.488l-2.64-4h-1.664v4zm17.571-4.72v-1.136h9.601v1.136zm20.756 4.72v-8.8h3.776c.875 0 1.563.208 2.064.624.501.4053.752.9707.752 1.696 0 .608-.208 1.0987-.624 1.472-.405.3627-.949.544-1.632.544v-.112c.736 0 1.328.192 1.776.576.448.3733.672.8747.672 1.504 0 .7787-.267 1.392-.8 1.84-.523.4373-1.248.656-2.176.656zm1.248-1.12h2.56c.523 0 .939-.1227 1.248-.368.309-.256.464-.5973.464-1.024 0-.448-.155-.7947-.464-1.04-.309-.256-.725-.384-1.248-.384h-2.56zm0-3.92h2.528c.469 0 .843-.1173 1.12-.352.288-.2347.432-.5547.432-.96s-.144-.7253-.432-.96c-.277-.2453-.651-.368-1.12-.368h-2.528zm17.652 5.04v-8.8h1.76l1.28 3.584c.106.3093.208.624.304.944s.165.5707.208.752c.053-.1813.122-.432.208-.752.096-.32.197-.64.304-.96l1.232-3.568h1.744v8.8h-1.232v-2.112c0-.4587.005-.9493.016-1.472.01-.5227.021-1.0453.032-1.568.01-.5227.026-1.0133.048-1.472.021-.4693.037-.88.048-1.232l-1.744 5.216h-1.344l-1.744-5.184c.021.4267.037.9653.048 1.616.01.64.021 1.3173.032 2.032.021.7147.032 1.4027.032 2.064v2.112zm12.425.16c-.928 0-1.658-.2347-2.192-.704-.533-.48-.8-1.1253-.8-1.936 0-.8.262-1.4293.784-1.888.523-.4693 1.227-.704 2.112-.704h2.8v-.928c0-.5867-.17-1.04-.512-1.36-.341-.32-.826-.48-1.456-.48-.554 0-1.018.1227-1.392.368-.362.2453-.57.576-.624.992h-1.28c.107-.7573.459-1.36 1.056-1.808.608-.448 1.366-.672 2.272-.672.982 0 1.76.2667 2.336.8.576.5227.864 1.232.864 2.128v6.032h-1.248v-1.712h-.208l.24-.256c0 .6507-.25 1.168-.752 1.552-.501.384-1.168.576-2 .576zm.304-1.024c.704 0 1.28-.176 1.728-.528s.672-.8107.672-1.376v-1.328h-2.784c-.501 0-.901.1387-1.2.416-.298.2773-.448.656-.448 1.136 0 .512.182.9227.544 1.232.363.2987.859.448 1.488.448zm5.626.976v-1.2h.32c.459 0 .795-.1867 1.008-.56.213-.384.325-1.0187.336-1.904l.112-5.248h5.808v8.8h-1.28v-7.648h-3.28l-.096 4.144c-.011.832-.112 1.5147-.304 2.048-.181.5333-.459.928-.832 1.184-.363.256-.837.384-1.424.384zm13.946.048c-.683 0-1.275-.1333-1.776-.4-.502-.2773-.891-.6667-1.168-1.168-.278-.5013-.416-1.0827-.416-1.744v-2.496c0-.672.138-1.2533.416-1.744.277-.5013.666-.8853 1.168-1.152.501-.2773 1.093-.416 1.776-.416.682 0 1.274.1387 1.776.416.501.2667.89.6507 1.168 1.152.277.4907.416 1.072.416 1.744v1.552h-5.472v.944c0 .7147.181 1.2693.544 1.664.373.384.896.576 1.568.576.565 0 1.024-.112 1.376-.336.362-.224.592-.5493.688-.976h1.264c-.118.736-.475 1.3173-1.072 1.744-.598.4267-1.35.64-2.256.64zm2.112-5.104v-.704c0-.7147-.182-1.264-.544-1.648-.363-.3947-.886-.592-1.568-.592-.672 0-1.195.1973-1.568.592-.363.384-.544.9333-.544 1.648v.56h4.352zm4.25 4.944v-8.8h1.28v3.744h3.904v-3.744h1.28v8.8h-1.28v-3.904h-3.904v3.904zm9.673 0v-8.8h1.264v3.232h2.64c.982 0 1.755.2507 2.32.752.576.4907.864 1.168.864 2.032 0 .8533-.288 1.5307-.864 2.032-.565.5013-1.338.752-2.32.752zm1.264-1.152h2.64c.608 0 1.072-.1387 1.392-.416.32-.288.48-.6933.48-1.216s-.16-.9227-.48-1.2c-.32-.288-.784-.432-1.392-.432h-2.64zm8.298 1.152v-8.8h1.28v3.696h1.664l2.608-3.696h1.456l-2.96 4.192 3.024 4.608h-1.488l-2.64-4h-1.664v4zm12.778.144c-.683 0-1.275-.1333-1.776-.4-.502-.2667-.891-.6507-1.168-1.152-.278-.5013-.416-1.0933-.416-1.776v-2.432c0-.6933.138-1.2853.416-1.776.277-.5013.666-.8853 1.168-1.152.501-.2667 1.093-.4 1.776-.4.682 0 1.274.1333 1.776.4.501.2667.89.6507 1.168 1.152.277.4907.416 1.0773.416 1.76v2.448c0 .6827-.139 1.2747-.416 1.776-.278.5013-.667.8853-1.168 1.152-.502.2667-1.094.4-1.776.4zm0-1.136c.661 0 1.173-.1867 1.536-.56.362-.3733.544-.9173.544-1.632v-2.432c0-.7147-.187-1.2587-.56-1.632-.363-.3733-.87-.56-1.52-.56-.651 0-1.163.1867-1.536.56-.363.3733-.544.9173-.544 1.632v2.432c0 .7147.181 1.2587.544 1.632.373.3733.885.56 1.536.56zm6.362.992v-8.8h1.232v5.008c0 .2987-.011.6187-.032.96-.011.3307-.027.6453-.048.944-.022.2987-.043.5493-.064.752l3.728-7.664h1.648v8.8h-1.232v-5.008c0-.3093.005-.6293.016-.96.021-.3307.042-.6453.064-.944.032-.3093.053-.5653.064-.768l-3.744 7.68zm3.296-10.256c-.758 0-1.366-.208-1.824-.624-.448-.4267-.672-.9867-.672-1.68h1.024c0 .4373.128.7893.384 1.056.266.2667.624.4 1.072.4.458 0 .821-.1333 1.088-.4.266-.2667.4-.6187.4-1.056h1.024c0 .6933-.23 1.2533-.688 1.68-.448.416-1.051.624-1.808.624zm16.467 10.256v-8.8h6.24v1.152h-4.976v7.648zm9.002 2.88v-11.68h1.264v1.552h.336l-.384.528c0-.6933.224-1.2373.672-1.632.458-.4053 1.061-.608 1.808-.608.885 0 1.589.2933 2.112.88.533.576.8 1.3653.8 2.368v2.608c0 .672-.123 1.2533-.368 1.744-.246.48-.587.8533-1.024 1.12-.427.2667-.934.4-1.52.4-.736 0-1.334-.2027-1.792-.608-.459-.4053-.688-.9493-.688-1.632l.336.528h-.304l.016 1.792v2.64zm3.296-3.824c.64 0 1.136-.192 1.488-.576.362-.384.544-.928.544-1.632v-2.496c0-.7147-.182-1.2587-.544-1.632-.352-.384-.848-.576-1.488-.576-.619 0-1.115.1973-1.488.592-.363.384-.544.9227-.544 1.616v2.496c0 .6933.181 1.2373.544 1.632.373.384.869.576 1.488.576zm7.69 3.824 1.296-3.44-3.264-8.24h1.408l2.08 5.488c.085.2133.165.4533.239.72.086.256.15.4693.193.64.053-.1707.117-.3893.192-.656.074-.2667.149-.5067.224-.72l1.952-5.472h1.36l-4.336 11.68zm8.217-2.88v-8.8h6.464v8.8h-1.28v-7.648h-3.904v7.648zm9.594 0v-8.8h6.464v8.8h-1.28v-7.648h-3.904v7.648zm12.826.16c-.683 0-1.275-.1333-1.776-.4-.502-.2773-.891-.6667-1.168-1.168-.278-.5013-.416-1.0827-.416-1.744v-2.496c0-.672.138-1.2533.416-1.744.277-.5013.666-.8853 1.168-1.152.501-.2773 1.093-.416 1.776-.416.682 0 1.274.1387 1.776.416.501.2667.89.6507 1.168 1.152.277.4907.416 1.072.416 1.744v1.552h-5.472v.944c0 .7147.181 1.2693.544 1.664.373.384.896.576 1.568.576.565 0 1.024-.112 1.376-.336.362-.224.592-.5493.688-.976h1.264c-.118.736-.475 1.3173-1.072 1.744-.598.4267-1.35.64-2.256.64zm2.112-5.104v-.704c0-.7147-.182-1.264-.544-1.648-.363-.3947-.886-.592-1.568-.592-.672 0-1.195.1973-1.568.592-.363.384-.544.9333-.544 1.648v.56h4.352zm17.091 5.104c-.682 0-1.28-.1333-1.792-.4s-.912-.6453-1.2-1.136c-.277-.5013-.416-1.0933-.416-1.776v-2.496c0-.6827.139-1.2693.416-1.76.288-.5013.688-.8853 1.2-1.152s1.11-.4 1.792-.4c1.003 0 1.808.272 2.416.816s.923 1.2853.944 2.224h-1.264c-.021-.608-.218-1.0773-.592-1.408-.362-.3307-.864-.496-1.504-.496-.65 0-1.168.192-1.552.576-.384.3733-.576.9067-.576 1.6v2.496c0 .6827.192 1.216.576 1.6s.902.576 1.552.576c.64 0 1.142-.1653 1.504-.496.374-.3413.571-.8107.592-1.408h1.264c-.021.9387-.336 1.68-.944 2.224s-1.413.816-2.416.816zm15.94-.16v-8.8h1.28v3.744h3.904v-3.744h1.28v8.8h-1.28v-3.904h-3.904v3.904zm12.137.16c-.927 0-1.658-.2347-2.191-.704-.534-.48-.8-1.1253-.8-1.936 0-.8.261-1.4293.784-1.888.522-.4693 1.226-.704 2.112-.704h2.8v-.928c0-.5867-.171-1.04-.512-1.36-.342-.32-.827-.48-1.456-.48-.555 0-1.019.1227-1.392.368-.363.2453-.571.576-.624.992h-1.28c.106-.7573.458-1.36 1.056-1.808.608-.448 1.365-.672 2.272-.672.981 0 1.76.2667 2.336.8.576.5227.863 1.232.863 2.128v6.032h-1.247v-1.712h-.208l.24-.256c0 .6507-.251 1.168-.752 1.552-.502.384-1.168.576-2.001.576zm.305-1.024c.704 0 1.28-.176 1.728-.528s.672-.8107.672-1.376v-1.328h-2.784c-.502 0-.902.1387-1.2.416-.299.2773-.448.656-.448 1.136 0 .512.181.9227.544 1.232.362.2987.858.448 1.488.448zm9.993 1.024c-.682 0-1.28-.1333-1.792-.4s-.912-.6453-1.2-1.136c-.277-.5013-.416-1.0933-.416-1.776v-2.496c0-.6827.139-1.2693.416-1.76.288-.5013.688-.8853 1.2-1.152s1.11-.4 1.792-.4c1.003 0 1.808.272 2.416.816s.923 1.2853.944 2.224h-1.264c-.021-.608-.218-1.0773-.592-1.408-.362-.3307-.864-.496-1.504-.496-.65 0-1.168.192-1.552.576-.384.3733-.576.9067-.576 1.6v2.496c0 .6827.192 1.216.576 1.6s.902.576 1.552.576c.64 0 1.142-.1653 1.504-.496.374-.3413.571-.8107.592-1.408h1.264c-.021.9387-.336 1.68-.944 2.224s-1.413.816-2.416.816zm8.938-.16v-7.664h-3.2v-1.136h7.68v1.136h-3.2v7.664zm9.546.16c-.928 0-1.659-.2347-2.192-.704-.534-.48-.8-1.1253-.8-1.936 0-.8.261-1.4293.784-1.888.522-.4693 1.226-.704 2.112-.704h2.8v-.928c0-.5867-.171-1.04-.512-1.36-.342-.32-.827-.48-1.456-.48-.555 0-1.019.1227-1.392.368-.363.2453-.571.576-.624.992h-1.28c.106-.7573.458-1.36 1.056-1.808.608-.448 1.365-.672 2.272-.672.981 0 1.76.2667 2.336.8.576.5227.864 1.232.864 2.128v6.032h-1.248v-1.712h-.208l.24-.256c0 .6507-.251 1.168-.752 1.552-.502.384-1.168.576-2 .576zm.304-1.024c.704 0 1.28-.176 1.728-.528s.672-.8107.672-1.376v-1.328h-2.784c-.502 0-.902.1387-1.2.416-.299.2773-.448.656-.448 1.136 0 .512.181.9227.544 1.232.362.2987.858.448 1.488.448zm6.746.864v-8.8h3.776c.874 0 1.562.208 2.064.624.501.4053.752.9707.752 1.696 0 .608-.208 1.0987-.624 1.472-.406.3627-.95.544-1.632.544v-.112c.736 0 1.328.192 1.776.576.448.3733.672.8747.672 1.504 0 .7787-.267 1.392-.8 1.84-.523.4373-1.248.656-2.176.656zm1.248-1.12h2.56c.522 0 .938-.1227 1.248-.368.309-.256.464-.5973.464-1.024 0-.448-.155-.7947-.464-1.04-.31-.256-.726-.384-1.248-.384h-2.56zm0-3.92h2.528c.469 0 .842-.1173 1.12-.352.288-.2347.432-.5547.432-.96s-.144-.7253-.432-.96c-.278-.2453-.651-.368-1.12-.368h-2.528zm8.345 5.04v-8.8h1.28v3.744h3.904v-3.744h1.28v8.8h-1.28v-3.904h-3.904v3.904zm9.594 0v-8.8h1.232v5.008c0 .2987-.011.6187-.032.96-.011.3307-.027.6453-.048.944s-.043.5493-.064.752l3.728-7.664h1.648v8.8h-1.232v-5.008c0-.3093.005-.6293.016-.96.021-.3307.043-.6453.064-.944.032-.3093.053-.5653.064-.768l-3.744 7.68zm9.642 0v-8.8h1.28v3.696h1.664l2.608-3.696h1.456l-2.96 4.192 3.024 4.608h-1.488l-2.64-4h-1.664v4zm12.778.144c-.683 0-1.275-.1333-1.776-.4-.502-.2667-.891-.6507-1.168-1.152-.278-.5013-.416-1.0933-.416-1.776v-2.432c0-.6933.138-1.2853.416-1.776.277-.5013.666-.8853 1.168-1.152.501-.2667 1.093-.4 1.776-.4.682 0 1.274.1333 1.776.4.501.2667.89.6507 1.168 1.152.277.4907.416 1.0773.416 1.76v2.448c0 .6827-.139 1.2747-.416 1.776-.278.5013-.667.8853-1.168 1.152-.502.2667-1.094.4-1.776.4zm0-1.136c.661 0 1.173-.1867 1.536-.56.362-.3733.544-.9173.544-1.632v-2.432c0-.7147-.187-1.2587-.56-1.632-.363-.3733-.87-.56-1.52-.56-.651 0-1.163.1867-1.536.56-.363.3733-.544.9173-.544 1.632v2.432c0 .7147.181 1.2587.544 1.632.373.3733.885.56 1.536.56zm6.073.992v-8.8h1.76l1.28 3.584c.107.3093.208.624.304.944s.166.5707.208.752c.054-.1813.123-.432.208-.752.096-.32.198-.64.304-.96l1.232-3.568h1.744v8.8h-1.232v-2.112c0-.4587.006-.9493.016-1.472.011-.5227.022-1.0453.032-1.568.011-.5227.027-1.0133.048-1.472.022-.4693.038-.88.048-1.232l-1.744 5.216h-1.344l-1.744-5.184c.022.4267.038.9653.048 1.616.011.64.022 1.3173.032 2.032.022.7147.032 1.4027.032 2.064v2.112zm13.114.16c-.395 0-.709-.112-.944-.336-.224-.2347-.336-.544-.336-.928 0-.4053.112-.7253.336-.96.235-.2347.549-.352.944-.352s.704.1173.928.352c.235.2347.352.5547.352.96 0 .384-.117.6933-.352.928-.224.224-.533.336-.928.336z"/><path d="m71.1748 42.5209h55.9049v5.79789h-55.9049z"/><path d="m60 30.7421 5.7833-.0093c.037.3686.1974.6357.4812.8016.2899.1596.7557.2395 1.3973.2395.5367 0 .9407-.0584 1.2121-.1751.2776-.1228.4164-.304.4164-.5435 0-.4177-.7186-.691-2.156-.8199-.2838-.0308-.4997-.0522-.6477-.0645-.0124 0-.0247 0-.037 0-2.3195-.2273-3.8864-.5221-4.7007-.8845-.475-.2088-.8421-.5374-1.1012-.9857-.2529-.4484-.3794-.9766-.3794-1.5846 0-1.2222.5614-2.1159 1.6842-2.6809 1.1227-.5651 2.9117-.8476 5.3669-.8476 2.3195 0 4.0437.2887 5.1726.866 1.1351.5773 1.7396 1.471 1.8136 2.6809h-5.4502c-.0308-.3562-.1974-.6142-.4996-.7739-.2961-.1596-.7742-.2395-1.4343-.2395-.5614 0-.9747.0614-1.24.1843-.259.1167-.3886.3009-.3886.5527 0 .4054.6169.6572 1.8507.7555.2591.0245.4565.043.5922.0553.0987.0061.2529.0184.4627.0368 2.486.2211 3.9357.4023 4.349.5436.8143.2886 1.388.6448 1.7211 1.0686.3332.4177.4997.9919.4997 1.7228 0 1.3512-.5984 2.3278-1.7951 2.9297-1.1906.6019-3.1462.9028-5.8666.9028-2.4182 0-4.1949-.2979-5.33-.8936-1.1289-.6019-1.7211-1.5478-1.7766-2.8375z"/><path d="m86.298 29.1943c-.4935.2457-1.3387.4084-2.5354.4883-.3455.0184-.6108.0368-.7958.0553-.6971.0614-1.1721.1627-1.425.304-.2468.1413-.3702.3593-.3702.6541 0 .3317.1481.5896.4442.7739.3023.1781.7279.2671 1.2769.2671 1.0426 0 1.8754-.2088 2.4984-.6264.6231-.4177.9346-.9704.9346-1.6583 0-.0737-.0031-.1259-.0092-.1566 0-.0369-.0062-.0707-.0185-.1014zm.0185 3.4732c-.5922.6203-1.3078 1.0748-2.1468 1.3635-.8328.2825-1.8908.4238-3.1739.4238-1.7334 0-3.0351-.2887-3.9049-.866s-1.3047-1.4464-1.3047-2.6072c0-.3808.0493-.7309.148-1.0503.0987-.3255.2375-.6049.4164-.8383.364-.4484.8483-.78 1.4528-.995.6107-.2211 1.7581-.3869 3.4422-.4975.5552-.0368 1.277-.0706 2.1653-.1013 1.789-.0737 2.6835-.3225 2.6835-.7463 0-.2886-.1882-.5189-.5645-.6909-.3763-.1781-.8883-.2672-1.536-.2672-.839 0-1.4374.0799-1.7952.2395-.3578.1597-.5675.433-.6292.82h-4.895c.0987-1.2837.7002-2.2019 1.8044-2.7546 1.1104-.5589 2.9364-.8384 5.478-.8384 1.388 0 2.557.0983 3.507.2948.95.1904 1.6687.476 2.156.8568.5305.4115.9068.909 1.1289 1.4925.2221.5773.3331 1.4064.3331 2.4874v4.0813c0 .393.034.6971.1018.912.0741.2088.1974.3747.3702.4975v.2303h-4.9321c-.0863-.2088-.1573-.433-.2128-.6725-.0493-.2457-.0802-.5036-.0925-.7739z"/><path d="m93.7284 34.1139v-10.567h4.8302v10.567zm0-11.433v-2.6809h4.8302v2.6809z"/><path d="m101.214 34.1139v-10.567h4.738v1.0963c.635-.4422 1.296-.7677 1.98-.9765.685-.215 1.422-.3225 2.212-.3225 1.554 0 2.689.3931 3.405 1.1793.722.7861 1.083 2.0329 1.083 3.7403v5.8501h-4.738v-4.9656c0-.7862-.126-1.3267-.379-1.6215-.253-.3009-.694-.4514-1.324-.4514-.697 0-1.246.1658-1.647.4975-.395.3316-.592.7892-.592 1.3727v5.1683z"/><path d="m124.255 34.0955c-.413.0676-.814.1167-1.203.1474-.388.0369-.765.0553-1.129.0553-.586 0-1.113-.0369-1.582-.1106-.469-.0675-.888-.175-1.258-.3224-.525-.215-.895-.5282-1.111-.9397s-.324-1.0841-.324-2.0176v-4.1365h-1.693v-2.9573h1.693v-3.4548h4.775v3.4548h1.703v2.9573h-1.703v2.1926c0 1.0441.077 1.6767.231 1.8978.155.2211.463.3317.926.3317h.675z"/><path d="m140.402 29.4707c-.173 1.6644-.894 2.9143-2.165 3.7496-1.265.8353-3.069 1.2529-5.413 1.2529-2.425 0-4.3-.4913-5.626-1.474-1.32-.9827-1.981-2.3708-1.981-4.1642 0-1.7873.661-3.1753 1.981-4.1641 1.326-.9889 3.201-1.4833 5.626-1.4833 2.251 0 4.006.3839 5.265 1.1516 1.258.7677 1.999 1.907 2.221 3.4179h-5.08c-.192-.4852-.479-.8475-.861-1.0871-.382-.2456-.861-.3685-1.434-.3685-.845 0-1.509.2242-1.99.6725-.481.4423-.721 1.0564-.721 1.8426 0 .7616.234 1.3666.703 1.8149.469.4484 1.101.6725 1.897.6725.66 0 1.215-.1627 1.665-.4882.457-.3317.741-.7801.852-1.3451z"/><path d="m146.583 28.835c0 .7248.219 1.3021.657 1.732.445.4299 1.04.6449 1.786.6449.747 0 1.339-.215 1.777-.6449.444-.4299.666-1.0072.666-1.732 0-.7309-.222-1.3082-.666-1.732-.438-.4299-1.03-.6449-1.777-.6449-.746 0-1.341.215-1.786.6449-.438.4238-.657 1.0011-.657 1.732zm-5.006 0c0-1.7934.651-3.1814 1.953-4.1641 1.301-.9889 3.14-1.4833 5.515-1.4833 2.381 0 4.216.4914 5.506 1.474 1.295.9827 1.943 2.3739 1.943 4.1734 0 1.7934-.648 3.1815-1.943 4.1642-1.29.9827-3.125 1.474-5.506 1.474-2.375 0-4.214-.4913-5.515-1.474-1.302-.9827-1.953-2.3708-1.953-4.1642z"/><path d="m167.496 28.835c0-.7124-.222-1.2806-.666-1.7043-.438-.4238-1.024-.6357-1.758-.6357-.735 0-1.324.2119-1.768.6357-.438.4237-.657.9919-.657 1.7043 0 .7063.219 1.2744.657 1.7044.444.4238 1.033.6357 1.768.6357.734 0 1.32-.2119 1.758-.6357.444-.43.666-.9981.666-1.7044zm4.738-8.4573v13.7362h-4.507l-.037-1.041c-.573.4361-1.209.7646-1.906.9857-.697.215-1.465.3225-2.304.3225-1.77 0-3.183-.5036-4.238-1.5109-1.055-1.0134-1.582-2.3585-1.582-4.0352 0-1.7013.53-3.0525 1.591-4.0536 1.067-1.0011 2.502-1.5017 4.303-1.5017.765 0 1.468.0952 2.11.2856.648.1843 1.258.4668 1.832.8476v-4.0352z"/><path d="m178.933 27.665h5.626c-.068-.5835-.333-1.0349-.796-1.3543-.462-.3193-1.082-.479-1.86-.479-.839 0-1.514.1566-2.026.4698-.506.3132-.821.7677-.944 1.3635zm10.401 3.2245c-.358 1.1731-1.188 2.0636-2.489 2.6717-1.302.608-3.035.912-5.201.912-2.406 0-4.265-.4913-5.579-1.474s-1.971-2.3708-1.971-4.1642c0-1.7995.657-3.1907 1.971-4.1734 1.314-.9826 3.173-1.474 5.579-1.474 2.554 0 4.488.5558 5.802 1.6675 1.32 1.1055 1.98 2.7331 1.98 4.8828v.1842h-10.252c0 .5712.24 1.0134.721 1.3267.482.3132 1.157.4698 2.027.4698.574 0 1.052-.0706 1.434-.2119.383-.1412.657-.347.824-.6172z"/><path d="m65.5517 61.3031c0 .7063.2221 1.2744.6662 1.7044.4442.4238 1.0302.6357 1.7581.6357.7403 0 1.3294-.2119 1.7674-.6357.4442-.43.6663-.9981.6663-1.7044 0-.7124-.2221-1.2806-.6663-1.7043-.438-.4238-1.0271-.6357-1.7674-.6357-.7279 0-1.3139.2119-1.7581.6357-.4441.4237-.6662.9919-.6662 1.7043zm-4.7377 5.2789v-13.7362h4.7377v4.0352c.5737-.3808 1.1813-.6633 1.8229-.8476.6477-.1904 1.354-.2856 2.119-.2856 1.8013 0 3.2325.5006 4.2935 1.5017 1.0673 1.0011 1.6009 2.3523 1.6009 4.0536 0 1.6767-.5275 3.0218-1.5824 4.0352-1.0548 1.0073-2.4675 1.5109-4.238 1.5109-.8328 0-1.5977-.1075-2.2948-.3225-.6971-.2211-1.3325-.5497-1.9062-.9857l-.037 1.041z"/><path d="m81.5507 61.3031c0 .7248.219 1.3021.657 1.732.4441.4299 1.0394.6449 1.7859.6449.7464 0 1.3386-.215 1.7766-.6449.4442-.4299.6662-1.0072.6662-1.732 0-.7309-.222-1.3082-.6662-1.732-.438-.4299-1.0302-.6449-1.7766-.6449-.7465 0-1.3418.215-1.7859.6449-.438.4238-.657 1.0011-.657 1.732zm-5.0061 0c0-1.7934.6508-3.1815 1.9525-4.1641 1.3016-.9889 3.1399-1.4833 5.515-1.4833 2.3812 0 4.2164.4914 5.5057 1.474 1.2955.9827 1.9432 2.3739 1.9432 4.1734 0 1.7934-.6477 3.1815-1.9432 4.1642-1.2893.9827-3.1245 1.474-5.5057 1.474-2.3751 0-4.2134-.4913-5.515-1.474-1.3017-.9827-1.9525-2.3708-1.9525-4.1642z"/><path d="m97.6145 61.3031c0 .7248.219 1.3021.657 1.732.4441.4299 1.0394.6449 1.7855.6449.747 0 1.339-.215 1.777-.6449.444-.4299.666-1.0072.666-1.732 0-.7309-.222-1.3082-.666-1.732-.438-.4299-1.03-.6449-1.777-.6449-.7461 0-1.3414.215-1.7855.6449-.438.4238-.657 1.0011-.657 1.732zm-5.0061 0c0-1.7934.6508-3.1815 1.9525-4.1641 1.3016-.9889 3.1399-1.4833 5.5151-1.4833 2.381 0 4.216.4914 5.506 1.474 1.295.9827 1.943 2.3739 1.943 4.1734 0 1.7934-.648 3.1815-1.943 4.1642-1.29.9827-3.125 1.474-5.506 1.474-2.3752 0-4.2135-.4913-5.5151-1.474-1.3017-.9827-1.9525-2.3708-1.9525-4.1642z"/><path d="m116.519 66.5636c-.413.0676-.814.1167-1.203.1474-.389.0368-.765.0553-1.129.0553-.586 0-1.113-.0369-1.582-.1106-.469-.0675-.888-.175-1.259-.3224-.524-.215-.894-.5282-1.11-.9397s-.324-1.0841-.324-2.0176v-4.1365h-1.693v-2.9573h1.693v-3.4548h4.775v3.4548h1.702v2.9573h-1.702v2.1926c0 1.0441.077 1.6767.231 1.8978s.463.3317.926.3317h.675z"/><path d="m132.666 61.9388c-.173 1.6644-.894 2.9143-2.165 3.7496-1.265.8353-3.069 1.2529-5.413 1.2529-2.425 0-4.3-.4913-5.626-1.474-1.321-.9827-1.981-2.3708-1.981-4.1642 0-1.7873.66-3.1753 1.981-4.1641 1.326-.9889 3.201-1.4833 5.626-1.4833 2.251 0 4.006.3839 5.265 1.1516 1.258.7677 1.998 1.907 2.221 3.4179h-5.081c-.191-.4852-.478-.8475-.86-1.0871-.383-.2457-.861-.3685-1.434-.3685-.845 0-1.509.2242-1.99.6725-.481.4423-.722 1.0564-.722 1.8426 0 .7616.235 1.3665.704 1.8149s1.101.6725 1.897.6725c.66 0 1.215-.1627 1.665-.4882.457-.3317.74-.7801.852-1.3451z"/><path d="m144.168 61.6624c-.494.2457-1.339.4084-2.535.4883-.346.0184-.611.0368-.796.0553-.697.0614-1.172.1627-1.425.304-.247.1412-.37.3593-.37.6541 0 .3316.148.5896.444.7739.302.1781.728.2671 1.277.2671 1.042 0 1.875-.2088 2.498-.6264.623-.4177.935-.9704.935-1.6583 0-.0737-.003-.1259-.01-.1566 0-.0369-.006-.0707-.018-.1014zm.018 3.4732c-.592.6203-1.307 1.0748-2.146 1.3635-.833.2825-1.891.4238-3.174.4238-1.734 0-3.035-.2887-3.905-.866s-1.305-1.4464-1.305-2.6072c0-.3808.05-.7309.148-1.0503.099-.3255.238-.6049.417-.8383.364-.4484.848-.78 1.452-.995.611-.2211 1.759-.3869 3.443-.4975.555-.0368 1.277-.0706 2.165-.1013 1.789-.0737 2.683-.3225 2.683-.7463 0-.2886-.188-.5189-.564-.6909-.376-.1781-.888-.2672-1.536-.2672-.839 0-1.437.0799-1.795.2395-.358.1597-.568.433-.629.82h-4.895c.098-1.2837.7-2.2019 1.804-2.7546 1.11-.5589 2.936-.8384 5.478-.8384 1.388 0 2.557.0983 3.507.2948.95.1904 1.669.476 2.156.8568.53.4115.907.909 1.129 1.4925.222.5773.333 1.4064.333 2.4874v4.0812c0 .3931.034.6971.102.9121.074.2088.197.3747.37.4975v.2303h-4.932c-.087-.2088-.157-.433-.213-.6725-.049-.2457-.08-.5036-.093-.7739z"/><path d="m151.423 66.582v-10.567h4.7v1.0963c.63-.4483 1.274-.7769 1.934-.9857.66-.2089 1.373-.3133 2.138-.3133.857 0 1.576.1536 2.156.4607.58.3009 1.076.78 1.49 1.4371.697-.651 1.428-1.1301 2.193-1.4371.765-.3071 1.613-.4607 2.544-.4607 1.499 0 2.597.3931 3.294 1.1793.698.7861 1.046 2.0329 1.046 3.7403v5.8501h-4.682v-4.9657c0-.7738-.123-1.3112-.37-1.6122-.247-.3071-.666-.4606-1.259-.4606-.666 0-1.187.1658-1.564.4975-.376.3316-.564.7892-.564 1.3727v5.1683h-4.599v-4.9657c0-.7738-.123-1.3112-.37-1.6122-.247-.3071-.669-.4606-1.268-.4606-.66 0-1.178.1658-1.554.4975-.377.3316-.565.7892-.565 1.3727v5.1683z"/><path d="m180.163 61.3031c0 .7063.223 1.2744.667 1.7044.444.4238 1.03.6357 1.758.6357.74 0 1.329-.2119 1.767-.6357.444-.43.666-.9981.666-1.7044 0-.7124-.222-1.2806-.666-1.7043-.438-.4238-1.027-.6357-1.767-.6357-.728 0-1.314.2119-1.758.6357-.444.4237-.667.9919-.667 1.7043zm-4.737 8.6968v-13.9849h4.515l.037 1.0226c.562-.4299 1.191-.7524 1.888-.9673.697-.215 1.468-.3225 2.313-.3225 1.771 0 3.184.5067 4.238 1.5201 1.055 1.0073 1.583 2.3524 1.583 4.0352 0 1.6952-.534 3.0433-1.601 4.0444-1.061 1.0011-2.492 1.5017-4.294 1.5017-.765 0-1.471-.0921-2.119-.2764-.641-.1904-1.249-.476-1.823-.8568v4.2839z"/></g></g></svg>