<svg fill="none" height="160" viewBox="0 0 375 160" width="375" xmlns="http://www.w3.org/2000/svg" xmlns:xlink="http://www.w3.org/1999/xlink"><filter id="a" color-interpolation-filters="sRGB" filterUnits="userSpaceOnUse" height="258" width="258" x="164" y="-30"><feFlood flood-opacity="0" result="BackgroundImageFix"/><feBlend in="SourceGraphic" in2="BackgroundImageFix" mode="normal" result="shape"/><feGaussianBlur result="effect1_foregroundBlur_69_50" stdDeviation="50"/></filter><filter id="b" color-interpolation-filters="sRGB" filterUnits="userSpaceOnUse" height="270" width="270" x="-109" y="-126"><feFlood flood-opacity="0" result="BackgroundImageFix"/><feBlend in="SourceGraphic" in2="BackgroundImageFix" mode="normal" result="shape"/><feGaussianBlur result="effect1_foregroundBlur_69_50" stdDeviation="50"/></filter><clipPath id="c"><path d="m0 0h375v160h-375z"/></clipPath><g clip-path="url(#c)"><path d="m0 0h375v160h-375z" fill="#232735"/><g filter="url(#a)"><circle cx="293" cy="99" fill="#738ada" r="29"/></g><g filter="url(#b)"><circle cx="26" cy="9" fill="#738ada" r="35"/></g><path d="m20 48h35v5.99998h-35z" fill="#738ada"/><g fill="#fff"><path d="m20 38.702 6.4969-.0106c.0416.4245.2217.7322.5405.9233.3257.1839.8489.2759 1.5697.2759.6029 0 1.0568-.0672 1.3617-.2017.3119-.1415.4678-.3502.4678-.6261 0-.4811-.8074-.7959-2.422-.9445-.3188-.0353-.5614-.0601-.7277-.0743-.0139 0-.0277 0-.0416 0-2.6057-.2617-4.3659-.6013-5.2806-1.0187-.5337-.2406-.946-.6191-1.237-1.1355-.2842-.5165-.4262-1.1249-.4262-1.8253 0-1.4079.6306-2.4373 1.8918-3.0882 1.2613-.6509 3.271-.9763 6.0292-.9763 2.6056 0 4.5426.3325 5.8108.9975 1.2751.6651 1.9542 1.6945 2.0374 3.0882h-6.1227c-.0346-.4103-.2217-.7075-.5613-.8914-.3326-.184-.8697-.2759-1.6112-.2759-.6307 0-1.095.0707-1.393.2122-.291.1344-.4366.3467-.4366.6367 0 .467.693.757 2.079.8702.2911.0283.5129.0496.6653.0637.1109.0071.2842.0212.5198.0425 2.7928.2546 4.4213.4634 4.8856.6261.9148.3325 1.5593.7428 1.9335 1.231.3742.4811.5613 1.1426.5613 1.9845 0 1.5564-.6722 2.6813-2.0166 3.3747-1.3375.6933-3.5343 1.04-6.5904 1.04-2.7166 0-4.7124-.3432-5.9876-1.0294-1.2681-.6934-1.9334-1.7829-1.9958-3.2686z"/><path d="m55 37.2375c-.194 1.9173-1.0049 3.357-2.4324 4.3192-1.4207.9622-3.4477 1.4433-6.0811 1.4433-2.7235 0-4.8302-.566-6.3202-1.698-1.483-1.132-2.2245-2.7309-2.2245-4.7967 0-2.0588.7415-3.6577 2.2245-4.7967 1.49-1.1391 3.5967-1.7086 6.3202-1.7086 2.5294 0 4.501.4422 5.9147 1.3265 1.4138.8844 2.2454 2.1968 2.4948 3.9372h-5.7068c-.2148-.559-.5371-.9764-.9668-1.2523-.4296-.283-.9667-.4245-1.6112-.4245-.9494 0-1.6944.2583-2.2349.7747-.5405.5094-.8108 1.2169-.8108 2.1225 0 .8772.2633 1.5741.79 2.0906.5267.5164 1.237.7747 2.131.7747.7415 0 1.3652-.1875 1.8711-.5625.5128-.382.8316-.8985.9563-1.5494z"/><path d="m25.2147 68.6c0 .8017.2444 1.4466.7333 1.9346.4889.481 1.1339.7216 1.9351.7216.8148 0 1.4632-.2406 1.9453-.7216.4889-.488.7333-1.1329.7333-1.9346 0-.8087-.2444-1.4536-.7333-1.9347-.4821-.481-1.1305-.7215-1.9453-.7215-.8012 0-1.4462.2405-1.9351.7215-.4889.4811-.7333 1.126-.7333 1.9347zm-5.2147 5.9921v-15.5921h5.2147v4.5804c.6314-.4323 1.3002-.753 2.0064-.9621.7129-.2161 1.4904-.3242 2.3323-.3242 1.9827 0 3.558.5682 4.7258 1.7046 1.1747 1.1364 1.762 2.6701 1.762 4.6013 0 1.9032-.5805 3.43-1.7416 4.5803-1.1611 1.1434-2.716 1.7151-4.6647 1.7151-.9166 0-1.7586-.122-2.5258-.366-.7673-.251-1.4667-.624-2.0981-1.119l-.0408 1.1817z"/><path d="m54.0278 69.3215c-.1901 1.8893-.9846 3.3081-2.3833 4.2562-1.3919.9482-3.378 1.4222-5.9582 1.4222-2.6684 0-4.7326-.5577-6.1924-1.6732-1.453-1.1154-2.1796-2.691-2.1796-4.7267 0-2.0288.7266-3.6044 2.1796-4.7268 1.4598-1.1225 3.524-1.6837 6.1924-1.6837 2.4784 0 4.4101.4358 5.7952 1.3072 1.3852.8715 2.2 2.1647 2.4444 3.8797h-5.5915c-.2105-.5507-.5262-.962-.9472-1.2339-.421-.2789-.9472-.4183-1.5786-.4183-.9303 0-1.6602.2544-2.1898.7634-.5296.5019-.7944 1.1991-.7944 2.0915 0 .8644.258 1.5511.774 2.0601.5161.5089 1.212.7634 2.0879.7634.7266 0 1.3377-.1848 1.8333-.5543.5025-.3764.8148-.8854.937-1.5268z"/><path d="m70.452 47v-16.06h10.296v16.06h-3.3v-12.98h-3.696v12.98zm15.1934 3.96 1.65-4.554-4.532-11.506h3.586l1.826 5.28c.132.396.264.88.396 1.452.1467.5573.2567 1.012.33 1.364.0733-.352.176-.8067.308-1.364.1467-.572.286-1.056.418-1.452l1.76-5.28h3.432l-5.72 16.06zm14.6876-3.96v-9.02h-3.9602v-3.08h11.2202v3.08h-3.96v9.02zm13.279.22c-1.217 0-2.185-.33-2.904-.99-.704-.66-1.056-1.5547-1.056-2.684 0-1.2173.418-2.1487 1.254-2.794.851-.66 2.068-.99 3.652-.99h2.508v-.902c0-.4693-.168-.8433-.506-1.122-.322-.2787-.762-.418-1.32-.418-.513 0-.938.1173-1.276.352-.337.2347-.542.5573-.616.968h-3.19c.132-1.2173.66-2.178 1.584-2.882.939-.7187 2.142-1.078 3.608-1.078 1.54 0 2.758.3813 3.652 1.144.91.748 1.364 1.76 1.364 3.036v8.14h-3.19v-1.98h-.528l.55-.77c0 .9093-.33 1.6353-.99 2.178-.645.528-1.51.792-2.596.792zm1.232-2.42c.646 0 1.174-.1687 1.584-.506.426-.352.638-.8067.638-1.364v-1.298h-2.442c-.498 0-.902.1467-1.21.44-.308.2787-.462.6527-.462 1.122 0 .4987.169.8947.506 1.188.338.2787.8.418 1.386.418zm13.544 2.42c-1.071 0-2.01-.198-2.816-.594-.792-.4107-1.408-.9753-1.848-1.694-.426-.7333-.638-1.584-.638-2.552v-2.86c0-.968.212-1.8113.638-2.53.44-.7333 1.056-1.298 1.848-1.694.806-.4107 1.745-.616 2.816-.616 1.07 0 1.994.2053 2.772.616.792.396 1.4.9607 1.826 1.694.44.7187.66 1.562.66 2.53v2.2h-7.414v.66c0 .7627.183 1.342.55 1.738.366.3813.916.572 1.65.572.513 0 .924-.088 1.232-.264.322-.176.535-.418.638-.726h3.234c-.264 1.056-.866 1.9067-1.804 2.552-.924.6453-2.039.968-3.344.968zm2.112-7.194v-.55c0-.748-.176-1.32-.528-1.716-.338-.396-.866-.594-1.584-.594-.719 0-1.262.2053-1.628.616-.352.4107-.528.99-.528 1.738v.33l4.488-.044zm5.337 6.974v-12.1h2.706v9.9h1.87v-9.9h2.288v9.9h1.87v-9.9h2.706v12.1zm13.851 0v-12.1h3.3v3.63h2.838c1.526 0 2.714.3813 3.564 1.144.866.748 1.298 1.7893 1.298 3.124 0 1.2907-.44 2.3173-1.32 3.08-.865.748-2.038 1.122-3.52 1.122zm3.3-2.86h2.64c.558 0 .983-.1173 1.276-.352.308-.2493.462-.5867.462-1.012 0-.44-.154-.7773-.462-1.012-.293-.2493-.718-.374-1.276-.374h-2.64zm15.018 3.08c-1.071 0-2.009-.198-2.816-.594-.807-.4107-1.43-.9753-1.87-1.694-.44-.7333-.66-1.584-.66-2.552v-2.86c0-.9827.22-1.8333.66-2.552s1.063-1.276 1.87-1.672c.807-.4107 1.745-.616 2.816-.616 1.599 0 2.875.4033 3.828 1.21s1.459 1.9067 1.518 3.3h-3.3c-.044-.5133-.249-.9167-.616-1.21-.352-.2933-.829-.44-1.43-.44-.66 0-1.166.1687-1.518.506s-.528.8287-.528 1.474v2.86c0 .6307.176 1.122.528 1.474.352.3373.858.506 1.518.506.601 0 1.078-.1393 1.43-.418.367-.2933.572-.704.616-1.232h3.3c-.059 1.3933-.565 2.4933-1.518 3.3s-2.229 1.21-3.828 1.21zm7.625-.22 2.64-4.246c-.777-.2933-1.386-.7553-1.826-1.386s-.66-1.3713-.66-2.222c0-1.3347.448-2.376 1.342-3.124.895-.748 2.134-1.122 3.718-1.122h5.434v12.1h-3.278v-3.828h-1.452l-2.2 3.828zm5.412-6.336h1.98v-3.146h-1.98c-.616 0-1.1.1393-1.452.418s-.528.6673-.528 1.166.169.8873.506 1.166c.352.264.844.396 1.474.396zm21.301 6.336v-12.1h5.478c1.481 0 2.655.3007 3.52.902.88.5867 1.32 1.386 1.32 2.398 0 .8067-.33 1.4593-.99 1.958-.66.484-1.533.726-2.618.726v-.22c1.188 0 2.134.264 2.838.792.719.528 1.078 1.2247 1.078 2.09 0 1.0707-.44 1.914-1.32 2.53-.865.616-2.046.924-3.542.924zm3.234-2.332h2.376c.543 0 .975-.1247 1.298-.374.337-.264.506-.6013.506-1.012 0-.44-.169-.792-.506-1.056-.323-.264-.755-.396-1.298-.396h-2.376zm0-4.774h2.266c.499 0 .895-.1173 1.188-.352.293-.2493.44-.572.44-.968 0-.4107-.147-.7407-.44-.99s-.689-.374-1.188-.374h-2.266zm28.385 7.326c-1.071 0-2.009-.198-2.816-.594-.807-.4107-1.43-.9753-1.87-1.694-.44-.7333-.66-1.584-.66-2.552v-2.86c0-.9827.22-1.8333.66-2.552s1.063-1.276 1.87-1.672c.807-.4107 1.745-.616 2.816-.616 1.599 0 2.875.4033 3.828 1.21s1.459 1.9067 1.518 3.3h-3.3c-.044-.5133-.249-.9167-.616-1.21-.352-.2933-.829-.44-1.43-.44-.66 0-1.166.1687-1.518.506s-.528.8287-.528 1.474v2.86c0 .6307.176 1.122.528 1.474.352.3373.858.506 1.518.506.601 0 1.078-.1393 1.43-.418.367-.2933.572-.704.616-1.232h3.3c-.059 1.3933-.565 2.4933-1.518 3.3s-2.229 1.21-3.828 1.21zm7.977-.22v-12.1h2.904v5.5c0 .3667-.022.8287-.066 1.386-.044.5427-.102 1.0927-.176 1.65-.058.5573-.124 1.0487-.198 1.474l3.828-10.01h4.004v12.1h-2.904v-5.5c0-.3813.022-.814.066-1.298.044-.4987.096-.9973.154-1.496.059-.4987.118-.924.176-1.276l-3.784 9.57zm13.192 0v-12.1h3.3v4.422h3.696v-4.422h3.3v12.1h-3.3v-4.598h-3.696v4.598zm16.689 0v-9.02h-3.96v-3.08h11.22v3.08h-3.96v9.02zm13.28.22c-1.218 0-2.186-.33-2.904-.99-.704-.66-1.056-1.5547-1.056-2.684 0-1.2173.418-2.1487 1.254-2.794.85-.66 2.068-.99 3.652-.99h2.508v-.902c0-.4693-.169-.8433-.506-1.122-.323-.2787-.763-.418-1.32-.418-.514 0-.939.1173-1.276.352-.338.2347-.543.5573-.616.968h-3.19c.132-1.2173.66-2.178 1.584-2.882.938-.7187 2.141-1.078 3.608-1.078 1.54 0 2.757.3813 3.652 1.144.909.748 1.364 1.76 1.364 3.036v8.14h-3.19v-1.98h-.528l.55-.77c0 .9093-.33 1.6353-.99 2.178-.646.528-1.511.792-2.596.792zm1.232-2.42c.645 0 1.173-.1687 1.584-.506.425-.352.638-.8067.638-1.364v-1.298h-2.442c-.499 0-.902.1467-1.21.44-.308.2787-.462.6527-.462 1.122 0 .4987.168.8947.506 1.188.337.2787.799.418 1.386.418zm8.439 2.2v-12.1h3.3v4.576h1.628l2.53-4.576h3.674l-3.366 5.918 3.432 6.182h-3.74l-2.552-4.752h-1.606v4.752zm18.339.22c-1.07 0-2.009-.198-2.816-.594-.806-.4107-1.43-.9753-1.87-1.694-.44-.7333-.66-1.584-.66-2.552v-2.86c0-.9827.22-1.8333.66-2.552s1.064-1.276 1.87-1.672c.807-.4107 1.746-.616 2.816-.616 1.599 0 2.875.4033 3.828 1.21.954.8067 1.46 1.9067 1.518 3.3h-3.3c-.044-.5133-.249-.9167-.616-1.21-.352-.2933-.828-.44-1.43-.44-.66 0-1.166.1687-1.518.506s-.528.8287-.528 1.474v2.86c0 .6307.176 1.122.528 1.474.352.3373.858.506 1.518.506.602 0 1.078-.1393 1.43-.418.367-.2933.572-.704.616-1.232h3.3c-.058 1.3933-.564 2.4933-1.518 3.3-.953.8067-2.229 1.21-3.828 1.21zm7.978-.22v-12.1h2.904v5.5c0 .3667-.022.8287-.066 1.386-.044.5427-.103 1.0927-.176 1.65-.059.5573-.125 1.0487-.198 1.474l3.828-10.01h4.004v12.1h-2.904v-5.5c0-.3813.022-.814.066-1.298.044-.4987.095-.9973.154-1.496.058-.4987.117-.924.176-1.276l-3.784 9.57zm18.405.22c-1.071 0-2.009-.198-2.816-.594-.807-.4107-1.43-.9753-1.87-1.694-.44-.7333-.66-1.584-.66-2.552v-2.86c0-.9827.22-1.8333.66-2.552s1.063-1.276 1.87-1.672c.807-.4107 1.745-.616 2.816-.616 1.599 0 2.875.4033 3.828 1.21s1.459 1.9067 1.518 3.3h-3.3c-.044-.5133-.249-.9167-.616-1.21-.352-.2933-.829-.44-1.43-.44-.66 0-1.166.1687-1.518.506s-.528.8287-.528 1.474v2.86c0 .6307.176 1.122.528 1.474.352.3373.858.506 1.518.506.601 0 1.078-.1393 1.43-.418.367-.2933.572-.704.616-1.232h3.3c-.059 1.3933-.565 2.4933-1.518 3.3s-2.229 1.21-3.828 1.21zm13.148 0c-1.071 0-2.01-.198-2.816-.594-.792-.4107-1.408-.9753-1.848-1.694-.426-.7333-.638-1.584-.638-2.552v-2.86c0-.968.212-1.8113.638-2.53.44-.7333 1.056-1.298 1.848-1.694.806-.4107 1.745-.616 2.816-.616 1.07 0 1.994.2053 2.772.616.792.396 1.4.9607 1.826 1.694.44.7187.66 1.562.66 2.53v2.2h-7.414v.66c0 .7627.183 1.342.55 1.738.366.3813.916.572 1.65.572.513 0 .924-.088 1.232-.264.322-.176.535-.418.638-.726h3.234c-.264 1.056-.866 1.9067-1.804 2.552-.924.6453-2.039.968-3.344.968zm2.112-7.194v-.55c0-.748-.176-1.32-.528-1.716-.338-.396-.866-.594-1.584-.594-.719 0-1.262.2053-1.628.616-.352.4107-.528.99-.528 1.738v.33l4.488-.044zm-279.814 36.216c-1.6867 0-3.0287-.4547-4.026-1.364-.9827-.924-1.474-2.1633-1.474-3.718h3.3c0 .6747.198 1.2173.594 1.628.396.396.9313.594 1.606.594s1.21-.1907 1.606-.572c.396-.396.594-.9313.594-1.606v-8.184h-3.63v-3.08h6.93v11.264c0 1.5547-.4913 2.7867-1.474 3.696-.9827.8947-2.3247 1.342-4.026 1.342zm12.2894-.022c-1.2173 0-2.1853-.33-2.904-.99-.704-.66-1.056-1.5547-1.056-2.684 0-1.2173.418-2.1487 1.254-2.794.8507-.66 2.068-.99 3.652-.99h2.508v-.902c0-.4693-.1687-.8433-.506-1.122-.3227-.2787-.7627-.418-1.32-.418-.5133 0-.9387.1173-1.276.352s-.5427.5573-.616.968h-3.19c.132-1.2173.66-2.178 1.584-2.882.9387-.7187 2.1413-1.078 3.608-1.078 1.54 0 2.7573.3813 3.652 1.144.9093.748 1.364 1.76 1.364 3.036v8.14h-3.19v-1.98h-.528l.55-.77c0 .9093-.33 1.6353-.99 2.178-.6453.528-1.5107.792-2.596.792zm1.232-2.42c.6453 0 1.1733-.1687 1.584-.506.4253-.352.638-.8067.638-1.364v-1.298h-2.442c-.4987 0-.902.1467-1.21.44-.308.2787-.462.6527-.462 1.122 0 .4987.1687.8947.506 1.188.3373.2787.7993.418 1.386.418zm11.4754 2.2-3.96-12.1h3.41l2.0242 6.798c.117.4107.234.858.352 1.342.117.484.205.8727.264 1.166.073-.2933.161-.682.264-1.166.117-.484.227-.924.33-1.32l2.002-6.82h3.366l-3.916 12.1zm13.6752.22c-1.217 0-2.185-.33-2.904-.99-.704-.66-1.056-1.5547-1.056-2.684 0-1.2173.418-2.1487 1.254-2.794.851-.66 2.068-.99 3.652-.99h2.508v-.902c0-.4693-.168-.8433-.506-1.122-.322-.2787-.762-.418-1.32-.418-.513 0-.938.1173-1.276.352-.337.2347-.542.5573-.616.968h-3.19c.132-1.2173.66-2.178 1.584-2.882.939-.7187 2.142-1.078 3.608-1.078 1.54 0 2.758.3813 3.652 1.144.91.748 1.364 1.76 1.364 3.036v8.14h-3.19v-1.98h-.528l.55-.77c0 .9093-.33 1.6353-.99 2.178-.645.528-1.51.792-2.596.792zm1.232-2.42c.646 0 1.174-.1687 1.584-.506.426-.352.638-.8067.638-1.364v-1.298h-2.442c-.498 0-.902.1467-1.21.44-.308.2787-.462.6527-.462 1.122 0 .4987.169.8947.506 1.188.338.2787.8.418 1.386.418zm13.016 2.42c-.998 0-1.87-.154-2.618-.462-.748-.3227-1.335-.7627-1.76-1.32-.411-.5573-.616-1.21-.616-1.958h3.3c0 .352.154.638.462.858.322.2053.733.308 1.232.308h.968c.601 0 1.056-.11 1.364-.33.322-.22.484-.528.484-.924 0-.3667-.14-.6453-.418-.836-.279-.2053-.712-.3447-1.298-.418l-1.408-.176c-1.511-.1907-2.611-.5573-3.3-1.1-.69-.5427-1.034-1.3713-1.034-2.486 0-1.1733.403-2.0827 1.21-2.728.806-.6453 1.987-.968 3.542-.968h.836c1.481 0 2.662.3227 3.542.968s1.32 1.5107 1.32 2.596h-3.3c0-.2933-.147-.528-.44-.704-.279-.1907-.653-.286-1.122-.286h-.836c-.543 0-.939.0953-1.188.286-.25.176-.374.4473-.374.814 0 .3373.11.594.33.77.234.176.601.3007 1.1.374l1.518.198c1.525.1907 2.654.572 3.388 1.144.748.572 1.122 1.4227 1.122 2.552 0 1.232-.426 2.178-1.276 2.838-.851.66-2.105.99-3.762.99zm13.763 0c-1.071 0-2.009-.198-2.816-.594-.807-.4107-1.43-.9753-1.87-1.694-.44-.7333-.66-1.584-.66-2.552v-2.86c0-.9827.22-1.8333.66-2.552s1.063-1.276 1.87-1.672c.807-.4107 1.745-.616 2.816-.616 1.599 0 2.875.4033 3.828 1.21s1.459 1.9067 1.518 3.3h-3.3c-.044-.5133-.249-.9167-.616-1.21-.352-.2933-.829-.44-1.43-.44-.66 0-1.166.1687-1.518.506s-.528.8287-.528 1.474v2.86c0 .6307.176 1.122.528 1.474.352.3373.858.506 1.518.506.601 0 1.078-.1393 1.43-.418.367-.2933.572-.704.616-1.232h3.3c-.059 1.3933-.565 2.4933-1.518 3.3s-2.229 1.21-3.828 1.21zm8.329-.22v-12.1h3.08v2.31h.836l-.946 1.408c0-1.3053.301-2.288.902-2.948.602-.66 1.482-.99 2.64-.99 1.335 0 2.369.4033 3.102 1.21.748.8067 1.122 1.9433 1.122 3.41v.99h-3.52v-.77c0-.66-.183-1.1733-.55-1.54-.352-.3667-.828-.55-1.43-.55-.63 0-1.114.1833-1.452.55-.322.3667-.484.88-.484 1.54v7.48zm12.928 0v-2.992h4.18v-6.138h-3.63v-2.97h6.71v9.108h3.52v2.992zm5.5-14.014c-.601 0-1.085-.154-1.452-.462-.352-.308-.528-.726-.528-1.254s.176-.946.528-1.254c.367-.308.851-.462 1.452-.462s1.078.154 1.43.462c.367.308.55.726.55 1.254s-.183.946-.55 1.254c-.352.308-.829.462-1.43.462zm7.603 17.974v-16.06h3.19v2.31h.77l-.77.77c0-1.0413.286-1.848.858-2.42.572-.5867 1.357-.88 2.354-.88 1.218 0 2.193.4327 2.926 1.298.734.8507 1.1 1.9947 1.1 3.432v3.08c0 .9533-.168 1.7893-.506 2.508-.322.704-.784 1.254-1.386 1.65-.601.3813-1.312.572-2.134.572-.997 0-1.782-.286-2.354-.858-.572-.5867-.858-1.4007-.858-2.442l.77.77h-.77l.11 2.97v3.3zm5.214-6.6c.616 0 1.086-.1687 1.408-.506.338-.352.506-.8433.506-1.474v-2.86c0-.6453-.168-1.1367-.506-1.474-.322-.3373-.792-.506-1.408-.506-.601 0-1.07.176-1.408.528-.337.3373-.506.8213-.506 1.452v2.86c0 .6307.169 1.122.506 1.474.338.3373.807.506 1.408.506zm14.446 2.64c-1.232 0-2.2-.352-2.904-1.056s-1.056-1.672-1.056-2.904v-5.17h-3.19v-2.97h3.19v-3.41h3.3v3.41h4.51v2.97h-4.51v5.17c0 .66.33.99.99.99h3.3v2.97zm9.253-4.95-.11-4.73h2.2c.601 0 1.078-.1467 1.43-.44.352-.308.528-.7113.528-1.21 0-.5133-.183-.9167-.55-1.21-.352-.2933-.829-.44-1.43-.44h-3.63v-3.08h3.41c1.129 0 2.105.198 2.926.594.821.3813 1.452.924 1.892 1.628.455.704.682 1.54.682 2.508 0 .924-.191 1.7307-.572 2.42s-.917 1.232-1.606 1.628c-.689.3813-1.496.572-2.42.572v1.76zm1.056 5.06c-.499 0-.902-.1393-1.21-.418-.293-.2933-.44-.6673-.44-1.122 0-.4693.147-.8433.44-1.122.308-.2787.711-.418 1.21-.418h.66c.499 0 .895.1393 1.188.418.308.2787.462.6527.462 1.122s-.154.8433-.462 1.122c-.293.2787-.697.418-1.21.418z"/><path d="m21.568 109v-11.68h6.464v11.68h-1.28v-10.528h-3.904v10.528zm12.8258.144c-.6827 0-1.2747-.133-1.776-.4-.5014-.267-.8907-.651-1.168-1.152-.2774-.501-.416-1.093-.416-1.776v-2.432c0-.693.1386-1.285.416-1.776.2773-.501.6666-.885 1.168-1.152.5013-.267 1.0933-.4 1.776-.4.6826 0 1.2746.133 1.776.4.5013.267.8906.651 1.168 1.152.2773.491.416 1.077.416 1.76v2.448c0 .683-.1387 1.275-.416 1.776-.2774.501-.6667.885-1.168 1.152-.5014.267-1.0934.4-1.776.4zm0-1.136c.6613 0 1.1733-.187 1.536-.56.3626-.373.544-.917.544-1.632v-2.432c0-.715-.1867-1.259-.56-1.632-.3627-.373-.8694-.56-1.52-.56-.6507 0-1.1627.187-1.536.56-.3627.373-.544.917-.544 1.632v2.432c0 .715.1813 1.259.544 1.632.3733.373.8853.56 1.536.56zm6.0737.992v-8.8h1.76l1.28 3.584c.1067.309.208.624.304.944s.1653.571.208.752c.0533-.181.1227-.432.208-.752.096-.32.1973-.64.304-.96l1.232-3.568h1.744v8.8h-1.232v-2.112c0-.459.0053-.949.016-1.472s.0213-1.045.032-1.568.0267-1.013.048-1.472c.0213-.469.0373-.88.048-1.232l-1.744 5.216h-1.344l-1.744-5.184c.0213.427.0373.965.048 1.616.0107.64.0213 1.317.032 2.032.0213.715.032 1.403.032 2.064v2.112zm13.1138.144c-.6827 0-1.2747-.133-1.776-.4-.5014-.267-.8907-.651-1.168-1.152-.2774-.501-.416-1.093-.416-1.776v-2.432c0-.693.1386-1.285.416-1.776.2773-.501.6666-.885 1.168-1.152.5013-.267 1.0933-.4 1.776-.4.6826 0 1.2746.133 1.776.4.5013.267.8906.651 1.168 1.152.2773.491.416 1.077.416 1.76v2.448c0 .683-.1387 1.275-.416 1.776-.2774.501-.6667.885-1.168 1.152-.5014.267-1.0934.4-1.776.4zm0-1.136c.6613 0 1.1733-.187 1.536-.56.3626-.373.544-.917.544-1.632v-2.432c0-.715-.1867-1.259-.56-1.632-.3627-.373-.8694-.56-1.52-.56-.6507 0-1.1627.187-1.536.56-.3627.373-.544.917-.544 1.632v2.432c0 .715.1813 1.259.544 1.632.3733.373.8853.56 1.536.56zm5.1617.992 1.92-4.512-1.792-4.288h1.232l1.584 3.888h.944v-3.888h1.088v3.888h.912l1.632-3.888h1.216l-1.792 4.24 1.92 4.56h-1.28l-1.648-4.048h-.96v4.048h-1.088v-4.048h-.96l-1.68 4.048zm14.0258.16c-.6827 0-1.2747-.133-1.776-.4-.5014-.277-.8907-.667-1.168-1.168-.2774-.501-.416-1.083-.416-1.744v-2.496c0-.672.1386-1.253.416-1.744.2773-.501.6666-.885 1.168-1.152.5013-.277 1.0933-.416 1.776-.416.6826 0 1.2746.139 1.776.416.5013.267.8906.651 1.168 1.152.2773.491.416 1.072.416 1.744v1.552h-5.472v.944c0 .715.1813 1.269.544 1.664.3733.384.896.576 1.568.576.5653 0 1.024-.112 1.376-.336.3626-.224.592-.549.688-.976h1.264c-.1174.736-.4747 1.317-1.072 1.744-.5974.427-1.3494.64-2.256.64zm2.112-5.104v-.704c0-.715-.1814-1.264-.544-1.648-.3627-.395-.8854-.592-1.568-.592-.672 0-1.1947.197-1.568.592-.3627.384-.544.933-.544 1.648v.56h4.352zm3.9617 4.944v-8.8h1.76l1.28 3.584c.1067.309.208.624.304.944s.1653.571.208.752c.0533-.181.1227-.432.208-.752.096-.32.1973-.64.304-.96l1.232-3.568h1.744v8.8h-1.232v-2.112c0-.459.0053-.949.016-1.472s.0213-1.045.032-1.568.0267-1.013.048-1.472c.0213-.469.0373-.88.048-1.232l-1.744 5.216h-1.344l-1.744-5.184c.0213.427.0373.965.048 1.616.0107.64.0213 1.317.032 2.032.0213.715.032 1.403.032 2.064v2.112zm19.4595 2.88v-11.68h1.264v1.552h.336l-.384.528c0-.693.224-1.237.672-1.632.459-.405 1.061-.608 1.808-.608.885 0 1.589.293 2.112.88.533.576.8 1.365.8 2.368v2.608c0 .672-.123 1.253-.368 1.744-.245.48-.587.853-1.024 1.12-.427.267-.933.4-1.52.4-.736 0-1.333-.203-1.792-.608-.4587-.405-.688-.949-.688-1.632l.336.528h-.304l.016 1.792v2.64zm3.296-3.824c.64 0 1.136-.192 1.488-.576.363-.384.544-.928.544-1.632v-2.496c0-.715-.181-1.259-.544-1.632-.352-.384-.848-.576-1.488-.576-.619 0-1.115.197-1.488.592-.3627.384-.544.923-.544 1.616v2.496c0 .693.1813 1.237.544 1.632.373.384.869.576 1.488.576zm8.858 1.104c-.928 0-1.659-.235-2.192-.704-.534-.48-.8-1.125-.8-1.936 0-.8.261-1.429.784-1.888.522-.469 1.226-.704 2.112-.704h2.8v-.928c0-.587-.171-1.04-.512-1.36-.342-.32-.827-.48-1.456-.48-.555 0-1.019.123-1.392.368-.363.245-.571.576-.624.992h-1.28c.106-.757.458-1.36 1.056-1.808.608-.448 1.365-.672 2.272-.672.981 0 1.76.267 2.336.8.576.523.864 1.232.864 2.128v6.032h-1.248v-1.712h-.208l.24-.256c0 .651-.251 1.168-.752 1.552-.502.384-1.168.576-2 .576zm.304-1.024c.704 0 1.28-.176 1.728-.528s.672-.811.672-1.376v-1.328h-2.784c-.502 0-.902.139-1.2.416-.299.277-.448.656-.448 1.136 0 .512.181.923.544 1.232.362.299.858.448 1.488.448zm9.562.992c-.918 0-1.659-.197-2.224-.592-.566-.395-.907-.928-1.024-1.6h1.328c.085.309.293.565.624.768.341.192.773.288 1.296.288h.784c.544 0 .97-.133 1.28-.4.32-.277.48-.624.48-1.04 0-.448-.15-.811-.448-1.088-.299-.277-.726-.416-1.28-.416h-1.968v-1.104h1.936c.501 0 .885-.128 1.152-.384.277-.256.416-.587.416-.992 0-.277-.064-.517-.192-.72s-.315-.357-.56-.464c-.246-.117-.528-.176-.848-.176h-.832c-.48 0-.875.107-1.184.32-.31.203-.502.464-.576.784h-1.328c.106-.661.432-1.2.976-1.616.554-.416 1.258-.624 2.112-.624h.832c.597 0 1.114.101 1.552.304.437.203.773.485 1.008.848.245.363.368.789.368 1.28 0 .533-.166.976-.496 1.328-.32.341-.774.533-1.36.576v.064c.704.043 1.221.251 1.552.624.33.363.496.864.496 1.504 0 .757-.283 1.371-.848 1.84-.555.459-1.302.688-2.24.688zm10.009.016c-.682 0-1.274-.133-1.776-.4-.501-.267-.89-.651-1.168-1.152-.277-.501-.416-1.093-.416-1.776v-2.432c0-.693.139-1.285.416-1.776.278-.501.667-.885 1.168-1.152.502-.267 1.094-.4 1.776-.4.683 0 1.275.133 1.776.4.502.267.891.651 1.168 1.152.278.491.416 1.077.416 1.76v2.448c0 .683-.138 1.275-.416 1.776-.277.501-.666.885-1.168 1.152-.501.267-1.093.4-1.776.4zm0-1.136c.662 0 1.174-.187 1.536-.56.363-.373.544-.917.544-1.632v-2.432c0-.715-.186-1.259-.56-1.632-.362-.373-.869-.56-1.52-.56-.65 0-1.162.187-1.536.56-.362.373-.544.917-.544 1.632v2.432c0 .715.182 1.259.544 1.632.374.373.886.56 1.536.56zm9.594 1.152c-1.024 0-1.829-.304-2.416-.912s-.88-1.445-.88-2.512v-4.096c0-1.387.347-2.4533 1.04-3.2s1.685-1.12 2.976-1.12h2.176v1.264h-2.176c-.896 0-1.579.2667-2.048.8-.469.5227-.704 1.275-.704 2.256v1.104h.224l-.224.384c.011-.64.224-1.141.64-1.504.427-.363 1.008-.544 1.744-.544.939 0 1.664.299 2.176.896.512.587.768 1.408.768 2.464v1.296c0 .715-.133 1.328-.4 1.84-.256.512-.629.907-1.12 1.184-.491.267-1.083.4-1.776.4zm0-1.136c.651 0 1.152-.197 1.504-.592s.528-.96.528-1.696v-1.296c0-.725-.176-1.291-.528-1.696s-.853-.608-1.504-.608-1.152.203-1.504.608-.528.971-.528 1.696v1.296c0 .736.176 1.301.528 1.696.363.395.864.592 1.504.592zm6.346 3.856v-11.68h1.264v1.552h.336l-.384.528c0-.693.224-1.237.672-1.632.458-.405 1.061-.608 1.808-.608.885 0 1.589.293 2.112.88.533.576.8 1.365.8 2.368v2.608c0 .672-.123 1.253-.368 1.744-.246.48-.587.853-1.024 1.12-.427.267-.934.4-1.52.4-.736 0-1.334-.203-1.792-.608-.459-.405-.688-.949-.688-1.632l.336.528h-.304l.016 1.792v2.64zm3.296-3.824c.64 0 1.136-.192 1.488-.576.362-.384.544-.928.544-1.632v-2.496c0-.715-.182-1.259-.544-1.632-.352-.384-.848-.576-1.488-.576-.619 0-1.115.197-1.488.592-.363.384-.544.923-.544 1.616v2.496c0 .693.181 1.237.544 1.632.373.384.869.576 1.488.576zm8.857 1.104c-.927 0-1.658-.235-2.191-.704-.534-.48-.8-1.125-.8-1.936 0-.8.261-1.429.784-1.888.522-.469 1.226-.704 2.112-.704h2.8v-.928c0-.587-.171-1.04-.512-1.36-.342-.32-.827-.48-1.456-.48-.555 0-1.019.123-1.392.368-.363.245-.571.576-.624.992h-1.28c.106-.757.458-1.36 1.056-1.808.608-.448 1.365-.672 2.272-.672.981 0 1.76.267 2.336.8.576.523.863 1.232.863 2.128v6.032h-1.247v-1.712h-.208l.24-.256c0 .651-.251 1.168-.752 1.552-.502.384-1.168.576-2.001.576zm.305-1.024c.704 0 1.28-.176 1.728-.528s.672-.811.672-1.376v-1.328h-2.784c-.502 0-.902.139-1.2.416-.299.277-.448.656-.448 1.136 0 .512.181.923.544 1.232.362.299.858.448 1.488.448zm9.337.864v-7.664h-3.2v-1.136h7.68v1.136h-3.2v7.664zm7.082 0v-8.8h1.264v3.232h2.64c.981 0 1.755.251 2.32.752.576.491.864 1.168.864 2.032 0 .853-.288 1.531-.864 2.032-.565.501-1.339.752-2.32.752zm1.264-1.152h2.64c.608 0 1.072-.139 1.392-.416.32-.288.48-.693.48-1.216s-.16-.923-.48-1.2c-.32-.288-.784-.432-1.392-.432h-2.64zm11.498 1.312c-.683 0-1.28-.133-1.792-.4s-.912-.645-1.2-1.136c-.278-.501-.416-1.093-.416-1.776v-2.496c0-.683.138-1.269.416-1.76.288-.501.688-.885 1.2-1.152s1.109-.4 1.792-.4c1.002 0 1.808.272 2.416.816s.922 1.285.944 2.224h-1.264c-.022-.608-.219-1.077-.592-1.408-.363-.331-.864-.496-1.504-.496-.651 0-1.168.192-1.552.576-.384.373-.576.907-.576 1.6v2.496c0 .683.192 1.216.576 1.6s.901.576 1.552.576c.64 0 1.141-.165 1.504-.496.373-.341.57-.811.592-1.408h1.264c-.022.939-.336 1.68-.944 2.224s-1.414.816-2.416.816zm5.85-.16 2.24-3.408c-.683-.149-1.211-.453-1.584-.912-.374-.459-.56-1.035-.56-1.728 0-.853.282-1.525.848-2.016.576-.491 1.354-.736 2.336-.736h3.68v8.8h-1.28v-3.296h-2.128l-2.08 3.296zm3.28-4.432h2.4v-3.232h-2.4c-.576 0-1.035.144-1.376.432-.342.288-.512.683-.512 1.184s.17.896.512 1.184c.341.288.8.432 1.376.432zm16.403 4.432v-8.8h1.232v5.008c0 .299-.011.619-.032.96-.011.331-.027.645-.048.944s-.043.549-.064.752l3.728-7.664h1.648v8.8h-1.232v-5.008c0-.309.005-.629.016-.96.021-.331.043-.645.064-.944.032-.309.053-.565.064-.768l-3.744 7.68zm19.188 0v-8.8h1.28v3.744h3.904v-3.744h1.28v8.8h-1.28v-3.904h-3.904v3.904zm12.137.16c-.928 0-1.658-.235-2.192-.704-.533-.48-.8-1.125-.8-1.936 0-.8.262-1.429.784-1.888.523-.469 1.227-.704 2.112-.704h2.8v-.928c0-.587-.17-1.04-.512-1.36-.341-.32-.826-.48-1.456-.48-.554 0-1.018.123-1.392.368-.362.245-.57.576-.624.992h-1.28c.107-.757.459-1.36 1.056-1.808.608-.448 1.366-.672 2.272-.672.982 0 1.76.267 2.336.8.576.523.864 1.232.864 2.128v6.032h-1.248v-1.712h-.208l.24-.256c0 .651-.25 1.168-.752 1.552-.501.384-1.168.576-2 .576zm.304-1.024c.704 0 1.28-.176 1.728-.528s.672-.811.672-1.376v-1.328h-2.784c-.501 0-.901.139-1.2.416-.298.277-.448.656-.448 1.136 0 .512.182.923.544 1.232.363.299.859.448 1.488.448zm8.122 3.744 1.296-3.44-3.264-8.24h1.408l2.08 5.488c.085.213.165.453.24.72.085.256.149.469.192.64.053-.171.117-.389.192-.656s.149-.507.224-.72l1.952-5.472h1.36l-4.336 11.68zm13.322-2.88v-3.248c-.171.043-.438.085-.8.128-.363.032-.768.048-1.216.048-1.056.011-1.878-.251-2.464-.784-.576-.533-.864-1.285-.864-2.256v-2.688h1.264v2.688c0 .597.181 1.061.544 1.392.373.331.901.496 1.584.496.49 0 .906-.016 1.248-.048.341-.043.576-.08.704-.112v-4.416h1.264v8.8zm4.49 0v-8.8h1.232v5.008c0 .299-.011.619-.032.96-.011.331-.027.645-.048.944-.022.299-.043.549-.064.752l3.728-7.664h1.648v8.8h-1.232v-5.008c0-.309.005-.629.016-.96.021-.331.042-.645.064-.944.032-.309.053-.565.064-.768l-3.744 7.68zm9.305 0v-8.8h1.76l1.28 3.584c.107.309.208.624.304.944s.166.571.208.752c.054-.181.123-.432.208-.752.096-.32.198-.64.304-.96l1.232-3.568h1.744v8.8h-1.232v-2.112c0-.459.006-.949.016-1.472.011-.523.022-1.045.032-1.568.011-.523.027-1.013.048-1.472.022-.469.038-.88.048-1.232l-1.744 5.216h-1.344l-1.744-5.184c.022.427.038.965.048 1.616.011.64.022 1.317.032 2.032.022.715.032 1.403.032 2.064v2.112zm-259.767 23.24v-3.328h.72c.1813-.203.368-.565.56-1.088.2027-.533.3093-1.179.32-1.936l.096-4.688h5.6v7.712h1.136v3.328h-1.136v-2.24h-6.16v2.24zm2.08-3.328h3.952v-6.576h-3.136l-.064 3.568c-.0107.8-.1013 1.456-.272 1.968s-.3307.859-.48 1.04zm9.9138 3.968 1.296-3.44-3.264-8.24h1.408l2.08 5.488c.0853.213.1653.453.2399.72.0854.256.1494.469.1921.64.0533-.171.1173-.389.192-.656.0746-.267.1493-.507.224-.72l1.952-5.472h1.36l-4.336 11.68zm7.9297-2.88v-8.8h1.76l1.28 3.584c.1067.309.208.624.304.944s.1653.571.208.752c.0533-.181.1227-.432.208-.752.096-.32.1973-.64.304-.96l1.232-3.568h1.744v8.8h-1.232v-2.112c0-.459.0053-.949.016-1.472s.0213-1.045.032-1.568.0267-1.013.048-1.472c.0213-.469.0373-.88.048-1.232l-1.744 5.216h-1.344l-1.744-5.184c.0213.427.0373.965.048 1.616.0107.64.0213 1.317.032 2.032.0213.715.032 1.403.032 2.064v2.112zm12.4257.16c-.9279 0-1.6586-.235-2.1919-.704-.5334-.48-.8-1.125-.8-1.936 0-.8.2613-1.429.784-1.888.5226-.469 1.2266-.704 2.112-.704h2.8v-.928c0-.587-.1707-1.04-.512-1.36-.3414-.32-.8267-.48-1.456-.48-.5547 0-1.0187.123-1.392.368-.3627.245-.5707.576-.624.992h-1.28c.1066-.757.4586-1.36 1.056-1.808.608-.448 1.3653-.672 2.272-.672.9813 0 1.76.267 2.336.8.576.523.8639 1.232.8639 2.128v6.032h-1.2479v-1.712h-.208l.24-.256c0 .651-.2507 1.168-.752 1.552-.5014.384-1.168.576-2.0001.576zm.3041-1.024c.704 0 1.28-.176 1.728-.528s.672-.811.672-1.376v-1.328h-2.784c-.5014 0-.9014.139-1.2.416-.2987.277-.448.656-.448 1.136 0 .512.1813.923.544 1.232.3626.299.8586.448 1.488.448zm9.3377.864v-7.664h-3.2v-1.136h7.68v1.136h-3.2v7.664zm7.0818 0v-8.8h1.264v3.232h2.64c.9813 0 1.7546.251 2.32.752.576.491.864 1.168.864 2.032 0 .853-.288 1.531-.864 2.032-.5654.501-1.3387.752-2.32.752zm1.264-1.152h2.64c.608 0 1.072-.139 1.392-.416.32-.288.48-.693.48-1.216s-.16-.923-.48-1.2c-.32-.288-.784-.432-1.392-.432h-2.64zm9.4337 3.712 1.248-4.976h1.92l-2.064 4.976zm18.0515-2.56v-8.8h1.28v3.696h1.664l2.608-3.696h1.456l-2.96 4.192 3.024 4.608h-1.488l-2.64-4h-1.664v4zm12.09.16c-.928 0-1.659-.235-2.192-.704-.534-.48-.8-1.125-.8-1.936 0-.8.261-1.429.784-1.888.522-.469 1.226-.704 2.112-.704h2.8v-.928c0-.587-.171-1.04-.512-1.36-.342-.32-.827-.48-1.456-.48-.555 0-1.019.123-1.392.368-.363.245-.571.576-.624.992h-1.28c.106-.757.458-1.36 1.056-1.808.608-.448 1.365-.672 2.272-.672.981 0 1.76.267 2.336.8.576.523.864 1.232.864 2.128v6.032h-1.248v-1.712h-.208l.24-.256c0 .651-.251 1.168-.752 1.552-.502.384-1.168.576-2 .576zm.304-1.024c.704 0 1.28-.176 1.728-.528s.672-.811.672-1.376v-1.328h-2.784c-.502 0-.902.139-1.2.416-.299.277-.448.656-.448 1.136 0 .512.181.923.544 1.232.362.299.858.448 1.488.448zm6.794.864v-8.8h1.28v3.696h1.664l2.608-3.696h1.456l-2.96 4.192 3.024 4.608h-1.488l-2.64-4h-1.664v4zm19.139 0v-8.8h1.232v5.008c0 .299-.011.619-.032.96-.011.331-.027.645-.048.944s-.043.549-.064.752l3.728-7.664h1.648v8.8h-1.232v-5.008c0-.309.005-.629.016-.96.021-.331.043-.645.064-.944.032-.309.053-.565.064-.768l-3.744 7.68zm9.594 0v-8.8h1.28v3.744h3.904v-3.744h1.28v8.8h-1.28v-3.904h-3.904v3.904zm8.394 0 1.92-4.512-1.792-4.288h1.232l1.584 3.888h.944v-3.888h1.088v3.888h.912l1.632-3.888h1.216l-1.792 4.24 1.92 4.56h-1.28l-1.648-4.048h-.96v4.048h-1.088v-4.048h-.96l-1.68 4.048zm14.025.16c-.682 0-1.274-.133-1.776-.4-.501-.277-.89-.667-1.168-1.168-.277-.501-.416-1.083-.416-1.744v-2.496c0-.672.139-1.253.416-1.744.278-.501.667-.885 1.168-1.152.502-.277 1.094-.416 1.776-.416.683 0 1.275.139 1.776.416.502.267.891.651 1.168 1.152.278.491.416 1.072.416 1.744v1.552h-5.472v.944c0 .715.182 1.269.544 1.664.374.384.896.576 1.568.576.566 0 1.024-.112 1.376-.336.363-.224.592-.549.688-.976h1.264c-.117.736-.474 1.317-1.072 1.744-.597.427-1.349.64-2.256.64zm2.112-5.104v-.704c0-.715-.181-1.264-.544-1.648-.362-.395-.885-.592-1.568-.592-.672 0-1.194.197-1.568.592-.362.384-.544.933-.544 1.648v.56h4.352zm4.25 4.944v-8.8h1.28v3.744h3.904v-3.744h1.28v8.8h-1.28v-3.904h-3.904v3.904zm12.826.16c-.683 0-1.275-.133-1.776-.4-.502-.277-.891-.667-1.168-1.168-.278-.501-.416-1.083-.416-1.744v-2.496c0-.672.138-1.253.416-1.744.277-.501.666-.885 1.168-1.152.501-.277 1.093-.416 1.776-.416.682 0 1.274.139 1.776.416.501.267.89.651 1.168 1.152.277.491.416 1.072.416 1.744v1.552h-5.472v.944c0 .715.181 1.269.544 1.664.373.384.896.576 1.568.576.565 0 1.024-.112 1.376-.336.362-.224.592-.549.688-.976h1.264c-.118.736-.475 1.317-1.072 1.744-.598.427-1.35.64-2.256.64zm2.112-5.104v-.704c0-.715-.182-1.264-.544-1.648-.363-.395-.886-.592-1.568-.592-.672 0-1.195.197-1.568.592-.363.384-.544.933-.544 1.648v.56h4.352zm4.234 7.824v-11.68h1.264v1.552h.336l-.384.528c0-.693.224-1.237.672-1.632.458-.405 1.061-.608 1.808-.608.885 0 1.589.293 2.112.88.533.576.8 1.365.8 2.368v2.608c0 .672-.123 1.253-.368 1.744-.246.48-.587.853-1.024 1.12-.427.267-.934.4-1.52.4-.736 0-1.334-.203-1.792-.608-.459-.405-.688-.949-.688-1.632l.336.528h-.304l.016 1.792v2.64zm3.296-3.824c.64 0 1.136-.192 1.488-.576.362-.384.544-.928.544-1.632v-2.496c0-.715-.182-1.259-.544-1.632-.352-.384-.848-.576-1.488-.576-.619 0-1.115.197-1.488.592-.363.384-.544.923-.544 1.616v2.496c0 .693.181 1.237.544 1.632.373.384.869.576 1.488.576zm9.545 1.104c-.394 0-.709-.112-.944-.336-.224-.235-.336-.544-.336-.928 0-.405.112-.725.336-.96.235-.235.55-.352.944-.352.395 0 .704.117.928.352.235.235.352.555.352.96 0 .384-.117.693-.352.928-.224.224-.533.336-.928.336z"/></g></g></svg>