<svg fill="none" height="160" viewBox="0 0 375 160" width="375" xmlns="http://www.w3.org/2000/svg"><path d="m0 0h375v160h-375z" fill="#484439"/><path d="m20 38h35v5.99998h-35z" fill="#ffc834"/><g fill="#fff"><path d="m20 28.702 6.4969-.0106c.0416.4245.2217.7322.5405.9233.3257.1839.8489.2759 1.5697.2759.6029 0 1.0568-.0672 1.3617-.2017.3119-.1415.4678-.3502.4678-.6261 0-.4811-.8074-.7959-2.422-.9445-.3188-.0353-.5614-.0601-.7277-.0743-.0139 0-.0277 0-.0416 0-2.6057-.2617-4.3659-.6013-5.2806-1.0187-.5337-.2406-.946-.6191-1.237-1.1355-.2842-.5165-.4262-1.1249-.4262-1.8253 0-1.4079.6306-2.4373 1.8918-3.0882 1.2613-.6509 3.271-.9763 6.0292-.9763 2.6056 0 4.5426.3325 5.8108.9975 1.2751.6651 1.9542 1.6945 2.0374 3.0882h-6.1227c-.0346-.4103-.2217-.7075-.5613-.8914-.3326-.184-.8697-.2759-1.6112-.2759-.6307 0-1.095.0707-1.393.2122-.291.1344-.4366.3467-.4366.6367 0 .467.693.757 2.079.8702.2911.0283.5129.0496.6653.0637.1109.0071.2842.0212.5198.0425 2.7928.2546 4.4213.4634 4.8856.6261.9148.3325 1.5593.7428 1.9335 1.231.3742.4811.5613 1.1426.5613 1.9845 0 1.5564-.6722 2.6813-2.0166 3.3747-1.3375.6933-3.5343 1.04-6.5904 1.04-2.7166 0-4.7124-.3432-5.9876-1.0294-1.2681-.6934-1.9334-1.7829-1.9958-3.2686z"/><path d="m55 27.2375c-.194 1.9173-1.0049 3.357-2.4324 4.3192-1.4207.9622-3.4477 1.4433-6.0811 1.4433-2.7235 0-4.8302-.566-6.3202-1.698-1.483-1.132-2.2245-2.7309-2.2245-4.7967 0-2.0588.7415-3.6577 2.2245-4.7967 1.49-1.1391 3.5967-1.7086 6.3202-1.7086 2.5294 0 4.501.4422 5.9147 1.3265 1.4138.8844 2.2454 2.1968 2.4948 3.9372h-5.7068c-.2148-.559-.5371-.9764-.9668-1.2523-.4296-.283-.9667-.4245-1.6112-.4245-.9494 0-1.6944.2583-2.2349.7747-.5405.5094-.8108 1.2169-.8108 2.1225 0 .8772.2633 1.5741.79 2.0906.5267.5164 1.237.7747 2.131.7747.7415 0 1.3652-.1875 1.8711-.5625.5128-.382.8316-.8985.9563-1.5494z"/><path d="m25.2147 58.6c0 .8018.2444 1.4466.7333 1.9347.4889.481 1.1339.7215 1.9351.7215.8148 0 1.4632-.2405 1.9453-.7215.4889-.4881.7333-1.1329.7333-1.9347 0-.8087-.2444-1.4536-.7333-1.9346-.4821-.4811-1.1305-.7216-1.9453-.7216-.8012 0-1.4462.2405-1.9351.7216-.4889.481-.7333 1.1259-.7333 1.9346zm-5.2147 5.9922v-15.5921h5.2147v4.5803c.6314-.4322 1.3002-.7529 2.0064-.9621.7129-.2161 1.4904-.3241 2.3323-.3241 1.9827 0 3.558.5682 4.7258 1.7045 1.1747 1.1364 1.762 2.6702 1.762 4.6013 0 1.9033-.5805 3.4301-1.7416 4.5804-1.1611 1.1434-2.716 1.715-4.6647 1.715-.9166 0-1.7586-.122-2.5258-.366-.7673-.251-1.4667-.6239-2.0981-1.1189l-.0408 1.1817z"/><path d="m54.0278 59.3216c-.1901 1.8893-.9846 3.308-2.3833 4.2562-1.3919.9481-3.378 1.4222-5.9582 1.4222-2.6684 0-4.7326-.5577-6.1924-1.6732-1.453-1.1155-2.1796-2.6911-2.1796-4.7268 0-2.0287.7266-3.6043 2.1796-4.7268 1.4598-1.1224 3.524-1.6836 6.1924-1.6836 2.4784 0 4.4101.4357 5.7952 1.3072 1.3852.8714 2.2 2.1647 2.4444 3.8797h-5.5915c-.2105-.5508-.5262-.9621-.9472-1.234-.421-.2788-.9472-.4183-1.5786-.4183-.9303 0-1.6602.2545-2.1898.7634-.5296.502-.7944 1.1991-.7944 2.0915 0 .8645.258 1.5512.774 2.0601.5161.509 1.212.7634 2.0879.7634.7266 0 1.3377-.1847 1.8333-.5542.5025-.3765.8148-.8854.937-1.5268z"/><path d="m81.688 37.22c-1.0707 0-2.0093-.198-2.816-.594-.8067-.4107-1.4373-.9753-1.892-1.694-.44-.7333-.66-1.584-.66-2.552v-6.82c0-.9827.22-1.8333.66-2.552.4547-.7187 1.0853-1.276 1.892-1.672.8067-.4107 1.7453-.616 2.816-.616 1.0853 0 2.024.2053 2.816.616.8067.396 1.43.9533 1.87 1.672.4547.7187.682 1.5693.682 2.552h-3.3c0-.6453-.1833-1.1367-.55-1.474-.352-.3373-.858-.506-1.518-.506s-1.1733.1687-1.54.506c-.352.3373-.528.8287-.528 1.474v6.82c0 .6307.176 1.122.528 1.474.3667.3373.88.506 1.54.506s1.166-.1687 1.518-.506c.3667-.352.55-.8433.55-1.474h3.3c0 .968-.2273 1.8187-.682 2.552-.44.7187-1.0633 1.2833-1.87 1.694-.792.396-1.7307.594-2.816.594zm11.4534-.22v-9.02h-3.96v-3.08h11.2196v3.08h-3.9596v9.02zm13.2796.22c-1.218 0-2.186-.33-2.904-.99-.704-.66-1.056-1.5547-1.056-2.684 0-1.2173.418-2.1487 1.254-2.794.85-.66 2.068-.99 3.652-.99h2.508v-.902c0-.4693-.169-.8433-.506-1.122-.323-.2787-.763-.418-1.32-.418-.514 0-.939.1173-1.276.352-.338.2347-.543.5573-.616.968h-3.19c.132-1.2173.66-2.178 1.584-2.882.938-.7187 2.141-1.078 3.608-1.078 1.54 0 2.757.3813 3.652 1.144.909.748 1.364 1.76 1.364 3.036v8.14h-3.19v-1.98h-.528l.55-.77c0 .9093-.33 1.6353-.99 2.178-.646.528-1.511.792-2.596.792zm1.232-2.42c.645 0 1.173-.1687 1.584-.506.425-.352.638-.8067.638-1.364v-1.298h-2.442c-.499 0-.902.1467-1.21.44-.308.2787-.462.6527-.462 1.122 0 .4987.168.8947.506 1.188.337.2787.799.418 1.386.418zm8.373 2.2v-12.1h3.3v4.422h3.696v-4.422h3.3v12.1h-3.3v-4.598h-3.696v4.598zm13.28 0v-12.1h3.3v3.63h2.838c1.525 0 2.713.3813 3.564 1.144.865.748 1.298 1.7893 1.298 3.124 0 1.2907-.44 2.3173-1.32 3.08-.866.748-2.039 1.122-3.52 1.122zm3.3-2.86h2.64c.557 0 .982-.1173 1.276-.352.308-.2493.462-.5867.462-1.012 0-.44-.154-.7773-.462-1.012-.294-.2493-.719-.374-1.276-.374h-2.64zm26.8 6.82v-3.96c-1.393 0-2.493-.4033-3.3-1.21-.792-.8213-1.188-1.936-1.188-3.344v-3.014c0-1.3933.404-2.4933 1.21-3.3.807-.8213 1.9-1.232 3.278-1.232v-3.96h2.684v3.96c1.394 0 2.486.4107 3.278 1.232.807.8067 1.21 1.9067 1.21 3.3v3.014c0 1.408-.403 2.5227-1.21 3.344-.792.8067-1.884 1.21-3.278 1.21v3.96zm.154-6.556v-6.93c-.572 0-1.026.176-1.364.528-.322.3373-.484.814-.484 1.43v3.014c0 .616.162 1.1.484 1.452.338.3373.792.506 1.364.506zm2.376 0c.572 0 1.02-.1687 1.342-.506.338-.352.506-.836.506-1.452v-3.014c0-.616-.168-1.0927-.506-1.43-.322-.352-.77-.528-1.342-.528zm6.856 6.556v-16.06h3.19v2.31h.77l-.77.77c0-1.0413.286-1.848.858-2.42.572-.5867 1.357-.88 2.354-.88 1.217 0 2.193.4327 2.926 1.298.733.8507 1.1 1.9947 1.1 3.432v3.08c0 .9533-.169 1.7893-.506 2.508-.323.704-.785 1.254-1.386 1.65-.601.3813-1.313.572-2.134.572-.997 0-1.782-.286-2.354-.858-.572-.5867-.858-1.4007-.858-2.442l.77.77h-.77l.11 2.97v3.3zm5.214-6.6c.616 0 1.085-.1687 1.408-.506.337-.352.506-.8433.506-1.474v-2.86c0-.6453-.169-1.1367-.506-1.474-.323-.3373-.792-.506-1.408-.506-.601 0-1.071.176-1.408.528-.337.3373-.506.8213-.506 1.452v2.86c0 .6307.169 1.122.506 1.474.337.3373.807.506 1.408.506zm13.125 2.86c-1.07 0-2.002-.198-2.794-.594-.792-.4107-1.408-.9753-1.848-1.694-.425-.7333-.638-1.584-.638-2.552v-2.86c0-.968.213-1.8113.638-2.53.44-.7333 1.056-1.298 1.848-1.694.792-.4107 1.724-.616 2.794-.616 1.086 0 2.017.2053 2.794.616.792.396 1.401.9607 1.826 1.694.44.7187.66 1.562.66 2.53v2.86c0 .968-.22 1.8187-.66 2.552-.425.7187-1.034 1.2833-1.826 1.694-.777.396-1.708.594-2.794.594zm0-2.86c.646 0 1.137-.1687 1.474-.506.338-.352.506-.8433.506-1.474v-2.86c0-.6453-.168-1.1367-.506-1.474-.337-.3373-.828-.506-1.474-.506-.63 0-1.122.1687-1.474.506-.337.3373-.506.8287-.506 1.474v2.86c0 .6307.169 1.122.506 1.474.352.3373.844.506 1.474.506zm8.044 2.64v-12.1h3.3v4.422h3.696v-4.422h3.3v12.1h-3.3v-4.598h-3.696v4.598zm16.689 0v-9.02h-3.96v-3.08h11.22v3.08h-3.96v9.02zm14.863.22c-1.07 0-2.009-.198-2.816-.594-.792-.4107-1.408-.9753-1.848-1.694-.425-.7333-.638-1.584-.638-2.552v-2.86c0-.968.213-1.8113.638-2.53.44-.7333 1.056-1.298 1.848-1.694.807-.4107 1.746-.616 2.816-.616 1.071 0 1.995.2053 2.772.616.792.396 1.401.9607 1.826 1.694.44.7187.66 1.562.66 2.53v2.2h-7.414v.66c0 .7627.184 1.342.55 1.738.367.3813.917.572 1.65.572.514 0 .924-.088 1.232-.264.323-.176.536-.418.638-.726h3.234c-.264 1.056-.865 1.9067-1.804 2.552-.924.6453-2.038.968-3.344.968zm2.112-7.194v-.55c0-.748-.176-1.32-.528-1.716-.337-.396-.865-.594-1.584-.594-.718 0-1.261.2053-1.628.616-.352.4107-.528.99-.528 1.738v.33l4.488-.044zm5.91 6.974v-12.1h3.3v4.422h3.696v-4.422h3.3v12.1h-3.3v-4.598h-3.696v4.598zm12.223 3.08v-5.874h.682c.25-.2493.506-.682.77-1.298.279-.6307.426-1.3933.44-2.288l.11-5.72h8.91v9.306h1.32v5.874h-3.08v-3.08h-6.072v3.08zm3.96-5.874h3.872v-6.468h-2.794l-.066 2.86c-.014.8507-.139 1.5987-.374 2.244-.22.6307-.432 1.0853-.638 1.364zm11.828-2.926v-3.08h7.04v3.08zm-186.308 38.68v-16.06h3.19v2.31h.77l-.77.77c0-1.0413.286-1.848.858-2.42.572-.5867 1.3567-.88 2.354-.88 1.2173 0 2.1927.4327 2.926 1.298.7333.8507 1.1 1.9947 1.1 3.432v3.08c0 .9533-.1687 1.7893-.506 2.508-.3227.704-.7847 1.254-1.386 1.65-.6013.3813-1.3127.572-2.134.572-.9973 0-1.782-.286-2.354-.858-.572-.5867-.858-1.4007-.858-2.442l.77.77h-.77l.11 2.97v3.3zm5.214-6.6c.616 0 1.0853-.1687 1.408-.506.3373-.352.506-.8433.506-1.474v-2.86c0-.6453-.1687-1.1367-.506-1.474-.3227-.3373-.792-.506-1.408-.506-.6013 0-1.0707.176-1.408.528-.3373.3373-.506.8213-.506 1.452v2.86c0 .6307.1687 1.122.506 1.474.3373.3373.8067.506 1.408.506zm11.5634 2.86c-1.2173 0-2.1853-.33-2.904-.99-.704-.66-1.056-1.5547-1.056-2.684 0-1.2173.418-2.1487 1.254-2.794.8507-.66 2.068-.99 3.652-.99h2.508v-.902c0-.4693-.1687-.8433-.506-1.122-.3227-.2787-.7627-.418-1.32-.418-.5133 0-.9387.1173-1.276.352s-.5427.5573-.616.968h-3.19c.132-1.2173.66-2.178 1.584-2.882.9387-.7187 2.1413-1.078 3.608-1.078 1.54 0 2.7573.3813 3.652 1.144.9093.748 1.364 1.76 1.364 3.036v8.14h-3.19v-1.98h-.528l.55-.77c0 .9093-.33 1.6353-.99 2.178-.6453.528-1.5107.792-2.596.792zm1.232-2.42c.6453 0 1.1733-.1687 1.584-.506.4253-.352.638-.8067.638-1.364v-1.298h-2.442c-.4987 0-.902.1467-1.21.44-.308.2787-.462.6527-.462 1.122 0 .4987.1687.8947.506 1.188.3373.2787.7993.418 1.386.418zm12.9056 2.354c-1.35 0-2.472-.33-3.366-.99-.895-.66-1.438-1.5547-1.628-2.684h3.19c.102.3373.315.6087.638.814.322.1907.711.286 1.166.286h1.254c.484 0 .865-.11 1.144-.33.278-.2347.418-.55.418-.946 0-.3813-.14-.682-.418-.902-.279-.22-.66-.33-1.144-.33h-2.838v-2.508h2.706c.454 0 .806-.0953 1.056-.286.249-.2053.374-.484.374-.836 0-.2493-.059-.4547-.176-.616-.103-.1613-.264-.286-.484-.374-.206-.088-.462-.132-.77-.132h-1.012c-.455 0-.836.1027-1.144.308-.308.1907-.514.4547-.616.792h-3.19c.19-1.1293.726-2.024 1.606-2.684s1.994-.99 3.344-.99h1.012c.968 0 1.804.1393 2.508.418.704.264 1.246.6453 1.628 1.144.381.484.572 1.0633.572 1.738 0 .8067-.308 1.4593-.924 1.958-.602.4987-1.401.748-2.398.748v-.22c1.085 0 1.958.2787 2.618.836.66.5427.99 1.2687.99 2.178 0 1.1-.44 1.98-1.32 2.64-.88.6453-2.061.968-3.542.968zm8.659 3.806v-16.06h3.19v2.31h.77l-.77.77c0-1.0413.286-1.848.858-2.42.572-.5867 1.357-.88 2.354-.88 1.218 0 2.193.4327 2.926 1.298.734.8507 1.1 1.9947 1.1 3.432v3.08c0 .9533-.168 1.7893-.506 2.508-.322.704-.784 1.254-1.386 1.65-.601.3813-1.312.572-2.134.572-.997 0-1.782-.286-2.354-.858-.572-.5867-.858-1.4007-.858-2.442l.77.77h-.77l.11 2.97v3.3zm5.214-6.6c.616 0 1.086-.1687 1.408-.506.338-.352.506-.8433.506-1.474v-2.86c0-.6453-.168-1.1367-.506-1.474-.322-.3373-.792-.506-1.408-.506-.601 0-1.07.176-1.408.528-.337.3373-.506.8213-.506 1.452v2.86c0 .6307.169 1.122.506 1.474.338.3373.807.506 1.408.506zm11.564 2.86c-1.218 0-2.186-.33-2.904-.99-.704-.66-1.056-1.5547-1.056-2.684 0-1.2173.418-2.1487 1.254-2.794.85-.66 2.068-.99 3.652-.99h2.508v-.902c0-.4693-.169-.8433-.506-1.122-.323-.2787-.763-.418-1.32-.418-.514 0-.939.1173-1.276.352-.338.2347-.543.5573-.616.968h-3.19c.132-1.2173.66-2.178 1.584-2.882.938-.7187 2.141-1.078 3.608-1.078 1.54 0 2.757.3813 3.652 1.144.909.748 1.364 1.76 1.364 3.036v8.14h-3.19v-1.98h-.528l.55-.77c0 .9093-.33 1.6353-.99 2.178-.646.528-1.511.792-2.596.792zm1.232-2.42c.645 0 1.173-.1687 1.584-.506.425-.352.638-.8067.638-1.364v-1.298h-2.442c-.499 0-.902.1467-1.21.44-.308.2787-.462.6527-.462 1.122 0 .4987.168.8947.506 1.188.337.2787.799.418 1.386.418zm13.521 2.42c-1.613-.0293-2.897-.4693-3.85-1.32-.953-.8653-1.43-2.0387-1.43-3.52v-5.39c0-1.936.543-3.4247 1.628-4.466 1.085-1.056 2.633-1.584 4.642-1.584h3.63v3.19h-3.63c-.968 0-1.709.242-2.222.726-.499.484-.748 1.1953-.748 2.134v1.54h.308l-.264.308c-.015-.8213.249-1.474.792-1.958.557-.4987 1.349-.748 2.376-.748 1.276 0 2.266.418 2.97 1.254.719.836 1.078 1.9947 1.078 3.476v1.518c0 .9827-.22 1.848-.66 2.596-.425.7333-1.034 1.298-1.826 1.694-.777.3813-1.709.5647-2.794.55zm0-2.86c.645 0 1.137-.1687 1.474-.506.337-.352.506-.8433.506-1.474v-1.518c0-.6453-.169-1.1367-.506-1.474s-.829-.506-1.474-.506c-.631 0-1.122.1687-1.474.506-.337.3373-.506.8287-.506 1.474v1.518c0 .6307.169 1.122.506 1.474.352.3373.843.506 1.474.506zm13.191 2.86c-1.07 0-2.002-.198-2.794-.594-.792-.4107-1.408-.9753-1.848-1.694-.425-.7333-.638-1.584-.638-2.552v-2.86c0-.968.213-1.8113.638-2.53.44-.7333 1.056-1.298 1.848-1.694.792-.4107 1.724-.616 2.794-.616 1.086 0 2.017.2053 2.794.616.792.396 1.401.9607 1.826 1.694.44.7187.66 1.562.66 2.53v2.86c0 .968-.22 1.8187-.66 2.552-.425.7187-1.034 1.2833-1.826 1.694-.777.396-1.708.594-2.794.594zm0-2.86c.646 0 1.137-.1687 1.474-.506.338-.352.506-.8433.506-1.474v-2.86c0-.6453-.168-1.1367-.506-1.474-.337-.3373-.828-.506-1.474-.506-.63 0-1.122.1687-1.474.506-.337.3373-.506.8287-.506 1.474v2.86c0 .6307.169 1.122.506 1.474.352.3373.844.506 1.474.506zm11.542 2.64v-9.02h-3.96v-3.08h11.22v3.08h-3.96v9.02zm16.601 0v-3.85c-.176.044-.454.0953-.836.154-.366.044-.784.066-1.254.066-1.598 0-2.86-.396-3.784-1.188-.924-.8067-1.386-1.914-1.386-3.322v-3.96h3.3v3.74c0 .5427.198.9753.594 1.298.396.308.932.462 1.606.462.411 0 .77-.022 1.078-.066.323-.0587.55-.11.682-.154v-5.28h3.3v12.1zm6.284 0v-12.1h2.904v5.5c0 .3667-.022.8287-.066 1.386-.044.5427-.103 1.0927-.176 1.65-.059.5573-.125 1.0487-.198 1.474l3.828-10.01h4.004v12.1h-2.904v-5.5c0-.3813.022-.814.066-1.298.044-.4987.095-.9973.154-1.496.058-.4987.117-.924.176-1.276l-3.784 9.57zm13.257 0v-12.1h3.3v4.576h1.628l2.53-4.576h3.674l-3.366 5.918 3.432 6.182h-3.74l-2.552-4.752h-1.606v4.752zm18.273.22c-1.07 0-2.002-.198-2.794-.594-.792-.4107-1.408-.9753-1.848-1.694-.425-.7333-.638-1.584-.638-2.552v-2.86c0-.968.213-1.8113.638-2.53.44-.7333 1.056-1.298 1.848-1.694.792-.4107 1.724-.616 2.794-.616 1.086 0 2.017.2053 2.794.616.792.396 1.401.9607 1.826 1.694.44.7187.66 1.562.66 2.53v2.86c0 .968-.22 1.8187-.66 2.552-.425.7187-1.034 1.2833-1.826 1.694-.777.396-1.708.594-2.794.594zm0-2.86c.646 0 1.137-.1687 1.474-.506.338-.352.506-.8433.506-1.474v-2.86c0-.6453-.168-1.1367-.506-1.474-.337-.3373-.828-.506-1.474-.506-.63 0-1.122.1687-1.474.506-.337.3373-.506.8287-.506 1.474v2.86c0 .6307.169 1.122.506 1.474.352.3373.844.506 1.474.506zm7.516 2.64v-12.1h3.718l1.43 4.51c.161.5133.286.9827.374 1.408.103.4107.161.7187.176.924.029-.2053.081-.5133.154-.924.088-.4253.213-.8947.374-1.408l1.408-4.51h3.718v12.1h-3.014v-2.2c0-.484.007-1.0267.022-1.628.029-.616.059-1.2467.088-1.892.044-.66.081-1.2907.11-1.892.044-.616.088-1.1587.132-1.628l-1.606 5.83h-2.794l-1.694-5.83c.059.6013.117 1.32.176 2.156.073.836.132 1.6867.176 2.552.044.8507.066 1.628.066 2.332v2.2z"/><path d="m21.568 99v-11.68h3.216c1.0453 0 1.8667.272 2.464.816.5973.5333.896 1.2693.896 2.208 0 .5333-.112 1.0027-.336 1.408-.2133.3947-.5227.704-.928.928-.3947.2133-.8747.3147-1.44.304v-.224c.608 0 1.1307.1227 1.568.368.448.2347.7947.5813 1.04 1.04.2453.448.368.9813.368 1.6 0 .6613-.1387 1.2373-.416 1.728-.2773.48-.672.8533-1.184 1.12-.512.256-1.1253.384-1.84.384zm1.232-1.152h2.064c.7147 0 1.2747-.1867 1.68-.56.416-.384.624-.9013.624-1.552 0-.672-.208-1.2107-.624-1.616-.4053-.416-.9653-.624-1.68-.624h-2.064zm0-5.456h1.984c.6507 0 1.1627-.176 1.536-.528s.56-.832.56-1.44-.1867-1.0827-.56-1.424c-.3627-.352-.8747-.528-1.536-.528h-1.984zm21.2515 6.768c-.7467 0-1.392-.128-1.936-.384s-.9653-.6187-1.264-1.088c-.2987-.48-.4533-1.0507-.464-1.712h1.28c0 .6293.2133 1.1307.64 1.504.4267.3627 1.008.544 1.744.544.704 0 1.2533-.176 1.648-.528.4053-.352.608-.8373.608-1.456 0-.512-.1387-.9547-.416-1.328-.2773-.384-.6667-.6507-1.168-.8l-1.52-.48c-.8-.2347-1.4187-.6347-1.856-1.2-.4267-.576-.64-1.248-.64-2.016 0-.6293.1387-1.168.416-1.616.2773-.4587.6667-.816 1.168-1.072.512-.256 1.1093-.384 1.792-.384 1.0133 0 1.824.2827 2.432.848s.912 1.3227.912 2.272h-1.264c0-.608-.1867-1.088-.56-1.44s-.8853-.528-1.536-.528-1.1627.16-1.536.48c-.3627.3093-.544.752-.544 1.328 0 .5013.1387.9387.416 1.312s.6667.64 1.168.8l1.52.48c.7893.2453 1.4027.6613 1.84 1.248s.656 1.2747.656 2.064c0 .6293-.1493 1.184-.448 1.664-.288.4693-.6987.8373-1.232 1.104-.5227.256-1.1413.384-1.856.384zm8.8417 0c-.9279 0-1.6586-.2347-2.1919-.704-.5334-.48-.8-1.1253-.8-1.936 0-.8.2613-1.4293.784-1.888.5226-.4693 1.2266-.704 2.112-.704h2.8v-.928c0-.5867-.1707-1.04-.512-1.36-.3414-.32-.8267-.48-1.456-.48-.5547 0-1.0187.1227-1.392.368-.3627.2453-.5707.576-.624.992h-1.28c.1066-.7573.4586-1.36 1.056-1.808.608-.448 1.3653-.672 2.272-.672.9813 0 1.76.2667 2.336.8.576.5227.8639 1.232.8639 2.128v6.032h-1.2479v-1.712h-.208l.24-.256c0 .6507-.2507 1.168-.752 1.552-.5014.384-1.168.576-2.0001.576zm.3041-1.024c.704 0 1.28-.176 1.728-.528s.672-.8107.672-1.376v-1.328h-2.784c-.5014 0-.9014.1387-1.2.416-.2987.2773-.448.656-.448 1.136 0 .512.1813.9227.544 1.232.3626.2987.8586.448 1.488.448zm6.5857.864v-1.152h3.136v-6.496h-2.736v-1.152h4.016v7.648h2.976v1.152zm3.632-10.416c-.3307 0-.5973-.0853-.8-.256-.192-.1707-.288-.4053-.288-.704 0-.3093.096-.5547.288-.736.2027-.1813.4693-.272.8-.272s.592.0907.784.272c.2027.1813.304.4267.304.736 0 .288-.1013.5227-.304.704-.192.1707-.4533.256-.784.256zm6.1058 10.416v-8.8h1.264v1.632h.32l-.352.464c0-.704.2133-1.2533.64-1.648.4373-.4053 1.0293-.608 1.776-.608.8746 0 1.5733.2773 2.096.832.5226.544.7839 1.2853.7839 2.224v5.904h-1.2639v-5.76c0-.672-.176-1.1893-.528-1.552s-.832-.544-1.44-.544c-.6294 0-1.1254.192-1.488.576-.3627.384-.544.928-.544 1.632v5.648zm13.8017 0c-.736 0-1.3067-.192-1.712-.576-.4053-.3947-.608-.9493-.608-1.664v-5.408h-2.496v-1.152h2.496v-2.48h1.28v2.48h3.536v1.152h-3.536v5.408c0 .7253.3467 1.088 1.04 1.088h2.336v1.152zm8.6818.16c-.6827 0-1.28-.1333-1.792-.4s-.912-.6453-1.2-1.136c-.2774-.5013-.416-1.0933-.416-1.776v-2.496c0-.6827.1386-1.2693.416-1.76.288-.5013.688-.8853 1.2-1.152s1.1093-.4 1.792-.4c1.0026 0 1.808.272 2.416.816s.9226 1.2853.944 2.224h-1.264c-.0214-.608-.2187-1.0773-.592-1.408-.3627-.3307-.864-.496-1.504-.496-.6507 0-1.168.192-1.552.576-.384.3733-.576.9067-.576 1.6v2.496c0 .6827.192 1.216.576 1.6s.9013.576 1.552.576c.64 0 1.1413-.1653 1.504-.496.3733-.3413.5706-.8107.592-1.408h1.264c-.0214.9387-.336 1.68-.944 2.224s-1.4134.816-2.416.816zm9.5457-.016c-.683 0-1.275-.1333-1.776-.4-.5013-.2667-.8907-.6507-1.168-1.152s-.416-1.0933-.416-1.776v-2.432c0-.6933.1387-1.2853.416-1.776.2773-.5013.6667-.8853 1.168-1.152.501-.2667 1.093-.4 1.776-.4s1.275.1333 1.776.4.891.6507 1.168 1.152c.277.4907.416 1.0773.416 1.76v2.448c0 .6827-.139 1.2747-.416 1.776s-.667.8853-1.168 1.152-1.093.4-1.776.4zm0-1.136c.661 0 1.173-.1867 1.536-.56s.544-.9173.544-1.632v-2.432c0-.7147-.187-1.2587-.56-1.632-.363-.3733-.869-.56-1.52-.56s-1.163.1867-1.536.56c-.3627.3733-.544.9173-.544 1.632v2.432c0 .7147.1813 1.2587.544 1.632.373.3733.885.56 1.536.56zm9.162 1.152c-.875 0-1.584-.2933-2.128-.88-.534-.5867-.8-1.376-.8-2.368v-2.608c0-1.0027.266-1.7973.8-2.384.533-.5867 1.242-.88 2.128-.88.736 0 1.328.2027 1.776.608.458.4053.688.9493.688 1.632l-.336-.528h.304l-.016-1.92v-2.512h1.264v11.68h-1.264v-1.552h-.336l.384-.528c0 .6933-.23 1.2427-.688 1.648-.448.3947-1.04.592-1.776.592zm.4-1.104c.629 0 1.12-.192 1.472-.576.362-.3947.544-.9387.544-1.632v-2.496c0-.6933-.182-1.232-.544-1.616-.352-.3947-.843-.592-1.472-.592-.64 0-1.142.192-1.504.576-.363.384-.544.928-.544 1.632v2.496c0 .704.181 1.248.544 1.632.362.384.864.576 1.504.576zm9.626 1.104c-.683 0-1.275-.1333-1.776-.4-.502-.2773-.891-.6667-1.168-1.168-.278-.5013-.416-1.0827-.416-1.744v-2.496c0-.672.138-1.2533.416-1.744.277-.5013.666-.8853 1.168-1.152.501-.2773 1.093-.416 1.776-.416.682 0 1.274.1387 1.776.416.501.2667.89.6507 1.168 1.152.277.4907.416 1.072.416 1.744v1.552h-5.472v.944c0 .7147.181 1.2693.544 1.664.373.384.896.576 1.568.576.565 0 1.024-.112 1.376-.336.362-.224.592-.5493.688-.976h1.264c-.118.736-.475 1.3173-1.072 1.744-.598.4267-1.35.64-2.256.64zm2.112-5.104v-.704c0-.7147-.182-1.264-.544-1.648-.363-.3947-.886-.592-1.568-.592-.672 0-1.195.1973-1.568.592-.363.384-.544.9333-.544 1.648v.56h4.352zm13.843 4.944v-11.68h3.216c1.045 0 1.867.272 2.464.816.597.5333.896 1.2693.896 2.208 0 .5333-.112 1.0027-.336 1.408-.213.3947-.523.704-.928.928-.395.2133-.875.3147-1.44.304v-.224c.608 0 1.131.1227 1.568.368.448.2347.795.5813 1.04 1.04.245.448.368.9813.368 1.6 0 .6613-.139 1.2373-.416 1.728-.277.48-.672.8533-1.184 1.12-.512.256-1.125.384-1.84.384zm1.232-1.152h2.064c.715 0 1.275-.1867 1.68-.56.416-.384.624-.9013.624-1.552 0-.672-.208-1.2107-.624-1.616-.405-.416-.965-.624-1.68-.624h-2.064zm0-5.456h1.984c.651 0 1.163-.176 1.536-.528s.56-.832.56-1.44-.187-1.0827-.56-1.424c-.363-.352-.875-.528-1.536-.528h-1.984zm11.594 6.752c-.683 0-1.275-.1333-1.776-.4-.502-.2667-.891-.6507-1.168-1.152-.278-.5013-.416-1.0933-.416-1.776v-2.432c0-.6933.138-1.2853.416-1.776.277-.5013.666-.8853 1.168-1.152.501-.2667 1.093-.4 1.776-.4.682 0 1.274.1333 1.776.4.501.2667.89.6507 1.168 1.152.277.4907.416 1.0773.416 1.76v2.448c0 .6827-.139 1.2747-.416 1.776-.278.5013-.667.8853-1.168 1.152-.502.2667-1.094.4-1.776.4zm0-1.136c.661 0 1.173-.1867 1.536-.56.362-.3733.544-.9173.544-1.632v-2.432c0-.7147-.187-1.2587-.56-1.632-.363-.3733-.87-.56-1.52-.56-.651 0-1.163.1867-1.536.56-.363.3733-.544.9173-.544 1.632v2.432c0 .7147.181 1.2587.544 1.632.373.3733.885.56 1.536.56zm9.594 1.136c-.683 0-1.275-.1333-1.776-.4-.502-.2667-.891-.6507-1.168-1.152-.278-.5013-.416-1.0933-.416-1.776v-2.432c0-.6933.138-1.2853.416-1.776.277-.5013.666-.8853 1.168-1.152.501-.2667 1.093-.4 1.776-.4.682 0 1.274.1333 1.776.4.501.2667.89.6507 1.168 1.152.277.4907.416 1.0773.416 1.76v2.448c0 .6827-.139 1.2747-.416 1.776-.278.5013-.667.8853-1.168 1.152-.502.2667-1.094.4-1.776.4zm0-1.136c.661 0 1.173-.1867 1.536-.56.362-.3733.544-.9173.544-1.632v-2.432c0-.7147-.187-1.2587-.56-1.632-.363-.3733-.87-.56-1.52-.56-.651 0-1.163.1867-1.536.56-.363.3733-.544.9173-.544 1.632v2.432c0 .7147.181 1.2587.544 1.632.373.3733.885.56 1.536.56zm10.553.992c-.736 0-1.306-.192-1.712-.576-.405-.3947-.608-.9493-.608-1.664v-5.408h-2.496v-1.152h2.496v-2.48h1.28v2.48h3.536v1.152h-3.536v5.408c0 .7253.347 1.088 1.04 1.088h2.336v1.152zm8.682.16c-.683 0-1.28-.1333-1.792-.4s-.912-.6453-1.2-1.136c-.277-.5013-.416-1.0933-.416-1.776v-2.496c0-.6827.139-1.2693.416-1.76.288-.5013.688-.8853 1.2-1.152s1.109-.4 1.792-.4c1.003 0 1.808.272 2.416.816s.923 1.2853.944 2.224h-1.264c-.021-.608-.219-1.0773-.592-1.408-.363-.3307-.864-.496-1.504-.496-.651 0-1.168.192-1.552.576-.384.3733-.576.9067-.576 1.6v2.496c0 .6827.192 1.216.576 1.6s.901.576 1.552.576c.64 0 1.141-.1653 1.504-.496.373-.3413.571-.8107.592-1.408h1.264c-.021.9387-.336 1.68-.944 2.224s-1.413.816-2.416.816zm8.858 0c-.928 0-1.659-.2347-2.192-.704-.534-.48-.8-1.1253-.8-1.936 0-.8.261-1.4293.784-1.888.522-.4693 1.226-.704 2.112-.704h2.8v-.928c0-.5867-.171-1.04-.512-1.36-.342-.32-.827-.48-1.456-.48-.555 0-1.019.1227-1.392.368-.363.2453-.571.576-.624.992h-1.28c.106-.7573.458-1.36 1.056-1.808.608-.448 1.365-.672 2.272-.672.981 0 1.76.2667 2.336.8.576.5227.864 1.232.864 2.128v6.032h-1.248v-1.712h-.208l.24-.256c0 .6507-.251 1.168-.752 1.552-.502.384-1.168.576-2 .576zm.304-1.024c.704 0 1.28-.176 1.728-.528s.672-.8107.672-1.376v-1.328h-2.784c-.502 0-.902.1387-1.2.416-.299.2773-.448.656-.448 1.136 0 .512.181.9227.544 1.232.362.2987.858.448 1.488.448zm6.282.864v-8.8h1.12v1.088h.24l-.176.352c0-.4907.128-.88.384-1.168.266-.288.629-.432 1.088-.432.48 0 .853.1707 1.12.512.277.3413.421.8213.432 1.44l-.336-.704h.528l-.224.352c0-.4907.133-.88.4-1.168.266-.288.629-.432 1.088-.432.544 0 .965.2027 1.264.608.309.4053.464.944.464 1.616v6.736h-1.184v-6.736c0-.384-.086-.6827-.256-.896-.171-.224-.411-.336-.72-.336-.31 0-.555.112-.736.336-.182.2133-.272.512-.272.896v6.736h-1.056v-6.736c0-.3947-.091-.6987-.272-.912-.171-.2133-.411-.32-.72-.32-.31 0-.55.1067-.72.32-.171.2133-.262.5173-.272.912v6.736zm10.041 2.88v-11.68h1.264v1.552h.336l-.384.528c0-.6933.224-1.2373.672-1.632.459-.4053 1.062-.608 1.808-.608.886 0 1.59.2933 2.112.88.534.576.8 1.3653.8 2.368v2.608c0 .672-.122 1.2533-.368 1.744-.245.48-.586.8533-1.024 1.12-.426.2667-.933.4-1.52.4-.736 0-1.333-.2027-1.792-.608-.458-.4053-.688-.9493-.688-1.632l.336.528h-.304l.016 1.792v2.64zm3.296-3.824c.64 0 1.136-.192 1.488-.576.363-.384.544-.928.544-1.632v-2.496c0-.7147-.181-1.2587-.544-1.632-.352-.384-.848-.576-1.488-.576-.618 0-1.114.1973-1.488.592-.362.384-.544.9227-.544 1.616v2.496c0 .6933.182 1.2373.544 1.632.374.384.87.576 1.488.576zm18.5.944v-7.664h-3.2v-1.136h7.68v1.136h-3.2v7.664zm6.538 0v-8.8h1.2v3.264h.784c.938 0 1.68.2507 2.224.752.554.4907.832 1.1627.832 2.016s-.272 1.5307-.816 2.032c-.544.4907-1.291.736-2.24.736zm1.2-1.04h.784c.597 0 1.061-.1493 1.392-.448.341-.3093.512-.736.512-1.28s-.171-.9653-.512-1.264c-.331-.3093-.795-.464-1.392-.464h-.784zm4.992 1.04v-8.8h1.2v8.8zm16.691.144c-.683 0-1.275-.1333-1.776-.4s-.891-.6507-1.168-1.152-.416-1.0933-.416-1.776v-2.432c0-.6933.139-1.2853.416-1.776.277-.5013.667-.8853 1.168-1.152s1.093-.4 1.776-.4 1.275.1333 1.776.4.891.6507 1.168 1.152c.277.4907.416 1.0773.416 1.76v2.448c0 .6827-.139 1.2747-.416 1.776s-.667.8853-1.168 1.152-1.093.4-1.776.4zm0-1.136c.661 0 1.173-.1867 1.536-.56s.544-.9173.544-1.632v-2.432c0-.7147-.187-1.2587-.56-1.632-.363-.3733-.869-.56-1.52-.56s-1.163.1867-1.536.56c-.363.3733-.544.9173-.544 1.632v2.432c0 .7147.181 1.2587.544 1.632.373.3733.885.56 1.536.56zm9.61 1.152c-.683 0-1.28-.1333-1.792-.4s-.912-.6453-1.2-1.136c-.278-.5013-.416-1.0933-.416-1.776v-2.496c0-.6827.138-1.2693.416-1.76.288-.5013.688-.8853 1.2-1.152s1.109-.4 1.792-.4c1.002 0 1.808.272 2.416.816s.922 1.2853.944 2.224h-1.264c-.022-.608-.219-1.0773-.592-1.408-.363-.3307-.864-.496-1.504-.496-.651 0-1.168.192-1.552.576-.384.3733-.576.9067-.576 1.6v2.496c0 .6827.192 1.216.576 1.6s.901.576 1.552.576c.64 0 1.141-.1653 1.504-.496.373-.3413.57-.8107.592-1.408h1.264c-.022.9387-.336 1.68-.944 2.224s-1.414.816-2.416.816zm6.346-.16v-8.8h3.776c.874 0 1.562.208 2.064.624.501.4053.752.9707.752 1.696 0 .608-.208 1.0987-.624 1.472-.406.3627-.95.544-1.632.544v-.112c.736 0 1.328.192 1.776.576.448.3733.672.8747.672 1.504 0 .7787-.267 1.392-.8 1.84-.523.4373-1.248.656-2.176.656zm1.248-1.12h2.56c.522 0 .938-.1227 1.248-.368.309-.256.464-.5973.464-1.024 0-.448-.155-.7947-.464-1.04-.31-.256-.726-.384-1.248-.384h-2.56zm0-3.92h2.528c.469 0 .842-.1173 1.12-.352.288-.2347.432-.5547.432-.96s-.144-.7253-.432-.96c-.278-.2453-.651-.368-1.12-.368h-2.528zm11.577 5.184c-.682 0-1.274-.1333-1.776-.4-.501-.2667-.89-.6507-1.168-1.152-.277-.5013-.416-1.0933-.416-1.776v-2.432c0-.6933.139-1.2853.416-1.776.278-.5013.667-.8853 1.168-1.152.502-.2667 1.094-.4 1.776-.4.683 0 1.275.1333 1.776.4.502.2667.891.6507 1.168 1.152.278.4907.416 1.0773.416 1.76v2.448c0 .6827-.138 1.2747-.416 1.776-.277.5013-.666.8853-1.168 1.152-.501.2667-1.093.4-1.776.4zm0-1.136c.662 0 1.174-.1867 1.536-.56.363-.3733.544-.9173.544-1.632v-2.432c0-.7147-.186-1.2587-.56-1.632-.362-.3733-.869-.56-1.52-.56-.65 0-1.162.1867-1.536.56-.362.3733-.544.9173-.544 1.632v2.432c0 .7147.182 1.2587.544 1.632.374.3733.886.56 1.536.56zm6.362.992v-8.8h1.232v5.008c0 .2987-.011.6187-.032.96-.011.3307-.027.6453-.048.944s-.043.5493-.064.752l3.728-7.664h1.648v8.8h-1.232v-5.008c0-.3093.005-.6293.016-.96.021-.3307.043-.6453.064-.944.032-.3093.053-.5653.064-.768l-3.744 7.68zm9.13 0-.032-8.8h1.2v7.824h2.016v-7.824h1.056v7.824h2v-7.824h1.184v8.8zm10.138 0v-8.8h1.264v3.232h2.64c.981 0 1.754.2507 2.32.752.576.4907.864 1.168.864 2.032 0 .8533-.288 1.5307-.864 2.032-.566.5013-1.339.752-2.32.752zm1.264-1.152h2.64c.608 0 1.072-.1387 1.392-.416.32-.288.48-.6933.48-1.216s-.16-.9227-.48-1.2c-.32-.288-.784-.432-1.392-.432h-2.64zm20.659 1.28c-.917 0-1.659-.1973-2.224-.592s-.907-.928-1.024-1.6h1.328c.085.3093.293.5653.624.768.341.192.773.288 1.296.288h.784c.544 0 .971-.1333 1.28-.4.32-.2773.48-.624.48-1.04 0-.448-.149-.8107-.448-1.088s-.725-.416-1.28-.416h-1.968v-1.104h1.936c.501 0 .885-.128 1.152-.384.277-.256.416-.5867.416-.992 0-.2773-.064-.5173-.192-.72s-.315-.3573-.56-.464c-.245-.1173-.528-.176-.848-.176h-.832c-.48 0-.875.1067-1.184.32-.309.2027-.501.464-.576.784h-1.328c.107-.6613.432-1.2.976-1.616.555-.416 1.259-.624 2.112-.624h.832c.597 0 1.115.1013 1.552.304s.773.4853 1.008.848c.245.3627.368.7893.368 1.28 0 .5333-.165.976-.496 1.328-.32.3413-.773.5333-1.36.576v.064c.704.0427 1.221.2507 1.552.624.331.3627.496.864.496 1.504 0 .7573-.283 1.3707-.848 1.84-.555.4587-1.301.688-2.24.688zm9.322.032c-.928 0-1.659-.2347-2.192-.704-.534-.48-.8-1.1253-.8-1.936 0-.8.261-1.4293.784-1.888.522-.4693 1.226-.704 2.112-.704h2.8v-.928c0-.5867-.171-1.04-.512-1.36-.342-.32-.827-.48-1.456-.48-.555 0-1.019.1227-1.392.368-.363.2453-.571.576-.624.992h-1.28c.106-.7573.458-1.36 1.056-1.808.608-.448 1.365-.672 2.272-.672.981 0 1.76.2667 2.336.8.576.5227.864 1.232.864 2.128v6.032h-1.248v-1.712h-.208l.24-.256c0 .6507-.251 1.168-.752 1.552-.502.384-1.168.576-2 .576zm.304-1.024c.704 0 1.28-.176 1.728-.528s.672-.8107.672-1.376v-1.328h-2.784c-.502 0-.902.1387-1.2.416-.299.2773-.448.656-.448 1.136 0 .512.181.9227.544 1.232.362.2987.858.448 1.488.448zm-316.85 21.864v-7.664h-3.2v-1.136h7.68v1.136h-3.2v7.664zm6.9858 2.88v-11.68h1.264v1.552h.336l-.384.528c0-.693.224-1.237.672-1.632.4586-.405 1.0613-.608 1.808-.608.8853 0 1.5893.293 2.112.88.5333.576.8 1.365.8 2.368v2.608c0 .672-.1227 1.253-.368 1.744-.2454.48-.5867.853-1.024 1.12-.4267.267-.9334.4-1.52.4-.736 0-1.3334-.203-1.792-.608-.4587-.405-.688-.949-.688-1.632l.336.528h-.304l.016 1.792v2.64zm3.296-3.824c.64 0 1.136-.192 1.488-.576.3626-.384.544-.928.544-1.632v-2.496c0-.715-.1814-1.259-.544-1.632-.352-.384-.848-.576-1.488-.576-.6187 0-1.1147.197-1.488.592-.3627.384-.544.923-.544 1.616v2.496c0 .693.1813 1.237.544 1.632.3733.384.8693.576 1.488.576zm6.3137.944v-8.8h1.232v5.008c0 .299-.0107.619-.032.96-.0107.331-.0267.645-.048.944s-.0427.549-.064.752l3.728-7.664h1.648v8.8h-1.232v-5.008c0-.309.0053-.629.016-.96.0213-.331.0427-.645.064-.944.032-.309.0533-.565.064-.768l-3.744 7.68zm18.8995 0v-8.8h1.76l1.28 3.584c.1067.309.208.624.304.944s.1653.571.208.752c.0533-.181.1227-.432.208-.752.096-.32.1973-.64.304-.96l1.232-3.568h1.744v8.8h-1.232v-2.112c0-.459.0053-.949.016-1.472s.0213-1.045.032-1.568.0267-1.013.048-1.472c.0213-.469.0373-.88.048-1.232l-1.744 5.216h-1.344l-1.744-5.184c.0213.427.0373.965.048 1.616.0107.64.0213 1.317.032 2.032.0213.715.032 1.403.032 2.064v2.112zm13.1138.16c-.6827 0-1.2747-.133-1.776-.4-.5014-.277-.8907-.667-1.168-1.168-.2774-.501-.416-1.083-.416-1.744v-2.496c0-.672.1386-1.253.416-1.744.2773-.501.6666-.885 1.168-1.152.5013-.277 1.0933-.416 1.776-.416.6826 0 1.2746.139 1.776.416.5013.267.8906.651 1.168 1.152.2773.491.416 1.072.416 1.744v1.552h-5.472v.944c0 .715.1813 1.269.544 1.664.3733.384.896.576 1.568.576.5653 0 1.024-.112 1.376-.336.3626-.224.592-.549.688-.976h1.264c-.1174.736-.4747 1.317-1.072 1.744-.5974.427-1.3494.64-2.256.64zm2.112-5.104v-.704c0-.715-.1814-1.264-.544-1.648-.3627-.395-.8854-.592-1.568-.592-.672 0-1.1947.197-1.568.592-.3627.384-.544.933-.544 1.648v.56h4.352zm7.4977 5.104c-.6827 0-1.28-.133-1.792-.4s-.912-.645-1.2-1.136c-.2773-.501-.416-1.093-.416-1.776v-2.496c0-.683.1387-1.269.416-1.76.288-.501.688-.885 1.2-1.152s1.1093-.4 1.792-.4c1.0027 0 1.808.272 2.416.816s.9227 1.285.944 2.224h-1.264c-.0213-.608-.2187-1.077-.592-1.408-.3627-.331-.864-.496-1.504-.496-.6507 0-1.168.192-1.552.576-.384.373-.576.907-.576 1.6v2.496c0 .683.192 1.216.576 1.6s.9013.576 1.552.576c.64 0 1.1413-.165 1.504-.496.3733-.341.5707-.811.592-1.408h1.264c-.0213.939-.336 1.68-.944 2.224s-1.4133.816-2.416.816zm5.8498-.16 2.24-3.408c-.6827-.149-1.2107-.453-1.584-.912-.3734-.459-.56-1.035-.56-1.728 0-.853.2826-1.525.848-2.016.576-.491 1.3546-.736 2.336-.736h3.68v8.8h-1.28v-3.296h-2.128l-2.08 3.296zm3.28-4.432h2.4v-3.232h-2.4c-.576 0-1.0347.144-1.376.432-.3414.288-.512.683-.512 1.184s.1706.896.512 1.184c.3413.288.8.432 1.376.432zm13.0657 6.672v-2.24h-6.256v-8.8h1.28v7.664h3.648v-7.664h1.264v7.664h1.216v3.376zm5.882-2.08c-.928 0-1.659-.235-2.192-.704-.534-.48-.8-1.125-.8-1.936 0-.8.261-1.429.784-1.888.522-.469 1.226-.704 2.112-.704h2.8v-.928c0-.587-.171-1.04-.512-1.36-.342-.32-.827-.48-1.456-.48-.555 0-1.019.123-1.392.368-.363.245-.571.576-.624.992h-1.28c.106-.757.458-1.36 1.056-1.808.608-.448 1.365-.672 2.272-.672.981 0 1.76.267 2.336.8.576.523.864 1.232.864 2.128v6.032h-1.248v-1.712h-.208l.24-.256c0 .651-.251 1.168-.752 1.552-.502.384-1.168.576-2 .576zm.304-1.024c.704 0 1.28-.176 1.728-.528s.672-.811.672-1.376v-1.328h-2.784c-.502 0-.902.139-1.2.416-.299.277-.448.656-.448 1.136 0 .512.181.923.544 1.232.362.299.858.448 1.488.448zm18.931.864v-7.664h-3.2v-1.136h7.68v1.136h-3.2v7.664zm10.234.144c-.683 0-1.275-.133-1.776-.4s-.891-.651-1.168-1.152-.416-1.093-.416-1.776v-2.432c0-.693.139-1.285.416-1.776.277-.501.667-.885 1.168-1.152s1.093-.4 1.776-.4 1.275.133 1.776.4.891.651 1.168 1.152c.277.491.416 1.077.416 1.76v2.448c0 .683-.139 1.275-.416 1.776s-.667.885-1.168 1.152-1.093.4-1.776.4zm0-1.136c.661 0 1.173-.187 1.536-.56s.544-.917.544-1.632v-2.432c0-.715-.187-1.259-.56-1.632-.363-.373-.869-.56-1.52-.56s-1.163.187-1.536.56c-.363.373-.544.917-.544 1.632v2.432c0 .715.181 1.259.544 1.632.373.373.885.56 1.536.56zm7.546 3.552 1.248-4.976h1.92l-2.064 4.976zm23.107-2.56v-3.248c-.17.043-.437.085-.8.128-.362.032-.768.048-1.216.048-1.056.011-1.877-.251-2.464-.784-.576-.533-.864-1.285-.864-2.256v-2.688h1.264v2.688c0 .597.182 1.061.544 1.392.374.331.902.496 1.584.496.491 0 .907-.016 1.248-.048.342-.043.576-.08.704-.112v-4.416h1.264v8.8zm7.082 0v-7.664h-3.2v-1.136h7.68v1.136h-3.2v7.664zm10.234.144c-.683 0-1.275-.133-1.776-.4-.502-.267-.891-.651-1.168-1.152-.278-.501-.416-1.093-.416-1.776v-2.432c0-.693.138-1.285.416-1.776.277-.501.666-.885 1.168-1.152.501-.267 1.093-.4 1.776-.4.682 0 1.274.133 1.776.4.501.267.89.651 1.168 1.152.277.491.416 1.077.416 1.76v2.448c0 .683-.139 1.275-.416 1.776-.278.501-.667.885-1.168 1.152-.502.267-1.094.4-1.776.4zm0-1.136c.661 0 1.173-.187 1.536-.56.362-.373.544-.917.544-1.632v-2.432c0-.715-.187-1.259-.56-1.632-.363-.373-.87-.56-1.52-.56-.651 0-1.163.187-1.536.56-.363.373-.544.917-.544 1.632v2.432c0 .715.181 1.259.544 1.632.373.373.885.56 1.536.56zm19.187 1.136c-.682 0-1.274-.133-1.776-.4-.501-.267-.89-.651-1.168-1.152-.277-.501-.416-1.093-.416-1.776v-2.432c0-.693.139-1.285.416-1.776.278-.501.667-.885 1.168-1.152.502-.267 1.094-.4 1.776-.4.683 0 1.275.133 1.776.4.502.267.891.651 1.168 1.152.278.491.416 1.077.416 1.76v2.448c0 .683-.138 1.275-.416 1.776-.277.501-.666.885-1.168 1.152-.501.267-1.093.4-1.776.4zm0-1.136c.662 0 1.174-.187 1.536-.56.363-.373.544-.917.544-1.632v-2.432c0-.715-.186-1.259-.56-1.632-.362-.373-.869-.56-1.52-.56-.65 0-1.162.187-1.536.56-.362.373-.544.917-.544 1.632v2.432c0 .715.182 1.259.544 1.632.374.373.886.56 1.536.56zm9.594 1.152c-1.024 0-1.829-.304-2.416-.912s-.88-1.445-.88-2.512v-4.096c0-1.387.347-2.453 1.04-3.2s1.685-1.12 2.976-1.12h2.176v1.264h-2.176c-.896 0-1.579.267-2.048.8-.469.523-.704 1.275-.704 2.256v1.104h.224l-.224.384c.011-.64.224-1.141.64-1.504.427-.363 1.008-.544 1.744-.544.939 0 1.664.299 2.176.896.512.587.768 1.408.768 2.464v1.296c0 .715-.133 1.328-.4 1.84-.256.512-.629.907-1.12 1.184-.491.267-1.083.4-1.776.4zm0-1.136c.651 0 1.152-.197 1.504-.592s.528-.96.528-1.696v-1.296c0-.725-.176-1.291-.528-1.696s-.853-.608-1.504-.608-1.152.203-1.504.608-.528.971-.528 1.696v1.296c0 .736.176 1.301.528 1.696.363.395.864.592 1.504.592zm5.898.976v-8.8h1.2v3.264h.784c.938 0 1.68.251 2.224.752.554.491.832 1.163.832 2.016s-.272 1.531-.816 2.032c-.544.491-1.291.736-2.24.736zm1.2-1.04h.784c.597 0 1.061-.149 1.392-.448.341-.309.512-.736.512-1.28s-.171-.965-.512-1.264c-.331-.309-.795-.464-1.392-.464h-.784zm4.992 1.04v-8.8h1.2v8.8zm8.97 0v-3.248c-.171.043-.438.085-.8.128-.363.032-.768.048-1.216.048-1.056.011-1.878-.251-2.464-.784-.576-.533-.864-1.285-.864-2.256v-2.688h1.264v2.688c0 .597.181 1.061.544 1.392.373.331.901.496 1.584.496.49 0 .906-.016 1.248-.048.341-.043.576-.08.704-.112v-4.416h1.264v8.8zm4.489 0v-8.8h1.28v3.744h3.904v-3.744h1.28v8.8h-1.28v-3.904h-3.904v3.904zm12.826.144c-.683 0-1.275-.133-1.776-.4s-.891-.651-1.168-1.152-.416-1.093-.416-1.776v-2.432c0-.693.139-1.285.416-1.776.277-.501.667-.885 1.168-1.152s1.093-.4 1.776-.4 1.275.133 1.776.4.891.651 1.168 1.152c.277.491.416 1.077.416 1.76v2.448c0 .683-.139 1.275-.416 1.776s-.667.885-1.168 1.152-1.093.4-1.776.4zm0-1.136c.661 0 1.173-.187 1.536-.56s.544-.917.544-1.632v-2.432c0-.715-.187-1.259-.56-1.632-.363-.373-.869-.56-1.52-.56s-1.163.187-1.536.56c-.363.373-.544.917-.544 1.632v2.432c0 .715.181 1.259.544 1.632.373.373.885.56 1.536.56zm15.956.992v-8.8h1.232v5.008c0 .299-.011.619-.032.96-.011.331-.027.645-.048.944-.022.299-.043.549-.064.752l3.728-7.664h1.648v8.8h-1.232v-5.008c0-.309.005-.629.016-.96.021-.331.042-.645.064-.944.032-.309.053-.565.064-.768l-3.744 7.68zm12.409.128c-.917 0-1.658-.197-2.224-.592-.565-.395-.906-.928-1.024-1.6h1.328c.086.309.294.565.624.768.342.192.774.288 1.296.288h.784c.544 0 .971-.133 1.28-.4.32-.277.48-.624.48-1.04 0-.448-.149-.811-.448-1.088-.298-.277-.725-.416-1.28-.416h-1.968v-1.104h1.936c.502 0 .886-.128 1.152-.384.278-.256.416-.587.416-.992 0-.277-.064-.517-.192-.72s-.314-.357-.56-.464c-.245-.117-.528-.176-.848-.176h-.832c-.48 0-.874.107-1.184.32-.309.203-.501.464-.576.784h-1.328c.107-.661.432-1.2.976-1.616.555-.416 1.259-.624 2.112-.624h.832c.598 0 1.115.101 1.552.304.438.203.774.485 1.008.848.246.363.368.789.368 1.28 0 .533-.165.976-.496 1.328-.32.341-.773.533-1.36.576v.064c.704.043 1.222.251 1.552.624.331.363.496.864.496 1.504 0 .757-.282 1.371-.848 1.84-.554.459-1.301.688-2.24.688zm8.154 2.752 1.296-3.44-3.264-8.24h1.408l2.08 5.488c.085.213.165.453.24.72.085.256.149.469.192.64.053-.171.117-.389.192-.656s.149-.507.224-.72l1.952-5.472h1.36l-4.336 11.68zm13.322-2.88v-3.248c-.171.043-.438.085-.8.128-.363.032-.768.048-1.216.048-1.056.011-1.878-.251-2.464-.784-.576-.533-.864-1.285-.864-2.256v-2.688h1.264v2.688c0 .597.181 1.061.544 1.392.373.331.901.496 1.584.496.49 0 .906-.016 1.248-.048.341-.043.576-.08.704-.112v-4.416h1.264v8.8zm7.033.16c-.927 0-1.658-.235-2.191-.704-.534-.48-.8-1.125-.8-1.936 0-.8.261-1.429.784-1.888.522-.469 1.226-.704 2.112-.704h2.8v-.928c0-.587-.171-1.04-.512-1.36-.342-.32-.827-.48-1.456-.48-.555 0-1.019.123-1.392.368-.363.245-.571.576-.624.992h-1.28c.106-.757.458-1.36 1.056-1.808.608-.448 1.365-.672 2.272-.672.981 0 1.76.267 2.336.8.576.523.863 1.232.863 2.128v6.032h-1.247v-1.712h-.208l.24-.256c0 .651-.251 1.168-.752 1.552-.502.384-1.168.576-2.001.576zm.305-1.024c.704 0 1.28-.176 1.728-.528s.672-.811.672-1.376v-1.328h-2.784c-.502 0-.902.139-1.2.416-.299.277-.448.656-.448 1.136 0 .512.181.923.544 1.232.362.299.858.448 1.488.448zm11.353 1.024c-.736 0-1.328-.245-1.776-.736-.437-.501-.656-1.163-.656-1.984v-1.392h-1.52v3.952h-1.168v-8.8h1.168v3.824h1.52v-1.264c0-.832.219-1.493.656-1.984.438-.491 1.03-.736 1.776-.736.779 0 1.403.245 1.872.736.47.491.704 1.152.704 1.984v3.68c0 .821-.234 1.483-.704 1.984-.469.491-1.093.736-1.872.736zm0-1.008c.438 0 .779-.149 1.024-.448.246-.309.368-.731.368-1.264v-3.68c0-.533-.122-.949-.368-1.248-.245-.309-.586-.464-1.024-.464-.426 0-.762.155-1.008.464-.245.299-.368.715-.368 1.248v3.68c0 .533.123.955.368 1.264.246.299.582.448 1.008.448zm7.578.848v-7.664h-3.2v-1.136h7.68v1.136h-3.2v7.664zm-309.592 21v-8.8h6.464v8.8h-1.28v-7.648h-3.904v7.648zm12.8258.144c-.6827 0-1.2747-.133-1.776-.4-.5014-.267-.8907-.651-1.168-1.152-.2774-.501-.416-1.093-.416-1.776v-2.432c0-.693.1386-1.285.416-1.776.2773-.501.6666-.885 1.168-1.152.5013-.267 1.0933-.4 1.776-.4.6826 0 1.2746.133 1.776.4.5013.267.8906.651 1.168 1.152.2773.491.416 1.077.416 1.76v2.448c0 .683-.1387 1.275-.416 1.776-.2774.501-.6667.885-1.168 1.152-.5014.267-1.0934.4-1.776.4zm0-1.136c.6613 0 1.1733-.187 1.536-.56.3626-.373.544-.917.544-1.632v-2.432c0-.715-.1867-1.259-.56-1.632-.3627-.373-.8694-.56-1.52-.56-.6507 0-1.1627.187-1.536.56-.3627.373-.544.917-.544 1.632v2.432c0 .715.1813 1.259.544 1.632.3733.373.8853.56 1.536.56zm5.2417 1.104v-1.2h.32c.4587 0 .7947-.187 1.008-.56.2133-.384.3253-1.019.336-1.904l.112-5.248h5.808v8.8h-1.28v-7.648h-3.28l-.096 4.144c-.0107.832-.112 1.515-.304 2.048-.1813.533-.4587.928-.832 1.184-.3627.256-.8373.384-1.424.384zm13.3058-.112v-7.664h-3.2v-1.136h7.68v1.136h-3.2v7.664zm10.2337.144c-.6827 0-1.2747-.133-1.776-.4s-.8907-.651-1.168-1.152-.416-1.093-.416-1.776v-2.432c0-.693.1387-1.285.416-1.776.2773-.501.6667-.885 1.168-1.152s1.0933-.4 1.776-.4 1.2747.133 1.776.4.8907.651 1.168 1.152c.2773.491.416 1.077.416 1.76v2.448c0 .683-.1387 1.275-.416 1.776s-.6667.885-1.168 1.152-1.0933.4-1.776.4zm0-1.136c.6613 0 1.1733-.187 1.536-.56s.544-.917.544-1.632v-2.432c0-.715-.1867-1.259-.56-1.632-.3627-.373-.8693-.56-1.52-.56s-1.1627.187-1.536.56c-.3627.373-.544.917-.544 1.632v2.432c0 .715.1813 1.259.544 1.632.3733.373.8853.56 1.536.56zm6.3458 3.872v-11.68h1.264v1.552h.336l-.384.528c0-.693.224-1.237.672-1.632.4586-.405 1.0613-.608 1.808-.608.8853 0 1.5893.293 2.112.88.5333.576.8 1.365.8 2.368v2.608c0 .672-.1227 1.253-.368 1.744-.2454.48-.5867.853-1.024 1.12-.4267.267-.9334.4-1.52.4-.736 0-1.3334-.203-1.792-.608-.4587-.405-.688-.949-.688-1.632l.336.528h-.304l.016 1.792v2.64zm3.296-3.824c.64 0 1.136-.192 1.488-.576.3626-.384.544-.928.544-1.632v-2.496c0-.715-.1814-1.259-.544-1.632-.352-.384-.848-.576-1.488-.576-.6187 0-1.1147.197-1.488.592-.3627.384-.544.923-.544 1.616v2.496c0 .693.1813 1.237.544 1.632.3733.384.8693.576 1.488.576zm8.8577 1.104c-.928 0-1.6587-.235-2.192-.704-.5333-.48-.8-1.125-.8-1.936 0-.8.2613-1.429.784-1.888.5227-.469 1.2267-.704 2.112-.704h2.8v-.928c0-.587-.1707-1.04-.512-1.36s-.8267-.48-1.456-.48c-.5547 0-1.0187.123-1.392.368-.3627.245-.5707.576-.624.992h-1.28c.1067-.757.4587-1.36 1.056-1.808.608-.448 1.3653-.672 2.272-.672.9813 0 1.76.267 2.336.8.576.523.864 1.232.864 2.128v6.032h-1.248v-1.712h-.208l.24-.256c0 .651-.2507 1.168-.752 1.552s-1.168.576-2 .576zm.304-1.024c.704 0 1.28-.176 1.728-.528s.672-.811.672-1.376v-1.328h-2.784c-.5013 0-.9013.139-1.2.416s-.448.656-.448 1.136c0 .512.1813.923.544 1.232.3627.299.8587.448 1.488.448zm16.9155.864v-8.8h6.24v1.152h-4.976v7.648zm12.25.144c-.683 0-1.275-.133-1.776-.4-.502-.267-.891-.651-1.168-1.152-.278-.501-.416-1.093-.416-1.776v-2.432c0-.693.138-1.285.416-1.776.277-.501.666-.885 1.168-1.152.501-.267 1.093-.4 1.776-.4.682 0 1.274.133 1.776.4.501.267.89.651 1.168 1.152.277.491.416 1.077.416 1.76v2.448c0 .683-.139 1.275-.416 1.776-.278.501-.667.885-1.168 1.152-.502.267-1.094.4-1.776.4zm0-1.136c.661 0 1.173-.187 1.536-.56.362-.373.544-.917.544-1.632v-2.432c0-.715-.187-1.259-.56-1.632-.363-.373-.87-.56-1.52-.56-.651 0-1.163.187-1.536.56-.363.373-.544.917-.544 1.632v2.432c0 .715.181 1.259.544 1.632.373.373.885.56 1.536.56zm5.338 3.232v-3.328h.72c.181-.203.368-.565.56-1.088.202-.533.309-1.179.32-1.936l.096-4.688h5.6v7.712h1.136v3.328h-1.136v-2.24h-6.16v2.24zm2.08-3.328h3.952v-6.576h-3.136l-.064 3.568c-.011.8-.102 1.456-.272 1.968-.171.512-.331.859-.48 1.04zm11.081 1.248c-.928 0-1.658-.235-2.192-.704-.533-.48-.8-1.125-.8-1.936 0-.8.262-1.429.784-1.888.523-.469 1.227-.704 2.112-.704h2.8v-.928c0-.587-.17-1.04-.512-1.36-.341-.32-.826-.48-1.456-.48-.554 0-1.018.123-1.392.368-.362.245-.57.576-.624.992h-1.28c.107-.757.459-1.36 1.056-1.808.608-.448 1.366-.672 2.272-.672.982 0 1.76.267 2.336.8.576.523.864 1.232.864 2.128v6.032h-1.248v-1.712h-.208l.24-.256c0 .651-.25 1.168-.752 1.552-.501.384-1.168.576-2 .576zm.304-1.024c.704 0 1.28-.176 1.728-.528s.672-.811.672-1.376v-1.328h-2.784c-.501 0-.901.139-1.2.416-.298.277-.448.656-.448 1.136 0 .512.182.923.544 1.232.363.299.859.448 1.488.448zm9.978 1.024c-.395 0-.709-.112-.944-.336-.224-.235-.336-.544-.336-.928 0-.405.112-.725.336-.96.235-.235.549-.352.944-.352s.704.117.928.352c.235.235.352.555.352.96 0 .384-.117.693-.352.928-.224.224-.533.336-.928.336z"/></g></svg>