<svg fill="none" height="90" viewBox="0 0 728 90" width="728" xmlns="http://www.w3.org/2000/svg" xmlns:xlink="http://www.w3.org/1999/xlink"><filter id="a" color-interpolation-filters="sRGB" filterUnits="userSpaceOnUse" height="258" width="258" x="381" y="-49"><feFlood flood-opacity="0" result="BackgroundImageFix"/><feBlend in="SourceGraphic" in2="BackgroundImageFix" mode="normal" result="shape"/><feGaussianBlur result="effect1_foregroundBlur_61_1081" stdDeviation="50"/></filter><filter id="b" color-interpolation-filters="sRGB" filterUnits="userSpaceOnUse" height="270" width="270" x="-90" y="-131"><feFlood flood-opacity="0" result="BackgroundImageFix"/><feBlend in="SourceGraphic" in2="BackgroundImageFix" mode="normal" result="shape"/><feGaussianBlur result="effect1_foregroundBlur_61_1081" stdDeviation="50"/></filter><clipPath id="c"><path d="m0 0h728v90h-728z"/></clipPath><g clip-path="url(#c)"><path d="m0 0h728v90h-728z" fill="#3e2b2e"/><g filter="url(#a)"><circle cx="510" cy="80" fill="#ee909f" r="29"/></g><g filter="url(#b)"><circle cx="45" cy="4" fill="#ee909f" r="35"/></g><path d="m121.782 41v-19.71h12.474v3.78h-8.559v3.942h2.646c1.368 0 2.556.252 3.564.756 1.008.486 1.791 1.179 2.349 2.079.576.882.864 1.926.864 3.132s-.288 2.259-.864 3.159c-.558.9-1.341 1.602-2.349 2.106s-2.187.756-3.537.756zm3.915-3.375h2.673c.828 0 1.485-.234 1.971-.702s.729-1.098.729-1.89c0-.81-.243-1.449-.729-1.917-.486-.486-1.143-.729-1.971-.729h-2.673zm11.572 3.375v-14.85h3.375v4.725h.81c1.602 0 2.88.468 3.834 1.404s1.431 2.187 1.431 3.753c0 1.494-.486 2.7-1.458 3.618-.954.9-2.223 1.35-3.807 1.35zm3.375-3.105h.81c.648 0 1.143-.162 1.485-.486.36-.324.54-.792.54-1.404 0-.648-.18-1.143-.54-1.485-.342-.36-.837-.54-1.485-.54h-.81zm7.29 3.105v-14.85h3.375v14.85zm12.626.27c-1.314 0-2.466-.243-3.456-.729-.99-.504-1.755-1.197-2.295-2.079-.54-.9-.81-1.944-.81-3.132v-3.51c0-1.206.27-2.25.81-3.132s1.305-1.566 2.295-2.052c.99-.504 2.142-.756 3.456-.756 1.962 0 3.528.495 4.698 1.485s1.791 2.34 1.863 4.05h-4.05c-.054-.63-.306-1.125-.756-1.485-.432-.36-1.017-.54-1.755-.54-.81 0-1.431.207-1.863.621s-.648 1.017-.648 1.809v3.51c0 .774.216 1.377.648 1.809.432.414 1.053.621 1.863.621.738 0 1.323-.171 1.755-.513.45-.36.702-.864.756-1.512h4.05c-.072 1.71-.693 3.06-1.863 4.05s-2.736 1.485-4.698 1.485zm14.083-.27v-11.07h-4.86v-3.78h13.77v3.78h-4.86v11.07zm11.897 4.86v-19.71h3.915v2.835h.945l-.945.945c0-1.278.351-2.268 1.053-2.97.702-.72 1.665-1.08 2.889-1.08 1.494 0 2.691.531 3.591 1.593.9 1.044 1.35 2.448 1.35 4.212v3.78c0 1.17-.207 2.196-.621 3.078-.396.864-.963 1.539-1.701 2.025-.738.468-1.611.702-2.619.702-1.224 0-2.187-.351-2.889-1.053-.702-.72-1.053-1.719-1.053-2.997l.945.945h-.945l.135 3.645v4.05zm6.399-8.1c.756 0 1.332-.207 1.728-.621.414-.432.621-1.035.621-1.809v-3.51c0-.792-.207-1.395-.621-1.809-.396-.414-.972-.621-1.728-.621-.738 0-1.314.216-1.728.648-.414.414-.621 1.008-.621 1.782v3.51c0 .774.207 1.377.621 1.809.414.414.99.621 1.728.621zm16.108 3.51c-1.314 0-2.457-.243-3.429-.729-.972-.504-1.728-1.197-2.268-2.079-.522-.9-.783-1.944-.783-3.132v-3.51c0-1.188.261-2.223.783-3.105.54-.9 1.296-1.593 2.268-2.079.972-.504 2.115-.756 3.429-.756 1.332 0 2.475.252 3.429.756.972.486 1.719 1.179 2.241 2.079.54.882.81 1.917.81 3.105v3.51c0 1.188-.27 2.232-.81 3.132-.522.882-1.269 1.575-2.241 2.079-.954.486-2.097.729-3.429.729zm0-3.51c.792 0 1.395-.207 1.809-.621.414-.432.621-1.035.621-1.809v-3.51c0-.792-.207-1.395-.621-1.809s-1.017-.621-1.809-.621c-.774 0-1.377.207-1.809.621-.414.414-.621 1.017-.621 1.809v3.51c0 .774.207 1.377.621 1.809.432.414 1.035.621 1.809.621zm32.46 3.51c-1.314 0-2.466-.243-3.456-.729-.99-.504-1.755-1.197-2.295-2.079-.54-.9-.81-1.944-.81-3.132v-3.51c0-1.206.27-2.25.81-3.132s1.305-1.566 2.295-2.052c.99-.504 2.142-.756 3.456-.756 1.962 0 3.528.495 4.698 1.485s1.791 2.34 1.863 4.05h-4.05c-.054-.63-.306-1.125-.756-1.485-.432-.36-1.017-.54-1.755-.54-.81 0-1.431.207-1.863.621s-.648 1.017-.648 1.809v3.51c0 .774.216 1.377.648 1.809.432.414 1.053.621 1.863.621.738 0 1.323-.171 1.755-.513.45-.36.702-.864.756-1.512h4.05c-.072 1.71-.693 3.06-1.863 4.05s-2.736 1.485-4.698 1.485zm14.084-.27v-11.07h-4.86v-3.78h13.77v3.78h-4.86v11.07zm16.297.27c-1.494 0-2.682-.405-3.564-1.215-.864-.81-1.296-1.908-1.296-3.294 0-1.494.513-2.637 1.539-3.429 1.044-.81 2.538-1.215 4.482-1.215h3.078v-1.107c0-.576-.207-1.035-.621-1.377-.396-.342-.936-.513-1.62-.513-.63 0-1.152.144-1.566.432s-.666.684-.756 1.188h-3.915c.162-1.494.81-2.673 1.944-3.537 1.152-.882 2.628-1.323 4.428-1.323 1.89 0 3.384.468 4.482 1.404 1.116.918 1.674 2.16 1.674 3.726v9.99h-3.915v-2.43h-.648l.675-.945c0 1.116-.405 2.007-1.215 2.673-.792.648-1.854.972-3.186.972zm1.512-2.97c.792 0 1.44-.207 1.944-.621.522-.432.783-.99.783-1.674v-1.593h-2.997c-.612 0-1.107.18-1.485.54-.378.342-.567.801-.567 1.377 0 .612.207 1.098.621 1.458.414.342.981.513 1.701.513zm14.57 2.7v-11.07h-4.86v-3.78h13.77v3.78h-4.86v11.07zm12.004 0v-14.85h4.05v4.455h3.483c1.872 0 3.33.468 4.374 1.404 1.062.918 1.593 2.196 1.593 3.834 0 1.584-.54 2.844-1.62 3.78-1.062.918-2.502 1.377-4.32 1.377zm4.05-3.51h3.24c.684 0 1.206-.144 1.566-.432.378-.306.567-.72.567-1.242 0-.54-.189-.954-.567-1.242-.36-.306-.882-.459-1.566-.459h-3.24zm32.892 8.37v-4.86c-1.71 0-3.06-.495-4.05-1.485-.972-1.008-1.458-2.376-1.458-4.104v-3.699c0-1.71.495-3.06 1.485-4.05.99-1.008 2.331-1.512 4.023-1.512v-4.86h3.294v4.86c1.71 0 3.051.504 4.023 1.512.99.99 1.485 2.34 1.485 4.05v3.699c0 1.728-.495 3.096-1.485 4.104-.972.99-2.313 1.485-4.023 1.485v4.86zm.189-8.046v-8.505c-.702 0-1.26.216-1.674.648-.396.414-.594.999-.594 1.755v3.699c0 .756.198 1.35.594 1.782.414.414.972.621 1.674.621zm2.916 0c.702 0 1.251-.207 1.647-.621.414-.432.621-1.026.621-1.782v-3.699c0-.756-.207-1.341-.621-1.755-.396-.432-.945-.648-1.647-.648zm8.413 8.046v-19.71h3.915v2.835h.945l-.945.945c0-1.278.351-2.268 1.053-2.97.702-.72 1.665-1.08 2.889-1.08 1.494 0 2.691.531 3.591 1.593.9 1.044 1.35 2.448 1.35 4.212v3.78c0 1.17-.207 2.196-.621 3.078-.396.864-.963 1.539-1.701 2.025-.738.468-1.611.702-2.619.702-1.224 0-2.187-.351-2.889-1.053-.702-.72-1.053-1.719-1.053-2.997l.945.945h-.945l.135 3.645v4.05zm6.399-8.1c.756 0 1.332-.207 1.728-.621.414-.432.621-1.035.621-1.809v-3.51c0-.792-.207-1.395-.621-1.809-.396-.414-.972-.621-1.728-.621-.738 0-1.314.216-1.728.648-.414.414-.621 1.008-.621 1.782v3.51c0 .774.207 1.377.621 1.809.414.414.99.621 1.728.621zm16.109 3.51c-1.314 0-2.457-.243-3.429-.729-.972-.504-1.728-1.197-2.268-2.079-.522-.9-.783-1.944-.783-3.132v-3.51c0-1.188.261-2.223.783-3.105.54-.9 1.296-1.593 2.268-2.079.972-.504 2.115-.756 3.429-.756 1.332 0 2.475.252 3.429.756.972.486 1.719 1.179 2.241 2.079.54.882.81 1.917.81 3.105v3.51c0 1.188-.27 2.232-.81 3.132-.522.882-1.269 1.575-2.241 2.079-.954.486-2.097.729-3.429.729zm0-3.51c.792 0 1.395-.207 1.809-.621.414-.432.621-1.035.621-1.809v-3.51c0-.792-.207-1.395-.621-1.809s-1.017-.621-1.809-.621c-.774 0-1.377.207-1.809.621-.414.414-.621 1.017-.621 1.809v3.51c0 .774.207 1.377.621 1.809.432.414 1.035.621 1.809.621zm9.871 3.24v-14.85h4.05v5.427h4.536v-5.427h4.05v14.85h-4.05v-5.643h-4.536v5.643zm20.483 0v-11.07h-4.86v-3.78h13.77v3.78h-4.86v11.07zm18.241.27c-1.314 0-2.466-.243-3.456-.729-.972-.504-1.728-1.197-2.268-2.079-.522-.9-.783-1.944-.783-3.132v-3.51c0-1.188.261-2.223.783-3.105.54-.9 1.296-1.593 2.268-2.079.99-.504 2.142-.756 3.456-.756s2.448.252 3.402.756c.972.486 1.719 1.179 2.241 2.079.54.882.81 1.917.81 3.105v2.7h-9.099v.81c0 .936.225 1.647.675 2.133.45.468 1.125.702 2.025.702.63 0 1.134-.108 1.512-.324.396-.216.657-.513.783-.891h3.969c-.324 1.296-1.062 2.34-2.214 3.132-1.134.792-2.502 1.188-4.104 1.188zm2.592-8.829v-.675c0-.918-.216-1.62-.648-2.106-.414-.486-1.062-.729-1.944-.729s-1.548.252-1.998.756c-.432.504-.648 1.215-.648 2.133v.405l5.508-.054zm7.253 8.559v-14.85h4.05v5.427h4.536v-5.427h4.05v14.85h-4.05v-5.643h-4.536v5.643zm15.001 3.78v-7.209h.837c.306-.306.621-.837.945-1.593.342-.774.522-1.71.54-2.808l.135-7.02h10.935v11.421h1.62v7.209h-3.78v-3.78h-7.452v3.78zm4.86-7.209h4.752v-7.938h-3.429l-.081 3.51c-.018 1.044-.171 1.962-.459 2.754-.27.774-.531 1.332-.783 1.674zm18.863 3.699c-1.314 0-2.466-.243-3.456-.729-.972-.504-1.728-1.197-2.268-2.079-.522-.9-.783-1.944-.783-3.132v-3.51c0-1.188.261-2.223.783-3.105.54-.9 1.296-1.593 2.268-2.079.99-.504 2.142-.756 3.456-.756s2.448.252 3.402.756c.972.486 1.719 1.179 2.241 2.079.54.882.81 1.917.81 3.105v2.7h-9.099v.81c0 .936.225 1.647.675 2.133.45.468 1.125.702 2.025.702.63 0 1.134-.108 1.512-.324.396-.216.657-.513.783-.891h3.969c-.324 1.296-1.062 2.34-2.214 3.132-1.134.792-2.502 1.188-4.104 1.188zm2.592-8.829v-.675c0-.918-.216-1.62-.648-2.106-.414-.486-1.062-.729-1.944-.729s-1.548.252-1.998.756c-.432.504-.648 1.215-.648 2.133v.405l5.508-.054zm7.252 13.419v-19.71h3.915v2.835h.945l-.945.945c0-1.278.351-2.268 1.053-2.97.702-.72 1.665-1.08 2.889-1.08 1.494 0 2.691.531 3.591 1.593.9 1.044 1.35 2.448 1.35 4.212v3.78c0 1.17-.207 2.196-.621 3.078-.396.864-.963 1.539-1.701 2.025-.738.468-1.611.702-2.619.702-1.224 0-2.187-.351-2.889-1.053-.702-.72-1.053-1.719-1.053-2.997l.945.945h-.945l.135 3.645v4.05zm6.399-8.1c.756 0 1.332-.207 1.728-.621.414-.432.621-1.035.621-1.809v-3.51c0-.792-.207-1.395-.621-1.809-.396-.414-.972-.621-1.728-.621-.738 0-1.314.216-1.728.648-.414.414-.621 1.008-.621 1.782v3.51c0 .774.207 1.377.621 1.809.414.414.99.621 1.728.621zm16.108 3.51c-1.314 0-2.457-.243-3.429-.729-.972-.504-1.728-1.197-2.268-2.079-.522-.9-.783-1.944-.783-3.132v-3.51c0-1.188.261-2.223.783-3.105.54-.9 1.296-1.593 2.268-2.079.972-.504 2.115-.756 3.429-.756 1.332 0 2.475.252 3.429.756.972.486 1.719 1.179 2.241 2.079.54.882.81 1.917.81 3.105v3.51c0 1.188-.27 2.232-.81 3.132-.522.882-1.269 1.575-2.241 2.079-.954.486-2.097.729-3.429.729zm0-3.51c.792 0 1.395-.207 1.809-.621.414-.432.621-1.035.621-1.809v-3.51c0-.792-.207-1.395-.621-1.809s-1.017-.621-1.809-.621c-.774 0-1.377.207-1.809.621-.414.414-.621 1.017-.621 1.809v3.51c0 .774.207 1.377.621 1.809.432.414 1.035.621 1.809.621zm9.224 3.24v-14.85h4.563l1.755 5.535c.198.63.351 1.206.459 1.728.126.504.198.882.216 1.134.036-.252.099-.63.189-1.134.108-.522.261-1.098.459-1.728l1.728-5.535h4.563v14.85h-3.699v-2.7c0-.594.009-1.26.027-1.998.036-.756.072-1.53.108-2.322.054-.81.099-1.584.135-2.322.054-.756.108-1.422.162-1.998l-1.971 7.155h-3.429l-2.079-7.155c.072.738.144 1.62.216 2.646.09 1.026.162 2.07.216 3.132.054 1.044.081 1.998.081 2.862v2.7z" fill="#fff"/><path d="m121.71 69v-13.14h1.386v8.1c0 .396-.012.81-.036 1.242-.012.432-.03.834-.054 1.206-.012.372-.024.684-.036.936l4.194-11.484h1.926v13.14h-1.386v-8.1c0-.348.006-.732.018-1.152.024-.42.048-.828.072-1.224s.048-.732.072-1.008l-4.248 11.484zm21.64 0v-9.9h1.44v4.212h4.392v-4.212h1.44v9.9h-1.44v-4.392h-4.392v4.392zm13.655.18c-1.044 0-1.866-.264-2.466-.792-.6-.54-.9-1.266-.9-2.178 0-.9.294-1.608.882-2.124.588-.528 1.38-.792 2.376-.792h3.15v-1.044c0-.66-.192-1.17-.576-1.53s-.93-.54-1.638-.54c-.624 0-1.146.138-1.566.414-.408.276-.642.648-.702 1.116h-1.44c.12-.852.516-1.53 1.188-2.034.684-.504 1.536-.756 2.556-.756 1.104 0 1.98.3 2.628.9.648.588.972 1.386.972 2.394v6.786h-1.404v-1.926h-.234l.27-.288c0 .732-.282 1.314-.846 1.746s-1.314.648-2.25.648zm.342-1.152c.792 0 1.44-.198 1.944-.594s.756-.912.756-1.548v-1.494h-3.132c-.564 0-1.014.156-1.35.468s-.504.738-.504 1.278c0 .576.204 1.038.612 1.386.408.336.966.504 1.674.504zm13.331.972v-3.654c-.192.048-.492.096-.9.144-.408.036-.864.054-1.368.054-1.188.012-2.112-.282-2.772-.882-.648-.6-.972-1.446-.972-2.538v-3.024h1.422v3.024c0 .672.204 1.194.612 1.566.42.372 1.014.558 1.782.558.552 0 1.02-.018 1.404-.054.384-.048.648-.09.792-.126v-4.968h1.422v9.9zm7.913.18c-1.044 0-1.866-.264-2.466-.792-.6-.54-.9-1.266-.9-2.178 0-.9.294-1.608.882-2.124.588-.528 1.38-.792 2.376-.792h3.15v-1.044c0-.66-.192-1.17-.576-1.53s-.93-.54-1.638-.54c-.624 0-1.146.138-1.566.414-.408.276-.642.648-.702 1.116h-1.44c.12-.852.516-1.53 1.188-2.034.684-.504 1.536-.756 2.556-.756 1.104 0 1.98.3 2.628.9.648.588.972 1.386.972 2.394v6.786h-1.404v-1.926h-.234l.27-.288c0 .732-.282 1.314-.846 1.746s-1.314.648-2.25.648zm.342-1.152c.792 0 1.44-.198 1.944-.594s.756-.912.756-1.548v-1.494h-3.132c-.564 0-1.014.156-1.35.468s-.504.738-.504 1.278c0 .576.204 1.038.612 1.386.408.336.966.504 1.674.504zm10.505.972v-8.622h-3.6v-1.278h8.64v1.278h-3.6v8.622zm7.967 0v-9.9h1.422v3.636h2.97c1.104 0 1.974.282 2.61.846.648.552.972 1.314.972 2.286 0 .96-.324 1.722-.972 2.286-.636.564-1.506.846-2.61.846zm1.422-1.296h2.97c.684 0 1.206-.156 1.566-.468.36-.324.54-.78.54-1.368s-.18-1.038-.54-1.35c-.36-.324-.882-.486-1.566-.486h-2.97zm19.75 1.296v-9.9h1.98l1.44 4.032c.12.348.234.702.342 1.062s.186.642.234.846c.06-.204.138-.486.234-.846.108-.36.222-.72.342-1.08l1.386-4.014h1.962v9.9h-1.386v-2.376c0-.516.006-1.068.018-1.656s.024-1.176.036-1.764.03-1.14.054-1.656c.024-.528.042-.99.054-1.386l-1.962 5.868h-1.512l-1.962-5.832c.024.48.042 1.086.054 1.818.012.72.024 1.482.036 2.286.024.804.036 1.578.036 2.322v2.376zm10.595 0v-9.9h1.35v3.672h.882c1.056 0 1.89.282 2.502.846.624.552.936 1.308.936 2.268s-.306 1.722-.918 2.286c-.612.552-1.452.828-2.52.828zm1.35-1.17h.882c.672 0 1.194-.168 1.566-.504.384-.348.576-.828.576-1.44s-.192-1.086-.576-1.422c-.372-.348-.894-.522-1.566-.522h-.882zm5.616 1.17v-9.9h1.35v9.9zm8.003.18c-.768 0-1.44-.15-2.016-.45s-1.026-.726-1.35-1.278c-.312-.564-.468-1.23-.468-1.998v-2.808c0-.768.156-1.428.468-1.98.324-.564.774-.996 1.35-1.296s1.248-.45 2.016-.45c1.128 0 2.034.306 2.718.918s1.038 1.446 1.062 2.502h-1.422c-.024-.684-.246-1.212-.666-1.584-.408-.372-.972-.558-1.692-.558-.732 0-1.314.216-1.746.648-.432.42-.648 1.02-.648 1.8v2.808c0 .768.216 1.368.648 1.8s1.014.648 1.746.648c.72 0 1.284-.186 1.692-.558.42-.384.642-.912.666-1.584h1.422c-.024 1.056-.378 1.89-1.062 2.502s-1.59.918-2.718.918zm5.879-.054v-1.35h.36c.516 0 .894-.21 1.134-.63.24-.432.366-1.146.378-2.142l.126-5.904h6.534v9.9h-1.44v-8.604h-3.69l-.108 4.662c-.012.936-.126 1.704-.342 2.304-.204.6-.516 1.044-.936 1.332-.408.288-.942.432-1.602.432zm12.053-.126v-9.9h1.386v5.634c0 .336-.012.696-.036 1.08-.012.372-.03.726-.054 1.062s-.048.618-.072.846l4.194-8.622h1.854v9.9h-1.386v-5.634c0-.348.006-.708.018-1.08.024-.372.048-.726.072-1.062.036-.348.06-.636.072-.864l-4.212 8.64zm13.709 0v-8.622h-3.6v-1.278h8.64v1.278h-3.6v8.622zm7.967 0v-9.9h1.422v3.636h2.97c1.104 0 1.974.282 2.61.846.648.552.972 1.314.972 2.286 0 .96-.324 1.722-.972 2.286-.636.564-1.506.846-2.61.846zm1.422-1.296h2.97c.684 0 1.206-.156 1.566-.468.36-.324.54-.78.54-1.368s-.18-1.038-.54-1.35c-.36-.324-.882-.486-1.566-.486h-2.97zm20.127 1.296v-9.9h1.44v4.158h1.872l2.934-4.158h1.638l-3.33 4.716 3.402 5.184h-1.674l-2.97-4.5h-1.872v4.5zm13.601.18c-1.044 0-1.866-.264-2.466-.792-.6-.54-.9-1.266-.9-2.178 0-.9.294-1.608.882-2.124.588-.528 1.38-.792 2.376-.792h3.15v-1.044c0-.66-.192-1.17-.576-1.53s-.93-.54-1.638-.54c-.624 0-1.146.138-1.566.414-.408.276-.642.648-.702 1.116h-1.44c.12-.852.516-1.53 1.188-2.034.684-.504 1.536-.756 2.556-.756 1.104 0 1.98.3 2.628.9.648.588.972 1.386.972 2.394v6.786h-1.404v-1.926h-.234l.27-.288c0 .732-.282 1.314-.846 1.746s-1.314.648-2.25.648zm.342-1.152c.792 0 1.44-.198 1.944-.594s.756-.912.756-1.548v-1.494h-3.132c-.564 0-1.014.156-1.35.468s-.504.738-.504 1.278c0 .576.204 1.038.612 1.386.408.336.966.504 1.674.504zm7.643.972v-9.9h1.44v4.158h1.872l2.934-4.158h1.638l-3.33 4.716 3.402 5.184h-1.674l-2.97-4.5h-1.872v4.5zm21.532 0v-9.9h1.386v5.634c0 .336-.012.696-.036 1.08-.012.372-.03.726-.054 1.062s-.048.618-.072.846l4.194-8.622h1.854v9.9h-1.386v-5.634c0-.348.006-.708.018-1.08.024-.372.048-.726.072-1.062.036-.348.06-.636.072-.864l-4.212 8.64zm10.793 0v-9.9h1.44v4.212h4.392v-4.212h1.44v9.9h-1.44v-4.392h-4.392v4.392zm9.443 0 2.16-5.076-2.016-4.824h1.386l1.782 4.374h1.062v-4.374h1.224v4.374h1.026l1.836-4.374h1.368l-2.016 4.77 2.16 5.13h-1.44l-1.854-4.554h-1.08v4.554h-1.224v-4.554h-1.08l-1.89 4.554zm15.779.18c-.768 0-1.434-.15-1.998-.45-.564-.312-1.002-.75-1.314-1.314s-.468-1.218-.468-1.962v-2.808c0-.756.156-1.41.468-1.962.312-.564.75-.996 1.314-1.296.564-.312 1.23-.468 1.998-.468s1.434.156 1.998.468c.564.3 1.002.732 1.314 1.296.312.552.468 1.206.468 1.962v1.746h-6.156v1.062c0 .804.204 1.428.612 1.872.42.432 1.008.648 1.764.648.636 0 1.152-.126 1.548-.378.408-.252.666-.618.774-1.098h1.422c-.132.828-.534 1.482-1.206 1.962s-1.518.72-2.538.72zm2.376-5.742v-.792c0-.804-.204-1.422-.612-1.854-.408-.444-.996-.666-1.764-.666-.756 0-1.344.222-1.764.666-.408.432-.612 1.05-.612 1.854v.63h4.896zm4.781 5.562v-9.9h1.44v4.212h4.392v-4.212h1.44v9.9h-1.44v-4.392h-4.392v4.392zm14.429.18c-.768 0-1.434-.15-1.998-.45-.564-.312-1.002-.75-1.314-1.314s-.468-1.218-.468-1.962v-2.808c0-.756.156-1.41.468-1.962.312-.564.75-.996 1.314-1.296.564-.312 1.23-.468 1.998-.468s1.434.156 1.998.468c.564.3 1.002.732 1.314 1.296.312.552.468 1.206.468 1.962v1.746h-6.156v1.062c0 .804.204 1.428.612 1.872.42.432 1.008.648 1.764.648.636 0 1.152-.126 1.548-.378.408-.252.666-.618.774-1.098h1.422c-.132.828-.534 1.482-1.206 1.962s-1.518.72-2.538.72zm2.376-5.742v-.792c0-.804-.204-1.422-.612-1.854-.408-.444-.996-.666-1.764-.666-.756 0-1.344.222-1.764.666-.408.432-.612 1.05-.612 1.854v.63h4.896zm4.763 8.802v-13.14h1.422v1.746h.378l-.432.594c0-.78.252-1.392.756-1.836.516-.456 1.194-.684 2.034-.684.996 0 1.788.33 2.376.99.6.648.9 1.536.9 2.664v2.934c0 .756-.138 1.41-.414 1.962-.276.54-.66.96-1.152 1.26-.48.3-1.05.45-1.71.45-.828 0-1.5-.228-2.016-.684s-.774-1.068-.774-1.836l.378.594h-.342l.018 2.016v2.97zm3.708-4.302c.72 0 1.278-.216 1.674-.648.408-.432.612-1.044.612-1.836v-2.808c0-.804-.204-1.416-.612-1.836-.396-.432-.954-.648-1.674-.648-.696 0-1.254.222-1.674.666-.408.432-.612 1.038-.612 1.818v2.808c0 .78.204 1.392.612 1.836.42.432.978.648 1.674.648zm16.132-4.248v-1.278h10.8v1.278zm23.35 5.31v-9.9h4.248c.984 0 1.758.234 2.322.702.564.456.846 1.092.846 1.908 0 .684-.234 1.236-.702 1.656-.456.408-1.068.612-1.836.612v-.126c.828 0 1.494.216 1.998.648.504.42.756.984.756 1.692 0 .876-.3 1.566-.9 2.07-.588.492-1.404.738-2.448.738zm1.404-1.26h2.88c.588 0 1.056-.138 1.404-.414.348-.288.522-.672.522-1.152 0-.504-.174-.894-.522-1.17-.348-.288-.816-.432-1.404-.432h-2.88zm0-4.41h2.844c.528 0 .948-.132 1.26-.396.324-.264.486-.624.486-1.08s-.162-.816-.486-1.08c-.312-.276-.732-.414-1.26-.414h-2.844zm23.89 5.85c-.84 0-1.566-.144-2.178-.432s-1.086-.696-1.422-1.224c-.336-.54-.51-1.182-.522-1.926h1.44c0 .708.24 1.272.72 1.692.48.408 1.134.612 1.962.612.792 0 1.41-.198 1.854-.594.456-.396.684-.942.684-1.638 0-.576-.156-1.074-.468-1.494-.312-.432-.75-.732-1.314-.9l-1.71-.54c-.9-.264-1.596-.714-2.088-1.35-.48-.648-.72-1.404-.72-2.268 0-.708.156-1.314.468-1.818.312-.516.75-.918 1.314-1.206.576-.288 1.248-.432 2.016-.432 1.14 0 2.052.318 2.736.954s1.026 1.488 1.026 2.556h-1.422c0-.684-.21-1.224-.63-1.62s-.996-.594-1.728-.594-1.308.18-1.728.54c-.408.348-.612.846-.612 1.494 0 .564.156 1.056.468 1.476s.75.72 1.314.9l1.71.54c.888.276 1.578.744 2.07 1.404s.738 1.434.738 2.322c0 .708-.168 1.332-.504 1.872-.324.528-.786.942-1.386 1.242-.588.288-1.284.432-2.088.432zm9.947 0c-1.044 0-1.866-.264-2.466-.792-.6-.54-.9-1.266-.9-2.178 0-.9.294-1.608.882-2.124.588-.528 1.38-.792 2.376-.792h3.15v-1.044c0-.66-.192-1.17-.576-1.53s-.93-.54-1.638-.54c-.624 0-1.146.138-1.566.414-.408.276-.642.648-.702 1.116h-1.44c.12-.852.516-1.53 1.188-2.034.684-.504 1.536-.756 2.556-.756 1.104 0 1.98.3 2.628.9.648.588.972 1.386.972 2.394v6.786h-1.404v-1.926h-.234l.27-.288c0 .732-.282 1.314-.846 1.746s-1.314.648-2.25.648zm.342-1.152c.792 0 1.44-.198 1.944-.594s.756-.912.756-1.548v-1.494h-3.132c-.564 0-1.014.156-1.35.468s-.504.738-.504 1.278c0 .576.204 1.038.612 1.386.408.336.966.504 1.674.504zm7.409.972v-1.296h3.528v-7.308h-3.078v-1.296h4.518v8.604h3.348v1.296zm4.086-11.718c-.372 0-.672-.096-.9-.288-.216-.192-.324-.456-.324-.792 0-.348.108-.624.324-.828.228-.204.528-.306.9-.306s.666.102.882.306c.228.204.342.48.342.828 0 .324-.114.588-.342.792-.216.192-.51.288-.882.288zm6.869 11.718v-9.9h1.422v1.836h.36l-.396.522c0-.792.24-1.41.72-1.854.492-.456 1.158-.684 1.998-.684.984 0 1.77.312 2.358.936.588.612.882 1.446.882 2.502v6.642h-1.422v-6.48c0-.756-.198-1.338-.594-1.746s-.936-.612-1.62-.612c-.708 0-1.266.216-1.674.648s-.612 1.044-.612 1.836v6.354zm15.527 0c-.828 0-1.47-.216-1.926-.648-.456-.444-.684-1.068-.684-1.872v-6.084h-2.808v-1.296h2.808v-2.79h1.44v2.79h3.978v1.296h-3.978v6.084c0 .816.39 1.224 1.17 1.224h2.628v1.296zm9.767.18c-.768 0-1.44-.15-2.016-.45s-1.026-.726-1.35-1.278c-.312-.564-.468-1.23-.468-1.998v-2.808c0-.768.156-1.428.468-1.98.324-.564.774-.996 1.35-1.296s1.248-.45 2.016-.45c1.128 0 2.034.306 2.718.918s1.038 1.446 1.062 2.502h-1.422c-.024-.684-.246-1.212-.666-1.584-.408-.372-.972-.558-1.692-.558-.732 0-1.314.216-1.746.648-.432.42-.648 1.02-.648 1.8v2.808c0 .768.216 1.368.648 1.8s1.014.648 1.746.648c.72 0 1.284-.186 1.692-.558.42-.384.642-.912.666-1.584h1.422c-.024 1.056-.378 1.89-1.062 2.502s-1.59.918-2.718.918zm10.739-.018c-.768 0-1.434-.15-1.998-.45s-1.002-.732-1.314-1.296-.468-1.23-.468-1.998v-2.736c0-.78.156-1.446.468-1.998.312-.564.75-.996 1.314-1.296s1.23-.45 1.998-.45 1.434.15 1.998.45 1.002.732 1.314 1.296c.312.552.468 1.212.468 1.98v2.754c0 .768-.156 1.434-.468 1.998s-.75.996-1.314 1.296-1.23.45-1.998.45zm0-1.278c.744 0 1.32-.21 1.728-.63s.612-1.032.612-1.836v-2.736c0-.804-.21-1.416-.63-1.836-.408-.42-.978-.63-1.71-.63s-1.308.21-1.728.63c-.408.42-.612 1.032-.612 1.836v2.736c0 .804.204 1.416.612 1.836.42.42.996.63 1.728.63zm10.307 1.296c-.984 0-1.782-.33-2.394-.99-.6-.66-.9-1.548-.9-2.664v-2.934c0-1.128.3-2.022.9-2.682s1.398-.99 2.394-.99c.828 0 1.494.228 1.998.684.516.456.774 1.068.774 1.836l-.378-.594h.342l-.018-2.16v-2.826h1.422v13.14h-1.422v-1.746h-.378l.432-.594c0 .78-.258 1.398-.774 1.854-.504.444-1.17.666-1.998.666zm.45-1.242c.708 0 1.26-.216 1.656-.648.408-.444.612-1.056.612-1.836v-2.808c0-.78-.204-1.386-.612-1.818-.396-.444-.948-.666-1.656-.666-.72 0-1.284.216-1.692.648s-.612 1.044-.612 1.836v2.808c0 .792.204 1.404.612 1.836s.972.648 1.692.648zm10.829 1.242c-.768 0-1.434-.15-1.998-.45-.564-.312-1.002-.75-1.314-1.314s-.468-1.218-.468-1.962v-2.808c0-.756.156-1.41.468-1.962.312-.564.75-.996 1.314-1.296.564-.312 1.23-.468 1.998-.468s1.434.156 1.998.468c.564.3 1.002.732 1.314 1.296.312.552.468 1.206.468 1.962v1.746h-6.156v1.062c0 .804.204 1.428.612 1.872.42.432 1.008.648 1.764.648.636 0 1.152-.126 1.548-.378.408-.252.666-.618.774-1.098h1.422c-.132.828-.534 1.482-1.206 1.962s-1.518.72-2.538.72zm2.376-5.742v-.792c0-.804-.204-1.422-.612-1.854-.408-.444-.996-.666-1.764-.666-.756 0-1.344.222-1.764.666-.408.432-.612 1.05-.612 1.854v.63h4.896zm15.574 5.562v-13.14h3.618c1.176 0 2.1.306 2.772.918.672.6 1.008 1.428 1.008 2.484 0 .6-.126 1.128-.378 1.584-.24.444-.588.792-1.044 1.044-.444.24-.984.354-1.62.342v-.252c.684 0 1.272.138 1.764.414.504.264.894.654 1.17 1.17.276.504.414 1.104.414 1.8 0 .744-.156 1.392-.468 1.944-.312.54-.756.96-1.332 1.26-.576.288-1.266.432-2.07.432zm1.386-1.296h2.322c.804 0 1.434-.21 1.89-.63.468-.432.702-1.014.702-1.746 0-.756-.234-1.362-.702-1.818-.456-.468-1.086-.702-1.89-.702h-2.322zm0-6.138h2.232c.732 0 1.308-.198 1.728-.594s.63-.936.63-1.62-.21-1.218-.63-1.602c-.408-.396-.984-.594-1.728-.594h-2.232zm13.043 7.596c-.768 0-1.434-.15-1.998-.45s-1.002-.732-1.314-1.296-.468-1.23-.468-1.998v-2.736c0-.78.156-1.446.468-1.998.312-.564.75-.996 1.314-1.296s1.23-.45 1.998-.45 1.434.15 1.998.45 1.002.732 1.314 1.296c.312.552.468 1.212.468 1.98v2.754c0 .768-.156 1.434-.468 1.998s-.75.996-1.314 1.296-1.23.45-1.998.45zm0-1.278c.744 0 1.32-.21 1.728-.63s.612-1.032.612-1.836v-2.736c0-.804-.21-1.416-.63-1.836-.408-.42-.978-.63-1.71-.63s-1.308.21-1.728.63c-.408.42-.612 1.032-.612 1.836v2.736c0 .804.204 1.416.612 1.836.42.42.996.63 1.728.63zm10.793 1.278c-.768 0-1.434-.15-1.998-.45s-1.002-.732-1.314-1.296-.468-1.23-.468-1.998v-2.736c0-.78.156-1.446.468-1.998.312-.564.75-.996 1.314-1.296s1.23-.45 1.998-.45 1.434.15 1.998.45 1.002.732 1.314 1.296c.312.552.468 1.212.468 1.98v2.754c0 .768-.156 1.434-.468 1.998s-.75.996-1.314 1.296-1.23.45-1.998.45zm0-1.278c.744 0 1.32-.21 1.728-.63s.612-1.032.612-1.836v-2.736c0-.804-.21-1.416-.63-1.836-.408-.42-.978-.63-1.71-.63s-1.308.21-1.728.63c-.408.42-.612 1.032-.612 1.836v2.736c0 .804.204 1.416.612 1.836.42.42.996.63 1.728.63zm11.873 1.116c-.828 0-1.47-.216-1.926-.648-.456-.444-.684-1.068-.684-1.872v-6.084h-2.808v-1.296h2.808v-2.79h1.44v2.79h3.978v1.296h-3.978v6.084c0 .816.39 1.224 1.17 1.224h2.628v1.296zm9.767.18c-.768 0-1.44-.15-2.016-.45s-1.026-.726-1.35-1.278c-.312-.564-.468-1.23-.468-1.998v-2.808c0-.768.156-1.428.468-1.98.324-.564.774-.996 1.35-1.296s1.248-.45 2.016-.45c1.128 0 2.034.306 2.718.918s1.038 1.446 1.062 2.502h-1.422c-.024-.684-.246-1.212-.666-1.584-.408-.372-.972-.558-1.692-.558-.732 0-1.314.216-1.746.648-.432.42-.648 1.02-.648 1.8v2.808c0 .768.216 1.368.648 1.8s1.014.648 1.746.648c.72 0 1.284-.186 1.692-.558.42-.384.642-.912.666-1.584h1.422c-.024 1.056-.378 1.89-1.062 2.502s-1.59.918-2.718.918zm9.964 0c-1.043 0-1.865-.264-2.465-.792-.6-.54-.9-1.266-.9-2.178 0-.9.294-1.608.882-2.124.588-.528 1.38-.792 2.376-.792h3.15v-1.044c0-.66-.192-1.17-.576-1.53s-.93-.54-1.638-.54c-.624 0-1.146.138-1.566.414-.408.276-.642.648-.702 1.116h-1.44c.12-.852.516-1.53 1.188-2.034.684-.504 1.536-.756 2.556-.756 1.104 0 1.98.3 2.628.9.648.588.971 1.386.971 2.394v6.786h-1.403v-1.926h-.234l.27-.288c0 .732-.282 1.314-.846 1.746s-1.314.648-2.251.648zm.343-1.152c.792 0 1.44-.198 1.944-.594s.756-.912.756-1.548v-1.494h-3.132c-.564 0-1.014.156-1.35.468s-.504.738-.504 1.278c0 .576.204 1.038.612 1.386.408.336.966.504 1.674.504zm7.066.972v-9.9h1.26v1.224h.27l-.198.396c0-.552.144-.99.432-1.314.3-.324.708-.486 1.224-.486.54 0 .96.192 1.26.576.312.384.474.924.486 1.62l-.378-.792h.594l-.252.396c0-.552.15-.99.45-1.314s.708-.486 1.224-.486c.612 0 1.086.228 1.422.684.348.456.522 1.062.522 1.818v7.578h-1.332v-7.578c0-.432-.096-.768-.288-1.008-.192-.252-.462-.378-.81-.378s-.624.126-.828.378c-.204.24-.306.576-.306 1.008v7.578h-1.188v-7.578c0-.444-.102-.786-.306-1.026-.192-.24-.462-.36-.81-.36s-.618.12-.81.36-.294.582-.306 1.026v7.578zm11.297 3.24v-13.14h1.422v1.746h.378l-.432.594c0-.78.252-1.392.756-1.836.516-.456 1.194-.684 2.034-.684.996 0 1.788.33 2.376.99.6.648.9 1.536.9 2.664v2.934c0 .756-.138 1.41-.414 1.962-.276.54-.66.96-1.152 1.26-.48.3-1.05.45-1.71.45-.828 0-1.5-.228-2.016-.684s-.774-1.068-.774-1.836l.378.594h-.342l.018 2.016v2.97zm3.708-4.302c.72 0 1.278-.216 1.674-.648.408-.432.612-1.044.612-1.836v-2.808c0-.804-.204-1.416-.612-1.836-.396-.432-.954-.648-1.674-.648-.696 0-1.254.222-1.674.666-.408.432-.612 1.038-.612 1.818v2.808c0 .78.204 1.392.612 1.836.42.432.978.648 1.674.648zm10.739 1.242c-.444 0-.798-.126-1.062-.378-.252-.264-.378-.612-.378-1.044 0-.456.126-.816.378-1.08.264-.264.618-.396 1.062-.396s.792.132 1.044.396c.264.264.396.624.396 1.08 0 .432-.132.78-.396 1.044-.252.252-.6.378-1.044.378z" fill="#fff"/><path d="m40 40h40v6.66664h-40z" fill="#e97a8c"/><g fill="#fff"><path d="m40 29.6689 7.425-.0118c.0475.4717.2534.8136.6178 1.0259.3722.2043.9702.3065 1.7938.3065.6891 0 1.2078-.0747 1.5563-.224.3564-.1572.5346-.3891.5346-.6957 0-.5345-.9227-.8843-2.768-1.0494-.3643-.0393-.6415-.0668-.8316-.0826-.0159 0-.0317 0-.0475 0-2.978-.2908-4.9896-.6681-6.0351-1.1319-.6098-.2673-1.0811-.6879-1.4137-1.2617-.3247-.5739-.4871-1.2499-.4871-2.0281 0-1.5643.7207-2.7081 2.1622-3.4313 1.4414-.7232 3.7382-1.0848 6.8904-1.0848 2.9779 0 5.1916.3695 6.6409 1.1084 1.4573.7389 2.2335 1.8827 2.3285 3.4313h-6.9973c-.0396-.456-.2535-.7861-.6416-.9905-.3801-.2044-.9939-.3066-1.8414-.3066-.7207 0-1.2513.0786-1.5919.2358-.3326.1494-.4989.3852-.4989.7075 0 .5188.792.8411 2.376.9669.3326.0315.586.055.7603.0708.1267.0078.3247.0235.594.0471 3.1918.283 5.053.5149 5.5836.6957 1.0454.3695 1.782.8254 2.2097 1.3678.4277.5346.6415 1.2695.6415 2.205 0 1.7294-.7682 2.9793-2.3047 3.7496-1.5286.7704-4.0392 1.1556-7.532 1.1556-3.1046 0-5.3856-.3813-6.8428-1.1438-1.4494-.7703-2.2097-1.9809-2.281-3.6317z"/><path d="m80 28.0417c-.2218 2.1303-1.1484 3.73-2.7799 4.7991-1.6236 1.069-3.9402 1.6036-6.9498 1.6036-3.1126 0-5.5203-.6289-7.2231-1.8866-1.6949-1.2578-2.5423-3.0343-2.5423-5.3297 0-2.2875.8474-4.0641 2.5423-5.3297 1.7028-1.2656 4.1105-1.8984 7.2231-1.8984 2.8908 0 5.144.4913 6.7597 1.4739s2.5661 2.4408 2.8512 4.3746h-6.5221c-.2456-.621-.6138-1.0848-1.1049-1.3914-.491-.3144-1.1048-.4716-1.8414-.4716-1.085 0-1.9364.2869-2.5542.8607-.6177.566-.9266 1.3521-.9266 2.3583 0 .9748.3009 1.7491.9029 2.3229.6019.5738 1.4137.8608 2.4354.8608.8474 0 1.5602-.2083 2.1384-.625.586-.4245.9504-.9983 1.0929-1.7215z"/><path d="m45.9596 62.8893c0 .8908.2794 1.6073.8381 2.1496.5587.5345 1.2959.8017 2.2116.8017.9312 0 1.6722-.2672 2.2232-.8017.5587-.5423.8381-1.2588.8381-2.1496 0-.8986-.2794-1.6151-.8381-2.1496-.551-.5345-1.292-.8017-2.2232-.8017-.9157 0-1.6529.2672-2.2116.8017s-.8381 1.251-.8381 2.1496zm-5.9596 6.6579v-17.3245h5.9596v5.0893c.7217-.4803 1.4861-.8366 2.2931-1.069.8148-.2402 1.7033-.3602 2.6655-.3602 2.2659 0 4.0662.6313 5.4009 1.8939 1.3425 1.2627 2.0137 2.9669 2.0137 5.1126 0 2.1147-.6634 3.8112-1.9904 5.0893-1.3269 1.2704-3.104 1.9056-5.3311 1.9056-1.0476 0-2.0098-.1356-2.8867-.4067-.8768-.2789-1.6761-.6933-2.3978-1.2433l-.0465 1.313z"/><path d="m78.8889 63.691c-.2173 2.0993-1.1252 3.6756-2.7237 4.7291-1.5908 1.0535-3.8606 1.5803-6.8094 1.5803-3.0496 0-5.4087-.6197-7.077-1.8591-1.6607-1.2394-2.491-2.9901-2.491-5.252 0-2.2542.8303-4.0048 2.491-5.252 1.6683-1.2471 4.0274-1.8707 7.077-1.8707 2.8324 0 5.0401.4841 6.6231 1.4524s2.5142 2.4052 2.7936 4.3108h-6.3903c-.2406-.6119-.6014-1.069-1.0825-1.3711-.4811-.3098-1.0825-.4648-1.8042-.4648-1.0631 0-1.8973.2828-2.5026.8483-.6053.5577-.9079 1.3323-.9079 2.3238 0 .9606.2949 1.7236.8846 2.2891.5898.5654 1.3852.8482 2.3862.8482.8303 0 1.5287-.2053 2.0952-.6158.5742-.4183.9312-.9838 1.0709-1.6965z"/></g></g></svg>