<svg fill="none" height="90" viewBox="0 0 970 90" width="970" xmlns="http://www.w3.org/2000/svg" xmlns:xlink="http://www.w3.org/1999/xlink"><filter id="a" color-interpolation-filters="sRGB" filterUnits="userSpaceOnUse" height="258" width="258" x="631" y="-49"><feFlood flood-opacity="0" result="BackgroundImageFix"/><feBlend in="SourceGraphic" in2="BackgroundImageFix" mode="normal" result="shape"/><feGaussianBlur result="effect1_foregroundBlur_61_1090" stdDeviation="50"/></filter><filter id="b" color-interpolation-filters="sRGB" filterUnits="userSpaceOnUse" height="270" width="270" x="-71" y="-131"><feFlood flood-opacity="0" result="BackgroundImageFix"/><feBlend in="SourceGraphic" in2="BackgroundImageFix" mode="normal" result="shape"/><feGaussianBlur result="effect1_foregroundBlur_61_1090" stdDeviation="50"/></filter><clipPath id="c"><path d="m0 0h970v90h-970z"/></clipPath><g clip-path="url(#c)"><path d="m0 0h970v90h-970z" fill="#3e2b2e"/><path d="m271.782 41v-19.71h12.474v3.78h-8.559v3.942h2.646c1.368 0 2.556.252 3.564.756 1.008.486 1.791 1.179 2.349 2.079.576.882.864 1.926.864 3.132s-.288 2.259-.864 3.159c-.558.9-1.341 1.602-2.349 2.106s-2.187.756-3.537.756zm3.915-3.375h2.673c.828 0 1.485-.234 1.971-.702s.729-1.098.729-1.89c0-.81-.243-1.449-.729-1.917-.486-.486-1.143-.729-1.971-.729h-2.673zm11.572 3.375v-14.85h3.375v4.725h.81c1.602 0 2.88.468 3.834 1.404s1.431 2.187 1.431 3.753c0 1.494-.486 2.7-1.458 3.618-.954.9-2.223 1.35-3.807 1.35zm3.375-3.105h.81c.648 0 1.143-.162 1.485-.486.36-.324.54-.792.54-1.404 0-.648-.18-1.143-.54-1.485-.342-.36-.837-.54-1.485-.54h-.81zm7.29 3.105v-14.85h3.375v14.85zm12.626.27c-1.314 0-2.466-.243-3.456-.729-.99-.504-1.755-1.197-2.295-2.079-.54-.9-.81-1.944-.81-3.132v-3.51c0-1.206.27-2.25.81-3.132s1.305-1.566 2.295-2.052c.99-.504 2.142-.756 3.456-.756 1.962 0 3.528.495 4.698 1.485s1.791 2.34 1.863 4.05h-4.05c-.054-.63-.306-1.125-.756-1.485-.432-.36-1.017-.54-1.755-.54-.81 0-1.431.207-1.863.621s-.648 1.017-.648 1.809v3.51c0 .774.216 1.377.648 1.809.432.414 1.053.621 1.863.621.738 0 1.323-.171 1.755-.513.45-.36.702-.864.756-1.512h4.05c-.072 1.71-.693 3.06-1.863 4.05s-2.736 1.485-4.698 1.485zm14.083-.27v-11.07h-4.86v-3.78h13.77v3.78h-4.86v11.07zm11.897 4.86v-19.71h3.915v2.835h.945l-.945.945c0-1.278.351-2.268 1.053-2.97.702-.72 1.665-1.08 2.889-1.08 1.494 0 2.691.531 3.591 1.593.9 1.044 1.35 2.448 1.35 4.212v3.78c0 1.17-.207 2.196-.621 3.078-.396.864-.963 1.539-1.701 2.025-.738.468-1.611.702-2.619.702-1.224 0-2.187-.351-2.889-1.053-.702-.72-1.053-1.719-1.053-2.997l.945.945h-.945l.135 3.645v4.05zm6.399-8.1c.756 0 1.332-.207 1.728-.621.414-.432.621-1.035.621-1.809v-3.51c0-.792-.207-1.395-.621-1.809-.396-.414-.972-.621-1.728-.621-.738 0-1.314.216-1.728.648-.414.414-.621 1.008-.621 1.782v3.51c0 .774.207 1.377.621 1.809.414.414.99.621 1.728.621zm16.108 3.51c-1.314 0-2.457-.243-3.429-.729-.972-.504-1.728-1.197-2.268-2.079-.522-.9-.783-1.944-.783-3.132v-3.51c0-1.188.261-2.223.783-3.105.54-.9 1.296-1.593 2.268-2.079.972-.504 2.115-.756 3.429-.756 1.332 0 2.475.252 3.429.756.972.486 1.719 1.179 2.241 2.079.54.882.81 1.917.81 3.105v3.51c0 1.188-.27 2.232-.81 3.132-.522.882-1.269 1.575-2.241 2.079-.954.486-2.097.729-3.429.729zm0-3.51c.792 0 1.395-.207 1.809-.621.414-.432.621-1.035.621-1.809v-3.51c0-.792-.207-1.395-.621-1.809s-1.017-.621-1.809-.621c-.774 0-1.377.207-1.809.621-.414.414-.621 1.017-.621 1.809v3.51c0 .774.207 1.377.621 1.809.432.414 1.035.621 1.809.621zm32.46 3.51c-1.314 0-2.466-.243-3.456-.729-.99-.504-1.755-1.197-2.295-2.079-.54-.9-.81-1.944-.81-3.132v-3.51c0-1.206.27-2.25.81-3.132s1.305-1.566 2.295-2.052c.99-.504 2.142-.756 3.456-.756 1.962 0 3.528.495 4.698 1.485s1.791 2.34 1.863 4.05h-4.05c-.054-.63-.306-1.125-.756-1.485-.432-.36-1.017-.54-1.755-.54-.81 0-1.431.207-1.863.621s-.648 1.017-.648 1.809v3.51c0 .774.216 1.377.648 1.809.432.414 1.053.621 1.863.621.738 0 1.323-.171 1.755-.513.45-.36.702-.864.756-1.512h4.05c-.072 1.71-.693 3.06-1.863 4.05s-2.736 1.485-4.698 1.485zm14.084-.27v-11.07h-4.86v-3.78h13.77v3.78h-4.86v11.07zm16.297.27c-1.494 0-2.682-.405-3.564-1.215-.864-.81-1.296-1.908-1.296-3.294 0-1.494.513-2.637 1.539-3.429 1.044-.81 2.538-1.215 4.482-1.215h3.078v-1.107c0-.576-.207-1.035-.621-1.377-.396-.342-.936-.513-1.62-.513-.63 0-1.152.144-1.566.432s-.666.684-.756 1.188h-3.915c.162-1.494.81-2.673 1.944-3.537 1.152-.882 2.628-1.323 4.428-1.323 1.89 0 3.384.468 4.482 1.404 1.116.918 1.674 2.16 1.674 3.726v9.99h-3.915v-2.43h-.648l.675-.945c0 1.116-.405 2.007-1.215 2.673-.792.648-1.854.972-3.186.972zm1.512-2.97c.792 0 1.44-.207 1.944-.621.522-.432.783-.99.783-1.674v-1.593h-2.997c-.612 0-1.107.18-1.485.54-.378.342-.567.801-.567 1.377 0 .612.207 1.098.621 1.458.414.342.981.513 1.701.513zm14.57 2.7v-11.07h-4.86v-3.78h13.77v3.78h-4.86v11.07zm12.004 0v-14.85h4.05v4.455h3.483c1.872 0 3.33.468 4.374 1.404 1.062.918 1.593 2.196 1.593 3.834 0 1.584-.54 2.844-1.62 3.78-1.062.918-2.502 1.377-4.32 1.377zm4.05-3.51h3.24c.684 0 1.206-.144 1.566-.432.378-.306.567-.72.567-1.242 0-.54-.189-.954-.567-1.242-.36-.306-.882-.459-1.566-.459h-3.24zm32.892 8.37v-4.86c-1.71 0-3.06-.495-4.05-1.485-.972-1.008-1.458-2.376-1.458-4.104v-3.699c0-1.71.495-3.06 1.485-4.05.99-1.008 2.331-1.512 4.023-1.512v-4.86h3.294v4.86c1.71 0 3.051.504 4.023 1.512.99.99 1.485 2.34 1.485 4.05v3.699c0 1.728-.495 3.096-1.485 4.104-.972.99-2.313 1.485-4.023 1.485v4.86zm.189-8.046v-8.505c-.702 0-1.26.216-1.674.648-.396.414-.594.999-.594 1.755v3.699c0 .756.198 1.35.594 1.782.414.414.972.621 1.674.621zm2.916 0c.702 0 1.251-.207 1.647-.621.414-.432.621-1.026.621-1.782v-3.699c0-.756-.207-1.341-.621-1.755-.396-.432-.945-.648-1.647-.648zm8.413 8.046v-19.71h3.915v2.835h.945l-.945.945c0-1.278.351-2.268 1.053-2.97.702-.72 1.665-1.08 2.889-1.08 1.494 0 2.691.531 3.591 1.593.9 1.044 1.35 2.448 1.35 4.212v3.78c0 1.17-.207 2.196-.621 3.078-.396.864-.963 1.539-1.701 2.025-.738.468-1.611.702-2.619.702-1.224 0-2.187-.351-2.889-1.053-.702-.72-1.053-1.719-1.053-2.997l.945.945h-.945l.135 3.645v4.05zm6.399-8.1c.756 0 1.332-.207 1.728-.621.414-.432.621-1.035.621-1.809v-3.51c0-.792-.207-1.395-.621-1.809-.396-.414-.972-.621-1.728-.621-.738 0-1.314.216-1.728.648-.414.414-.621 1.008-.621 1.782v3.51c0 .774.207 1.377.621 1.809.414.414.99.621 1.728.621zm16.109 3.51c-1.314 0-2.457-.243-3.429-.729-.972-.504-1.728-1.197-2.268-2.079-.522-.9-.783-1.944-.783-3.132v-3.51c0-1.188.261-2.223.783-3.105.54-.9 1.296-1.593 2.268-2.079.972-.504 2.115-.756 3.429-.756 1.332 0 2.475.252 3.429.756.972.486 1.719 1.179 2.241 2.079.54.882.81 1.917.81 3.105v3.51c0 1.188-.27 2.232-.81 3.132-.522.882-1.269 1.575-2.241 2.079-.954.486-2.097.729-3.429.729zm0-3.51c.792 0 1.395-.207 1.809-.621.414-.432.621-1.035.621-1.809v-3.51c0-.792-.207-1.395-.621-1.809s-1.017-.621-1.809-.621c-.774 0-1.377.207-1.809.621-.414.414-.621 1.017-.621 1.809v3.51c0 .774.207 1.377.621 1.809.432.414 1.035.621 1.809.621zm9.871 3.24v-14.85h4.05v5.427h4.536v-5.427h4.05v14.85h-4.05v-5.643h-4.536v5.643zm20.483 0v-11.07h-4.86v-3.78h13.77v3.78h-4.86v11.07zm18.241.27c-1.314 0-2.466-.243-3.456-.729-.972-.504-1.728-1.197-2.268-2.079-.522-.9-.783-1.944-.783-3.132v-3.51c0-1.188.261-2.223.783-3.105.54-.9 1.296-1.593 2.268-2.079.99-.504 2.142-.756 3.456-.756s2.448.252 3.402.756c.972.486 1.719 1.179 2.241 2.079.54.882.81 1.917.81 3.105v2.7h-9.099v.81c0 .936.225 1.647.675 2.133.45.468 1.125.702 2.025.702.63 0 1.134-.108 1.512-.324.396-.216.657-.513.783-.891h3.969c-.324 1.296-1.062 2.34-2.214 3.132-1.134.792-2.502 1.188-4.104 1.188zm2.592-8.829v-.675c0-.918-.216-1.62-.648-2.106-.414-.486-1.062-.729-1.944-.729s-1.548.252-1.998.756c-.432.504-.648 1.215-.648 2.133v.405l5.508-.054zm7.253 8.559v-14.85h4.05v5.427h4.536v-5.427h4.05v14.85h-4.05v-5.643h-4.536v5.643zm15.001 3.78v-7.209h.837c.306-.306.621-.837.945-1.593.342-.774.522-1.71.54-2.808l.135-7.02h10.935v11.421h1.62v7.209h-3.78v-3.78h-7.452v3.78zm4.86-7.209h4.752v-7.938h-3.429l-.081 3.51c-.018 1.044-.171 1.962-.459 2.754-.27.774-.531 1.332-.783 1.674zm18.863 3.699c-1.314 0-2.466-.243-3.456-.729-.972-.504-1.728-1.197-2.268-2.079-.522-.9-.783-1.944-.783-3.132v-3.51c0-1.188.261-2.223.783-3.105.54-.9 1.296-1.593 2.268-2.079.99-.504 2.142-.756 3.456-.756s2.448.252 3.402.756c.972.486 1.719 1.179 2.241 2.079.54.882.81 1.917.81 3.105v2.7h-9.099v.81c0 .936.225 1.647.675 2.133.45.468 1.125.702 2.025.702.63 0 1.134-.108 1.512-.324.396-.216.657-.513.783-.891h3.969c-.324 1.296-1.062 2.34-2.214 3.132-1.134.792-2.502 1.188-4.104 1.188zm2.592-8.829v-.675c0-.918-.216-1.62-.648-2.106-.414-.486-1.062-.729-1.944-.729s-1.548.252-1.998.756c-.432.504-.648 1.215-.648 2.133v.405l5.508-.054zm7.252 13.419v-19.71h3.915v2.835h.945l-.945.945c0-1.278.351-2.268 1.053-2.97.702-.72 1.665-1.08 2.889-1.08 1.494 0 2.691.531 3.591 1.593.9 1.044 1.35 2.448 1.35 4.212v3.78c0 1.17-.207 2.196-.621 3.078-.396.864-.963 1.539-1.701 2.025-.738.468-1.611.702-2.619.702-1.224 0-2.187-.351-2.889-1.053-.702-.72-1.053-1.719-1.053-2.997l.945.945h-.945l.135 3.645v4.05zm6.399-8.1c.756 0 1.332-.207 1.728-.621.414-.432.621-1.035.621-1.809v-3.51c0-.792-.207-1.395-.621-1.809-.396-.414-.972-.621-1.728-.621-.738 0-1.314.216-1.728.648-.414.414-.621 1.008-.621 1.782v3.51c0 .774.207 1.377.621 1.809.414.414.99.621 1.728.621zm16.108 3.51c-1.314 0-2.457-.243-3.429-.729-.972-.504-1.728-1.197-2.268-2.079-.522-.9-.783-1.944-.783-3.132v-3.51c0-1.188.261-2.223.783-3.105.54-.9 1.296-1.593 2.268-2.079.972-.504 2.115-.756 3.429-.756 1.332 0 2.475.252 3.429.756.972.486 1.719 1.179 2.241 2.079.54.882.81 1.917.81 3.105v3.51c0 1.188-.27 2.232-.81 3.132-.522.882-1.269 1.575-2.241 2.079-.954.486-2.097.729-3.429.729zm0-3.51c.792 0 1.395-.207 1.809-.621.414-.432.621-1.035.621-1.809v-3.51c0-.792-.207-1.395-.621-1.809s-1.017-.621-1.809-.621c-.774 0-1.377.207-1.809.621-.414.414-.621 1.017-.621 1.809v3.51c0 .774.207 1.377.621 1.809.432.414 1.035.621 1.809.621zm9.224 3.24v-14.85h4.563l1.755 5.535c.198.63.351 1.206.459 1.728.126.504.198.882.216 1.134.036-.252.099-.63.189-1.134.108-.522.261-1.098.459-1.728l1.728-5.535h4.563v14.85h-3.699v-2.7c0-.594.009-1.26.027-1.998.036-.756.072-1.53.108-2.322.054-.81.099-1.584.135-2.322.054-.756.108-1.422.162-1.998l-1.971 7.155h-3.429l-2.079-7.155c.072.738.144 1.62.216 2.646.09 1.026.162 2.07.216 3.132.054 1.044.081 1.998.081 2.862v2.7z" fill="#fff"/><path d="m271.71 69v-13.14h1.386v8.1c0 .396-.012.81-.036 1.242-.012.432-.03.834-.054 1.206-.012.372-.024.684-.036.936l4.194-11.484h1.926v13.14h-1.386v-8.1c0-.348.006-.732.018-1.152.024-.42.048-.828.072-1.224s.048-.732.072-1.008l-4.248 11.484zm21.64 0v-9.9h1.44v4.212h4.392v-4.212h1.44v9.9h-1.44v-4.392h-4.392v4.392zm13.655.18c-1.044 0-1.866-.264-2.466-.792-.6-.54-.9-1.266-.9-2.178 0-.9.294-1.608.882-2.124.588-.528 1.38-.792 2.376-.792h3.15v-1.044c0-.66-.192-1.17-.576-1.53s-.93-.54-1.638-.54c-.624 0-1.146.138-1.566.414-.408.276-.642.648-.702 1.116h-1.44c.12-.852.516-1.53 1.188-2.034.684-.504 1.536-.756 2.556-.756 1.104 0 1.98.3 2.628.9.648.588.972 1.386.972 2.394v6.786h-1.404v-1.926h-.234l.27-.288c0 .732-.282 1.314-.846 1.746s-1.314.648-2.25.648zm.342-1.152c.792 0 1.44-.198 1.944-.594s.756-.912.756-1.548v-1.494h-3.132c-.564 0-1.014.156-1.35.468s-.504.738-.504 1.278c0 .576.204 1.038.612 1.386.408.336.966.504 1.674.504zm13.331.972v-3.654c-.192.048-.492.096-.9.144-.408.036-.864.054-1.368.054-1.188.012-2.112-.282-2.772-.882-.648-.6-.972-1.446-.972-2.538v-3.024h1.422v3.024c0 .672.204 1.194.612 1.566.42.372 1.014.558 1.782.558.552 0 1.02-.018 1.404-.054.384-.048.648-.09.792-.126v-4.968h1.422v9.9zm7.913.18c-1.044 0-1.866-.264-2.466-.792-.6-.54-.9-1.266-.9-2.178 0-.9.294-1.608.882-2.124.588-.528 1.38-.792 2.376-.792h3.15v-1.044c0-.66-.192-1.17-.576-1.53s-.93-.54-1.638-.54c-.624 0-1.146.138-1.566.414-.408.276-.642.648-.702 1.116h-1.44c.12-.852.516-1.53 1.188-2.034.684-.504 1.536-.756 2.556-.756 1.104 0 1.98.3 2.628.9.648.588.972 1.386.972 2.394v6.786h-1.404v-1.926h-.234l.27-.288c0 .732-.282 1.314-.846 1.746s-1.314.648-2.25.648zm.342-1.152c.792 0 1.44-.198 1.944-.594s.756-.912.756-1.548v-1.494h-3.132c-.564 0-1.014.156-1.35.468s-.504.738-.504 1.278c0 .576.204 1.038.612 1.386.408.336.966.504 1.674.504zm10.505.972v-8.622h-3.6v-1.278h8.64v1.278h-3.6v8.622zm7.967 0v-9.9h1.422v3.636h2.97c1.104 0 1.974.282 2.61.846.648.552.972 1.314.972 2.286 0 .96-.324 1.722-.972 2.286-.636.564-1.506.846-2.61.846zm1.422-1.296h2.97c.684 0 1.206-.156 1.566-.468.36-.324.54-.78.54-1.368s-.18-1.038-.54-1.35c-.36-.324-.882-.486-1.566-.486h-2.97zm19.75 1.296v-9.9h1.98l1.44 4.032c.12.348.234.702.342 1.062s.186.642.234.846c.06-.204.138-.486.234-.846.108-.36.222-.72.342-1.08l1.386-4.014h1.962v9.9h-1.386v-2.376c0-.516.006-1.068.018-1.656s.024-1.176.036-1.764.03-1.14.054-1.656c.024-.528.042-.99.054-1.386l-1.962 5.868h-1.512l-1.962-5.832c.024.48.042 1.086.054 1.818.012.72.024 1.482.036 2.286.024.804.036 1.578.036 2.322v2.376zm10.595 0v-9.9h1.35v3.672h.882c1.056 0 1.89.282 2.502.846.624.552.936 1.308.936 2.268s-.306 1.722-.918 2.286c-.612.552-1.452.828-2.52.828zm1.35-1.17h.882c.672 0 1.194-.168 1.566-.504.384-.348.576-.828.576-1.44s-.192-1.086-.576-1.422c-.372-.348-.894-.522-1.566-.522h-.882zm5.616 1.17v-9.9h1.35v9.9zm8.003.18c-.768 0-1.44-.15-2.016-.45s-1.026-.726-1.35-1.278c-.312-.564-.468-1.23-.468-1.998v-2.808c0-.768.156-1.428.468-1.98.324-.564.774-.996 1.35-1.296s1.248-.45 2.016-.45c1.128 0 2.034.306 2.718.918s1.038 1.446 1.062 2.502h-1.422c-.024-.684-.246-1.212-.666-1.584-.408-.372-.972-.558-1.692-.558-.732 0-1.314.216-1.746.648-.432.42-.648 1.02-.648 1.8v2.808c0 .768.216 1.368.648 1.8s1.014.648 1.746.648c.72 0 1.284-.186 1.692-.558.42-.384.642-.912.666-1.584h1.422c-.024 1.056-.378 1.89-1.062 2.502s-1.59.918-2.718.918zm5.879-.054v-1.35h.36c.516 0 .894-.21 1.134-.63.24-.432.366-1.146.378-2.142l.126-5.904h6.534v9.9h-1.44v-8.604h-3.69l-.108 4.662c-.012.936-.126 1.704-.342 2.304-.204.6-.516 1.044-.936 1.332-.408.288-.942.432-1.602.432zm12.053-.126v-9.9h1.386v5.634c0 .336-.012.696-.036 1.08-.012.372-.03.726-.054 1.062s-.048.618-.072.846l4.194-8.622h1.854v9.9h-1.386v-5.634c0-.348.006-.708.018-1.08.024-.372.048-.726.072-1.062.036-.348.06-.636.072-.864l-4.212 8.64zm13.709 0v-8.622h-3.6v-1.278h8.64v1.278h-3.6v8.622zm7.967 0v-9.9h1.422v3.636h2.97c1.104 0 1.974.282 2.61.846.648.552.972 1.314.972 2.286 0 .96-.324 1.722-.972 2.286-.636.564-1.506.846-2.61.846zm1.422-1.296h2.97c.684 0 1.206-.156 1.566-.468.36-.324.54-.78.54-1.368s-.18-1.038-.54-1.35c-.36-.324-.882-.486-1.566-.486h-2.97zm20.127 1.296v-9.9h1.44v4.158h1.872l2.934-4.158h1.638l-3.33 4.716 3.402 5.184h-1.674l-2.97-4.5h-1.872v4.5zm13.601.18c-1.044 0-1.866-.264-2.466-.792-.6-.54-.9-1.266-.9-2.178 0-.9.294-1.608.882-2.124.588-.528 1.38-.792 2.376-.792h3.15v-1.044c0-.66-.192-1.17-.576-1.53s-.93-.54-1.638-.54c-.624 0-1.146.138-1.566.414-.408.276-.642.648-.702 1.116h-1.44c.12-.852.516-1.53 1.188-2.034.684-.504 1.536-.756 2.556-.756 1.104 0 1.98.3 2.628.9.648.588.972 1.386.972 2.394v6.786h-1.404v-1.926h-.234l.27-.288c0 .732-.282 1.314-.846 1.746s-1.314.648-2.25.648zm.342-1.152c.792 0 1.44-.198 1.944-.594s.756-.912.756-1.548v-1.494h-3.132c-.564 0-1.014.156-1.35.468s-.504.738-.504 1.278c0 .576.204 1.038.612 1.386.408.336.966.504 1.674.504zm7.643.972v-9.9h1.44v4.158h1.872l2.934-4.158h1.638l-3.33 4.716 3.402 5.184h-1.674l-2.97-4.5h-1.872v4.5zm21.532 0v-9.9h1.386v5.634c0 .336-.012.696-.036 1.08-.012.372-.03.726-.054 1.062s-.048.618-.072.846l4.194-8.622h1.854v9.9h-1.386v-5.634c0-.348.006-.708.018-1.08.024-.372.048-.726.072-1.062.036-.348.06-.636.072-.864l-4.212 8.64zm10.793 0v-9.9h1.44v4.212h4.392v-4.212h1.44v9.9h-1.44v-4.392h-4.392v4.392zm9.443 0 2.16-5.076-2.016-4.824h1.386l1.782 4.374h1.062v-4.374h1.224v4.374h1.026l1.836-4.374h1.368l-2.016 4.77 2.16 5.13h-1.44l-1.854-4.554h-1.08v4.554h-1.224v-4.554h-1.08l-1.89 4.554zm15.779.18c-.768 0-1.434-.15-1.998-.45-.564-.312-1.002-.75-1.314-1.314s-.468-1.218-.468-1.962v-2.808c0-.756.156-1.41.468-1.962.312-.564.75-.996 1.314-1.296.564-.312 1.23-.468 1.998-.468s1.434.156 1.998.468c.564.3 1.002.732 1.314 1.296.312.552.468 1.206.468 1.962v1.746h-6.156v1.062c0 .804.204 1.428.612 1.872.42.432 1.008.648 1.764.648.636 0 1.152-.126 1.548-.378.408-.252.666-.618.774-1.098h1.422c-.132.828-.534 1.482-1.206 1.962s-1.518.72-2.538.72zm2.376-5.742v-.792c0-.804-.204-1.422-.612-1.854-.408-.444-.996-.666-1.764-.666-.756 0-1.344.222-1.764.666-.408.432-.612 1.05-.612 1.854v.63h4.896zm4.781 5.562v-9.9h1.44v4.212h4.392v-4.212h1.44v9.9h-1.44v-4.392h-4.392v4.392zm14.429.18c-.768 0-1.434-.15-1.998-.45-.564-.312-1.002-.75-1.314-1.314s-.468-1.218-.468-1.962v-2.808c0-.756.156-1.41.468-1.962.312-.564.75-.996 1.314-1.296.564-.312 1.23-.468 1.998-.468s1.434.156 1.998.468c.564.3 1.002.732 1.314 1.296.312.552.468 1.206.468 1.962v1.746h-6.156v1.062c0 .804.204 1.428.612 1.872.42.432 1.008.648 1.764.648.636 0 1.152-.126 1.548-.378.408-.252.666-.618.774-1.098h1.422c-.132.828-.534 1.482-1.206 1.962s-1.518.72-2.538.72zm2.376-5.742v-.792c0-.804-.204-1.422-.612-1.854-.408-.444-.996-.666-1.764-.666-.756 0-1.344.222-1.764.666-.408.432-.612 1.05-.612 1.854v.63h4.896zm4.763 8.802v-13.14h1.422v1.746h.378l-.432.594c0-.78.252-1.392.756-1.836.516-.456 1.194-.684 2.034-.684.996 0 1.788.33 2.376.99.6.648.9 1.536.9 2.664v2.934c0 .756-.138 1.41-.414 1.962-.276.54-.66.96-1.152 1.26-.48.3-1.05.45-1.71.45-.828 0-1.5-.228-2.016-.684s-.774-1.068-.774-1.836l.378.594h-.342l.018 2.016v2.97zm3.708-4.302c.72 0 1.278-.216 1.674-.648.408-.432.612-1.044.612-1.836v-2.808c0-.804-.204-1.416-.612-1.836-.396-.432-.954-.648-1.674-.648-.696 0-1.254.222-1.674.666-.408.432-.612 1.038-.612 1.818v2.808c0 .78.204 1.392.612 1.836.42.432.978.648 1.674.648zm16.132-4.248v-1.278h10.8v1.278zm23.35 5.31v-9.9h4.248c.984 0 1.758.234 2.322.702.564.456.846 1.092.846 1.908 0 .684-.234 1.236-.702 1.656-.456.408-1.068.612-1.836.612v-.126c.828 0 1.494.216 1.998.648.504.42.756.984.756 1.692 0 .876-.3 1.566-.9 2.07-.588.492-1.404.738-2.448.738zm1.404-1.26h2.88c.588 0 1.056-.138 1.404-.414.348-.288.522-.672.522-1.152 0-.504-.174-.894-.522-1.17-.348-.288-.816-.432-1.404-.432h-2.88zm0-4.41h2.844c.528 0 .948-.132 1.26-.396.324-.264.486-.624.486-1.08s-.162-.816-.486-1.08c-.312-.276-.732-.414-1.26-.414h-2.844zm23.89 5.85c-.84 0-1.566-.144-2.178-.432s-1.086-.696-1.422-1.224c-.336-.54-.51-1.182-.522-1.926h1.44c0 .708.24 1.272.72 1.692.48.408 1.134.612 1.962.612.792 0 1.41-.198 1.854-.594.456-.396.684-.942.684-1.638 0-.576-.156-1.074-.468-1.494-.312-.432-.75-.732-1.314-.9l-1.71-.54c-.9-.264-1.596-.714-2.088-1.35-.48-.648-.72-1.404-.72-2.268 0-.708.156-1.314.468-1.818.312-.516.75-.918 1.314-1.206.576-.288 1.248-.432 2.016-.432 1.14 0 2.052.318 2.736.954s1.026 1.488 1.026 2.556h-1.422c0-.684-.21-1.224-.63-1.62s-.996-.594-1.728-.594-1.308.18-1.728.54c-.408.348-.612.846-.612 1.494 0 .564.156 1.056.468 1.476s.75.72 1.314.9l1.71.54c.888.276 1.578.744 2.07 1.404s.738 1.434.738 2.322c0 .708-.168 1.332-.504 1.872-.324.528-.786.942-1.386 1.242-.588.288-1.284.432-2.088.432zm9.947 0c-1.044 0-1.866-.264-2.466-.792-.6-.54-.9-1.266-.9-2.178 0-.9.294-1.608.882-2.124.588-.528 1.38-.792 2.376-.792h3.15v-1.044c0-.66-.192-1.17-.576-1.53s-.93-.54-1.638-.54c-.624 0-1.146.138-1.566.414-.408.276-.642.648-.702 1.116h-1.44c.12-.852.516-1.53 1.188-2.034.684-.504 1.536-.756 2.556-.756 1.104 0 1.98.3 2.628.9.648.588.972 1.386.972 2.394v6.786h-1.404v-1.926h-.234l.27-.288c0 .732-.282 1.314-.846 1.746s-1.314.648-2.25.648zm.342-1.152c.792 0 1.44-.198 1.944-.594s.756-.912.756-1.548v-1.494h-3.132c-.564 0-1.014.156-1.35.468s-.504.738-.504 1.278c0 .576.204 1.038.612 1.386.408.336.966.504 1.674.504zm7.409.972v-1.296h3.528v-7.308h-3.078v-1.296h4.518v8.604h3.348v1.296zm4.086-11.718c-.372 0-.672-.096-.9-.288-.216-.192-.324-.456-.324-.792 0-.348.108-.624.324-.828.228-.204.528-.306.9-.306s.666.102.882.306c.228.204.342.48.342.828 0 .324-.114.588-.342.792-.216.192-.51.288-.882.288zm6.869 11.718v-9.9h1.422v1.836h.36l-.396.522c0-.792.24-1.41.72-1.854.492-.456 1.158-.684 1.998-.684.984 0 1.77.312 2.358.936.588.612.882 1.446.882 2.502v6.642h-1.422v-6.48c0-.756-.198-1.338-.594-1.746s-.936-.612-1.62-.612c-.708 0-1.266.216-1.674.648s-.612 1.044-.612 1.836v6.354zm15.527 0c-.828 0-1.47-.216-1.926-.648-.456-.444-.684-1.068-.684-1.872v-6.084h-2.808v-1.296h2.808v-2.79h1.44v2.79h3.978v1.296h-3.978v6.084c0 .816.39 1.224 1.17 1.224h2.628v1.296zm9.767.18c-.768 0-1.44-.15-2.016-.45s-1.026-.726-1.35-1.278c-.312-.564-.468-1.23-.468-1.998v-2.808c0-.768.156-1.428.468-1.98.324-.564.774-.996 1.35-1.296s1.248-.45 2.016-.45c1.128 0 2.034.306 2.718.918s1.038 1.446 1.062 2.502h-1.422c-.024-.684-.246-1.212-.666-1.584-.408-.372-.972-.558-1.692-.558-.732 0-1.314.216-1.746.648-.432.42-.648 1.02-.648 1.8v2.808c0 .768.216 1.368.648 1.8s1.014.648 1.746.648c.72 0 1.284-.186 1.692-.558.42-.384.642-.912.666-1.584h1.422c-.024 1.056-.378 1.89-1.062 2.502s-1.59.918-2.718.918zm10.739-.018c-.768 0-1.434-.15-1.998-.45s-1.002-.732-1.314-1.296-.468-1.23-.468-1.998v-2.736c0-.78.156-1.446.468-1.998.312-.564.75-.996 1.314-1.296s1.23-.45 1.998-.45 1.434.15 1.998.45 1.002.732 1.314 1.296c.312.552.468 1.212.468 1.98v2.754c0 .768-.156 1.434-.468 1.998s-.75.996-1.314 1.296-1.23.45-1.998.45zm0-1.278c.744 0 1.32-.21 1.728-.63s.612-1.032.612-1.836v-2.736c0-.804-.21-1.416-.63-1.836-.408-.42-.978-.63-1.71-.63s-1.308.21-1.728.63c-.408.42-.612 1.032-.612 1.836v2.736c0 .804.204 1.416.612 1.836.42.42.996.63 1.728.63zm10.307 1.296c-.984 0-1.782-.33-2.394-.99-.6-.66-.9-1.548-.9-2.664v-2.934c0-1.128.3-2.022.9-2.682s1.398-.99 2.394-.99c.828 0 1.494.228 1.998.684.516.456.774 1.068.774 1.836l-.378-.594h.342l-.018-2.16v-2.826h1.422v13.14h-1.422v-1.746h-.378l.432-.594c0 .78-.258 1.398-.774 1.854-.504.444-1.17.666-1.998.666zm.45-1.242c.708 0 1.26-.216 1.656-.648.408-.444.612-1.056.612-1.836v-2.808c0-.78-.204-1.386-.612-1.818-.396-.444-.948-.666-1.656-.666-.72 0-1.284.216-1.692.648s-.612 1.044-.612 1.836v2.808c0 .792.204 1.404.612 1.836s.972.648 1.692.648zm10.829 1.242c-.768 0-1.434-.15-1.998-.45-.564-.312-1.002-.75-1.314-1.314s-.468-1.218-.468-1.962v-2.808c0-.756.156-1.41.468-1.962.312-.564.75-.996 1.314-1.296.564-.312 1.23-.468 1.998-.468s1.434.156 1.998.468c.564.3 1.002.732 1.314 1.296.312.552.468 1.206.468 1.962v1.746h-6.156v1.062c0 .804.204 1.428.612 1.872.42.432 1.008.648 1.764.648.636 0 1.152-.126 1.548-.378.408-.252.666-.618.774-1.098h1.422c-.132.828-.534 1.482-1.206 1.962s-1.518.72-2.538.72zm2.376-5.742v-.792c0-.804-.204-1.422-.612-1.854-.408-.444-.996-.666-1.764-.666-.756 0-1.344.222-1.764.666-.408.432-.612 1.05-.612 1.854v.63h4.896zm15.574 5.562v-13.14h3.618c1.176 0 2.1.306 2.772.918.672.6 1.008 1.428 1.008 2.484 0 .6-.126 1.128-.378 1.584-.24.444-.588.792-1.044 1.044-.444.24-.984.354-1.62.342v-.252c.684 0 1.272.138 1.764.414.504.264.894.654 1.17 1.17.276.504.414 1.104.414 1.8 0 .744-.156 1.392-.468 1.944-.312.54-.756.96-1.332 1.26-.576.288-1.266.432-2.07.432zm1.386-1.296h2.322c.804 0 1.434-.21 1.89-.63.468-.432.702-1.014.702-1.746 0-.756-.234-1.362-.702-1.818-.456-.468-1.086-.702-1.89-.702h-2.322zm0-6.138h2.232c.732 0 1.308-.198 1.728-.594s.63-.936.63-1.62-.21-1.218-.63-1.602c-.408-.396-.984-.594-1.728-.594h-2.232zm13.043 7.596c-.768 0-1.434-.15-1.998-.45s-1.002-.732-1.314-1.296-.468-1.23-.468-1.998v-2.736c0-.78.156-1.446.468-1.998.312-.564.75-.996 1.314-1.296s1.23-.45 1.998-.45 1.434.15 1.998.45 1.002.732 1.314 1.296c.312.552.468 1.212.468 1.98v2.754c0 .768-.156 1.434-.468 1.998s-.75.996-1.314 1.296-1.23.45-1.998.45zm0-1.278c.744 0 1.32-.21 1.728-.63s.612-1.032.612-1.836v-2.736c0-.804-.21-1.416-.63-1.836-.408-.42-.978-.63-1.71-.63s-1.308.21-1.728.63c-.408.42-.612 1.032-.612 1.836v2.736c0 .804.204 1.416.612 1.836.42.42.996.63 1.728.63zm10.793 1.278c-.768 0-1.434-.15-1.998-.45s-1.002-.732-1.314-1.296-.468-1.23-.468-1.998v-2.736c0-.78.156-1.446.468-1.998.312-.564.75-.996 1.314-1.296s1.23-.45 1.998-.45 1.434.15 1.998.45 1.002.732 1.314 1.296c.312.552.468 1.212.468 1.98v2.754c0 .768-.156 1.434-.468 1.998s-.75.996-1.314 1.296-1.23.45-1.998.45zm0-1.278c.744 0 1.32-.21 1.728-.63s.612-1.032.612-1.836v-2.736c0-.804-.21-1.416-.63-1.836-.408-.42-.978-.63-1.71-.63s-1.308.21-1.728.63c-.408.42-.612 1.032-.612 1.836v2.736c0 .804.204 1.416.612 1.836.42.42.996.63 1.728.63zm11.873 1.116c-.828 0-1.47-.216-1.926-.648-.456-.444-.684-1.068-.684-1.872v-6.084h-2.808v-1.296h2.808v-2.79h1.44v2.79h3.978v1.296h-3.978v6.084c0 .816.39 1.224 1.17 1.224h2.628v1.296zm9.767.18c-.768 0-1.44-.15-2.016-.45s-1.026-.726-1.35-1.278c-.312-.564-.468-1.23-.468-1.998v-2.808c0-.768.156-1.428.468-1.98.324-.564.774-.996 1.35-1.296s1.248-.45 2.016-.45c1.128 0 2.034.306 2.718.918s1.038 1.446 1.062 2.502h-1.422c-.024-.684-.246-1.212-.666-1.584-.408-.372-.972-.558-1.692-.558-.732 0-1.314.216-1.746.648-.432.42-.648 1.02-.648 1.8v2.808c0 .768.216 1.368.648 1.8s1.014.648 1.746.648c.72 0 1.284-.186 1.692-.558.42-.384.642-.912.666-1.584h1.422c-.024 1.056-.378 1.89-1.062 2.502s-1.59.918-2.718.918zm9.964 0c-1.043 0-1.865-.264-2.465-.792-.6-.54-.9-1.266-.9-2.178 0-.9.294-1.608.882-2.124.588-.528 1.38-.792 2.376-.792h3.15v-1.044c0-.66-.192-1.17-.576-1.53s-.93-.54-1.638-.54c-.624 0-1.146.138-1.566.414-.408.276-.642.648-.702 1.116h-1.44c.12-.852.516-1.53 1.188-2.034.684-.504 1.536-.756 2.556-.756 1.104 0 1.98.3 2.628.9.648.588.971 1.386.971 2.394v6.786h-1.403v-1.926h-.234l.27-.288c0 .732-.282 1.314-.846 1.746s-1.314.648-2.251.648zm.343-1.152c.792 0 1.44-.198 1.944-.594s.756-.912.756-1.548v-1.494h-3.132c-.564 0-1.014.156-1.35.468s-.504.738-.504 1.278c0 .576.204 1.038.612 1.386.408.336.966.504 1.674.504zm7.066.972v-9.9h1.26v1.224h.27l-.198.396c0-.552.144-.99.432-1.314.3-.324.708-.486 1.224-.486.54 0 .96.192 1.26.576.312.384.474.924.486 1.62l-.378-.792h.594l-.252.396c0-.552.15-.99.45-1.314s.708-.486 1.224-.486c.612 0 1.086.228 1.422.684.348.456.522 1.062.522 1.818v7.578h-1.332v-7.578c0-.432-.096-.768-.288-1.008-.192-.252-.462-.378-.81-.378s-.624.126-.828.378c-.204.24-.306.576-.306 1.008v7.578h-1.188v-7.578c0-.444-.102-.786-.306-1.026-.192-.24-.462-.36-.81-.36s-.618.12-.81.36-.294.582-.306 1.026v7.578zm11.297 3.24v-13.14h1.422v1.746h.378l-.432.594c0-.78.252-1.392.756-1.836.516-.456 1.194-.684 2.034-.684.996 0 1.788.33 2.376.99.6.648.9 1.536.9 2.664v2.934c0 .756-.138 1.41-.414 1.962-.276.54-.66.96-1.152 1.26-.48.3-1.05.45-1.71.45-.828 0-1.5-.228-2.016-.684s-.774-1.068-.774-1.836l.378.594h-.342l.018 2.016v2.97zm3.708-4.302c.72 0 1.278-.216 1.674-.648.408-.432.612-1.044.612-1.836v-2.808c0-.804-.204-1.416-.612-1.836-.396-.432-.954-.648-1.674-.648-.696 0-1.254.222-1.674.666-.408.432-.612 1.038-.612 1.818v2.808c0 .78.204 1.392.612 1.836.42.432.978.648 1.674.648zm10.739 1.242c-.444 0-.798-.126-1.062-.378-.252-.264-.378-.612-.378-1.044 0-.456.126-.816.378-1.08.264-.264.618-.396 1.062-.396s.792.132 1.044.396c.264.264.396.624.396 1.08 0 .432-.132.78-.396 1.044-.252.252-.6.378-1.044.378z" fill="#fff"/><path d="m71.1748 42.5205h55.9049v5.79789h-55.9049z" fill="#e97a8c"/><g fill="#fff"><path d="m60 30.7421 5.7833-.0093c.037.3686.1974.6357.4812.8016.2899.1596.7557.2395 1.3973.2395.5367 0 .9407-.0584 1.2121-.1751.2776-.1228.4164-.304.4164-.5435 0-.4177-.7186-.691-2.156-.8199-.2838-.0308-.4997-.0522-.6477-.0645-.0124 0-.0247 0-.037 0-2.3195-.2273-3.8864-.5221-4.7007-.8845-.475-.2088-.8421-.5374-1.1012-.9857-.2529-.4484-.3794-.9766-.3794-1.5846 0-1.2222.5614-2.1159 1.6842-2.6809 1.1227-.5651 2.9117-.8476 5.3669-.8476 2.3195 0 4.0437.2887 5.1726.866 1.1351.5773 1.7396 1.471 1.8136 2.6809h-5.4502c-.0308-.3562-.1974-.6142-.4996-.7739-.2961-.1596-.7742-.2395-1.4343-.2395-.5614 0-.9747.0614-1.24.1843-.259.1167-.3886.3009-.3886.5527 0 .4054.6169.6572 1.8507.7555.2591.0245.4565.043.5922.0553.0987.0061.2529.0184.4627.0368 2.486.2211 3.9357.4023 4.349.5436.8143.2886 1.388.6448 1.7211 1.0686.3332.4177.4997.9919.4997 1.7228 0 1.3512-.5984 2.3278-1.7951 2.9297-1.1906.6019-3.1462.9028-5.8666.9028-2.4182 0-4.1949-.2979-5.33-.8936-1.1289-.6019-1.7211-1.5478-1.7766-2.8375z"/><path d="m86.298 29.1943c-.4935.2457-1.3387.4084-2.5354.4883-.3455.0184-.6108.0368-.7958.0553-.6971.0614-1.1721.1627-1.425.304-.2468.1413-.3702.3593-.3702.6541 0 .3317.1481.5896.4442.7739.3023.1781.7279.2671 1.2769.2671 1.0426 0 1.8754-.2088 2.4984-.6264.6231-.4177.9346-.9704.9346-1.6583 0-.0737-.0031-.1259-.0092-.1566 0-.0369-.0062-.0707-.0185-.1014zm.0185 3.4732c-.5922.6203-1.3078 1.0748-2.1468 1.3635-.8328.2825-1.8908.4238-3.1739.4238-1.7334 0-3.0351-.2887-3.9049-.866s-1.3047-1.4464-1.3047-2.6072c0-.3808.0493-.7309.148-1.0503.0987-.3255.2375-.6049.4164-.8383.364-.4484.8483-.78 1.4528-.995.6107-.2211 1.7581-.3869 3.4422-.4975.5552-.0368 1.277-.0706 2.1653-.1013 1.789-.0737 2.6835-.3225 2.6835-.7463 0-.2886-.1882-.5189-.5645-.6909-.3763-.1781-.8883-.2672-1.536-.2672-.839 0-1.4374.0799-1.7952.2395-.3578.1597-.5675.433-.6292.82h-4.895c.0987-1.2837.7002-2.2019 1.8044-2.7546 1.1104-.5589 2.9364-.8384 5.478-.8384 1.388 0 2.557.0983 3.507.2948.95.1904 1.6687.476 2.156.8568.5305.4115.9068.909 1.1289 1.4925.2221.5773.3331 1.4064.3331 2.4874v4.0813c0 .393.034.6971.1018.912.0741.2088.1974.3747.3702.4975v.2303h-4.9321c-.0863-.2088-.1573-.433-.2128-.6725-.0493-.2457-.0802-.5036-.0925-.7739z"/><path d="m93.7284 34.1139v-10.567h4.8302v10.567zm0-11.433v-2.6809h4.8302v2.6809z"/><path d="m101.214 34.1139v-10.567h4.738v1.0963c.635-.4422 1.296-.7677 1.98-.9765.685-.215 1.422-.3225 2.212-.3225 1.554 0 2.689.3931 3.405 1.1793.722.7861 1.083 2.0329 1.083 3.7403v5.8501h-4.738v-4.9656c0-.7862-.126-1.3267-.379-1.6215-.253-.3009-.694-.4514-1.324-.4514-.697 0-1.246.1658-1.647.4975-.395.3316-.592.7892-.592 1.3727v5.1683z"/><path d="m124.255 34.0955c-.413.0676-.814.1167-1.203.1474-.388.0369-.765.0553-1.129.0553-.586 0-1.113-.0369-1.582-.1106-.469-.0675-.888-.175-1.258-.3224-.525-.215-.895-.5282-1.111-.9397s-.324-1.0841-.324-2.0176v-4.1365h-1.693v-2.9573h1.693v-3.4548h4.775v3.4548h1.703v2.9573h-1.703v2.1926c0 1.0441.077 1.6767.231 1.8978.155.2211.463.3317.926.3317h.675z"/><path d="m140.402 29.4707c-.173 1.6644-.894 2.9143-2.165 3.7496-1.265.8353-3.069 1.2529-5.413 1.2529-2.425 0-4.3-.4913-5.626-1.474-1.32-.9827-1.981-2.3708-1.981-4.1642 0-1.7873.661-3.1753 1.981-4.1641 1.326-.9889 3.201-1.4833 5.626-1.4833 2.251 0 4.006.3839 5.265 1.1516 1.258.7677 1.999 1.907 2.221 3.4179h-5.08c-.192-.4852-.479-.8475-.861-1.0871-.382-.2456-.861-.3685-1.434-.3685-.845 0-1.509.2242-1.99.6725-.481.4423-.721 1.0564-.721 1.8426 0 .7616.234 1.3666.703 1.8149.469.4484 1.101.6725 1.897.6725.66 0 1.215-.1627 1.665-.4882.457-.3317.741-.7801.852-1.3451z"/><path d="m146.583 28.835c0 .7248.219 1.3021.657 1.732.445.4299 1.04.6449 1.786.6449.747 0 1.339-.215 1.777-.6449.444-.4299.666-1.0072.666-1.732 0-.7309-.222-1.3082-.666-1.732-.438-.4299-1.03-.6449-1.777-.6449-.746 0-1.341.215-1.786.6449-.438.4238-.657 1.0011-.657 1.732zm-5.006 0c0-1.7934.651-3.1814 1.953-4.1641 1.301-.9889 3.14-1.4833 5.515-1.4833 2.381 0 4.216.4914 5.506 1.474 1.295.9827 1.943 2.3739 1.943 4.1734 0 1.7934-.648 3.1815-1.943 4.1642-1.29.9827-3.125 1.474-5.506 1.474-2.375 0-4.214-.4913-5.515-1.474-1.302-.9827-1.953-2.3708-1.953-4.1642z"/><path d="m167.496 28.835c0-.7124-.222-1.2806-.666-1.7043-.438-.4238-1.024-.6357-1.758-.6357-.735 0-1.324.2119-1.768.6357-.438.4237-.657.9919-.657 1.7043 0 .7063.219 1.2744.657 1.7044.444.4238 1.033.6357 1.768.6357.734 0 1.32-.2119 1.758-.6357.444-.43.666-.9981.666-1.7044zm4.738-8.4573v13.7362h-4.507l-.037-1.041c-.573.4361-1.209.7646-1.906.9857-.697.215-1.465.3225-2.304.3225-1.77 0-3.183-.5036-4.238-1.5109-1.055-1.0134-1.582-2.3585-1.582-4.0352 0-1.7013.53-3.0525 1.591-4.0536 1.067-1.0011 2.502-1.5017 4.303-1.5017.765 0 1.468.0952 2.11.2856.648.1843 1.258.4668 1.832.8476v-4.0352z"/><path d="m178.933 27.665h5.626c-.068-.5835-.333-1.0349-.796-1.3543-.462-.3193-1.082-.479-1.86-.479-.839 0-1.514.1566-2.026.4698-.506.3132-.821.7677-.944 1.3635zm10.401 3.2245c-.358 1.1731-1.188 2.0636-2.489 2.6717-1.302.608-3.035.912-5.201.912-2.406 0-4.265-.4913-5.579-1.474s-1.971-2.3708-1.971-4.1642c0-1.7995.657-3.1907 1.971-4.1734 1.314-.9826 3.173-1.474 5.579-1.474 2.554 0 4.488.5558 5.802 1.6675 1.32 1.1055 1.98 2.7331 1.98 4.8828v.1842h-10.252c0 .5712.24 1.0134.721 1.3267.482.3132 1.157.4698 2.027.4698.574 0 1.052-.0706 1.434-.2119.383-.1412.657-.347.824-.6172z"/><path d="m65.5517 61.3029c0 .7063.2221 1.2744.6662 1.7043.4442.4238 1.0302.6357 1.7581.6357.7403 0 1.3294-.2119 1.7674-.6357.4442-.4299.6663-.998.6663-1.7043 0-.7125-.2221-1.2806-.6663-1.7044-.438-.4238-1.0271-.6357-1.7674-.6357-.7279 0-1.3139.2119-1.7581.6357-.4441.4238-.6662.9919-.6662 1.7044zm-4.7377 5.2789v-13.7362h4.7377v4.0352c.5737-.3808 1.1813-.6634 1.8229-.8476.6477-.1904 1.354-.2856 2.119-.2856 1.8013 0 3.2325.5005 4.2935 1.5017 1.0673 1.0011 1.6009 2.3523 1.6009 4.0536 0 1.6767-.5275 3.0218-1.5824 4.0352-1.0548 1.0072-2.4675 1.5108-4.238 1.5108-.8328 0-1.5977-.1074-2.2948-.3224-.6971-.2211-1.3325-.5497-1.9062-.9858l-.037 1.0411z"/><path d="m81.5507 61.3029c0 .7247.219 1.302.657 1.732.4441.4299 1.0394.6449 1.7859.6449.7464 0 1.3386-.215 1.7766-.6449.4442-.43.6662-1.0073.6662-1.732 0-.7309-.222-1.3082-.6662-1.732-.438-.43-1.0302-.6449-1.7766-.6449-.7465 0-1.3418.2149-1.7859.6449-.438.4238-.657 1.0011-.657 1.732zm-5.0061 0c0-1.7934.6508-3.1815 1.9525-4.1642 1.3016-.9888 3.1399-1.4832 5.515-1.4832 2.3812 0 4.2164.4913 5.5057 1.474 1.2955.9827 1.9432 2.3738 1.9432 4.1734 0 1.7934-.6477 3.1814-1.9432 4.1641-1.2893.9827-3.1245 1.4741-5.5057 1.4741-2.3751 0-4.2134-.4914-5.515-1.4741-1.3017-.9827-1.9525-2.3707-1.9525-4.1641z"/><path d="m97.6145 61.3029c0 .7247.219 1.302.657 1.732.4441.4299 1.0394.6449 1.7855.6449.747 0 1.339-.215 1.777-.6449.444-.43.666-1.0073.666-1.732 0-.7309-.222-1.3082-.666-1.732-.438-.43-1.03-.6449-1.777-.6449-.7461 0-1.3414.2149-1.7855.6449-.438.4238-.657 1.0011-.657 1.732zm-5.0061 0c0-1.7934.6508-3.1815 1.9525-4.1642 1.3016-.9888 3.1399-1.4832 5.5151-1.4832 2.381 0 4.216.4913 5.506 1.474 1.295.9827 1.943 2.3738 1.943 4.1734 0 1.7934-.648 3.1814-1.943 4.1641-1.29.9827-3.125 1.4741-5.506 1.4741-2.3752 0-4.2135-.4914-5.5151-1.4741-1.3017-.9827-1.9525-2.3707-1.9525-4.1641z"/><path d="m116.519 66.5633c-.413.0676-.814.1167-1.203.1475-.389.0368-.765.0552-1.129.0552-.586 0-1.113-.0368-1.582-.1105-.469-.0676-.888-.1751-1.259-.3225-.524-.2149-.894-.5282-1.11-.9397s-.324-1.084-.324-2.0176v-4.1365h-1.693v-2.9573h1.693v-3.4548h4.775v3.4548h1.702v2.9573h-1.702v2.1926c0 1.0442.077 1.6768.231 1.8979s.463.3316.926.3316h.675z"/><path d="m132.666 61.9385c-.173 1.6645-.894 2.9143-2.165 3.7496-1.265.8353-3.069 1.253-5.413 1.253-2.425 0-4.3-.4914-5.626-1.4741-1.321-.9827-1.981-2.3707-1.981-4.1641 0-1.7873.66-3.1754 1.981-4.1642 1.326-.9888 3.201-1.4832 5.626-1.4832 2.251 0 4.006.3838 5.265 1.1516 1.258.7677 1.998 1.907 2.221 3.4179h-5.081c-.191-.4852-.478-.8476-.86-1.0871-.383-.2457-.861-.3685-1.434-.3685-.845 0-1.509.2241-1.99.6725-.481.4422-.722 1.0564-.722 1.8425 0 .7616.235 1.3666.704 1.815.469.4483 1.101.6725 1.897.6725.66 0 1.215-.1628 1.665-.4883.457-.3316.74-.78.852-1.3451z"/><path d="m144.168 61.6622c-.494.2456-1.339.4084-2.535.4882-.346.0185-.611.0369-.796.0553-.697.0614-1.172.1628-1.425.304-.247.1413-.37.3593-.37.6541 0 .3317.148.5897.444.7739.302.1781.728.2672 1.277.2672 1.042 0 1.875-.2088 2.498-.6265.623-.4176.935-.9704.935-1.6583 0-.0737-.003-.1259-.01-.1566 0-.0368-.006-.0706-.018-.1013zm.018 3.4732c-.592.6203-1.307 1.0748-2.146 1.3635-.833.2825-1.891.4237-3.174.4237-1.734 0-3.035-.2886-3.905-.866-.87-.5773-1.305-1.4464-1.305-2.6072 0-.3808.05-.7308.148-1.0502.099-.3255.238-.605.417-.8384.364-.4483.848-.78 1.452-.9949.611-.2212 1.759-.387 3.443-.4975.555-.0369 1.277-.0707 2.165-.1014 1.789-.0737 2.683-.3224 2.683-.7462 0-.2887-.188-.519-.564-.691-.376-.1781-.888-.2671-1.536-.2671-.839 0-1.437.0798-1.795.2395s-.568.433-.629.8199h-4.895c.098-1.2836.7-2.2018 1.804-2.7546 1.11-.5589 2.936-.8383 5.478-.8383 1.388 0 2.557.0982 3.507.2948.95.1904 1.669.476 2.156.8568.53.4115.907.9089 1.129 1.4924.222.5774.333 1.4065.333 2.4875v4.0812c0 .3931.034.6971.102.9121.074.2088.197.3746.37.4975v.2303h-4.932c-.087-.2089-.157-.433-.213-.6726-.049-.2456-.08-.5036-.093-.7738z"/><path d="m151.423 66.5818v-10.567h4.7v1.0963c.63-.4484 1.274-.777 1.934-.9858s1.373-.3132 2.138-.3132c.857 0 1.576.1535 2.156.4606.58.301 1.076.78 1.49 1.4372.697-.651 1.428-1.1301 2.193-1.4372s1.613-.4606 2.544-.4606c1.499 0 2.597.3931 3.294 1.1792.698.7862 1.046 2.033 1.046 3.7404v5.8501h-4.682v-4.9657c0-.7739-.123-1.3113-.37-1.6122-.247-.3071-.666-.4607-1.259-.4607-.666 0-1.187.1659-1.564.4975-.376.3317-.564.7892-.564 1.3727v5.1684h-4.599v-4.9657c0-.7739-.123-1.3113-.37-1.6122-.247-.3071-.669-.4607-1.268-.4607-.66 0-1.178.1659-1.554.4975-.377.3317-.565.7892-.565 1.3727v5.1684z"/><path d="m180.163 61.3029c0 .7063.223 1.2744.667 1.7043.444.4238 1.03.6357 1.758.6357.74 0 1.329-.2119 1.767-.6357.444-.4299.666-.998.666-1.7043 0-.7125-.222-1.2806-.666-1.7044-.438-.4238-1.027-.6357-1.767-.6357-.728 0-1.314.2119-1.758.6357s-.667.9919-.667 1.7044zm-4.737 8.6968v-13.9849h4.515l.037 1.0226c.562-.43 1.191-.7524 1.888-.9674.697-.2149 1.468-.3224 2.313-.3224 1.771 0 3.184.5067 4.238 1.5201 1.055 1.0072 1.583 2.3523 1.583 4.0352 0 1.6951-.534 3.0432-1.601 4.0444-1.061 1.0011-2.492 1.5016-4.294 1.5016-.765 0-1.471-.0921-2.119-.2763-.641-.1904-1.249-.476-1.823-.8568v4.2839z"/></g><g filter="url(#a)"><circle cx="760" cy="80" fill="#e97a8c" r="29"/></g><g filter="url(#b)"><circle cx="64" cy="4" fill="#e97a8c" r="35"/></g></g></svg>