<svg fill="none" height="160" viewBox="0 0 375 160" width="375" xmlns="http://www.w3.org/2000/svg"><path d="m0 0h375v160h-375z" fill="#3f3948"/><path d="m20 38h35v5.99998h-35z" fill="#9178bc"/><g fill="#fff"><path d="m20 28.702 6.4969-.0106c.0416.4245.2217.7322.5405.9233.3257.1839.8489.2759 1.5697.2759.6029 0 1.0568-.0672 1.3617-.2017.3119-.1415.4678-.3502.4678-.6261 0-.4811-.8074-.7959-2.422-.9445-.3188-.0353-.5614-.0601-.7277-.0743-.0139 0-.0277 0-.0416 0-2.6057-.2617-4.3659-.6013-5.2806-1.0187-.5337-.2406-.946-.6191-1.237-1.1355-.2842-.5165-.4262-1.1249-.4262-1.8253 0-1.4079.6306-2.4373 1.8918-3.0882 1.2613-.6509 3.271-.9763 6.0292-.9763 2.6056 0 4.5426.3325 5.8108.9975 1.2751.6651 1.9542 1.6945 2.0374 3.0882h-6.1227c-.0346-.4103-.2217-.7075-.5613-.8914-.3326-.184-.8697-.2759-1.6112-.2759-.6307 0-1.095.0707-1.393.2122-.291.1344-.4366.3467-.4366.6367 0 .467.693.757 2.079.8702.2911.0283.5129.0496.6653.0637.1109.0071.2842.0212.5198.0425 2.7928.2546 4.4213.4634 4.8856.6261.9148.3325 1.5593.7428 1.9335 1.231.3742.4811.5613 1.1426.5613 1.9845 0 1.5564-.6722 2.6813-2.0166 3.3747-1.3375.6933-3.5343 1.04-6.5904 1.04-2.7166 0-4.7124-.3432-5.9876-1.0294-1.2681-.6934-1.9334-1.7829-1.9958-3.2686z"/><path d="m55 27.2375c-.194 1.9173-1.0049 3.357-2.4324 4.3192-1.4207.9622-3.4477 1.4433-6.0811 1.4433-2.7235 0-4.8302-.566-6.3202-1.698-1.483-1.132-2.2245-2.7309-2.2245-4.7967 0-2.0588.7415-3.6577 2.2245-4.7967 1.49-1.1391 3.5967-1.7086 6.3202-1.7086 2.5294 0 4.501.4422 5.9147 1.3265 1.4138.8844 2.2454 2.1968 2.4948 3.9372h-5.7068c-.2148-.559-.5371-.9764-.9668-1.2523-.4296-.283-.9667-.4245-1.6112-.4245-.9494 0-1.6944.2583-2.2349.7747-.5405.5094-.8108 1.2169-.8108 2.1225 0 .8772.2633 1.5741.79 2.0906.5267.5164 1.237.7747 2.131.7747.7415 0 1.3652-.1875 1.8711-.5625.5128-.382.8316-.8985.9563-1.5494z"/><path d="m25.2147 58.6c0 .8018.2444 1.4466.7333 1.9347.4889.481 1.1339.7215 1.9351.7215.8148 0 1.4632-.2405 1.9453-.7215.4889-.4881.7333-1.1329.7333-1.9347 0-.8087-.2444-1.4536-.7333-1.9346-.4821-.4811-1.1305-.7216-1.9453-.7216-.8012 0-1.4462.2405-1.9351.7216-.4889.481-.7333 1.1259-.7333 1.9346zm-5.2147 5.9922v-15.5921h5.2147v4.5803c.6314-.4322 1.3002-.7529 2.0064-.9621.7129-.2161 1.4904-.3241 2.3323-.3241 1.9827 0 3.558.5682 4.7258 1.7045 1.1747 1.1364 1.762 2.6702 1.762 4.6013 0 1.9033-.5805 3.4301-1.7416 4.5804-1.1611 1.1434-2.716 1.715-4.6647 1.715-.9166 0-1.7586-.122-2.5258-.366-.7673-.251-1.4667-.6239-2.0981-1.1189l-.0408 1.1817z"/><path d="m54.0278 59.3216c-.1901 1.8893-.9846 3.308-2.3833 4.2562-1.3919.9481-3.378 1.4222-5.9582 1.4222-2.6684 0-4.7326-.5577-6.1924-1.6732-1.453-1.1155-2.1796-2.6911-2.1796-4.7268 0-2.0287.7266-3.6043 2.1796-4.7268 1.4598-1.1224 3.524-1.6836 6.1924-1.6836 2.4784 0 4.4101.4357 5.7952 1.3072 1.3852.8714 2.2 2.1647 2.4444 3.8797h-5.5915c-.2105-.5508-.5262-.9621-.9472-1.234-.421-.2788-.9472-.4183-1.5786-.4183-.9303 0-1.6602.2545-2.1898.7634-.5296.502-.7944 1.1991-.7944 2.0915 0 .8645.258 1.5512.774 2.0601.5161.509 1.212.7634 2.0879.7634.7266 0 1.3377-.1847 1.8333-.5542.5025-.3765.8148-.8854.937-1.5268z"/><path d="m81.512 37.22c-1.0707 0-2.0093-.198-2.816-.594-.8067-.4107-1.4373-.9753-1.892-1.694-.44-.7333-.66-1.584-.66-2.552h3.3c0 .6307.176 1.122.528 1.474.3667.3373.88.506 1.54.506s1.166-.1687 1.518-.506c.3667-.352.55-.8433.55-1.474v-1.98h-4.51v-2.97h4.51v-1.87c0-.6453-.1833-1.1367-.55-1.474-.352-.3373-.858-.506-1.518-.506s-1.1733.1687-1.54.506c-.352.3373-.528.8287-.528 1.474h-3.3c0-.9827.22-1.8333.66-2.552.4547-.7187 1.0853-1.276 1.892-1.672.8067-.4107 1.7453-.616 2.816-.616 1.0853 0 2.024.2053 2.816.616.8067.396 1.43.9533 1.87 1.672.4547.7187.682 1.5693.682 2.552v6.82c0 .968-.2273 1.8187-.682 2.552-.44.7187-1.0633 1.2833-1.87 1.694-.792.396-1.7307.594-2.816.594zm11.9374 3.74v-3.96c-1.3933 0-2.4933-.4033-3.3-1.21-.792-.8213-1.188-1.936-1.188-3.344v-3.014c0-1.3933.4033-2.4933 1.21-3.3.8067-.8213 1.8993-1.232 3.278-1.232v-3.96h2.684v3.96c1.3933 0 2.486.4107 3.278 1.232.8066.8067 1.2096 1.9067 1.2096 3.3v3.014c0 1.408-.403 2.5227-1.2096 3.344-.792.8067-1.8847 1.21-3.278 1.21v3.96zm.154-6.556v-6.93c-.572 0-1.0267.176-1.364.528-.3227.3373-.484.814-.484 1.43v3.014c0 .616.1613 1.1.484 1.452.3373.3373.792.506 1.364.506zm2.376 0c.572 0 1.0193-.1687 1.342-.506.3373-.352.506-.836.506-1.452v-3.014c0-.616-.1687-1.0927-.506-1.43-.3227-.352-.77-.528-1.342-.528zm10.6616 6.556v-3.96c-1.394 0-2.494-.4033-3.3-1.21-.792-.8213-1.188-1.936-1.188-3.344v-3.014c0-1.3933.403-2.4933 1.21-3.3.806-.8213 1.899-1.232 3.278-1.232v-3.96h2.684v3.96c1.393 0 2.486.4107 3.278 1.232.806.8067 1.21 1.9067 1.21 3.3v3.014c0 1.408-.404 2.5227-1.21 3.344-.792.8067-1.885 1.21-3.278 1.21v3.96zm.154-6.556v-6.93c-.572 0-1.027.176-1.364.528-.323.3373-.484.814-.484 1.43v3.014c0 .616.161 1.1.484 1.452.337.3373.792.506 1.364.506zm2.376 0c.572 0 1.019-.1687 1.342-.506.337-.352.506-.836.506-1.452v-3.014c0-.616-.169-1.0927-.506-1.43-.323-.352-.77-.528-1.342-.528zm12.025 2.816c-1.07 0-2.009-.198-2.816-.594-.792-.4107-1.408-.9753-1.848-1.694-.425-.7333-.638-1.584-.638-2.552v-2.86c0-.968.213-1.8113.638-2.53.44-.7333 1.056-1.298 1.848-1.694.807-.4107 1.746-.616 2.816-.616 1.071 0 1.995.2053 2.772.616.792.396 1.401.9607 1.826 1.694.44.7187.66 1.562.66 2.53v2.2h-7.414v.66c0 .7627.184 1.342.55 1.738.367.3813.917.572 1.65.572.514 0 .924-.088 1.232-.264.323-.176.536-.418.638-.726h3.234c-.264 1.056-.865 1.9067-1.804 2.552-.924.6453-2.038.968-3.344.968zm2.112-7.194v-.55c0-.748-.176-1.32-.528-1.716-.337-.396-.865-.594-1.584-.594-.718 0-1.261.2053-1.628.616-.352.4107-.528.99-.528 1.738v.33l4.488-.044zm5.976 6.974v-12.1h3.3v4.576h1.628l2.53-4.576h3.674l-3.366 5.918 3.432 6.182h-3.74l-2.552-4.752h-1.606v4.752zm16.623 0v-9.02h-3.96v-3.08h11.22v3.08h-3.96v9.02zm9.693 0v-12.1h2.904v5.5c0 .3667-.022.8287-.066 1.386-.044.5427-.102 1.0927-.176 1.65-.058.5573-.124 1.0487-.198 1.474l3.828-10.01h4.004v12.1h-2.904v-5.5c0-.3813.022-.814.066-1.298.044-.4987.096-.9973.154-1.496.059-.4987.118-.924.176-1.276l-3.784 9.57zm13.17 0v-12.1h5.478c1.481 0 2.655.3007 3.52.902.88.5867 1.32 1.386 1.32 2.398 0 .8067-.33 1.4593-.99 1.958-.66.484-1.533.726-2.618.726v-.22c1.188 0 2.134.264 2.838.792.719.528 1.078 1.2247 1.078 2.09 0 1.0707-.44 1.914-1.32 2.53-.865.616-2.046.924-3.542.924zm3.234-2.332h2.376c.543 0 .975-.1247 1.298-.374.337-.264.506-.6013.506-1.012 0-.44-.169-.792-.506-1.056-.323-.264-.755-.396-1.298-.396h-2.376zm0-4.774h2.266c.499 0 .895-.1173 1.188-.352.293-.2493.44-.572.44-.968 0-.4107-.147-.7407-.44-.99s-.689-.374-1.188-.374h-2.266zm9.979 7.106v-12.1h3.3v4.422h3.696v-4.422h3.3v12.1h-3.3v-4.598h-3.696v4.598zm12.62 0v-12.1h2.75v3.85h.66c1.305 0 2.346.3813 3.124 1.144.777.7627 1.166 1.782 1.166 3.058 0 1.2173-.396 2.2-1.188 2.948-.778.7333-1.812 1.1-3.102 1.1zm2.75-2.53h.66c.528 0 .931-.132 1.21-.396.293-.264.44-.6453.44-1.144 0-.528-.147-.9313-.44-1.21-.279-.2933-.682-.44-1.21-.44h-.66zm5.94 2.53v-12.1h2.75v12.1zm10.243.22c-1.071 0-2.009-.198-2.816-.594-.792-.4107-1.408-.9753-1.848-1.694-.425-.7333-.638-1.584-.638-2.552v-2.86c0-.968.213-1.8113.638-2.53.44-.7333 1.056-1.298 1.848-1.694.807-.4107 1.745-.616 2.816-.616s1.995.2053 2.772.616c.792.396 1.401.9607 1.826 1.694.44.7187.66 1.562.66 2.53v2.2h-7.414v.66c0 .7627.183 1.342.55 1.738.367.3813.917.572 1.65.572.513 0 .924-.088 1.232-.264.323-.176.535-.418.638-.726h3.234c-.264 1.056-.865 1.9067-1.804 2.552-.924.6453-2.039.968-3.344.968zm2.112-7.194v-.55c0-.748-.176-1.32-.528-1.716-.337-.396-.865-.594-1.584-.594s-1.261.2053-1.628.616c-.352.4107-.528.99-.528 1.738v.33l4.488-.044zm19.167 6.974v-12.1h3.3v4.576h1.628l2.53-4.576h3.674l-3.366 5.918 3.432 6.182h-3.74l-2.552-4.752h-1.606v4.752zm15.127 3.96 1.65-4.554-4.532-11.506h3.586l1.826 5.28c.132.396.264.88.396 1.452.147.5573.257 1.012.33 1.364.074-.352.176-.8067.308-1.364.147-.572.286-1.056.418-1.452l1.76-5.28h3.432l-5.72 16.06zm11.19 0v-16.06h3.19v2.31h.77l-.77.77c0-1.0413.286-1.848.858-2.42.572-.5867 1.356-.88 2.354-.88 1.217 0 2.192.4327 2.926 1.298.733.8507 1.1 1.9947 1.1 3.432v3.08c0 .9533-.169 1.7893-.506 2.508-.323.704-.785 1.254-1.386 1.65-.602.3813-1.313.572-2.134.572-.998 0-1.782-.286-2.354-.858-.572-.5867-.858-1.4007-.858-2.442l.77.77h-.77l.11 2.97v3.3zm5.214-6.6c.616 0 1.085-.1687 1.408-.506.337-.352.506-.8433.506-1.474v-2.86c0-.6453-.169-1.1367-.506-1.474-.323-.3373-.792-.506-1.408-.506-.602 0-1.071.176-1.408.528-.338.3373-.506.8213-.506 1.452v2.86c0 .6307.168 1.122.506 1.474.337.3373.806.506 1.408.506zm13.191 2.86c-1.071 0-2.009-.198-2.816-.594-.807-.4107-1.43-.9753-1.87-1.694-.44-.7333-.66-1.584-.66-2.552v-2.86c0-.9827.22-1.8333.66-2.552s1.063-1.276 1.87-1.672c.807-.4107 1.745-.616 2.816-.616 1.599 0 2.875.4033 3.828 1.21s1.459 1.9067 1.518 3.3h-3.3c-.044-.5133-.249-.9167-.616-1.21-.352-.2933-.829-.44-1.43-.44-.66 0-1.166.1687-1.518.506s-.528.8287-.528 1.474v2.86c0 .6307.176 1.122.528 1.474.352.3373.858.506 1.518.506.601 0 1.078-.1393 1.43-.418.367-.2933.572-.704.616-1.232h3.3c-.059 1.3933-.565 2.4933-1.518 3.3s-2.229 1.21-3.828 1.21zm7.406-.22v-12.1h2.75v3.85h.66c1.305 0 2.346.3813 3.124 1.144.777.7627 1.166 1.782 1.166 3.058 0 1.2173-.396 2.2-1.188 2.948-.778.7333-1.812 1.1-3.102 1.1zm2.75-2.53h.66c.528 0 .931-.132 1.209-.396.294-.264.441-.6453.441-1.144 0-.528-.147-.9313-.441-1.21-.278-.2933-.681-.44-1.209-.44h-.66zm5.94 2.53v-12.1h2.75v12.1zm18.264 0v-12.1h10.296v12.1h-3.3v-9.02h-3.696v9.02zm18.34.22c-1.071 0-2.002-.198-2.794-.594-.792-.4107-1.408-.9753-1.848-1.694-.426-.7333-.638-1.584-.638-2.552v-2.86c0-.968.212-1.8113.638-2.53.44-.7333 1.056-1.298 1.848-1.694.792-.4107 1.723-.616 2.794-.616 1.085 0 2.016.2053 2.794.616.792.396 1.4.9607 1.826 1.694.44.7187.66 1.562.66 2.53v2.86c0 .968-.22 1.8187-.66 2.552-.426.7187-1.034 1.2833-1.826 1.694-.778.396-1.709.594-2.794.594zm0-2.86c.645 0 1.136-.1687 1.474-.506.337-.352.506-.8433.506-1.474v-2.86c0-.6453-.169-1.1367-.506-1.474-.338-.3373-.829-.506-1.474-.506-.631 0-1.122.1687-1.474.506-.338.3373-.506.8287-.506 1.474v2.86c0 .6307.168 1.122.506 1.474.352.3373.843.506 1.474.506zm-251.297 31.882c-1.6867 0-3.0287-.4547-4.026-1.364-.9827-.924-1.474-2.1633-1.474-3.718h3.3c0 .6747.198 1.2173.594 1.628.396.396.9313.594 1.606.594s1.21-.1907 1.606-.572c.396-.396.594-.9313.594-1.606v-8.184h-3.63v-3.08h6.93v11.264c0 1.5547-.4913 2.7867-1.474 3.696-.9827.8947-2.3247 1.342-4.026 1.342zm12.2894-.022c-1.2173 0-2.1853-.33-2.904-.99-.704-.66-1.056-1.5547-1.056-2.684 0-1.2173.418-2.1487 1.254-2.794.8507-.66 2.068-.99 3.652-.99h2.508v-.902c0-.4693-.1687-.8433-.506-1.122-.3227-.2787-.7627-.418-1.32-.418-.5133 0-.9387.1173-1.276.352s-.5427.5573-.616.968h-3.19c.132-1.2173.66-2.178 1.584-2.882.9387-.7187 2.1413-1.078 3.608-1.078 1.54 0 2.7573.3813 3.652 1.144.9093.748 1.364 1.76 1.364 3.036v8.14h-3.19v-1.98h-.528l.55-.77c0 .9093-.33 1.6353-.99 2.178-.6453.528-1.5107.792-2.596.792zm1.232-2.42c.6453 0 1.1733-.1687 1.584-.506.4253-.352.638-.8067.638-1.364v-1.298h-2.442c-.4987 0-.902.1467-1.21.44-.308.2787-.462.6527-.462 1.122 0 .4987.1687.8947.506 1.188.3373.2787.7993.418 1.386.418zm11.4756 2.2-3.96-12.1h3.41l2.024 6.798c.117.4107.234.858.352 1.342.117.484.205.8727.264 1.166.073-.2933.161-.682.264-1.166.117-.484.227-.924.33-1.32l2.002-6.82h3.366l-3.916 12.1zm13.675.22c-1.217 0-2.185-.33-2.904-.99-.704-.66-1.056-1.5547-1.056-2.684 0-1.2173.418-2.1487 1.254-2.794.851-.66 2.068-.99 3.652-.99h2.508v-.902c0-.4693-.168-.8433-.506-1.122-.322-.2787-.762-.418-1.32-.418-.513 0-.938.1173-1.276.352-.337.2347-.542.5573-.616.968h-3.19c.132-1.2173.66-2.178 1.584-2.882.939-.7187 2.142-1.078 3.608-1.078 1.54 0 2.758.3813 3.652 1.144.91.748 1.364 1.76 1.364 3.036v8.14h-3.19v-1.98h-.528l.55-.77c0 .9093-.33 1.6353-.99 2.178-.645.528-1.51.792-2.596.792zm1.232-2.42c.646 0 1.174-.1687 1.584-.506.426-.352.638-.8067.638-1.364v-1.298h-2.442c-.498 0-.902.1467-1.21.44-.308.2787-.462.6527-.462 1.122 0 .4987.169.8947.506 1.188.338.2787.8.418 1.386.418zm13.016 2.42c-.998 0-1.87-.154-2.618-.462-.748-.3227-1.335-.7627-1.76-1.32-.411-.5573-.616-1.21-.616-1.958h3.3c0 .352.154.638.462.858.322.2053.733.308 1.232.308h.968c.601 0 1.056-.11 1.364-.33.322-.22.484-.528.484-.924 0-.3667-.14-.6453-.418-.836-.279-.2053-.712-.3447-1.298-.418l-1.408-.176c-1.511-.1907-2.611-.5573-3.3-1.1-.69-.5427-1.034-1.3713-1.034-2.486 0-1.1733.403-2.0827 1.21-2.728.806-.6453 1.987-.968 3.542-.968h.836c1.481 0 2.662.3227 3.542.968s1.32 1.5107 1.32 2.596h-3.3c0-.2933-.147-.528-.44-.704-.279-.1907-.653-.286-1.122-.286h-.836c-.543 0-.939.0953-1.188.286-.25.176-.374.4473-.374.814 0 .3373.11.594.33.77.234.176.601.3007 1.1.374l1.518.198c1.525.1907 2.654.572 3.388 1.144.748.572 1.122 1.4227 1.122 2.552 0 1.232-.426 2.178-1.276 2.838-.851.66-2.105.99-3.762.99zm13.763 0c-1.071 0-2.009-.198-2.816-.594-.807-.4107-1.43-.9753-1.87-1.694-.44-.7333-.66-1.584-.66-2.552v-2.86c0-.9827.22-1.8333.66-2.552s1.063-1.276 1.87-1.672c.807-.4107 1.745-.616 2.816-.616 1.599 0 2.875.4033 3.828 1.21s1.459 1.9067 1.518 3.3h-3.3c-.044-.5133-.249-.9167-.616-1.21-.352-.2933-.829-.44-1.43-.44-.66 0-1.166.1687-1.518.506s-.528.8287-.528 1.474v2.86c0 .6307.176 1.122.528 1.474.352.3373.858.506 1.518.506.601 0 1.078-.1393 1.43-.418.367-.2933.572-.704.616-1.232h3.3c-.059 1.3933-.565 2.4933-1.518 3.3s-2.229 1.21-3.828 1.21zm8.329-.22v-12.1h3.08v2.31h.836l-.946 1.408c0-1.3053.301-2.288.902-2.948.602-.66 1.482-.99 2.64-.99 1.335 0 2.369.4033 3.102 1.21.748.8067 1.122 1.9433 1.122 3.41v.99h-3.52v-.77c0-.66-.183-1.1733-.55-1.54-.352-.3667-.828-.55-1.43-.55-.63 0-1.114.1833-1.452.55-.322.3667-.484.88-.484 1.54v7.48zm12.928 0v-2.992h4.18v-6.138h-3.63v-2.97h6.71v9.108h3.52v2.992zm5.5-14.014c-.601 0-1.085-.154-1.452-.462-.352-.308-.528-.726-.528-1.254s.176-.946.528-1.254c.367-.308.851-.462 1.452-.462s1.078.154 1.43.462c.367.308.55.726.55 1.254s-.183.946-.55 1.254c-.352.308-.829.462-1.43.462zm7.603 17.974v-16.06h3.19v2.31h.77l-.77.77c0-1.0413.286-1.848.858-2.42.572-.5867 1.357-.88 2.354-.88 1.218 0 2.193.4327 2.926 1.298.734.8507 1.1 1.9947 1.1 3.432v3.08c0 .9533-.168 1.7893-.506 2.508-.322.704-.784 1.254-1.386 1.65-.601.3813-1.312.572-2.134.572-.997 0-1.782-.286-2.354-.858-.572-.5867-.858-1.4007-.858-2.442l.77.77h-.77l.11 2.97v3.3zm5.214-6.6c.616 0 1.086-.1687 1.408-.506.338-.352.506-.8433.506-1.474v-2.86c0-.6453-.168-1.1367-.506-1.474-.322-.3373-.792-.506-1.408-.506-.601 0-1.07.176-1.408.528-.337.3373-.506.8213-.506 1.452v2.86c0 .6307.169 1.122.506 1.474.338.3373.807.506 1.408.506zm14.446 2.64c-1.232 0-2.2-.352-2.904-1.056s-1.056-1.672-1.056-2.904v-5.17h-3.19v-2.97h3.19v-3.41h3.3v3.41h4.51v2.97h-4.51v5.17c0 .66.33.99.99.99h3.3v2.97z"/><path d="m24.864 99.16c-.7467 0-1.392-.128-1.936-.384s-.9653-.6187-1.264-1.088c-.2987-.48-.4533-1.0507-.464-1.712h1.28c0 .6293.2133 1.1307.64 1.504.4267.3627 1.008.544 1.744.544.704 0 1.2533-.176 1.648-.528.4053-.352.608-.8373.608-1.456 0-.512-.1387-.9547-.416-1.328-.2773-.384-.6667-.6507-1.168-.8l-1.52-.48c-.8-.2347-1.4187-.6347-1.856-1.2-.4267-.576-.64-1.248-.64-2.016 0-.6293.1387-1.168.416-1.616.2773-.4587.6667-.816 1.168-1.072.512-.256 1.1093-.384 1.792-.384 1.0133 0 1.824.2827 2.432.848s.912 1.3227.912 2.272h-1.264c0-.608-.1867-1.088-.56-1.44s-.8853-.528-1.536-.528-1.1627.16-1.536.48c-.3627.3093-.544.752-.544 1.328 0 .5013.1387.9387.416 1.312s.6667.64 1.168.8l1.52.48c.7893.2453 1.4027.6613 1.84 1.248s.656 1.2747.656 2.064c0 .6293-.1493 1.184-.448 1.664-.288.4693-.6987.8373-1.232 1.104-.5227.256-1.1413.384-1.856.384zm8.8417 0c-.9279 0-1.6586-.2347-2.1919-.704-.5334-.48-.8-1.1253-.8-1.936 0-.8.2613-1.4293.784-1.888.5226-.4693 1.2266-.704 2.112-.704h2.8v-.928c0-.5867-.1707-1.04-.512-1.36-.3414-.32-.8267-.48-1.456-.48-.5547 0-1.0187.1227-1.392.368-.3627.2453-.5707.576-.624.992h-1.28c.1066-.7573.4586-1.36 1.056-1.808.608-.448 1.3653-.672 2.272-.672.9813 0 1.76.2667 2.336.8.576.5227.8639 1.232.8639 2.128v6.032h-1.2479v-1.712h-.208l.24-.256c0 .6507-.2507 1.168-.752 1.552-.5014.384-1.168.576-2.0001.576zm.3041-1.024c.704 0 1.28-.176 1.728-.528s.672-.8107.672-1.376v-1.328h-2.784c-.5014 0-.9014.1387-1.2.416-.2987.2773-.448.656-.448 1.136 0 .512.1813.9227.544 1.232.3626.2987.8586.448 1.488.448zm6.5857.864v-1.152h3.136v-6.496h-2.736v-1.152h4.016v7.648h2.976v1.152zm3.632-10.416c-.3307 0-.5973-.0853-.8-.256-.192-.1707-.288-.4053-.288-.704 0-.3093.096-.5547.288-.736.2027-.1813.4693-.272.8-.272s.592.0907.784.272c.2027.1813.304.4267.304.736 0 .288-.1013.5227-.304.704-.192.1707-.4533.256-.784.256zm6.1058 10.416v-8.8h1.264v1.632h.32l-.352.464c0-.704.2133-1.2533.64-1.648.4373-.4053 1.0293-.608 1.776-.608.8746 0 1.5733.2773 2.096.832.5226.544.7839 1.2853.7839 2.224v5.904h-1.2639v-5.76c0-.672-.176-1.1893-.528-1.552s-.832-.544-1.44-.544c-.6294 0-1.1254.192-1.488.576-.3627.384-.544.928-.544 1.632v5.648zm13.8017 0c-.736 0-1.3067-.192-1.712-.576-.4053-.3947-.608-.9493-.608-1.664v-5.408h-2.496v-1.152h2.496v-2.48h1.28v2.48h3.536v1.152h-3.536v5.408c0 .7253.3467 1.088 1.04 1.088h2.336v1.152zm8.6818.16c-.6827 0-1.28-.1333-1.792-.4s-.912-.6453-1.2-1.136c-.2774-.5013-.416-1.0933-.416-1.776v-2.496c0-.6827.1386-1.2693.416-1.76.288-.5013.688-.8853 1.2-1.152s1.1093-.4 1.792-.4c1.0026 0 1.808.272 2.416.816s.9226 1.2853.944 2.224h-1.264c-.0214-.608-.2187-1.0773-.592-1.408-.3627-.3307-.864-.496-1.504-.496-.6507 0-1.168.192-1.552.576-.384.3733-.576.9067-.576 1.6v2.496c0 .6827.192 1.216.576 1.6s.9013.576 1.552.576c.64 0 1.1413-.1653 1.504-.496.3733-.3413.5706-.8107.592-1.408h1.264c-.0214.9387-.336 1.68-.944 2.224s-1.4134.816-2.416.816zm9.5457-.016c-.6827 0-1.2747-.1333-1.776-.4s-.8907-.6507-1.168-1.152-.416-1.0933-.416-1.776v-2.432c0-.6933.1387-1.2853.416-1.776.2773-.5013.6667-.8853 1.168-1.152s1.0933-.4 1.776-.4 1.2747.1333 1.776.4.8907.6507 1.168 1.152c.2773.4907.416 1.0773.416 1.76v2.448c0 .6827-.1387 1.2747-.416 1.776s-.6667.8853-1.168 1.152-1.0933.4-1.776.4zm0-1.136c.6613 0 1.1733-.1867 1.536-.56s.544-.9173.544-1.632v-2.432c0-.7147-.1867-1.2587-.56-1.632-.3627-.3733-.8693-.56-1.52-.56s-1.1627.1867-1.536.56c-.3627.3733-.544.9173-.544 1.632v2.432c0 .7147.1813 1.2587.544 1.632.3733.3733.8853.56 1.536.56zm9.1618 1.152c-.8747 0-1.584-.2933-2.128-.88-.5334-.5867-.8-1.376-.8-2.368v-2.608c0-1.0027.2666-1.7973.8-2.384.5333-.5867 1.2426-.88 2.128-.88.736 0 1.328.2027 1.776.608.4586.4053.688.9493.688 1.632l-.336-.528h.304l-.016-1.92v-2.512h1.264v11.68h-1.264v-1.552h-.336l.384-.528c0 .6933-.2294 1.2427-.688 1.648-.448.3947-1.04.592-1.776.592zm.4-1.104c.6293 0 1.12-.192 1.472-.576.3626-.3947.544-.9387.544-1.632v-2.496c0-.6933-.1814-1.232-.544-1.616-.352-.3947-.8427-.592-1.472-.592-.64 0-1.1414.192-1.504.576-.3627.384-.544.928-.544 1.632v2.496c0 .704.1813 1.248.544 1.632.3626.384.864.576 1.504.576zm9.6257 1.104c-.683 0-1.275-.1333-1.776-.4-.5013-.2773-.8907-.6667-1.168-1.168s-.416-1.0827-.416-1.744v-2.496c0-.672.1387-1.2533.416-1.744.2773-.5013.6667-.8853 1.168-1.152.501-.2773 1.093-.416 1.776-.416s1.275.1387 1.776.416c.501.2667.891.6507 1.168 1.152.277.4907.416 1.072.416 1.744v1.552h-5.472v.944c0 .7147.1813 1.2693.544 1.664.373.384.896.576 1.568.576.565 0 1.024-.112 1.376-.336.363-.224.592-.5493.688-.976h1.264c-.117.736-.475 1.3173-1.072 1.744s-1.349.64-2.256.64zm2.112-5.104v-.704c0-.7147-.181-1.264-.544-1.648-.363-.3947-.885-.592-1.568-.592-.672 0-1.195.1973-1.568.592-.3627.384-.544.9333-.544 1.648v.56h4.352zm13.844 4.944v-11.68h3.216c1.045 0 1.866.272 2.464.816.597.5333.896 1.2693.896 2.208 0 .5333-.112 1.0027-.336 1.408-.214.3947-.523.704-.928.928-.395.2133-.875.3147-1.44.304v-.224c.608 0 1.13.1227 1.568.368.448.2347.794.5813 1.04 1.04.245.448.368.9813.368 1.6 0 .6613-.139 1.2373-.416 1.728-.278.48-.672.8533-1.184 1.12-.512.256-1.126.384-1.84.384zm1.232-1.152h2.064c.714 0 1.274-.1867 1.68-.56.416-.384.624-.9013.624-1.552 0-.672-.208-1.2107-.624-1.616-.406-.416-.966-.624-1.68-.624h-2.064zm0-5.456h1.984c.65 0 1.162-.176 1.536-.528.373-.352.56-.832.56-1.44s-.187-1.0827-.56-1.424c-.363-.352-.875-.528-1.536-.528h-1.984zm11.593 6.752c-.682 0-1.274-.1333-1.776-.4-.501-.2667-.89-.6507-1.168-1.152-.277-.5013-.416-1.0933-.416-1.776v-2.432c0-.6933.139-1.2853.416-1.776.278-.5013.667-.8853 1.168-1.152.502-.2667 1.094-.4 1.776-.4.683 0 1.275.1333 1.776.4.502.2667.891.6507 1.168 1.152.278.4907.416 1.0773.416 1.76v2.448c0 .6827-.138 1.2747-.416 1.776-.277.5013-.666.8853-1.168 1.152-.501.2667-1.093.4-1.776.4zm0-1.136c.662 0 1.174-.1867 1.536-.56.363-.3733.544-.9173.544-1.632v-2.432c0-.7147-.186-1.2587-.56-1.632-.362-.3733-.869-.56-1.52-.56-.65 0-1.162.1867-1.536.56-.362.3733-.544.9173-.544 1.632v2.432c0 .7147.182 1.2587.544 1.632.374.3733.886.56 1.536.56zm9.594 1.136c-.683 0-1.275-.1333-1.776-.4s-.891-.6507-1.168-1.152-.416-1.0933-.416-1.776v-2.432c0-.6933.139-1.2853.416-1.776.277-.5013.667-.8853 1.168-1.152s1.093-.4 1.776-.4 1.275.1333 1.776.4.891.6507 1.168 1.152c.277.4907.416 1.0773.416 1.76v2.448c0 .6827-.139 1.2747-.416 1.776s-.667.8853-1.168 1.152-1.093.4-1.776.4zm0-1.136c.661 0 1.173-.1867 1.536-.56s.544-.9173.544-1.632v-2.432c0-.7147-.187-1.2587-.56-1.632-.363-.3733-.869-.56-1.52-.56s-1.163.1867-1.536.56c-.363.3733-.544.9173-.544 1.632v2.432c0 .7147.181 1.2587.544 1.632.373.3733.885.56 1.536.56zm10.554.992c-.736 0-1.307-.192-1.712-.576-.406-.3947-.608-.9493-.608-1.664v-5.408h-2.496v-1.152h2.496v-2.48h1.28v2.48h3.536v1.152h-3.536v5.408c0 .7253.346 1.088 1.04 1.088h2.336v1.152zm8.682.16c-.683 0-1.28-.1333-1.792-.4s-.912-.6453-1.2-1.136c-.278-.5013-.416-1.0933-.416-1.776v-2.496c0-.6827.138-1.2693.416-1.76.288-.5013.688-.8853 1.2-1.152s1.109-.4 1.792-.4c1.002 0 1.808.272 2.416.816s.922 1.2853.944 2.224h-1.264c-.022-.608-.219-1.0773-.592-1.408-.363-.3307-.864-.496-1.504-.496-.651 0-1.168.192-1.552.576-.384.3733-.576.9067-.576 1.6v2.496c0 .6827.192 1.216.576 1.6s.901.576 1.552.576c.64 0 1.141-.1653 1.504-.496.373-.3413.57-.8107.592-1.408h1.264c-.022.9387-.336 1.68-.944 2.224s-1.414.816-2.416.816zm8.857 0c-.928 0-1.658-.2347-2.192-.704-.533-.48-.8-1.1253-.8-1.936 0-.8.262-1.4293.784-1.888.523-.4693 1.227-.704 2.112-.704h2.8v-.928c0-.5867-.17-1.04-.512-1.36-.341-.32-.826-.48-1.456-.48-.554 0-1.018.1227-1.392.368-.362.2453-.57.576-.624.992h-1.28c.107-.7573.459-1.36 1.056-1.808.608-.448 1.366-.672 2.272-.672.982 0 1.76.2667 2.336.8.576.5227.864 1.232.864 2.128v6.032h-1.248v-1.712h-.208l.24-.256c0 .6507-.25 1.168-.752 1.552-.501.384-1.168.576-2 .576zm.304-1.024c.704 0 1.28-.176 1.728-.528s.672-.8107.672-1.376v-1.328h-2.784c-.501 0-.901.1387-1.2.416-.298.2773-.448.656-.448 1.136 0 .512.182.9227.544 1.232.363.2987.859.448 1.488.448zm6.282.864v-8.8h1.12v1.088h.24l-.176.352c0-.4907.128-.88.384-1.168.267-.288.629-.432 1.088-.432.48 0 .853.1707 1.12.512.277.3413.421.8213.432 1.44l-.336-.704h.528l-.224.352c0-.4907.133-.88.4-1.168s.629-.432 1.088-.432c.544 0 .965.2027 1.264.608.309.4053.464.944.464 1.616v6.736h-1.184v-6.736c0-.384-.085-.6827-.256-.896-.171-.224-.411-.336-.72-.336s-.555.112-.736.336c-.181.2133-.272.512-.272.896v6.736h-1.056v-6.736c0-.3947-.091-.6987-.272-.912-.171-.2133-.411-.32-.72-.32s-.549.1067-.72.32-.261.5173-.272.912v6.736zm10.042 2.88v-11.68h1.264v1.552h.336l-.384.528c0-.6933.224-1.2373.672-1.632.458-.4053 1.061-.608 1.808-.608.885 0 1.589.2933 2.112.88.533.576.8 1.3653.8 2.368v2.608c0 .672-.123 1.2533-.368 1.744-.246.48-.587.8533-1.024 1.12-.427.2667-.934.4-1.52.4-.736 0-1.334-.2027-1.792-.608-.459-.4053-.688-.9493-.688-1.632l.336.528h-.304l.016 1.792v2.64zm3.296-3.824c.64 0 1.136-.192 1.488-.576.362-.384.544-.928.544-1.632v-2.496c0-.7147-.182-1.2587-.544-1.632-.352-.384-.848-.576-1.488-.576-.619 0-1.115.1973-1.488.592-.363.384-.544.9227-.544 1.616v2.496c0 .6933.181 1.2373.544 1.632.373.384.869.576 1.488.576zm14.339-3.776v-1.136h9.6v1.136zm23.348 4.72v-7.664h-3.2v-1.136h7.68v1.136h-3.2v7.664zm10.234.144c-.683 0-1.275-.1333-1.776-.4-.502-.2667-.891-.6507-1.168-1.152-.278-.5013-.416-1.0933-.416-1.776v-2.432c0-.6933.138-1.2853.416-1.776.277-.5013.666-.8853 1.168-1.152.501-.2667 1.093-.4 1.776-.4.682 0 1.274.1333 1.776.4.501.2667.89.6507 1.168 1.152.277.4907.416 1.0773.416 1.76v2.448c0 .6827-.139 1.2747-.416 1.776-.278.5013-.667.8853-1.168 1.152-.502.2667-1.094.4-1.776.4zm0-1.136c.661 0 1.173-.1867 1.536-.56.362-.3733.544-.9173.544-1.632v-2.432c0-.7147-.187-1.2587-.56-1.632-.363-.3733-.87-.56-1.52-.56-.651 0-1.163.1867-1.536.56-.363.3733-.544.9173-.544 1.632v2.432c0 .7147.181 1.2587.544 1.632.373.3733.885.56 1.536.56zm5.241 1.104v-1.2h.32c.459 0 .795-.1867 1.008-.56.214-.384.326-1.0187.336-1.904l.112-5.248h5.808v8.8h-1.28v-7.648h-3.28l-.096 4.144c-.01.832-.112 1.5147-.304 2.048-.181.5333-.458.928-.832 1.184-.362.256-.837.384-1.424.384zm10.794-.112v-8.8h1.264v3.232h2.64c.981 0 1.755.2507 2.32.752.576.4907.864 1.168.864 2.032 0 .8533-.288 1.5307-.864 2.032-.565.5013-1.339.752-2.32.752zm1.264-1.152h2.64c.608 0 1.072-.1387 1.392-.416.32-.288.48-.6933.48-1.216s-.16-.9227-.48-1.2c-.32-.288-.784-.432-1.392-.432h-2.64zm8.298 1.152v-8.8h1.28v3.696h1.664l2.608-3.696h1.456l-2.96 4.192 3.024 4.608h-1.488l-2.64-4h-1.664v4zm12.778.144c-.683 0-1.275-.1333-1.776-.4-.502-.2667-.891-.6507-1.168-1.152-.278-.5013-.416-1.0933-.416-1.776v-2.432c0-.6933.138-1.2853.416-1.776.277-.5013.666-.8853 1.168-1.152.501-.2667 1.093-.4 1.776-.4.682 0 1.274.1333 1.776.4.501.2667.89.6507 1.168 1.152.277.4907.416 1.0773.416 1.76v2.448c0 .6827-.139 1.2747-.416 1.776-.278.5013-.667.8853-1.168 1.152-.502.2667-1.094.4-1.776.4zm0-1.136c.661 0 1.173-.1867 1.536-.56.362-.3733.544-.9173.544-1.632v-2.432c0-.7147-.187-1.2587-.56-1.632-.363-.3733-.87-.56-1.52-.56-.651 0-1.163.1867-1.536.56-.363.3733-.544.9173-.544 1.632v2.432c0 .7147.181 1.2587.544 1.632.373.3733.885.56 1.536.56zm-249.854 22.12c-.9173 0-1.6587-.197-2.224-.592s-.9067-.928-1.024-1.6h1.328c.0853.309.2933.565.624.768.3413.192.7733.288 1.296.288h.784c.544 0 .9707-.133 1.28-.4.32-.277.48-.624.48-1.04 0-.448-.1493-.811-.448-1.088s-.7253-.416-1.28-.416h-1.968v-1.104h1.936c.5013 0 .8853-.128 1.152-.384.2773-.256.416-.587.416-.992 0-.277-.064-.517-.192-.72s-.3147-.357-.56-.464c-.2453-.117-.528-.176-.848-.176h-.832c-.48 0-.8747.107-1.184.32-.3093.203-.5013.464-.576.784h-1.328c.1067-.661.432-1.2.976-1.616.5547-.416 1.2587-.624 2.112-.624h.832c.5973 0 1.1147.101 1.552.304s.7733.485 1.008.848c.2453.363.368.789.368 1.28 0 .533-.1653.976-.496 1.328-.32.341-.7733.533-1.36.576v.064c.704.043 1.2213.251 1.552.624.3307.363.496.864.496 1.504 0 .757-.2827 1.371-.848 1.84-.5547.459-1.3013.688-2.24.688zm9.3217.032c-.9279 0-1.6586-.235-2.1919-.704-.5334-.48-.8-1.125-.8-1.936 0-.8.2613-1.429.784-1.888.5226-.469 1.2266-.704 2.112-.704h2.8v-.928c0-.587-.1707-1.04-.512-1.36-.3414-.32-.8267-.48-1.456-.48-.5547 0-1.0187.123-1.392.368-.3627.245-.5707.576-.624.992h-1.28c.1066-.757.4586-1.36 1.056-1.808.608-.448 1.3653-.672 2.272-.672.9813 0 1.76.267 2.336.8.576.523.8639 1.232.8639 2.128v6.032h-1.2479v-1.712h-.208l.24-.256c0 .651-.2507 1.168-.752 1.552-.5014.384-1.168.576-2.0001.576zm.3041-1.024c.704 0 1.28-.176 1.728-.528s.672-.811.672-1.376v-1.328h-2.784c-.5014 0-.9014.139-1.2.416-.2987.277-.448.656-.448 1.136 0 .512.1813.923.544 1.232.3626.299.8586.448 1.488.448zm6.7457.864v-8.8h1.28v3.744h3.904v-3.744h1.28v8.8h-1.28v-3.904h-3.904v3.904zm9.0978 0 2.24-3.408c-.6827-.149-1.2107-.453-1.584-.912-.3734-.459-.56-1.035-.56-1.728 0-.853.2826-1.525.848-2.016.576-.491 1.3546-.736 2.336-.736h3.68v8.8h-1.28v-3.296h-2.128l-2.08 3.296zm3.28-4.432h2.4v-3.232h-2.4c-.576 0-1.0347.144-1.376.432-.3414.288-.512.683-.512 1.184s.1706.896.512 1.184c.3413.288.8.432 1.376.432zm9.4017 4.432v-7.664h-3.2v-1.136h7.68v1.136h-3.2v7.664zm7.0018 0v-8.8h1.232v5.008c0 .299-.0107.619-.032.96-.0107.331-.0267.645-.048.944-.0214.299-.0427.549-.064.752l3.728-7.664h1.648v8.8h-1.232v-5.008c0-.309.0053-.629.016-.96.0213-.331.0426-.645.064-.944.032-.309.0533-.565.064-.768l-3.744 7.68zm9.0977 0 2.24-3.408c-.6827-.149-1.2107-.453-1.584-.912s-.56-1.035-.56-1.728c0-.853.2827-1.525.848-2.016.576-.491 1.3547-.736 2.336-.736h3.68v8.8h-1.28v-3.296h-2.128l-2.08 3.296zm3.28-4.432h2.4v-3.232h-2.4c-.576 0-1.0347.144-1.376.432s-.512.683-.512 1.184.1707.896.512 1.184.8.432 1.376.432zm16.4035 4.432v-8.8h3.776c.875 0 1.563.208 2.064.624.501.405.752.971.752 1.696 0 .608-.208 1.099-.624 1.472-.405.363-.949.544-1.632.544v-.112c.736 0 1.328.192 1.776.576.448.373.672.875.672 1.504 0 .779-.267 1.392-.8 1.84-.523.437-1.248.656-2.176.656zm1.248-1.12h2.56c.523 0 .939-.123 1.248-.368.309-.256.464-.597.464-1.024 0-.448-.155-.795-.464-1.04-.309-.256-.725-.384-1.248-.384h-2.56zm0-3.92h2.528c.469 0 .843-.117 1.12-.352.288-.235.432-.555.432-.96s-.144-.725-.432-.96c-.277-.245-.651-.368-1.12-.368h-2.528zm7.146 5.04 1.92-4.512-1.792-4.288h1.232l1.584 3.888h.944v-3.888h1.088v3.888h.912l1.632-3.888h1.216l-1.792 4.24 1.92 4.56h-1.28l-1.648-4.048h-.96v4.048h-1.088v-4.048h-.96l-1.68 4.048zm10.794 0v-8.8h1.232v5.008c0 .299-.011.619-.032.96-.011.331-.027.645-.048.944-.022.299-.043.549-.064.752l3.728-7.664h1.648v8.8h-1.232v-5.008c0-.309.005-.629.016-.96.021-.331.042-.645.064-.944.032-.309.053-.565.064-.768l-3.744 7.68zm9.593 0v-8.8h3.776c.875 0 1.563.208 2.064.624.502.405.752.971.752 1.696 0 .608-.208 1.099-.624 1.472-.405.363-.949.544-1.632.544v-.112c.736 0 1.328.192 1.776.576.448.373.672.875.672 1.504 0 .779-.266 1.392-.8 1.84-.522.437-1.248.656-2.176.656zm1.248-1.12h2.56c.523 0 .939-.123 1.248-.368.31-.256.464-.597.464-1.024 0-.448-.154-.795-.464-1.04-.309-.256-.725-.384-1.248-.384h-2.56zm0-3.92h2.528c.47 0 .843-.117 1.12-.352.288-.235.432-.555.432-.96s-.144-.725-.432-.96c-.277-.245-.65-.368-1.12-.368h-2.528zm9.722 7.92 1.296-3.44-3.264-8.24h1.408l2.08 5.488c.085.213.165.453.24.72.085.256.149.469.192.64.053-.171.117-.389.192-.656s.149-.507.224-.72l1.952-5.472h1.36l-4.336 11.68zm12.826-2.72c-.736 0-1.328-.245-1.776-.736-.438-.501-.656-1.163-.656-1.984v-1.392h-1.52v3.952h-1.168v-8.8h1.168v3.824h1.52v-1.264c0-.832.218-1.493.656-1.984.437-.491 1.029-.736 1.776-.736.778 0 1.402.245 1.872.736.469.491.704 1.152.704 1.984v3.68c0 .821-.235 1.483-.704 1.984-.47.491-1.094.736-1.872.736zm0-1.008c.437 0 .778-.149 1.024-.448.245-.309.368-.731.368-1.264v-3.68c0-.533-.123-.949-.368-1.248-.246-.309-.587-.464-1.024-.464-.427 0-.763.155-1.008.464-.246.299-.368.715-.368 1.248v3.68c0 .533.122.955.368 1.264.245.299.581.448 1.008.448zm17.827 1.008c-.682 0-1.28-.133-1.792-.4s-.912-.645-1.2-1.136c-.277-.501-.416-1.093-.416-1.776v-2.496c0-.683.139-1.269.416-1.76.288-.501.688-.885 1.2-1.152s1.11-.4 1.792-.4c1.003 0 1.808.272 2.416.816s.923 1.285.944 2.224h-1.264c-.021-.608-.218-1.077-.592-1.408-.362-.331-.864-.496-1.504-.496-.65 0-1.168.192-1.552.576-.384.373-.576.907-.576 1.6v2.496c0 .683.192 1.216.576 1.6s.902.576 1.552.576c.64 0 1.142-.165 1.504-.496.374-.341.571-.811.592-1.408h1.264c-.021.939-.336 1.68-.944 2.224s-1.413.816-2.416.816zm15.94-.16v-8.8h1.28v3.744h3.904v-3.744h1.28v8.8h-1.28v-3.904h-3.904v3.904zm12.137.16c-.927 0-1.658-.235-2.191-.704-.534-.48-.8-1.125-.8-1.936 0-.8.261-1.429.784-1.888.522-.469 1.226-.704 2.112-.704h2.8v-.928c0-.587-.171-1.04-.512-1.36-.342-.32-.827-.48-1.456-.48-.555 0-1.019.123-1.392.368-.363.245-.571.576-.624.992h-1.28c.106-.757.458-1.36 1.056-1.808.608-.448 1.365-.672 2.272-.672.981 0 1.76.267 2.336.8.576.523.863 1.232.863 2.128v6.032h-1.247v-1.712h-.208l.24-.256c0 .651-.251 1.168-.752 1.552-.502.384-1.168.576-2.001.576zm.305-1.024c.704 0 1.28-.176 1.728-.528s.672-.811.672-1.376v-1.328h-2.784c-.502 0-.902.139-1.2.416-.299.277-.448.656-.448 1.136 0 .512.181.923.544 1.232.362.299.858.448 1.488.448zm9.993 1.024c-.682 0-1.28-.133-1.792-.4s-.912-.645-1.2-1.136c-.277-.501-.416-1.093-.416-1.776v-2.496c0-.683.139-1.269.416-1.76.288-.501.688-.885 1.2-1.152s1.11-.4 1.792-.4c1.003 0 1.808.272 2.416.816s.923 1.285.944 2.224h-1.264c-.021-.608-.218-1.077-.592-1.408-.362-.331-.864-.496-1.504-.496-.65 0-1.168.192-1.552.576-.384.373-.576.907-.576 1.6v2.496c0 .683.192 1.216.576 1.6s.902.576 1.552.576c.64 0 1.142-.165 1.504-.496.374-.341.571-.811.592-1.408h1.264c-.021.939-.336 1.68-.944 2.224s-1.413.816-2.416.816zm8.938-.16v-7.664h-3.2v-1.136h7.68v1.136h-3.2v7.664zm9.546.16c-.928 0-1.659-.235-2.192-.704-.534-.48-.8-1.125-.8-1.936 0-.8.261-1.429.784-1.888.522-.469 1.226-.704 2.112-.704h2.8v-.928c0-.587-.171-1.04-.512-1.36-.342-.32-.827-.48-1.456-.48-.555 0-1.019.123-1.392.368-.363.245-.571.576-.624.992h-1.28c.106-.757.458-1.36 1.056-1.808.608-.448 1.365-.672 2.272-.672.981 0 1.76.267 2.336.8.576.523.864 1.232.864 2.128v6.032h-1.248v-1.712h-.208l.24-.256c0 .651-.251 1.168-.752 1.552-.502.384-1.168.576-2 .576zm.304-1.024c.704 0 1.28-.176 1.728-.528s.672-.811.672-1.376v-1.328h-2.784c-.502 0-.902.139-1.2.416-.299.277-.448.656-.448 1.136 0 .512.181.923.544 1.232.362.299.858.448 1.488.448zm6.746.864v-8.8h3.776c.874 0 1.562.208 2.064.624.501.405.752.971.752 1.696 0 .608-.208 1.099-.624 1.472-.406.363-.95.544-1.632.544v-.112c.736 0 1.328.192 1.776.576.448.373.672.875.672 1.504 0 .779-.267 1.392-.8 1.84-.523.437-1.248.656-2.176.656zm1.248-1.12h2.56c.522 0 .938-.123 1.248-.368.309-.256.464-.597.464-1.024 0-.448-.155-.795-.464-1.04-.31-.256-.726-.384-1.248-.384h-2.56zm0-3.92h2.528c.469 0 .842-.117 1.12-.352.288-.235.432-.555.432-.96s-.144-.725-.432-.96c-.278-.245-.651-.368-1.12-.368h-2.528zm8.345 5.04v-8.8h1.28v3.744h3.904v-3.744h1.28v8.8h-1.28v-3.904h-3.904v3.904zm9.594 0v-8.8h1.232v5.008c0 .299-.011.619-.032.96-.011.331-.027.645-.048.944s-.043.549-.064.752l3.728-7.664h1.648v8.8h-1.232v-5.008c0-.309.005-.629.016-.96.021-.331.043-.645.064-.944.032-.309.053-.565.064-.768l-3.744 7.68zm9.642 0v-8.8h1.28v3.696h1.664l2.608-3.696h1.456l-2.96 4.192 3.024 4.608h-1.488l-2.64-4h-1.664v4zm12.089.16c-.927 0-1.658-.235-2.191-.704-.534-.48-.8-1.125-.8-1.936 0-.8.261-1.429.784-1.888.522-.469 1.226-.704 2.112-.704h2.8v-.928c0-.587-.171-1.04-.512-1.36-.342-.32-.827-.48-1.456-.48-.555 0-1.019.123-1.392.368-.363.245-.571.576-.624.992h-1.28c.106-.757.458-1.36 1.056-1.808.608-.448 1.365-.672 2.272-.672.981 0 1.76.267 2.336.8.576.523.863 1.232.863 2.128v6.032h-1.247v-1.712h-.208l.24-.256c0 .651-.251 1.168-.752 1.552-.502.384-1.168.576-2.001.576zm.305-1.024c.704 0 1.28-.176 1.728-.528s.672-.811.672-1.376v-1.328h-2.784c-.502 0-.902.139-1.2.416-.299.277-.448.656-.448 1.136 0 .512.181.923.544 1.232.362.299.858.448 1.488.448zm6.457.864v-8.8h1.76l1.28 3.584c.107.309.208.624.304.944s.166.571.208.752c.054-.181.123-.432.208-.752.096-.32.198-.64.304-.96l1.232-3.568h1.744v8.8h-1.232v-2.112c0-.459.006-.949.016-1.472.011-.523.022-1.045.032-1.568.011-.523.027-1.013.048-1.472.022-.469.038-.88.048-1.232l-1.744 5.216h-1.344l-1.744-5.184c.022.427.038.965.048 1.616.011.64.022 1.317.032 2.032.022.715.032 1.403.032 2.064v2.112zm9.882 0v-8.8h1.232v5.008c0 .299-.011.619-.032.96-.011.331-.027.645-.048.944s-.043.549-.064.752l3.728-7.664h1.648v8.8h-1.232v-5.008c0-.309.005-.629.016-.96.021-.331.043-.645.064-.944.032-.309.053-.565.064-.768l-3.744 7.68zm10.778 2.56 1.248-4.976h1.92l-2.064 4.976zm-276.811 18.44v-7.664h-3.2v-1.136h7.68v1.136h-3.2v7.664zm10.2338.144c-.6827 0-1.2747-.133-1.776-.4-.5014-.267-.8907-.651-1.168-1.152-.2774-.501-.416-1.093-.416-1.776v-2.432c0-.693.1386-1.285.416-1.776.2773-.501.6666-.885 1.168-1.152.5013-.267 1.0933-.4 1.776-.4.6826 0 1.2746.133 1.776.4.5013.267.8906.651 1.168 1.152.2773.491.416 1.077.416 1.76v2.448c0 .683-.1387 1.275-.416 1.776-.2774.501-.6667.885-1.168 1.152-.5014.267-1.0934.4-1.776.4zm0-1.136c.6613 0 1.1733-.187 1.536-.56.3626-.373.544-.917.544-1.632v-2.432c0-.715-.1867-1.259-.56-1.632-.3627-.373-.8694-.56-1.52-.56-.6507 0-1.1627.187-1.536.56-.3627.373-.544.917-.544 1.632v2.432c0 .715.1813 1.259.544 1.632.3733.373.8853.56 1.536.56zm5.2417 1.104v-1.2h.32c.4587 0 .7947-.187 1.008-.56.2133-.384.3253-1.019.336-1.904l.112-5.248h5.808v8.8h-1.28v-7.648h-3.28l-.096 4.144c-.0107.832-.112 1.515-.304 2.048-.1813.533-.4587.928-.832 1.184-.3627.256-.8373.384-1.424.384zm10.7938-.112v-8.8h1.264v3.232h2.64c.9813 0 1.7546.251 2.32.752.576.491.864 1.168.864 2.032 0 .853-.288 1.531-.864 2.032-.5654.501-1.3387.752-2.32.752zm1.264-1.152h2.64c.608 0 1.072-.139 1.392-.416.32-.288.48-.693.48-1.216s-.16-.923-.48-1.2c-.32-.288-.784-.432-1.392-.432h-2.64zm8.2977 1.152v-8.8h1.28v3.696h1.664l2.608-3.696h1.456l-2.96 4.192 3.024 4.608h-1.488l-2.64-4h-1.664v4zm12.7778.144c-.6827 0-1.2747-.133-1.776-.4-.5014-.267-.8907-.651-1.168-1.152-.2774-.501-.416-1.093-.416-1.776v-2.432c0-.693.1386-1.285.416-1.776.2773-.501.6666-.885 1.168-1.152.5013-.267 1.0933-.4 1.776-.4.6826 0 1.2746.133 1.776.4.5013.267.8906.651 1.168 1.152.2773.491.416 1.077.416 1.76v2.448c0 .683-.1387 1.275-.416 1.776-.2774.501-.6667.885-1.168 1.152-.5014.267-1.0934.4-1.776.4zm0-1.136c.6613 0 1.1733-.187 1.536-.56.3626-.373.544-.917.544-1.632v-2.432c0-.715-.1867-1.259-.56-1.632-.3627-.373-.8694-.56-1.52-.56-.6507 0-1.1627.187-1.536.56-.3627.373-.544.917-.544 1.632v2.432c0 .715.1813 1.259.544 1.632.3733.373.8853.56 1.536.56zm15.2995.992 3.12-4.528-2.928-4.272h1.488l1.856 2.848c.064.107.128.229.192.368.0746.128.1333.229.176.304.0426-.075.096-.176.16-.304.0746-.139.144-.261.208-.368l1.856-2.848h1.472l-2.928 4.288 3.104 4.512h-1.488l-1.984-3.008c-.0747-.107-.1494-.235-.224-.384-.064-.149-.1227-.267-.176-.352-.0427.085-.1067.203-.192.352-.0854.149-.1654.277-.24.384l-2 3.008zm12.7937.16c-.928 0-1.6587-.235-2.192-.704-.5333-.48-.8-1.125-.8-1.936 0-.8.2613-1.429.784-1.888.5227-.469 1.2267-.704 2.112-.704h2.8v-.928c0-.587-.171-1.04-.512-1.36s-.827-.48-1.456-.48c-.555 0-1.019.123-1.392.368-.3627.245-.5707.576-.624.992h-1.28c.1067-.757.4587-1.36 1.056-1.808.608-.448 1.365-.672 2.272-.672.981 0 1.76.267 2.336.8.576.523.864 1.232.864 2.128v6.032h-1.248v-1.712h-.208l.24-.256c0 .651-.251 1.168-.752 1.552s-1.168.576-2 .576zm.304-1.024c.704 0 1.28-.176 1.728-.528s.672-.811.672-1.376v-1.328h-2.784c-.501 0-.9013.139-1.2.416s-.448.656-.448 1.136c0 .512.1813.923.544 1.232.363.299.859.448 1.488.448zm6.73 3.744v-11.68h1.264v1.552h.336l-.384.528c0-.693.224-1.237.672-1.632.458-.405 1.061-.608 1.808-.608.885 0 1.589.293 2.112.88.533.576.8 1.365.8 2.368v2.608c0 .672-.123 1.253-.368 1.744-.246.48-.587.853-1.024 1.12-.427.267-.934.4-1.52.4-.736 0-1.334-.203-1.792-.608-.459-.405-.688-.949-.688-1.632l.336.528h-.304l.016 1.792v2.64zm3.296-3.824c.64 0 1.136-.192 1.488-.576.362-.384.544-.928.544-1.632v-2.496c0-.715-.182-1.259-.544-1.632-.352-.384-.848-.576-1.488-.576-.619 0-1.115.197-1.488.592-.363.384-.544.923-.544 1.616v2.496c0 .693.181 1.237.544 1.632.373.384.869.576 1.488.576zm5.29 3.184v-3.328h.72c.181-.203.368-.565.56-1.088.202-.533.309-1.179.32-1.936l.096-4.688h5.6v7.712h1.136v3.328h-1.136v-2.24h-6.16v2.24zm2.08-3.328h3.952v-6.576h-3.136l-.064 3.568c-.011.8-.102 1.456-.272 1.968-.171.512-.331.859-.48 1.04zm8.585 1.088v-8.8h1.28v3.696h1.664l2.608-3.696h1.456l-2.96 4.192 3.024 4.608h-1.488l-2.64-4h-1.664v4zm12.778.144c-.683 0-1.275-.133-1.776-.4s-.891-.651-1.168-1.152-.416-1.093-.416-1.776v-2.432c0-.693.139-1.285.416-1.776.277-.501.667-.885 1.168-1.152s1.093-.4 1.776-.4 1.275.133 1.776.4.891.651 1.168 1.152c.277.491.416 1.077.416 1.76v2.448c0 .683-.139 1.275-.416 1.776s-.667.885-1.168 1.152-1.093.4-1.776.4zm0-1.136c.661 0 1.173-.187 1.536-.56s.544-.917.544-1.632v-2.432c0-.715-.187-1.259-.56-1.632-.363-.373-.869-.56-1.52-.56s-1.163.187-1.536.56c-.363.373-.544.917-.544 1.632v2.432c0 .715.181 1.259.544 1.632.373.373.885.56 1.536.56zm6.346 3.872v-11.68h1.264v1.552h.336l-.384.528c0-.693.224-1.237.672-1.632.458-.405 1.061-.608 1.808-.608.885 0 1.589.293 2.112.88.533.576.8 1.365.8 2.368v2.608c0 .672-.123 1.253-.368 1.744-.246.48-.587.853-1.024 1.12-.427.267-.934.4-1.52.4-.736 0-1.334-.203-1.792-.608-.459-.405-.688-.949-.688-1.632l.336.528h-.304l.016 1.792v2.64zm3.296-3.824c.64 0 1.136-.192 1.488-.576.362-.384.544-.928.544-1.632v-2.496c0-.715-.182-1.259-.544-1.632-.352-.384-.848-.576-1.488-.576-.619 0-1.115.197-1.488.592-.363.384-.544.923-.544 1.616v2.496c0 .693.181 1.237.544 1.632.373.384.869.576 1.488.576zm9.546 1.104c-.395 0-.71-.112-.944-.336-.224-.235-.336-.544-.336-.928 0-.405.112-.725.336-.96.234-.235.549-.352.944-.352.394 0 .704.117.928.352.234.235.352.555.352.96 0 .384-.118.693-.352.928-.224.224-.534.336-.928.336z"/></g></svg>