<svg fill="none" height="90" viewBox="0 0 728 90" width="728" xmlns="http://www.w3.org/2000/svg" xmlns:xlink="http://www.w3.org/1999/xlink"><filter id="a" color-interpolation-filters="sRGB" filterUnits="userSpaceOnUse" height="258" width="258" x="381" y="-49"><feFlood flood-opacity="0" result="BackgroundImageFix"/><feBlend in="SourceGraphic" in2="BackgroundImageFix" mode="normal" result="shape"/><feGaussianBlur result="effect1_foregroundBlur_57_13" stdDeviation="50"/></filter><filter id="b" color-interpolation-filters="sRGB" filterUnits="userSpaceOnUse" height="270" width="270" x="-90" y="-131"><feFlood flood-opacity="0" result="BackgroundImageFix"/><feBlend in="SourceGraphic" in2="BackgroundImageFix" mode="normal" result="shape"/><feGaussianBlur result="effect1_foregroundBlur_57_13" stdDeviation="50"/></filter><clipPath id="c"><path d="m0 0h728v90h-728z"/></clipPath><g clip-path="url(#c)"><path d="m0 0h728v90h-728z" fill="#39483d"/><g filter="url(#a)"><circle cx="510" cy="80" fill="#59f881" r="29"/></g><g filter="url(#b)"><circle cx="45" cy="4" fill="#59f881" r="35"/></g><path d="m121.65 39v-18.25h3.75v7h4.2v-7h3.75v18.25h-3.75v-7.75h-4.2v7.75zm19.065.25c-1.383 0-2.483-.375-3.3-1.125-.8-.75-1.2-1.7667-1.2-3.05 0-1.3833.475-2.4417 1.425-3.175.967-.75 2.35-1.125 4.15-1.125h2.85v-1.025c0-.5333-.191-.9583-.575-1.275-.366-.3167-.866-.475-1.5-.475-.583 0-1.066.1333-1.45.4-.383.2667-.616.6333-.7 1.1h-3.625c.15-1.3833.75-2.475 1.8-3.275 1.067-.8167 2.434-1.225 4.1-1.225 1.75 0 3.134.4333 4.15 1.3 1.034.85 1.55 2 1.55 3.45v9.25h-3.625v-2.25h-.6l.625-.875c0 1.0333-.375 1.8583-1.125 2.475-.733.6-1.716.9-2.95.9zm1.4-2.75c.734 0 1.334-.1917 1.8-.575.484-.4.725-.9167.725-1.55v-1.475h-2.775c-.566 0-1.025.1667-1.375.5-.35.3167-.525.7417-.525 1.275 0 .5667.192 1.0167.575 1.35.384.3167.909.475 1.575.475zm17.365 2.5v-4.375c-.2.05-.516.1083-.95.175-.416.05-.891.075-1.425.075-1.816 0-3.25-.45-4.3-1.35-1.05-.9167-1.575-2.175-1.575-3.775v-4.5h3.75v4.25c0 .6167.225 1.1083.675 1.475.45.35 1.059.525 1.825.525.467 0 .875-.025 1.225-.075.367-.0667.625-.125.775-.175v-6h3.75v13.75zm7.141 0v-13.75h3.75v5.025h4.2v-5.025h3.75v13.75h-3.75v-5.225h-4.2v5.225zm14.99 0v-13.75h3.3v6.25c0 .4167-.025.9417-.075 1.575-.05.6167-.117 1.2417-.2 1.875-.067.6333-.142 1.1917-.225 1.675l4.35-11.375h4.55v13.75h-3.3v-6.25c0-.4333.025-.925.075-1.475.05-.5667.108-1.1333.175-1.7s.133-1.05.2-1.45l-4.3 10.875zm35.83.25c-1.216 0-2.275-.225-3.175-.675-.9-.4667-1.6-1.1083-2.1-1.925-.483-.8333-.725-1.8-.725-2.9v-3.25c0-1.1.242-2.0583.725-2.875.5-.8333 1.2-1.475 2.1-1.925.9-.4667 1.959-.7 3.175-.7 1.234 0 2.292.2333 3.175.7.9.45 1.592 1.0917 2.075 1.925.5.8167.75 1.775.75 2.875v3.25c0 1.1-.25 2.0667-.75 2.9-.483.8167-1.175 1.4583-2.075 1.925-.883.45-1.941.675-3.175.675zm0-3.25c.734 0 1.292-.1917 1.675-.575.384-.4.575-.9583.575-1.675v-3.25c0-.7333-.191-1.2917-.575-1.675-.383-.3833-.941-.575-1.675-.575-.716 0-1.275.1917-1.675.575-.383.3833-.575.9417-.575 1.675v3.25c0 .7167.192 1.275.575 1.675.4.3833.959.575 1.675.575zm14.991 3.25c-1.834-.0333-3.292-.5333-4.375-1.5-1.084-.9833-1.625-2.3167-1.625-4v-6.125c0-2.2.616-3.8917 1.85-5.075 1.233-1.2 2.991-1.8 5.275-1.8h4.125v3.625h-4.125c-1.1 0-1.942.275-2.525.825-.567.55-.85 1.3583-.85 2.425v1.75h.35l-.3.35c-.017-.9333.283-1.675.9-2.225.633-.5667 1.533-.85 2.7-.85 1.45 0 2.575.475 3.375 1.425.816.95 1.225 2.2667 1.225 3.95v1.725c0 1.1167-.25 2.1-.75 2.95-.484.8333-1.175 1.475-2.075 1.925-.884.4333-1.942.6417-3.175.625zm0-3.25c.733 0 1.291-.1917 1.675-.575.383-.4.575-.9583.575-1.675v-1.725c0-.7333-.192-1.2917-.575-1.675-.384-.3833-.942-.575-1.675-.575-.717 0-1.275.1917-1.675.575-.384.3833-.575.9417-.575 1.675v1.725c0 .7167.191 1.275.575 1.675.4.3833.958.575 1.675.575zm11.415 7.5 1.875-5.175-5.15-13.075h4.075l2.075 6c.15.45.3 1 .45 1.65.167.6333.292 1.15.375 1.55.083-.4.2-.9167.35-1.55.167-.65.325-1.2.475-1.65l2-6h3.9l-6.5 18.25zm20.565-4.5v-4.375c-.2.05-.517.1083-.95.175-.417.05-.892.075-1.425.075-1.817 0-3.25-.45-4.3-1.35-1.05-.9167-1.575-2.175-1.575-3.775v-4.5h3.75v4.25c0 .6167.225 1.1083.675 1.475.45.35 1.058.525 1.825.525.467 0 .875-.025 1.225-.075.367-.0667.625-.125.775-.175v-6h3.75v13.75zm13.015.25c-1.216 0-2.283-.225-3.2-.675-.9-.4667-1.6-1.1083-2.1-1.925-.483-.8333-.725-1.8-.725-2.9v-3.25c0-1.1.242-2.0583.725-2.875.5-.8333 1.2-1.475 2.1-1.925.917-.4667 1.984-.7 3.2-.7 1.217 0 2.267.2333 3.15.7.9.45 1.592 1.0917 2.075 1.925.5.8167.75 1.775.75 2.875v2.5h-8.425v.75c0 .8667.209 1.525.625 1.975.417.4333 1.042.65 1.875.65.584 0 1.05-.1 1.4-.3.367-.2.609-.475.725-.825h3.675c-.3 1.2-.983 2.1667-2.05 2.9-1.05.7333-2.316 1.1-3.8 1.1zm2.4-8.175v-.625c0-.85-.2-1.5-.6-1.95-.383-.45-.983-.675-1.8-.675-.816 0-1.433.2333-1.85.7-.4.4667-.6 1.125-.6 1.975v.375l5.1-.05zm6.716 7.925v-13.75h3.75v5.025h4.2v-5.025h3.75v13.75h-3.75v-5.225h-4.2v5.225zm14.99 0v-13.75h3.3v6.25c0 .4167-.025.9417-.075 1.575-.05.6167-.117 1.2417-.2 1.875-.067.6333-.142 1.1917-.225 1.675l4.35-11.375h4.55v13.75h-3.3v-6.25c0-.4333.025-.925.075-1.475.05-.5667.108-1.1333.175-1.7.066-.5667.133-1.05.2-1.45l-4.3 10.875zm20.865.25c-1.217 0-2.283-.225-3.2-.675-.9-.4667-1.6-1.1083-2.1-1.925-.483-.8333-.725-1.8-.725-2.9v-3.25c0-1.1.242-2.0583.725-2.875.5-.8333 1.2-1.475 2.1-1.925.917-.4667 1.983-.7 3.2-.7s2.267.2333 3.15.7c.9.45 1.592 1.0917 2.075 1.925.5.8167.75 1.775.75 2.875v2.5h-8.425v.75c0 .8667.208 1.525.625 1.975.417.4333 1.042.65 1.875.65.583 0 1.05-.1 1.4-.3.367-.2.608-.475.725-.825h3.675c-.3 1.2-.983 2.1667-2.05 2.9-1.05.7333-2.317 1.1-3.8 1.1zm2.4-8.175v-.625c0-.85-.2-1.5-.6-1.95-.383-.45-.983-.675-1.8-.675s-1.433.2333-1.85.7c-.4.4667-.6 1.125-.6 1.975v.375l5.1-.05zm21.681 7.925v-13.75h6.225c1.683 0 3.016.3417 4 1.025 1 .6667 1.5 1.575 1.5 2.725 0 .9167-.375 1.6583-1.125 2.225-.75.55-1.742.825-2.975.825v-.25c1.35 0 2.425.3 3.225.9.816.6 1.225 1.3917 1.225 2.375 0 1.2167-.5 2.175-1.5 2.875-.984.7-2.325 1.05-4.025 1.05zm3.675-2.65h2.7c.616 0 1.108-.1417 1.475-.425.383-.3.575-.6833.575-1.15 0-.5-.192-.9-.575-1.2-.367-.3-.859-.45-1.475-.45h-2.7zm0-5.425h2.575c.566 0 1.016-.1333 1.35-.4.333-.2833.5-.65.5-1.1 0-.4667-.167-.8417-.5-1.125-.334-.2833-.784-.425-1.35-.425h-2.575zm32.18 8.325c-1.283 0-2.4-.2167-3.35-.65s-1.683-1.0417-2.2-1.825-.775-1.7083-.775-2.775h3.75c0 .6167.233 1.1083.7 1.475.483.35 1.133.525 1.95.525.783 0 1.392-.175 1.825-.525.45-.35.675-.8333.675-1.45 0-.5333-.167-.9917-.5-1.375s-.8-.6417-1.4-.775l-1.85-.425c-1.55-.3667-2.758-1.0417-3.625-2.025-.85-1-1.275-2.2167-1.275-3.65 0-1.0667.242-1.9917.725-2.775.5-.8 1.2-1.4167 2.1-1.85s1.967-.65 3.2-.65c1.867 0 3.342.4667 4.425 1.4 1.1.9167 1.65 2.1583 1.65 3.725h-3.75c0-.5833-.208-1.0417-.625-1.375-.4-.3333-.983-.5-1.75-.5-.717 0-1.267.1667-1.65.5-.383.3167-.575.775-.575 1.375 0 .5333.15.9917.45 1.375.317.3667.758.6167 1.325.75l1.95.45c1.617.3667 2.842 1.0333 3.675 2 .833.95 1.25 2.1667 1.25 3.65 0 1.0667-.267 2.0083-.8 2.825-.517.8167-1.25 1.45-2.2 1.9-.933.45-2.042.675-3.325.675zm13.215 0c-1.383 0-2.483-.375-3.3-1.125-.8-.75-1.2-1.7667-1.2-3.05 0-1.3833.475-2.4417 1.425-3.175.967-.75 2.35-1.125 4.15-1.125h2.85v-1.025c0-.5333-.191-.9583-.575-1.275-.366-.3167-.866-.475-1.5-.475-.583 0-1.066.1333-1.45.4-.383.2667-.616.6333-.7 1.1h-3.625c.15-1.3833.75-2.475 1.8-3.275 1.067-.8167 2.434-1.225 4.1-1.225 1.75 0 3.134.4333 4.15 1.3 1.034.85 1.55 2 1.55 3.45v9.25h-3.625v-2.25h-.6l.625-.875c0 1.0333-.375 1.8583-1.125 2.475-.733.6-1.716.9-2.95.9zm1.4-2.75c.734 0 1.334-.1917 1.8-.575.484-.4.725-.9167.725-1.55v-1.475h-2.775c-.566 0-1.025.1667-1.375.5-.35.3167-.525.7417-.525 1.275 0 .5667.192 1.0167.575 1.35.384.3167.909.475 1.575.475zm9.615 2.5v-3.4h4.75v-6.975h-4.125v-3.375h7.625v10.35h4v3.4zm6.25-15.925c-.683 0-1.233-.175-1.65-.525-.4-.35-.6-.825-.6-1.425s.2-1.075.6-1.425c.417-.35.967-.525 1.65-.525.684 0 1.225.175 1.625.525.417.35.625.825.625 1.425s-.208 1.075-.625 1.425c-.4.35-.941.525-1.625.525zm8.641 15.925v-13.75h3.625v2.625h1.1l-1.1.875c0-1.1667.333-2.0833 1-2.75.666-.6667 1.566-1 2.7-1 1.333 0 2.4.4667 3.2 1.4.816.9333 1.225 2.175 1.225 3.725v8.875h-3.75v-8.5c0-.7167-.192-1.2667-.575-1.65-.367-.4-.892-.6-1.575-.6-.667 0-1.184.2-1.55.6-.367.3833-.55.9333-.55 1.65v8.5zm22.34 0c-1.4 0-2.5-.4-3.3-1.2s-1.2-1.9-1.2-3.3v-5.875h-3.625v-3.375h3.625v-3.875h3.75v3.875h5.125v3.375h-5.125v5.875c0 .75.375 1.125 1.125 1.125h3.75v3.375zm13.565.25c-1.217 0-2.283-.225-3.2-.675-.917-.4667-1.625-1.1083-2.125-1.925-.5-.8333-.75-1.8-.75-2.9v-3.25c0-1.1167.25-2.0833.75-2.9s1.208-1.45 2.125-1.9c.917-.4667 1.983-.7 3.2-.7 1.817 0 3.267.4583 4.35 1.375s1.658 2.1667 1.725 3.75h-3.75c-.05-.5833-.283-1.0417-.7-1.375-.4-.3333-.942-.5-1.625-.5-.75 0-1.325.1917-1.725.575s-.6.9417-.6 1.675v3.25c0 .7167.2 1.275.6 1.675.4.3833.975.575 1.725.575.683 0 1.225-.1583 1.625-.475.417-.3333.65-.8.7-1.4h3.75c-.067 1.5833-.642 2.8333-1.725 3.75s-2.533 1.375-4.35 1.375zm14.915 0c-1.216 0-2.275-.225-3.175-.675-.9-.4667-1.6-1.1083-2.1-1.925-.483-.8333-.725-1.8-.725-2.9v-3.25c0-1.1.242-2.0583.725-2.875.5-.8333 1.2-1.475 2.1-1.925.9-.4667 1.959-.7 3.175-.7 1.234 0 2.292.2333 3.175.7.9.45 1.592 1.0917 2.075 1.925.5.8167.75 1.775.75 2.875v3.25c0 1.1-.25 2.0667-.75 2.9-.483.8167-1.175 1.4583-2.075 1.925-.883.45-1.941.675-3.175.675zm0-3.25c.734 0 1.292-.1917 1.675-.575.384-.4.575-.9583.575-1.675v-3.25c0-.7333-.191-1.2917-.575-1.675-.383-.3833-.941-.575-1.675-.575-.716 0-1.275.1917-1.675.575-.383.3833-.575.9417-.575 1.675v3.25c0 .7167.192 1.275.575 1.675.4.3833.959.575 1.675.575zm13.566 3.25c-1.384 0-2.492-.4833-3.325-1.45-.834-.9667-1.25-2.275-1.25-3.925v-3.5c0-1.6333.416-2.9333 1.25-3.9.833-.9833 1.941-1.475 3.325-1.475 1.133 0 2.025.3333 2.675 1 .65.65.975 1.5667.975 2.75l-.875-.875h.875l-.125-3.375v-3.75h3.75v18.25h-3.625v-2.625h-.875l.875-.875c0 1.1833-.325 2.1083-.975 2.775-.65.65-1.542.975-2.675.975zm1.35-3.25c.683 0 1.216-.1917 1.6-.575.383-.4.575-.9583.575-1.675v-3.25c0-.7167-.192-1.2667-.575-1.65-.384-.4-.917-.6-1.6-.6-.7 0-1.242.2-1.625.6-.367.3833-.55.9333-.55 1.65v3.25c0 .7167.183 1.275.55 1.675.383.3833.925.575 1.625.575zm15.09 3.25c-1.217 0-2.283-.225-3.2-.675-.9-.4667-1.6-1.1083-2.1-1.925-.483-.8333-.725-1.8-.725-2.9v-3.25c0-1.1.242-2.0583.725-2.875.5-.8333 1.2-1.475 2.1-1.925.917-.4667 1.983-.7 3.2-.7s2.267.2333 3.15.7c.9.45 1.592 1.0917 2.075 1.925.5.8167.75 1.775.75 2.875v2.5h-8.425v.75c0 .8667.208 1.525.625 1.975.417.4333 1.042.65 1.875.65.583 0 1.05-.1 1.4-.3.367-.2.608-.475.725-.825h3.675c-.3 1.2-.983 2.1667-2.05 2.9-1.05.7333-2.317 1.1-3.8 1.1zm2.4-8.175v-.625c0-.85-.2-1.5-.6-1.95-.383-.45-.983-.675-1.8-.675s-1.433.2333-1.85.7c-.4.4667-.6 1.125-.6 1.975v.375l5.1-.05zm21.705 7.925v-18.25h5.875c1.85 0 3.325.425 4.425 1.275 1.1.8333 1.65 1.9667 1.65 3.4 0 .8-.191 1.5-.575 2.1-.366.6-.866 1.0667-1.5 1.4-.616.3333-1.291.5-2.025.5v.075c.817-.0167 1.559.1333 2.225.45.684.3167 1.234.7917 1.65 1.425.417.6333.625 1.4167.625 2.35 0 1.0667-.258 2-.775 2.8-.5.7833-1.216 1.3917-2.15 1.825-.933.4333-2.041.65-3.325.65zm3.625-3.025h2.325c.817 0 1.459-.2167 1.925-.65.467-.4333.7-1.0333.7-1.8s-.233-1.3667-.7-1.8c-.466-.45-1.108-.675-1.925-.675h-2.325zm0-7.875h2.2c.734 0 1.309-.1917 1.725-.575.417-.4.625-.9333.625-1.6 0-.6833-.208-1.2083-.625-1.575-.416-.3833-.991-.575-1.725-.575h-2.2zm17.216 11.15c-1.217 0-2.275-.225-3.175-.675-.9-.4667-1.6-1.1083-2.1-1.925-.484-.8333-.725-1.8-.725-2.9v-3.25c0-1.1.241-2.0583.725-2.875.5-.8333 1.2-1.475 2.1-1.925.9-.4667 1.958-.7 3.175-.7 1.233 0 2.291.2333 3.175.7.9.45 1.591 1.0917 2.075 1.925.5.8167.75 1.775.75 2.875v3.25c0 1.1-.25 2.0667-.75 2.9-.484.8167-1.175 1.4583-2.075 1.925-.884.45-1.942.675-3.175.675zm0-3.25c.733 0 1.291-.1917 1.675-.575.383-.4.575-.9583.575-1.675v-3.25c0-.7333-.192-1.2917-.575-1.675-.384-.3833-.942-.575-1.675-.575-.717 0-1.275.1917-1.675.575-.384.3833-.575.9417-.575 1.675v3.25c0 .7167.191 1.275.575 1.675.4.3833.958.575 1.675.575zm14.99 3.25c-1.217 0-2.275-.225-3.175-.675-.9-.4667-1.6-1.1083-2.1-1.925-.484-.8333-.725-1.8-.725-2.9v-3.25c0-1.1.241-2.0583.725-2.875.5-.8333 1.2-1.475 2.1-1.925.9-.4667 1.958-.7 3.175-.7 1.233 0 2.291.2333 3.175.7.9.45 1.591 1.0917 2.075 1.925.5.8167.75 1.775.75 2.875v3.25c0 1.1-.25 2.0667-.75 2.9-.484.8167-1.175 1.4583-2.075 1.925-.884.45-1.942.675-3.175.675zm0-3.25c.733 0 1.291-.1917 1.675-.575.383-.4.575-.9583.575-1.675v-3.25c0-.7333-.192-1.2917-.575-1.675-.384-.3833-.942-.575-1.675-.575-.717 0-1.275.1917-1.675.575-.384.3833-.575.9417-.575 1.675v3.25c0 .7167.191 1.275.575 1.675.4.3833.958.575 1.675.575zm16.49 3c-1.4 0-2.5-.4-3.3-1.2s-1.2-1.9-1.2-3.3v-5.875h-3.625v-3.375h3.625v-3.875h3.75v3.875h5.125v3.375h-5.125v5.875c0 .75.375 1.125 1.125 1.125h3.75v3.375zm13.565.25c-1.216 0-2.283-.225-3.2-.675-.916-.4667-1.625-1.1083-2.125-1.925-.5-.8333-.75-1.8-.75-2.9v-3.25c0-1.1167.25-2.0833.75-2.9s1.209-1.45 2.125-1.9c.917-.4667 1.984-.7 3.2-.7 1.817 0 3.267.4583 4.35 1.375 1.084.9167 1.659 2.1667 1.725 3.75h-3.75c-.05-.5833-.283-1.0417-.7-1.375-.4-.3333-.941-.5-1.625-.5-.75 0-1.325.1917-1.725.575s-.6.9417-.6 1.675v3.25c0 .7167.2 1.275.6 1.675.4.3833.975.575 1.725.575.684 0 1.225-.1583 1.625-.475.417-.3333.65-.8.7-1.4h3.75c-.066 1.5833-.641 2.8333-1.725 3.75-1.083.9167-2.533 1.375-4.35 1.375zm13.141 0c-1.384 0-2.484-.375-3.3-1.125-.8-.75-1.2-1.7667-1.2-3.05 0-1.3833.475-2.4417 1.425-3.175.966-.75 2.35-1.125 4.15-1.125h2.85v-1.025c0-.5333-.192-.9583-.575-1.275-.367-.3167-.867-.475-1.5-.475-.584 0-1.067.1333-1.45.4-.384.2667-.617.6333-.7 1.1h-3.625c.15-1.3833.75-2.475 1.8-3.275 1.066-.8167 2.433-1.225 4.1-1.225 1.75 0 3.133.4333 4.15 1.3 1.033.85 1.55 2 1.55 3.45v9.25h-3.625v-2.25h-.6l.625-.875c0 1.0333-.375 1.8583-1.125 2.475-.734.6-1.717.9-2.95.9zm1.4-2.75c.733 0 1.333-.1917 1.8-.575.483-.4.725-.9167.725-1.55v-1.475h-2.775c-.567 0-1.025.1667-1.375.5-.35.3167-.525.7417-.525 1.275 0 .5667.191 1.0167.575 1.35.383.3167.908.475 1.575.475zm8.915 2.5v-13.75h2.95v2h.6l-.475.35c0-.7833.225-1.4083.675-1.875.45-.4833 1.008-.725 1.675-.725.716 0 1.275.3083 1.675.925s.6 1.4333.6 2.45l-.45-1.125h.7l-.225.35c0-.7833.216-1.4083.65-1.875.433-.4833 1.016-.725 1.75-.725.833 0 1.508.3167 2.025.95.516.6167.775 1.4667.775 2.55v10.5h-3.225v-10.25c0-.3833-.084-.675-.25-.875-.167-.2167-.409-.325-.725-.325-.317 0-.559.1083-.725.325-.167.2-.25.4917-.25.875v10.25h-2.575v-10.25c0-.3833-.084-.675-.25-.875-.167-.2167-.409-.325-.725-.325-.317 0-.559.1083-.725.325-.167.2-.25.4917-.25.875v10.25zm15.59 4.5v-18.25h3.625v2.625h.875l-.875.875c0-1.1833.325-2.1.975-2.75.65-.6667 1.542-1 2.675-1 1.383 0 2.492.4917 3.325 1.475.833.9667 1.25 2.2667 1.25 3.9v3.5c0 1.0833-.192 2.0333-.575 2.85-.367.8-.892 1.425-1.575 1.875-.683.4333-1.492.65-2.425.65-1.133 0-2.025-.325-2.675-.975-.65-.6667-.975-1.5917-.975-2.775l.875.875h-.875l.125 3.375v3.75zm5.925-7.5c.7 0 1.233-.1917 1.6-.575.383-.4.575-.9583.575-1.675v-3.25c0-.7333-.192-1.2917-.575-1.675-.367-.3833-.9-.575-1.6-.575-.683 0-1.217.2-1.6.6-.383.3833-.575.9333-.575 1.65v3.25c0 .7167.192 1.275.575 1.675.383.3833.917.575 1.6.575z" fill="#fff"/><path d="m121.52 67v-11.68h1.232v7.2c0 .352-.011.72-.032 1.104-.011.384-.027.7413-.048 1.072-.011.3307-.021.608-.032.832l3.728-10.208h1.712v11.68h-1.232v-7.2c0-.3093.005-.6507.016-1.024.021-.3733.043-.736.064-1.088s.043-.6507.064-.896l-3.776 10.208zm22.484.16c-.683 0-1.28-.1333-1.792-.4s-.912-.6453-1.2-1.136c-.278-.5013-.416-1.0933-.416-1.776v-2.496c0-.6827.138-1.2693.416-1.76.288-.5013.688-.8853 1.2-1.152s1.109-.4 1.792-.4c1.002 0 1.808.272 2.416.816s.922 1.2853.944 2.224h-1.264c-.022-.608-.219-1.0773-.592-1.408-.363-.3307-.864-.496-1.504-.496-.651 0-1.168.192-1.552.576-.384.3733-.576.9067-.576 1.6v2.496c0 .6827.192 1.216.576 1.6s.901.576 1.552.576c.64 0 1.141-.1653 1.504-.496.373-.3413.57-.8107.592-1.408h1.264c-.022.9387-.336 1.68-.944 2.224s-1.414.816-2.416.816zm8.937-.16v-7.664h-3.2v-1.136h7.68v1.136h-3.2v7.664zm9.546.16c-.928 0-1.659-.2347-2.192-.704-.533-.48-.8-1.1253-.8-1.936 0-.8.261-1.4293.784-1.888.523-.4693 1.227-.704 2.112-.704h2.8v-.928c0-.5867-.171-1.04-.512-1.36s-.827-.48-1.456-.48c-.555 0-1.019.1227-1.392.368-.363.2453-.571.576-.624.992h-1.28c.107-.7573.459-1.36 1.056-1.808.608-.448 1.365-.672 2.272-.672.981 0 1.76.2667 2.336.8.576.5227.864 1.232.864 2.128v6.032h-1.248v-1.712h-.208l.24-.256c0 .6507-.251 1.168-.752 1.552s-1.168.576-2 .576zm.304-1.024c.704 0 1.28-.176 1.728-.528s.672-.8107.672-1.376v-1.328h-2.784c-.501 0-.901.1387-1.2.416s-.448.656-.448 1.136c0 .512.181.9227.544 1.232.363.2987.859.448 1.488.448zm6.746.864v-8.8h1.28v3.744h3.904v-3.744h1.28v8.8h-1.28v-3.904h-3.904v3.904zm9.674 0v-8.8h1.264v3.232h2.64c.981 0 1.754.2507 2.32.752.576.4907.864 1.168.864 2.032 0 .8533-.288 1.5307-.864 2.032-.566.5013-1.339.752-2.32.752zm1.264-1.152h2.64c.608 0 1.072-.1387 1.392-.416.32-.288.48-.6933.48-1.216s-.16-.9227-.48-1.2c-.32-.288-.784-.432-1.392-.432h-2.64zm301.166 1.152v-3.248c-.171.0427-.438.0853-.8.128-.363.032-.768.048-1.216.048-1.056.0107-1.878-.2507-2.464-.784-.576-.5333-.864-1.2853-.864-2.256v-2.688h1.264v2.688c0 .5973.181 1.0613.544 1.392.373.3307.901.496 1.584.496.49 0 .906-.016 1.248-.048.341-.0427.576-.08.704-.112v-4.416h1.264v8.8zm7.722.16c-.683 0-1.275-.1333-1.776-.4-.502-.2773-.891-.6667-1.168-1.168-.278-.5013-.416-1.0827-.416-1.744v-2.496c0-.672.138-1.2533.416-1.744.277-.5013.666-.8853 1.168-1.152.501-.2773 1.093-.416 1.776-.416.682 0 1.274.1387 1.776.416.501.2667.89.6507 1.168 1.152.277.4907.416 1.072.416 1.744v1.552h-5.472v.944c0 .7147.181 1.2693.544 1.664.373.384.896.576 1.568.576.565 0 1.024-.112 1.376-.336.362-.224.592-.5493.688-.976h1.264c-.118.736-.475 1.3173-1.072 1.744-.598.4267-1.35.64-2.256.64zm2.112-5.104v-.704c0-.7147-.182-1.264-.544-1.648-.363-.3947-.886-.592-1.568-.592-.672 0-1.195.1973-1.568.592-.363.384-.544.9333-.544 1.648v.56h4.352zm4.233 7.824v-11.68h1.264v1.552h.336l-.384.528c0-.6933.224-1.2373.672-1.632.459-.4053 1.062-.608 1.808-.608.886 0 1.59.2933 2.112.88.534.576.8 1.3653.8 2.368v2.608c0 .672-.122 1.2533-.368 1.744-.245.48-.586.8533-1.024 1.12-.426.2667-.933.4-1.52.4-.736 0-1.333-.2027-1.792-.608-.458-.4053-.688-.9493-.688-1.632l.336.528h-.304l.016 1.792v2.64zm3.296-3.824c.64 0 1.136-.192 1.488-.576.363-.384.544-.928.544-1.632v-2.496c0-.7147-.181-1.2587-.544-1.632-.352-.384-.848-.576-1.488-.576-.618 0-1.114.1973-1.488.592-.362.384-.544.9227-.544 1.616v2.496c0 .6933.182 1.2373.544 1.632.374.384.87.576 1.488.576zm9.546 1.104c-.683 0-1.275-.1333-1.776-.4-.501-.2773-.891-.6667-1.168-1.168s-.416-1.0827-.416-1.744v-2.496c0-.672.139-1.2533.416-1.744.277-.5013.667-.8853 1.168-1.152.501-.2773 1.093-.416 1.776-.416s1.275.1387 1.776.416c.501.2667.891.6507 1.168 1.152.277.4907.416 1.072.416 1.744v1.552h-5.472v.944c0 .7147.181 1.2693.544 1.664.373.384.896.576 1.568.576.565 0 1.024-.112 1.376-.336.363-.224.592-.5493.688-.976h1.264c-.117.736-.475 1.3173-1.072 1.744s-1.349.64-2.256.64zm2.112-5.104v-.704c0-.7147-.181-1.264-.544-1.648-.363-.3947-.885-.592-1.568-.592-.672 0-1.195.1973-1.568.592-.363.384-.544.9333-.544 1.648v.56h4.352zm7.066 5.072c-.918 0-1.659-.1973-2.224-.592-.566-.3947-.907-.928-1.024-1.6h1.328c.085.3093.293.5653.624.768.341.192.773.288 1.296.288h.784c.544 0 .97-.1333 1.28-.4.32-.2773.48-.624.48-1.04 0-.448-.15-.8107-.448-1.088-.299-.2773-.726-.416-1.28-.416h-1.968v-1.104h1.936c.501 0 .885-.128 1.152-.384.277-.256.416-.5867.416-.992 0-.2773-.064-.5173-.192-.72s-.315-.3573-.56-.464c-.246-.1173-.528-.176-.848-.176h-.832c-.48 0-.875.1067-1.184.32-.31.2027-.502.464-.576.784h-1.328c.106-.6613.432-1.2.976-1.616.554-.416 1.258-.624 2.112-.624h.832c.597 0 1.114.1013 1.552.304.437.2027.773.4853 1.008.848.245.3627.368.7893.368 1.28 0 .5333-.166.976-.496 1.328-.32.3413-.774.5333-1.36.576v.064c.704.0427 1.221.2507 1.552.624.33.3627.496.864.496 1.504 0 .7573-.283 1.3707-.848 1.84-.555.4587-1.302.688-2.24.688zm21.475-.128v-2.608h-5.312v-2.08l4.64-6.992h1.376l-4.736 7.28v.64h4.032v-2.96h1.264v6.72zm13.796 0v-8.8h1.76l1.28 3.584c.106.3093.208.624.304.944s.165.5707.208.752c.053-.1813.122-.432.208-.752.096-.32.197-.64.304-.96l1.232-3.568h1.744v8.8h-1.232v-2.112c0-.4587.005-.9493.016-1.472.01-.5227.021-1.0453.032-1.568.01-.5227.026-1.0133.048-1.472.021-.4693.037-.88.048-1.232l-1.744 5.216h-1.344l-1.744-5.184c.021.4267.037.9653.048 1.616.01.64.021 1.3173.032 2.032.021.7147.032 1.4027.032 2.064v2.112zm13.114.16c-.683 0-1.275-.1333-1.776-.4-.502-.2773-.891-.6667-1.168-1.168-.278-.5013-.416-1.0827-.416-1.744v-2.496c0-.672.138-1.2533.416-1.744.277-.5013.666-.8853 1.168-1.152.501-.2773 1.093-.416 1.776-.416.682 0 1.274.1387 1.776.416.501.2667.89.6507 1.168 1.152.277.4907.416 1.072.416 1.744v1.552h-5.472v.944c0 .7147.181 1.2693.544 1.664.373.384.896.576 1.568.576.565 0 1.024-.112 1.376-.336.362-.224.592-.5493.688-.976h1.264c-.118.736-.475 1.3173-1.072 1.744-.598.4267-1.35.64-2.256.64zm2.112-5.104v-.704c0-.7147-.182-1.264-.544-1.648-.363-.3947-.886-.592-1.568-.592-.672 0-1.195.1973-1.568.592-.363.384-.544.9333-.544 1.648v.56h4.352zm7.497 5.104c-.682 0-1.28-.1333-1.792-.4s-.912-.6453-1.2-1.136c-.277-.5013-.416-1.0933-.416-1.776v-2.496c0-.6827.139-1.2693.416-1.76.288-.5013.688-.8853 1.2-1.152s1.11-.4 1.792-.4c1.003 0 1.808.272 2.416.816s.923 1.2853.944 2.224h-1.264c-.021-.608-.218-1.0773-.592-1.408-.362-.3307-.864-.496-1.504-.496-.65 0-1.168.192-1.552.576-.384.3733-.576.9067-.576 1.6v2.496c0 .6827.192 1.216.576 1.6s.902.576 1.552.576c.64 0 1.142-.1653 1.504-.496.374-.3413.571-.8107.592-1.408h1.264c-.021.9387-.336 1.68-.944 2.224s-1.413.816-2.416.816zm5.85-.16 2.24-3.408c-.683-.1493-1.211-.4533-1.584-.912s-.56-1.0347-.56-1.728c0-.8533.283-1.5253.848-2.016.576-.4907 1.355-.736 2.336-.736h3.68v8.8h-1.28v-3.296h-2.128l-2.08 3.296zm3.28-4.432h2.4v-3.232h-2.4c-.576 0-1.035.144-1.376.432s-.512.6827-.512 1.184.171.896.512 1.184.8.432 1.376.432zm13.066 6.672v-2.24h-6.256v-8.8h1.28v7.664h3.648v-7.664h1.264v7.664h1.216v3.376zm5.881-2.08c-.927 0-1.658-.2347-2.191-.704-.534-.48-.8-1.1253-.8-1.936 0-.8.261-1.4293.784-1.888.522-.4693 1.226-.704 2.112-.704h2.8v-.928c0-.5867-.171-1.04-.512-1.36-.342-.32-.827-.48-1.456-.48-.555 0-1.019.1227-1.392.368-.363.2453-.571.576-.624.992h-1.28c.106-.7573.458-1.36 1.056-1.808.608-.448 1.365-.672 2.272-.672.981 0 1.76.2667 2.336.8.576.5227.863 1.232.863 2.128v6.032h-1.247v-1.712h-.208l.24-.256c0 .6507-.251 1.168-.752 1.552-.502.384-1.168.576-2.001.576zm.305-1.024c.704 0 1.28-.176 1.728-.528s.672-.8107.672-1.376v-1.328h-2.784c-.502 0-.902.1387-1.2.416-.299.2773-.448.656-.448 1.136 0 .512.181.9227.544 1.232.362.2987.858.448 1.488.448z" fill="#fff"/><path d="m198.11 67v-8.8h3.872c.96 0 1.712.208 2.256.624s.816.992.816 1.728c0 .608-.219 1.0933-.656 1.456s-1.013.544-1.728.544v-.144c.779 0 1.403.192 1.872.576.48.3733.72.8747.72 1.504 0 .7893-.283 1.408-.848 1.856-.565.4373-1.344.656-2.336.656zm1.696-1.392h2.24c.469 0 .837-.1067 1.104-.32.277-.2133.416-.5067.416-.88 0-.384-.139-.6827-.416-.896-.267-.224-.635-.336-1.104-.336h-2.24zm0-3.712h2.176c.427 0 .763-.1013 1.008-.304s.368-.4853.368-.848c0-.352-.123-.6293-.368-.832-.245-.2133-.581-.32-1.008-.32h-2.176zm11.338 5.248c-.726 0-1.355-.1387-1.888-.416-.534-.2773-.944-.672-1.232-1.184s-.432-1.1147-.432-1.808v-2.272c0-.704.144-1.3067.432-1.808.288-.512.698-.9067 1.232-1.184.533-.2773 1.162-.416 1.888-.416.725 0 1.354.1387 1.888.416.533.2773.944.672 1.232 1.184.288.5013.432 1.104.432 1.808v2.272c0 .6933-.144 1.296-.432 1.808s-.699.9067-1.232 1.184c-.534.2773-1.163.416-1.888.416zm0-1.52c.586 0 1.04-.16 1.36-.48.32-.3307.48-.8.48-1.408v-2.272c0-.6187-.16-1.088-.48-1.408s-.774-.48-1.36-.48c-.576 0-1.03.16-1.36.48-.32.32-.48.7893-.48 1.408v2.272c0 .608.16 1.0773.48 1.408.33.32.784.48 1.36.48zm9.642 1.536c-.726 0-1.366-.1333-1.92-.4-.544-.2773-.966-.672-1.264-1.184-.288-.5227-.432-1.1307-.432-1.824v-2.304c0-.704.144-1.312.432-1.824.298-.512.72-.9013 1.264-1.168.554-.2773 1.194-.416 1.92-.416 1.056 0 1.904.2773 2.544.832s.976 1.312 1.008 2.272h-1.728c-.032-.5013-.208-.8907-.528-1.168s-.752-.416-1.296-.416c-.587 0-1.051.1653-1.392.496-.342.32-.512.7787-.512 1.376v2.32c0 .5973.17 1.0613.512 1.392.341.3307.805.496 1.392.496.544 0 .976-.1387 1.296-.416s.496-.6667.528-1.168h1.728c-.032.96-.368 1.7173-1.008 2.272s-1.488.832-2.544.832zm8.681-.16v-7.248h-3.104v-1.552h7.936v1.552h-3.104v7.248zm7.002 2.88v-11.68h1.712v1.68h.368l-.368.4c0-.6933.213-1.2373.64-1.632.437-.4053 1.019-.608 1.744-.608.885 0 1.589.2987 2.112.896.533.5867.8 1.392.8 2.416v2.48c0 .6827-.123 1.2747-.368 1.776-.235.4907-.571.8747-1.008 1.152-.427.2667-.939.4-1.536.4-.715 0-1.291-.1973-1.728-.592-.437-.4053-.656-.9547-.656-1.648l.368.4h-.4l.048 2.048v2.512zm3.504-4.224c.565 0 1.003-.16 1.312-.48.32-.3307.48-.8053.48-1.424v-2.304c0-.6187-.16-1.088-.48-1.408-.309-.3307-.747-.496-1.312-.496-.544 0-.976.1707-1.296.512-.32.3307-.48.7947-.48 1.392v2.304c0 .5973.16 1.0667.48 1.408.32.3307.752.496 1.296.496zm9.546 1.504c-.715 0-1.344-.1387-1.888-.416-.534-.288-.944-.688-1.232-1.2s-.432-1.1093-.432-1.792v-2.304c0-.6933.144-1.2907.432-1.792.288-.512.698-.9067 1.232-1.184.544-.288 1.173-.432 1.888-.432.725 0 1.354.144 1.888.432.533.2773.944.672 1.232 1.184.288.5013.432 1.0987.432 1.792v1.568h-5.44v.736c0 .6507.16 1.1467.48 1.488.33.3413.805.512 1.424.512.501 0 .906-.0853 1.216-.256.309-.1813.501-.4427.576-.784h1.712c-.128.7467-.512 1.344-1.152 1.792-.64.4373-1.43.656-2.368.656zm1.888-5.184v-.544c0-.64-.16-1.136-.48-1.488s-.79-.528-1.408-.528c-.608 0-1.078.176-1.408.528-.32.352-.48.8533-.48 1.504v.4l3.904-.016zm7.706 5.184c-1.078-.0107-1.931-.32-2.56-.928-.63-.6187-.944-1.4613-.944-2.528v-3.984c0-1.408.362-2.4907 1.088-3.248.736-.768 1.781-1.152 3.136-1.152h2.352v1.696h-2.352c-.822 0-1.446.2347-1.872.704-.416.4587-.624 1.1253-.624 2v1.056h.224l-.208.304c0-.6187.202-1.104.608-1.456.416-.3627.986-.544 1.712-.544.928 0 1.648.304 2.16.912.522.5973.784 1.424.784 2.48v1.232c0 .7147-.144 1.3333-.432 1.856-.278.512-.678.9067-1.2 1.184-.523.2773-1.147.416-1.872.416zm0-1.52c.576 0 1.013-.1653 1.312-.496.309-.3413.464-.8213.464-1.44v-1.232c0-.6293-.155-1.1093-.464-1.44-.299-.3413-.736-.512-1.312-.512s-1.019.1653-1.328.496c-.299.3307-.448.816-.448 1.456v1.232c0 .6187.149 1.0987.448 1.44.309.3307.752.496 1.328.496zm9.593 1.504c-.725 0-1.354-.1387-1.888-.416-.533-.2773-.944-.672-1.232-1.184s-.432-1.1147-.432-1.808v-2.272c0-.704.144-1.3067.432-1.808.288-.512.699-.9067 1.232-1.184.534-.2773 1.163-.416 1.888-.416.726 0 1.355.1387 1.888.416.534.2773.944.672 1.232 1.184.288.5013.432 1.104.432 1.808v2.272c0 .6933-.144 1.296-.432 1.808s-.698.9067-1.232 1.184c-.533.2773-1.162.416-1.888.416zm0-1.52c.587 0 1.04-.16 1.36-.48.32-.3307.48-.8.48-1.408v-2.272c0-.6187-.16-1.088-.48-1.408s-.773-.48-1.36-.48c-.576 0-1.029.16-1.36.48-.32.32-.48.7893-.48 1.408v2.272c0 .608.16 1.0773.48 1.408.331.32.784.48 1.36.48zm6.154 1.376v-8.8h3.872c.96 0 1.712.208 2.256.624s.816.992.816 1.728c0 .608-.219 1.0933-.656 1.456s-1.013.544-1.728.544v-.144c.779 0 1.403.192 1.872.576.48.3733.72.8747.72 1.504 0 .7893-.283 1.408-.848 1.856-.565.4373-1.344.656-2.336.656zm1.696-1.392h2.24c.469 0 .837-.1067 1.104-.32.277-.2133.416-.5067.416-.88 0-.384-.139-.6827-.416-.896-.267-.224-.635-.336-1.104-.336h-2.24zm0-3.712h2.176c.427 0 .763-.1013 1.008-.304s.368-.4853.368-.848c0-.352-.123-.6293-.368-.832-.245-.2133-.581-.32-1.008-.32h-2.176zm10.458 5.264c-.918 0-1.643-.2347-2.176-.704-.523-.48-.784-1.1307-.784-1.952 0-.832.277-1.4827.832-1.952.565-.48 1.338-.72 2.32-.72h2.448v-.816c0-.48-.15-.8533-.448-1.12-.299-.2667-.72-.4-1.264-.4-.48 0-.88.1067-1.2.32-.32.2027-.507.4747-.56.816h-1.696c.096-.7893.458-1.4187 1.088-1.888.64-.4693 1.445-.704 2.416-.704 1.045 0 1.872.2667 2.48.8.608.5227.912 1.2373.912 2.144v6.016h-1.68v-1.616h-.288l.288-.32c0 .64-.246 1.152-.736 1.536-.491.3733-1.142.56-1.952.56zm.512-1.328c.618 0 1.125-.1547 1.52-.464.405-.32.608-.7253.608-1.216v-1.152h-2.416c-.448 0-.806.1227-1.072.368-.256.2453-.384.5813-.384 1.008 0 .448.154.8053.464 1.072.309.256.736.384 1.28.384zm6.538 1.168v-8.8h1.728v3.536h3.392v-3.536h1.727v8.8h-1.727v-3.68h-3.392v3.68zm9.593 0v-8.8h1.728v3.536h3.392v-3.536h1.728v8.8h-1.728v-3.68h-3.392v3.68zm9.146 0v-8.8h1.536v3.104h.64c.949 0 1.701.256 2.256.768s.832 1.2107.832 2.096c0 .8747-.277 1.568-.832 2.08-.555.5013-1.307.752-2.256.752zm1.536-1.36h.64c.512 0 .907-.128 1.184-.384.288-.256.432-.6187.432-1.088 0-.48-.144-.848-.432-1.104-.277-.2667-.672-.4-1.184-.4h-.64zm4.672 1.36v-8.8h1.536v8.8zm3.514 0v-8.8h2.176l1.12 3.344c.117.352.218.6933.304 1.024.085.32.144.5653.176.736.042-.1707.101-.416.176-.736.085-.3307.181-.672.288-1.024l1.072-3.344h2.176v8.8h-1.632v-1.424c0-.448.005-.9333.016-1.456.021-.5333.037-1.072.048-1.616.021-.544.042-1.0613.064-1.552.021-.5013.042-.944.064-1.328l-1.456 4.784h-1.664l-1.488-4.752c.032.4693.058 1.0453.08 1.728.032.6827.058 1.392.08 2.128.021.7253.032 1.4133.032 2.064v1.424zm19.507 0v-8.8h6.848v8.8h-1.728v-7.216h-3.392v7.216zm9.562 2.88v-11.68h1.712v1.68h.368l-.368.4c0-.6933.213-1.2373.64-1.632.437-.4053 1.019-.608 1.744-.608.885 0 1.589.2987 2.112.896.533.5867.8 1.392.8 2.416v2.48c0 .6827-.123 1.2747-.368 1.776-.235.4907-.571.8747-1.008 1.152-.427.2667-.939.4-1.536.4-.715 0-1.291-.1973-1.728-.592-.437-.4053-.656-.9547-.656-1.648l.368.4h-.4l.048 2.048v2.512zm3.504-4.224c.565 0 1.003-.16 1.312-.48.32-.3307.48-.8053.48-1.424v-2.304c0-.6187-.16-1.088-.48-1.408-.309-.3307-.747-.496-1.312-.496-.544 0-.976.1707-1.296.512-.32.3307-.48.7947-.48 1.392v2.304c0 .5973.16 1.0667.48 1.408.32.3307.752.496 1.296.496zm9.546 1.488c-.726 0-1.355-.1387-1.888-.416-.534-.2773-.944-.672-1.232-1.184s-.432-1.1147-.432-1.808v-2.272c0-.704.144-1.3067.432-1.808.288-.512.698-.9067 1.232-1.184.533-.2773 1.162-.416 1.888-.416.725 0 1.354.1387 1.888.416.533.2773.944.672 1.232 1.184.288.5013.432 1.104.432 1.808v2.272c0 .6933-.144 1.296-.432 1.808s-.699.9067-1.232 1.184c-.534.2773-1.163.416-1.888.416zm0-1.52c.586 0 1.04-.16 1.36-.48.32-.3307.48-.8.48-1.408v-2.272c0-.6187-.16-1.088-.48-1.408s-.774-.48-1.36-.48c-.576 0-1.03.16-1.36.48-.32.32-.48.7893-.48 1.408v2.272c0 .608.16 1.0773.48 1.408.33.32.784.48 1.36.48zm6.81 1.376v-8.8h6.431v1.584h-4.719v7.216zm8.921 2.88v-11.68h1.712v1.68h.368l-.368.4c0-.6933.214-1.2373.64-1.632.438-.4053 1.019-.608 1.744-.608.886 0 1.59.2987 2.112.896.534.5867.8 1.392.8 2.416v2.48c0 .6827-.122 1.2747-.368 1.776-.234.4907-.57.8747-1.008 1.152-.426.2667-.938.4-1.536.4-.714 0-1.29-.1973-1.728-.592-.437-.4053-.656-.9547-.656-1.648l.368.4h-.4l.048 2.048v2.512zm3.504-4.224c.566 0 1.003-.16 1.312-.48.32-.3307.48-.8053.48-1.424v-2.304c0-.6187-.16-1.088-.48-1.408-.309-.3307-.746-.496-1.312-.496-.544 0-.976.1707-1.296.512-.32.3307-.48.7947-.48 1.392v2.304c0 .5973.16 1.0667.48 1.408.32.3307.752.496 1.296.496zm8.666 1.504c-.917 0-1.643-.2347-2.176-.704-.523-.48-.784-1.1307-.784-1.952 0-.832.277-1.4827.832-1.952.565-.48 1.339-.72 2.32-.72h2.448v-.816c0-.48-.149-.8533-.448-1.12s-.72-.4-1.264-.4c-.48 0-.88.1067-1.2.32-.32.2027-.507.4747-.56.816h-1.696c.096-.7893.459-1.4187 1.088-1.888.64-.4693 1.445-.704 2.416-.704 1.045 0 1.872.2667 2.48.8.608.5227.912 1.2373.912 2.144v6.016h-1.68v-1.616h-.288l.288-.32c0 .64-.245 1.152-.736 1.536-.491.3733-1.141.56-1.952.56zm.512-1.328c.619 0 1.125-.1547 1.52-.464.405-.32.608-.7253.608-1.216v-1.152h-2.416c-.448 0-.805.1227-1.072.368-.256.2453-.384.5813-.384 1.008 0 .448.155.8053.464 1.072.309.256.736.384 1.28.384zm6.218 1.168v-8.8h2.176l1.12 3.344c.117.352.218.6933.304 1.024.085.32.144.5653.176.736.042-.1707.101-.416.176-.736.085-.3307.181-.672.288-1.024l1.072-3.344h2.176v8.8h-1.632v-1.424c0-.448.005-.9333.016-1.456.021-.5333.037-1.072.048-1.616.021-.544.042-1.0613.064-1.552.021-.5013.042-.944.064-1.328l-1.456 4.784h-1.664l-1.488-4.752c.032.4693.058 1.0453.08 1.728.032.6827.058 1.392.08 2.128.021.7253.032 1.4133.032 2.064v1.424zm9.593 0v-8.8h2.177l1.12 3.344c.117.352.218.6933.304 1.024.085.32.144.5653.176.736.042-.1707.101-.416.176-.736.085-.3307.181-.672.288-1.024l1.072-3.344h2.176v8.8h-1.632v-1.424c0-.448.005-.9333.016-1.456.021-.5333.037-1.072.048-1.616.021-.544.042-1.0613.064-1.552.021-.5013.042-.944.064-1.328l-1.456 4.784h-1.664l-1.488-4.752c.032.4693.058 1.0453.08 1.728.032.6827.058 1.392.08 2.128.021.7253.032 1.4133.032 2.064v1.424zm9.914 0v-8.8h1.584v4.56c0 .2987-.01.6293-.032.992-.021.352-.048.6987-.08 1.04-.032.3307-.064.6187-.096.864l3.312-7.456h2.16v8.8h-1.584v-4.56c0-.2987.011-.6187.032-.96.022-.352.048-.6933.08-1.024s.064-.6027.096-.816l-3.312 7.36zm13.066.16c-.725 0-1.365-.1333-1.92-.4-.544-.2773-.965-.672-1.264-1.184-.288-.5227-.432-1.1307-.432-1.824v-2.304c0-.704.144-1.312.432-1.824.299-.512.72-.9013 1.264-1.168.555-.2773 1.195-.416 1.92-.416 1.056 0 1.904.2773 2.544.832s.976 1.312 1.008 2.272h-1.728c-.032-.5013-.208-.8907-.528-1.168s-.752-.416-1.296-.416c-.587 0-1.051.1653-1.392.496-.341.32-.512.7787-.512 1.376v2.32c0 .5973.171 1.0613.512 1.392s.805.496 1.392.496c.544 0 .976-.1387 1.296-.416s.496-.6667.528-1.168h1.728c-.032.96-.368 1.7173-1.008 2.272s-1.488.832-2.544.832zm8.682-.16v-7.248h-3.104v-1.552h7.936v1.552h-3.104v7.248zm10.458.144c-.726 0-1.355-.1387-1.888-.416-.534-.2773-.944-.672-1.232-1.184s-.432-1.1147-.432-1.808v-2.272c0-.704.144-1.3067.432-1.808.288-.512.698-.9067 1.232-1.184.533-.2773 1.162-.416 1.888-.416.725 0 1.354.1387 1.888.416.533.2773.944.672 1.232 1.184.288.5013.432 1.104.432 1.808v2.272c0 .6933-.144 1.296-.432 1.808s-.699.9067-1.232 1.184c-.534.2773-1.163.416-1.888.416zm0-1.52c.586 0 1.04-.16 1.36-.48.32-.3307.48-.8.48-1.408v-2.272c0-.6187-.16-1.088-.48-1.408s-.774-.48-1.36-.48c-.576 0-1.03.16-1.36.48-.32.32-.48.7893-.48 1.408v2.272c0 .608.16 1.0773.48 1.408.33.32.784.48 1.36.48zm5.849 1.376v-8.8h2.176l1.12 3.344c.118.352.219.6933.304 1.024.086.32.144.5653.176.736.043-.1707.102-.416.176-.736.086-.3307.182-.672.288-1.024l1.072-3.344h2.176v8.8h-1.632v-1.424c0-.448.006-.9333.016-1.456.022-.5333.038-1.072.048-1.616.022-.544.043-1.0613.064-1.552.022-.5013.043-.944.064-1.328l-1.456 4.784h-1.664l-1.488-4.752c.032.4693.059 1.0453.08 1.728.032.6827.059 1.392.08 2.128.022.7253.032 1.4133.032 2.064v1.424z" fill="#59f881"/><path d="m40 40h40v6.66664h-40z" fill="#59f881"/><g fill="#fff"><path d="m40 29.6689 7.425-.0118c.0475.4717.2534.8136.6178 1.0259.3722.2043.9702.3065 1.7938.3065.6891 0 1.2078-.0747 1.5563-.224.3564-.1572.5346-.3891.5346-.6957 0-.5345-.9227-.8843-2.768-1.0494-.3643-.0393-.6415-.0668-.8316-.0826-.0159 0-.0317 0-.0475 0-2.978-.2908-4.9896-.6681-6.0351-1.1319-.6098-.2673-1.0811-.6879-1.4137-1.2617-.3247-.5739-.4871-1.2499-.4871-2.0281 0-1.5643.7207-2.7081 2.1622-3.4313 1.4414-.7232 3.7382-1.0848 6.8904-1.0848 2.9779 0 5.1916.3695 6.6409 1.1084 1.4573.7389 2.2335 1.8827 2.3285 3.4313h-6.9973c-.0396-.456-.2535-.7861-.6416-.9905-.3801-.2044-.9939-.3066-1.8414-.3066-.7207 0-1.2513.0786-1.5919.2358-.3326.1494-.4989.3852-.4989.7075 0 .5188.792.8411 2.376.9669.3326.0315.586.055.7603.0708.1267.0078.3247.0235.594.0471 3.1918.283 5.053.5149 5.5836.6957 1.0454.3695 1.782.8254 2.2097 1.3678.4277.5346.6415 1.2695.6415 2.205 0 1.7294-.7682 2.9793-2.3047 3.7496-1.5286.7704-4.0392 1.1556-7.532 1.1556-3.1046 0-5.3856-.3813-6.8428-1.1438-1.4494-.7703-2.2097-1.9809-2.281-3.6317z"/><path d="m80 28.0417c-.2218 2.1303-1.1484 3.73-2.7799 4.7991-1.6236 1.069-3.9402 1.6036-6.9498 1.6036-3.1126 0-5.5203-.6289-7.2231-1.8866-1.6949-1.2578-2.5423-3.0343-2.5423-5.3297 0-2.2875.8474-4.0641 2.5423-5.3297 1.7028-1.2656 4.1105-1.8984 7.2231-1.8984 2.8908 0 5.144.4913 6.7597 1.4739s2.5661 2.4408 2.8512 4.3746h-6.5221c-.2456-.621-.6138-1.0848-1.1049-1.3914-.491-.3144-1.1048-.4716-1.8414-.4716-1.085 0-1.9364.2869-2.5542.8607-.6177.566-.9266 1.3521-.9266 2.3583 0 .9748.3009 1.7491.9029 2.3229.6019.5738 1.4137.8608 2.4354.8608.8474 0 1.5602-.2083 2.1384-.625.586-.4245.9504-.9983 1.0929-1.7215z"/><path d="m45.9596 62.8889c0 .8908.2794 1.6074.8381 2.1496.5587.5345 1.2959.8018 2.2116.8018.9312 0 1.6722-.2673 2.2232-.8018.5587-.5422.8381-1.2588.8381-2.1496 0-.8986-.2794-1.6151-.8381-2.1496-.551-.5345-1.292-.8017-2.2232-.8017-.9157 0-1.6529.2672-2.2116.8017s-.8381 1.251-.8381 2.1496zm-5.9596 6.6579v-17.3245h5.9596v5.0893c.7217-.4803 1.4861-.8366 2.2931-1.069.8148-.2401 1.7033-.3602 2.6655-.3602 2.2659 0 4.0662.6313 5.4009 1.894 1.3425 1.2626 2.0137 2.9668 2.0137 5.1125 0 2.1148-.6634 3.8112-1.9904 5.0893-1.3269 1.2704-3.104 1.9056-5.3311 1.9056-1.0476 0-2.0098-.1355-2.8867-.4067-.8768-.2788-1.6761-.6933-2.3978-1.2432l-.0465 1.3129z"/><path d="m78.8889 63.6907c-.2173 2.0992-1.1252 3.6756-2.7237 4.7291-1.5908 1.0535-3.8606 1.5802-6.8094 1.5802-3.0496 0-5.4087-.6197-7.077-1.8591-1.6607-1.2394-2.491-2.9901-2.491-5.252 0-2.2541.8303-4.0048 2.491-5.252 1.6683-1.2471 4.0274-1.8707 7.077-1.8707 2.8324 0 5.0401.4842 6.6231 1.4524 1.583.9683 2.5142 2.4053 2.7936 4.3108h-6.3903c-.2406-.6119-.6014-1.0689-1.0825-1.371-.4811-.3099-1.0825-.4648-1.8042-.4648-1.0631 0-1.8973.2827-2.5026.8482-.6053.5577-.9079 1.3324-.9079 2.3239 0 .9605.2949 1.7235.8846 2.289.5898.5655 1.3852.8482 2.3862.8482.8303 0 1.5287-.2053 2.0952-.6158.5742-.4183.9312-.9838 1.0709-1.6964z"/></g></g></svg>