<svg fill="none" height="125" viewBox="0 0 728 125" width="728" xmlns="http://www.w3.org/2000/svg"><path d="m0 0h728v125h-728z" fill="#3f3948"/><path d="m121.782 43v-19.71h4.05v7.56h4.536v-7.56h4.05v19.71h-4.05v-8.37h-4.536v8.37zm22.534.27c-1.314 0-2.466-.243-3.456-.729-.972-.504-1.728-1.197-2.268-2.079-.522-.9-.783-1.944-.783-3.132v-3.51c0-1.188.261-2.223.783-3.105.54-.9 1.296-1.593 2.268-2.079.99-.504 2.142-.756 3.456-.756s2.448.252 3.402.756c.972.486 1.719 1.179 2.241 2.079.54.882.81 1.917.81 3.105v2.7h-9.099v.81c0 .936.225 1.647.675 2.133.45.468 1.125.702 2.025.702.63 0 1.134-.108 1.512-.324.396-.216.657-.513.783-.891h3.969c-.324 1.296-1.062 2.34-2.214 3.132-1.134.792-2.502 1.188-4.104 1.188zm2.592-8.829v-.675c0-.918-.216-1.62-.648-2.106-.414-.486-1.062-.729-1.944-.729s-1.548.252-1.998.756c-.432.504-.648 1.215-.648 2.133v.405l5.508-.054zm29.76 8.829c-1.314 0-2.457-.243-3.429-.729-.972-.504-1.728-1.197-2.268-2.079-.522-.9-.783-1.944-.783-3.132v-3.51c0-1.188.261-2.223.783-3.105.54-.9 1.296-1.593 2.268-2.079.972-.504 2.115-.756 3.429-.756 1.332 0 2.475.252 3.429.756.972.486 1.719 1.179 2.241 2.079.54.882.81 1.917.81 3.105v3.51c0 1.188-.27 2.232-.81 3.132-.522.882-1.269 1.575-2.241 2.079-.954.486-2.097.729-3.429.729zm0-3.51c.792 0 1.395-.207 1.809-.621.414-.432.621-1.035.621-1.809v-3.51c0-.792-.207-1.395-.621-1.809s-1.017-.621-1.809-.621c-.774 0-1.377.207-1.809.621-.414.414-.621 1.017-.621 1.809v3.51c0 .774.207 1.377.621 1.809.432.414 1.035.621 1.809.621zm9.872 3.24v-14.85h4.05v5.427h4.536v-5.427h4.05v14.85h-4.05v-5.643h-4.536v5.643zm14.974.189v-3.645h.81c.468 0 .855-.198 1.161-.594s.468-.918.486-1.566l.162-9.234h11.232v14.85h-4.05v-11.07h-3.213l-.108 5.724c-.018 1.098-.261 2.07-.729 2.916-.45.828-1.08 1.476-1.89 1.944-.792.45-1.719.675-2.781.675zm21.806.081c-1.494 0-2.682-.405-3.564-1.215-.864-.81-1.296-1.908-1.296-3.294 0-1.494.513-2.637 1.539-3.429 1.044-.81 2.538-1.215 4.482-1.215h3.078v-1.107c0-.576-.207-1.035-.621-1.377-.396-.342-.936-.513-1.62-.513-.63 0-1.152.144-1.566.432s-.666.684-.756 1.188h-3.915c.162-1.494.81-2.673 1.944-3.537 1.152-.882 2.628-1.323 4.428-1.323 1.89 0 3.384.468 4.482 1.404 1.116.918 1.674 2.16 1.674 3.726v9.99h-3.915v-2.43h-.648l.675-.945c0 1.116-.405 2.007-1.215 2.673-.792.648-1.854.972-3.186.972zm1.512-2.97c.792 0 1.44-.207 1.944-.621.522-.432.783-.99.783-1.674v-1.593h-2.997c-.612 0-1.107.18-1.485.54-.378.342-.567.801-.567 1.377 0 .612.207 1.098.621 1.458.414.342.981.513 1.701.513zm10.276 2.7v-14.85h3.564v6.75c0 .45-.027 1.017-.081 1.701-.054.666-.126 1.341-.216 2.025-.072.684-.153 1.287-.243 1.809l4.698-12.285h4.914v14.85h-3.564v-6.75c0-.468.027-.999.081-1.593.054-.612.117-1.224.189-1.836s.144-1.134.216-1.566l-4.644 11.745zm6.426-17.145c-1.476 0-2.682-.369-3.618-1.107-.918-.756-1.377-1.737-1.377-2.943h3.105c0 .504.171.918.513 1.242.36.306.819.459 1.377.459.576 0 1.035-.153 1.377-.459.342-.324.513-.738.513-1.242h3.105c0 1.206-.459 2.187-1.377 2.943-.918.738-2.124 1.107-3.618 1.107zm9.764 17.145v-14.85h4.05v5.427h4.536v-5.427h4.05v14.85h-4.05v-5.643h-4.536v5.643zm18.187-7.02v-3.78h8.64v3.78zm13.49 7.02v-14.85h3.321v12.15h2.295v-12.15h2.808v12.15h2.295v-12.15h3.321v14.85zm16.972 0v-14.85h4.05v5.616h1.998l3.105-5.616h4.509l-4.131 7.263 4.212 7.587h-4.59l-3.132-5.832h-1.971v5.832zm22.426.27c-1.314 0-2.457-.243-3.429-.729-.972-.504-1.728-1.197-2.268-2.079-.522-.9-.783-1.944-.783-3.132v-3.51c0-1.188.261-2.223.783-3.105.54-.9 1.296-1.593 2.268-2.079.972-.504 2.115-.756 3.429-.756 1.332 0 2.475.252 3.429.756.972.486 1.719 1.179 2.241 2.079.54.882.81 1.917.81 3.105v3.51c0 1.188-.27 2.232-.81 3.132-.522.882-1.269 1.575-2.241 2.079-.954.486-2.097.729-3.429.729zm0-3.51c.792 0 1.395-.207 1.809-.621.414-.432.621-1.035.621-1.809v-3.51c0-.792-.207-1.395-.621-1.809s-1.017-.621-1.809-.621c-.774 0-1.377.207-1.809.621-.414.414-.621 1.017-.621 1.809v3.51c0 .774.207 1.377.621 1.809.432.414 1.035.621 1.809.621zm8.657 3.429v-3.645h.81c.468 0 .855-.198 1.161-.594s.468-.918.486-1.566l.162-9.234h11.232v14.85h-4.05v-11.07h-3.213l-.108 5.724c-.018 1.098-.261 2.07-.729 2.916-.45.828-1.08 1.476-1.89 1.944-.792.45-1.719.675-2.781.675zm21.805.081c-1.494 0-2.682-.405-3.564-1.215-.864-.81-1.296-1.908-1.296-3.294 0-1.494.513-2.637 1.539-3.429 1.044-.81 2.538-1.215 4.482-1.215h3.078v-1.107c0-.576-.207-1.035-.621-1.377-.396-.342-.936-.513-1.62-.513-.63 0-1.152.144-1.566.432s-.666.684-.756 1.188h-3.915c.162-1.494.81-2.673 1.944-3.537 1.152-.882 2.628-1.323 4.428-1.323 1.89 0 3.384.468 4.482 1.404 1.116.918 1.674 2.16 1.674 3.726v9.99h-3.915v-2.43h-.648l.675-.945c0 1.116-.405 2.007-1.215 2.673-.792.648-1.854.972-3.186.972zm1.512-2.97c.792 0 1.44-.207 1.944-.621.522-.432.783-.99.783-1.674v-1.593h-2.997c-.612 0-1.107.18-1.485.54-.378.342-.567.801-.567 1.377 0 .612.207 1.098.621 1.458.414.342.981.513 1.701.513zm12.275 7.02 2.16-8.397h4.86l-3.51 8.397zm34.782-4.05c-1.494 0-2.682-.405-3.564-1.215-.864-.81-1.296-1.908-1.296-3.294 0-1.494.513-2.637 1.539-3.429 1.044-.81 2.538-1.215 4.482-1.215h3.078v-1.107c0-.576-.207-1.035-.621-1.377-.396-.342-.936-.513-1.62-.513-.63 0-1.152.144-1.566.432s-.666.684-.756 1.188h-3.915c.162-1.494.81-2.673 1.944-3.537 1.152-.882 2.628-1.323 4.428-1.323 1.89 0 3.384.468 4.482 1.404 1.116.918 1.674 2.16 1.674 3.726v9.99h-3.915v-2.43h-.648l.675-.945c0 1.116-.405 2.007-1.215 2.673-.792.648-1.854.972-3.186.972zm1.512-2.97c.792 0 1.44-.207 1.944-.621.522-.432.783-.99.783-1.674v-1.593h-2.997c-.612 0-1.107.18-1.485.54-.378.342-.567.801-.567 1.377 0 .612.207 1.098.621 1.458.414.342.981.513 1.701.513zm32.784 2.97c-1.98-.036-3.555-.576-4.725-1.62-1.17-1.062-1.755-2.502-1.755-4.32v-6.615c0-2.376.666-4.203 1.998-5.481 1.332-1.296 3.231-1.944 5.697-1.944h4.455v3.915h-4.455c-1.188 0-2.097.297-2.727.891-.612.594-.918 1.467-.918 2.619v1.89h.378l-.324.378c-.018-1.008.306-1.809.972-2.403.684-.612 1.656-.918 2.916-.918 1.566 0 2.781.513 3.645 1.539.882 1.026 1.323 2.448 1.323 4.266v1.863c0 1.206-.27 2.268-.81 3.186-.522.9-1.269 1.593-2.241 2.079-.954.468-2.097.693-3.429.675zm0-3.51c.792 0 1.395-.207 1.809-.621.414-.432.621-1.035.621-1.809v-1.863c0-.792-.207-1.395-.621-1.809s-1.017-.621-1.809-.621c-.774 0-1.377.207-1.809.621-.414.414-.621 1.017-.621 1.809v1.863c0 .774.207 1.377.621 1.809.432.414 1.035.621 1.809.621zm12.328 8.1 2.025-5.589-5.562-14.121h4.401l2.241 6.48c.162.486.324 1.08.486 1.782.18.684.315 1.242.405 1.674.09-.432.216-.99.378-1.674.18-.702.351-1.296.513-1.782l2.16-6.48h4.212l-7.02 19.71zm18.026-4.86v-11.07h-4.86v-3.78h13.77v3.78h-4.86v11.07zm11.977 0v-14.85h4.05v5.616h1.998l3.105-5.616h4.509l-4.131 7.263 4.212 7.587h-4.59l-3.132-5.832h-1.971v5.832zm22.345.27c-1.962 0-3.528-.495-4.698-1.485s-1.791-2.34-1.863-4.05h4.05c.054.648.297 1.152.729 1.512.45.342 1.044.513 1.782.513.81 0 1.431-.207 1.863-.621.432-.432.648-1.035.648-1.809v-.27h-4.239v-3.078h4.239v-.162c0-.792-.216-1.395-.648-1.809s-1.053-.621-1.863-.621c-.72 0-1.305.18-1.755.54s-.702.855-.756 1.485h-4.05c.072-1.71.693-3.06 1.863-4.05s2.736-1.485 4.698-1.485c1.332 0 2.484.252 3.456.756.99.486 1.755 1.17 2.295 2.052s.81 1.926.81 3.132v3.51c0 1.188-.27 2.232-.81 3.132-.54.882-1.305 1.575-2.295 2.079-.972.486-2.124.729-3.456.729zm9.305-.27v-14.85h4.563l1.755 5.535c.198.63.351 1.206.459 1.728.126.504.198.882.216 1.134.036-.252.099-.63.189-1.134.108-.522.261-1.098.459-1.728l1.728-5.535h4.563v14.85h-3.699v-2.7c0-.594.009-1.26.027-1.998.036-.756.072-1.53.108-2.322.054-.81.099-1.584.135-2.322.054-.756.108-1.422.162-1.998l-1.971 7.155h-3.429l-2.079-7.155c.072.738.144 1.62.216 2.646.09 1.026.162 2.07.216 3.132.054 1.044.081 1.998.081 2.862v2.7zm16.837 0v-14.85h12.636v14.85h-4.05v-11.07h-4.536v11.07z" fill="#fff"/><path d="m123.528 79 1.332-3.42-3.87-9.72h1.566l2.394 6.426c.156.408.288.804.396 1.188s.18.672.216.864c.048-.192.12-.48.216-.864s.21-.78.342-1.188l2.142-6.426h1.548l-4.752 13.14zm14.771 0v-3.654c-.192.048-.492.096-.9.144-.408.036-.864.054-1.368.054-1.188.012-2.112-.282-2.772-.882-.648-.6-.972-1.446-.972-2.538v-3.024h1.422v3.024c0 .672.204 1.194.612 1.566.42.372 1.014.558 1.782.558.552 0 1.02-.018 1.404-.054.384-.048.648-.09.792-.126v-4.968h1.422v9.9zm5.051 0v-9.9h1.386v5.634c0 .336-.012.696-.036 1.08-.012.372-.03.726-.054 1.062s-.048.618-.072.846l4.194-8.622h1.854v9.9h-1.386v-5.634c0-.348.006-.708.018-1.08.024-.372.048-.726.072-1.062.036-.348.06-.636.072-.864l-4.212 8.64zm14.447.18c-.768 0-1.44-.15-2.016-.45s-1.026-.726-1.35-1.278c-.312-.564-.468-1.23-.468-1.998v-2.808c0-.768.156-1.428.468-1.98.324-.564.774-.996 1.35-1.296s1.248-.45 2.016-.45c1.128 0 2.034.306 2.718.918s1.038 1.446 1.062 2.502h-1.422c-.024-.684-.246-1.212-.666-1.584-.408-.372-.972-.558-1.692-.558-.732 0-1.314.216-1.746.648-.432.42-.648 1.02-.648 1.8v2.808c0 .768.216 1.368.648 1.8s1.014.648 1.746.648c.72 0 1.284-.186 1.692-.558.42-.384.642-.912.666-1.584h1.422c-.024 1.056-.378 1.89-1.062 2.502s-1.59.918-2.718.918zm7.229-.18v-9.9h1.422v3.636h2.97c1.104 0 1.974.282 2.61.846.648.552.972 1.314.972 2.286 0 .96-.324 1.722-.972 2.286-.636.564-1.506.846-2.61.846zm1.422-1.296h2.97c.684 0 1.206-.156 1.566-.468.36-.324.54-.78.54-1.368s-.18-1.038-.54-1.35c-.36-.324-.882-.486-1.566-.486h-2.97zm20.128 1.296v-9.9h1.44v4.158h1.872l2.934-4.158h1.638l-3.33 4.716 3.402 5.184h-1.674l-2.97-4.5h-1.872v4.5zm14.375.162c-.768 0-1.434-.15-1.998-.45s-1.002-.732-1.314-1.296-.468-1.23-.468-1.998v-2.736c0-.78.156-1.446.468-1.998.312-.564.75-.996 1.314-1.296s1.23-.45 1.998-.45 1.434.15 1.998.45 1.002.732 1.314 1.296c.312.552.468 1.212.468 1.98v2.754c0 .768-.156 1.434-.468 1.998s-.75.996-1.314 1.296-1.23.45-1.998.45zm0-1.278c.744 0 1.32-.21 1.728-.63s.612-1.032.612-1.836v-2.736c0-.804-.21-1.416-.63-1.836-.408-.42-.978-.63-1.71-.63s-1.308.21-1.728.63c-.408.42-.612 1.032-.612 1.836v2.736c0 .804.204 1.416.612 1.836.42.42.996.63 1.728.63zm6.005 3.636v-3.744h.81c.204-.228.414-.636.63-1.224.228-.6.348-1.326.36-2.178l.108-5.274h6.3v8.676h1.278v3.744h-1.278v-2.52h-6.93v2.52zm2.34-3.744h4.446v-7.398h-3.528l-.072 4.014c-.012.9-.114 1.638-.306 2.214s-.372.966-.54 1.17zm9.605 1.224v-9.9h1.386v5.634c0 .336-.012.696-.036 1.08-.012.372-.03.726-.054 1.062s-.048.618-.072.846l4.194-8.622h1.854v9.9h-1.386v-5.634c0-.348.006-.708.018-1.08.024-.372.048-.726.072-1.062.036-.348.06-.636.072-.864l-4.212 8.64zm13.709 0v-8.622h-3.6v-1.278h8.64v1.278h-3.6v8.622zm7.967 0v-9.9h1.422v3.636h2.97c1.104 0 1.974.282 2.61.846.648.552.972 1.314.972 2.286 0 .96-.324 1.722-.972 2.286-.636.564-1.506.846-2.61.846zm1.422-1.296h2.97c.684 0 1.206-.156 1.566-.468.36-.324.54-.78.54-1.368s-.18-1.038-.54-1.35c-.36-.324-.882-.486-1.566-.486h-2.97zm20.074 1.296v-9.9h7.272v9.9h-1.44v-8.604h-4.392v8.604zm14.429.162c-.768 0-1.434-.15-1.998-.45s-1.002-.732-1.314-1.296-.468-1.23-.468-1.998v-2.736c0-.78.156-1.446.468-1.998.312-.564.75-.996 1.314-1.296s1.23-.45 1.998-.45 1.434.15 1.998.45 1.002.732 1.314 1.296c.312.552.468 1.212.468 1.98v2.754c0 .768-.156 1.434-.468 1.998s-.75.996-1.314 1.296-1.23.45-1.998.45zm0-1.278c.744 0 1.32-.21 1.728-.63s.612-1.032.612-1.836v-2.736c0-.804-.21-1.416-.63-1.836-.408-.42-.978-.63-1.71-.63s-1.308.21-1.728.63c-.408.42-.612 1.032-.612 1.836v2.736c0 .804.204 1.416.612 1.836.42.42.996.63 1.728.63zm21.118 1.26c-1.032 0-1.866-.222-2.502-.666s-1.02-1.044-1.152-1.8h1.494c.096.348.33.636.702.864.384.216.87.324 1.458.324h.882c.612 0 1.092-.15 1.44-.45.36-.312.54-.702.54-1.17 0-.504-.168-.912-.504-1.224s-.816-.468-1.44-.468h-2.214v-1.242h2.178c.564 0 .996-.144 1.296-.432.312-.288.468-.66.468-1.116 0-.312-.072-.582-.216-.81s-.354-.402-.63-.522c-.276-.132-.594-.198-.954-.198h-.936c-.54 0-.984.12-1.332.36-.348.228-.564.522-.648.882h-1.494c.12-.744.486-1.35 1.098-1.818.624-.468 1.416-.702 2.376-.702h.936c.672 0 1.254.114 1.746.342s.87.546 1.134.954c.276.408.414.888.414 1.44 0 .6-.186 1.098-.558 1.494-.36.384-.87.6-1.53.648v.072c.792.048 1.374.282 1.746.702.372.408.558.972.558 1.692 0 .852-.318 1.542-.954 2.07-.624.516-1.464.774-2.52.774zm10.486.036c-1.044 0-1.866-.264-2.466-.792-.6-.54-.9-1.266-.9-2.178 0-.9.294-1.608.882-2.124.588-.528 1.38-.792 2.376-.792h3.15v-1.044c0-.66-.192-1.17-.576-1.53s-.93-.54-1.638-.54c-.624 0-1.146.138-1.566.414-.408.276-.642.648-.702 1.116h-1.44c.12-.852.516-1.53 1.188-2.034.684-.504 1.536-.756 2.556-.756 1.104 0 1.98.3 2.628.9.648.588.972 1.386.972 2.394v6.786h-1.404v-1.926h-.234l.27-.288c0 .732-.282 1.314-.846 1.746s-1.314.648-2.25.648zm.342-1.152c.792 0 1.44-.198 1.944-.594s.756-.912.756-1.548v-1.494h-3.132c-.564 0-1.014.156-1.35.468s-.504.738-.504 1.278c0 .576.204 1.038.612 1.386.408.336.966.504 1.674.504zm7.589.972v-9.9h7.272v9.9h-1.44v-8.604h-4.392v8.604zm13.655.18c-1.044 0-1.866-.264-2.466-.792-.6-.54-.9-1.266-.9-2.178 0-.9.294-1.608.882-2.124.588-.528 1.38-.792 2.376-.792h3.15v-1.044c0-.66-.192-1.17-.576-1.53s-.93-.54-1.638-.54c-.624 0-1.146.138-1.566.414-.408.276-.642.648-.702 1.116h-1.44c.12-.852.516-1.53 1.188-2.034.684-.504 1.536-.756 2.556-.756 1.104 0 1.98.3 2.628.9.648.588.972 1.386.972 2.394v6.786h-1.404v-1.926h-.234l.27-.288c0 .732-.282 1.314-.846 1.746s-1.314.648-2.25.648zm.342-1.152c.792 0 1.44-.198 1.944-.594s.756-.912.756-1.548v-1.494h-3.132c-.564 0-1.014.156-1.35.468s-.504.738-.504 1.278c0 .576.204 1.038.612 1.386.408.336.966.504 1.674.504zm6.437 3.492v-3.744h.81c.204-.228.414-.636.63-1.224.228-.6.348-1.326.36-2.178l.108-5.274h6.3v8.676h1.278v3.744h-1.278v-2.52h-6.93v2.52zm2.34-3.744h4.446v-7.398h-3.528l-.072 4.014c-.012.9-.114 1.638-.306 2.214s-.372.966-.54 1.17zm9.605 1.224v-9.9h1.44v4.212h4.392v-4.212h1.44v9.9h-1.44v-4.392h-4.392v4.392zm10.271 0v-9.9h1.35v3.672h.882c1.056 0 1.89.282 2.502.846.624.552.936 1.308.936 2.268s-.306 1.722-.918 2.286c-.612.552-1.452.828-2.52.828zm1.35-1.17h.882c.672 0 1.194-.168 1.566-.504.384-.348.576-.828.576-1.44s-.192-1.086-.576-1.422c-.372-.348-.894-.522-1.566-.522h-.882zm5.616 1.17v-9.9h1.35v9.9zm4.025 0v-9.9h1.98l1.44 4.032c.12.348.234.702.342 1.062s.186.642.234.846c.06-.204.138-.486.234-.846.108-.36.222-.72.342-1.08l1.386-4.014h1.962v9.9h-1.386v-2.376c0-.516.006-1.068.018-1.656s.024-1.176.036-1.764.03-1.14.054-1.656c.024-.528.042-.99.054-1.386l-1.962 5.868h-1.512l-1.962-5.832c.024.48.042 1.086.054 1.818.012.72.024 1.482.036 2.286.024.804.036 1.578.036 2.322v2.376zm25.564.18c-.768 0-1.44-.15-2.016-.45s-1.026-.726-1.35-1.278c-.312-.564-.468-1.23-.468-1.998v-2.808c0-.768.156-1.428.468-1.98.324-.564.774-.996 1.35-1.296s1.248-.45 2.016-.45c1.128 0 2.034.306 2.718.918s1.038 1.446 1.062 2.502h-1.422c-.024-.684-.246-1.212-.666-1.584-.408-.372-.972-.558-1.692-.558-.732 0-1.314.216-1.746.648-.432.42-.648 1.02-.648 1.8v2.808c0 .768.216 1.368.648 1.8s1.014.648 1.746.648c.72 0 1.284-.186 1.692-.558.42-.384.642-.912.666-1.584h1.422c-.024 1.056-.378 1.89-1.062 2.502s-1.59.918-2.718.918zm10.055-.18v-8.622h-3.6v-1.278h8.64v1.278h-3.6v8.622zm10.739.18c-1.044 0-1.866-.264-2.466-.792-.6-.54-.9-1.266-.9-2.178 0-.9.294-1.608.882-2.124.588-.528 1.38-.792 2.376-.792h3.15v-1.044c0-.66-.192-1.17-.576-1.53s-.93-.54-1.638-.54c-.624 0-1.146.138-1.566.414-.408.276-.642.648-.702 1.116h-1.44c.12-.852.516-1.53 1.188-2.034.684-.504 1.536-.756 2.556-.756 1.104 0 1.98.3 2.628.9.648.588.972 1.386.972 2.394v6.786h-1.404v-1.926h-.234l.27-.288c0 .732-.282 1.314-.846 1.746s-1.314.648-2.25.648zm.342-1.152c.792 0 1.44-.198 1.944-.594s.756-.912.756-1.548v-1.494h-3.132c-.564 0-1.014.156-1.35.468s-.504.738-.504 1.278c0 .576.204 1.038.612 1.386.408.336.966.504 1.674.504zm7.589.972v-9.9h1.44v4.212h4.392v-4.212h1.44v9.9h-1.44v-4.392h-4.392v4.392zm9.641 2.52v-3.744h.81c.204-.228.414-.636.63-1.224.228-.6.348-1.326.36-2.178l.108-5.274h6.3v8.676h1.278v3.744h-1.278v-2.52h-6.93v2.52zm2.34-3.744h4.446v-7.398h-3.528l-.072 4.014c-.012.9-.114 1.638-.306 2.214s-.372.966-.54 1.17zm12.467 1.404c-1.044 0-1.866-.264-2.466-.792-.6-.54-.9-1.266-.9-2.178 0-.9.294-1.608.882-2.124.588-.528 1.38-.792 2.376-.792h3.15v-1.044c0-.66-.192-1.17-.576-1.53s-.93-.54-1.638-.54c-.624 0-1.146.138-1.566.414-.408.276-.642.648-.702 1.116h-1.44c.12-.852.516-1.53 1.188-2.034.684-.504 1.536-.756 2.556-.756 1.104 0 1.98.3 2.628.9.648.588.972 1.386.972 2.394v6.786h-1.404v-1.926h-.234l.27-.288c0 .732-.282 1.314-.846 1.746s-1.314.648-2.25.648zm.342-1.152c.792 0 1.44-.198 1.944-.594s.756-.912.756-1.548v-1.494h-3.132c-.564 0-1.014.156-1.35.468s-.504.738-.504 1.278c0 .576.204 1.038.612 1.386.408.336.966.504 1.674.504zm7.571 4.212v-13.14h1.422v1.746h.378l-.432.594c0-.78.252-1.392.756-1.836.516-.456 1.194-.684 2.034-.684.996 0 1.788.33 2.376.99.6.648.9 1.536.9 2.664v2.934c0 .756-.138 1.41-.414 1.962-.276.54-.66.96-1.152 1.26-.48.3-1.05.45-1.71.45-.828 0-1.5-.228-2.016-.684s-.774-1.068-.774-1.836l.378.594h-.342l.018 2.016v2.97zm3.708-4.302c.72 0 1.278-.216 1.674-.648.408-.432.612-1.044.612-1.836v-2.808c0-.804-.204-1.416-.612-1.836-.396-.432-.954-.648-1.674-.648-.696 0-1.254.222-1.674.666-.408.432-.612 1.038-.612 1.818v2.808c0 .78.204 1.392.612 1.836.42.432.978.648 1.674.648zm10.019 1.062v-8.622h-3.6v-1.278h8.64v1.278h-3.6v8.622zm10.739.18c-1.044 0-1.866-.264-2.466-.792-.6-.54-.9-1.266-.9-2.178 0-.9.294-1.608.882-2.124.588-.528 1.38-.792 2.376-.792h3.15v-1.044c0-.66-.192-1.17-.576-1.53s-.93-.54-1.638-.54c-.624 0-1.146.138-1.566.414-.408.276-.642.648-.702 1.116h-1.44c.12-.852.516-1.53 1.188-2.034.684-.504 1.536-.756 2.556-.756 1.104 0 1.98.3 2.628.9.648.588.972 1.386.972 2.394v6.786h-1.404v-1.926h-.234l.27-.288c0 .732-.282 1.314-.846 1.746s-1.314.648-2.25.648zm.342-1.152c.792 0 1.44-.198 1.944-.594s.756-.912.756-1.548v-1.494h-3.132c-.564 0-1.014.156-1.35.468s-.504.738-.504 1.278c0 .576.204 1.038.612 1.386.408.336.966.504 1.674.504zm7.265.972v-9.9h1.98l1.44 4.032c.12.348.234.702.342 1.062s.186.642.234.846c.06-.204.138-.486.234-.846.108-.36.222-.72.342-1.08l1.386-4.014h1.962v9.9h-1.386v-2.376c0-.516.006-1.068.018-1.656s.024-1.176.036-1.764.03-1.14.054-1.656c.024-.528.042-.99.054-1.386l-1.962 5.868h-1.512l-1.962-5.832c.024.48.042 1.086.054 1.818.012.72.024 1.482.036 2.286.024.804.036 1.578.036 2.322v2.376zm20.146-5.31v-1.278h10.8v1.278zm26.266 5.31v-8.622h-3.6v-1.278h8.64v1.278h-3.6v8.622zm7.859 3.24v-13.14h1.422v1.746h.378l-.432.594c0-.78.252-1.392.756-1.836.516-.456 1.194-.684 2.034-.684.996 0 1.788.33 2.376.99.6.648.9 1.536.9 2.664v2.934c0 .756-.138 1.41-.414 1.962-.276.54-.66.96-1.152 1.26-.48.3-1.05.45-1.71.45-.828 0-1.5-.228-2.016-.684s-.774-1.068-.774-1.836l.378.594h-.342l.018 2.016v2.97zm3.708-4.302c.72 0 1.278-.216 1.674-.648.408-.432.612-1.044.612-1.836v-2.808c0-.804-.204-1.416-.612-1.836-.396-.432-.954-.648-1.674-.648-.696 0-1.254.222-1.674.666-.408.432-.612 1.038-.612 1.818v2.808c0 .78.204 1.392.612 1.836.42.432.978.648 1.674.648zm7.103 1.062v-9.9h1.386v5.634c0 .336-.012.696-.036 1.08-.012.372-.03.726-.054 1.062s-.048.618-.072.846l4.194-8.622h1.854v9.9h-1.386v-5.634c0-.348.006-.708.018-1.08.024-.372.048-.726.072-1.062.036-.348.06-.636.072-.864l-4.212 8.64zm21.586 0v-9.9h1.44v4.212h4.392v-4.212h1.44v9.9h-1.44v-4.392h-4.392v4.392zm13.655.18c-1.044 0-1.866-.264-2.466-.792-.6-.54-.9-1.266-.9-2.178 0-.9.294-1.608.882-2.124.588-.528 1.38-.792 2.376-.792h3.15v-1.044c0-.66-.192-1.17-.576-1.53s-.93-.54-1.638-.54c-.624 0-1.146.138-1.566.414-.408.276-.642.648-.702 1.116h-1.44c.12-.852.516-1.53 1.188-2.034.684-.504 1.536-.756 2.556-.756 1.104 0 1.98.3 2.628.9.648.588.972 1.386.972 2.394v6.786h-1.404v-1.926h-.234l.27-.288c0 .732-.282 1.314-.846 1.746s-1.314.648-2.25.648zm.342-1.152c.792 0 1.44-.198 1.944-.594s.756-.912.756-1.548v-1.494h-3.132c-.564 0-1.014.156-1.35.468s-.504.738-.504 1.278c0 .576.204 1.038.612 1.386.408.336.966.504 1.674.504zm11.243 1.152c-.768 0-1.44-.15-2.016-.45s-1.026-.726-1.35-1.278c-.312-.564-.468-1.23-.468-1.998v-2.808c0-.768.156-1.428.468-1.98.324-.564.774-.996 1.35-1.296s1.248-.45 2.016-.45c1.128 0 2.034.306 2.718.918s1.038 1.446 1.062 2.502h-1.422c-.024-.684-.246-1.212-.666-1.584-.408-.372-.972-.558-1.692-.558-.732 0-1.314.216-1.746.648-.432.42-.648 1.02-.648 1.8v2.808c0 .768.216 1.368.648 1.8s1.014.648 1.746.648c.72 0 1.284-.186 1.692-.558.42-.384.642-.912.666-1.584h1.422c-.024 1.056-.378 1.89-1.062 2.502s-1.59.918-2.718.918zm6.617-.18v-9.9h1.35v3.672h.882c1.056 0 1.89.282 2.502.846.624.552.936 1.308.936 2.268s-.306 1.722-.918 2.286c-.612.552-1.452.828-2.52.828zm1.35-1.17h.882c.672 0 1.194-.168 1.566-.504.384-.348.576-.828.576-1.44s-.192-1.086-.576-1.422c-.372-.348-.894-.522-1.566-.522h-.882zm5.616 1.17v-9.9h1.35v9.9zm11.585 2.52v-2.52h-7.794v-9.9h1.296v8.694h2.25v-8.694h1.152v8.694h2.25v-8.694h1.296v8.694h.846v3.726zm7.193-2.34c-.768 0-1.434-.15-1.998-.45-.564-.312-1.002-.75-1.314-1.314s-.468-1.218-.468-1.962v-2.808c0-.756.156-1.41.468-1.962.312-.564.75-.996 1.314-1.296.564-.312 1.23-.468 1.998-.468s1.434.156 1.998.468c.564.3 1.002.732 1.314 1.296.312.552.468 1.206.468 1.962v1.746h-6.156v1.062c0 .804.204 1.428.612 1.872.42.432 1.008.648 1.764.648.636 0 1.152-.126 1.548-.378.408-.252.666-.618.774-1.098h1.422c-.132.828-.534 1.482-1.206 1.962s-1.518.72-2.538.72zm2.376-5.742v-.792c0-.804-.204-1.422-.612-1.854-.408-.444-.996-.666-1.764-.666-.756 0-1.344.222-1.764.666-.408.432-.612 1.05-.612 1.854v.63h4.896zm4.781 5.562v-9.9h1.44v4.212h4.392v-4.212h1.44v9.9h-1.44v-4.392h-4.392v4.392zm10.792 0v-9.9h1.44v4.212h4.392v-4.212h1.44v9.9h-1.44v-4.392h-4.392v4.392zm10.271 0v-9.9h1.35v3.672h.882c1.056 0 1.89.282 2.502.846.624.552.936 1.308.936 2.268s-.306 1.722-.918 2.286c-.612.552-1.452.828-2.52.828zm1.35-1.17h.882c.672 0 1.194-.168 1.566-.504.384-.348.576-.828.576-1.44s-.192-1.086-.576-1.422c-.372-.348-.894-.522-1.566-.522h-.882zm5.616 1.17v-9.9h1.35v9.9zm3.611 0 3.51-5.094-3.294-4.806h1.674l2.088 3.204c.072.12.144.258.216.414.084.144.15.258.198.342.048-.084.108-.198.18-.342.084-.156.162-.294.234-.414l2.088-3.204h1.656l-3.294 4.824 3.492 5.076h-1.674l-2.232-3.384c-.084-.12-.168-.264-.252-.432-.072-.168-.138-.3-.198-.396-.048.096-.12.228-.216.396s-.186.312-.27.432l-2.25 3.384zm-550.027 24v-9.9h1.98l1.44 4.032c.12.348.234.702.342 1.062s.186.642.234.846c.06-.204.138-.486.234-.846.108-.36.222-.72.342-1.08l1.386-4.014h1.962v9.9h-1.386v-2.376c0-.516.006-1.068.018-1.656s.024-1.176.036-1.764.03-1.14.054-1.656c.024-.528.042-.99.054-1.386l-1.962 5.868h-1.512l-1.962-5.832c.024.48.042 1.086.054 1.818.012.72.024 1.482.036 2.286.024.804.036 1.578.036 2.322v2.376zm14.753.18c-.768 0-1.434-.15-1.998-.45-.564-.312-1.002-.75-1.314-1.314s-.468-1.218-.468-1.962v-2.808c0-.756.156-1.41.468-1.962.312-.564.75-.996 1.314-1.296.564-.312 1.23-.468 1.998-.468s1.434.156 1.998.468c.564.3 1.002.732 1.314 1.296.312.552.468 1.206.468 1.962v1.746h-6.156v1.062c0 .804.204 1.428.612 1.872.42.432 1.008.648 1.764.648.636 0 1.152-.126 1.548-.378.408-.252.666-.618.774-1.098h1.422c-.132.828-.534 1.482-1.206 1.962s-1.518.72-2.538.72zm2.376-5.742v-.792c0-.804-.204-1.422-.612-1.854-.408-.444-.996-.666-1.764-.666-.756 0-1.344.222-1.764.666-.408.432-.612 1.05-.612 1.854v.63h4.896zm8.435 5.742c-.768 0-1.44-.15-2.016-.45s-1.026-.726-1.35-1.278c-.312-.564-.468-1.23-.468-1.998v-2.808c0-.768.156-1.428.468-1.98.324-.564.774-.996 1.35-1.296s1.248-.45 2.016-.45c1.128 0 2.034.306 2.718.918s1.038 1.446 1.062 2.502h-1.422c-.024-.684-.246-1.212-.666-1.584-.408-.372-.972-.558-1.692-.558-.732 0-1.314.216-1.746.648-.432.42-.648 1.02-.648 1.8v2.808c0 .768.216 1.368.648 1.8s1.014.648 1.746.648c.72 0 1.284-.186 1.692-.558.42-.384.642-.912.666-1.584h1.422c-.024 1.056-.378 1.89-1.062 2.502s-1.59.918-2.718.918zm6.581-.18 2.52-3.834c-.768-.168-1.362-.51-1.782-1.026s-.63-1.164-.63-1.944c0-.96.318-1.716.954-2.268.648-.552 1.524-.828 2.628-.828h4.14v9.9h-1.44v-3.708h-2.394l-2.34 3.708zm3.69-4.986h2.7v-3.636h-2.7c-.648 0-1.164.162-1.548.486s-.576.768-.576 1.332.192 1.008.576 1.332.9.486 1.548.486zm14.699 7.506v-2.52h-7.038v-9.9h1.44v8.622h4.104v-8.622h1.422v8.622h1.368v3.798zm6.617-2.34c-1.044 0-1.866-.264-2.466-.792-.6-.54-.9-1.266-.9-2.178 0-.9.294-1.608.882-2.124.588-.528 1.38-.792 2.376-.792h3.15v-1.044c0-.66-.192-1.17-.576-1.53s-.93-.54-1.638-.54c-.624 0-1.146.138-1.566.414-.408.276-.642.648-.702 1.116h-1.44c.12-.852.516-1.53 1.188-2.034.684-.504 1.536-.756 2.556-.756 1.104 0 1.98.3 2.628.9.648.588.972 1.386.972 2.394v6.786h-1.404v-1.926h-.234l.27-.288c0 .732-.282 1.314-.846 1.746s-1.314.648-2.25.648zm.342-1.152c.792 0 1.44-.198 1.944-.594s.756-.912.756-1.548v-1.494h-3.132c-.564 0-1.014.156-1.35.468s-.504.738-.504 1.278c0 .576.204 1.038.612 1.386.408.336.966.504 1.674.504zm18.382.972v-9.9h4.248c.984 0 1.758.234 2.322.702.564.456.846 1.092.846 1.908 0 .684-.234 1.236-.702 1.656-.456.408-1.068.612-1.836.612v-.126c.828 0 1.494.216 1.998.648.504.42.756.984.756 1.692 0 .876-.3 1.566-.9 2.07-.588.492-1.404.738-2.448.738zm1.404-1.26h2.88c.588 0 1.056-.138 1.404-.414.348-.288.522-.672.522-1.152 0-.504-.174-.894-.522-1.17-.348-.288-.816-.432-1.404-.432h-2.88zm0-4.41h2.844c.528 0 .948-.132 1.26-.396.324-.264.486-.624.486-1.08s-.162-.816-.486-1.08c-.312-.276-.732-.414-1.26-.414h-2.844zm9.065 5.67v-9.9h1.98l1.44 4.032c.12.348.234.702.342 1.062s.186.642.234.846c.06-.204.138-.486.234-.846.108-.36.222-.72.342-1.08l1.386-4.014h1.962v9.9h-1.386v-2.376c0-.516.006-1.068.018-1.656s.024-1.176.036-1.764.03-1.14.054-1.656c.024-.528.042-.99.054-1.386l-1.962 5.868h-1.512l-1.962-5.832c.024.48.042 1.086.054 1.818.012.72.024 1.482.036 2.286.024.804.036 1.578.036 2.322v2.376zm14.753.18c-.768 0-1.434-.15-1.998-.45-.564-.312-1.002-.75-1.314-1.314s-.468-1.218-.468-1.962v-2.808c0-.756.156-1.41.468-1.962.312-.564.75-.996 1.314-1.296.564-.312 1.23-.468 1.998-.468s1.434.156 1.998.468c.564.3 1.002.732 1.314 1.296.312.552.468 1.206.468 1.962v1.746h-6.156v1.062c0 .804.204 1.428.612 1.872.42.432 1.008.648 1.764.648.636 0 1.152-.126 1.548-.378.408-.252.666-.618.774-1.098h1.422c-.132.828-.534 1.482-1.206 1.962s-1.518.72-2.538.72zm2.376-5.742v-.792c0-.804-.204-1.422-.612-1.854-.408-.444-.996-.666-1.764-.666-.756 0-1.344.222-1.764.666-.408.432-.612 1.05-.612 1.854v.63h4.896zm8.435 5.742c-.768 0-1.44-.15-2.016-.45s-1.026-.726-1.35-1.278c-.312-.564-.468-1.23-.468-1.998v-2.808c0-.768.156-1.428.468-1.98.324-.564.774-.996 1.35-1.296s1.248-.45 2.016-.45c1.128 0 2.034.306 2.718.918s1.038 1.446 1.062 2.502h-1.422c-.024-.684-.246-1.212-.666-1.584-.408-.372-.972-.558-1.692-.558-.732 0-1.314.216-1.746.648-.432.42-.648 1.02-.648 1.8v2.808c0 .768.216 1.368.648 1.8s1.014.648 1.746.648c.72 0 1.284-.186 1.692-.558.42-.384.642-.912.666-1.584h1.422c-.024 1.056-.378 1.89-1.062 2.502s-1.59.918-2.718.918zm10.055-.18v-8.622h-3.6v-1.278h8.64v1.278h-3.6v8.622zm11.513.162c-.768 0-1.434-.15-1.998-.45s-1.002-.732-1.314-1.296-.468-1.23-.468-1.998v-2.736c0-.78.156-1.446.468-1.998.312-.564.75-.996 1.314-1.296s1.23-.45 1.998-.45 1.434.15 1.998.45 1.002.732 1.314 1.296c.312.552.468 1.212.468 1.98v2.754c0 .768-.156 1.434-.468 1.998s-.75.996-1.314 1.296-1.23.45-1.998.45zm0-1.278c.744 0 1.32-.21 1.728-.63s.612-1.032.612-1.836v-2.736c0-.804-.21-1.416-.63-1.836-.408-.42-.978-.63-1.71-.63s-1.308.21-1.728.63c-.408.42-.612 1.032-.612 1.836v2.736c0 .804.204 1.416.612 1.836.42.42.996.63 1.728.63zm17.95 1.116v-9.9h7.272v9.9h-1.44v-8.604h-4.392v8.604zm14.429.162c-.768 0-1.434-.15-1.998-.45s-1.002-.732-1.314-1.296-.468-1.23-.468-1.998v-2.736c0-.78.156-1.446.468-1.998.312-.564.75-.996 1.314-1.296s1.23-.45 1.998-.45 1.434.15 1.998.45 1.002.732 1.314 1.296c.312.552.468 1.212.468 1.98v2.754c0 .768-.156 1.434-.468 1.998s-.75.996-1.314 1.296-1.23.45-1.998.45zm0-1.278c.744 0 1.32-.21 1.728-.63s.612-1.032.612-1.836v-2.736c0-.804-.21-1.416-.63-1.836-.408-.42-.978-.63-1.71-.63s-1.308.21-1.728.63c-.408.42-.612 1.032-.612 1.836v2.736c0 .804.204 1.416.612 1.836.42.42.996.63 1.728.63zm5.897 1.242v-1.35h.36c.516 0 .894-.21 1.134-.63.24-.432.366-1.146.377-2.142l.127-5.904h6.534v9.9h-1.44v-8.604h-3.69l-.108 4.662c-.012.936-.126 1.704-.342 2.304-.204.6-.516 1.044-.936 1.332-.408.288-.942.432-1.602.432zm13.6 3.114 1.458-3.87-3.672-9.27h1.584l2.34 6.174c.096.24.186.51.27.81.096.288.168.528.216.72.06-.192.132-.438.216-.738s.168-.57.252-.81l2.196-6.156h1.53l-4.878 13.14zm12.161-3.24v-8.622h-3.6v-1.278h8.64v1.278h-3.6v8.622zm11.513.162c-.768 0-1.434-.15-1.998-.45s-1.002-.732-1.314-1.296-.468-1.23-.468-1.998v-2.736c0-.78.156-1.446.468-1.998.312-.564.75-.996 1.314-1.296s1.23-.45 1.998-.45 1.434.15 1.998.45 1.002.732 1.314 1.296c.312.552.468 1.212.468 1.98v2.754c0 .768-.156 1.434-.468 1.998s-.75.996-1.314 1.296-1.23.45-1.998.45zm0-1.278c.744 0 1.32-.21 1.728-.63s.612-1.032.612-1.836v-2.736c0-.804-.21-1.416-.63-1.836-.408-.42-.978-.63-1.71-.63s-1.308.21-1.728.63c-.408.42-.612 1.032-.612 1.836v2.736c0 .804.204 1.416.612 1.836.42.42.996.63 1.728.63zm7.139 4.356v-13.14h1.422v1.746h.378l-.432.594c0-.78.252-1.392.756-1.836.516-.456 1.194-.684 2.034-.684.996 0 1.788.33 2.376.99.6.648.9 1.536.9 2.664v2.934c0 .756-.138 1.41-.414 1.962-.276.54-.66.96-1.152 1.26-.48.3-1.05.45-1.71.45-.828 0-1.5-.228-2.016-.684s-.774-1.068-.774-1.836l.378.594h-.342l.018 2.016v2.97zm3.708-4.302c.72 0 1.278-.216 1.674-.648.408-.432.612-1.044.612-1.836v-2.808c0-.804-.204-1.416-.612-1.836-.396-.432-.954-.648-1.674-.648-.696 0-1.254.222-1.674.666-.408.432-.612 1.038-.612 1.818v2.808c0 .78.204 1.392.612 1.836.42.432.978.648 1.674.648zm9.965 1.242c-1.044 0-1.866-.264-2.466-.792-.6-.54-.9-1.266-.9-2.178 0-.9.294-1.608.882-2.124.588-.528 1.38-.792 2.376-.792h3.15v-1.044c0-.66-.192-1.17-.576-1.53s-.93-.54-1.638-.54c-.624 0-1.146.138-1.566.414-.408.276-.642.648-.702 1.116h-1.44c.12-.852.516-1.53 1.188-2.034.684-.504 1.536-.756 2.556-.756 1.104 0 1.98.3 2.628.9.648.588.972 1.386.972 2.394v6.786h-1.404v-1.926h-.234l.27-.288c0 .732-.282 1.314-.846 1.746s-1.314.648-2.25.648zm.342-1.152c.792 0 1.44-.198 1.944-.594s.756-.912.756-1.548v-1.494h-3.132c-.564 0-1.014.156-1.35.468s-.504.738-.504 1.278c0 .576.204 1.038.612 1.386.408.336.966.504 1.674.504zm18.364 4.212v-13.14h1.422v1.746h.378l-.432.594c0-.78.252-1.392.756-1.836.516-.456 1.194-.684 2.034-.684.996 0 1.788.33 2.376.99.6.648.9 1.536.9 2.664v2.934c0 .756-.138 1.41-.414 1.962-.276.54-.66.96-1.152 1.26-.48.3-1.05.45-1.71.45-.828 0-1.5-.228-2.016-.684s-.774-1.068-.774-1.836l.378.594h-.342l.018 2.016v2.97zm3.708-4.302c.72 0 1.278-.216 1.674-.648.408-.432.612-1.044.612-1.836v-2.808c0-.804-.204-1.416-.612-1.836-.396-.432-.954-.648-1.674-.648-.696 0-1.254.222-1.674.666-.408.432-.612 1.038-.612 1.818v2.808c0 .78.204 1.392.612 1.836.42.432.978.648 1.674.648zm9.965 1.242c-1.044 0-1.866-.264-2.466-.792-.6-.54-.9-1.266-.9-2.178 0-.9.294-1.608.882-2.124.588-.528 1.38-.792 2.376-.792h3.15v-1.044c0-.66-.192-1.17-.576-1.53s-.93-.54-1.638-.54c-.624 0-1.146.138-1.566.414-.408.276-.642.648-.702 1.116h-1.44c.12-.852.516-1.53 1.188-2.034.684-.504 1.536-.756 2.556-.756 1.104 0 1.98.3 2.628.9.648.588.972 1.386.972 2.394v6.786h-1.404v-1.926h-.234l.27-.288c0 .732-.282 1.314-.846 1.746s-1.314.648-2.25.648zm.342-1.152c.792 0 1.44-.198 1.944-.594s.756-.912.756-1.548v-1.494h-3.132c-.564 0-1.014.156-1.35.468s-.504.738-.504 1.278c0 .576.204 1.038.612 1.386.408.336.966.504 1.674.504zm11.243 1.152c-.768 0-1.44-.15-2.016-.45s-1.026-.726-1.35-1.278c-.312-.564-.468-1.23-.468-1.998v-2.808c0-.768.156-1.428.468-1.98.324-.564.774-.996 1.35-1.296s1.248-.45 2.016-.45c1.128 0 2.034.306 2.718.918s1.038 1.446 1.062 2.502h-1.422c-.024-.684-.246-1.212-.666-1.584-.408-.372-.972-.558-1.692-.558-.732 0-1.314.216-1.746.648-.432.42-.648 1.02-.648 1.8v2.808c0 .768.216 1.368.648 1.8s1.014.648 1.746.648c.72 0 1.284-.186 1.692-.558.42-.384.642-.912.666-1.584h1.422c-.024 1.056-.378 1.89-1.062 2.502s-1.59.918-2.718.918zm10.055-.18v-8.622h-3.6v-1.278h8.64v1.278h-3.6v8.622zm7.319 0 2.52-3.834c-.768-.168-1.362-.51-1.782-1.026s-.63-1.164-.63-1.944c0-.96.318-1.716.954-2.268.648-.552 1.524-.828 2.628-.828h4.14v9.9h-1.44v-3.708h-2.394l-2.34 3.708zm3.69-4.986h2.7v-3.636h-2.7c-.648 0-1.164.162-1.548.486s-.576.768-.576 1.332.192 1.008.576 1.332.9.486 1.548.486zm7.661 4.986v-9.9h1.44v4.212h4.392v-4.212h1.44v9.9h-1.44v-4.392h-4.392v4.392zm12.341 3.24 1.458-3.87-3.672-9.27h1.584l2.34 6.174c.096.24.186.51.27.81.096.288.168.528.216.72.06-.192.132-.438.216-.738s.168-.57.252-.81l2.196-6.156h1.53l-4.878 13.14zm12.161-3.24v-8.622h-3.6v-1.278h8.64v1.278h-3.6v8.622zm7.355 0v-9.9h1.35v3.672h.882c1.056 0 1.89.282 2.502.846.624.552.936 1.308.936 2.268s-.306 1.722-.918 2.286c-.612.552-1.452.828-2.52.828zm1.35-1.17h.882c.672 0 1.194-.168 1.566-.504.384-.348.576-.828.576-1.44s-.192-1.086-.576-1.422c-.372-.348-.894-.522-1.566-.522h-.882zm5.616 1.17v-9.9h1.35v9.9zm3.611 0 3.51-5.094-3.294-4.806h1.674l2.088 3.204c.072.12.144.258.216.414.084.144.15.258.198.342.048-.084.108-.198.18-.342.084-.156.162-.294.234-.414l2.088-3.204h1.656l-3.294 4.824 3.492 5.076h-1.674l-2.232-3.384c-.084-.12-.168-.264-.252-.432-.072-.168-.138-.3-.198-.396-.048.096-.12.228-.216.396s-.186.312-.27.432l-2.25 3.384zm21.064.126v-1.35h.36c.516 0 .894-.21 1.134-.63.24-.432.366-1.146.378-2.142l.126-5.904h6.534v9.9h-1.44v-8.604h-3.69l-.108 4.662c-.012.936-.126 1.704-.342 2.304-.204.6-.516 1.044-.936 1.332-.408.288-.942.432-1.602.432zm15.689.054c-.768 0-1.434-.15-1.998-.45-.564-.312-1.002-.75-1.314-1.314s-.468-1.218-.468-1.962v-2.808c0-.756.156-1.41.468-1.962.312-.564.75-.996 1.314-1.296.564-.312 1.23-.468 1.998-.468s1.434.156 1.998.468c.564.3 1.002.732 1.314 1.296.312.552.468 1.206.468 1.962v1.746h-6.156v1.062c0 .804.204 1.428.612 1.872.42.432 1.008.648 1.764.648.636 0 1.152-.126 1.548-.378.408-.252.666-.618.774-1.098h1.422c-.132.828-.534 1.482-1.206 1.962s-1.518.72-2.538.72zm2.376-5.742v-.792c0-.804-.204-1.422-.612-1.854-.408-.444-.996-.666-1.764-.666-.756 0-1.344.222-1.764.666-.408.432-.612 1.05-.612 1.854v.63h4.896zm7.697 5.562v-8.622h-3.6v-1.278h8.64v1.278h-3.6v8.622zm11.513.18c-.444 0-.798-.126-1.062-.378-.252-.264-.378-.612-.378-1.044 0-.456.126-.816.378-1.08.264-.264.618-.396 1.062-.396s.792.132 1.044.396c.264.264.396.624.396 1.08 0 .432-.132.78-.396 1.044-.252.252-.6.378-1.044.378z" fill="#fff"/><path d="m40 56h50v7.99997h-50z" fill="#9178bc"/><g fill="#fff"><path d="m40 43.6027 9.2813-.0142c.0594.566.3168.9763.7722 1.231.4653.2453 1.2127.3679 2.2423.3679.8613 0 1.5098-.0896 1.9454-.2688.4455-.1887.6682-.4669.6682-.8348 0-.6415-1.1533-1.0613-3.46-1.2594-.4554-.0471-.8019-.0801-1.0395-.099-.0198 0-.0396 0-.0594 0-3.7224-.349-6.237-.8018-7.5438-1.3584-.7623-.3207-1.3514-.8254-1.7672-1.514-.4059-.6886-.6088-1.4998-.6088-2.4337 0-1.8772.9009-3.2497 2.7027-4.1175 1.8018-.8679 4.6728-1.3018 8.613-1.3018 3.7224 0 6.4894.4434 8.3011 1.3301 1.8216.8867 2.7918 2.2592 2.9106 4.1175h-8.7466c-.0495-.5471-.3168-.9433-.8019-1.1886-.4752-.2452-1.2425-.3679-2.3018-.3679-.9009 0-1.5642.0944-1.9899.283-.4158.1793-.6237.4623-.6237.849 0 .6226.99 1.0093 2.97 1.1603.4158.0377.7326.066.9504.0849.1584.0094.4059.0283.7425.0566 3.9897.3396 6.3162.6178 6.9795.8348 1.3068.4434 2.2275.9905 2.7621 1.6414.5346.6414.8019 1.5234.8019 2.6459 0 2.0753-.9603 3.5752-2.8809 4.4996-1.9107.9244-5.049 1.3867-9.4149 1.3867-3.8808 0-6.732-.4575-8.5536-1.3725-1.8117-.9245-2.7621-2.3772-2.8512-4.3581z"/><path d="m90 41.65c-.2772 2.5564-1.4355 4.476-3.4749 5.7589-2.0295 1.2829-4.9253 1.9244-8.6873 1.9244-3.8907 0-6.9003-.7547-9.0288-2.264-2.1186-1.5093-3.1779-3.6411-3.1779-6.3956 0-2.745 1.0593-4.8769 3.1779-6.3956 2.1285-1.5187 5.1381-2.2781 9.0288-2.2781 3.6135 0 6.4301.5896 8.4497 1.7687s3.2076 2.929 3.564 5.2495h-8.1527c-.3069-.7452-.7672-1.3018-1.381-1.6696-.6138-.3774-1.3811-.566-2.3018-.566-1.3563 0-2.4205.3443-3.1927 1.0329-.7722.6792-1.1583 1.6225-1.1583 2.8299 0 1.1697.3762 2.0989 1.1286 2.7875s1.7671 1.0329 3.0442 1.0329c1.0593 0 1.9503-.25 2.673-.7499.7326-.5094 1.188-1.198 1.3662-2.0659z"/><path d="m47.4495 83.4669c0 1.069.3492 1.9289 1.0476 2.5796.6984.6413 1.6199.962 2.7645.962 1.164 0 2.0903-.3207 2.779-.962.6984-.6507 1.0476-1.5106 1.0476-2.5796 0-1.0782-.3492-1.9381-1.0476-2.5795-.6887-.6414-1.615-.9621-2.779-.9621-1.1446 0-2.0661.3207-2.7645.9621s-1.0476 1.5013-1.0476 2.5795zm-7.4495 7.9896v-20.7895h7.4495v6.1072c.9021-.5764 1.8576-1.004 2.8664-1.2828 1.0184-.2882 2.1291-.4323 3.3319-.4323 2.8323 0 5.0827.7576 6.7511 2.2728 1.6781 1.5152 2.5171 3.5602 2.5171 6.135 0 2.5377-.8293 4.5735-2.488 6.1072-1.6587 1.5245-3.88 2.2867-6.6638 2.2867-1.3095 0-2.5123-.1627-3.6084-.488-1.0961-.3346-2.0952-.832-2.9973-1.4919l-.0582 1.5756z"/><path d="m88.6111 84.429c-.2716 2.5191-1.4065 4.4108-3.4047 5.675-1.9884 1.2642-4.8257 1.8962-8.5116 1.8962-3.8121 0-6.7609-.7436-8.8464-2.2309-2.0757-1.4873-3.1136-3.5881-3.1136-6.3024 0-2.705 1.0379-4.8057 3.1136-6.3023 2.0855-1.4966 5.0343-2.2449 8.8464-2.2449 3.5404 0 6.3001.581 8.2788 1.7429 1.9788 1.162 3.1428 2.8863 3.492 5.173h-7.9879c-.3007-.7344-.7517-1.2828-1.3531-1.6453-.6014-.3719-1.3531-.5578-2.2552-.5578-1.3289 0-2.3717.3393-3.1283 1.0179-.7566.6693-1.1348 1.5988-1.1348 2.7887 0 1.1526.3685 2.0682 1.1057 2.7468s1.7315 1.0179 2.9828 1.0179c1.0379 0 1.9108-.2464 2.6189-.739.7178-.502 1.164-1.1806 1.3386-2.0358z"/></g></svg>