<svg fill="none" height="160" viewBox="0 0 550 160" width="550" xmlns="http://www.w3.org/2000/svg"><path d="m0 0h550v160h-550z" fill="#3f3948"/><path d="m45 68h93v15.9999h-93z" fill="#9178bc"/><g fill="#fff"><path d="m45 43.2054 17.2631-.0283c.1105 1.1319.5893 1.9526 1.4363 2.462.8655.4905 2.2557.7358 4.1708.7358 1.602 0 2.8081-.1793 3.6184-.5377.8286-.3773 1.2429-.9339 1.2429-1.6697 0-1.2829-2.1452-2.1224-6.4357-2.5186-.847-.0943-1.4915-.1604-1.9335-.1981-.0368 0-.0736 0-.1104 0-6.9237-.698-11.6009-1.6036-14.0315-2.7167-1.4179-.6415-2.5135-1.6508-3.2869-3.028-.755-1.3773-1.1325-2.9998-1.1325-4.8675 0-3.7544 1.6757-6.4994 5.027-8.2351 3.3514-1.7357 8.6915-2.6035 16.0202-2.6035 6.9237 0 12.0704.8867 15.4402 2.6601 3.3882 1.7734 5.1927 4.5185 5.4137 8.2351h-16.2688c-.0921-1.0942-.5892-1.8866-1.4915-2.3771-.8839-.4906-2.311-.7358-4.2813-.7358-1.6756 0-2.9094.1886-3.7012.566-.7734.3584-1.1601.9244-1.1601 1.6979 0 1.2452 1.8414 2.0187 5.5242 2.3206.7734.0754 1.3627.132 1.7678.1698.2946.0188.755.0565 1.381.1131 7.4209.6792 11.7482 1.2358 12.9819 1.6697 2.4307.8867 4.1432 1.9809 5.1375 3.2827.9944 1.2829 1.4916 3.0469 1.4916 5.292 0 4.1505-1.7862 7.1502-5.3585 8.9991-3.5539 1.8489-9.3912 2.7733-17.5118 2.7733-7.2182 0-12.5215-.915-15.9097-2.745-3.3697-1.8489-5.1375-4.7543-5.3032-8.7161z"/><path d="m138 39.3001c-.516 5.1127-2.67 8.9519-6.463 11.5177-3.775 2.5658-9.161 3.8487-16.159 3.8487-7.236 0-12.834-1.5093-16.7932-4.5278-3.9406-3.0186-5.9109-7.2824-5.9109-12.7913 0-5.49 1.9703-9.7538 5.9109-12.7912 3.9592-3.0375 9.5572-4.5562 16.7932-4.5562 6.721 0 11.96 1.1791 15.717 3.5374 3.756 2.3583 5.966 5.8579 6.629 10.499h-15.164c-.571-1.4904-1.427-2.6035-2.569-3.3393-1.142-.7546-2.569-1.132-4.281-1.132-2.523 0-4.502.6886-5.939 2.0659-1.436 1.3583-2.154 3.245-2.154 5.6598 0 2.3394.7 4.1977 2.099 5.575 1.4 1.3772 3.287 2.0658 5.662 2.0658 1.971 0 3.628-.4999 4.972-1.4999 1.363-1.0187 2.21-2.396 2.541-4.1316z"/><path d="m58.8561 122.933c0 2.138.6495 3.858 1.9485 5.159 1.2991 1.283 3.013 1.924 5.142 1.924 2.165 0 3.888-.641 5.169-1.924 1.299-1.301 1.9485-3.021 1.9485-5.159 0-2.156-.6495-3.876-1.9485-5.159-1.281-1.283-3.004-1.924-5.169-1.924-2.129 0-3.8429.641-5.142 1.924-1.299 1.283-1.9485 3.003-1.9485 5.159zm-13.8561 15.979v-41.5787h13.8561v12.2147c1.6779-1.153 3.455-2.008 5.3314-2.566 1.8944-.576 3.9602-.864 6.1974-.864 5.2682 0 9.4539 1.515 12.5571 4.545 3.1212 3.03 4.6818 7.12 4.6818 12.27 0 5.076-1.5425 9.147-4.6277 12.214-3.0851 3.049-7.2167 4.574-12.3947 4.574-2.4357 0-4.6729-.325-6.7116-.976-2.0387-.669-3.897-1.664-5.5749-2.984l-.1083 3.151z"/><path d="m135.417 124.857c-.506 5.039-2.616 8.822-6.333 11.35-3.699 2.529-8.976 3.793-15.832 3.793-7.09 0-12.575-1.488-16.4539-4.462-3.8609-2.975-5.7914-7.176-5.7914-12.605 0-5.41 1.9305-9.611 5.7914-12.605 3.8789-2.993 9.3639-4.489 16.4539-4.489 6.586 0 11.718 1.162 15.399 3.485 3.681 2.324 5.846 5.773 6.495 10.346h-14.857c-.56-1.468-1.399-2.565-2.517-3.29-1.119-.744-2.517-1.116-4.195-1.116-2.472 0-4.411.679-5.818 2.036-1.408 1.339-2.111 3.198-2.111 5.577 0 2.306.685 4.137 2.056 5.494 1.372 1.357 3.221 2.036 5.548 2.036 1.931 0 3.555-.493 4.872-1.478 1.335-1.004 2.165-2.361 2.489-4.072z"/><path d="m169.452 37v-16.06h3.3v6.16h3.696v-6.16h3.3v16.06h-3.3v-6.82h-3.696v6.82zm18.361.22c-1.07 0-2.009-.198-2.816-.594-.792-.4107-1.408-.9753-1.848-1.694-.425-.7333-.638-1.584-.638-2.552v-2.86c0-.968.213-1.8113.638-2.53.44-.7333 1.056-1.298 1.848-1.694.807-.4107 1.746-.616 2.816-.616 1.071 0 1.995.2053 2.772.616.792.396 1.401.9607 1.826 1.694.44.7187.66 1.562.66 2.53v2.2h-7.414v.66c0 .7627.184 1.342.55 1.738.367.3813.917.572 1.65.572.514 0 .924-.088 1.232-.264.323-.176.536-.418.638-.726h3.234c-.264 1.056-.865 1.9067-1.804 2.552-.924.6453-2.038.968-3.344.968zm2.112-7.194v-.55c0-.748-.176-1.32-.528-1.716-.337-.396-.865-.594-1.584-.594-.718 0-1.261.2053-1.628.616-.352.4107-.528.99-.528 1.738v.33l4.488-.044zm24.249 7.194c-1.07 0-2.002-.198-2.794-.594-.792-.4107-1.408-.9753-1.848-1.694-.425-.7333-.638-1.584-.638-2.552v-2.86c0-.968.213-1.8113.638-2.53.44-.7333 1.056-1.298 1.848-1.694.792-.4107 1.724-.616 2.794-.616 1.086 0 2.017.2053 2.794.616.792.396 1.401.9607 1.826 1.694.44.7187.66 1.562.66 2.53v2.86c0 .968-.22 1.8187-.66 2.552-.425.7187-1.034 1.2833-1.826 1.694-.777.396-1.708.594-2.794.594zm0-2.86c.646 0 1.137-.1687 1.474-.506.338-.352.506-.8433.506-1.474v-2.86c0-.6453-.168-1.1367-.506-1.474-.337-.3373-.828-.506-1.474-.506-.63 0-1.122.1687-1.474.506-.337.3373-.506.8287-.506 1.474v2.86c0 .6307.169 1.122.506 1.474.352.3373.844.506 1.474.506zm8.044 2.64v-12.1h3.3v4.422h3.696v-4.422h3.3v12.1h-3.3v-4.598h-3.696v4.598zm12.201.154v-2.97h.66c.381 0 .697-.1613.946-.484s.381-.748.396-1.276l.132-7.524h9.152v12.1h-3.3v-9.02h-2.618l-.088 4.664c-.015.8947-.213 1.6867-.594 2.376-.367.6747-.88 1.2027-1.54 1.584-.645.3667-1.401.55-2.266.55zm17.767.066c-1.217 0-2.185-.33-2.904-.99-.704-.66-1.056-1.5547-1.056-2.684 0-1.2173.418-2.1487 1.254-2.794.851-.66 2.068-.99 3.652-.99h2.508v-.902c0-.4693-.168-.8433-.506-1.122-.322-.2787-.762-.418-1.32-.418-.513 0-.938.1173-1.276.352-.337.2347-.542.5573-.616.968h-3.19c.132-1.2173.66-2.178 1.584-2.882.939-.7187 2.142-1.078 3.608-1.078 1.54 0 2.758.3813 3.652 1.144.91.748 1.364 1.76 1.364 3.036v8.14h-3.19v-1.98h-.528l.55-.77c0 .9093-.33 1.6353-.99 2.178-.645.528-1.51.792-2.596.792zm1.232-2.42c.646 0 1.174-.1687 1.584-.506.426-.352.638-.8067.638-1.364v-1.298h-2.442c-.498 0-.902.1467-1.21.44-.308.2787-.462.6527-.462 1.122 0 .4987.169.8947.506 1.188.338.2787.8.418 1.386.418zm8.374 2.2v-12.1h2.904v5.5c0 .3667-.022.8287-.066 1.386-.044.5427-.103 1.0927-.176 1.65-.059.5573-.125 1.0487-.198 1.474l3.828-10.01h4.004v12.1h-2.904v-5.5c0-.3813.022-.814.066-1.298.044-.4987.095-.9973.154-1.496s.117-.924.176-1.276l-3.784 9.57zm5.236-13.97c-1.203 0-2.185-.3007-2.948-.902-.748-.616-1.122-1.4153-1.122-2.398h2.53c0 .4107.139.748.418 1.012.293.2493.667.374 1.122.374.469 0 .843-.1247 1.122-.374.279-.264.418-.6013.418-1.012h2.53c0 .9827-.374 1.782-1.122 2.398-.748.6013-1.731.902-2.948.902zm7.955 13.97v-12.1h3.3v4.422h3.696v-4.422h3.3v12.1h-3.3v-4.598h-3.696v4.598zm14.82-5.72v-3.08h7.04v3.08zm10.991 5.72v-12.1h2.706v9.9h1.87v-9.9h2.288v9.9h1.87v-9.9h2.706v12.1zm13.829 0v-12.1h3.3v4.576h1.628l2.53-4.576h3.674l-3.366 5.918 3.432 6.182h-3.74l-2.552-4.752h-1.606v4.752zm18.274.22c-1.071 0-2.002-.198-2.794-.594-.792-.4107-1.408-.9753-1.848-1.694-.425-.7333-.638-1.584-.638-2.552v-2.86c0-.968.213-1.8113.638-2.53.44-.7333 1.056-1.298 1.848-1.694.792-.4107 1.723-.616 2.794-.616 1.085 0 2.017.2053 2.794.616.792.396 1.401.9607 1.826 1.694.44.7187.66 1.562.66 2.53v2.86c0 .968-.22 1.8187-.66 2.552-.425.7187-1.034 1.2833-1.826 1.694-.777.396-1.709.594-2.794.594zm0-2.86c.645 0 1.137-.1687 1.474-.506.337-.352.506-.8433.506-1.474v-2.86c0-.6453-.169-1.1367-.506-1.474s-.829-.506-1.474-.506c-.631 0-1.122.1687-1.474.506-.337.3373-.506.8287-.506 1.474v2.86c0 .6307.169 1.122.506 1.474.352.3373.843.506 1.474.506zm7.053 2.794v-2.97h.66c.382 0 .697-.1613.946-.484.25-.3227.382-.748.396-1.276l.132-7.524h9.152v12.1h-3.3v-9.02h-2.618l-.088 4.664c-.014.8947-.212 1.6867-.594 2.376-.366.6747-.88 1.2027-1.54 1.584-.645.3667-1.4.55-2.266.55zm17.768.066c-1.218 0-2.186-.33-2.904-.99-.704-.66-1.056-1.5547-1.056-2.684 0-1.2173.418-2.1487 1.254-2.794.85-.66 2.068-.99 3.652-.99h2.508v-.902c0-.4693-.169-.8433-.506-1.122-.323-.2787-.763-.418-1.32-.418-.514 0-.939.1173-1.276.352-.338.2347-.543.5573-.616.968h-3.19c.132-1.2173.66-2.178 1.584-2.882.938-.7187 2.141-1.078 3.608-1.078 1.54 0 2.757.3813 3.652 1.144.909.748 1.364 1.76 1.364 3.036v8.14h-3.19v-1.98h-.528l.55-.77c0 .9093-.33 1.6353-.99 2.178-.646.528-1.511.792-2.596.792zm1.232-2.42c.645 0 1.173-.1687 1.584-.506.425-.352.638-.8067.638-1.364v-1.298h-2.442c-.499 0-.902.1467-1.21.44-.308.2787-.462.6527-.462 1.122 0 .4987.168.8947.506 1.188.337.2787.799.418 1.386.418zm10.001 5.72 1.76-6.842h3.96l-2.86 6.842zm-195.913 25.7c-1.217 0-2.185-.33-2.904-.99-.704-.66-1.056-1.5547-1.056-2.684 0-1.2173.418-2.1487 1.254-2.794.851-.66 2.068-.99 3.652-.99h2.508v-.902c0-.4693-.169-.8433-.506-1.122-.323-.2787-.763-.418-1.32-.418-.513 0-.939.1173-1.276.352s-.543.5573-.616.968h-3.19c.132-1.2173.66-2.178 1.584-2.882.939-.7187 2.141-1.078 3.608-1.078 1.54 0 2.757.3813 3.652 1.144.909.748 1.364 1.76 1.364 3.036v8.14h-3.19v-1.98h-.528l.55-.77c0 .9093-.33 1.6353-.99 2.178-.645.528-1.511.792-2.596.792zm1.232-2.42c.645 0 1.173-.1687 1.584-.506.425-.352.638-.8067.638-1.364v-1.298h-2.442c-.499 0-.902.1467-1.21.44-.308.2787-.462.6527-.462 1.122 0 .4987.169.8947.506 1.188.337.2787.799.418 1.386.418zm26.713 2.42c-1.614-.0293-2.897-.4693-3.85-1.32-.954-.8653-1.43-2.0387-1.43-3.52v-5.39c0-1.936.542-3.4247 1.628-4.466 1.085-1.056 2.632-1.584 4.642-1.584h3.63v3.19h-3.63c-.968 0-1.709.242-2.222.726-.499.484-.748 1.1953-.748 2.134v1.54h.308l-.264.308c-.015-.8213.249-1.474.792-1.958.557-.4987 1.349-.748 2.376-.748 1.276 0 2.266.418 2.97 1.254.718.836 1.078 1.9947 1.078 3.476v1.518c0 .9827-.22 1.848-.66 2.596-.426.7333-1.034 1.298-1.826 1.694-.778.3813-1.709.5647-2.794.55zm0-2.86c.645 0 1.136-.1687 1.474-.506.337-.352.506-.8433.506-1.474v-1.518c0-.6453-.169-1.1367-.506-1.474-.338-.3373-.829-.506-1.474-.506-.631 0-1.122.1687-1.474.506-.338.3373-.506.8287-.506 1.474v1.518c0 .6307.168 1.122.506 1.474.352.3373.843.506 1.474.506zm10.045 6.6 1.65-4.554-4.532-11.506h3.586l1.826 5.28c.132.396.264.88.396 1.452.147.5573.257 1.012.33 1.364.074-.352.176-.8067.308-1.364.147-.572.286-1.056.418-1.452l1.76-5.28h3.432l-5.72 16.06zm14.688-3.96v-9.02h-3.96v-3.08h11.22v3.08h-3.96v9.02zm9.759 0v-12.1h3.3v4.576h1.628l2.53-4.576h3.674l-3.366 5.918 3.432 6.182h-3.74l-2.552-4.752h-1.606v4.752zm18.207.22c-1.598 0-2.874-.4033-3.828-1.21-.953-.8067-1.459-1.9067-1.518-3.3h3.3c.044.528.242.9387.594 1.232.367.2787.851.418 1.452.418.66 0 1.166-.1687 1.518-.506.352-.352.528-.8433.528-1.474v-.22h-3.454v-2.508h3.454v-.132c0-.6453-.176-1.1367-.528-1.474s-.858-.506-1.518-.506c-.586 0-1.063.1467-1.43.44-.366.2933-.572.6967-.616 1.21h-3.3c.059-1.3933.565-2.4933 1.518-3.3.954-.8067 2.23-1.21 3.828-1.21 1.086 0 2.024.2053 2.816.616.807.396 1.43.9533 1.87 1.672s.66 1.5693.66 2.552v2.86c0 .968-.22 1.8187-.66 2.552-.44.7187-1.063 1.2833-1.87 1.694-.792.396-1.73.594-2.816.594zm7.582-.22v-12.1h3.718l1.43 4.51c.161.5133.286.9827.374 1.408.103.4107.161.7187.176.924.029-.2053.081-.5133.154-.924.088-.4253.213-.8947.374-1.408l1.408-4.51h3.718v12.1h-3.014v-2.2c0-.484.007-1.0267.022-1.628.029-.616.059-1.2467.088-1.892.044-.66.081-1.2907.11-1.892.044-.616.088-1.1587.132-1.628l-1.606 5.83h-2.794l-1.694-5.83c.059.6013.117 1.32.176 2.156.073.836.132 1.6867.176 2.552.044.8507.066 1.628.066 2.332v2.2zm13.719 0v-12.1h10.296v12.1h-3.3v-9.02h-3.696v9.02z"/><path d="m171.136 99 1.184-3.04-3.44-8.64h1.392l2.128 5.712c.139.3627.256.7147.352 1.056s.16.5973.192.768c.043-.1707.107-.4267.192-.768s.187-.6933.304-1.056l1.904-5.712h1.376l-4.224 11.68zm13.13 0v-3.248c-.171.0427-.438.0853-.8.128-.363.032-.768.048-1.216.048-1.056.0107-1.878-.2507-2.464-.784-.576-.5333-.864-1.2853-.864-2.256v-2.688h1.264v2.688c0 .5973.181 1.0613.544 1.392.373.3307.901.496 1.584.496.49 0 .906-.016 1.248-.048.341-.0427.576-.08.704-.112v-4.416h1.264v8.8zm4.49 0v-8.8h1.232v5.008c0 .2987-.011.6187-.032.96-.011.3307-.027.6453-.048.944-.022.2987-.043.5493-.064.752l3.728-7.664h1.648v8.8h-1.232v-5.008c0-.3093.005-.6293.016-.96.021-.3307.042-.6453.064-.944.032-.3093.053-.5653.064-.768l-3.744 7.68zm12.841.16c-.682 0-1.28-.1333-1.792-.4s-.912-.6453-1.2-1.136c-.277-.5013-.416-1.0933-.416-1.776v-2.496c0-.6827.139-1.2693.416-1.76.288-.5013.688-.8853 1.2-1.152s1.11-.4 1.792-.4c1.003 0 1.808.272 2.416.816s.923 1.2853.944 2.224h-1.264c-.021-.608-.218-1.0773-.592-1.408-.362-.3307-.864-.496-1.504-.496-.65 0-1.168.192-1.552.576-.384.3733-.576.9067-.576 1.6v2.496c0 .6827.192 1.216.576 1.6s.902.576 1.552.576c.64 0 1.142-.1653 1.504-.496.374-.3413.571-.8107.592-1.408h1.264c-.021.9387-.336 1.68-.944 2.224s-1.413.816-2.416.816zm6.426-.16v-8.8h1.264v3.232h2.64c.981 0 1.755.2507 2.32.752.576.4907.864 1.168.864 2.032 0 .8533-.288 1.5307-.864 2.032-.565.5013-1.339.752-2.32.752zm1.264-1.152h2.64c.608 0 1.072-.1387 1.392-.416.32-.288.48-.6933.48-1.216s-.16-.9227-.48-1.2c-.32-.288-.784-.432-1.392-.432h-2.64zm17.892 1.152v-8.8h1.28v3.696h1.664l2.608-3.696h1.456l-2.96 4.192 3.024 4.608h-1.488l-2.64-4h-1.664v4zm12.777.144c-.682 0-1.274-.1333-1.776-.4-.501-.2667-.89-.6507-1.168-1.152-.277-.5013-.416-1.0933-.416-1.776v-2.432c0-.6933.139-1.2853.416-1.776.278-.5013.667-.8853 1.168-1.152.502-.2667 1.094-.4 1.776-.4.683 0 1.275.1333 1.776.4.502.2667.891.6507 1.168 1.152.278.4907.416 1.0773.416 1.76v2.448c0 .6827-.138 1.2747-.416 1.776-.277.5013-.666.8853-1.168 1.152-.501.2667-1.093.4-1.776.4zm0-1.136c.662 0 1.174-.1867 1.536-.56.363-.3733.544-.9173.544-1.632v-2.432c0-.7147-.186-1.2587-.56-1.632-.362-.3733-.869-.56-1.52-.56-.65 0-1.162.1867-1.536.56-.362.3733-.544.9173-.544 1.632v2.432c0 .7147.182 1.2587.544 1.632.374.3733.886.56 1.536.56zm5.338 3.232v-3.328h.72c.181-.2027.368-.5653.56-1.088.203-.5333.309-1.1787.32-1.936l.096-4.688h5.6v7.712h1.136v3.328h-1.136v-2.24h-6.16v2.24zm2.08-3.328h3.952v-6.576h-3.136l-.064 3.568c-.011.8-.101 1.456-.272 1.968s-.331.8587-.48 1.04zm8.538 1.088v-8.8h1.232v5.008c0 .2987-.011.6187-.032.96-.011.3307-.027.6453-.048.944-.022.2987-.043.5493-.064.752l3.728-7.664h1.648v8.8h-1.232v-5.008c0-.3093.005-.6293.016-.96.021-.3307.042-.6453.064-.944.032-.3093.053-.5653.064-.768l-3.744 7.68zm12.186 0v-7.664h-3.2v-1.136h7.68v1.136h-3.2v7.664zm7.081 0v-8.8h1.264v3.232h2.64c.982 0 1.755.2507 2.32.752.576.4907.864 1.168.864 2.032 0 .8533-.288 1.5307-.864 2.032-.565.5013-1.338.752-2.32.752zm1.264-1.152h2.64c.608 0 1.072-.1387 1.392-.416.32-.288.48-.6933.48-1.216s-.16-.9227-.48-1.2c-.32-.288-.784-.432-1.392-.432h-2.64zm17.844 1.152v-8.8h6.464v8.8h-1.28v-7.648h-3.904v7.648zm12.826.144c-.683 0-1.275-.1333-1.776-.4-.502-.2667-.891-.6507-1.168-1.152-.278-.5013-.416-1.0933-.416-1.776v-2.432c0-.6933.138-1.2853.416-1.776.277-.5013.666-.8853 1.168-1.152.501-.2667 1.093-.4 1.776-.4.682 0 1.274.1333 1.776.4.501.2667.89.6507 1.168 1.152.277.4907.416 1.0773.416 1.76v2.448c0 .6827-.139 1.2747-.416 1.776-.278.5013-.667.8853-1.168 1.152-.502.2667-1.094.4-1.776.4zm0-1.136c.661 0 1.173-.1867 1.536-.56.362-.3733.544-.9173.544-1.632v-2.432c0-.7147-.187-1.2587-.56-1.632-.363-.3733-.87-.56-1.52-.56-.651 0-1.163.1867-1.536.56-.363.3733-.544.9173-.544 1.632v2.432c0 .7147.181 1.2587.544 1.632.373.3733.885.56 1.536.56zm18.771 1.12c-.917 0-1.659-.1973-2.224-.592s-.907-.928-1.024-1.6h1.328c.085.3093.293.5653.624.768.341.192.773.288 1.296.288h.784c.544 0 .971-.1333 1.28-.4.32-.2773.48-.624.48-1.04 0-.448-.149-.8107-.448-1.088s-.725-.416-1.28-.416h-1.968v-1.104h1.936c.501 0 .885-.128 1.152-.384.277-.256.416-.5867.416-.992 0-.2773-.064-.5173-.192-.72s-.315-.3573-.56-.464c-.245-.1173-.528-.176-.848-.176h-.832c-.48 0-.875.1067-1.184.32-.309.2027-.501.464-.576.784h-1.328c.107-.6613.432-1.2.976-1.616.555-.416 1.259-.624 2.112-.624h.832c.597 0 1.115.1013 1.552.304s.773.4853 1.008.848c.245.3627.368.7893.368 1.28 0 .5333-.165.976-.496 1.328-.32.3413-.773.5333-1.36.576v.064c.704.0427 1.221.2507 1.552.624.331.3627.496.864.496 1.504 0 .7573-.283 1.3707-.848 1.84-.555.4587-1.301.688-2.24.688zm9.322.032c-.928 0-1.659-.2347-2.192-.704-.534-.48-.8-1.1253-.8-1.936 0-.8.261-1.4293.784-1.888.522-.4693 1.226-.704 2.112-.704h2.8v-.928c0-.5867-.171-1.04-.512-1.36-.342-.32-.827-.48-1.456-.48-.555 0-1.019.1227-1.392.368-.363.2453-.571.576-.624.992h-1.28c.106-.7573.458-1.36 1.056-1.808.608-.448 1.365-.672 2.272-.672.981 0 1.76.2667 2.336.8.576.5227.864 1.232.864 2.128v6.032h-1.248v-1.712h-.208l.24-.256c0 .6507-.251 1.168-.752 1.552-.502.384-1.168.576-2 .576zm.304-1.024c.704 0 1.28-.176 1.728-.528s.672-.8107.672-1.376v-1.328h-2.784c-.502 0-.902.1387-1.2.416-.299.2773-.448.656-.448 1.136 0 .512.181.9227.544 1.232.362.2987.858.448 1.488.448zm6.746.864v-8.8h6.464v8.8h-1.28v-7.648h-3.904v7.648zm12.137.16c-.928 0-1.658-.2347-2.192-.704-.533-.48-.8-1.1253-.8-1.936 0-.8.262-1.4293.784-1.888.523-.4693 1.227-.704 2.112-.704h2.8v-.928c0-.5867-.17-1.04-.512-1.36-.341-.32-.826-.48-1.456-.48-.554 0-1.018.1227-1.392.368-.362.2453-.57.576-.624.992h-1.28c.107-.7573.459-1.36 1.056-1.808.608-.448 1.366-.672 2.272-.672.982 0 1.76.2667 2.336.8.576.5227.864 1.232.864 2.128v6.032h-1.248v-1.712h-.208l.24-.256c0 .6507-.25 1.168-.752 1.552-.501.384-1.168.576-2 .576zm.304-1.024c.704 0 1.28-.176 1.728-.528s.672-.8107.672-1.376v-1.328h-2.784c-.501 0-.901.1387-1.2.416-.298.2773-.448.656-.448 1.136 0 .512.182.9227.544 1.232.363.2987.859.448 1.488.448zm5.722 3.104v-3.328h.72c.181-.2027.368-.5653.56-1.088.203-.5333.309-1.1787.32-1.936l.096-4.688h5.6v7.712h1.136v3.328h-1.136v-2.24h-6.16v2.24zm2.08-3.328h3.952v-6.576h-3.136l-.064 3.568c-.011.8-.101 1.456-.272 1.968s-.331.8587-.48 1.04zm8.538 1.088v-8.8h1.28v3.744h3.904v-3.744h1.28v8.8h-1.28v-3.904h-3.904v3.904zm9.13 0v-8.8h1.2v3.264h.784c.938 0 1.68.2507 2.224.752.554.4907.832 1.1627.832 2.016s-.272 1.5307-.816 2.032c-.544.4907-1.291.736-2.24.736zm1.2-1.04h.784c.597 0 1.061-.1493 1.392-.448.341-.3093.512-.736.512-1.28s-.171-.9653-.512-1.264c-.331-.3093-.795-.464-1.392-.464h-.784zm4.992 1.04v-8.8h1.2v8.8zm3.577 0v-8.8h1.76l1.28 3.584c.107.3093.208.624.304.944s.166.5707.208.752c.054-.1813.123-.432.208-.752.096-.32.198-.64.304-.96l1.232-3.568h1.744v8.8h-1.232v-2.112c0-.4587.006-.9493.016-1.472.011-.5227.022-1.0453.032-1.568.011-.5227.027-1.0133.048-1.472.022-.4693.038-.88.048-1.232l-1.744 5.216h-1.344l-1.744-5.184c.022.4267.038.9653.048 1.616.011.64.022 1.3173.032 2.032.022.7147.032 1.4027.032 2.064v2.112zm-217.12 21.16c-.683 0-1.28-.133-1.792-.4s-.912-.645-1.2-1.136c-.277-.501-.416-1.093-.416-1.776v-2.496c0-.683.139-1.269.416-1.76.288-.501.688-.885 1.2-1.152s1.109-.4 1.792-.4c1.003 0 1.808.272 2.416.816s.923 1.285.944 2.224h-1.264c-.021-.608-.219-1.077-.592-1.408-.363-.331-.864-.496-1.504-.496-.651 0-1.168.192-1.552.576-.384.373-.576.907-.576 1.6v2.496c0 .683.192 1.216.576 1.6s.901.576 1.552.576c.64 0 1.141-.165 1.504-.496.373-.341.571-.811.592-1.408h1.264c-.021.939-.336 1.68-.944 2.224s-1.413.816-2.416.816zm8.938-.16v-7.664h-3.2v-1.136h7.68v1.136h-3.2v7.664zm9.545.16c-.927 0-1.658-.235-2.191-.704-.534-.48-.8-1.125-.8-1.936 0-.8.261-1.429.784-1.888.522-.469 1.226-.704 2.112-.704h2.8v-.928c0-.587-.171-1.04-.512-1.36-.342-.32-.827-.48-1.456-.48-.555 0-1.019.123-1.392.368-.363.245-.571.576-.624.992h-1.28c.106-.757.458-1.36 1.056-1.808.608-.448 1.365-.672 2.272-.672.981 0 1.76.267 2.336.8.576.523.863 1.232.863 2.128v6.032h-1.247v-1.712h-.208l.24-.256c0 .651-.251 1.168-.752 1.552-.502.384-1.168.576-2.001.576zm.305-1.024c.704 0 1.28-.176 1.728-.528s.672-.811.672-1.376v-1.328h-2.784c-.502 0-.902.139-1.2.416-.299.277-.448.656-.448 1.136 0 .512.181.923.544 1.232.362.299.858.448 1.488.448zm6.745.864v-8.8h1.28v3.744h3.904v-3.744h1.28v8.8h-1.28v-3.904h-3.904v3.904zm8.57 2.24v-3.328h.72c.181-.203.368-.565.56-1.088.203-.533.309-1.179.32-1.936l.096-4.688h5.6v7.712h1.136v3.328h-1.136v-2.24h-6.16v2.24zm2.08-3.328h3.952v-6.576h-3.136l-.064 3.568c-.011.8-.101 1.456-.272 1.968s-.331.859-.48 1.04zm11.082 1.248c-.928 0-1.659-.235-2.192-.704-.534-.48-.8-1.125-.8-1.936 0-.8.261-1.429.784-1.888.522-.469 1.226-.704 2.112-.704h2.8v-.928c0-.587-.171-1.04-.512-1.36-.342-.32-.827-.48-1.456-.48-.555 0-1.019.123-1.392.368-.363.245-.571.576-.624.992h-1.28c.106-.757.458-1.36 1.056-1.808.608-.448 1.365-.672 2.272-.672.981 0 1.76.267 2.336.8.576.523.864 1.232.864 2.128v6.032h-1.248v-1.712h-.208l.24-.256c0 .651-.251 1.168-.752 1.552-.502.384-1.168.576-2 .576zm.304-1.024c.704 0 1.28-.176 1.728-.528s.672-.811.672-1.376v-1.328h-2.784c-.502 0-.902.139-1.2.416-.299.277-.448.656-.448 1.136 0 .512.181.923.544 1.232.362.299.858.448 1.488.448zm6.73 3.744v-11.68h1.264v1.552h.336l-.384.528c0-.693.224-1.237.672-1.632.458-.405 1.061-.608 1.808-.608.885 0 1.589.293 2.112.88.533.576.8 1.365.8 2.368v2.608c0 .672-.123 1.253-.368 1.744-.246.48-.587.853-1.024 1.12-.427.267-.934.4-1.52.4-.736 0-1.334-.203-1.792-.608-.459-.405-.688-.949-.688-1.632l.336.528h-.304l.016 1.792v2.64zm3.296-3.824c.64 0 1.136-.192 1.488-.576.362-.384.544-.928.544-1.632v-2.496c0-.715-.182-1.259-.544-1.632-.352-.384-.848-.576-1.488-.576-.619 0-1.115.197-1.488.592-.363.384-.544.923-.544 1.616v2.496c0 .693.181 1.237.544 1.632.373.384.869.576 1.488.576zm8.905.944v-7.664h-3.2v-1.136h7.68v1.136h-3.2v7.664zm9.546.16c-.928 0-1.659-.235-2.192-.704-.533-.48-.8-1.125-.8-1.936 0-.8.261-1.429.784-1.888.523-.469 1.227-.704 2.112-.704h2.8v-.928c0-.587-.171-1.04-.512-1.36s-.827-.48-1.456-.48c-.555 0-1.019.123-1.392.368-.363.245-.571.576-.624.992h-1.28c.107-.757.459-1.36 1.056-1.808.608-.448 1.365-.672 2.272-.672.981 0 1.76.267 2.336.8.576.523.864 1.232.864 2.128v6.032h-1.248v-1.712h-.208l.24-.256c0 .651-.251 1.168-.752 1.552s-1.168.576-2 .576zm.304-1.024c.704 0 1.28-.176 1.728-.528s.672-.811.672-1.376v-1.328h-2.784c-.501 0-.901.139-1.2.416s-.448.656-.448 1.136c0 .512.181.923.544 1.232.363.299.859.448 1.488.448zm6.458.864v-8.8h1.76l1.28 3.584c.106.309.208.624.304.944s.165.571.208.752c.053-.181.122-.432.208-.752.096-.32.197-.64.304-.96l1.232-3.568h1.744v8.8h-1.232v-2.112c0-.459.005-.949.016-1.472.01-.523.021-1.045.032-1.568.01-.523.026-1.013.048-1.472.021-.469.037-.88.048-1.232l-1.744 5.216h-1.344l-1.744-5.184c.021.427.037.965.048 1.616.01.64.021 1.317.032 2.032.021.715.032 1.403.032 2.064v2.112zm17.907-4.72v-1.136h9.6v1.136zm23.348 4.72v-7.664h-3.2v-1.136h7.68v1.136h-3.2v7.664zm6.986 2.88v-11.68h1.264v1.552h.336l-.384.528c0-.693.224-1.237.672-1.632.458-.405 1.061-.608 1.808-.608.885 0 1.589.293 2.112.88.533.576.8 1.365.8 2.368v2.608c0 .672-.123 1.253-.368 1.744-.246.48-.587.853-1.024 1.12-.427.267-.934.4-1.52.4-.736 0-1.334-.203-1.792-.608-.459-.405-.688-.949-.688-1.632l.336.528h-.304l.016 1.792v2.64zm3.296-3.824c.64 0 1.136-.192 1.488-.576.362-.384.544-.928.544-1.632v-2.496c0-.715-.182-1.259-.544-1.632-.352-.384-.848-.576-1.488-.576-.619 0-1.115.197-1.488.592-.363.384-.544.923-.544 1.616v2.496c0 .693.181 1.237.544 1.632.373.384.869.576 1.488.576zm6.313.944v-8.8h1.232v5.008c0 .299-.01.619-.032.96-.01.331-.026.645-.048.944-.021.299-.042.549-.064.752l3.728-7.664h1.648v8.8h-1.232v-5.008c0-.309.006-.629.016-.96.022-.331.043-.645.064-.944.032-.309.054-.565.064-.768l-3.744 7.68zm19.188 0v-8.8h1.28v3.744h3.904v-3.744h1.28v8.8h-1.28v-3.904h-3.904v3.904zm12.137.16c-.927 0-1.658-.235-2.191-.704-.534-.48-.8-1.125-.8-1.936 0-.8.261-1.429.784-1.888.522-.469 1.226-.704 2.112-.704h2.8v-.928c0-.587-.171-1.04-.512-1.36-.342-.32-.827-.48-1.456-.48-.555 0-1.019.123-1.392.368-.363.245-.571.576-.624.992h-1.28c.106-.757.458-1.36 1.056-1.808.608-.448 1.365-.672 2.272-.672.981 0 1.76.267 2.336.8.576.523.863 1.232.863 2.128v6.032h-1.247v-1.712h-.208l.24-.256c0 .651-.251 1.168-.752 1.552-.502.384-1.168.576-2.001.576zm.305-1.024c.704 0 1.28-.176 1.728-.528s.672-.811.672-1.376v-1.328h-2.784c-.502 0-.902.139-1.2.416-.299.277-.448.656-.448 1.136 0 .512.181.923.544 1.232.362.299.858.448 1.488.448zm9.993 1.024c-.682 0-1.28-.133-1.792-.4s-.912-.645-1.2-1.136c-.277-.501-.416-1.093-.416-1.776v-2.496c0-.683.139-1.269.416-1.76.288-.501.688-.885 1.2-1.152s1.11-.4 1.792-.4c1.003 0 1.808.272 2.416.816s.923 1.285.944 2.224h-1.264c-.021-.608-.218-1.077-.592-1.408-.362-.331-.864-.496-1.504-.496-.65 0-1.168.192-1.552.576-.384.373-.576.907-.576 1.6v2.496c0 .683.192 1.216.576 1.6s.902.576 1.552.576c.64 0 1.142-.165 1.504-.496.374-.341.571-.811.592-1.408h1.264c-.021.939-.336 1.68-.944 2.224s-1.413.816-2.416.816zm5.882-.16v-8.8h1.2v3.264h.784c.939 0 1.68.251 2.224.752.555.491.832 1.163.832 2.016s-.272 1.531-.816 2.032c-.544.491-1.291.736-2.24.736zm1.2-1.04h.784c.597 0 1.061-.149 1.392-.448.341-.309.512-.736.512-1.28s-.171-.965-.512-1.264c-.331-.309-.795-.464-1.392-.464h-.784zm4.992 1.04v-8.8h1.2v8.8zm10.298 2.24v-2.24h-6.928v-8.8h1.152v7.728h2v-7.728h1.024v7.728h2v-7.728h1.152v7.728h.752v3.312zm6.394-2.08c-.683 0-1.275-.133-1.776-.4-.502-.277-.891-.667-1.168-1.168-.278-.501-.416-1.083-.416-1.744v-2.496c0-.672.138-1.253.416-1.744.277-.501.666-.885 1.168-1.152.501-.277 1.093-.416 1.776-.416.682 0 1.274.139 1.776.416.501.267.89.651 1.168 1.152.277.491.416 1.072.416 1.744v1.552h-5.472v.944c0 .715.181 1.269.544 1.664.373.384.896.576 1.568.576.565 0 1.024-.112 1.376-.336.362-.224.592-.549.688-.976h1.264c-.118.736-.475 1.317-1.072 1.744-.598.427-1.35.64-2.256.64zm2.112-5.104v-.704c0-.715-.182-1.264-.544-1.648-.363-.395-.886-.592-1.568-.592-.672 0-1.195.197-1.568.592-.363.384-.544.933-.544 1.648v.56h4.352zm4.249 4.944v-8.8h1.28v3.744h3.904v-3.744h1.28v8.8h-1.28v-3.904h-3.904v3.904zm9.594 0v-8.8h1.28v3.744h3.904v-3.744h1.28v8.8h-1.28v-3.904h-3.904v3.904zm9.13 0v-8.8h1.2v3.264h.784c.938 0 1.68.251 2.224.752.554.491.832 1.163.832 2.016s-.272 1.531-.816 2.032c-.544.491-1.291.736-2.24.736zm1.2-1.04h.784c.597 0 1.061-.149 1.392-.448.341-.309.512-.736.512-1.28s-.171-.965-.512-1.264c-.331-.309-.795-.464-1.392-.464h-.784zm4.992 1.04v-8.8h1.2v8.8zm3.21 0 3.12-4.528-2.928-4.272h1.488l1.856 2.848c.064.107.128.229.192.368.074.128.133.229.176.304.042-.075.096-.176.16-.304.074-.139.144-.261.208-.368l1.856-2.848h1.472l-2.928 4.288 3.104 4.512h-1.488l-1.984-3.008c-.075-.107-.15-.235-.224-.384-.064-.149-.123-.267-.176-.352-.043.085-.107.203-.192.352-.086.149-.166.277-.24.384l-2 3.008zm19.555 0v-8.8h1.76l1.28 3.584c.107.309.208.624.304.944s.165.571.208.752c.053-.181.123-.432.208-.752.096-.32.197-.64.304-.96l1.232-3.568h1.744v8.8h-1.232v-2.112c0-.459.005-.949.016-1.472s.021-1.045.032-1.568.027-1.013.048-1.472c.021-.469.037-.88.048-1.232l-1.744 5.216h-1.344l-1.744-5.184c.021.427.037.965.048 1.616.011.64.021 1.317.032 2.032.021.715.032 1.403.032 2.064v2.112zm13.114.16c-.683 0-1.275-.133-1.776-.4-.502-.277-.891-.667-1.168-1.168-.278-.501-.416-1.083-.416-1.744v-2.496c0-.672.138-1.253.416-1.744.277-.501.666-.885 1.168-1.152.501-.277 1.093-.416 1.776-.416.682 0 1.274.139 1.776.416.501.267.89.651 1.168 1.152.277.491.416 1.072.416 1.744v1.552h-5.472v.944c0 .715.181 1.269.544 1.664.373.384.896.576 1.568.576.565 0 1.024-.112 1.376-.336.362-.224.592-.549.688-.976h1.264c-.118.736-.475 1.317-1.072 1.744-.598.427-1.35.64-2.256.64zm2.112-5.104v-.704c0-.715-.182-1.264-.544-1.648-.363-.395-.886-.592-1.568-.592-.672 0-1.195.197-1.568.592-.363.384-.544.933-.544 1.648v.56h4.352zm7.498 5.104c-.683 0-1.28-.133-1.792-.4s-.912-.645-1.2-1.136c-.278-.501-.416-1.093-.416-1.776v-2.496c0-.683.138-1.269.416-1.76.288-.501.688-.885 1.2-1.152s1.109-.4 1.792-.4c1.002 0 1.808.272 2.416.816s.922 1.285.944 2.224h-1.264c-.022-.608-.219-1.077-.592-1.408-.363-.331-.864-.496-1.504-.496-.651 0-1.168.192-1.552.576-.384.373-.576.907-.576 1.6v2.496c0 .683.192 1.216.576 1.6s.901.576 1.552.576c.64 0 1.141-.165 1.504-.496.373-.341.57-.811.592-1.408h1.264c-.022.939-.336 1.68-.944 2.224s-1.414.816-2.416.816zm5.849-.16 2.24-3.408c-.682-.149-1.21-.453-1.584-.912-.373-.459-.56-1.035-.56-1.728 0-.853.283-1.525.848-2.016.576-.491 1.355-.736 2.336-.736h3.68v8.8h-1.28v-3.296h-2.128l-2.08 3.296zm3.28-4.432h2.4v-3.232h-2.4c-.576 0-1.034.144-1.376.432-.341.288-.512.683-.512 1.184s.171.896.512 1.184c.342.288.8.432 1.376.432zm13.066 6.672v-2.24h-6.256v-8.8h1.28v7.664h3.648v-7.664h1.264v7.664h1.216v3.376zm5.882-2.08c-.928 0-1.659-.235-2.192-.704-.534-.48-.8-1.125-.8-1.936 0-.8.261-1.429.784-1.888.522-.469 1.226-.704 2.112-.704h2.8v-.928c0-.587-.171-1.04-.512-1.36-.342-.32-.827-.48-1.456-.48-.555 0-1.019.123-1.392.368-.363.245-.571.576-.624.992h-1.28c.106-.757.458-1.36 1.056-1.808.608-.448 1.365-.672 2.272-.672.981 0 1.76.267 2.336.8.576.523.864 1.232.864 2.128v6.032h-1.248v-1.712h-.208l.24-.256c0 .651-.251 1.168-.752 1.552-.502.384-1.168.576-2 .576zm.304-1.024c.704 0 1.28-.176 1.728-.528s.672-.811.672-1.376v-1.328h-2.784c-.502 0-.902.139-1.2.416-.299.277-.448.656-.448 1.136 0 .512.181.923.544 1.232.362.299.858.448 1.488.448zm-319.442 21.864v-8.8h3.776c.875 0 1.563.208 2.064.624.501.405.752.971.752 1.696 0 .608-.208 1.099-.624 1.472-.405.363-.949.544-1.632.544v-.112c.736 0 1.328.192 1.776.576.448.373.672.875.672 1.504 0 .779-.267 1.392-.8 1.84-.523.437-1.248.656-2.176.656zm1.248-1.12h2.56c.523 0 .939-.123 1.248-.368.309-.256.464-.597.464-1.024 0-.448-.155-.795-.464-1.04-.309-.256-.725-.384-1.248-.384h-2.56zm0-3.92h2.528c.469 0 .843-.117 1.12-.352.288-.235.432-.555.432-.96s-.144-.725-.432-.96c-.277-.245-.651-.368-1.12-.368h-2.528zm8.058 5.04v-8.8h1.76l1.28 3.584c.106.309.208.624.304.944s.165.571.208.752c.053-.181.122-.432.208-.752.096-.32.197-.64.304-.96l1.232-3.568h1.744v8.8h-1.232v-2.112c0-.459.005-.949.016-1.472.01-.523.021-1.045.032-1.568.01-.523.026-1.013.048-1.472.021-.469.037-.88.048-1.232l-1.744 5.216h-1.344l-1.744-5.184c.021.427.037.965.048 1.616.01.64.021 1.317.032 2.032.021.715.032 1.403.032 2.064v2.112zm13.114.16c-.683 0-1.275-.133-1.776-.4-.502-.277-.891-.667-1.168-1.168-.278-.501-.416-1.083-.416-1.744v-2.496c0-.672.138-1.253.416-1.744.277-.501.666-.885 1.168-1.152.501-.277 1.093-.416 1.776-.416.682 0 1.274.139 1.776.416.501.267.89.651 1.168 1.152.277.491.416 1.072.416 1.744v1.552h-5.472v.944c0 .715.181 1.269.544 1.664.373.384.896.576 1.568.576.565 0 1.024-.112 1.376-.336.362-.224.592-.549.688-.976h1.264c-.118.736-.475 1.317-1.072 1.744-.598.427-1.35.64-2.256.64zm2.112-5.104v-.704c0-.715-.182-1.264-.544-1.648-.363-.395-.886-.592-1.568-.592-.672 0-1.195.197-1.568.592-.363.384-.544.933-.544 1.648v.56h4.352zm7.497 5.104c-.682 0-1.28-.133-1.792-.4s-.912-.645-1.2-1.136c-.277-.501-.416-1.093-.416-1.776v-2.496c0-.683.139-1.269.416-1.76.288-.501.688-.885 1.2-1.152s1.11-.4 1.792-.4c1.003 0 1.808.272 2.416.816s.923 1.285.944 2.224h-1.264c-.021-.608-.218-1.077-.592-1.408-.362-.331-.864-.496-1.504-.496-.65 0-1.168.192-1.552.576-.384.373-.576.907-.576 1.6v2.496c0 .683.192 1.216.576 1.6s.902.576 1.552.576c.64 0 1.142-.165 1.504-.496.374-.341.571-.811.592-1.408h1.264c-.021.939-.336 1.68-.944 2.224s-1.413.816-2.416.816zm8.938-.16v-7.664h-3.2v-1.136h7.68v1.136h-3.2v7.664zm10.234.144c-.683 0-1.275-.133-1.776-.4-.502-.267-.891-.651-1.168-1.152-.278-.501-.416-1.093-.416-1.776v-2.432c0-.693.138-1.285.416-1.776.277-.501.666-.885 1.168-1.152.501-.267 1.093-.4 1.776-.4.682 0 1.274.133 1.776.4.501.267.89.651 1.168 1.152.277.491.416 1.077.416 1.76v2.448c0 .683-.139 1.275-.416 1.776-.278.501-.667.885-1.168 1.152-.502.267-1.094.4-1.776.4zm0-1.136c.661 0 1.173-.187 1.536-.56.362-.373.544-.917.544-1.632v-2.432c0-.715-.187-1.259-.56-1.632-.363-.373-.87-.56-1.52-.56-.651 0-1.163.187-1.536.56-.363.373-.544.917-.544 1.632v2.432c0 .715.181 1.259.544 1.632.373.373.885.56 1.536.56zm15.955.992v-8.8h6.464v8.8h-1.28v-7.648h-3.904v7.648zm12.826.144c-.683 0-1.275-.133-1.776-.4s-.891-.651-1.168-1.152-.416-1.093-.416-1.776v-2.432c0-.693.139-1.285.416-1.776.277-.501.667-.885 1.168-1.152s1.093-.4 1.776-.4 1.275.133 1.776.4.891.651 1.168 1.152c.277.491.416 1.077.416 1.76v2.448c0 .683-.139 1.275-.416 1.776s-.667.885-1.168 1.152-1.093.4-1.776.4zm0-1.136c.661 0 1.173-.187 1.536-.56s.544-.917.544-1.632v-2.432c0-.715-.187-1.259-.56-1.632-.363-.373-.869-.56-1.52-.56s-1.163.187-1.536.56c-.363.373-.544.917-.544 1.632v2.432c0 .715.181 1.259.544 1.632.373.373.885.56 1.536.56zm5.242 1.104v-1.2h.32c.458 0 .794-.187 1.008-.56.213-.384.325-1.019.336-1.904l.112-5.248h5.808v8.8h-1.28v-7.648h-3.28l-.096 4.144c-.011.832-.112 1.515-.304 2.048-.182.533-.459.928-.832 1.184-.363.256-.838.384-1.424.384zm12.09 2.768 1.296-3.44-3.264-8.24h1.408l2.08 5.488c.085.213.165.453.239.72.086.256.15.469.193.64.053-.171.117-.389.192-.656.074-.267.149-.507.224-.72l1.952-5.472h1.36l-4.336 11.68zm10.809-2.88v-7.664h-3.2v-1.136h7.68v1.136h-3.2v7.664zm10.234.144c-.683 0-1.275-.133-1.776-.4s-.891-.651-1.168-1.152-.416-1.093-.416-1.776v-2.432c0-.693.139-1.285.416-1.776.277-.501.667-.885 1.168-1.152s1.093-.4 1.776-.4 1.275.133 1.776.4.891.651 1.168 1.152c.277.491.416 1.077.416 1.76v2.448c0 .683-.139 1.275-.416 1.776s-.667.885-1.168 1.152-1.093.4-1.776.4zm0-1.136c.661 0 1.173-.187 1.536-.56s.544-.917.544-1.632v-2.432c0-.715-.187-1.259-.56-1.632-.363-.373-.869-.56-1.52-.56s-1.163.187-1.536.56c-.363.373-.544.917-.544 1.632v2.432c0 .715.181 1.259.544 1.632.373.373.885.56 1.536.56zm6.346 3.872v-11.68h1.264v1.552h.336l-.384.528c0-.693.224-1.237.672-1.632.458-.405 1.061-.608 1.808-.608.885 0 1.589.293 2.112.88.533.576.8 1.365.8 2.368v2.608c0 .672-.123 1.253-.368 1.744-.246.48-.587.853-1.024 1.12-.427.267-.934.4-1.52.4-.736 0-1.334-.203-1.792-.608-.459-.405-.688-.949-.688-1.632l.336.528h-.304l.016 1.792v2.64zm3.296-3.824c.64 0 1.136-.192 1.488-.576.362-.384.544-.928.544-1.632v-2.496c0-.715-.182-1.259-.544-1.632-.352-.384-.848-.576-1.488-.576-.619 0-1.115.197-1.488.592-.363.384-.544.923-.544 1.616v2.496c0 .693.181 1.237.544 1.632.373.384.869.576 1.488.576zm8.857 1.104c-.927 0-1.658-.235-2.191-.704-.534-.48-.8-1.125-.8-1.936 0-.8.261-1.429.784-1.888.522-.469 1.226-.704 2.112-.704h2.8v-.928c0-.587-.171-1.04-.512-1.36-.342-.32-.827-.48-1.456-.48-.555 0-1.019.123-1.392.368-.363.245-.571.576-.624.992h-1.28c.106-.757.458-1.36 1.056-1.808.608-.448 1.365-.672 2.272-.672.981 0 1.76.267 2.336.8.576.523.863 1.232.863 2.128v6.032h-1.247v-1.712h-.208l.24-.256c0 .651-.251 1.168-.752 1.552-.502.384-1.168.576-2.001.576zm.305-1.024c.704 0 1.28-.176 1.728-.528s.672-.811.672-1.376v-1.328h-2.784c-.502 0-.902.139-1.2.416-.299.277-.448.656-.448 1.136 0 .512.181.923.544 1.232.362.299.858.448 1.488.448zm16.323 3.744v-11.68h1.264v1.552h.336l-.384.528c0-.693.224-1.237.672-1.632.459-.405 1.061-.608 1.808-.608.885 0 1.589.293 2.112.88.533.576.8 1.365.8 2.368v2.608c0 .672-.123 1.253-.368 1.744-.245.48-.587.853-1.024 1.12-.427.267-.933.4-1.52.4-.736 0-1.333-.203-1.792-.608s-.688-.949-.688-1.632l.336.528h-.304l.016 1.792v2.64zm3.296-3.824c.64 0 1.136-.192 1.488-.576.363-.384.544-.928.544-1.632v-2.496c0-.715-.181-1.259-.544-1.632-.352-.384-.848-.576-1.488-.576-.619 0-1.115.197-1.488.592-.363.384-.544.923-.544 1.616v2.496c0 .693.181 1.237.544 1.632.373.384.869.576 1.488.576zm8.858 1.104c-.928 0-1.659-.235-2.192-.704-.534-.48-.8-1.125-.8-1.936 0-.8.261-1.429.784-1.888.522-.469 1.226-.704 2.112-.704h2.8v-.928c0-.587-.171-1.04-.512-1.36-.342-.32-.827-.48-1.456-.48-.555 0-1.019.123-1.392.368-.363.245-.571.576-.624.992h-1.28c.106-.757.458-1.36 1.056-1.808.608-.448 1.365-.672 2.272-.672.981 0 1.76.267 2.336.8.576.523.864 1.232.864 2.128v6.032h-1.248v-1.712h-.208l.24-.256c0 .651-.251 1.168-.752 1.552-.502.384-1.168.576-2 .576zm.304-1.024c.704 0 1.28-.176 1.728-.528s.672-.811.672-1.376v-1.328h-2.784c-.502 0-.902.139-1.2.416-.299.277-.448.656-.448 1.136 0 .512.181.923.544 1.232.362.299.858.448 1.488.448zm9.994 1.024c-.683 0-1.28-.133-1.792-.4s-.912-.645-1.2-1.136c-.278-.501-.416-1.093-.416-1.776v-2.496c0-.683.138-1.269.416-1.76.288-.501.688-.885 1.2-1.152s1.109-.4 1.792-.4c1.002 0 1.808.272 2.416.816s.922 1.285.944 2.224h-1.264c-.022-.608-.219-1.077-.592-1.408-.363-.331-.864-.496-1.504-.496-.651 0-1.168.192-1.552.576-.384.373-.576.907-.576 1.6v2.496c0 .683.192 1.216.576 1.6s.901.576 1.552.576c.64 0 1.141-.165 1.504-.496.373-.341.57-.811.592-1.408h1.264c-.022.939-.336 1.68-.944 2.224s-1.414.816-2.416.816zm8.937-.16v-7.664h-3.2v-1.136h7.68v1.136h-3.2v7.664zm6.506 0 2.24-3.408c-.683-.149-1.211-.453-1.584-.912s-.56-1.035-.56-1.728c0-.853.283-1.525.848-2.016.576-.491 1.355-.736 2.336-.736h3.68v8.8h-1.28v-3.296h-2.128l-2.08 3.296zm3.28-4.432h2.4v-3.232h-2.4c-.576 0-1.035.144-1.376.432s-.512.683-.512 1.184.171.896.512 1.184.8.432 1.376.432zm6.81 4.432v-8.8h1.28v3.744h3.904v-3.744h1.28v8.8h-1.28v-3.904h-3.904v3.904zm10.97 2.88 1.296-3.44-3.264-8.24h1.408l2.08 5.488c.085.213.165.453.239.72.086.256.15.469.193.64.053-.171.117-.389.192-.656.074-.267.149-.507.224-.72l1.952-5.472h1.36l-4.336 11.68zm10.809-2.88v-7.664h-3.2v-1.136h7.68v1.136h-3.2v7.664zm6.538 0v-8.8h1.2v3.264h.784c.939 0 1.68.251 2.224.752.555.491.832 1.163.832 2.016s-.272 1.531-.816 2.032c-.544.491-1.291.736-2.24.736zm1.2-1.04h.784c.597 0 1.061-.149 1.392-.448.341-.309.512-.736.512-1.28s-.171-.965-.512-1.264c-.331-.309-.795-.464-1.392-.464h-.784zm4.992 1.04v-8.8h1.2v8.8zm3.21 0 3.12-4.528-2.928-4.272h1.488l1.856 2.848c.064.107.128.229.192.368.074.128.133.229.176.304.042-.075.096-.176.16-.304.074-.139.144-.261.208-.368l1.856-2.848h1.472l-2.928 4.288 3.104 4.512h-1.488l-1.984-3.008c-.075-.107-.15-.235-.224-.384-.064-.149-.123-.267-.176-.352-.043.085-.107.203-.192.352-.086.149-.166.277-.24.384l-2 3.008zm18.723.112v-1.2h.32c.459 0 .795-.187 1.008-.56.214-.384.326-1.019.336-1.904l.112-5.248h5.808v8.8h-1.28v-7.648h-3.28l-.096 4.144c-.01.832-.112 1.515-.304 2.048-.181.533-.458.928-.832 1.184-.362.256-.837.384-1.424.384zm13.946.048c-.683 0-1.275-.133-1.776-.4-.501-.277-.891-.667-1.168-1.168s-.416-1.083-.416-1.744v-2.496c0-.672.139-1.253.416-1.744.277-.501.667-.885 1.168-1.152.501-.277 1.093-.416 1.776-.416s1.275.139 1.776.416c.501.267.891.651 1.168 1.152.277.491.416 1.072.416 1.744v1.552h-5.472v.944c0 .715.181 1.269.544 1.664.373.384.896.576 1.568.576.565 0 1.024-.112 1.376-.336.363-.224.592-.549.688-.976h1.264c-.117.736-.475 1.317-1.072 1.744s-1.349.64-2.256.64zm2.112-5.104v-.704c0-.715-.181-1.264-.544-1.648-.363-.395-.885-.592-1.568-.592-.672 0-1.195.197-1.568.592-.363.384-.544.933-.544 1.648v.56h4.352zm6.842 4.944v-7.664h-3.2v-1.136h7.68v1.136h-3.2v7.664zm10.234.16c-.395 0-.71-.112-.944-.336-.224-.235-.336-.544-.336-.928 0-.405.112-.725.336-.96.234-.235.549-.352.944-.352.394 0 .704.117.928.352.234.235.352.555.352.96 0 .384-.118.693-.352.928-.224.224-.534.336-.928.336z"/></g></svg>