<svg fill="none" height="160" viewBox="0 0 375 160" width="375" xmlns="http://www.w3.org/2000/svg"><path d="m0 0h375v160h-375z" fill="#ec5a5f"/><g fill="#000"><path d="m20 38h35v5.99998h-35z"/><path d="m20 28.702 6.4969-.0106c.0416.4245.2217.7322.5405.9233.3257.1839.8489.2759 1.5697.2759.6029 0 1.0568-.0672 1.3617-.2017.3119-.1415.4678-.3502.4678-.6261 0-.4811-.8074-.7959-2.422-.9445-.3188-.0353-.5614-.0601-.7277-.0743-.0139 0-.0277 0-.0416 0-2.6057-.2617-4.3659-.6013-5.2806-1.0187-.5337-.2406-.946-.6191-1.237-1.1355-.2842-.5165-.4262-1.1249-.4262-1.8253 0-1.4079.6306-2.4373 1.8918-3.0882 1.2613-.6509 3.271-.9763 6.0292-.9763 2.6056 0 4.5426.3325 5.8108.9975 1.2751.6651 1.9542 1.6945 2.0374 3.0882h-6.1227c-.0346-.4103-.2217-.7075-.5613-.8914-.3326-.184-.8697-.2759-1.6112-.2759-.6307 0-1.095.0707-1.393.2122-.291.1344-.4366.3467-.4366.6367 0 .467.693.757 2.079.8702.2911.0283.5129.0496.6653.0637.1109.0071.2842.0212.5198.0425 2.7928.2546 4.4213.4634 4.8856.6261.9148.3325 1.5593.7428 1.9335 1.231.3742.4811.5613 1.1426.5613 1.9845 0 1.5564-.6722 2.6813-2.0166 3.3747-1.3375.6933-3.5343 1.04-6.5904 1.04-2.7166 0-4.7124-.3432-5.9876-1.0294-1.2681-.6934-1.9334-1.7829-1.9958-3.2686z"/><path d="m55 27.2375c-.194 1.9173-1.0049 3.357-2.4324 4.3192-1.4207.9622-3.4477 1.4433-6.0811 1.4433-2.7235 0-4.8302-.566-6.3202-1.698-1.483-1.132-2.2245-2.7309-2.2245-4.7967 0-2.0588.7415-3.6577 2.2245-4.7967 1.49-1.1391 3.5967-1.7086 6.3202-1.7086 2.5294 0 4.501.4422 5.9147 1.3265 1.4138.8844 2.2454 2.1968 2.4948 3.9372h-5.7068c-.2148-.559-.5371-.9764-.9668-1.2523-.4296-.283-.9667-.4245-1.6112-.4245-.9494 0-1.6944.2583-2.2349.7747-.5405.5094-.8108 1.2169-.8108 2.1225 0 .8772.2633 1.5741.79 2.0906.5267.5164 1.237.7747 2.131.7747.7415 0 1.3652-.1875 1.8711-.5625.5128-.382.8316-.8985.9563-1.5494z"/><path d="m25.2147 58.6c0 .8017.2444 1.4466.7333 1.9346.4889.481 1.1339.7216 1.9351.7216.8148 0 1.4632-.2406 1.9453-.7216.4889-.488.7333-1.1329.7333-1.9346 0-.8087-.2444-1.4536-.7333-1.9347-.4821-.481-1.1305-.7215-1.9453-.7215-.8012 0-1.4462.2405-1.9351.7215-.4889.4811-.7333 1.126-.7333 1.9347zm-5.2147 5.9921v-15.5921h5.2147v4.5804c.6314-.4323 1.3002-.753 2.0064-.9621.7129-.2161 1.4904-.3242 2.3323-.3242 1.9827 0 3.558.5682 4.7258 1.7046 1.1747 1.1364 1.762 2.6701 1.762 4.6013 0 1.9032-.5805 3.43-1.7416 4.5803-1.1611 1.1434-2.716 1.7151-4.6647 1.7151-.9166 0-1.7586-.122-2.5258-.366-.7673-.251-1.4667-.624-2.0981-1.119l-.0408 1.1817z"/><path d="m54.0278 59.3215c-.1901 1.8893-.9846 3.3081-2.3833 4.2562-1.3919.9482-3.378 1.4222-5.9582 1.4222-2.6684 0-4.7326-.5577-6.1924-1.6732-1.453-1.1154-2.1796-2.691-2.1796-4.7267 0-2.0288.7266-3.6044 2.1796-4.7268 1.4598-1.1225 3.524-1.6837 6.1924-1.6837 2.4784 0 4.4101.4358 5.7952 1.3072 1.3852.8715 2.2 2.1647 2.4444 3.8797h-5.5915c-.2105-.5507-.5262-.962-.9472-1.2339-.421-.2789-.9472-.4183-1.5786-.4183-.9303 0-1.6602.2544-2.1898.7634-.5296.5019-.7944 1.1991-.7944 2.0915 0 .8644.258 1.5511.774 2.0601.5161.5089 1.212.7634 2.0879.7634.7266 0 1.3377-.1848 1.8333-.5543.5025-.3764.8148-.8854.937-1.5268z"/><path d="m76.452 37v-16.06h3.3v6.16h3.696v-6.16h3.3v16.06h-3.3v-6.82h-3.696v6.82zm18.3614.22c-1.0707 0-2.0093-.198-2.816-.594-.792-.4107-1.408-.9753-1.848-1.694-.4253-.7333-.638-1.584-.638-2.552v-2.86c0-.968.2127-1.8113.638-2.53.44-.7333 1.056-1.298 1.848-1.694.8067-.4107 1.7453-.616 2.816-.616s1.9947.2053 2.772.616c.792.396 1.4007.9607 1.826 1.694.44.7187.6596 1.562.6596 2.53v2.2h-7.4136v.66c0 .7627.1833 1.342.55 1.738.3667.3813.9167.572 1.65.572.5133 0 .924-.088 1.232-.264.3227-.176.5353-.418.638-.726h3.234c-.264 1.056-.8653 1.9067-1.804 2.552-.924.6453-2.0387.968-3.344.968zm2.112-7.194v-.55c0-.748-.176-1.32-.528-1.716-.3373-.396-.8653-.594-1.584-.594s-1.2613.2053-1.628.616c-.352.4107-.528.99-.528 1.738v.33l4.488-.044zm19.1006 6.974v-12.1h10.296v12.1h-3.3v-9.02h-3.696v9.02zm18.34.22c-1.071 0-2.002-.198-2.794-.594-.792-.4107-1.408-.9753-1.848-1.694-.426-.7333-.638-1.584-.638-2.552v-2.86c0-.968.212-1.8113.638-2.53.44-.7333 1.056-1.298 1.848-1.694.792-.4107 1.723-.616 2.794-.616 1.085 0 2.016.2053 2.794.616.792.396 1.4.9607 1.826 1.694.44.7187.66 1.562.66 2.53v2.86c0 .968-.22 1.8187-.66 2.552-.426.7187-1.034 1.2833-1.826 1.694-.778.396-1.709.594-2.794.594zm0-2.86c.645 0 1.136-.1687 1.474-.506.337-.352.506-.8433.506-1.474v-2.86c0-.6453-.169-1.1367-.506-1.474-.338-.3373-.829-.506-1.474-.506-.631 0-1.122.1687-1.474.506-.338.3373-.506.8287-.506 1.474v2.86c0 .6307.168 1.122.506 1.474.352.3373.843.506 1.474.506zm7.053 2.794v-2.97h.66c.381 0 .697-.1613.946-.484s.381-.748.396-1.276l.132-7.524h9.152v12.1h-3.3v-9.02h-2.618l-.088 4.664c-.015.8947-.213 1.6867-.594 2.376-.367.6747-.88 1.2027-1.54 1.584-.645.3667-1.401.55-2.266.55zm16.183 3.806 1.65-4.554-4.532-11.506h3.586l1.826 5.28c.132.396.264.88.396 1.452.147.5573.257 1.012.33 1.364.074-.352.176-.8067.308-1.364.147-.572.286-1.056.418-1.452l1.76-5.28h3.432l-5.72 16.06zm18.098-3.96v-3.85c-.176.044-.455.0953-.836.154-.367.044-.785.066-1.254.066-1.599 0-2.86-.396-3.784-1.188-.924-.8067-1.386-1.914-1.386-3.322v-3.96h3.3v3.74c0 .5427.198.9753.594 1.298.396.308.931.462 1.606.462.411 0 .77-.022 1.078-.066.323-.0587.55-.11.682-.154v-5.28h3.3v12.1zm6.283 0v-12.1h2.904v5.5c0 .3667-.022.8287-.066 1.386-.044.5427-.102 1.0927-.176 1.65-.058.5573-.124 1.0487-.198 1.474l3.828-10.01h4.004v12.1h-2.904v-5.5c0-.3813.022-.814.066-1.298.044-.4987.096-.9973.154-1.496.059-.4987.118-.924.176-1.276l-3.784 9.57zm12.202.154v-2.97h.66c.381 0 .696-.1613.946-.484.249-.3227.381-.748.396-1.276l.132-7.524h9.152v12.1h-3.3v-9.02h-2.618l-.088 4.664c-.015.8947-.213 1.6867-.594 2.376-.367.6747-.88 1.2027-1.54 1.584-.646.3667-1.401.55-2.266.55zm19.329.066c-1.071 0-2.002-.198-2.794-.594-.792-.4107-1.408-.9753-1.848-1.694-.425-.7333-.638-1.584-.638-2.552v-2.86c0-.968.213-1.8113.638-2.53.44-.7333 1.056-1.298 1.848-1.694.792-.4107 1.723-.616 2.794-.616 1.085 0 2.017.2053 2.794.616.792.396 1.401.9607 1.826 1.694.44.7187.66 1.562.66 2.53v2.86c0 .968-.22 1.8187-.66 2.552-.425.7187-1.034 1.2833-1.826 1.694-.777.396-1.709.594-2.794.594zm0-2.86c.645 0 1.137-.1687 1.474-.506.337-.352.506-.8433.506-1.474v-2.86c0-.6453-.169-1.1367-.506-1.474s-.829-.506-1.474-.506c-.631 0-1.122.1687-1.474.506-.337.3373-.506.8287-.506 1.474v2.86c0 .6307.169 1.122.506 1.474.352.3373.843.506 1.474.506zm13.257 2.86c-1.07 0-2.009-.198-2.816-.594-.806-.4107-1.43-.9753-1.87-1.694-.44-.7333-.66-1.584-.66-2.552v-2.86c0-.9827.22-1.8333.66-2.552s1.064-1.276 1.87-1.672c.807-.4107 1.746-.616 2.816-.616 1.599 0 2.875.4033 3.828 1.21.954.8067 1.46 1.9067 1.518 3.3h-3.3c-.044-.5133-.249-.9167-.616-1.21-.352-.2933-.828-.44-1.43-.44-.66 0-1.166.1687-1.518.506s-.528.8287-.528 1.474v2.86c0 .6307.176 1.122.528 1.474.352.3373.858.506 1.518.506.602 0 1.078-.1393 1.43-.418.367-.2933.572-.704.616-1.232h3.3c-.058 1.3933-.564 2.4933-1.518 3.3-.953.8067-2.229 1.21-3.828 1.21zm8.066-.22v-12.1h3.3v3.63h2.838c1.525 0 2.713.3813 3.564 1.144.865.748 1.298 1.7893 1.298 3.124 0 1.2907-.44 2.3173-1.32 3.08-.865.748-2.039 1.122-3.52 1.122zm3.3-2.86h2.64c.557 0 .983-.1173 1.276-.352.308-.2493.462-.5867.462-1.012 0-.44-.154-.7773-.462-1.012-.293-.2493-.719-.374-1.276-.374h-2.64zm-159.683 35.82 1.65-4.554-4.532-11.506h3.586l1.826 5.28c.132.396.264.88.396 1.452.1467.5573.2567 1.012.33 1.364.0733-.352.176-.8067.308-1.364.1467-.572.286-1.056.418-1.452l1.76-5.28h3.432l-5.72 16.06zm18.0974-3.96v-3.85c-.176.044-.4547.0953-.836.154-.3667.044-.7847.066-1.254.066-1.5987 0-2.86-.396-3.784-1.188-.924-.8067-1.386-1.914-1.386-3.322v-3.96h3.3v3.74c0 .5427.198.9753.594 1.298.396.308.9313.462 1.606.462.4107 0 .77-.022 1.078-.066.3227-.0587.55-.11.682-.154v-5.28h3.3v12.1zm6.2836 0v-12.1h2.904v5.5c0 .3667-.022.8287-.066 1.386-.044.5427-.103 1.0927-.176 1.65-.059.5573-.125 1.0487-.198 1.474l3.828-10.01h4.004v12.1h-2.904v-5.5c0-.3813.022-.814.066-1.298.044-.4987.095-.9973.154-1.496.058-.4987.117-.924.176-1.276l-3.784 9.57zm16.689 0v-9.02h-3.96v-3.08h11.22v3.08h-3.96v9.02zm9.782 0v-12.1h3.3v3.63h2.838c1.525 0 2.713.3813 3.564 1.144.865.748 1.298 1.7893 1.298 3.124 0 1.2907-.44 2.3173-1.32 3.08-.866.748-2.039 1.122-3.52 1.122zm3.3-2.86h2.64c.557 0 .982-.1173 1.276-.352.308-.2493.462-.5867.462-1.012 0-.44-.154-.7773-.462-1.012-.294-.2493-.719-.374-1.276-.374h-2.64zm15.017 3.08c-1.071 0-2.009-.198-2.816-.594-.807-.4107-1.43-.9753-1.87-1.694-.44-.7333-.66-1.584-.66-2.552v-2.86c0-.9827.22-1.8333.66-2.552s1.063-1.276 1.87-1.672c.807-.4107 1.745-.616 2.816-.616 1.599 0 2.875.4033 3.828 1.21s1.459 1.9067 1.518 3.3h-3.3c-.044-.5133-.249-.9167-.616-1.21-.352-.2933-.829-.44-1.43-.44-.66 0-1.166.1687-1.518.506s-.528.8287-.528 1.474v2.86c0 .6307.176 1.122.528 1.474.352.3373.858.506 1.518.506.601 0 1.078-.1393 1.43-.418.367-.2933.572-.704.616-1.232h3.3c-.059 1.3933-.565 2.4933-1.518 3.3s-2.229 1.21-3.828 1.21zm7.625-.22 2.64-4.246c-.777-.2933-1.386-.7553-1.826-1.386s-.66-1.3713-.66-2.222c0-1.3347.448-2.376 1.342-3.124.895-.748 2.134-1.122 3.718-1.122h5.434v12.1h-3.278v-3.828h-1.452l-2.2 3.828zm5.412-6.336h1.98v-3.146h-1.98c-.616 0-1.1.1393-1.452.418s-.528.6673-.528 1.166.169.8873.506 1.166c.352.264.844.396 1.474.396zm26.471 6.556c-1.07 0-2.002-.198-2.794-.594-.792-.4107-1.408-.9753-1.848-1.694-.425-.7333-.638-1.584-.638-2.552v-2.86c0-.968.213-1.8113.638-2.53.44-.7333 1.056-1.298 1.848-1.694.792-.4107 1.724-.616 2.794-.616 1.086 0 2.017.2053 2.794.616.792.396 1.401.9607 1.826 1.694.44.7187.66 1.562.66 2.53v2.86c0 .968-.22 1.8187-.66 2.552-.425.7187-1.034 1.2833-1.826 1.694-.777.396-1.708.594-2.794.594zm0-2.86c.646 0 1.137-.1687 1.474-.506.338-.352.506-.8433.506-1.474v-2.86c0-.6453-.168-1.1367-.506-1.474-.337-.3373-.828-.506-1.474-.506-.63 0-1.122.1687-1.474.506-.337.3373-.506.8287-.506 1.474v2.86c0 .6307.169 1.122.506 1.474.352.3373.844.506 1.474.506zm8.044 2.64v-12.1h3.3v4.422h3.696v-4.422h3.3v12.1h-3.3v-4.598h-3.696v4.598zm12.201.154v-2.97h.66c.381 0 .697-.1613.946-.484s.381-.748.396-1.276l.132-7.524h9.152v12.1h-3.3v-9.02h-2.618l-.088 4.664c-.015.8947-.213 1.6867-.594 2.376-.367.6747-.88 1.2027-1.54 1.584-.645.3667-1.401.55-2.266.55zm17.767.066c-1.217 0-2.185-.33-2.904-.99-.704-.66-1.056-1.5547-1.056-2.684 0-1.2173.418-2.1487 1.254-2.794.851-.66 2.068-.99 3.652-.99h2.508v-.902c0-.4693-.168-.8433-.506-1.122-.322-.2787-.762-.418-1.32-.418-.513 0-.938.1173-1.276.352-.337.2347-.542.5573-.616.968h-3.19c.132-1.2173.66-2.178 1.584-2.882.939-.7187 2.142-1.078 3.608-1.078 1.54 0 2.758.3813 3.652 1.144.91.748 1.364 1.76 1.364 3.036v8.14h-3.19v-1.98h-.528l.55-.77c0 .9093-.33 1.6353-.99 2.178-.645.528-1.51.792-2.596.792zm1.232-2.42c.646 0 1.174-.1687 1.584-.506.426-.352.638-.8067.638-1.364v-1.298h-2.442c-.498 0-.902.1467-1.21.44-.308.2787-.462.6527-.462 1.122 0 .4987.169.8947.506 1.188.338.2787.8.418 1.386.418zm8.374 2.2v-12.1h2.904v5.5c0 .3667-.022.8287-.066 1.386-.044.5427-.103 1.0927-.176 1.65-.059.5573-.125 1.0487-.198 1.474l3.828-10.01h4.004v12.1h-2.904v-5.5c0-.3813.022-.814.066-1.298.044-.4987.095-.9973.154-1.496s.117-.924.176-1.276l-3.784 9.57zm5.236-13.97c-1.203 0-2.185-.3007-2.948-.902-.748-.616-1.122-1.4153-1.122-2.398h2.53c0 .4107.139.748.418 1.012.293.2493.667.374 1.122.374.469 0 .843-.1247 1.122-.374.279-.264.418-.6013.418-1.012h2.53c0 .9827-.374 1.782-1.122 2.398-.748.6013-1.731.902-2.948.902zm7.955 13.97v-12.1h3.3v4.422h3.696v-4.422h3.3v12.1h-3.3v-4.598h-3.696v4.598zm15.722-4.95-.11-4.73h2.2c.601 0 1.078-.1467 1.43-.44.352-.308.528-.7113.528-1.21 0-.5133-.184-.9167-.55-1.21-.352-.2933-.829-.44-1.43-.44h-3.63v-3.08h3.41c1.129 0 2.104.198 2.926.594.821.3813 1.452.924 1.892 1.628.454.704.682 1.54.682 2.508 0 .924-.191 1.7307-.572 2.42-.382.6893-.917 1.232-1.606 1.628-.69.3813-1.496.572-2.42.572v1.76zm1.056 5.06c-.499 0-.902-.1393-1.21-.418-.294-.2933-.44-.6673-.44-1.122 0-.4693.146-.8433.44-1.122.308-.2787.711-.418 1.21-.418h.66c.498 0 .894.1393 1.188.418.308.2787.462.6527.462 1.122s-.154.8433-.462 1.122c-.294.2787-.697.418-1.21.418z"/><path d="m21.568 99v-11.68h3.216c1.0453 0 1.8667.272 2.464.816.5973.5333.896 1.2693.896 2.208 0 .5333-.112 1.0027-.336 1.408-.2133.3947-.5227.704-.928.928-.3947.2133-.8747.3147-1.44.304v-.224c.608 0 1.1307.1227 1.568.368.448.2347.7947.5813 1.04 1.04.2453.448.368.9813.368 1.6 0 .6613-.1387 1.2373-.416 1.728-.2773.48-.672.8533-1.184 1.12-.512.256-1.1253.384-1.84.384zm1.232-1.152h2.064c.7147 0 1.2747-.1867 1.68-.56.416-.384.624-.9013.624-1.552 0-.672-.208-1.2107-.624-1.616-.4053-.416-.9653-.624-1.68-.624h-2.064zm0-5.456h1.984c.6507 0 1.1627-.176 1.536-.528s.56-.832.56-1.44-.1867-1.0827-.56-1.424c-.3627-.352-.8747-.528-1.536-.528h-1.984zm21.2515 6.768c-.7467 0-1.392-.128-1.936-.384s-.9653-.6187-1.264-1.088c-.2987-.48-.4533-1.0507-.464-1.712h1.28c0 .6293.2133 1.1307.64 1.504.4267.3627 1.008.544 1.744.544.704 0 1.2533-.176 1.648-.528.4053-.352.608-.8373.608-1.456 0-.512-.1387-.9547-.416-1.328-.2773-.384-.6667-.6507-1.168-.8l-1.52-.48c-.8-.2347-1.4187-.6347-1.856-1.2-.4267-.576-.64-1.248-.64-2.016 0-.6293.1387-1.168.416-1.616.2773-.4587.6667-.816 1.168-1.072.512-.256 1.1093-.384 1.792-.384 1.0133 0 1.824.2827 2.432.848s.912 1.3227.912 2.272h-1.264c0-.608-.1867-1.088-.56-1.44s-.8853-.528-1.536-.528-1.1627.16-1.536.48c-.3627.3093-.544.752-.544 1.328 0 .5013.1387.9387.416 1.312s.6667.64 1.168.8l1.52.48c.7893.2453 1.4027.6613 1.84 1.248s.656 1.2747.656 2.064c0 .6293-.1493 1.184-.448 1.664-.288.4693-.6987.8373-1.232 1.104-.5227.256-1.1413.384-1.856.384zm8.8417 0c-.9279 0-1.6586-.2347-2.1919-.704-.5334-.48-.8-1.1253-.8-1.936 0-.8.2613-1.4293.784-1.888.5226-.4693 1.2266-.704 2.112-.704h2.8v-.928c0-.5867-.1707-1.04-.512-1.36-.3414-.32-.8267-.48-1.456-.48-.5547 0-1.0187.1227-1.392.368-.3627.2453-.5707.576-.624.992h-1.28c.1066-.7573.4586-1.36 1.056-1.808.608-.448 1.3653-.672 2.272-.672.9813 0 1.76.2667 2.336.8.576.5227.8639 1.232.8639 2.128v6.032h-1.2479v-1.712h-.208l.24-.256c0 .6507-.2507 1.168-.752 1.552-.5014.384-1.168.576-2.0001.576zm.3041-1.024c.704 0 1.28-.176 1.728-.528s.672-.8107.672-1.376v-1.328h-2.784c-.5014 0-.9014.1387-1.2.416-.2987.2773-.448.656-.448 1.136 0 .512.1813.9227.544 1.232.3626.2987.8586.448 1.488.448zm6.5857.864v-1.152h3.136v-6.496h-2.736v-1.152h4.016v7.648h2.976v1.152zm3.632-10.416c-.3307 0-.5973-.0853-.8-.256-.192-.1707-.288-.4053-.288-.704 0-.3093.096-.5547.288-.736.2027-.1813.4693-.272.8-.272s.592.0907.784.272c.2027.1813.304.4267.304.736 0 .288-.1013.5227-.304.704-.192.1707-.4533.256-.784.256zm6.1058 10.416v-8.8h1.264v1.632h.32l-.352.464c0-.704.2133-1.2533.64-1.648.4373-.4053 1.0293-.608 1.776-.608.8746 0 1.5733.2773 2.096.832.5226.544.7839 1.2853.7839 2.224v5.904h-1.2639v-5.76c0-.672-.176-1.1893-.528-1.552s-.832-.544-1.44-.544c-.6294 0-1.1254.192-1.488.576-.3627.384-.544.928-.544 1.632v5.648zm13.8017 0c-.736 0-1.3067-.192-1.712-.576-.4053-.3947-.608-.9493-.608-1.664v-5.408h-2.496v-1.152h2.496v-2.48h1.28v2.48h3.536v1.152h-3.536v5.408c0 .7253.3467 1.088 1.04 1.088h2.336v1.152zm8.6818.16c-.6827 0-1.28-.1333-1.792-.4s-.912-.6453-1.2-1.136c-.2774-.5013-.416-1.0933-.416-1.776v-2.496c0-.6827.1386-1.2693.416-1.76.288-.5013.688-.8853 1.2-1.152s1.1093-.4 1.792-.4c1.0026 0 1.808.272 2.416.816s.9226 1.2853.944 2.224h-1.264c-.0214-.608-.2187-1.0773-.592-1.408-.3627-.3307-.864-.496-1.504-.496-.6507 0-1.168.192-1.552.576-.384.3733-.576.9067-.576 1.6v2.496c0 .6827.192 1.216.576 1.6s.9013.576 1.552.576c.64 0 1.1413-.1653 1.504-.496.3733-.3413.5706-.8107.592-1.408h1.264c-.0214.9387-.336 1.68-.944 2.224s-1.4134.816-2.416.816zm9.5457-.016c-.683 0-1.275-.1333-1.776-.4-.5013-.2667-.8907-.6507-1.168-1.152s-.416-1.0933-.416-1.776v-2.432c0-.6933.1387-1.2853.416-1.776.2773-.5013.6667-.8853 1.168-1.152.501-.2667 1.093-.4 1.776-.4s1.275.1333 1.776.4.891.6507 1.168 1.152c.277.4907.416 1.0773.416 1.76v2.448c0 .6827-.139 1.2747-.416 1.776s-.667.8853-1.168 1.152-1.093.4-1.776.4zm0-1.136c.661 0 1.173-.1867 1.536-.56s.544-.9173.544-1.632v-2.432c0-.7147-.187-1.2587-.56-1.632-.363-.3733-.869-.56-1.52-.56s-1.163.1867-1.536.56c-.3627.3733-.544.9173-.544 1.632v2.432c0 .7147.1813 1.2587.544 1.632.373.3733.885.56 1.536.56zm9.162 1.152c-.875 0-1.584-.2933-2.128-.88-.534-.5867-.8-1.376-.8-2.368v-2.608c0-1.0027.266-1.7973.8-2.384.533-.5867 1.242-.88 2.128-.88.736 0 1.328.2027 1.776.608.458.4053.688.9493.688 1.632l-.336-.528h.304l-.016-1.92v-2.512h1.264v11.68h-1.264v-1.552h-.336l.384-.528c0 .6933-.23 1.2427-.688 1.648-.448.3947-1.04.592-1.776.592zm.4-1.104c.629 0 1.12-.192 1.472-.576.362-.3947.544-.9387.544-1.632v-2.496c0-.6933-.182-1.232-.544-1.616-.352-.3947-.843-.592-1.472-.592-.64 0-1.142.192-1.504.576-.363.384-.544.928-.544 1.632v2.496c0 .704.181 1.248.544 1.632.362.384.864.576 1.504.576zm9.626 1.104c-.683 0-1.275-.1333-1.776-.4-.502-.2773-.891-.6667-1.168-1.168-.278-.5013-.416-1.0827-.416-1.744v-2.496c0-.672.138-1.2533.416-1.744.277-.5013.666-.8853 1.168-1.152.501-.2773 1.093-.416 1.776-.416.682 0 1.274.1387 1.776.416.501.2667.89.6507 1.168 1.152.277.4907.416 1.072.416 1.744v1.552h-5.472v.944c0 .7147.181 1.2693.544 1.664.373.384.896.576 1.568.576.565 0 1.024-.112 1.376-.336.362-.224.592-.5493.688-.976h1.264c-.118.736-.475 1.3173-1.072 1.744-.598.4267-1.35.64-2.256.64zm2.112-5.104v-.704c0-.7147-.182-1.264-.544-1.648-.363-.3947-.886-.592-1.568-.592-.672 0-1.195.1973-1.568.592-.363.384-.544.9333-.544 1.648v.56h4.352zm13.843 4.944v-11.68h3.216c1.045 0 1.867.272 2.464.816.597.5333.896 1.2693.896 2.208 0 .5333-.112 1.0027-.336 1.408-.213.3947-.523.704-.928.928-.395.2133-.875.3147-1.44.304v-.224c.608 0 1.131.1227 1.568.368.448.2347.795.5813 1.04 1.04.245.448.368.9813.368 1.6 0 .6613-.139 1.2373-.416 1.728-.277.48-.672.8533-1.184 1.12-.512.256-1.125.384-1.84.384zm1.232-1.152h2.064c.715 0 1.275-.1867 1.68-.56.416-.384.624-.9013.624-1.552 0-.672-.208-1.2107-.624-1.616-.405-.416-.965-.624-1.68-.624h-2.064zm0-5.456h1.984c.651 0 1.163-.176 1.536-.528s.56-.832.56-1.44-.187-1.0827-.56-1.424c-.363-.352-.875-.528-1.536-.528h-1.984zm11.594 6.752c-.683 0-1.275-.1333-1.776-.4-.502-.2667-.891-.6507-1.168-1.152-.278-.5013-.416-1.0933-.416-1.776v-2.432c0-.6933.138-1.2853.416-1.776.277-.5013.666-.8853 1.168-1.152.501-.2667 1.093-.4 1.776-.4.682 0 1.274.1333 1.776.4.501.2667.89.6507 1.168 1.152.277.4907.416 1.0773.416 1.76v2.448c0 .6827-.139 1.2747-.416 1.776-.278.5013-.667.8853-1.168 1.152-.502.2667-1.094.4-1.776.4zm0-1.136c.661 0 1.173-.1867 1.536-.56.362-.3733.544-.9173.544-1.632v-2.432c0-.7147-.187-1.2587-.56-1.632-.363-.3733-.87-.56-1.52-.56-.651 0-1.163.1867-1.536.56-.363.3733-.544.9173-.544 1.632v2.432c0 .7147.181 1.2587.544 1.632.373.3733.885.56 1.536.56zm9.594 1.136c-.683 0-1.275-.1333-1.776-.4-.502-.2667-.891-.6507-1.168-1.152-.278-.5013-.416-1.0933-.416-1.776v-2.432c0-.6933.138-1.2853.416-1.776.277-.5013.666-.8853 1.168-1.152.501-.2667 1.093-.4 1.776-.4.682 0 1.274.1333 1.776.4.501.2667.89.6507 1.168 1.152.277.4907.416 1.0773.416 1.76v2.448c0 .6827-.139 1.2747-.416 1.776-.278.5013-.667.8853-1.168 1.152-.502.2667-1.094.4-1.776.4zm0-1.136c.661 0 1.173-.1867 1.536-.56.362-.3733.544-.9173.544-1.632v-2.432c0-.7147-.187-1.2587-.56-1.632-.363-.3733-.87-.56-1.52-.56-.651 0-1.163.1867-1.536.56-.363.3733-.544.9173-.544 1.632v2.432c0 .7147.181 1.2587.544 1.632.373.3733.885.56 1.536.56zm10.553.992c-.736 0-1.306-.192-1.712-.576-.405-.3947-.608-.9493-.608-1.664v-5.408h-2.496v-1.152h2.496v-2.48h1.28v2.48h3.536v1.152h-3.536v5.408c0 .7253.347 1.088 1.04 1.088h2.336v1.152zm8.682.16c-.683 0-1.28-.1333-1.792-.4s-.912-.6453-1.2-1.136c-.277-.5013-.416-1.0933-.416-1.776v-2.496c0-.6827.139-1.2693.416-1.76.288-.5013.688-.8853 1.2-1.152s1.109-.4 1.792-.4c1.003 0 1.808.272 2.416.816s.923 1.2853.944 2.224h-1.264c-.021-.608-.219-1.0773-.592-1.408-.363-.3307-.864-.496-1.504-.496-.651 0-1.168.192-1.552.576-.384.3733-.576.9067-.576 1.6v2.496c0 .6827.192 1.216.576 1.6s.901.576 1.552.576c.64 0 1.141-.1653 1.504-.496.373-.3413.571-.8107.592-1.408h1.264c-.021.9387-.336 1.68-.944 2.224s-1.413.816-2.416.816zm8.858 0c-.928 0-1.659-.2347-2.192-.704-.534-.48-.8-1.1253-.8-1.936 0-.8.261-1.4293.784-1.888.522-.4693 1.226-.704 2.112-.704h2.8v-.928c0-.5867-.171-1.04-.512-1.36-.342-.32-.827-.48-1.456-.48-.555 0-1.019.1227-1.392.368-.363.2453-.571.576-.624.992h-1.28c.106-.7573.458-1.36 1.056-1.808.608-.448 1.365-.672 2.272-.672.981 0 1.76.2667 2.336.8.576.5227.864 1.232.864 2.128v6.032h-1.248v-1.712h-.208l.24-.256c0 .6507-.251 1.168-.752 1.552-.502.384-1.168.576-2 .576zm.304-1.024c.704 0 1.28-.176 1.728-.528s.672-.8107.672-1.376v-1.328h-2.784c-.502 0-.902.1387-1.2.416-.299.2773-.448.656-.448 1.136 0 .512.181.9227.544 1.232.362.2987.858.448 1.488.448zm6.282.864v-8.8h1.12v1.088h.24l-.176.352c0-.4907.128-.88.384-1.168.266-.288.629-.432 1.088-.432.48 0 .853.1707 1.12.512.277.3413.421.8213.432 1.44l-.336-.704h.528l-.224.352c0-.4907.133-.88.4-1.168.266-.288.629-.432 1.088-.432.544 0 .965.2027 1.264.608.309.4053.464.944.464 1.616v6.736h-1.184v-6.736c0-.384-.086-.6827-.256-.896-.171-.224-.411-.336-.72-.336-.31 0-.555.112-.736.336-.182.2133-.272.512-.272.896v6.736h-1.056v-6.736c0-.3947-.091-.6987-.272-.912-.171-.2133-.411-.32-.72-.32-.31 0-.55.1067-.72.32-.171.2133-.262.5173-.272.912v6.736zm10.041 2.88v-11.68h1.264v1.552h.336l-.384.528c0-.6933.224-1.2373.672-1.632.459-.4053 1.062-.608 1.808-.608.886 0 1.59.2933 2.112.88.534.576.8 1.3653.8 2.368v2.608c0 .672-.122 1.2533-.368 1.744-.245.48-.586.8533-1.024 1.12-.426.2667-.933.4-1.52.4-.736 0-1.333-.2027-1.792-.608-.458-.4053-.688-.9493-.688-1.632l.336.528h-.304l.016 1.792v2.64zm3.296-3.824c.64 0 1.136-.192 1.488-.576.363-.384.544-.928.544-1.632v-2.496c0-.7147-.181-1.2587-.544-1.632-.352-.384-.848-.576-1.488-.576-.618 0-1.114.1973-1.488.592-.362.384-.544.9227-.544 1.616v2.496c0 .6933.182 1.2373.544 1.632.374.384.87.576 1.488.576zm15.908.944v-8.8h1.28v3.744h3.904v-3.744h1.28v8.8h-1.28v-3.904h-3.904v3.904zm12.137.16c-.927 0-1.658-.2347-2.191-.704-.534-.48-.8-1.1253-.8-1.936 0-.8.261-1.4293.784-1.888.522-.4693 1.226-.704 2.112-.704h2.8v-.928c0-.5867-.171-1.04-.512-1.36-.342-.32-.827-.48-1.456-.48-.555 0-1.019.1227-1.392.368-.363.2453-.571.576-.624.992h-1.28c.106-.7573.458-1.36 1.056-1.808.608-.448 1.365-.672 2.272-.672.981 0 1.76.2667 2.336.8.576.5227.863 1.232.863 2.128v6.032h-1.247v-1.712h-.208l.24-.256c0 .6507-.251 1.168-.752 1.552-.502.384-1.168.576-2.001.576zm.305-1.024c.704 0 1.28-.176 1.728-.528s.672-.8107.672-1.376v-1.328h-2.784c-.502 0-.902.1387-1.2.416-.299.2773-.448.656-.448 1.136 0 .512.181.9227.544 1.232.362.2987.858.448 1.488.448zm9.993 1.024c-.682 0-1.28-.1333-1.792-.4s-.912-.6453-1.2-1.136c-.277-.5013-.416-1.0933-.416-1.776v-2.496c0-.6827.139-1.2693.416-1.76.288-.5013.688-.8853 1.2-1.152s1.11-.4 1.792-.4c1.003 0 1.808.272 2.416.816s.923 1.2853.944 2.224h-1.264c-.021-.608-.218-1.0773-.592-1.408-.362-.3307-.864-.496-1.504-.496-.65 0-1.168.192-1.552.576-.384.3733-.576.9067-.576 1.6v2.496c0 .6827.192 1.216.576 1.6s.902.576 1.552.576c.64 0 1.142-.1653 1.504-.496.374-.3413.571-.8107.592-1.408h1.264c-.021.9387-.336 1.68-.944 2.224s-1.413.816-2.416.816zm8.938-.16v-7.664h-3.2v-1.136h7.68v1.136h-3.2v7.664zm9.546.16c-.928 0-1.659-.2347-2.192-.704-.534-.48-.8-1.1253-.8-1.936 0-.8.261-1.4293.784-1.888.522-.4693 1.226-.704 2.112-.704h2.8v-.928c0-.5867-.171-1.04-.512-1.36-.342-.32-.827-.48-1.456-.48-.555 0-1.019.1227-1.392.368-.363.2453-.571.576-.624.992h-1.28c.106-.7573.458-1.36 1.056-1.808.608-.448 1.365-.672 2.272-.672.981 0 1.76.2667 2.336.8.576.5227.864 1.232.864 2.128v6.032h-1.248v-1.712h-.208l.24-.256c0 .6507-.251 1.168-.752 1.552-.502.384-1.168.576-2 .576zm.304-1.024c.704 0 1.28-.176 1.728-.528s.672-.8107.672-1.376v-1.328h-2.784c-.502 0-.902.1387-1.2.416-.299.2773-.448.656-.448 1.136 0 .512.181.9227.544 1.232.362.2987.858.448 1.488.448zm6.746.864v-8.8h3.776c.874 0 1.562.208 2.064.624.501.4053.752.9707.752 1.696 0 .608-.208 1.0987-.624 1.472-.406.3627-.95.544-1.632.544v-.112c.736 0 1.328.192 1.776.576.448.3733.672.8747.672 1.504 0 .7787-.267 1.392-.8 1.84-.523.4373-1.248.656-2.176.656zm1.248-1.12h2.56c.522 0 .938-.1227 1.248-.368.309-.256.464-.5973.464-1.024 0-.448-.155-.7947-.464-1.04-.31-.256-.726-.384-1.248-.384h-2.56zm0-3.92h2.528c.469 0 .842-.1173 1.12-.352.288-.2347.432-.5547.432-.96s-.144-.7253-.432-.96c-.278-.2453-.651-.368-1.12-.368h-2.528zm8.345 5.04v-8.8h1.28v3.744h3.904v-3.744h1.28v8.8h-1.28v-3.904h-3.904v3.904zm9.594 0v-8.8h1.232v5.008c0 .2987-.011.6187-.032.96-.011.3307-.027.6453-.048.944s-.043.5493-.064.752l3.728-7.664h1.648v8.8h-1.232v-5.008c0-.3093.005-.6293.016-.96.021-.3307.043-.6453.064-.944.032-.3093.053-.5653.064-.768l-3.744 7.68zm9.642 0v-8.8h1.28v3.696h1.664l2.608-3.696h1.456l-2.96 4.192 3.024 4.608h-1.488l-2.64-4h-1.664v4zm9.546 0v-8.8h1.232v5.008c0 .2987-.011.6187-.032.96-.011.3307-.027.6453-.048.944-.022.2987-.043.5493-.064.752l3.728-7.664h1.648v8.8h-1.232v-5.008c0-.3093.005-.6293.016-.96.021-.3307.042-.6453.064-.944.032-.3093.053-.5653.064-.768l-3.744 7.68zm-287.813 21v-8.8h3.776c.8747 0 1.5627.208 2.064.624.5013.405.752.971.752 1.696 0 .608-.208 1.099-.624 1.472-.4053.363-.9493.544-1.632.544v-.112c.736 0 1.328.192 1.776.576.448.373.672.875.672 1.504 0 .779-.2667 1.392-.8 1.84-.5227.437-1.248.656-2.176.656zm1.248-1.12h2.56c.5227 0 .9387-.123 1.248-.368.3093-.256.464-.597.464-1.024 0-.448-.1547-.795-.464-1.04-.3093-.256-.7253-.384-1.248-.384h-2.56zm0-3.92h2.528c.4693 0 .8427-.117 1.12-.352.288-.235.432-.555.432-.96s-.144-.725-.432-.96c-.2773-.245-.6507-.368-1.12-.368h-2.528zm11.5938 5.2c-.6827 0-1.28-.133-1.792-.4s-.912-.645-1.2-1.136c-.2774-.501-.416-1.093-.416-1.776v-2.496c0-.683.1386-1.269.416-1.76.288-.501.688-.885 1.2-1.152s1.1093-.4 1.792-.4c1.0026 0 1.808.272 2.416.816s.9226 1.285.944 2.224h-1.264c-.0214-.608-.2187-1.077-.592-1.408-.3627-.331-.864-.496-1.504-.496-.6507 0-1.168.192-1.552.576-.384.373-.576.907-.576 1.6v2.496c0 .683.192 1.216.576 1.6s.9013.576 1.552.576c.64 0 1.1413-.165 1.504-.496.3733-.341.5706-.811.592-1.408h1.264c-.0214.939-.336 1.68-.944 2.224s-1.4134.816-2.416.816zm9.5777 0c-.6827 0-1.2747-.133-1.776-.4-.5013-.277-.8907-.667-1.168-1.168s-.416-1.083-.416-1.744v-2.496c0-.672.1387-1.253.416-1.744.2773-.501.6667-.885 1.168-1.152.5013-.277 1.0933-.416 1.776-.416s1.2747.139 1.776.416c.5013.267.8907.651 1.168 1.152.2773.491.416 1.072.416 1.744v1.552h-5.472v.944c0 .715.1813 1.269.544 1.664.3733.384.896.576 1.568.576.5653 0 1.024-.112 1.376-.336.3627-.224.592-.549.688-.976h1.264c-.1173.736-.4747 1.317-1.072 1.744s-1.3493.64-2.256.64zm2.112-5.104v-.704c0-.715-.1813-1.264-.544-1.648-.3627-.395-.8853-.592-1.568-.592-.672 0-1.1947.197-1.568.592-.3627.384-.544.933-.544 1.648v.56h4.352zm4.8258 4.944v-8.8h6.24v1.152h-4.976v7.648zm7.9937 2.24v-3.328h.72c.1813-.203.368-.565.56-1.088.2027-.533.3093-1.179.32-1.936l.096-4.688h5.6v7.712h1.136v3.328h-1.136v-2.24h-6.16v2.24zm2.08-3.328h3.952v-6.576h-3.136l-.064 3.568c-.0107.8-.1013 1.456-.272 1.968s-.3307.859-.48 1.04zm11.0817 1.248c-.9279 0-1.6586-.235-2.1919-.704-.5334-.48-.8-1.125-.8-1.936 0-.8.2613-1.429.784-1.888.5226-.469 1.2266-.704 2.112-.704h2.8v-.928c0-.587-.1707-1.04-.512-1.36-.3414-.32-.8267-.48-1.456-.48-.5547 0-1.0187.123-1.392.368-.3627.245-.5707.576-.624.992h-1.28c.1066-.757.4586-1.36 1.056-1.808.608-.448 1.3653-.672 2.272-.672.9813 0 1.76.267 2.336.8.576.523.8639 1.232.8639 2.128v6.032h-1.2479v-1.712h-.208l.24-.256c0 .651-.2507 1.168-.752 1.552-.5014.384-1.168.576-2.0001.576zm.3041-1.024c.704 0 1.28-.176 1.728-.528s.672-.811.672-1.376v-1.328h-2.784c-.5014 0-.9014.139-1.2.416-.2987.277-.448.656-.448 1.136 0 .512.1813.923.544 1.232.3626.299.8586.448 1.488.448zm16.3235 3.744v-11.68h1.264v1.552h.336l-.384.528c0-.693.224-1.237.672-1.632.4586-.405 1.0613-.608 1.808-.608.8853 0 1.5893.293 2.112.88.5333.576.8 1.365.8 2.368v2.608c0 .672-.1227 1.253-.368 1.744-.2454.48-.5867.853-1.024 1.12-.4267.267-.9334.4-1.52.4-.736 0-1.3334-.203-1.792-.608-.4587-.405-.688-.949-.688-1.632l.336.528h-.304l.016 1.792v2.64zm3.296-3.824c.64 0 1.136-.192 1.488-.576.3626-.384.544-.928.544-1.632v-2.496c0-.715-.1814-1.259-.544-1.632-.352-.384-.848-.576-1.488-.576-.6187 0-1.1147.197-1.488.592-.3627.384-.544.923-.544 1.616v2.496c0 .693.1813 1.237.544 1.632.3733.384.8693.576 1.488.576zm5.8177.944 2.24-3.408c-.6827-.149-1.2107-.453-1.584-.912s-.56-1.035-.56-1.728c0-.853.2827-1.525.848-2.016.576-.491 1.355-.736 2.336-.736h3.68v8.8h-1.28v-3.296h-2.128l-2.08 3.296zm3.28-4.432h2.4v-3.232h-2.4c-.576 0-1.035.144-1.376.432-.3413.288-.512.683-.512 1.184s.1707.896.512 1.184c.341.288.8.432 1.376.432zm5.786 6.672v-3.328h.72c.181-.203.368-.565.56-1.088.202-.533.309-1.179.32-1.936l.096-4.688h5.6v7.712h1.136v3.328h-1.136v-2.24h-6.16v2.24zm2.08-3.328h3.952v-6.576h-3.136l-.064 3.568c-.011.8-.102 1.456-.272 1.968-.171.512-.331.859-.48 1.04zm11.77 1.232c-.683 0-1.275-.133-1.776-.4-.502-.267-.891-.651-1.168-1.152-.278-.501-.416-1.093-.416-1.776v-2.432c0-.693.138-1.285.416-1.776.277-.501.666-.885 1.168-1.152.501-.267 1.093-.4 1.776-.4.682 0 1.274.133 1.776.4.501.267.89.651 1.168 1.152.277.491.416 1.077.416 1.76v2.448c0 .683-.139 1.275-.416 1.776-.278.501-.667.885-1.168 1.152-.502.267-1.094.4-1.776.4zm0-1.136c.661 0 1.173-.187 1.536-.56.362-.373.544-.917.544-1.632v-2.432c0-.715-.187-1.259-.56-1.632-.363-.373-.87-.56-1.52-.56-.651 0-1.163.187-1.536.56-.363.373-.544.917-.544 1.632v2.432c0 .715.181 1.259.544 1.632.373.373.885.56 1.536.56zm6.073.992v-8.8h1.76l1.28 3.584c.107.309.208.624.304.944s.166.571.208.752c.054-.181.123-.432.208-.752.096-.32.198-.64.304-.96l1.232-3.568h1.744v8.8h-1.232v-2.112c0-.459.006-.949.016-1.472.011-.523.022-1.045.032-1.568.011-.523.027-1.013.048-1.472.022-.469.038-.88.048-1.232l-1.744 5.216h-1.344l-1.744-5.184c.022.427.038.965.048 1.616.011.64.022 1.317.032 2.032.022.715.032 1.403.032 2.064v2.112zm11.066 2.56 1.248-4.976h1.92l-2.064 4.976zm20.547-2.4c-.927 0-1.658-.235-2.191-.704-.534-.48-.8-1.125-.8-1.936 0-.8.261-1.429.784-1.888.522-.469 1.226-.704 2.112-.704h2.8v-.928c0-.587-.171-1.04-.512-1.36-.342-.32-.827-.48-1.456-.48-.555 0-1.019.123-1.392.368-.363.245-.571.576-.624.992h-1.28c.106-.757.458-1.36 1.056-1.808.608-.448 1.365-.672 2.272-.672.981 0 1.76.267 2.336.8.576.523.863 1.232.863 2.128v6.032h-1.247v-1.712h-.208l.24-.256c0 .651-.251 1.168-.752 1.552-.502.384-1.168.576-2.001.576zm.305-1.024c.704 0 1.28-.176 1.728-.528s.672-.811.672-1.376v-1.328h-2.784c-.502 0-.902.139-1.2.416-.299.277-.448.656-.448 1.136 0 .512.181.923.544 1.232.362.299.858.448 1.488.448zm16.339.864v-8.8h1.28v3.744h3.904v-3.744h1.28v8.8h-1.28v-3.904h-3.904v3.904zm12.826.16c-.683 0-1.275-.133-1.776-.4-.502-.277-.891-.667-1.168-1.168-.278-.501-.416-1.083-.416-1.744v-2.496c0-.672.138-1.253.416-1.744.277-.501.666-.885 1.168-1.152.501-.277 1.093-.416 1.776-.416.682 0 1.274.139 1.776.416.501.267.89.651 1.168 1.152.277.491.416 1.072.416 1.744v1.552h-5.472v.944c0 .715.181 1.269.544 1.664.373.384.896.576 1.568.576.565 0 1.024-.112 1.376-.336.362-.224.592-.549.688-.976h1.264c-.118.736-.475 1.317-1.072 1.744-.598.427-1.35.64-2.256.64zm2.112-5.104v-.704c0-.715-.182-1.264-.544-1.648-.363-.395-.886-.592-1.568-.592-.672 0-1.195.197-1.568.592-.363.384-.544.933-.544 1.648v.56h4.352zm13.843 4.944v-8.8h6.464v8.8h-1.28v-7.648h-3.904v7.648zm9.578 2.88v-11.68h1.264v1.552h.336l-.384.528c0-.693.224-1.237.672-1.632.459-.405 1.061-.608 1.808-.608.885 0 1.589.293 2.112.88.533.576.8 1.365.8 2.368v2.608c0 .672-.123 1.253-.368 1.744-.245.48-.587.853-1.024 1.12-.427.267-.933.4-1.52.4-.736 0-1.333-.203-1.792-.608s-.688-.949-.688-1.632l.336.528h-.304l.016 1.792v2.64zm3.296-3.824c.64 0 1.136-.192 1.488-.576.363-.384.544-.928.544-1.632v-2.496c0-.715-.181-1.259-.544-1.632-.352-.384-.848-.576-1.488-.576-.619 0-1.115.197-1.488.592-.363.384-.544.923-.544 1.616v2.496c0 .693.181 1.237.544 1.632.373.384.869.576 1.488.576zm9.546 1.088c-.683 0-1.275-.133-1.776-.4-.502-.267-.891-.651-1.168-1.152-.278-.501-.416-1.093-.416-1.776v-2.432c0-.693.138-1.285.416-1.776.277-.501.666-.885 1.168-1.152.501-.267 1.093-.4 1.776-.4.682 0 1.274.133 1.776.4.501.267.89.651 1.168 1.152.277.491.416 1.077.416 1.76v2.448c0 .683-.139 1.275-.416 1.776-.278.501-.667.885-1.168 1.152-.502.267-1.094.4-1.776.4zm0-1.136c.661 0 1.173-.187 1.536-.56.362-.373.544-.917.544-1.632v-2.432c0-.715-.187-1.259-.56-1.632-.363-.373-.87-.56-1.52-.56-.651 0-1.163.187-1.536.56-.363.373-.544.917-.544 1.632v2.432c0 .715.181 1.259.544 1.632.373.373.885.56 1.536.56zm9.61 1.152c-.683 0-1.28-.133-1.792-.4s-.912-.645-1.2-1.136c-.278-.501-.416-1.093-.416-1.776v-2.496c0-.683.138-1.269.416-1.76.288-.501.688-.885 1.2-1.152s1.109-.4 1.792-.4c1.002 0 1.808.272 2.416.816s.922 1.285.944 2.224h-1.264c-.022-.608-.219-1.077-.592-1.408-.363-.331-.864-.496-1.504-.496-.651 0-1.168.192-1.552.576-.384.373-.576.907-.576 1.6v2.496c0 .683.192 1.216.576 1.6s.901.576 1.552.576c.64 0 1.141-.165 1.504-.496.373-.341.57-.811.592-1.408h1.264c-.022.939-.336 1.68-.944 2.224s-1.414.816-2.416.816zm8.937-.16v-7.664h-3.2v-1.136h7.68v1.136h-3.2v7.664zm10.234.144c-.683 0-1.275-.133-1.776-.4s-.891-.651-1.168-1.152-.416-1.093-.416-1.776v-2.432c0-.693.139-1.285.416-1.776.277-.501.667-.885 1.168-1.152s1.093-.4 1.776-.4 1.275.133 1.776.4.891.651 1.168 1.152c.277.491.416 1.077.416 1.76v2.448c0 .683-.139 1.275-.416 1.776s-.667.885-1.168 1.152-1.093.4-1.776.4zm0-1.136c.661 0 1.173-.187 1.536-.56s.544-.917.544-1.632v-2.432c0-.715-.187-1.259-.56-1.632-.363-.373-.869-.56-1.52-.56s-1.163.187-1.536.56c-.363.373-.544.917-.544 1.632v2.432c0 .715.181 1.259.544 1.632.373.373.885.56 1.536.56zm-233.482 21.992v-8.8h6.464v8.8h-1.28v-7.648h-3.904v7.648zm9.5778 2.88v-11.68h1.264v1.552h.336l-.384.528c0-.693.224-1.237.672-1.632.4586-.405 1.0613-.608 1.808-.608.8853 0 1.5893.293 2.112.88.5333.576.8 1.365.8 2.368v2.608c0 .672-.1227 1.253-.368 1.744-.2454.48-.5867.853-1.024 1.12-.4267.267-.9334.4-1.52.4-.736 0-1.3334-.203-1.792-.608-.4587-.405-.688-.949-.688-1.632l.336.528h-.304l.016 1.792v2.64zm3.296-3.824c.64 0 1.136-.192 1.488-.576.3626-.384.544-.928.544-1.632v-2.496c0-.715-.1814-1.259-.544-1.632-.352-.384-.848-.576-1.488-.576-.6187 0-1.1147.197-1.488.592-.3627.384-.544.923-.544 1.616v2.496c0 .693.1813 1.237.544 1.632.3733.384.8693.576 1.488.576zm9.5457 1.088c-.6827 0-1.2747-.133-1.776-.4s-.8907-.651-1.168-1.152-.416-1.093-.416-1.776v-2.432c0-.693.1387-1.285.416-1.776.2773-.501.6667-.885 1.168-1.152s1.0933-.4 1.776-.4 1.2747.133 1.776.4.8907.651 1.168 1.152c.2773.491.416 1.077.416 1.76v2.448c0 .683-.1387 1.275-.416 1.776s-.6667.885-1.168 1.152-1.0933.4-1.776.4zm0-1.136c.6613 0 1.1733-.187 1.536-.56s.544-.917.544-1.632v-2.432c0-.715-.1867-1.259-.56-1.632-.3627-.373-.8693-.56-1.52-.56s-1.1627.187-1.536.56c-.3627.373-.544.917-.544 1.632v2.432c0 .715.1813 1.259.544 1.632.3733.373.8853.56 1.536.56zm6.3618.992v-8.8h3.776c.8746 0 1.5626.208 2.064.624.5013.405.752.971.752 1.696 0 .608-.208 1.099-.624 1.472-.4054.363-.9494.544-1.632.544v-.112c.736 0 1.328.192 1.776.576.448.373.672.875.672 1.504 0 .779-.2667 1.392-.8 1.84-.5227.437-1.248.656-2.176.656zm1.248-1.12h2.56c.5226 0 .9386-.123 1.248-.368.3093-.256.464-.597.464-1.024 0-.448-.1547-.795-.464-1.04-.3094-.256-.7254-.384-1.248-.384h-2.56zm0-3.92h2.528c.4693 0 .8426-.117 1.12-.352.288-.235.432-.555.432-.96s-.144-.725-.432-.96c-.2774-.245-.6507-.368-1.12-.368h-2.528zm11.5777 5.2c-.6827 0-1.2747-.133-1.776-.4-.5013-.277-.8907-.667-1.168-1.168s-.416-1.083-.416-1.744v-2.496c0-.672.1387-1.253.416-1.744.2773-.501.6667-.885 1.168-1.152.5013-.277 1.0933-.416 1.776-.416s1.2747.139 1.776.416c.5013.267.8907.651 1.168 1.152.2773.491.416 1.072.416 1.744v1.552h-5.472v.944c0 .715.1813 1.269.544 1.664.3733.384.896.576 1.568.576.5653 0 1.024-.112 1.376-.336.3627-.224.592-.549.688-.976h1.264c-.1173.736-.4747 1.317-1.072 1.744s-1.3493.64-2.256.64zm2.112-5.104v-.704c0-.715-.1813-1.264-.544-1.648-.3627-.395-.8853-.592-1.568-.592-.672 0-1.1947.197-1.568.592-.3627.384-.544.933-.544 1.648v.56h4.352zm4.2338 7.824v-11.68h1.264v1.552h.336l-.384.528c0-.693.224-1.237.672-1.632.4586-.405 1.0613-.608 1.808-.608.8853 0 1.5893.293 2.112.88.5333.576.8 1.365.8 2.368v2.608c0 .672-.1227 1.253-.368 1.744-.2454.48-.5867.853-1.024 1.12-.4267.267-.9334.4-1.52.4-.736 0-1.3334-.203-1.792-.608-.4587-.405-.688-.949-.688-1.632l.336.528h-.304l.016 1.792v2.64zm3.296-3.824c.64 0 1.136-.192 1.488-.576.3626-.384.544-.928.544-1.632v-2.496c0-.715-.1814-1.259-.544-1.632-.352-.384-.848-.576-1.488-.576-.6187 0-1.1147.197-1.488.592-.3627.384-.544.923-.544 1.616v2.496c0 .693.1813 1.237.544 1.632.3733.384.8693.576 1.488.576zm5.8177.944 2.24-3.408c-.6827-.149-1.2107-.453-1.584-.912s-.56-1.035-.56-1.728c0-.853.2827-1.525.848-2.016.576-.491 1.3547-.736 2.336-.736h3.68v8.8h-1.28v-3.296h-2.128l-2.08 3.296zm3.28-4.432h2.4v-3.232h-2.4c-.576 0-1.0347.144-1.376.432s-.512.683-.512 1.184.1707.896.512 1.184.8.432 1.376.432zm11.4178 4.592c-.736 0-1.328-.245-1.776-.736-.4374-.501-.656-1.163-.656-1.984v-1.392h-1.52v3.952h-1.1681v-8.8h1.1681v3.824h1.52v-1.264c0-.832.2186-1.493.656-1.984.4373-.491 1.0293-.736 1.776-.736.7786 0 1.4026.245 1.872.736.4693.491.704 1.152.704 1.984v3.68c0 .821-.2347 1.483-.704 1.984-.4694.491-1.0934.736-1.872.736zm0-1.008c.4373 0 .7786-.149 1.024-.448.2453-.309.368-.731.368-1.264v-3.68c0-.533-.1227-.949-.368-1.248-.2454-.309-.5867-.464-1.024-.464-.4267 0-.7627.155-1.008.464-.2454.299-.368.715-.368 1.248v3.68c0 .533.1226.955.368 1.264.2453.299.5813.448 1.008.448zm7.5777.848v-7.664h-3.2v-1.136h7.68v1.136h-3.2v7.664zm15.572 2.24v-3.328h.72c.181-.203.368-.565.56-1.088.202-.533.309-1.179.32-1.936l.096-4.688h5.6v7.712h1.136v3.328h-1.136v-2.24h-6.16v2.24zm2.08-3.328h3.952v-6.576h-3.136l-.064 3.568c-.011.8-.102 1.456-.272 1.968-.171.512-.331.859-.48 1.04zm11.769 1.232c-.682 0-1.274-.133-1.776-.4-.501-.267-.89-.651-1.168-1.152-.277-.501-.416-1.093-.416-1.776v-2.432c0-.693.139-1.285.416-1.776.278-.501.667-.885 1.168-1.152.502-.267 1.094-.4 1.776-.4.683 0 1.275.133 1.776.4.502.267.891.651 1.168 1.152.278.491.416 1.077.416 1.76v2.448c0 .683-.138 1.275-.416 1.776-.277.501-.666.885-1.168 1.152-.501.267-1.093.4-1.776.4zm0-1.136c.662 0 1.174-.187 1.536-.56.363-.373.544-.917.544-1.632v-2.432c0-.715-.186-1.259-.56-1.632-.362-.373-.869-.56-1.52-.56-.65 0-1.162.187-1.536.56-.362.373-.544.917-.544 1.632v2.432c0 .715.182 1.259.544 1.632.374.373.886.56 1.536.56zm6.074.992v-8.8h1.76l1.28 3.584c.107.309.208.624.304.944s.165.571.208.752c.053-.181.123-.432.208-.752.096-.32.197-.64.304-.96l1.232-3.568h1.744v8.8h-1.232v-2.112c0-.459.005-.949.016-1.472s.021-1.045.032-1.568.027-1.013.048-1.472c.021-.469.037-.88.048-1.232l-1.744 5.216h-1.344l-1.744-5.184c.021.427.037.965.048 1.616.011.64.021 1.317.032 2.032.021.715.032 1.403.032 2.064v2.112zm12.426.16c-.928 0-1.659-.235-2.192-.704-.534-.48-.8-1.125-.8-1.936 0-.8.261-1.429.784-1.888.522-.469 1.226-.704 2.112-.704h2.8v-.928c0-.587-.171-1.04-.512-1.36-.342-.32-.827-.48-1.456-.48-.555 0-1.019.123-1.392.368-.363.245-.571.576-.624.992h-1.28c.106-.757.458-1.36 1.056-1.808.608-.448 1.365-.672 2.272-.672.981 0 1.76.267 2.336.8.576.523.864 1.232.864 2.128v6.032h-1.248v-1.712h-.208l.24-.256c0 .651-.251 1.168-.752 1.552-.502.384-1.168.576-2 .576zm.304-1.024c.704 0 1.28-.176 1.728-.528s.672-.811.672-1.376v-1.328h-2.784c-.502 0-.902.139-1.2.416-.299.277-.448.656-.448 1.136 0 .512.181.923.544 1.232.362.299.858.448 1.488.448zm6.282.864-.032-8.8h1.2v7.824h2.016v-7.824h1.056v7.824h2v-7.824h1.184v8.8zm10.105 0v-8.8h1.28v3.696h1.664l2.608-3.696h1.456l-2.96 4.192 3.024 4.608h-1.488l-2.64-4h-1.664v4zm10.922 2.88 1.296-3.44-3.264-8.24h1.408l2.08 5.488c.085.213.165.453.24.72.085.256.149.469.192.64.053-.171.117-.389.192-.656s.149-.507.224-.72l1.952-5.472h1.36l-4.336 11.68zm11.45-2.72c-.395 0-.71-.112-.944-.336-.224-.235-.336-.544-.336-.928 0-.405.112-.725.336-.96.234-.235.549-.352.944-.352.394 0 .704.117.928.352.234.235.352.555.352.96 0 .384-.118.693-.352.928-.224.224-.534.336-.928.336z"/></g></svg>