<svg fill="none" height="125" viewBox="0 0 728 125" width="728" xmlns="http://www.w3.org/2000/svg" xmlns:xlink="http://www.w3.org/1999/xlink"><filter id="a" color-interpolation-filters="sRGB" filterUnits="userSpaceOnUse" height="268" width="268" x="395" y="-8"><feFlood flood-opacity="0" result="BackgroundImageFix"/><feBlend in="SourceGraphic" in2="BackgroundImageFix" mode="normal" result="shape"/><feGaussianBlur result="effect1_foregroundBlur_59_800" stdDeviation="50"/></filter><filter id="b" color-interpolation-filters="sRGB" filterUnits="userSpaceOnUse" height="280" width="280" x="-100" y="-131"><feFlood flood-opacity="0" result="BackgroundImageFix"/><feBlend in="SourceGraphic" in2="BackgroundImageFix" mode="normal" result="shape"/><feGaussianBlur result="effect1_foregroundBlur_59_800" stdDeviation="50"/></filter><clipPath id="c"><path d="m0 0h728v125h-728z"/></clipPath><g clip-path="url(#c)"><path d="m0 0h728v125h-728z" fill="#3e2b2e"/><g filter="url(#a)"><circle cx="529" cy="126" fill="#e97a8c" r="34"/></g><g filter="url(#b)"><circle cx="40" cy="9" fill="#e97a8c" r="40"/></g><path d="m25 56h50v7.99997h-50z" fill="#e97a8c"/><g fill="#fff"><path d="m25 43.6027 9.2813-.0142c.0594.566.3168.9763.7722 1.231.4653.2453 1.2127.3679 2.2423.3679.8613 0 1.5098-.0896 1.9454-.2688.4455-.1887.6682-.4669.6682-.8348 0-.6415-1.1533-1.0613-3.46-1.2594-.4554-.0471-.8019-.0801-1.0395-.099-.0198 0-.0396 0-.0594 0-3.7224-.349-6.237-.8018-7.5438-1.3584-.7623-.3207-1.3514-.8254-1.7672-1.514-.4059-.6886-.6088-1.4998-.6088-2.4337 0-1.8772.9009-3.2497 2.7027-4.1175 1.8018-.8679 4.6728-1.3018 8.613-1.3018 3.7224 0 6.4894.4434 8.3011 1.3301 1.8216.8867 2.7918 2.2592 2.9106 4.1175h-8.7466c-.0495-.5471-.3168-.9433-.8019-1.1886-.4752-.2452-1.2425-.3679-2.3018-.3679-.9009 0-1.5642.0944-1.9899.283-.4158.1793-.6237.4623-.6237.849 0 .6226.99 1.0093 2.97 1.1603.4158.0377.7326.066.9504.0849.1584.0094.4059.0283.7425.0566 3.9897.3396 6.3162.6178 6.9795.8348 1.3068.4434 2.2275.9905 2.7621 1.6414.5346.6414.8019 1.5234.8019 2.6459 0 2.0753-.9603 3.5752-2.8809 4.4996-1.9107.9244-5.049 1.3867-9.4149 1.3867-3.8808 0-6.732-.4575-8.5536-1.3725-1.8117-.9245-2.7621-2.3772-2.8512-4.3581z"/><path d="m75 41.65c-.2772 2.5564-1.4355 4.476-3.4749 5.7589-2.0295 1.2829-4.9253 1.9244-8.6873 1.9244-3.8907 0-6.9003-.7547-9.0288-2.264-2.1186-1.5093-3.1779-3.6411-3.1779-6.3956 0-2.745 1.0593-4.8769 3.1779-6.3956 2.1285-1.5187 5.1381-2.2781 9.0288-2.2781 3.6135 0 6.4301.5896 8.4497 1.7687s3.2076 2.929 3.564 5.2495h-8.1527c-.3069-.7452-.7672-1.3018-1.381-1.6696-.6138-.3774-1.3811-.566-2.3018-.566-1.3563 0-2.4205.3443-3.1927 1.0329-.7722.6792-1.1583 1.6225-1.1583 2.8299 0 1.1697.3762 2.0989 1.1286 2.7875s1.7671 1.0329 3.0442 1.0329c1.0593 0 1.9503-.25 2.673-.7499.7326-.5094 1.188-1.198 1.3662-2.0659z"/><path d="m32.4495 83.4669c0 1.069.3492 1.9289 1.0476 2.5796.6984.6413 1.6199.962 2.7645.962 1.164 0 2.0903-.3207 2.779-.962.6984-.6507 1.0476-1.5106 1.0476-2.5796 0-1.0782-.3492-1.9381-1.0476-2.5795-.6887-.6414-1.615-.9621-2.779-.9621-1.1446 0-2.0661.3207-2.7645.9621s-1.0476 1.5013-1.0476 2.5795zm-7.4495 7.9896v-20.7895h7.4495v6.1072c.9021-.5764 1.8576-1.004 2.8664-1.2828 1.0184-.2882 2.1291-.4323 3.3319-.4323 2.8323 0 5.0827.7576 6.7511 2.2728 1.6781 1.5152 2.5171 3.5602 2.5171 6.135 0 2.5377-.8293 4.5735-2.488 6.1072-1.6587 1.5245-3.88 2.2867-6.6638 2.2867-1.3095 0-2.5123-.1627-3.6084-.488-1.0961-.3346-2.0952-.832-2.9973-1.4919l-.0582 1.5756z"/><path d="m73.6111 84.429c-.2716 2.5191-1.4065 4.4108-3.4047 5.675-1.9884 1.2642-4.8257 1.8962-8.5116 1.8962-3.8121 0-6.7609-.7436-8.8464-2.2309-2.0757-1.4873-3.1136-3.5881-3.1136-6.3024 0-2.705 1.0379-4.8057 3.1136-6.3023 2.0855-1.4966 5.0343-2.2449 8.8464-2.2449 3.5404 0 6.3001.581 8.2788 1.7429 1.9788 1.162 3.1428 2.8863 3.492 5.173h-7.9879c-.3007-.7344-.7517-1.2828-1.3531-1.6453-.6014-.3719-1.3531-.5578-2.2552-.5578-1.3289 0-2.3717.3393-3.1283 1.0179-.7566.6693-1.1348 1.5988-1.1348 2.7887 0 1.1526.3685 2.0682 1.1057 2.7468s1.7315 1.0179 2.9828 1.0179c1.0379 0 1.9108-.2464 2.6189-.739.7178-.502 1.164-1.1806 1.3386-2.0358z"/><path d="m101.782 43v-19.71h4.05v7.56h4.536v-7.56h4.05v19.71h-4.05v-8.37h-4.536v8.37zm22.534.27c-1.314 0-2.466-.243-3.456-.729-.972-.504-1.728-1.197-2.268-2.079-.522-.9-.783-1.944-.783-3.132v-3.51c0-1.188.261-2.223.783-3.105.54-.9 1.296-1.593 2.268-2.079.99-.504 2.142-.756 3.456-.756s2.448.252 3.402.756c.972.486 1.719 1.179 2.241 2.079.54.882.81 1.917.81 3.105v2.7h-9.099v.81c0 .936.225 1.647.675 2.133.45.468 1.125.702 2.025.702.63 0 1.134-.108 1.512-.324.396-.216.657-.513.783-.891h3.969c-.324 1.296-1.062 2.34-2.214 3.132-1.134.792-2.502 1.188-4.104 1.188zm2.592-8.829v-.675c0-.918-.216-1.62-.648-2.106-.414-.486-1.062-.729-1.944-.729s-1.548.252-1.998.756c-.432.504-.648 1.215-.648 2.133v.405l5.508-.054zm29.004 8.748c-1.656 0-3.033-.405-4.131-1.215s-1.764-1.908-1.998-3.294h3.915c.126.414.387.747.783.999.396.234.873.351 1.431.351h1.539c.594 0 1.062-.135 1.404-.405.342-.288.513-.675.513-1.161 0-.468-.171-.837-.513-1.107s-.81-.405-1.404-.405h-3.483v-3.078h3.321c.558 0 .99-.117 1.296-.351.306-.252.459-.594.459-1.026 0-.306-.072-.558-.216-.756-.126-.198-.324-.351-.594-.459-.252-.108-.567-.162-.945-.162h-1.242c-.558 0-1.026.126-1.404.378-.378.234-.63.558-.756.972h-3.915c.234-1.386.891-2.484 1.971-3.294s2.448-1.215 4.104-1.215h1.242c1.188 0 2.214.171 3.078.513.864.324 1.53.792 1.998 1.404.468.594.702 1.305.702 2.133 0 .99-.378 1.791-1.134 2.403-.738.612-1.719.918-2.943.918v-.27c1.332 0 2.403.342 3.213 1.026.81.666 1.215 1.557 1.215 2.673 0 1.35-.54 2.43-1.62 3.24-1.08.792-2.529 1.188-4.347 1.188zm10.628-.189v-14.85h4.05v5.427h4.536v-5.427h4.05v14.85h-4.05v-5.643h-4.536v5.643zm20.59.27c-1.494 0-2.682-.405-3.564-1.215-.864-.81-1.296-1.908-1.296-3.294 0-1.494.513-2.637 1.539-3.429 1.044-.81 2.538-1.215 4.482-1.215h3.078v-1.107c0-.576-.207-1.035-.621-1.377-.396-.342-.936-.513-1.62-.513-.63 0-1.152.144-1.566.432s-.666.684-.756 1.188h-3.915c.162-1.494.81-2.673 1.944-3.537 1.152-.882 2.628-1.323 4.428-1.323 1.89 0 3.384.468 4.482 1.404 1.116.918 1.674 2.16 1.674 3.726v9.99h-3.915v-2.43h-.648l.675-.945c0 1.116-.405 2.007-1.215 2.673-.792.648-1.854.972-3.186.972zm1.512-2.97c.792 0 1.44-.207 1.944-.621.522-.432.783-.99.783-1.674v-1.593h-2.997c-.612 0-1.107.18-1.485.54-.378.342-.567.801-.567 1.377 0 .612.207 1.098.621 1.458.414.342.981.513 1.701.513zm16.622 2.97c-1.314 0-2.466-.243-3.456-.729-.972-.504-1.728-1.197-2.268-2.079-.522-.9-.783-1.944-.783-3.132v-3.51c0-1.188.261-2.223.783-3.105.54-.9 1.296-1.593 2.268-2.079.99-.504 2.142-.756 3.456-.756s2.448.252 3.402.756c.972.486 1.719 1.179 2.241 2.079.54.882.81 1.917.81 3.105v2.7h-9.099v.81c0 .936.225 1.647.675 2.133.45.468 1.125.702 2.025.702.63 0 1.134-.108 1.512-.324.396-.216.657-.513.783-.891h3.969c-.324 1.296-1.062 2.34-2.214 3.132-1.134.792-2.502 1.188-4.104 1.188zm2.592-8.829v-.675c0-.918-.216-1.62-.648-2.106-.414-.486-1.062-.729-1.944-.729s-1.548.252-1.998.756c-.432.504-.648 1.215-.648 2.133v.405l5.508-.054zm6.55 8.559v-14.85h3.321v12.15h2.295v-12.15h2.808v12.15h2.295v-12.15h3.321v14.85zm17 0v-14.85h4.05v4.455h3.483c1.872 0 3.33.468 4.374 1.404 1.062.918 1.593 2.196 1.593 3.834 0 1.584-.54 2.844-1.62 3.78-1.062.918-2.502 1.377-4.32 1.377zm4.05-3.51h3.24c.684 0 1.206-.144 1.566-.432.378-.306.567-.72.567-1.242 0-.54-.189-.954-.567-1.242-.36-.306-.882-.459-1.566-.459h-3.24zm14.029 7.83 2.16-8.397h4.86l-3.51 8.397zm36.78-4.05c-1.314 0-2.466-.243-3.456-.729-.99-.504-1.755-1.197-2.295-2.079-.54-.9-.81-1.944-.81-3.132v-3.51c0-1.206.27-2.25.81-3.132s1.305-1.566 2.295-2.052c.99-.504 2.142-.756 3.456-.756 1.962 0 3.528.495 4.698 1.485s1.791 2.34 1.863 4.05h-4.05c-.054-.63-.306-1.125-.756-1.485-.432-.36-1.017-.54-1.755-.54-.81 0-1.431.207-1.863.621s-.648 1.017-.648 1.809v3.51c0 .774.216 1.377.648 1.809.432.414 1.053.621 1.863.621.738 0 1.323-.171 1.755-.513.45-.36.702-.864.756-1.512h4.05c-.072 1.71-.693 3.06-1.863 4.05s-2.736 1.485-4.698 1.485zm34.458-.27v-4.725c-.216.054-.558.117-1.026.189-.45.054-.963.081-1.539.081-1.962 0-3.51-.486-4.644-1.458-1.134-.99-1.701-2.349-1.701-4.077v-4.86h4.05v4.59c0 .666.243 1.197.729 1.593.486.378 1.143.567 1.971.567.504 0 .945-.027 1.323-.081.396-.072.675-.135.837-.189v-6.48h4.05v14.85zm14.056.27c-1.314 0-2.466-.243-3.456-.729-.972-.504-1.728-1.197-2.268-2.079-.522-.9-.783-1.944-.783-3.132v-3.51c0-1.188.261-2.223.783-3.105.54-.9 1.296-1.593 2.268-2.079.99-.504 2.142-.756 3.456-.756s2.448.252 3.402.756c.972.486 1.719 1.179 2.241 2.079.54.882.81 1.917.81 3.105v2.7h-9.099v.81c0 .936.225 1.647.675 2.133.45.468 1.125.702 2.025.702.63 0 1.134-.108 1.512-.324.396-.216.657-.513.783-.891h3.969c-.324 1.296-1.062 2.34-2.214 3.132-1.134.792-2.502 1.188-4.104 1.188zm2.592-8.829v-.675c0-.918-.216-1.62-.648-2.106-.414-.486-1.062-.729-1.944-.729s-1.548.252-1.998.756c-.432.504-.648 1.215-.648 2.133v.405l5.508-.054zm8.576 8.559v-14.85h11.34v3.78h-7.29v11.07zm21.184.27c-1.314 0-2.457-.243-3.429-.729-.972-.504-1.728-1.197-2.268-2.079-.522-.9-.783-1.944-.783-3.132v-3.51c0-1.188.261-2.223.783-3.105.54-.9 1.296-1.593 2.268-2.079.972-.504 2.115-.756 3.429-.756 1.332 0 2.475.252 3.429.756.972.486 1.719 1.179 2.241 2.079.54.882.81 1.917.81 3.105v3.51c0 1.188-.27 2.232-.81 3.132-.522.882-1.269 1.575-2.241 2.079-.954.486-2.097.729-3.429.729zm0-3.51c.792 0 1.395-.207 1.809-.621.414-.432.621-1.035.621-1.809v-3.51c0-.792-.207-1.395-.621-1.809s-1.017-.621-1.809-.621c-.774 0-1.377.207-1.809.621-.414.414-.621 1.017-.621 1.809v3.51c0 .774.207 1.377.621 1.809.432.414 1.035.621 1.809.621zm26.061 3.24v-14.85h4.05v5.427h4.536v-5.427h4.05v14.85h-4.05v-5.643h-4.536v5.643zm20.591.27c-1.494 0-2.682-.405-3.564-1.215-.864-.81-1.296-1.908-1.296-3.294 0-1.494.513-2.637 1.539-3.429 1.044-.81 2.538-1.215 4.482-1.215h3.078v-1.107c0-.576-.207-1.035-.621-1.377-.396-.342-.936-.513-1.62-.513-.63 0-1.152.144-1.566.432s-.666.684-.756 1.188h-3.915c.162-1.494.81-2.673 1.944-3.537 1.152-.882 2.628-1.323 4.428-1.323 1.89 0 3.384.468 4.482 1.404 1.116.918 1.674 2.16 1.674 3.726v9.99h-3.915v-2.43h-.648l.675-.945c0 1.116-.405 2.007-1.215 2.673-.792.648-1.854.972-3.186.972zm1.512-2.97c.792 0 1.44-.207 1.944-.621.522-.432.783-.99.783-1.674v-1.593h-2.997c-.612 0-1.107.18-1.485.54-.378.342-.567.801-.567 1.377 0 .612.207 1.098.621 1.458.414.342.981.513 1.701.513zm18.754 2.7v-4.725c-.216.054-.558.117-1.026.189-.45.054-.963.081-1.539.081-1.962 0-3.51-.486-4.644-1.458-1.134-.99-1.701-2.349-1.701-4.077v-4.86h4.05v4.59c0 .666.243 1.197.729 1.593.486.378 1.143.567 1.971.567.504 0 .945-.027 1.323-.081.396-.072.675-.135.837-.189v-6.48h4.05v14.85zm12.113.27c-1.494 0-2.682-.405-3.564-1.215-.864-.81-1.296-1.908-1.296-3.294 0-1.494.513-2.637 1.539-3.429 1.044-.81 2.538-1.215 4.482-1.215h3.078v-1.107c0-.576-.207-1.035-.621-1.377-.396-.342-.936-.513-1.62-.513-.63 0-1.152.144-1.566.432s-.666.684-.756 1.188h-3.915c.162-1.494.81-2.673 1.944-3.537 1.152-.882 2.628-1.323 4.428-1.323 1.89 0 3.384.468 4.482 1.404 1.116.918 1.674 2.16 1.674 3.726v9.99h-3.915v-2.43h-.648l.675-.945c0 1.116-.405 2.007-1.215 2.673-.792.648-1.854.972-3.186.972zm1.512-2.97c.792 0 1.44-.207 1.944-.621.522-.432.783-.99.783-1.674v-1.593h-2.997c-.612 0-1.107.18-1.485.54-.378.342-.567.801-.567 1.377 0 .612.207 1.098.621 1.458.414.342.981.513 1.701.513zm14.569 2.7v-11.07h-4.86v-3.78h13.77v3.78h-4.86v11.07zm12.004 0v-14.85h4.05v4.455h3.483c1.872 0 3.33.468 4.374 1.404 1.062.918 1.593 2.196 1.593 3.834 0 1.584-.54 2.844-1.62 3.78-1.062.918-2.502 1.377-4.32 1.377zm4.05-3.51h3.24c.684 0 1.206-.144 1.566-.432.378-.306.567-.72.567-1.242 0-.54-.189-.954-.567-1.242-.36-.306-.882-.459-1.566-.459h-3.24zm28.194 3.51v-14.85h6.723c1.818 0 3.258.369 4.32 1.107 1.08.72 1.62 1.701 1.62 2.943 0 .99-.405 1.791-1.215 2.403-.81.594-1.881.891-3.213.891v-.27c1.458 0 2.619.324 3.483.972.882.648 1.323 1.503 1.323 2.565 0 1.314-.54 2.349-1.62 3.105-1.062.756-2.511 1.134-4.347 1.134zm3.969-2.862h2.916c.666 0 1.197-.153 1.593-.459.414-.324.621-.738.621-1.242 0-.54-.207-.972-.621-1.296-.396-.324-.927-.486-1.593-.486h-2.916zm0-5.859h2.781c.612 0 1.098-.144 1.458-.432.36-.306.54-.702.54-1.188 0-.504-.18-.909-.54-1.215s-.846-.459-1.458-.459h-2.781zm18.566 8.991c-1.314 0-2.457-.243-3.429-.729-.972-.504-1.728-1.197-2.268-2.079-.522-.9-.783-1.944-.783-3.132v-3.51c0-1.188.261-2.223.783-3.105.54-.9 1.296-1.593 2.268-2.079.972-.504 2.115-.756 3.429-.756 1.332 0 2.475.252 3.429.756.972.486 1.719 1.179 2.241 2.079.54.882.81 1.917.81 3.105v3.51c0 1.188-.27 2.232-.81 3.132-.522.882-1.269 1.575-2.241 2.079-.954.486-2.097.729-3.429.729zm0-3.51c.792 0 1.395-.207 1.809-.621.414-.432.621-1.035.621-1.809v-3.51c0-.792-.207-1.395-.621-1.809s-1.017-.621-1.809-.621c-.774 0-1.377.207-1.809.621-.414.414-.621 1.017-.621 1.809v3.51c0 .774.207 1.377.621 1.809.432.414 1.035.621 1.809.621zm30.732 8.1v-4.86c-1.71 0-3.06-.495-4.05-1.485-.972-1.008-1.458-2.376-1.458-4.104v-3.699c0-1.71.495-3.06 1.485-4.05.99-1.008 2.331-1.512 4.023-1.512v-4.86h3.294v4.86c1.71 0 3.051.504 4.023 1.512.99.99 1.485 2.34 1.485 4.05v3.699c0 1.728-.495 3.096-1.485 4.104-.972.99-2.313 1.485-4.023 1.485v4.86zm.189-8.046v-8.505c-.702 0-1.26.216-1.674.648-.396.414-.594.999-.594 1.755v3.699c0 .756.198 1.35.594 1.782.414.414.972.621 1.674.621zm2.916 0c.702 0 1.251-.207 1.647-.621.414-.432.621-1.026.621-1.782v-3.699c0-.756-.207-1.341-.621-1.755-.396-.432-.945-.648-1.647-.648zm8.413 8.046v-19.71h3.915v2.835h.945l-.945.945c0-1.278.351-2.268 1.053-2.97.702-.72 1.665-1.08 2.889-1.08 1.494 0 2.691.531 3.591 1.593.9 1.044 1.35 2.448 1.35 4.212v3.78c0 1.17-.207 2.196-.621 3.078-.396.864-.963 1.539-1.701 2.025-.738.468-1.611.702-2.619.702-1.224 0-2.187-.351-2.889-1.053-.702-.72-1.053-1.719-1.053-2.997l.945.945h-.945l.135 3.645v4.05zm6.399-8.1c.756 0 1.332-.207 1.728-.621.414-.432.621-1.035.621-1.809v-3.51c0-.792-.207-1.395-.621-1.809-.396-.414-.972-.621-1.728-.621-.738 0-1.314.216-1.728.648-.414.414-.621 1.008-.621 1.782v3.51c0 .774.207 1.377.621 1.809.414.414.99.621 1.728.621zm16.109 3.51c-1.314 0-2.457-.243-3.429-.729-.972-.504-1.728-1.197-2.268-2.079-.522-.9-.783-1.944-.783-3.132v-3.51c0-1.188.261-2.223.783-3.105.54-.9 1.296-1.593 2.268-2.079.972-.504 2.115-.756 3.429-.756 1.332 0 2.475.252 3.429.756.972.486 1.719 1.179 2.241 2.079.54.882.81 1.917.81 3.105v3.51c0 1.188-.27 2.232-.81 3.132-.522.882-1.269 1.575-2.241 2.079-.954.486-2.097.729-3.429.729zm0-3.51c.792 0 1.395-.207 1.809-.621.414-.432.621-1.035.621-1.809v-3.51c0-.792-.207-1.395-.621-1.809s-1.017-.621-1.809-.621c-.774 0-1.377.207-1.809.621-.414.414-.621 1.017-.621 1.809v3.51c0 .774.207 1.377.621 1.809.432.414 1.035.621 1.809.621zm9.871 3.24v-14.85h4.05v5.427h4.536v-5.427h4.05v14.85h-4.05v-5.643h-4.536v5.643zm20.483 0v-11.07h-4.86v-3.78h13.77v3.78h-4.86v11.07zm18.241.27c-1.314 0-2.466-.243-3.456-.729-.972-.504-1.728-1.197-2.268-2.079-.522-.9-.783-1.944-.783-3.132v-3.51c0-1.188.261-2.223.783-3.105.54-.9 1.296-1.593 2.268-2.079.99-.504 2.142-.756 3.456-.756s2.448.252 3.402.756c.972.486 1.719 1.179 2.241 2.079.54.882.81 1.917.81 3.105v2.7h-9.099v.81c0 .936.225 1.647.675 2.133.45.468 1.125.702 2.025.702.63 0 1.134-.108 1.512-.324.396-.216.657-.513.783-.891h3.969c-.324 1.296-1.062 2.34-2.214 3.132-1.134.792-2.502 1.188-4.104 1.188zm2.592-8.829v-.675c0-.918-.216-1.62-.648-2.106-.414-.486-1.062-.729-1.944-.729s-1.548.252-1.998.756c-.432.504-.648 1.215-.648 2.133v.405l5.508-.054zm7.252 8.559v-14.85h4.05v5.427h4.536v-5.427h4.05v14.85h-4.05v-5.643h-4.536v5.643zm15.002 3.78v-7.209h.837c.306-.306.621-.837.945-1.593.342-.774.522-1.71.54-2.808l.135-7.02h10.935v11.421h1.62v7.209h-3.78v-3.78h-7.452v3.78zm4.86-7.209h4.752v-7.938h-3.429l-.081 3.51c-.018 1.044-.171 1.962-.459 2.754-.27.774-.531 1.332-.783 1.674zm18.862 3.699c-1.314 0-2.466-.243-3.456-.729-.972-.504-1.728-1.197-2.268-2.079-.522-.9-.783-1.944-.783-3.132v-3.51c0-1.188.261-2.223.783-3.105.54-.9 1.296-1.593 2.268-2.079.99-.504 2.142-.756 3.456-.756s2.448.252 3.402.756c.972.486 1.719 1.179 2.241 2.079.54.882.81 1.917.81 3.105v2.7h-9.099v.81c0 .936.225 1.647.675 2.133.45.468 1.125.702 2.025.702.63 0 1.134-.108 1.512-.324.396-.216.657-.513.783-.891h3.969c-.324 1.296-1.062 2.34-2.214 3.132-1.134.792-2.502 1.188-4.104 1.188zm2.592-8.829v-.675c0-.918-.216-1.62-.648-2.106-.414-.486-1.062-.729-1.944-.729s-1.548.252-1.998.756c-.432.504-.648 1.215-.648 2.133v.405l5.508-.054zm10.358 2.484-.135-5.805h2.7c.738 0 1.323-.18 1.755-.54.432-.378.648-.873.648-1.485 0-.63-.225-1.125-.675-1.485-.432-.36-1.017-.54-1.755-.54h-4.455v-3.78h4.185c1.386 0 2.583.243 3.591.729 1.008.468 1.782 1.134 2.322 1.998.558.864.837 1.89.837 3.078 0 1.134-.234 2.124-.702 2.97s-1.125 1.512-1.971 1.998c-.846.468-1.836.702-2.97.702v2.16zm1.296 6.21c-.612 0-1.107-.171-1.485-.513-.36-.36-.54-.819-.54-1.377 0-.576.18-1.035.54-1.377.378-.342.873-.513 1.485-.513h.81c.612 0 1.098.171 1.458.513.378.342.567.801.567 1.377s-.189 1.035-.567 1.377c-.36.342-.855.513-1.485.513z"/><path d="m101.44 79v-13.14h1.926l1.494 4.464c.12.348.234.702.342 1.062s.186.642.234.846c.06-.204.138-.486.234-.846.108-.36.222-.72.342-1.08l1.422-4.446h1.926v13.14h-1.404v-5.616c0-.504.012-1.062.036-1.674.036-.624.078-1.248.126-1.872s.096-1.218.144-1.782c.048-.576.09-1.068.126-1.476l-2.214 6.642h-1.512l-2.232-6.642c.048.408.096.888.144 1.44.048.54.09 1.122.126 1.746.036.612.066 1.23.09 1.854.036.624.054 1.212.054 1.764v5.616zm10.595 0v-9.9h1.35v3.672h.882c1.056 0 1.89.282 2.502.846.624.552.936 1.308.936 2.268s-.306 1.722-.918 2.286c-.612.552-1.452.828-2.52.828zm1.35-1.17h.882c.672 0 1.194-.168 1.566-.504.384-.348.576-.828.576-1.44s-.192-1.086-.576-1.422c-.372-.348-.894-.522-1.566-.522h-.882zm5.616 1.17v-9.9h1.35v9.9zm15.142 0v-9.9h7.272v9.9h-1.44v-8.604h-4.392v8.604zm14.429.162c-.768 0-1.434-.15-1.998-.45s-1.002-.732-1.314-1.296-.468-1.23-.468-1.998v-2.736c0-.78.156-1.446.468-1.998.312-.564.75-.996 1.314-1.296s1.23-.45 1.998-.45 1.434.15 1.998.45 1.002.732 1.314 1.296c.312.552.468 1.212.468 1.98v2.754c0 .768-.156 1.434-.468 1.998s-.75.996-1.314 1.296-1.23.45-1.998.45zm0-1.278c.744 0 1.32-.21 1.728-.63s.612-1.032.612-1.836v-2.736c0-.804-.21-1.416-.63-1.836-.408-.42-.978-.63-1.71-.63s-1.308.21-1.728.63c-.408.42-.612 1.032-.612 1.836v2.736c0 .804.204 1.416.612 1.836.42.42.996.63 1.728.63zm7.157 1.116v-9.9h1.44v4.212h4.392v-4.212h1.44v9.9h-1.44v-4.392h-4.392v4.392zm10.793 0v-9.9h1.386v5.634c0 .336-.012.696-.036 1.08-.012.372-.03.726-.054 1.062s-.048.618-.072.846l4.194-8.622h1.854v9.9h-1.386v-5.634c0-.348.006-.708.018-1.08.024-.372.048-.726.072-1.062.036-.348.06-.636.072-.864l-4.212 8.64zm10.469 0v-9.9h1.98l1.44 4.032c.12.348.234.702.342 1.062s.186.642.234.846c.06-.204.138-.486.234-.846.108-.36.222-.72.342-1.08l1.386-4.014h1.962v9.9h-1.386v-2.376c0-.516.006-1.068.018-1.656s.024-1.176.036-1.764.03-1.14.054-1.656c.024-.528.042-.99.054-1.386l-1.962 5.868h-1.512l-1.962-5.832c.024.48.042 1.086.054 1.818.012.72.024 1.482.036 2.286.024.804.036 1.578.036 2.322v2.376zm13.979.18c-1.044 0-1.866-.264-2.466-.792-.6-.54-.9-1.266-.9-2.178 0-.9.294-1.608.882-2.124.588-.528 1.38-.792 2.376-.792h3.15v-1.044c0-.66-.192-1.17-.576-1.53s-.93-.54-1.638-.54c-.624 0-1.146.138-1.566.414-.408.276-.642.648-.702 1.116h-1.44c.12-.852.516-1.53 1.188-2.034.684-.504 1.536-.756 2.556-.756 1.104 0 1.98.3 2.628.9.648.588.972 1.386.972 2.394v6.786h-1.404v-1.926h-.234l.27-.288c0 .732-.282 1.314-.846 1.746s-1.314.648-2.25.648zm.342-1.152c.792 0 1.44-.198 1.944-.594s.756-.912.756-1.548v-1.494h-3.132c-.564 0-1.014.156-1.35.468s-.504.738-.504 1.278c0 .576.204 1.038.612 1.386.408.336.966.504 1.674.504zm11.225 1.152c-.768 0-1.434-.15-1.998-.45-.564-.312-1.002-.75-1.314-1.314s-.468-1.218-.468-1.962v-2.808c0-.756.156-1.41.468-1.962.312-.564.75-.996 1.314-1.296.564-.312 1.23-.468 1.998-.468s1.434.156 1.998.468c.564.3 1.002.732 1.314 1.296.312.552.468 1.206.468 1.962v1.746h-6.156v1.062c0 .804.204 1.428.612 1.872.42.432 1.008.648 1.764.648.636 0 1.152-.126 1.548-.378.408-.252.666-.618.774-1.098h1.422c-.132.828-.534 1.482-1.206 1.962s-1.518.72-2.538.72zm2.376-5.742v-.792c0-.804-.204-1.422-.612-1.854-.408-.444-.996-.666-1.764-.666-.756 0-1.344.222-1.764.666-.408.432-.612 1.05-.612 1.854v.63h4.896zm4.457 5.562v-9.9h1.98l1.44 4.032c.12.348.234.702.342 1.062s.186.642.234.846c.06-.204.138-.486.234-.846.108-.36.222-.72.342-1.08l1.386-4.014h1.962v9.9h-1.386v-2.376c0-.516.006-1.068.018-1.656s.024-1.176.036-1.764.03-1.14.054-1.656c.024-.528.042-.99.054-1.386l-1.962 5.868h-1.512l-1.962-5.832c.024.48.042 1.086.054 1.818.012.72.024 1.482.036 2.286.024.804.036 1.578.036 2.322v2.376zm12.449 2.88 1.404-5.598h2.16l-2.322 5.598zm20.308-2.88v-9.9h1.44v4.158h1.872l2.934-4.158h1.638l-3.33 4.716 3.402 5.184h-1.674l-2.97-4.5h-1.872v4.5zm13.601.18c-1.044 0-1.866-.264-2.466-.792-.6-.54-.9-1.266-.9-2.178 0-.9.294-1.608.882-2.124.588-.528 1.38-.792 2.376-.792h3.15v-1.044c0-.66-.192-1.17-.576-1.53s-.93-.54-1.638-.54c-.624 0-1.146.138-1.566.414-.408.276-.642.648-.702 1.116h-1.44c.12-.852.516-1.53 1.188-2.034.684-.504 1.536-.756 2.556-.756 1.104 0 1.98.3 2.628.9.648.588.972 1.386.972 2.394v6.786h-1.404v-1.926h-.234l.27-.288c0 .732-.282 1.314-.846 1.746s-1.314.648-2.25.648zm.342-1.152c.792 0 1.44-.198 1.944-.594s.756-.912.756-1.548v-1.494h-3.132c-.564 0-1.014.156-1.35.468s-.504.738-.504 1.278c0 .576.204 1.038.612 1.386.408.336.966.504 1.674.504zm7.643.972v-9.9h1.44v4.158h1.872l2.934-4.158h1.638l-3.33 4.716 3.402 5.184h-1.674l-2.97-4.5h-1.872v4.5zm10.739 0v-9.9h1.386v5.634c0 .336-.012.696-.036 1.08-.012.372-.03.726-.054 1.062s-.048.618-.072.846l4.194-8.622h1.854v9.9h-1.386v-5.634c0-.348.006-.708.018-1.08.024-.372.048-.726.072-1.062.036-.348.06-.636.072-.864l-4.212 8.64zm14.428.18c-.768 0-1.434-.15-1.998-.45-.564-.312-1.002-.75-1.314-1.314s-.468-1.218-.468-1.962v-2.808c0-.756.156-1.41.468-1.962.312-.564.75-.996 1.314-1.296.564-.312 1.23-.468 1.998-.468s1.434.156 1.998.468c.564.3 1.002.732 1.314 1.296.312.552.468 1.206.468 1.962v1.746h-6.156v1.062c0 .804.204 1.428.612 1.872.42.432 1.008.648 1.764.648.636 0 1.152-.126 1.548-.378.408-.252.666-.618.774-1.098h1.422c-.132.828-.534 1.482-1.206 1.962s-1.518.72-2.538.72zm2.376-5.742v-.792c0-.804-.204-1.422-.612-1.854-.408-.444-.996-.666-1.764-.666-.756 0-1.344.222-1.764.666-.408.432-.612 1.05-.612 1.854v.63h4.896zm15.574 5.562v-9.9h1.44v4.212h4.392v-4.212h1.44v9.9h-1.44v-4.392h-4.392v4.392zm13.655.18c-1.044 0-1.866-.264-2.466-.792-.6-.54-.9-1.266-.9-2.178 0-.9.294-1.608.882-2.124.588-.528 1.38-.792 2.376-.792h3.15v-1.044c0-.66-.192-1.17-.576-1.53s-.93-.54-1.638-.54c-.624 0-1.146.138-1.566.414-.408.276-.642.648-.702 1.116h-1.44c.12-.852.516-1.53 1.188-2.034.684-.504 1.536-.756 2.556-.756 1.104 0 1.98.3 2.628.9.648.588.972 1.386.972 2.394v6.786h-1.404v-1.926h-.234l.27-.288c0 .732-.282 1.314-.846 1.746s-1.314.648-2.25.648zm.342-1.152c.792 0 1.44-.198 1.944-.594s.756-.912.756-1.548v-1.494h-3.132c-.564 0-1.014.156-1.35.468s-.504.738-.504 1.278c0 .576.204 1.038.612 1.386.408.336.966.504 1.674.504zm7.589.972v-9.9h4.248c.984 0 1.758.234 2.322.702.564.456.846 1.092.846 1.908 0 .684-.234 1.236-.702 1.656-.456.408-1.068.612-1.836.612v-.126c.828 0 1.494.216 1.998.648.504.42.756.984.756 1.692 0 .876-.3 1.566-.9 2.07-.588.492-1.404.738-2.448.738zm1.404-1.26h2.88c.588 0 1.056-.138 1.404-.414.348-.288.522-.672.522-1.152 0-.504-.174-.894-.522-1.17-.348-.288-.816-.432-1.404-.432h-2.88zm0-4.41h2.844c.528 0 .948-.132 1.26-.396.324-.264.486-.624.486-1.08s-.162-.816-.486-1.08c-.312-.276-.732-.414-1.26-.414h-2.844zm8.867 5.67v-9.9h1.35v3.672h.882c1.056 0 1.89.282 2.502.846.624.552.936 1.308.936 2.268s-.306 1.722-.918 2.286c-.612.552-1.452.828-2.52.828zm1.35-1.17h.882c.672 0 1.194-.168 1.566-.504.384-.348.576-.828.576-1.44s-.192-1.086-.576-1.422c-.372-.348-.894-.522-1.566-.522h-.882zm5.616 1.17v-9.9h1.35v9.9zm4.403 0v-9.9h1.44v4.158h1.872l2.934-4.158h1.638l-3.33 4.716 3.402 5.184h-1.674l-2.97-4.5h-1.872v4.5zm10.739 0v-9.9h1.386v5.634c0 .336-.012.696-.036 1.08-.012.372-.03.726-.054 1.062s-.048.618-.072.846l4.194-8.622h1.854v9.9h-1.386v-5.634c0-.348.006-.708.018-1.08.024-.372.048-.726.072-1.062.036-.348.06-.636.072-.864l-4.212 8.64zm21.586 0v-9.9h7.272v9.9h-1.44v-8.604h-4.392v8.604zm14.429.162c-.768 0-1.434-.15-1.998-.45s-1.002-.732-1.314-1.296-.468-1.23-.468-1.998v-2.736c0-.78.156-1.446.468-1.998.312-.564.75-.996 1.314-1.296s1.23-.45 1.998-.45 1.434.15 1.998.45 1.002.732 1.314 1.296c.312.552.468 1.212.468 1.98v2.754c0 .768-.156 1.434-.468 1.998s-.75.996-1.314 1.296-1.23.45-1.998.45zm0-1.278c.744 0 1.32-.21 1.728-.63s.612-1.032.612-1.836v-2.736c0-.804-.21-1.416-.63-1.836-.408-.42-.978-.63-1.71-.63s-1.308.21-1.728.63c-.408.42-.612 1.032-.612 1.836v2.736c0 .804.204 1.416.612 1.836.42.42.996.63 1.728.63zm6.833 1.116v-9.9h1.98l1.44 4.032c.12.348.234.702.342 1.062s.186.642.234.846c.06-.204.138-.486.234-.846.108-.36.222-.72.342-1.08l1.386-4.014h1.962v9.9h-1.386v-2.376c0-.516.006-1.068.018-1.656s.024-1.176.036-1.764.03-1.14.054-1.656c.024-.528.042-.99.054-1.386l-1.962 5.868h-1.512l-1.962-5.832c.024.48.042 1.086.054 1.818.012.72.024 1.482.036 2.286.024.804.036 1.578.036 2.322v2.376zm14.753.162c-.768 0-1.434-.15-1.998-.45s-1.002-.732-1.314-1.296-.468-1.23-.468-1.998v-2.736c0-.78.156-1.446.468-1.998.312-.564.75-.996 1.314-1.296s1.23-.45 1.998-.45 1.434.15 1.998.45 1.002.732 1.314 1.296c.312.552.468 1.212.468 1.98v2.754c0 .768-.156 1.434-.468 1.998s-.75.996-1.314 1.296-1.23.45-1.998.45zm0-1.278c.744 0 1.32-.21 1.728-.63s.612-1.032.612-1.836v-2.736c0-.804-.21-1.416-.63-1.836-.408-.42-.978-.63-1.71-.63s-1.308.21-1.728.63c-.408.42-.612 1.032-.612 1.836v2.736c0 .804.204 1.416.612 1.836.42.42.996.63 1.728.63zm7.805 1.116v-9.9h7.02v1.296h-5.598v8.604zm11.693 3.24 1.458-3.87-3.672-9.27h1.584l2.34 6.174c.096.24.186.51.27.81.096.288.168.528.216.72.06-.192.132-.438.216-.738s.168-.57.252-.81l2.196-6.156h1.53l-4.878 13.14zm12.161-3.24v-8.622h-3.6v-1.278h8.64v1.278h-3.6v8.622zm18.67 0v-9.9h1.44v4.212h4.392v-4.212h1.44v9.9h-1.44v-4.392h-4.392v4.392zm14.429.162c-.768 0-1.434-.15-1.998-.45s-1.002-.732-1.314-1.296-.468-1.23-.468-1.998v-2.736c0-.78.156-1.446.468-1.998.312-.564.75-.996 1.314-1.296s1.23-.45 1.998-.45 1.434.15 1.998.45 1.002.732 1.314 1.296c.312.552.468 1.212.468 1.98v2.754c0 .768-.156 1.434-.468 1.998s-.75.996-1.314 1.296-1.23.45-1.998.45zm0-1.278c.744 0 1.32-.21 1.728-.63s.612-1.032.612-1.836v-2.736c0-.804-.21-1.416-.63-1.836-.408-.42-.978-.63-1.71-.63s-1.308.21-1.728.63c-.408.42-.612 1.032-.612 1.836v2.736c0 .804.204 1.416.612 1.836.42.42.996.63 1.728.63zm7.157 1.116v-9.9h4.248c.984 0 1.758.234 2.322.702.564.456.846 1.092.846 1.908 0 .684-.234 1.236-.702 1.656-.456.408-1.068.612-1.836.612v-.126c.828 0 1.494.216 1.998.648.504.42.756.984.756 1.692 0 .876-.3 1.566-.9 2.07-.588.492-1.404.738-2.448.738zm1.404-1.26h2.88c.588 0 1.056-.138 1.404-.414.348-.288.522-.672.522-1.152 0-.504-.174-.894-.522-1.17-.348-.288-.816-.432-1.404-.432h-2.88zm0-4.41h2.844c.528 0 .948-.132 1.26-.396.324-.264.486-.624.486-1.08s-.162-.816-.486-1.08c-.312-.276-.732-.414-1.26-.414h-2.844zm9.389 5.67v-9.9h1.386v5.634c0 .336-.012.696-.036 1.08-.012.372-.03.726-.054 1.062s-.048.618-.072.846l4.194-8.622h1.854v9.9h-1.386v-5.634c0-.348.006-.708.018-1.08.024-.372.048-.726.072-1.062.036-.348.06-.636.072-.864l-4.212 8.64zm16.535 0v-3.654c-.192.048-.492.096-.9.144-.408.036-.864.054-1.368.054-1.188.012-2.112-.282-2.772-.882-.648-.6-.972-1.446-.972-2.538v-3.024h1.422v3.024c0 .672.204 1.194.612 1.566.42.372 1.014.558 1.782.558.552 0 1.02-.018 1.404-.054.384-.048.648-.09.792-.126v-4.968h1.422v9.9zm5.105 0v-9.9h1.44v4.158h1.872l2.934-4.158h1.638l-3.33 4.716 3.402 5.184h-1.674l-2.97-4.5h-1.872v4.5zm12.287 3.24 1.458-3.87-3.672-9.27h1.584l2.34 6.174c.096.24.186.51.27.81.096.288.168.528.216.72.06-.192.132-.438.216-.738s.168-.57.252-.81l2.196-6.156h1.53l-4.878 13.14zm23.692-3.06c-.768 0-1.44-.15-2.016-.45s-1.026-.726-1.35-1.278c-.312-.564-.468-1.23-.468-1.998v-2.808c0-.768.156-1.428.468-1.98.324-.564.774-.996 1.35-1.296s1.248-.45 2.016-.45c1.128 0 2.034.306 2.718.918s1.038 1.446 1.062 2.502h-1.422c-.024-.684-.246-1.212-.666-1.584-.408-.372-.972-.558-1.692-.558-.732 0-1.314.216-1.746.648-.432.42-.648 1.02-.648 1.8v2.808c0 .768.216 1.368.648 1.8s1.014.648 1.746.648c.72 0 1.284-.186 1.692-.558.42-.384.642-.912.666-1.584h1.422c-.024 1.056-.378 1.89-1.062 2.502s-1.59.918-2.718.918zm10.055-.18v-8.622h-3.6v-1.278h8.64v1.278h-3.6v8.622zm10.739.18c-1.044 0-1.866-.264-2.466-.792-.6-.54-.9-1.266-.9-2.178 0-.9.294-1.608.882-2.124.588-.528 1.38-.792 2.376-.792h3.15v-1.044c0-.66-.192-1.17-.576-1.53s-.93-.54-1.638-.54c-.624 0-1.146.138-1.566.414-.408.276-.642.648-.702 1.116h-1.44c.12-.852.516-1.53 1.188-2.034.684-.504 1.536-.756 2.556-.756 1.104 0 1.98.3 2.628.9.648.588.972 1.386.972 2.394v6.786h-1.404v-1.926h-.234l.27-.288c0 .732-.282 1.314-.846 1.746s-1.314.648-2.25.648zm.342-1.152c.792 0 1.44-.198 1.944-.594s.756-.912.756-1.548v-1.494h-3.132c-.564 0-1.014.156-1.35.468s-.504.738-.504 1.278c0 .576.204 1.038.612 1.386.408.336.966.504 1.674.504zm10.505.972v-8.622h-3.6v-1.278h8.64v1.278h-3.6v8.622zm7.967 0v-9.9h1.422v3.636h2.97c1.104 0 1.974.282 2.61.846.648.552.972 1.314.972 2.286 0 .96-.324 1.722-.972 2.286-.636.564-1.506.846-2.61.846zm1.422-1.296h2.97c.684 0 1.206-.156 1.566-.468.36-.324.54-.78.54-1.368s-.18-1.038-.54-1.35c-.36-.324-.882-.486-1.566-.486h-2.97zm-497.989 25.296v-9.9h4.248c.984 0 1.758.234 2.322.702.564.456.846 1.092.846 1.908 0 .684-.234 1.236-.702 1.656-.456.408-1.068.612-1.836.612v-.126c.828 0 1.494.216 1.998.648.504.42.756.984.756 1.692 0 .876-.3 1.566-.9 2.07-.588.492-1.404.738-2.448.738zm1.404-1.26h2.88c.588 0 1.056-.138 1.404-.414.348-.288.522-.672.522-1.152 0-.504-.174-.894-.522-1.17-.348-.288-.816-.432-1.404-.432h-2.88zm0-4.41h2.844c.528 0 .948-.132 1.26-.396.324-.264.486-.624.486-1.08s-.162-.816-.486-1.08c-.312-.276-.732-.414-1.26-.414h-2.844zm13.025 5.832c-.768 0-1.434-.15-1.998-.45s-1.002-.732-1.314-1.296-.468-1.23-.468-1.998v-2.736c0-.78.156-1.446.468-1.998.312-.564.75-.996 1.314-1.296s1.23-.45 1.998-.45 1.434.15 1.998.45 1.002.732 1.314 1.296c.312.552.468 1.212.468 1.98v2.754c0 .768-.156 1.434-.468 1.998s-.75.996-1.314 1.296-1.23.45-1.998.45zm0-1.278c.744 0 1.32-.21 1.728-.63s.612-1.032.612-1.836v-2.736c0-.804-.21-1.416-.63-1.836-.408-.42-.978-.63-1.71-.63s-1.308.21-1.728.63c-.408.42-.612 1.032-.612 1.836v2.736c0 .804.204 1.416.612 1.836.42.42.996.63 1.728.63zm10.811 1.296c-.768 0-1.44-.15-2.016-.45s-1.026-.726-1.35-1.278c-.312-.564-.468-1.23-.468-1.998v-2.808c0-.768.156-1.428.468-1.98.324-.564.774-.996 1.35-1.296s1.248-.45 2.016-.45c1.128 0 2.034.306 2.718.918s1.038 1.446 1.062 2.502h-1.422c-.024-.684-.246-1.212-.666-1.584-.408-.372-.972-.558-1.692-.558-.732 0-1.314.216-1.746.648-.432.42-.648 1.02-.648 1.8v2.808c0 .768.216 1.368.648 1.8s1.014.648 1.746.648c.72 0 1.284-.186 1.692-.558.42-.384.642-.912.666-1.584h1.422c-.024 1.056-.378 1.89-1.062 2.502s-1.59.918-2.718.918zm10.055-.18v-8.622h-3.6v-1.278h8.64v1.278h-3.6v8.622zm7.859 3.24v-13.14h1.422v1.746h.378l-.432.594c0-.78.252-1.392.756-1.836.516-.456 1.194-.684 2.034-.684.996 0 1.788.33 2.376.99.6.648.9 1.536.9 2.664v2.934c0 .756-.138 1.41-.414 1.962-.276.54-.66.96-1.152 1.26-.48.3-1.05.45-1.71.45-.828 0-1.5-.228-2.016-.684s-.774-1.068-.774-1.836l.378.594h-.342l.018 2.016v2.97zm3.708-4.302c.72 0 1.278-.216 1.674-.648.408-.432.612-1.044.612-1.836v-2.808c0-.804-.204-1.416-.612-1.836-.396-.432-.954-.648-1.674-.648-.696 0-1.254.222-1.674.666-.408.432-.612 1.038-.612 1.818v2.808c0 .78.204 1.392.612 1.836.42.432.978.648 1.674.648zm10.739 1.242c-.768 0-1.434-.15-1.998-.45-.564-.312-1.002-.75-1.314-1.314s-.468-1.218-.468-1.962v-2.808c0-.756.156-1.41.468-1.962.312-.564.75-.996 1.314-1.296.564-.312 1.23-.468 1.998-.468s1.434.156 1.998.468c.564.3 1.002.732 1.314 1.296.312.552.468 1.206.468 1.962v1.746h-6.156v1.062c0 .804.204 1.428.612 1.872.42.432 1.008.648 1.764.648.636 0 1.152-.126 1.548-.378.408-.252.666-.618.774-1.098h1.422c-.132.828-.534 1.482-1.206 1.962s-1.518.72-2.538.72zm2.376-5.742v-.792c0-.804-.204-1.422-.612-1.854-.408-.444-.996-.666-1.764-.666-.756 0-1.344.222-1.764.666-.408.432-.612 1.05-.612 1.854v.63h4.896zm8.417 5.742c-1.152 0-2.058-.342-2.718-1.026s-.99-1.626-.99-2.826v-4.608c0-1.56.39-2.76 1.17-3.6s1.896-1.26 3.348-1.26h2.448v1.422h-2.448c-1.008 0-1.776.3-2.304.9-.528.588-.792 1.434-.792 2.538v1.242h.252l-.252.432c.012-.72.252-1.284.72-1.692.48-.408 1.134-.612 1.962-.612 1.056 0 1.872.336 2.448 1.008.576.66.864 1.584.864 2.772v1.458c0 .804-.15 1.494-.45 2.07-.288.576-.708 1.02-1.26 1.332-.552.3-1.218.45-1.998.45zm0-1.278c.732 0 1.296-.222 1.692-.666s.594-1.08.594-1.908v-1.458c0-.816-.198-1.452-.594-1.908s-.96-.684-1.692-.684-1.296.228-1.692.684-.594 1.092-.594 1.908v1.458c0 .828.198 1.464.594 1.908.408.444.972.666 1.692.666zm10.793 1.26c-.768 0-1.434-.15-1.998-.45s-1.002-.732-1.314-1.296-.468-1.23-.468-1.998v-2.736c0-.78.156-1.446.468-1.998.312-.564.75-.996 1.314-1.296s1.23-.45 1.998-.45 1.434.15 1.998.45 1.002.732 1.314 1.296c.312.552.468 1.212.468 1.98v2.754c0 .768-.156 1.434-.468 1.998s-.75.996-1.314 1.296-1.23.45-1.998.45zm0-1.278c.744 0 1.32-.21 1.728-.63s.612-1.032.612-1.836v-2.736c0-.804-.21-1.416-.63-1.836-.408-.42-.978-.63-1.71-.63s-1.308.21-1.728.63c-.408.42-.612 1.032-.612 1.836v2.736c0 .804.204 1.416.612 1.836.42.42.996.63 1.728.63zm7.157 1.116v-9.9h4.248c.984 0 1.758.234 2.322.702.564.456.846 1.092.846 1.908 0 .684-.234 1.236-.702 1.656-.456.408-1.068.612-1.836.612v-.126c.828 0 1.494.216 1.998.648.504.42.756.984.756 1.692 0 .876-.3 1.566-.9 2.07-.588.492-1.404.738-2.448.738zm1.404-1.26h2.88c.588 0 1.056-.138 1.404-.414.348-.288.522-.672.522-1.152 0-.504-.174-.894-.522-1.17-.348-.288-.816-.432-1.404-.432h-2.88zm0-4.41h2.844c.528 0 .948-.132 1.26-.396.324-.264.486-.624.486-1.08s-.162-.816-.486-1.08c-.312-.276-.732-.414-1.26-.414h-2.844zm12.251 5.85c-1.044 0-1.866-.264-2.466-.792-.6-.54-.9-1.266-.9-2.178 0-.9.294-1.608.882-2.124.588-.528 1.38-.792 2.376-.792h3.15v-1.044c0-.66-.192-1.17-.576-1.53s-.93-.54-1.638-.54c-.624 0-1.146.138-1.566.414-.408.276-.642.648-.702 1.116h-1.44c.12-.852.516-1.53 1.188-2.034.684-.504 1.536-.756 2.556-.756 1.104 0 1.98.3 2.628.9.648.588.972 1.386.972 2.394v6.786h-1.404v-1.926h-.234l.27-.288c0 .732-.282 1.314-.846 1.746s-1.314.648-2.25.648zm.342-1.152c.792 0 1.44-.198 1.944-.594s.756-.912.756-1.548v-1.494h-3.132c-.564 0-1.014.156-1.35.468s-.504.738-.504 1.278c0 .576.204 1.038.612 1.386.408.336.966.504 1.674.504zm7.589.972v-9.9h1.44v4.212h4.392v-4.212h1.44v9.9h-1.44v-4.392h-4.392v4.392zm10.793 0v-9.9h1.44v4.212h4.392v-4.212h1.44v9.9h-1.44v-4.392h-4.392v4.392zm10.271 0v-9.9h1.35v3.672h.882c1.056 0 1.89.282 2.502.846.624.552.936 1.308.936 2.268s-.306 1.722-.918 2.286c-.612.552-1.452.828-2.52.828zm1.35-1.17h.882c.672 0 1.194-.168 1.566-.504.384-.348.576-.828.576-1.44s-.192-1.086-.576-1.422c-.372-.348-.894-.522-1.566-.522h-.882zm5.616 1.17v-9.9h1.35v9.9zm4.025 0v-9.9h1.98l1.44 4.032c.12.348.234.702.342 1.062s.186.642.234.846c.06-.204.138-.486.234-.846.108-.36.222-.72.342-1.08l1.386-4.014h1.962v9.9h-1.386v-2.376c0-.516.006-1.068.018-1.656s.024-1.176.036-1.764.03-1.14.054-1.656c.024-.528.042-.99.054-1.386l-1.962 5.868h-1.512l-1.962-5.832c.024.48.042 1.086.054 1.818.012.72.024 1.482.036 2.286.024.804.036 1.578.036 2.322v2.376zm21.91 0v-9.9h7.272v9.9h-1.44v-8.604h-4.392v8.604zm10.775 3.24v-13.14h1.422v1.746h.378l-.432.594c0-.78.252-1.392.756-1.836.516-.456 1.194-.684 2.034-.684.996 0 1.788.33 2.376.99.6.648.9 1.536.9 2.664v2.934c0 .756-.138 1.41-.414 1.962-.276.54-.66.96-1.152 1.26-.48.3-1.05.45-1.71.45-.828 0-1.5-.228-2.016-.684s-.774-1.068-.774-1.836l.378.594h-.342l.018 2.016v2.97zm3.708-4.302c.72 0 1.278-.216 1.674-.648.408-.432.612-1.044.612-1.836v-2.808c0-.804-.204-1.416-.612-1.836-.396-.432-.954-.648-1.674-.648-.696 0-1.254.222-1.674.666-.408.432-.612 1.038-.612 1.818v2.808c0 .78.204 1.392.612 1.836.42.432.978.648 1.674.648zm10.738 1.224c-.768 0-1.434-.15-1.998-.45s-1.002-.732-1.314-1.296-.468-1.23-.468-1.998v-2.736c0-.78.156-1.446.468-1.998.312-.564.75-.996 1.314-1.296s1.23-.45 1.998-.45 1.434.15 1.998.45 1.002.732 1.314 1.296c.312.552.468 1.212.468 1.98v2.754c0 .768-.156 1.434-.468 1.998s-.75.996-1.314 1.296-1.23.45-1.998.45zm0-1.278c.744 0 1.32-.21 1.728-.63s.612-1.032.612-1.836v-2.736c0-.804-.21-1.416-.63-1.836-.408-.42-.978-.63-1.71-.63s-1.308.21-1.728.63c-.408.42-.612 1.032-.612 1.836v2.736c0 .804.204 1.416.612 1.836.42.42.996.63 1.728.63zm7.805 1.116v-9.9h7.02v1.296h-5.598v8.604zm10.127 3.24v-13.14h1.422v1.746h.378l-.432.594c0-.78.252-1.392.756-1.836.516-.456 1.194-.684 2.034-.684.996 0 1.788.33 2.376.99.6.648.9 1.536.9 2.664v2.934c0 .756-.138 1.41-.414 1.962-.276.54-.66.96-1.152 1.26-.48.3-1.05.45-1.71.45-.828 0-1.5-.228-2.016-.684s-.774-1.068-.774-1.836l.378.594h-.342l.018 2.016v2.97zm3.708-4.302c.72 0 1.278-.216 1.674-.648.408-.432.612-1.044.612-1.836v-2.808c0-.804-.204-1.416-.612-1.836-.396-.432-.954-.648-1.674-.648-.696 0-1.254.222-1.674.666-.408.432-.612 1.038-.612 1.818v2.808c0 .78.204 1.392.612 1.836.42.432.978.648 1.674.648zm9.965 1.242c-1.044 0-1.866-.264-2.466-.792-.6-.54-.9-1.266-.9-2.178 0-.9.294-1.608.882-2.124.588-.528 1.38-.792 2.376-.792h3.15v-1.044c0-.66-.192-1.17-.576-1.53s-.93-.54-1.638-.54c-.624 0-1.146.138-1.566.414-.408.276-.642.648-.702 1.116h-1.44c.12-.852.516-1.53 1.188-2.034.684-.504 1.536-.756 2.556-.756 1.104 0 1.98.3 2.628.9.648.588.972 1.386.972 2.394v6.786h-1.404v-1.926h-.234l.27-.288c0 .732-.282 1.314-.846 1.746s-1.314.648-2.25.648zm.342-1.152c.792 0 1.44-.198 1.944-.594s.756-.912.756-1.548v-1.494h-3.132c-.564 0-1.014.156-1.35.468s-.504.738-.504 1.278c0 .576.204 1.038.612 1.386.408.336.966.504 1.674.504zm7.265.972v-9.9h1.98l1.44 4.032c.12.348.234.702.342 1.062s.186.642.234.846c.06-.204.138-.486.234-.846.108-.36.222-.72.342-1.08l1.386-4.014h1.962v9.9h-1.386v-2.376c0-.516.006-1.068.018-1.656s.024-1.176.036-1.764.03-1.14.054-1.656c.024-.528.042-.99.054-1.386l-1.962 5.868h-1.512l-1.962-5.832c.024.48.042 1.086.054 1.818.012.72.024 1.482.036 2.286.024.804.036 1.578.036 2.322v2.376zm10.793 0v-9.9h1.98l1.44 4.032c.12.348.234.702.342 1.062s.186.642.234.846c.06-.204.138-.486.234-.846.108-.36.222-.72.342-1.08l1.386-4.014h1.962v9.9h-1.386v-2.376c0-.516.006-1.068.018-1.656s.024-1.176.036-1.764.03-1.14.054-1.656c.024-.528.042-.99.054-1.386l-1.962 5.868h-1.512l-1.962-5.832c.024.48.042 1.086.054 1.818.012.72.024 1.482.036 2.286.024.804.036 1.578.036 2.322v2.376zm11.117 0v-9.9h1.386v5.634c0 .336-.012.696-.036 1.08-.012.372-.03.726-.054 1.062s-.048.618-.072.846l4.194-8.622h1.854v9.9h-1.386v-5.634c0-.348.006-.708.018-1.08.024-.372.048-.726.072-1.062.036-.348.06-.636.072-.864l-4.212 8.64zm14.447.18c-.768 0-1.44-.15-2.016-.45s-1.026-.726-1.35-1.278c-.312-.564-.468-1.23-.468-1.998v-2.808c0-.768.156-1.428.468-1.98.324-.564.774-.996 1.35-1.296s1.248-.45 2.016-.45c1.128 0 2.034.306 2.718.918s1.038 1.446 1.062 2.502h-1.422c-.024-.684-.246-1.212-.666-1.584-.408-.372-.972-.558-1.692-.558-.732 0-1.314.216-1.746.648-.432.42-.648 1.02-.648 1.8v2.808c0 .768.216 1.368.648 1.8s1.014.648 1.746.648c.72 0 1.284-.186 1.692-.558.42-.384.642-.912.666-1.584h1.422c-.024 1.056-.378 1.89-1.062 2.502s-1.59.918-2.718.918zm10.055-.18v-8.622h-3.6v-1.278h8.64v1.278h-3.6v8.622zm11.513.162c-.768 0-1.434-.15-1.998-.45s-1.002-.732-1.314-1.296-.468-1.23-.468-1.998v-2.736c0-.78.156-1.446.468-1.998.312-.564.75-.996 1.314-1.296s1.23-.45 1.998-.45 1.434.15 1.998.45 1.002.732 1.314 1.296c.312.552.468 1.212.468 1.98v2.754c0 .768-.156 1.434-.468 1.998s-.75.996-1.314 1.296-1.23.45-1.998.45zm0-1.278c.744 0 1.32-.21 1.728-.63s.612-1.032.612-1.836v-2.736c0-.804-.21-1.416-.63-1.836-.408-.42-.978-.63-1.71-.63s-1.308.21-1.728.63c-.408.42-.612 1.032-.612 1.836v2.736c0 .804.204 1.416.612 1.836.42.42.996.63 1.728.63zm6.833 1.116v-9.9h1.98l1.44 4.032c.12.348.234.702.342 1.062s.186.642.234.846c.06-.204.138-.486.234-.846.108-.36.222-.72.342-1.08l1.386-4.014h1.962v9.9h-1.386v-2.376c0-.516.006-1.068.018-1.656s.024-1.176.036-1.764.03-1.14.054-1.656c.024-.528.042-.99.054-1.386l-1.962 5.868h-1.512l-1.962-5.832c.024.48.042 1.086.054 1.818.012.72.024 1.482.036 2.286.024.804.036 1.578.036 2.322v2.376zm14.753.18c-.444 0-.798-.126-1.062-.378-.252-.264-.378-.612-.378-1.044 0-.456.126-.816.378-1.08.264-.264.618-.396 1.062-.396s.792.132 1.044.396c.264.264.396.624.396 1.08 0 .432-.132.78-.396 1.044-.252.252-.6.378-1.044.378z"/></g></g></svg>