<svg fill="none" height="160" viewBox="0 0 550 160" width="550" xmlns="http://www.w3.org/2000/svg" xmlns:xlink="http://www.w3.org/1999/xlink"><filter id="a" color-interpolation-filters="sRGB" filterUnits="userSpaceOnUse" height="310" width="310" x="-118" y="-141"><feFlood flood-opacity="0" result="BackgroundImageFix"/><feBlend in="SourceGraphic" in2="BackgroundImageFix" mode="normal" result="shape"/><feGaussianBlur result="effect1_foregroundBlur_86_426" stdDeviation="60"/></filter><filter id="b" color-interpolation-filters="sRGB" filterUnits="userSpaceOnUse" height="298" width="298" x="121" y="-29"><feFlood flood-opacity="0" result="BackgroundImageFix"/><feBlend in="SourceGraphic" in2="BackgroundImageFix" mode="normal" result="shape"/><feGaussianBlur result="effect1_foregroundBlur_86_426" stdDeviation="60"/></filter><clipPath id="c"><path d="m0 0h550v160h-550z"/></clipPath><g clip-path="url(#c)"><path d="m0 0h550v160h-550z" fill="#39483d"/><g filter="url(#a)"><circle cx="37" cy="14" fill="#59f881" r="35"/></g><g filter="url(#b)"><circle cx="270" cy="120" fill="#59f881" r="29"/></g><path d="m45 68h93v15.9999h-93z" fill="#59f881"/><g fill="#fff"><path d="m45 43.2054 17.2631-.0283c.1105 1.1319.5893 1.9526 1.4363 2.462.8655.4905 2.2557.7358 4.1708.7358 1.602 0 2.8081-.1793 3.6184-.5377.8286-.3773 1.2429-.9339 1.2429-1.6697 0-1.2829-2.1452-2.1224-6.4357-2.5186-.847-.0943-1.4915-.1604-1.9335-.1981-.0368 0-.0736 0-.1104 0-6.9237-.698-11.6009-1.6036-14.0315-2.7167-1.4179-.6415-2.5135-1.6508-3.2869-3.028-.755-1.3773-1.1325-2.9998-1.1325-4.8675 0-3.7544 1.6757-6.4994 5.027-8.2351 3.3514-1.7357 8.6915-2.6035 16.0202-2.6035 6.9237 0 12.0704.8867 15.4402 2.6601 3.3882 1.7734 5.1927 4.5185 5.4137 8.2351h-16.2688c-.0921-1.0942-.5892-1.8866-1.4915-2.3771-.8839-.4906-2.311-.7358-4.2813-.7358-1.6756 0-2.9094.1886-3.7012.566-.7734.3584-1.1601.9244-1.1601 1.6979 0 1.2452 1.8414 2.0187 5.5242 2.3206.7734.0754 1.3627.132 1.7678.1698.2946.0188.755.0565 1.381.1131 7.4209.6792 11.7482 1.2358 12.9819 1.6697 2.4307.8867 4.1432 1.9809 5.1375 3.2827.9944 1.2829 1.4916 3.0469 1.4916 5.292 0 4.1505-1.7862 7.1502-5.3585 8.9991-3.5539 1.8489-9.3912 2.7733-17.5118 2.7733-7.2182 0-12.5215-.915-15.9097-2.745-3.3697-1.8489-5.1375-4.7543-5.3032-8.7161z"/><path d="m138 39.3001c-.516 5.1127-2.67 8.9519-6.463 11.5177-3.775 2.5658-9.161 3.8487-16.159 3.8487-7.236 0-12.834-1.5093-16.7932-4.5278-3.9406-3.0186-5.9109-7.2824-5.9109-12.7913 0-5.49 1.9703-9.7538 5.9109-12.7912 3.9592-3.0375 9.5572-4.5562 16.7932-4.5562 6.721 0 11.96 1.1791 15.717 3.5374 3.756 2.3583 5.966 5.8579 6.629 10.499h-15.164c-.571-1.4904-1.427-2.6035-2.569-3.3393-1.142-.7546-2.569-1.132-4.281-1.132-2.523 0-4.502.6886-5.939 2.0659-1.436 1.3583-2.154 3.245-2.154 5.6598 0 2.3394.7 4.1977 2.099 5.575 1.4 1.3772 3.287 2.0658 5.662 2.0658 1.971 0 3.628-.4999 4.972-1.4999 1.363-1.0187 2.21-2.396 2.541-4.1316z"/><path d="m58.8561 122.933c0 2.138.6495 3.858 1.9485 5.159 1.2991 1.283 3.013 1.925 5.142 1.925 2.165 0 3.888-.642 5.169-1.925 1.299-1.301 1.9485-3.021 1.9485-5.159 0-2.156-.6495-3.876-1.9485-5.159-1.281-1.282-3.004-1.924-5.169-1.924-2.129 0-3.8429.642-5.142 1.924-1.299 1.283-1.9485 3.003-1.9485 5.159zm-13.8561 15.979v-41.5785h13.8561v12.2145c1.6779-1.153 3.455-2.008 5.3314-2.566 1.8944-.576 3.9602-.864 6.1974-.864 5.2682 0 9.4539 1.515 12.5571 4.545 3.1212 3.031 4.6818 7.121 4.6818 12.27 0 5.076-1.5425 9.147-4.6277 12.215-3.0851 3.049-7.2167 4.573-12.3947 4.573-2.4357 0-4.6729-.325-6.7116-.976-2.0387-.669-3.897-1.664-5.5749-2.984l-.1083 3.151z"/><path d="m135.417 124.858c-.506 5.038-2.616 8.821-6.333 11.349-3.699 2.529-8.976 3.793-15.832 3.793-7.09 0-12.575-1.487-16.4539-4.462-3.8609-2.974-5.7914-7.176-5.7914-12.605 0-5.41 1.9305-9.611 5.7914-12.604 3.8789-2.994 9.3639-4.49 16.4539-4.49 6.586 0 11.718 1.162 15.399 3.486s5.846 5.772 6.495 10.346h-14.857c-.56-1.469-1.399-2.566-2.517-3.291-1.119-.744-2.517-1.115-4.195-1.115-2.472 0-4.411.678-5.818 2.035-1.408 1.339-2.111 3.198-2.111 5.578 0 2.305.685 4.136 2.056 5.493 1.372 1.357 3.221 2.036 5.548 2.036 1.931 0 3.555-.493 4.872-1.478 1.335-1.004 2.165-2.361 2.489-4.071z"/><path d="m174.6 37.22c-1.071 0-2.002-.198-2.794-.594-.792-.4107-1.408-.9753-1.848-1.694-.425-.7333-.638-1.584-.638-2.552v-6.82c0-.968.213-1.8113.638-2.53.44-.7333 1.056-1.298 1.848-1.694.792-.4107 1.723-.616 2.794-.616 1.085 0 2.017.2053 2.794.616.792.396 1.401.9607 1.826 1.694.44.7187.66 1.562.66 2.53v6.82c0 .968-.22 1.8187-.66 2.552-.425.7187-1.034 1.2833-1.826 1.694-.777.396-1.709.594-2.794.594zm0-2.86c.66 0 1.151-.1687 1.474-.506.337-.352.506-.8433.506-1.474v-6.82c0-.6453-.161-1.1367-.484-1.474s-.821-.506-1.496-.506-1.173.1687-1.496.506-.484.8287-.484 1.474v6.82c0 .6307.161 1.122.484 1.474.337.3373.836.506 1.496.506zm8.043 2.64v-12.1h3.3v4.422h3.696v-4.422h3.3v12.1h-3.3v-4.598h-3.696v4.598zm12.202.154v-2.97h.66c.381 0 .696-.1613.946-.484.249-.3227.381-.748.396-1.276l.132-7.524h9.152v12.1h-3.3v-9.02h-2.618l-.088 4.664c-.015.8947-.213 1.6867-.594 2.376-.367.6747-.88 1.2027-1.54 1.584-.646.3667-1.401.55-2.266.55zm17.767.066c-1.217 0-2.185-.33-2.904-.99-.704-.66-1.056-1.5547-1.056-2.684 0-1.2173.418-2.1487 1.254-2.794.851-.66 2.068-.99 3.652-.99h2.508v-.902c0-.4693-.168-.8433-.506-1.122-.322-.2787-.762-.418-1.32-.418-.513 0-.938.1173-1.276.352-.337.2347-.542.5573-.616.968h-3.19c.132-1.2173.66-2.178 1.584-2.882.939-.7187 2.142-1.078 3.608-1.078 1.54 0 2.758.3813 3.652 1.144.91.748 1.364 1.76 1.364 3.036v8.14h-3.19v-1.98h-.528l.55-.77c0 .9093-.33 1.6353-.99 2.178-.645.528-1.51.792-2.596.792zm1.232-2.42c.646 0 1.174-.1687 1.584-.506.426-.352.638-.8067.638-1.364v-1.298h-2.442c-.498 0-.902.1467-1.21.44-.308.2787-.462.6527-.462 1.122 0 .4987.169.8947.506 1.188.338.2787.8.418 1.386.418zm8.374 2.2v-12.1h2.904v5.5c0 .3667-.022.8287-.066 1.386-.044.5427-.103 1.0927-.176 1.65-.059.5573-.125 1.0487-.198 1.474l3.828-10.01h4.004v12.1h-2.904v-5.5c0-.3813.022-.814.066-1.298.044-.4987.095-.9973.154-1.496.058-.4987.117-.924.176-1.276l-3.784 9.57zm5.236-13.97c-1.203 0-2.186-.3007-2.948-.902-.748-.616-1.122-1.4153-1.122-2.398h2.53c0 .4107.139.748.418 1.012.293.2493.667.374 1.122.374.469 0 .843-.1247 1.122-.374.278-.264.418-.6013.418-1.012h2.53c0 .9827-.374 1.782-1.122 2.398-.748.6013-1.731.902-2.948.902zm7.955 13.97v-12.1h3.3v4.422h3.696v-4.422h3.3v12.1h-3.3v-4.598h-3.696v4.598zm14.819-5.72v-3.08h7.04v3.08zm10.992 5.72v-12.1h2.706v9.9h1.87v-9.9h2.288v9.9h1.87v-9.9h2.706v12.1zm13.829 0v-12.1h3.3v4.576h1.628l2.53-4.576h3.674l-3.366 5.918 3.432 6.182h-3.74l-2.552-4.752h-1.606v4.752zm18.274.22c-1.071 0-2.002-.198-2.794-.594-.792-.4107-1.408-.9753-1.848-1.694-.426-.7333-.638-1.584-.638-2.552v-2.86c0-.968.212-1.8113.638-2.53.44-.7333 1.056-1.298 1.848-1.694.792-.4107 1.723-.616 2.794-.616 1.085 0 2.016.2053 2.794.616.792.396 1.4.9607 1.826 1.694.44.7187.66 1.562.66 2.53v2.86c0 .968-.22 1.8187-.66 2.552-.426.7187-1.034 1.2833-1.826 1.694-.778.396-1.709.594-2.794.594zm0-2.86c.645 0 1.136-.1687 1.474-.506.337-.352.506-.8433.506-1.474v-2.86c0-.6453-.169-1.1367-.506-1.474-.338-.3373-.829-.506-1.474-.506-.631 0-1.122.1687-1.474.506-.338.3373-.506.8287-.506 1.474v2.86c0 .6307.168 1.122.506 1.474.352.3373.843.506 1.474.506zm7.053 2.794v-2.97h.66c.381 0 .697-.1613.946-.484s.381-.748.396-1.276l.132-7.524h9.152v12.1h-3.3v-9.02h-2.618l-.088 4.664c-.015.8947-.213 1.6867-.594 2.376-.367.6747-.88 1.2027-1.54 1.584-.645.3667-1.401.55-2.266.55zm13.609-.154v-12.1h2.75v3.85h.66c1.306 0 2.347.3813 3.124 1.144.778.7627 1.166 1.782 1.166 3.058 0 1.2173-.396 2.2-1.188 2.948-.777.7333-1.811 1.1-3.102 1.1zm2.75-2.53h.66c.528 0 .932-.132 1.21-.396.294-.264.44-.6453.44-1.144 0-.528-.146-.9313-.44-1.21-.278-.2933-.682-.44-1.21-.44h-.66zm5.94 2.53v-12.1h2.75v12.1zm18.265 0v-12.1h3.3v4.422h3.696v-4.422h3.3v12.1h-3.3v-4.598h-3.696v4.598zm13.192 0v-12.1h2.904v5.5c0 .3667-.022.8287-.066 1.386-.044.5427-.103 1.0927-.176 1.65-.059.5573-.125 1.0487-.198 1.474l3.828-10.01h4.004v12.1h-2.904v-5.5c0-.3813.022-.814.066-1.298.044-.4987.095-.9973.154-1.496.058-.4987.117-.924.176-1.276l-3.784 9.57zm20.099 0v-3.85c-.176.044-.455.0953-.836.154-.367.044-.785.066-1.254.066-1.599 0-2.86-.396-3.784-1.188-.924-.8067-1.386-1.914-1.386-3.322v-3.96h3.3v3.74c0 .5427.198.9753.594 1.298.396.308.931.462 1.606.462.411 0 .77-.022 1.078-.066.323-.0587.55-.11.682-.154v-5.28h3.3v12.1zm11.454.22c-1.071 0-2.01-.198-2.816-.594-.792-.4107-1.408-.9753-1.848-1.694-.426-.7333-.638-1.584-.638-2.552v-2.86c0-.968.212-1.8113.638-2.53.44-.7333 1.056-1.298 1.848-1.694.806-.4107 1.745-.616 2.816-.616 1.07 0 1.994.2053 2.772.616.792.396 1.4.9607 1.826 1.694.44.7187.66 1.562.66 2.53v2.2h-7.414v.66c0 .7627.183 1.342.55 1.738.366.3813.916.572 1.65.572.513 0 .924-.088 1.232-.264.322-.176.535-.418.638-.726h3.234c-.264 1.056-.866 1.9067-1.804 2.552-.924.6453-2.039.968-3.344.968zm2.112-7.194v-.55c0-.748-.176-1.32-.528-1.716-.338-.396-.866-.594-1.584-.594-.719 0-1.262.2053-1.628.616-.352.4107-.528.99-.528 1.738v.33l4.488-.044zm5.381 6.974v-12.1h3.718l1.43 4.51c.161.5133.286.9827.374 1.408.103.4107.161.7187.176.924.029-.2053.081-.5133.154-.924.088-.4253.213-.8947.374-1.408l1.408-4.51h3.718v12.1h-3.014v-2.2c0-.484.007-1.0267.022-1.628.029-.616.059-1.2467.088-1.892.044-.66.081-1.2907.11-1.892.044-.616.088-1.1587.132-1.628l-1.606 5.83h-2.794l-1.694-5.83c.059.6013.117 1.32.176 2.156.073.836.132 1.6867.176 2.552.044.8507.066 1.628.066 2.332v2.2zm15.721 3.96 1.65-4.554-4.532-11.506h3.586l1.826 5.28c.132.396.264.88.396 1.452.147.5573.257 1.012.33 1.364.074-.352.176-.8067.308-1.364.147-.572.286-1.056.418-1.452l1.76-5.28h3.432l-5.72 16.06zm-239.447 25.04v-12.1h3.3v4.422h3.696v-4.422h3.3v12.1h-3.3v-4.598h-3.696v4.598zm18.361.22c-1.07 0-2.009-.198-2.816-.594-.792-.4107-1.408-.9753-1.848-1.694-.425-.7333-.638-1.584-.638-2.552v-2.86c0-.968.213-1.8113.638-2.53.44-.7333 1.056-1.298 1.848-1.694.807-.4107 1.746-.616 2.816-.616 1.071 0 1.995.2053 2.772.616.792.396 1.401.9607 1.826 1.694.44.7187.66 1.562.66 2.53v2.2h-7.414v.66c0 .7627.184 1.342.55 1.738.367.3813.917.572 1.65.572.514 0 .924-.088 1.232-.264.323-.176.536-.418.638-.726h3.234c-.264 1.056-.865 1.9067-1.804 2.552-.924.6453-2.038.968-3.344.968zm2.112-7.194v-.55c0-.748-.176-1.32-.528-1.716-.337-.396-.865-.594-1.584-.594-.718 0-1.261.2053-1.628.616-.352.4107-.528.99-.528 1.738v.33l4.488-.044zm19.101 6.974v-12.1h3.3v4.422h3.696v-4.422h3.3v12.1h-3.3v-4.598h-3.696v4.598zm16.778.22c-1.218 0-2.186-.33-2.904-.99-.704-.66-1.056-1.5547-1.056-2.684 0-1.2173.418-2.1487 1.254-2.794.85-.66 2.068-.99 3.652-.99h2.508v-.902c0-.4693-.169-.8433-.506-1.122-.323-.2787-.763-.418-1.32-.418-.514 0-.939.1173-1.276.352-.338.2347-.543.5573-.616.968h-3.19c.132-1.2173.66-2.178 1.584-2.882.938-.7187 2.141-1.078 3.608-1.078 1.54 0 2.757.3813 3.652 1.144.909.748 1.364 1.76 1.364 3.036v8.14h-3.19v-1.98h-.528l.55-.77c0 .9093-.33 1.6353-.99 2.178-.646.528-1.511.792-2.596.792zm1.232-2.42c.645 0 1.173-.1687 1.584-.506.425-.352.638-.8067.638-1.364v-1.298h-2.442c-.499 0-.902.1467-1.21.44-.308.2787-.462.6527-.462 1.122 0 .4987.168.8947.506 1.188.337.2787.799.418 1.386.418zm10.375 6.16 1.65-4.554-4.532-11.506h3.586l1.826 5.28c.132.396.264.88.396 1.452.147.5573.257 1.012.33 1.364.073-.352.176-.8067.308-1.364.147-.572.286-1.056.418-1.452l1.76-5.28h3.432l-5.72 16.06zm18.097-3.96v-3.85c-.176.044-.454.0953-.836.154-.366.044-.784.066-1.254.066-1.598 0-2.86-.396-3.784-1.188-.924-.8067-1.386-1.914-1.386-3.322v-3.96h3.3v3.74c0 .5427.198.9753.594 1.298.396.308.932.462 1.606.462.411 0 .77-.022 1.078-.066.323-.0587.55-.11.682-.154v-5.28h3.3v12.1zm6.284 0v-12.1h2.904v5.5c0 .3667-.022.8287-.066 1.386-.044.5427-.103 1.0927-.176 1.65-.059.5573-.125 1.0487-.198 1.474l3.828-10.01h4.004v12.1h-2.904v-5.5c0-.3813.022-.814.066-1.298.044-.4987.095-.9973.154-1.496s.117-.924.176-1.276l-3.784 9.57zm12.201.154v-2.97h.66c.382 0 .697-.1613.946-.484.25-.3227.382-.748.396-1.276l.132-7.524h9.152v12.1h-3.3v-9.02h-2.618l-.088 4.664c-.014.8947-.212 1.6867-.594 2.376-.366.6747-.88 1.2027-1.54 1.584-.645.3667-1.4.55-2.266.55zm14.182-.154v-12.1h2.904v5.5c0 .3667-.022.8287-.066 1.386-.044.5427-.103 1.0927-.176 1.65-.059.5573-.125 1.0487-.198 1.474l3.828-10.01h4.004v12.1h-2.904v-5.5c0-.3813.022-.814.066-1.298.044-.4987.095-.9973.154-1.496.058-.4987.117-.924.176-1.276l-3.784 9.57zm15.721-4.95-.11-4.73h2.2c.601 0 1.078-.1467 1.43-.44.352-.308.528-.7113.528-1.21 0-.5133-.183-.9167-.55-1.21-.352-.2933-.829-.44-1.43-.44h-3.63v-3.08h3.41c1.129 0 2.105.198 2.926.594.821.3813 1.452.924 1.892 1.628.455.704.682 1.54.682 2.508 0 .924-.191 1.7307-.572 2.42s-.917 1.232-1.606 1.628c-.689.3813-1.496.572-2.42.572v1.76zm1.056 5.06c-.499 0-.902-.1393-1.21-.418-.293-.2933-.44-.6673-.44-1.122 0-.4693.147-.8433.44-1.122.308-.2787.711-.418 1.21-.418h.66c.499 0 .895.1393 1.188.418.308.2787.462.6527.462 1.122s-.154.8433-.462 1.122c-.293.2787-.697.418-1.21.418z"/><path d="m169.568 99v-11.68h6.464v11.68h-1.28v-10.528h-3.904v10.528zm12.826.144c-.683 0-1.275-.1333-1.776-.4-.502-.2667-.891-.6507-1.168-1.152-.278-.5013-.416-1.0933-.416-1.776v-2.432c0-.6933.138-1.2853.416-1.776.277-.5013.666-.8853 1.168-1.152.501-.2667 1.093-.4 1.776-.4.682 0 1.274.1333 1.776.4.501.2667.89.6507 1.168 1.152.277.4907.416 1.0773.416 1.76v2.448c0 .6827-.139 1.2747-.416 1.776-.278.5013-.667.8853-1.168 1.152-.502.2667-1.094.4-1.776.4zm0-1.136c.661 0 1.173-.1867 1.536-.56.362-.3733.544-.9173.544-1.632v-2.432c0-.7147-.187-1.2587-.56-1.632-.363-.3733-.87-.56-1.52-.56-.651 0-1.163.1867-1.536.56-.363.3733-.544.9173-.544 1.632v2.432c0 .7147.181 1.2587.544 1.632.373.3733.885.56 1.536.56zm6.362.992v-8.8h6.464v8.8h-1.28v-7.648h-3.904v7.648zm9.577 2.88v-11.68h1.264v1.552h.336l-.384.528c0-.6933.224-1.2373.672-1.632.459-.4053 1.062-.608 1.808-.608.886 0 1.59.2933 2.112.88.534.576.8 1.3653.8 2.368v2.608c0 .672-.122 1.2533-.368 1.744-.245.48-.586.8533-1.024 1.12-.426.2667-.933.4-1.52.4-.736 0-1.333-.2027-1.792-.608-.458-.4053-.688-.9493-.688-1.632l.336.528h-.304l.016 1.792v2.64zm3.296-3.824c.64 0 1.136-.192 1.488-.576.363-.384.544-.928.544-1.632v-2.496c0-.7147-.181-1.2587-.544-1.632-.352-.384-.848-.576-1.488-.576-.618 0-1.114.1973-1.488.592-.362.384-.544.9227-.544 1.616v2.496c0 .6933.182 1.2373.544 1.632.374.384.87.576 1.488.576zm9.546 1.088c-.683 0-1.275-.1333-1.776-.4s-.891-.6507-1.168-1.152-.416-1.0933-.416-1.776v-2.432c0-.6933.139-1.2853.416-1.776.277-.5013.667-.8853 1.168-1.152s1.093-.4 1.776-.4 1.275.1333 1.776.4.891.6507 1.168 1.152c.277.4907.416 1.0773.416 1.76v2.448c0 .6827-.139 1.2747-.416 1.776s-.667.8853-1.168 1.152-1.093.4-1.776.4zm0-1.136c.661 0 1.173-.1867 1.536-.56s.544-.9173.544-1.632v-2.432c0-.7147-.187-1.2587-.56-1.632-.363-.3733-.869-.56-1.52-.56s-1.163.1867-1.536.56c-.363.3733-.544.9173-.544 1.632v2.432c0 .7147.181 1.2587.544 1.632.373.3733.885.56 1.536.56zm9.594 1.152c-1.024 0-1.83-.304-2.416-.912-.587-.608-.88-1.4453-.88-2.512v-4.096c0-1.3867.346-2.4533 1.04-3.2.693-.7467 1.685-1.12 2.976-1.12h2.176v1.264h-2.176c-.896 0-1.579.2667-2.048.8-.47.5227-.704 1.2747-.704 2.256v1.104h.224l-.224.384c.01-.64.224-1.1413.64-1.504.426-.3627 1.008-.544 1.744-.544.938 0 1.664.2987 2.176.896.512.5867.768 1.408.768 2.464v1.296c0 .7147-.134 1.328-.4 1.84-.256.512-.63.9067-1.12 1.184-.491.2667-1.083.4-1.776.4zm0-1.136c.65 0 1.152-.1973 1.504-.592s.528-.96.528-1.696v-1.296c0-.7253-.176-1.2907-.528-1.696s-.854-.608-1.504-.608c-.651 0-1.152.2027-1.504.608s-.528.9707-.528 1.696v1.296c0 .736.176 1.3013.528 1.696.362.3947.864.592 1.504.592zm7.738 3.856 1.296-3.44-3.264-8.24h1.408l2.08 5.488c.085.2133.165.4533.239.72.086.256.15.4693.193.64.053-.1707.117-.3893.192-.656.074-.2667.149-.5067.224-.72l1.952-5.472h1.36l-4.336 11.68zm8.217-2.88v-8.8h1.232v5.008c0 .2987-.01.6187-.032.96-.01.3307-.026.6453-.048.944-.021.2987-.042.5493-.064.752l3.728-7.664h1.648v8.8h-1.232v-5.008c0-.3093.006-.6293.016-.96.022-.3307.043-.6453.064-.944.032-.3093.054-.5653.064-.768l-3.744 7.68zm3.296-10.256c-.757 0-1.365-.208-1.824-.624-.448-.4267-.672-.9867-.672-1.68h1.024c0 .4373.128.7893.384 1.056.267.2667.624.4 1.072.4.459 0 .822-.1333 1.088-.4.267-.2667.4-.6187.4-1.056h1.024c0 .6933-.229 1.2533-.688 1.68-.448.416-1.05.624-1.808.624zm19.188 10.416c-.747 0-1.392-.128-1.936-.384s-.966-.6187-1.264-1.088c-.299-.48-.454-1.0507-.464-1.712h1.28c0 .6293.213 1.1307.64 1.504.426.3627 1.008.544 1.744.544.704 0 1.253-.176 1.648-.528.405-.352.608-.8373.608-1.456 0-.512-.139-.9547-.416-1.328-.278-.384-.667-.6507-1.168-.8l-1.52-.48c-.8-.2347-1.419-.6347-1.856-1.2-.427-.576-.64-1.248-.64-2.016 0-.6293.138-1.168.416-1.616.277-.4587.666-.816 1.168-1.072.512-.256 1.109-.384 1.792-.384 1.013 0 1.824.2827 2.432.848s.912 1.3227.912 2.272h-1.264c0-.608-.187-1.088-.56-1.44-.374-.352-.886-.528-1.536-.528-.651 0-1.163.16-1.536.48-.363.3093-.544.752-.544 1.328 0 .5013.138.9387.416 1.312.277.3733.666.64 1.168.8l1.52.48c.789.2453 1.402.6613 1.84 1.248.437.5867.656 1.2747.656 2.064 0 .6293-.15 1.184-.448 1.664-.288.4693-.699.8373-1.232 1.104-.523.256-1.142.384-1.856.384zm8.841 0c-.927 0-1.658-.2347-2.191-.704-.534-.48-.8-1.1253-.8-1.936 0-.8.261-1.4293.784-1.888.522-.4693 1.226-.704 2.112-.704h2.8v-.928c0-.5867-.171-1.04-.512-1.36-.342-.32-.827-.48-1.456-.48-.555 0-1.019.1227-1.392.368-.363.2453-.571.576-.624.992h-1.28c.106-.7573.458-1.36 1.056-1.808.608-.448 1.365-.672 2.272-.672.981 0 1.76.2667 2.336.8.576.5227.863 1.232.863 2.128v6.032h-1.247v-1.712h-.208l.24-.256c0 .6507-.251 1.168-.752 1.552-.502.384-1.168.576-2.001.576zm.305-1.024c.704 0 1.28-.176 1.728-.528s.672-.8107.672-1.376v-1.328h-2.784c-.502 0-.902.1387-1.2.416-.299.2773-.448.656-.448 1.136 0 .512.181.9227.544 1.232.362.2987.858.448 1.488.448zm6.585.864v-1.152h3.136v-6.496h-2.736v-1.152h4.016v7.648h2.976v1.152zm3.632-10.416c-.33 0-.597-.0853-.8-.256-.192-.1707-.288-.4053-.288-.704 0-.3093.096-.5547.288-.736.203-.1813.47-.272.8-.272.331 0 .592.0907.784.272.203.1813.304.4267.304.736 0 .288-.101.5227-.304.704-.192.1707-.453.256-.784.256zm6.106 10.416v-8.8h1.264v1.632h.32l-.352.464c0-.704.213-1.2533.64-1.648.437-.4053 1.029-.608 1.776-.608.875 0 1.573.2773 2.096.832.523.544.784 1.2853.784 2.224v5.904h-1.264v-5.76c0-.672-.176-1.1893-.528-1.552s-.832-.544-1.44-.544c-.629 0-1.125.192-1.488.576s-.544.928-.544 1.632v5.648zm13.802 0c-.736 0-1.307-.192-1.712-.576-.406-.3947-.608-.9493-.608-1.664v-5.408h-2.496v-1.152h2.496v-2.48h1.28v2.48h3.536v1.152h-3.536v5.408c0 .7253.346 1.088 1.04 1.088h2.336v1.152zm8.682.16c-.683 0-1.28-.1333-1.792-.4s-.912-.6453-1.2-1.136c-.278-.5013-.416-1.0933-.416-1.776v-2.496c0-.6827.138-1.2693.416-1.76.288-.5013.688-.8853 1.2-1.152s1.109-.4 1.792-.4c1.002 0 1.808.272 2.416.816s.922 1.2853.944 2.224h-1.264c-.022-.608-.219-1.0773-.592-1.408-.363-.3307-.864-.496-1.504-.496-.651 0-1.168.192-1.552.576-.384.3733-.576.9067-.576 1.6v2.496c0 .6827.192 1.216.576 1.6s.901.576 1.552.576c.64 0 1.141-.1653 1.504-.496.373-.3413.57-.8107.592-1.408h1.264c-.022.9387-.336 1.68-.944 2.224s-1.414.816-2.416.816zm9.545-.016c-.682 0-1.274-.1333-1.776-.4-.501-.2667-.89-.6507-1.168-1.152-.277-.5013-.416-1.0933-.416-1.776v-2.432c0-.6933.139-1.2853.416-1.776.278-.5013.667-.8853 1.168-1.152.502-.2667 1.094-.4 1.776-.4.683 0 1.275.1333 1.776.4.502.2667.891.6507 1.168 1.152.278.4907.416 1.0773.416 1.76v2.448c0 .6827-.138 1.2747-.416 1.776-.277.5013-.666.8853-1.168 1.152-.501.2667-1.093.4-1.776.4zm0-1.136c.662 0 1.174-.1867 1.536-.56.363-.3733.544-.9173.544-1.632v-2.432c0-.7147-.186-1.2587-.56-1.632-.362-.3733-.869-.56-1.52-.56-.65 0-1.162.1867-1.536.56-.362.3733-.544.9173-.544 1.632v2.432c0 .7147.182 1.2587.544 1.632.374.3733.886.56 1.536.56zm9.162 1.152c-.875 0-1.584-.2933-2.128-.88-.533-.5867-.8-1.376-.8-2.368v-2.608c0-1.0027.267-1.7973.8-2.384s1.243-.88 2.128-.88c.736 0 1.328.2027 1.776.608.459.4053.688.9493.688 1.632l-.336-.528h.304l-.016-1.92v-2.512h1.264v11.68h-1.264v-1.552h-.336l.384-.528c0 .6933-.229 1.2427-.688 1.648-.448.3947-1.04.592-1.776.592zm.4-1.104c.629 0 1.12-.192 1.472-.576.363-.3947.544-.9387.544-1.632v-2.496c0-.6933-.181-1.232-.544-1.616-.352-.3947-.843-.592-1.472-.592-.64 0-1.141.192-1.504.576s-.544.928-.544 1.632v2.496c0 .704.181 1.248.544 1.632s.864.576 1.504.576zm9.626 1.104c-.683 0-1.275-.1333-1.776-.4-.502-.2773-.891-.6667-1.168-1.168-.278-.5013-.416-1.0827-.416-1.744v-2.496c0-.672.138-1.2533.416-1.744.277-.5013.666-.8853 1.168-1.152.501-.2773 1.093-.416 1.776-.416.682 0 1.274.1387 1.776.416.501.2667.89.6507 1.168 1.152.277.4907.416 1.072.416 1.744v1.552h-5.472v.944c0 .7147.181 1.2693.544 1.664.373.384.896.576 1.568.576.565 0 1.024-.112 1.376-.336.362-.224.592-.5493.688-.976h1.264c-.118.736-.475 1.3173-1.072 1.744-.598.4267-1.35.64-2.256.64zm2.112-5.104v-.704c0-.7147-.182-1.264-.544-1.648-.363-.3947-.886-.592-1.568-.592-.672 0-1.195.1973-1.568.592-.363.384-.544.9333-.544 1.648v.56h4.352zm13.843 4.944v-11.68h3.216c1.046 0 1.867.272 2.464.816.598.5333.896 1.2693.896 2.208 0 .5333-.112 1.0027-.336 1.408-.213.3947-.522.704-.928.928-.394.2133-.874.3147-1.44.304v-.224c.608 0 1.131.1227 1.568.368.448.2347.795.5813 1.04 1.04.246.448.368.9813.368 1.6 0 .6613-.138 1.2373-.416 1.728-.277.48-.672.8533-1.184 1.12-.512.256-1.125.384-1.84.384zm1.232-1.152h2.064c.715 0 1.275-.1867 1.68-.56.416-.384.624-.9013.624-1.552 0-.672-.208-1.2107-.624-1.616-.405-.416-.965-.624-1.68-.624h-2.064zm0-5.456h1.984c.651 0 1.163-.176 1.536-.528.374-.352.56-.832.56-1.44s-.186-1.0827-.56-1.424c-.362-.352-.874-.528-1.536-.528h-1.984zm11.594 6.752c-.683 0-1.275-.1333-1.776-.4s-.891-.6507-1.168-1.152-.416-1.0933-.416-1.776v-2.432c0-.6933.139-1.2853.416-1.776.277-.5013.667-.8853 1.168-1.152s1.093-.4 1.776-.4 1.275.1333 1.776.4.891.6507 1.168 1.152c.277.4907.416 1.0773.416 1.76v2.448c0 .6827-.139 1.2747-.416 1.776s-.667.8853-1.168 1.152-1.093.4-1.776.4zm0-1.136c.661 0 1.173-.1867 1.536-.56s.544-.9173.544-1.632v-2.432c0-.7147-.187-1.2587-.56-1.632-.363-.3733-.869-.56-1.52-.56s-1.163.1867-1.536.56c-.363.3733-.544.9173-.544 1.632v2.432c0 .7147.181 1.2587.544 1.632.373.3733.885.56 1.536.56zm9.594 1.136c-.683 0-1.275-.1333-1.776-.4-.502-.2667-.891-.6507-1.168-1.152-.278-.5013-.416-1.0933-.416-1.776v-2.432c0-.6933.138-1.2853.416-1.776.277-.5013.666-.8853 1.168-1.152.501-.2667 1.093-.4 1.776-.4.682 0 1.274.1333 1.776.4.501.2667.89.6507 1.168 1.152.277.4907.416 1.0773.416 1.76v2.448c0 .6827-.139 1.2747-.416 1.776-.278.5013-.667.8853-1.168 1.152-.502.2667-1.094.4-1.776.4zm0-1.136c.661 0 1.173-.1867 1.536-.56.362-.3733.544-.9173.544-1.632v-2.432c0-.7147-.187-1.2587-.56-1.632-.363-.3733-.87-.56-1.52-.56-.651 0-1.163.1867-1.536.56-.363.3733-.544.9173-.544 1.632v2.432c0 .7147.181 1.2587.544 1.632.373.3733.885.56 1.536.56zm10.554.992c-.736 0-1.307-.192-1.712-.576-.406-.3947-.608-.9493-.608-1.664v-5.408h-2.496v-1.152h2.496v-2.48h1.28v2.48h3.536v1.152h-3.536v5.408c0 .7253.346 1.088 1.04 1.088h2.336v1.152zm8.681.16c-.682 0-1.28-.1333-1.792-.4s-.912-.6453-1.2-1.136c-.277-.5013-.416-1.0933-.416-1.776v-2.496c0-.6827.139-1.2693.416-1.76.288-.5013.688-.8853 1.2-1.152s1.11-.4 1.792-.4c1.003 0 1.808.272 2.416.816s.923 1.2853.944 2.224h-1.264c-.021-.608-.218-1.0773-.592-1.408-.362-.3307-.864-.496-1.504-.496-.65 0-1.168.192-1.552.576-.384.3733-.576.9067-.576 1.6v2.496c0 .6827.192 1.216.576 1.6s.902.576 1.552.576c.64 0 1.142-.1653 1.504-.496.374-.3413.571-.8107.592-1.408h1.264c-.021.9387-.336 1.68-.944 2.224s-1.413.816-2.416.816zm8.858 0c-.928 0-1.659-.2347-2.192-.704-.533-.48-.8-1.1253-.8-1.936 0-.8.261-1.4293.784-1.888.523-.4693 1.227-.704 2.112-.704h2.8v-.928c0-.5867-.171-1.04-.512-1.36s-.827-.48-1.456-.48c-.555 0-1.019.1227-1.392.368-.363.2453-.571.576-.624.992h-1.28c.107-.7573.459-1.36 1.056-1.808.608-.448 1.365-.672 2.272-.672.981 0 1.76.2667 2.336.8.576.5227.864 1.232.864 2.128v6.032h-1.248v-1.712h-.208l.24-.256c0 .6507-.251 1.168-.752 1.552s-1.168.576-2 .576zm.304-1.024c.704 0 1.28-.176 1.728-.528s.672-.8107.672-1.376v-1.328h-2.784c-.501 0-.901.1387-1.2.416s-.448.656-.448 1.136c0 .512.181.9227.544 1.232.363.2987.859.448 1.488.448zm6.282.864v-8.8h1.12v1.088h.24l-.176.352c0-.4907.128-.88.384-1.168.266-.288.629-.432 1.088-.432.48 0 .853.1707 1.12.512.277.3413.421.8213.432 1.44l-.336-.704h.528l-.224.352c0-.4907.133-.88.4-1.168.266-.288.629-.432 1.088-.432.544 0 .965.2027 1.264.608.309.4053.464.944.464 1.616v6.736h-1.184v-6.736c0-.384-.086-.6827-.256-.896-.171-.224-.411-.336-.72-.336-.31 0-.555.112-.736.336-.182.2133-.272.512-.272.896v6.736h-1.056v-6.736c0-.3947-.091-.6987-.272-.912-.171-.2133-.411-.32-.72-.32-.31 0-.55.1067-.72.32-.171.2133-.262.5173-.272.912v6.736zm10.042 2.88v-11.68h1.264v1.552h.336l-.384.528c0-.6933.224-1.2373.672-1.632.458-.4053 1.061-.608 1.808-.608.885 0 1.589.2933 2.112.88.533.576.8 1.3653.8 2.368v2.608c0 .672-.123 1.2533-.368 1.744-.246.48-.587.8533-1.024 1.12-.427.2667-.934.4-1.52.4-.736 0-1.334-.2027-1.792-.608-.459-.4053-.688-.9493-.688-1.632l.336.528h-.304l.016 1.792v2.64zm3.296-3.824c.64 0 1.136-.192 1.488-.576.362-.384.544-.928.544-1.632v-2.496c0-.7147-.182-1.2587-.544-1.632-.352-.384-.848-.576-1.488-.576-.619 0-1.115.1973-1.488.592-.363.384-.544.9227-.544 1.616v2.496c0 .6933.181 1.2373.544 1.632.373.384.869.576 1.488.576zm14.339-3.776v-1.136h9.6v1.136zm-267.009 25.72v-8.8h1.28v3.696h1.664l2.608-3.696h1.456l-2.96 4.192 3.024 4.608h-1.488l-2.64-4h-1.664v4zm10.922 2.88 1.296-3.44-3.264-8.24h1.408l2.08 5.488c.085.213.165.453.24.72.085.256.149.469.192.64.053-.171.117-.389.192-.656.074-.267.149-.507.224-.72l1.952-5.472h1.36l-4.336 11.68zm8.202 0v-11.68h1.264v1.552h.336l-.384.528c0-.693.224-1.237.672-1.632.458-.405 1.061-.608 1.808-.608.885 0 1.589.293 2.112.88.533.576.8 1.365.8 2.368v2.608c0 .672-.123 1.253-.368 1.744-.246.48-.587.853-1.024 1.12-.427.267-.934.4-1.52.4-.736 0-1.334-.203-1.792-.608-.459-.405-.688-.949-.688-1.632l.336.528h-.304l.016 1.792v2.64zm3.296-3.824c.64 0 1.136-.192 1.488-.576.362-.384.544-.928.544-1.632v-2.496c0-.715-.182-1.259-.544-1.632-.352-.384-.848-.576-1.488-.576-.619 0-1.115.197-1.488.592-.363.384-.544.923-.544 1.616v2.496c0 .693.181 1.237.544 1.632.373.384.869.576 1.488.576zm9.561 1.104c-.682 0-1.28-.133-1.792-.4s-.912-.645-1.2-1.136c-.277-.501-.416-1.093-.416-1.776v-2.496c0-.683.139-1.269.416-1.76.288-.501.688-.885 1.2-1.152s1.11-.4 1.792-.4c1.003 0 1.808.272 2.416.816s.923 1.285.944 2.224h-1.264c-.021-.608-.218-1.077-.592-1.408-.362-.331-.864-.496-1.504-.496-.65 0-1.168.192-1.552.576-.384.373-.576.907-.576 1.6v2.496c0 .683.192 1.216.576 1.6s.902.576 1.552.576c.64 0 1.142-.165 1.504-.496.374-.341.571-.811.592-1.408h1.264c-.021.939-.336 1.68-.944 2.224s-1.413.816-2.416.816zm5.882-.16v-8.8h1.2v3.264h.784c.939 0 1.68.251 2.224.752.555.491.832 1.163.832 2.016s-.272 1.531-.816 2.032c-.544.491-1.291.736-2.24.736zm1.2-1.04h.784c.597 0 1.061-.149 1.392-.448.341-.309.512-.736.512-1.28s-.171-.965-.512-1.264c-.331-.309-.795-.464-1.392-.464h-.784zm4.992 1.04v-8.8h1.2v8.8zm13.46 0v-8.8h6.464v8.8h-1.28v-7.648h-3.904v7.648zm9.577 2.88v-11.68h1.264v1.552h.336l-.384.528c0-.693.224-1.237.672-1.632.459-.405 1.062-.608 1.808-.608.886 0 1.59.293 2.112.88.534.576.8 1.365.8 2.368v2.608c0 .672-.122 1.253-.368 1.744-.245.48-.586.853-1.024 1.12-.426.267-.933.4-1.52.4-.736 0-1.333-.203-1.792-.608-.458-.405-.688-.949-.688-1.632l.336.528h-.304l.016 1.792v2.64zm3.296-3.824c.64 0 1.136-.192 1.488-.576.363-.384.544-.928.544-1.632v-2.496c0-.715-.181-1.259-.544-1.632-.352-.384-.848-.576-1.488-.576-.618 0-1.114.197-1.488.592-.362.384-.544.923-.544 1.616v2.496c0 .693.182 1.237.544 1.632.374.384.87.576 1.488.576zm9.546 1.088c-.683 0-1.275-.133-1.776-.4s-.891-.651-1.168-1.152-.416-1.093-.416-1.776v-2.432c0-.693.139-1.285.416-1.776.277-.501.667-.885 1.168-1.152s1.093-.4 1.776-.4 1.275.133 1.776.4.891.651 1.168 1.152c.277.491.416 1.077.416 1.76v2.448c0 .683-.139 1.275-.416 1.776s-.667.885-1.168 1.152-1.093.4-1.776.4zm0-1.136c.661 0 1.173-.187 1.536-.56s.544-.917.544-1.632v-2.432c0-.715-.187-1.259-.56-1.632-.363-.373-.869-.56-1.52-.56s-1.163.187-1.536.56c-.363.373-.544.917-.544 1.632v2.432c0 .715.181 1.259.544 1.632.373.373.885.56 1.536.56zm6.938.992v-8.8h6.24v1.152h-4.976v7.648zm9.002 2.88v-11.68h1.264v1.552h.336l-.384.528c0-.693.224-1.237.672-1.632.458-.405 1.061-.608 1.808-.608.885 0 1.589.293 2.112.88.533.576.8 1.365.8 2.368v2.608c0 .672-.123 1.253-.368 1.744-.246.48-.587.853-1.024 1.12-.427.267-.934.4-1.52.4-.736 0-1.334-.203-1.792-.608-.459-.405-.688-.949-.688-1.632l.336.528h-.304l.016 1.792v2.64zm3.296-3.824c.64 0 1.136-.192 1.488-.576.362-.384.544-.928.544-1.632v-2.496c0-.715-.182-1.259-.544-1.632-.352-.384-.848-.576-1.488-.576-.619 0-1.115.197-1.488.592-.363.384-.544.923-.544 1.616v2.496c0 .693.181 1.237.544 1.632.373.384.869.576 1.488.576zm8.857 1.104c-.928 0-1.658-.235-2.192-.704-.533-.48-.8-1.125-.8-1.936 0-.8.262-1.429.784-1.888.523-.469 1.227-.704 2.112-.704h2.8v-.928c0-.587-.17-1.04-.512-1.36-.341-.32-.826-.48-1.456-.48-.554 0-1.018.123-1.392.368-.362.245-.57.576-.624.992h-1.28c.107-.757.459-1.36 1.056-1.808.608-.448 1.366-.672 2.272-.672.982 0 1.76.267 2.336.8.576.523.864 1.232.864 2.128v6.032h-1.248v-1.712h-.208l.24-.256c0 .651-.25 1.168-.752 1.552-.501.384-1.168.576-2 .576zm.304-1.024c.704 0 1.28-.176 1.728-.528s.672-.811.672-1.376v-1.328h-2.784c-.501 0-.901.139-1.2.416-.298.277-.448.656-.448 1.136 0 .512.182.923.544 1.232.363.299.859.448 1.488.448zm6.458.864v-8.8h1.76l1.28 3.584c.107.309.208.624.304.944s.165.571.208.752c.053-.181.123-.432.208-.752.096-.32.197-.64.304-.96l1.232-3.568h1.744v8.8h-1.232v-2.112c0-.459.005-.949.016-1.472s.021-1.045.032-1.568.027-1.013.048-1.472c.021-.469.037-.88.048-1.232l-1.744 5.216h-1.344l-1.744-5.184c.021.427.037.965.048 1.616.011.64.021 1.317.032 2.032.021.715.032 1.403.032 2.064v2.112zm9.594 0v-8.8h1.76l1.28 3.584c.106.309.208.624.304.944s.165.571.208.752c.053-.181.122-.432.208-.752.096-.32.197-.64.304-.96l1.232-3.568h1.744v8.8h-1.232v-2.112c0-.459.005-.949.016-1.472.01-.523.021-1.045.032-1.568.01-.523.026-1.013.048-1.472.021-.469.037-.88.048-1.232l-1.744 5.216h-1.344l-1.744-5.184c.021.427.037.965.048 1.616.01.64.021 1.317.032 2.032.021.715.032 1.403.032 2.064v2.112zm9.882 0v-8.8h1.232v5.008c0 .299-.011.619-.032.96-.011.331-.027.645-.048.944-.022.299-.043.549-.064.752l3.728-7.664h1.648v8.8h-1.232v-5.008c0-.309.005-.629.016-.96.021-.331.042-.645.064-.944.032-.309.053-.565.064-.768l-3.744 7.68zm9.577 2.88v-11.68h1.264v1.552h.336l-.384.528c0-.693.224-1.237.672-1.632.459-.405 1.062-.608 1.808-.608.886 0 1.59.293 2.112.88.534.576.8 1.365.8 2.368v2.608c0 .672-.122 1.253-.368 1.744-.245.48-.586.853-1.024 1.12-.426.267-.933.4-1.52.4-.736 0-1.333-.203-1.792-.608-.458-.405-.688-.949-.688-1.632l.336.528h-.304l.016 1.792v2.64zm3.296-3.824c.64 0 1.136-.192 1.488-.576.363-.384.544-.928.544-1.632v-2.496c0-.715-.181-1.259-.544-1.632-.352-.384-.848-.576-1.488-.576-.618 0-1.114.197-1.488.592-.362.384-.544.923-.544 1.616v2.496c0 .693.182 1.237.544 1.632.374.384.87.576 1.488.576zm9.546 1.088c-.683 0-1.275-.133-1.776-.4s-.891-.651-1.168-1.152-.416-1.093-.416-1.776v-2.432c0-.693.139-1.285.416-1.776.277-.501.667-.885 1.168-1.152s1.093-.4 1.776-.4 1.275.133 1.776.4.891.651 1.168 1.152c.277.491.416 1.077.416 1.76v2.448c0 .683-.139 1.275-.416 1.776s-.667.885-1.168 1.152-1.093.4-1.776.4zm0-1.136c.661 0 1.173-.187 1.536-.56s.544-.917.544-1.632v-2.432c0-.715-.187-1.259-.56-1.632-.363-.373-.869-.56-1.52-.56s-1.163.187-1.536.56c-.363.373-.544.917-.544 1.632v2.432c0 .715.181 1.259.544 1.632.373.373.885.56 1.536.56zm6.362.992v-8.8h3.776c.874 0 1.562.208 2.064.624.501.405.752.971.752 1.696 0 .608-.208 1.099-.624 1.472-.406.363-.95.544-1.632.544v-.112c.736 0 1.328.192 1.776.576.448.373.672.875.672 1.504 0 .779-.267 1.392-.8 1.84-.523.437-1.248.656-2.176.656zm1.248-1.12h2.56c.522 0 .938-.123 1.248-.368.309-.256.464-.597.464-1.024 0-.448-.155-.795-.464-1.04-.31-.256-.726-.384-1.248-.384h-2.56zm0-3.92h2.528c.469 0 .842-.117 1.12-.352.288-.235.432-.555.432-.96s-.144-.725-.432-.96c-.278-.245-.651-.368-1.12-.368h-2.528zm10.889 5.2c-.927 0-1.658-.235-2.191-.704-.534-.48-.8-1.125-.8-1.936 0-.8.261-1.429.784-1.888.522-.469 1.226-.704 2.112-.704h2.8v-.928c0-.587-.171-1.04-.512-1.36-.342-.32-.827-.48-1.456-.48-.555 0-1.019.123-1.392.368-.363.245-.571.576-.624.992h-1.28c.106-.757.458-1.36 1.056-1.808.608-.448 1.365-.672 2.272-.672.981 0 1.76.267 2.336.8.576.523.863 1.232.863 2.128v6.032h-1.247v-1.712h-.208l.24-.256c0 .651-.251 1.168-.752 1.552-.502.384-1.168.576-2.001.576zm.305-1.024c.704 0 1.28-.176 1.728-.528s.672-.811.672-1.376v-1.328h-2.784c-.502 0-.902.139-1.2.416-.299.277-.448.656-.448 1.136 0 .512.181.923.544 1.232.362.299.858.448 1.488.448zm6.745.864v-8.8h1.28v3.744h3.904v-3.744h1.28v8.8h-1.28v-3.904h-3.904v3.904zm9.594 0v-8.8h1.232v5.008c0 .299-.011.619-.032.96-.011.331-.027.645-.048.944s-.043.549-.064.752l3.728-7.664h1.648v8.8h-1.232v-5.008c0-.309.005-.629.016-.96.021-.331.043-.645.064-.944.032-.309.053-.565.064-.768l-3.744 7.68zm9.098 0 2.24-3.408c-.683-.149-1.211-.453-1.584-.912-.374-.459-.56-1.035-.56-1.728 0-.853.282-1.525.848-2.016.576-.491 1.354-.736 2.336-.736h3.68v8.8h-1.28v-3.296h-2.128l-2.08 3.296zm3.28-4.432h2.4v-3.232h-2.4c-.576 0-1.035.144-1.376.432-.342.288-.512.683-.512 1.184s.17.896.512 1.184c.341.288.8.432 1.376.432zm16.403 4.432v-8.8h6.464v8.8h-1.28v-7.648h-3.904v7.648zm12.826.144c-.683 0-1.275-.133-1.776-.4s-.891-.651-1.168-1.152-.416-1.093-.416-1.776v-2.432c0-.693.139-1.285.416-1.776.277-.501.667-.885 1.168-1.152s1.093-.4 1.776-.4 1.275.133 1.776.4.891.651 1.168 1.152c.277.491.416 1.077.416 1.76v2.448c0 .683-.139 1.275-.416 1.776s-.667.885-1.168 1.152-1.093.4-1.776.4zm0-1.136c.661 0 1.173-.187 1.536-.56s.544-.917.544-1.632v-2.432c0-.715-.187-1.259-.56-1.632-.363-.373-.869-.56-1.52-.56s-1.163.187-1.536.56c-.363.373-.544.917-.544 1.632v2.432c0 .715.181 1.259.544 1.632.373.373.885.56 1.536.56zm5.338 3.232v-3.328h.72c.181-.203.368-.565.56-1.088.202-.533.309-1.179.32-1.936l.096-4.688h5.6v7.712h1.136v3.328h-1.136v-2.24h-6.16v2.24zm2.08-3.328h3.952v-6.576h-3.136l-.064 3.568c-.011.8-.102 1.456-.272 1.968-.171.512-.331.859-.48 1.04zm-240.9 22.088v-8.8h6.464v8.8h-1.28v-7.648h-3.904v7.648zm9.578 2.88v-11.68h1.264v1.552h.336l-.384.528c0-.693.224-1.237.672-1.632.458-.405 1.061-.608 1.808-.608.885 0 1.589.293 2.112.88.533.576.8 1.365.8 2.368v2.608c0 .672-.123 1.253-.368 1.744-.246.48-.587.853-1.024 1.12-.427.267-.934.4-1.52.4-.736 0-1.334-.203-1.792-.608-.459-.405-.688-.949-.688-1.632l.336.528h-.304l.016 1.792v2.64zm3.296-3.824c.64 0 1.136-.192 1.488-.576.362-.384.544-.928.544-1.632v-2.496c0-.715-.182-1.259-.544-1.632-.352-.384-.848-.576-1.488-.576-.619 0-1.115.197-1.488.592-.363.384-.544.923-.544 1.616v2.496c0 .693.181 1.237.544 1.632.373.384.869.576 1.488.576zm6.314.944v-8.8h1.232v5.008c0 .299-.011.619-.032.96-.011.331-.027.645-.048.944-.022.299-.043.549-.064.752l3.728-7.664h1.648v8.8h-1.232v-5.008c0-.309.005-.629.016-.96.021-.331.042-.645.064-.944.032-.309.053-.565.064-.768l-3.744 7.68zm12.841.16c-.682 0-1.28-.133-1.792-.4s-.912-.645-1.2-1.136c-.277-.501-.416-1.093-.416-1.776v-2.496c0-.683.139-1.269.416-1.76.288-.501.688-.885 1.2-1.152s1.11-.4 1.792-.4c1.003 0 1.808.272 2.416.816s.923 1.285.944 2.224h-1.264c-.021-.608-.218-1.077-.592-1.408-.362-.331-.864-.496-1.504-.496-.65 0-1.168.192-1.552.576-.384.373-.576.907-.576 1.6v2.496c0 .683.192 1.216.576 1.6s.902.576 1.552.576c.64 0 1.142-.165 1.504-.496.374-.341.571-.811.592-1.408h1.264c-.021.939-.336 1.68-.944 2.224s-1.413.816-2.416.816zm6.058-.16v-8.8h1.76l1.28 3.584c.107.309.208.624.304.944s.165.571.208.752c.053-.181.123-.432.208-.752.096-.32.197-.64.304-.96l1.232-3.568h1.744v8.8h-1.232v-2.112c0-.459.005-.949.016-1.472s.021-1.045.032-1.568.027-1.013.048-1.472c.021-.469.037-.88.048-1.232l-1.744 5.216h-1.344l-1.744-5.184c.021.427.037.965.048 1.616.011.64.021 1.317.032 2.032.021.715.032 1.403.032 2.064v2.112zm13.114.144c-.683 0-1.275-.133-1.776-.4-.502-.267-.891-.651-1.168-1.152-.278-.501-.416-1.093-.416-1.776v-2.432c0-.693.138-1.285.416-1.776.277-.501.666-.885 1.168-1.152.501-.267 1.093-.4 1.776-.4.682 0 1.274.133 1.776.4.501.267.89.651 1.168 1.152.277.491.416 1.077.416 1.76v2.448c0 .683-.139 1.275-.416 1.776-.278.501-.667.885-1.168 1.152-.502.267-1.094.4-1.776.4zm0-1.136c.661 0 1.173-.187 1.536-.56.362-.373.544-.917.544-1.632v-2.432c0-.715-.187-1.259-.56-1.632-.363-.373-.87-.56-1.52-.56-.651 0-1.163.187-1.536.56-.363.373-.544.917-.544 1.632v2.432c0 .715.181 1.259.544 1.632.373.373.885.56 1.536.56zm8.954.992v-7.664h-3.2v-1.136h7.68v1.136h-3.2v7.664zm6.985 2.88v-11.68h1.264v1.552h.336l-.384.528c0-.693.224-1.237.672-1.632.459-.405 1.062-.608 1.808-.608.886 0 1.59.293 2.112.88.534.576.8 1.365.8 2.368v2.608c0 .672-.122 1.253-.368 1.744-.245.48-.586.853-1.024 1.12-.426.267-.933.4-1.52.4-.736 0-1.333-.203-1.792-.608-.458-.405-.688-.949-.688-1.632l.336.528h-.304l.016 1.792v2.64zm3.296-3.824c.64 0 1.136-.192 1.488-.576.363-.384.544-.928.544-1.632v-2.496c0-.715-.181-1.259-.544-1.632-.352-.384-.848-.576-1.488-.576-.618 0-1.114.197-1.488.592-.362.384-.544.923-.544 1.616v2.496c0 .693.182 1.237.544 1.632.374.384.87.576 1.488.576zm9.546 1.088c-.683 0-1.275-.133-1.776-.4s-.891-.651-1.168-1.152-.416-1.093-.416-1.776v-2.432c0-.693.139-1.285.416-1.776.277-.501.667-.885 1.168-1.152s1.093-.4 1.776-.4 1.275.133 1.776.4.891.651 1.168 1.152c.277.491.416 1.077.416 1.76v2.448c0 .683-.139 1.275-.416 1.776s-.667.885-1.168 1.152-1.093.4-1.776.4zm0-1.136c.661 0 1.173-.187 1.536-.56s.544-.917.544-1.632v-2.432c0-.715-.187-1.259-.56-1.632-.363-.373-.869-.56-1.52-.56s-1.163.187-1.536.56c-.363.373-.544.917-.544 1.632v2.432c0 .715.181 1.259.544 1.632.373.373.885.56 1.536.56zm6.074.992v-8.8h1.76l1.28 3.584c.106.309.208.624.304.944s.165.571.208.752c.053-.181.122-.432.208-.752.096-.32.197-.64.304-.96l1.232-3.568h1.744v8.8h-1.232v-2.112c0-.459.005-.949.016-1.472.01-.523.021-1.045.032-1.568.01-.523.026-1.013.048-1.472.021-.469.037-.88.048-1.232l-1.744 5.216h-1.344l-1.744-5.184c.021.427.037.965.048 1.616.01.64.021 1.317.032 2.032.021.715.032 1.403.032 2.064v2.112zm22.707.144c-.682 0-1.274-.133-1.776-.4-.501-.267-.89-.651-1.168-1.152-.277-.501-.416-1.093-.416-1.776v-2.432c0-.693.139-1.285.416-1.776.278-.501.667-.885 1.168-1.152.502-.267 1.094-.4 1.776-.4.683 0 1.275.133 1.776.4.502.267.891.651 1.168 1.152.278.491.416 1.077.416 1.76v2.448c0 .683-.138 1.275-.416 1.776-.277.501-.666.885-1.168 1.152-.501.267-1.093.4-1.776.4zm0-1.136c.662 0 1.174-.187 1.536-.56.363-.373.544-.917.544-1.632v-2.432c0-.715-.186-1.259-.56-1.632-.362-.373-.869-.56-1.52-.56-.65 0-1.162.187-1.536.56-.362.373-.544.917-.544 1.632v2.432c0 .715.182 1.259.544 1.632.374.373.886.56 1.536.56zm6.362.992v-8.8h6.464v8.8h-1.28v-7.648h-3.904v7.648zm9.13 0v-8.8h1.2v3.264h.784c.938 0 1.68.251 2.224.752.554.491.832 1.163.832 2.016s-.272 1.531-.816 2.032c-.544.491-1.291.736-2.24.736zm1.2-1.04h.784c.597 0 1.061-.149 1.392-.448.341-.309.512-.736.512-1.28s-.171-.965-.512-1.264c-.331-.309-.795-.464-1.392-.464h-.784zm4.992 1.04v-8.8h1.2v8.8zm6.458 0v-7.664h-3.2v-1.136h7.68v1.136h-3.2v7.664zm7.001 0v-8.8h1.28v3.744h3.904v-3.744h1.28v8.8h-1.28v-3.904h-3.904v3.904zm12.826.144c-.683 0-1.275-.133-1.776-.4s-.891-.651-1.168-1.152-.416-1.093-.416-1.776v-2.432c0-.693.139-1.285.416-1.776.277-.501.667-.885 1.168-1.152s1.093-.4 1.776-.4 1.275.133 1.776.4.891.651 1.168 1.152c.277.491.416 1.077.416 1.76v2.448c0 .683-.139 1.275-.416 1.776s-.667.885-1.168 1.152-1.093.4-1.776.4zm0-1.136c.661 0 1.173-.187 1.536-.56s.544-.917.544-1.632v-2.432c0-.715-.187-1.259-.56-1.632-.363-.373-.869-.56-1.52-.56s-1.163.187-1.536.56c-.363.373-.544.917-.544 1.632v2.432c0 .715.181 1.259.544 1.632.373.373.885.56 1.536.56zm6.938.992v-8.8h6.24v1.152h-4.976v7.648zm12.25.144c-.683 0-1.275-.133-1.776-.4-.502-.267-.891-.651-1.168-1.152-.278-.501-.416-1.093-.416-1.776v-2.432c0-.693.138-1.285.416-1.776.277-.501.666-.885 1.168-1.152.501-.267 1.093-.4 1.776-.4.682 0 1.274.133 1.776.4.501.267.89.651 1.168 1.152.277.491.416 1.077.416 1.76v2.448c0 .683-.139 1.275-.416 1.776-.278.501-.667.885-1.168 1.152-.502.267-1.094.4-1.776.4zm0-1.136c.661 0 1.173-.187 1.536-.56.362-.373.544-.917.544-1.632v-2.432c0-.715-.187-1.259-.56-1.632-.363-.373-.87-.56-1.52-.56-.651 0-1.163.187-1.536.56-.363.373-.544.917-.544 1.632v2.432c0 .715.181 1.259.544 1.632.373.373.885.56 1.536.56zm15.955.992v-8.8h1.28v3.744h3.904v-3.744h1.28v8.8h-1.28v-3.904h-3.904v3.904zm12.138.16c-.928 0-1.659-.235-2.192-.704-.534-.48-.8-1.125-.8-1.936 0-.8.261-1.429.784-1.888.522-.469 1.226-.704 2.112-.704h2.8v-.928c0-.587-.171-1.04-.512-1.36-.342-.32-.827-.48-1.456-.48-.555 0-1.019.123-1.392.368-.363.245-.571.576-.624.992h-1.28c.106-.757.458-1.36 1.056-1.808.608-.448 1.365-.672 2.272-.672.981 0 1.76.267 2.336.8.576.523.864 1.232.864 2.128v6.032h-1.248v-1.712h-.208l.24-.256c0 .651-.251 1.168-.752 1.552-.502.384-1.168.576-2 .576zm.304-1.024c.704 0 1.28-.176 1.728-.528s.672-.811.672-1.376v-1.328h-2.784c-.502 0-.902.139-1.2.416-.299.277-.448.656-.448 1.136 0 .512.181.923.544 1.232.362.299.858.448 1.488.448zm9.994 1.024c-.683 0-1.28-.133-1.792-.4s-.912-.645-1.2-1.136c-.278-.501-.416-1.093-.416-1.776v-2.496c0-.683.138-1.269.416-1.76.288-.501.688-.885 1.2-1.152s1.109-.4 1.792-.4c1.002 0 1.808.272 2.416.816s.922 1.285.944 2.224h-1.264c-.022-.608-.219-1.077-.592-1.408-.363-.331-.864-.496-1.504-.496-.651 0-1.168.192-1.552.576-.384.373-.576.907-.576 1.6v2.496c0 .683.192 1.216.576 1.6s.901.576 1.552.576c.64 0 1.141-.165 1.504-.496.373-.341.57-.811.592-1.408h1.264c-.022.939-.336 1.68-.944 2.224s-1.414.816-2.416.816zm8.937-.16v-7.664h-3.2v-1.136h7.68v1.136h-3.2v7.664zm9.546.16c-.928 0-1.659-.235-2.192-.704-.533-.48-.8-1.125-.8-1.936 0-.8.261-1.429.784-1.888.523-.469 1.227-.704 2.112-.704h2.8v-.928c0-.587-.171-1.04-.512-1.36s-.827-.48-1.456-.48c-.555 0-1.019.123-1.392.368-.363.245-.571.576-.624.992h-1.28c.107-.757.459-1.36 1.056-1.808.608-.448 1.365-.672 2.272-.672.981 0 1.76.267 2.336.8.576.523.864 1.232.864 2.128v6.032h-1.248v-1.712h-.208l.24-.256c0 .651-.251 1.168-.752 1.552s-1.168.576-2 .576zm.304-1.024c.704 0 1.28-.176 1.728-.528s.672-.811.672-1.376v-1.328h-2.784c-.501 0-.901.139-1.2.416s-.448.656-.448 1.136c0 .512.181.923.544 1.232.363.299.859.448 1.488.448zm6.746.864v-8.8h3.776c.874 0 1.562.208 2.064.624.501.405.752.971.752 1.696 0 .608-.208 1.099-.624 1.472-.406.363-.95.544-1.632.544v-.112c.736 0 1.328.192 1.776.576.448.373.672.875.672 1.504 0 .779-.267 1.392-.8 1.84-.523.437-1.248.656-2.176.656zm1.248-1.12h2.56c.522 0 .938-.123 1.248-.368.309-.256.464-.597.464-1.024 0-.448-.155-.795-.464-1.04-.31-.256-.726-.384-1.248-.384h-2.56zm0-3.92h2.528c.469 0 .842-.117 1.12-.352.288-.235.432-.555.432-.96s-.144-.725-.432-.96c-.278-.245-.651-.368-1.12-.368h-2.528zm8.346 5.04v-8.8h1.28v3.744h3.904v-3.744h1.28v8.8h-1.28v-3.904h-3.904v3.904zm9.593 0v-8.8h1.232v5.008c0 .299-.01.619-.032.96-.01.331-.026.645-.048.944-.021.299-.042.549-.064.752l3.728-7.664h1.648v8.8h-1.232v-5.008c0-.309.006-.629.016-.96.022-.331.043-.645.064-.944.032-.309.054-.565.064-.768l-3.744 7.68zm9.642 0v-8.8h1.28v3.696h1.664l2.608-3.696h1.456l-2.96 4.192 3.024 4.608h-1.488l-2.64-4h-1.664v4zm12.09.16c-.928 0-1.659-.235-2.192-.704-.534-.48-.8-1.125-.8-1.936 0-.8.261-1.429.784-1.888.522-.469 1.226-.704 2.112-.704h2.8v-.928c0-.587-.171-1.04-.512-1.36-.342-.32-.827-.48-1.456-.48-.555 0-1.019.123-1.392.368-.363.245-.571.576-.624.992h-1.28c.106-.757.458-1.36 1.056-1.808.608-.448 1.365-.672 2.272-.672.981 0 1.76.267 2.336.8.576.523.864 1.232.864 2.128v6.032h-1.248v-1.712h-.208l.24-.256c0 .651-.251 1.168-.752 1.552-.502.384-1.168.576-2 .576zm.304-1.024c.704 0 1.28-.176 1.728-.528s.672-.811.672-1.376v-1.328h-2.784c-.502 0-.902.139-1.2.416-.299.277-.448.656-.448 1.136 0 .512.181.923.544 1.232.362.299.858.448 1.488.448zm9.978 1.024c-.395 0-.71-.112-.944-.336-.224-.235-.336-.544-.336-.928 0-.405.112-.725.336-.96.234-.235.549-.352.944-.352.394 0 .704.117.928.352.234.235.352.555.352.96 0 .384-.118.693-.352.928-.224.224-.534.336-.928.336z"/></g></g></svg>