<svg fill="none" height="90" viewBox="0 0 728 90" width="728" xmlns="http://www.w3.org/2000/svg" xmlns:xlink="http://www.w3.org/1999/xlink"><filter id="a" color-interpolation-filters="sRGB" filterUnits="userSpaceOnUse" height="258" width="258" x="381" y="-49"><feFlood flood-opacity="0" result="BackgroundImageFix"/><feBlend in="SourceGraphic" in2="BackgroundImageFix" mode="normal" result="shape"/><feGaussianBlur result="effect1_foregroundBlur_59_665" stdDeviation="50"/></filter><filter id="b" color-interpolation-filters="sRGB" filterUnits="userSpaceOnUse" height="270" width="270" x="-90" y="-131"><feFlood flood-opacity="0" result="BackgroundImageFix"/><feBlend in="SourceGraphic" in2="BackgroundImageFix" mode="normal" result="shape"/><feGaussianBlur result="effect1_foregroundBlur_59_665" stdDeviation="50"/></filter><clipPath id="c"><path d="m0 0h728v90h-728z"/></clipPath><g clip-path="url(#c)"><path d="m0 0h728v90h-728z" fill="#232735"/><g filter="url(#a)"><circle cx="510" cy="80" fill="#738ada" r="29"/></g><g filter="url(#b)"><circle cx="45" cy="4" fill="#738ada" r="35"/></g><path d="m40 40h40v6.66664h-40z" fill="#738ada"/><g fill="#fff"><path d="m40 29.6689 7.425-.0118c.0475.4717.2534.8136.6178 1.0259.3722.2043.9702.3065 1.7938.3065.6891 0 1.2078-.0747 1.5563-.224.3564-.1572.5346-.3891.5346-.6957 0-.5345-.9227-.8843-2.768-1.0494-.3643-.0393-.6415-.0668-.8316-.0826-.0159 0-.0317 0-.0475 0-2.978-.2908-4.9896-.6681-6.0351-1.1319-.6098-.2673-1.0811-.6879-1.4137-1.2617-.3247-.5739-.4871-1.2499-.4871-2.0281 0-1.5643.7207-2.7081 2.1622-3.4313 1.4414-.7232 3.7382-1.0848 6.8904-1.0848 2.9779 0 5.1916.3695 6.6409 1.1084 1.4573.7389 2.2335 1.8827 2.3285 3.4313h-6.9973c-.0396-.456-.2535-.7861-.6416-.9905-.3801-.2044-.9939-.3066-1.8414-.3066-.7207 0-1.2513.0786-1.5919.2358-.3326.1494-.4989.3852-.4989.7075 0 .5188.792.8411 2.376.9669.3326.0315.586.055.7603.0708.1267.0078.3247.0235.594.0471 3.1918.283 5.053.5149 5.5836.6957 1.0454.3695 1.782.8254 2.2097 1.3678.4277.5346.6415 1.2695.6415 2.205 0 1.7294-.7682 2.9793-2.3047 3.7496-1.5286.7704-4.0392 1.1556-7.532 1.1556-3.1046 0-5.3856-.3813-6.8428-1.1438-1.4494-.7703-2.2097-1.9809-2.281-3.6317z"/><path d="m80 28.0417c-.2218 2.1303-1.1484 3.73-2.7799 4.7991-1.6236 1.069-3.9402 1.6036-6.9498 1.6036-3.1126 0-5.5203-.6289-7.2231-1.8866-1.6949-1.2578-2.5423-3.0343-2.5423-5.3297 0-2.2875.8474-4.0641 2.5423-5.3297 1.7028-1.2656 4.1105-1.8984 7.2231-1.8984 2.8908 0 5.144.4913 6.7597 1.4739s2.5661 2.4408 2.8512 4.3746h-6.5221c-.2456-.621-.6138-1.0848-1.1049-1.3914-.491-.3144-1.1048-.4716-1.8414-.4716-1.085 0-1.9364.2869-2.5542.8607-.6177.566-.9266 1.3521-.9266 2.3583 0 .9748.3009 1.7491.9029 2.3229.6019.5738 1.4137.8608 2.4354.8608.8474 0 1.5602-.2083 2.1384-.625.586-.4245.9504-.9983 1.0929-1.7215z"/><path d="m45.9596 62.889c0 .8909.2794 1.6074.8381 2.1496.5587.5345 1.2959.8018 2.2116.8018.9312 0 1.6722-.2673 2.2232-.8018.5587-.5422.8381-1.2587.8381-2.1496 0-.8985-.2794-1.6151-.8381-2.1496-.551-.5344-1.292-.8017-2.2232-.8017-.9157 0-1.6529.2673-2.2116.8017-.5587.5345-.8381 1.2511-.8381 2.1496zm-5.9596 6.658v-17.3246h5.9596v5.0893c.7217-.4803 1.4861-.8366 2.2931-1.069.8148-.2401 1.7033-.3602 2.6655-.3602 2.2659 0 4.0662.6314 5.4009 1.894 1.3425 1.2626 2.0137 2.9668 2.0137 5.1125 0 2.1148-.6634 3.8112-1.9904 5.0893-1.3269 1.2704-3.104 1.9056-5.3311 1.9056-1.0476 0-2.0098-.1355-2.8867-.4066-.8768-.2789-1.6761-.6933-2.3978-1.2433l-.0465 1.313z"/><path d="m78.8889 63.6908c-.2173 2.0992-1.1252 3.6756-2.7237 4.7291-1.5908 1.0535-3.8606 1.5802-6.8094 1.5802-3.0496 0-5.4087-.6197-7.077-1.8591-1.6607-1.2394-2.491-2.99-2.491-5.252 0-2.2541.8303-4.0048 2.491-5.2519 1.6683-1.2472 4.0274-1.8708 7.077-1.8708 2.8324 0 5.0401.4842 6.6231 1.4525 1.583.9682 2.5142 2.4052 2.7936 4.3108h-6.3903c-.2406-.612-.6014-1.069-1.0825-1.3711-.4811-.3099-1.0825-.4648-1.8042-.4648-1.0631 0-1.8973.2827-2.5026.8482-.6053.5577-.9079 1.3324-.9079 2.3239 0 .9605.2949 1.7235.8846 2.289.5898.5655 1.3852.8482 2.3862.8482.8303 0 1.5287-.2052 2.0952-.6158.5742-.4183.9312-.9838 1.0709-1.6964z"/><path d="m121.65 39v-18.25h11.7v18.25h-3.75v-14.75h-4.2v14.75zm17.265 4.5 1.875-5.175-5.15-13.075h4.075l2.075 6c.15.45.3 1 .45 1.65.167.6333.292 1.15.375 1.55.084-.4.2-.9167.35-1.55.167-.65.325-1.2.475-1.65l2-6h3.9l-6.5 18.25zm16.69-4.5v-10.25h-4.5v-3.5h12.75v3.5h-4.5v10.25zm15.091.25c-1.384 0-2.484-.375-3.3-1.125-.8-.75-1.2-1.7667-1.2-3.05 0-1.3833.475-2.4417 1.425-3.175.966-.75 2.35-1.125 4.15-1.125h2.85v-1.025c0-.5333-.192-.9583-.575-1.275-.367-.3167-.867-.475-1.5-.475-.584 0-1.067.1333-1.45.4-.384.2667-.617.6333-.7 1.1h-3.625c.15-1.3833.75-2.475 1.8-3.275 1.066-.8167 2.433-1.225 4.1-1.225 1.75 0 3.133.4333 4.15 1.3 1.033.85 1.55 2 1.55 3.45v9.25h-3.625v-2.25h-.6l.625-.875c0 1.0333-.375 1.8583-1.125 2.475-.734.6-1.717.9-2.95.9zm1.4-2.75c.733 0 1.333-.1917 1.8-.575.483-.4.725-.9167.725-1.55v-1.475h-2.775c-.567 0-1.025.1667-1.375.5-.35.3167-.525.7417-.525 1.275 0 .5667.191 1.0167.575 1.35.383.3167.908.475 1.575.475zm15.39 2.75c-1.217 0-2.283-.225-3.2-.675-.9-.4667-1.6-1.1083-2.1-1.925-.483-.8333-.725-1.8-.725-2.9v-3.25c0-1.1.242-2.0583.725-2.875.5-.8333 1.2-1.475 2.1-1.925.917-.4667 1.983-.7 3.2-.7s2.267.2333 3.15.7c.9.45 1.592 1.0917 2.075 1.925.5.8167.75 1.775.75 2.875v2.5h-8.425v.75c0 .8667.208 1.525.625 1.975.417.4333 1.042.65 1.875.65.583 0 1.05-.1 1.4-.3.367-.2.608-.475.725-.825h3.675c-.3 1.2-.983 2.1667-2.05 2.9-1.05.7333-2.317 1.1-3.8 1.1zm2.4-8.175v-.625c0-.85-.2-1.5-.6-1.95-.383-.45-.983-.675-1.8-.675s-1.433.2333-1.85.7c-.4.4667-.6 1.125-.6 1.975v.375l5.1-.05zm6.065 7.925v-13.75h3.075v11.25h2.125v-11.25h2.6v11.25h2.125v-11.25h3.075v13.75zm15.74 0v-13.75h3.75v4.125h3.225c1.734 0 3.084.4333 4.05 1.3.984.85 1.475 2.0333 1.475 3.55 0 1.4667-.5 2.6333-1.5 3.5-.983.85-2.316 1.275-4 1.275zm3.75-3.25h3c.634 0 1.117-.1333 1.45-.4.35-.2833.525-.6667.525-1.15 0-.5-.175-.8833-.525-1.15-.333-.2833-.816-.425-1.45-.425h-3zm17.066 3.5c-1.217 0-2.284-.225-3.2-.675-.917-.4667-1.625-1.1083-2.125-1.925-.5-.8333-.75-1.8-.75-2.9v-3.25c0-1.1167.25-2.0833.75-2.9s1.208-1.45 2.125-1.9c.916-.4667 1.983-.7 3.2-.7 1.816 0 3.266.4583 4.35 1.375 1.083.9167 1.658 2.1667 1.725 3.75h-3.75c-.05-.5833-.284-1.0417-.7-1.375-.4-.3333-.942-.5-1.625-.5-.75 0-1.325.1917-1.725.575s-.6.9417-.6 1.675v3.25c0 .7167.2 1.275.6 1.675.4.3833.975.575 1.725.575.683 0 1.225-.1583 1.625-.475.416-.3333.65-.8.7-1.4h3.75c-.067 1.5833-.642 2.8333-1.725 3.75-1.084.9167-2.534 1.375-4.35 1.375zm8.665-.25 3-4.825c-.883-.3333-1.575-.8583-2.075-1.575s-.75-1.5583-.75-2.525c0-1.5167.508-2.7 1.525-3.55s2.425-1.275 4.225-1.275h6.175v13.75h-3.725v-4.35h-1.65l-2.5 4.35zm6.15-7.2h2.25v-3.575h-2.25c-.7 0-1.25.1583-1.65.475s-.6.7583-.6 1.325.192 1.0083.575 1.325c.4.3.958.45 1.675.45zm24.205 7.2v-13.75h6.225c1.684 0 3.017.3417 4 1.025 1 .6667 1.5 1.575 1.5 2.725 0 .9167-.375 1.6583-1.125 2.225-.75.55-1.741.825-2.975.825v-.25c1.35 0 2.425.3 3.225.9.817.6 1.225 1.3917 1.225 2.375 0 1.2167-.5 2.175-1.5 2.875-.983.7-2.325 1.05-4.025 1.05zm3.675-2.65h2.7c.617 0 1.109-.1417 1.475-.425.384-.3.575-.6833.575-1.15 0-.5-.191-.9-.575-1.2-.366-.3-.858-.45-1.475-.45h-2.7zm0-5.425h2.575c.567 0 1.017-.1333 1.35-.4.334-.2833.5-.65.5-1.1 0-.4667-.166-.8417-.5-1.125-.333-.2833-.783-.425-1.35-.425h-2.575zm32.256 8.325c-1.217 0-2.284-.225-3.2-.675-.917-.4667-1.625-1.1083-2.125-1.925-.5-.8333-.75-1.8-.75-2.9v-3.25c0-1.1167.25-2.0833.75-2.9s1.208-1.45 2.125-1.9c.916-.4667 1.983-.7 3.2-.7 1.816 0 3.266.4583 4.35 1.375 1.083.9167 1.658 2.1667 1.725 3.75h-3.75c-.05-.5833-.284-1.0417-.7-1.375-.4-.3333-.942-.5-1.625-.5-.75 0-1.325.1917-1.725.575s-.6.9417-.6 1.675v3.25c0 .7167.2 1.275.6 1.675.4.3833.975.575 1.725.575.683 0 1.225-.1583 1.625-.475.416-.3333.65-.8.7-1.4h3.75c-.067 1.5833-.642 2.8333-1.725 3.75-1.084.9167-2.534 1.375-4.35 1.375zm9.065-.25v-13.75h3.3v6.25c0 .4167-.025.9417-.075 1.575-.05.6167-.117 1.2417-.2 1.875-.067.6333-.142 1.1917-.225 1.675l4.35-11.375h4.55v13.75h-3.3v-6.25c0-.4333.025-.925.075-1.475.05-.5667.108-1.1333.175-1.7s.133-1.05.2-1.45l-4.3 10.875zm14.99 0v-13.75h3.75v5.025h4.2v-5.025h3.75v13.75h-3.75v-5.225h-4.2v5.225zm18.966 0v-10.25h-4.5v-3.5h12.75v3.5h-4.5v10.25zm15.09.25c-1.384 0-2.484-.375-3.3-1.125-.8-.75-1.2-1.7667-1.2-3.05 0-1.3833.475-2.4417 1.425-3.175.966-.75 2.35-1.125 4.15-1.125h2.85v-1.025c0-.5333-.192-.9583-.575-1.275-.367-.3167-.867-.475-1.5-.475-.584 0-1.067.1333-1.45.4-.384.2667-.617.6333-.7 1.1h-3.625c.15-1.3833.75-2.475 1.8-3.275 1.066-.8167 2.433-1.225 4.1-1.225 1.75 0 3.133.4333 4.15 1.3 1.033.85 1.55 2 1.55 3.45v9.25h-3.625v-2.25h-.6l.625-.875c0 1.0333-.375 1.8583-1.125 2.475-.734.6-1.717.9-2.95.9zm1.4-2.75c.733 0 1.333-.1917 1.8-.575.483-.4.725-.9167.725-1.55v-1.475h-2.775c-.567 0-1.025.1667-1.375.5-.35.3167-.525.7417-.525 1.275 0 .5667.191 1.0167.575 1.35.383.3167.908.475 1.575.475zm9.59 2.5v-13.75h3.75v5.2h1.85l2.875-5.2h4.175l-3.825 6.725 3.9 7.025h-4.25l-2.9-5.4h-1.825v5.4zm20.84.25c-1.216 0-2.283-.225-3.2-.675-.916-.4667-1.625-1.1083-2.125-1.925-.5-.8333-.75-1.8-.75-2.9v-3.25c0-1.1167.25-2.0833.75-2.9s1.209-1.45 2.125-1.9c.917-.4667 1.984-.7 3.2-.7 1.817 0 3.267.4583 4.35 1.375 1.084.9167 1.659 2.1667 1.725 3.75h-3.75c-.05-.5833-.283-1.0417-.7-1.375-.4-.3333-.941-.5-1.625-.5-.75 0-1.325.1917-1.725.575s-.6.9417-.6 1.675v3.25c0 .7167.2 1.275.6 1.675.4.3833.975.575 1.725.575.684 0 1.225-.1583 1.625-.475.417-.3333.65-.8.7-1.4h3.75c-.066 1.5833-.641 2.8333-1.725 3.75-1.083.9167-2.533 1.375-4.35 1.375zm9.065-.25v-13.75h3.3v6.25c0 .4167-.025.9417-.075 1.575-.05.6167-.116 1.2417-.2 1.875-.066.6333-.141 1.1917-.225 1.675l4.35-11.375h4.55v13.75h-3.3v-6.25c0-.4333.025-.925.075-1.475.05-.5667.109-1.1333.175-1.7.067-.5667.134-1.05.2-1.45l-4.3 10.875zm20.916.25c-1.217 0-2.284-.225-3.2-.675-.917-.4667-1.625-1.1083-2.125-1.925-.5-.8333-.75-1.8-.75-2.9v-3.25c0-1.1167.25-2.0833.75-2.9s1.208-1.45 2.125-1.9c.916-.4667 1.983-.7 3.2-.7 1.816 0 3.266.4583 4.35 1.375 1.083.9167 1.658 2.1667 1.725 3.75h-3.75c-.05-.5833-.284-1.0417-.7-1.375-.4-.3333-.942-.5-1.625-.5-.75 0-1.325.1917-1.725.575s-.6.9417-.6 1.675v3.25c0 .7167.2 1.275.6 1.675.4.3833.975.575 1.725.575.683 0 1.225-.1583 1.625-.475.416-.3333.65-.8.7-1.4h3.75c-.067 1.5833-.642 2.8333-1.725 3.75-1.084.9167-2.534 1.375-4.35 1.375zm14.94 0c-1.217 0-2.283-.225-3.2-.675-.9-.4667-1.6-1.1083-2.1-1.925-.483-.8333-.725-1.8-.725-2.9v-3.25c0-1.1.242-2.0583.725-2.875.5-.8333 1.2-1.475 2.1-1.925.917-.4667 1.983-.7 3.2-.7s2.267.2333 3.15.7c.9.45 1.592 1.0917 2.075 1.925.5.8167.75 1.775.75 2.875v2.5h-8.425v.75c0 .8667.208 1.525.625 1.975.417.4333 1.042.65 1.875.65.583 0 1.05-.1 1.4-.3.367-.2.608-.475.725-.825h3.675c-.3 1.2-.983 2.1667-2.05 2.9-1.05.7333-2.317 1.1-3.8 1.1zm2.4-8.175v-.625c0-.85-.2-1.5-.6-1.95-.383-.45-.983-.675-1.8-.675s-1.433.2333-1.85.7c-.4.4667-.6 1.125-.6 1.975v.375l5.1-.05zm26.805 8.2c-1.916 0-3.441-.5167-4.575-1.55-1.116-1.05-1.675-2.4583-1.675-4.225h3.75c0 .7667.225 1.3833.675 1.85.45.45 1.059.675 1.825.675.767 0 1.375-.2167 1.825-.65.45-.45.675-1.0583.675-1.825v-9.3h-4.125v-3.5h7.875v12.8c0 1.7667-.558 3.1667-1.675 4.2-1.116 1.0167-2.641 1.525-4.575 1.525zm13.966-.025c-1.384 0-2.484-.375-3.3-1.125-.8-.75-1.2-1.7667-1.2-3.05 0-1.3833.475-2.4417 1.425-3.175.966-.75 2.35-1.125 4.15-1.125h2.85v-1.025c0-.5333-.192-.9583-.575-1.275-.367-.3167-.867-.475-1.5-.475-.584 0-1.067.1333-1.45.4-.384.2667-.617.6333-.7 1.1h-3.625c.15-1.3833.75-2.475 1.8-3.275 1.066-.8167 2.433-1.225 4.1-1.225 1.75 0 3.133.4333 4.15 1.3 1.033.85 1.55 2 1.55 3.45v9.25h-3.625v-2.25h-.6l.625-.875c0 1.0333-.375 1.8583-1.125 2.475-.734.6-1.717.9-2.95.9zm1.4-2.75c.733 0 1.333-.1917 1.8-.575.483-.4.725-.9167.725-1.55v-1.475h-2.775c-.567 0-1.025.1667-1.375.5-.35.3167-.525.7417-.525 1.275 0 .5667.191 1.0167.575 1.35.383.3167.908.475 1.575.475zm13.04 2.5-4.5-13.75h3.875l2.3 7.725c.133.4667.267.975.4 1.525s.233.9917.3 1.325c.083-.3333.183-.775.3-1.325.133-.55.258-1.05.375-1.5l2.275-7.75h3.825l-4.45 13.75zm15.54.25c-1.383 0-2.483-.375-3.3-1.125-.8-.75-1.2-1.7667-1.2-3.05 0-1.3833.475-2.4417 1.425-3.175.967-.75 2.35-1.125 4.15-1.125h2.85v-1.025c0-.5333-.192-.9583-.575-1.275-.367-.3167-.867-.475-1.5-.475-.583 0-1.067.1333-1.45.4s-.617.6333-.7 1.1h-3.625c.15-1.3833.75-2.475 1.8-3.275 1.067-.8167 2.433-1.225 4.1-1.225 1.75 0 3.133.4333 4.15 1.3 1.033.85 1.55 2 1.55 3.45v9.25h-3.625v-2.25h-.6l.625-.875c0 1.0333-.375 1.8583-1.125 2.475-.733.6-1.717.9-2.95.9zm1.4-2.75c.733 0 1.333-.1917 1.8-.575.483-.4.725-.9167.725-1.55v-1.475h-2.775c-.567 0-1.025.1667-1.375.5-.35.3167-.525.7417-.525 1.275 0 .5667.192 1.0167.575 1.35.383.3167.908.475 1.575.475zm14.79 2.75c-1.133 0-2.125-.175-2.975-.525-.85-.3667-1.516-.8667-2-1.5-.466-.6333-.7-1.375-.7-2.225h3.75c0 .4.175.725.525.975.367.2333.834.35 1.4.35h1.1c.684 0 1.2-.125 1.55-.375.367-.25.55-.6.55-1.05 0-.4167-.158-.7333-.475-.95-.316-.2333-.808-.3917-1.475-.475l-1.6-.2c-1.716-.2167-2.966-.6333-3.75-1.25-.783-.6167-1.175-1.5583-1.175-2.825 0-1.3333.459-2.3667 1.375-3.1.917-.7333 2.259-1.1 4.025-1.1h.95c1.684 0 3.025.3667 4.025 1.1s1.5 1.7167 1.5 2.95h-3.75c0-.3333-.166-.6-.5-.8-.316-.2167-.741-.325-1.275-.325h-.95c-.616 0-1.066.1083-1.35.325-.283.2-.425.5083-.425.925 0 .3833.125.675.375.875.267.2.684.3417 1.25.425l1.725.225c1.734.2167 3.017.65 3.85 1.3.85.65 1.275 1.6167 1.275 2.9 0 1.4-.483 2.475-1.45 3.225-.966.75-2.391 1.125-4.275 1.125zm15.641 0c-1.217 0-2.284-.225-3.2-.675-.917-.4667-1.625-1.1083-2.125-1.925-.5-.8333-.75-1.8-.75-2.9v-3.25c0-1.1167.25-2.0833.75-2.9s1.208-1.45 2.125-1.9c.916-.4667 1.983-.7 3.2-.7 1.816 0 3.266.4583 4.35 1.375 1.083.9167 1.658 2.1667 1.725 3.75h-3.75c-.05-.5833-.284-1.0417-.7-1.375-.4-.3333-.942-.5-1.625-.5-.75 0-1.325.1917-1.725.575s-.6.9417-.6 1.675v3.25c0 .7167.2 1.275.6 1.675.4.3833.975.575 1.725.575.683 0 1.225-.1583 1.625-.475.416-.3333.65-.8.7-1.4h3.75c-.067 1.5833-.642 2.8333-1.725 3.75-1.084.9167-2.534 1.375-4.35 1.375zm9.465-.25v-13.75h3.5v2.625h.95l-1.075 1.6c0-1.4833.341-2.6 1.025-3.35.683-.75 1.683-1.125 3-1.125 1.516 0 2.691.4583 3.525 1.375.85.9167 1.275 2.2083 1.275 3.875v1.125h-4v-.875c0-.75-.209-1.3333-.625-1.75-.4-.4167-.942-.625-1.625-.625-.717 0-1.267.2083-1.65.625-.367.4167-.55 1-.55 1.75v8.5zm14.69 0v-3.4h4.75v-6.975h-4.125v-3.375h7.625v10.35h4v3.4zm6.25-15.925c-.683 0-1.233-.175-1.65-.525-.4-.35-.6-.825-.6-1.425s.2-1.075.6-1.425c.417-.35.967-.525 1.65-.525s1.225.175 1.625.525c.417.35.625.825.625 1.425s-.208 1.075-.625 1.425c-.4.35-.942.525-1.625.525zm8.64 20.425v-18.25h3.625v2.625h.875l-.875.875c0-1.1833.325-2.1.975-2.75.65-.6667 1.542-1 2.675-1 1.384 0 2.492.4917 3.325 1.475.834.9667 1.25 2.2667 1.25 3.9v3.5c0 1.0833-.191 2.0333-.575 2.85-.366.8-.891 1.425-1.575 1.875-.683.4333-1.491.65-2.425.65-1.133 0-2.025-.325-2.675-.975-.65-.6667-.975-1.5917-.975-2.775l.875.875h-.875l.125 3.375v3.75zm5.925-7.5c.7 0 1.234-.1917 1.6-.575.384-.4.575-.9583.575-1.675v-3.25c0-.7333-.191-1.2917-.575-1.675-.366-.3833-.9-.575-1.6-.575-.683 0-1.216.2-1.6.6-.383.3833-.575.9333-.575 1.65v3.25c0 .7167.192 1.275.575 1.675.384.3833.917.575 1.6.575zm16.416 3c-1.4 0-2.5-.4-3.3-1.2s-1.2-1.9-1.2-3.3v-5.875h-3.625v-3.375h3.625v-3.875h3.75v3.875h5.125v3.375h-5.125v5.875c0 .75.375 1.125 1.125 1.125h3.75v3.375zm10.515-5.625-.125-5.375h2.5c.683 0 1.225-.1667 1.625-.5.4-.35.6-.8083.6-1.375 0-.5833-.209-1.0417-.625-1.375-.4-.3333-.942-.5-1.625-.5h-4.125v-3.5h3.875c1.283 0 2.391.225 3.325.675.933.4333 1.65 1.05 2.15 1.85.516.8.775 1.75.775 2.85 0 1.05-.217 1.9667-.65 2.75-.434.7833-1.042 1.4-1.825 1.85-.784.4333-1.7.65-2.75.65v2zm1.2 5.75c-.567 0-1.025-.1583-1.375-.475-.334-.3333-.5-.7583-.5-1.275 0-.5333.166-.9583.5-1.275.35-.3167.808-.475 1.375-.475h.75c.566 0 1.016.1583 1.35.475.35.3167.525.7417.525 1.275s-.175.9583-.525 1.275c-.334.3167-.792.475-1.375.475z"/><path d="m121.568 67v-11.68h6.464v11.68h-1.28v-10.528h-3.904v10.528zm12.826.144c-.683 0-1.275-.1333-1.776-.4-.502-.2667-.891-.6507-1.168-1.152-.278-.5013-.416-1.0933-.416-1.776v-2.432c0-.6933.138-1.2853.416-1.776.277-.5013.666-.8853 1.168-1.152.501-.2667 1.093-.4 1.776-.4.682 0 1.274.1333 1.776.4.501.2667.89.6507 1.168 1.152.277.4907.416 1.0773.416 1.76v2.448c0 .6827-.139 1.2747-.416 1.776-.278.5013-.667.8853-1.168 1.152-.502.2667-1.094.4-1.776.4zm0-1.136c.661 0 1.173-.1867 1.536-.56.362-.3733.544-.9173.544-1.632v-2.432c0-.7147-.187-1.2587-.56-1.632-.363-.3733-.87-.56-1.52-.56-.651 0-1.163.1867-1.536.56-.363.3733-.544.9173-.544 1.632v2.432c0 .7147.181 1.2587.544 1.632.373.3733.885.56 1.536.56zm6.074.992v-8.8h1.76l1.28 3.584c.106.3093.208.624.304.944s.165.5707.208.752c.053-.1813.122-.432.208-.752.096-.32.197-.64.304-.96l1.232-3.568h1.744v8.8h-1.232v-2.112c0-.4587.005-.9493.016-1.472.01-.5227.021-1.0453.032-1.568.01-.5227.026-1.0133.048-1.472.021-.4693.037-.88.048-1.232l-1.744 5.216h-1.344l-1.744-5.184c.021.4267.037.9653.048 1.616.01.64.021 1.3173.032 2.032.021.7147.032 1.4027.032 2.064v2.112zm13.113.144c-.682 0-1.274-.1333-1.776-.4-.501-.2667-.89-.6507-1.168-1.152-.277-.5013-.416-1.0933-.416-1.776v-2.432c0-.6933.139-1.2853.416-1.776.278-.5013.667-.8853 1.168-1.152.502-.2667 1.094-.4 1.776-.4.683 0 1.275.1333 1.776.4.502.2667.891.6507 1.168 1.152.278.4907.416 1.0773.416 1.76v2.448c0 .6827-.138 1.2747-.416 1.776-.277.5013-.666.8853-1.168 1.152-.501.2667-1.093.4-1.776.4zm0-1.136c.662 0 1.174-.1867 1.536-.56.363-.3733.544-.9173.544-1.632v-2.432c0-.7147-.186-1.2587-.56-1.632-.362-.3733-.869-.56-1.52-.56-.65 0-1.162.1867-1.536.56-.362.3733-.544.9173-.544 1.632v2.432c0 .7147.182 1.2587.544 1.632.374.3733.886.56 1.536.56zm5.162.992 1.92-4.512-1.792-4.288h1.232l1.584 3.888h.944v-3.888h1.088v3.888h.912l1.632-3.888h1.216l-1.792 4.24 1.92 4.56h-1.28l-1.648-4.048h-.96v4.048h-1.088v-4.048h-.96l-1.68 4.048zm14.026.16c-.683 0-1.275-.1333-1.776-.4-.502-.2773-.891-.6667-1.168-1.168-.278-.5013-.416-1.0827-.416-1.744v-2.496c0-.672.138-1.2533.416-1.744.277-.5013.666-.8853 1.168-1.152.501-.2773 1.093-.416 1.776-.416.682 0 1.274.1387 1.776.416.501.2667.89.6507 1.168 1.152.277.4907.416 1.072.416 1.744v1.552h-5.472v.944c0 .7147.181 1.2693.544 1.664.373.384.896.576 1.568.576.565 0 1.024-.112 1.376-.336.362-.224.592-.5493.688-.976h1.264c-.118.736-.475 1.3173-1.072 1.744-.598.4267-1.35.64-2.256.64zm2.112-5.104v-.704c0-.7147-.182-1.264-.544-1.648-.363-.3947-.886-.592-1.568-.592-.672 0-1.195.1973-1.568.592-.363.384-.544.9333-.544 1.648v.56h4.352zm3.962 4.944v-8.8h1.76l1.28 3.584c.106.3093.208.624.304.944s.165.5707.208.752c.053-.1813.122-.432.208-.752.096-.32.197-.64.304-.96l1.232-3.568h1.744v8.8h-1.232v-2.112c0-.4587.005-.9493.016-1.472.01-.5227.021-1.0453.032-1.568.01-.5227.026-1.0133.048-1.472.021-.4693.037-.88.048-1.232l-1.744 5.216h-1.344l-1.744-5.184c.021.4267.037.9653.048 1.616.01.64.021 1.3173.032 2.032.021.7147.032 1.4027.032 2.064v2.112zm19.459 2.88v-11.68h1.264v1.552h.336l-.384.528c0-.6933.224-1.2373.672-1.632.459-.4053 1.061-.608 1.808-.608.885 0 1.589.2933 2.112.88.533.576.8 1.3653.8 2.368v2.608c0 .672-.123 1.2533-.368 1.744-.245.48-.587.8533-1.024 1.12-.427.2667-.933.4-1.52.4-.736 0-1.333-.2027-1.792-.608s-.688-.9493-.688-1.632l.336.528h-.304l.016 1.792v2.64zm3.296-3.824c.64 0 1.136-.192 1.488-.576.363-.384.544-.928.544-1.632v-2.496c0-.7147-.181-1.2587-.544-1.632-.352-.384-.848-.576-1.488-.576-.619 0-1.115.1973-1.488.592-.363.384-.544.9227-.544 1.616v2.496c0 .6933.181 1.2373.544 1.632.373.384.869.576 1.488.576zm8.858 1.104c-.928 0-1.659-.2347-2.192-.704-.534-.48-.8-1.1253-.8-1.936 0-.8.261-1.4293.784-1.888.522-.4693 1.226-.704 2.112-.704h2.8v-.928c0-.5867-.171-1.04-.512-1.36-.342-.32-.827-.48-1.456-.48-.555 0-1.019.1227-1.392.368-.363.2453-.571.576-.624.992h-1.28c.106-.7573.458-1.36 1.056-1.808.608-.448 1.365-.672 2.272-.672.981 0 1.76.2667 2.336.8.576.5227.864 1.232.864 2.128v6.032h-1.248v-1.712h-.208l.24-.256c0 .6507-.251 1.168-.752 1.552-.502.384-1.168.576-2 .576zm.304-1.024c.704 0 1.28-.176 1.728-.528s.672-.8107.672-1.376v-1.328h-2.784c-.502 0-.902.1387-1.2.416-.299.2773-.448.656-.448 1.136 0 .512.181.9227.544 1.232.362.2987.858.448 1.488.448zm9.562.992c-.918 0-1.659-.1973-2.224-.592-.566-.3947-.907-.928-1.024-1.6h1.328c.085.3093.293.5653.624.768.341.192.773.288 1.296.288h.784c.544 0 .97-.1333 1.28-.4.32-.2773.48-.624.48-1.04 0-.448-.15-.8107-.448-1.088-.299-.2773-.726-.416-1.28-.416h-1.968v-1.104h1.936c.501 0 .885-.128 1.152-.384.277-.256.416-.5867.416-.992 0-.2773-.064-.5173-.192-.72s-.315-.3573-.56-.464c-.246-.1173-.528-.176-.848-.176h-.832c-.48 0-.875.1067-1.184.32-.31.2027-.502.464-.576.784h-1.328c.106-.6613.432-1.2.976-1.616.554-.416 1.258-.624 2.112-.624h.832c.597 0 1.114.1013 1.552.304.437.2027.773.4853 1.008.848.245.3627.368.7893.368 1.28 0 .5333-.166.976-.496 1.328-.32.3413-.774.5333-1.36.576v.064c.704.0427 1.221.2507 1.552.624.33.3627.496.864.496 1.504 0 .7573-.283 1.3707-.848 1.84-.555.4587-1.302.688-2.24.688zm10.009.016c-.682 0-1.274-.1333-1.776-.4-.501-.2667-.89-.6507-1.168-1.152-.277-.5013-.416-1.0933-.416-1.776v-2.432c0-.6933.139-1.2853.416-1.776.278-.5013.667-.8853 1.168-1.152.502-.2667 1.094-.4 1.776-.4.683 0 1.275.1333 1.776.4.502.2667.891.6507 1.168 1.152.278.4907.416 1.0773.416 1.76v2.448c0 .6827-.138 1.2747-.416 1.776-.277.5013-.666.8853-1.168 1.152-.501.2667-1.093.4-1.776.4zm0-1.136c.662 0 1.174-.1867 1.536-.56.363-.3733.544-.9173.544-1.632v-2.432c0-.7147-.186-1.2587-.56-1.632-.362-.3733-.869-.56-1.52-.56-.65 0-1.162.1867-1.536.56-.362.3733-.544.9173-.544 1.632v2.432c0 .7147.182 1.2587.544 1.632.374.3733.886.56 1.536.56zm9.594 1.152c-1.024 0-1.829-.304-2.416-.912s-.88-1.4453-.88-2.512v-4.096c0-1.3867.347-2.4533 1.04-3.2s1.685-1.12 2.976-1.12h2.176v1.264h-2.176c-.896 0-1.579.2667-2.048.8-.469.5227-.704 1.2747-.704 2.256v1.104h.224l-.224.384c.011-.64.224-1.1413.64-1.504.427-.3627 1.008-.544 1.744-.544.939 0 1.664.2987 2.176.896.512.5867.768 1.408.768 2.464v1.296c0 .7147-.133 1.328-.4 1.84-.256.512-.629.9067-1.12 1.184-.491.2667-1.083.4-1.776.4zm0-1.136c.651 0 1.152-.1973 1.504-.592s.528-.96.528-1.696v-1.296c0-.7253-.176-1.2907-.528-1.696s-.853-.608-1.504-.608-1.152.2027-1.504.608-.528.9707-.528 1.696v1.296c0 .736.176 1.3013.528 1.696.363.3947.864.592 1.504.592zm6.346 3.856v-11.68h1.264v1.552h.336l-.384.528c0-.6933.224-1.2373.672-1.632.458-.4053 1.061-.608 1.808-.608.885 0 1.589.2933 2.112.88.533.576.8 1.3653.8 2.368v2.608c0 .672-.123 1.2533-.368 1.744-.246.48-.587.8533-1.024 1.12-.427.2667-.934.4-1.52.4-.736 0-1.334-.2027-1.792-.608-.459-.4053-.688-.9493-.688-1.632l.336.528h-.304l.016 1.792v2.64zm3.296-3.824c.64 0 1.136-.192 1.488-.576.362-.384.544-.928.544-1.632v-2.496c0-.7147-.182-1.2587-.544-1.632-.352-.384-.848-.576-1.488-.576-.619 0-1.115.1973-1.488.592-.363.384-.544.9227-.544 1.616v2.496c0 .6933.181 1.2373.544 1.632.373.384.869.576 1.488.576zm8.857 1.104c-.927 0-1.658-.2347-2.191-.704-.534-.48-.8-1.1253-.8-1.936 0-.8.261-1.4293.784-1.888.522-.4693 1.226-.704 2.112-.704h2.8v-.928c0-.5867-.171-1.04-.512-1.36-.342-.32-.827-.48-1.456-.48-.555 0-1.019.1227-1.392.368-.363.2453-.571.576-.624.992h-1.28c.106-.7573.458-1.36 1.056-1.808.608-.448 1.365-.672 2.272-.672.981 0 1.76.2667 2.336.8.576.5227.863 1.232.863 2.128v6.032h-1.247v-1.712h-.208l.24-.256c0 .6507-.251 1.168-.752 1.552-.502.384-1.168.576-2.001.576zm.305-1.024c.704 0 1.28-.176 1.728-.528s.672-.8107.672-1.376v-1.328h-2.784c-.502 0-.902.1387-1.2.416-.299.2773-.448.656-.448 1.136 0 .512.181.9227.544 1.232.362.2987.858.448 1.488.448zm9.337.864v-7.664h-3.2v-1.136h7.68v1.136h-3.2v7.664zm7.082 0v-8.8h1.264v3.232h2.64c.981 0 1.755.2507 2.32.752.576.4907.864 1.168.864 2.032 0 .8533-.288 1.5307-.864 2.032-.565.5013-1.339.752-2.32.752zm1.264-1.152h2.64c.608 0 1.072-.1387 1.392-.416.32-.288.48-.6933.48-1.216s-.16-.9227-.48-1.2c-.32-.288-.784-.432-1.392-.432h-2.64zm11.498 1.312c-.683 0-1.28-.1333-1.792-.4s-.912-.6453-1.2-1.136c-.278-.5013-.416-1.0933-.416-1.776v-2.496c0-.6827.138-1.2693.416-1.76.288-.5013.688-.8853 1.2-1.152s1.109-.4 1.792-.4c1.002 0 1.808.272 2.416.816s.922 1.2853.944 2.224h-1.264c-.022-.608-.219-1.0773-.592-1.408-.363-.3307-.864-.496-1.504-.496-.651 0-1.168.192-1.552.576-.384.3733-.576.9067-.576 1.6v2.496c0 .6827.192 1.216.576 1.6s.901.576 1.552.576c.64 0 1.141-.1653 1.504-.496.373-.3413.57-.8107.592-1.408h1.264c-.022.9387-.336 1.68-.944 2.224s-1.414.816-2.416.816zm5.85-.16 2.24-3.408c-.683-.1493-1.211-.4533-1.584-.912-.374-.4587-.56-1.0347-.56-1.728 0-.8533.282-1.5253.848-2.016.576-.4907 1.354-.736 2.336-.736h3.68v8.8h-1.28v-3.296h-2.128l-2.08 3.296zm3.28-4.432h2.4v-3.232h-2.4c-.576 0-1.035.144-1.376.432-.342.288-.512.6827-.512 1.184s.17.896.512 1.184c.341.288.8.432 1.376.432zm16.403 4.432v-8.8h1.232v5.008c0 .2987-.011.6187-.032.96-.011.3307-.027.6453-.048.944s-.043.5493-.064.752l3.728-7.664h1.648v8.8h-1.232v-5.008c0-.3093.005-.6293.016-.96.021-.3307.043-.6453.064-.944.032-.3093.053-.5653.064-.768l-3.744 7.68zm19.188 0v-8.8h1.28v3.744h3.904v-3.744h1.28v8.8h-1.28v-3.904h-3.904v3.904zm12.137.16c-.928 0-1.658-.2347-2.192-.704-.533-.48-.8-1.1253-.8-1.936 0-.8.262-1.4293.784-1.888.523-.4693 1.227-.704 2.112-.704h2.8v-.928c0-.5867-.17-1.04-.512-1.36-.341-.32-.826-.48-1.456-.48-.554 0-1.018.1227-1.392.368-.362.2453-.57.576-.624.992h-1.28c.107-.7573.459-1.36 1.056-1.808.608-.448 1.366-.672 2.272-.672.982 0 1.76.2667 2.336.8.576.5227.864 1.232.864 2.128v6.032h-1.248v-1.712h-.208l.24-.256c0 .6507-.25 1.168-.752 1.552-.501.384-1.168.576-2 .576zm.304-1.024c.704 0 1.28-.176 1.728-.528s.672-.8107.672-1.376v-1.328h-2.784c-.501 0-.901.1387-1.2.416-.298.2773-.448.656-.448 1.136 0 .512.182.9227.544 1.232.363.2987.859.448 1.488.448zm8.122 3.744 1.296-3.44-3.264-8.24h1.408l2.08 5.488c.085.2133.165.4533.24.72.085.256.149.4693.192.64.053-.1707.117-.3893.192-.656s.149-.5067.224-.72l1.952-5.472h1.36l-4.336 11.68zm13.322-2.88v-3.248c-.171.0427-.438.0853-.8.128-.363.032-.768.048-1.216.048-1.056.0107-1.878-.2507-2.464-.784-.576-.5333-.864-1.2853-.864-2.256v-2.688h1.264v2.688c0 .5973.181 1.0613.544 1.392.373.3307.901.496 1.584.496.49 0 .906-.016 1.248-.048.341-.0427.576-.08.704-.112v-4.416h1.264v8.8zm4.49 0v-8.8h1.232v5.008c0 .2987-.011.6187-.032.96-.011.3307-.027.6453-.048.944-.022.2987-.043.5493-.064.752l3.728-7.664h1.648v8.8h-1.232v-5.008c0-.3093.005-.6293.016-.96.021-.3307.042-.6453.064-.944.032-.3093.053-.5653.064-.768l-3.744 7.68zm9.305 0v-8.8h1.76l1.28 3.584c.107.3093.208.624.304.944s.166.5707.208.752c.054-.1813.123-.432.208-.752.096-.32.198-.64.304-.96l1.232-3.568h1.744v8.8h-1.232v-2.112c0-.4587.006-.9493.016-1.472.011-.5227.022-1.0453.032-1.568.011-.5227.027-1.0133.048-1.472.022-.4693.038-.88.048-1.232l-1.744 5.216h-1.344l-1.744-5.184c.022.4267.038.9653.048 1.616.011.64.022 1.3173.032 2.032.022.7147.032 1.4027.032 2.064v2.112zm18.452 2.24v-3.328h.72c.181-.2027.368-.5653.56-1.088.202-.5333.309-1.1787.32-1.936l.096-4.688h5.6v7.712h1.136v3.328h-1.136v-2.24h-6.16v2.24zm2.08-3.328h3.952v-6.576h-3.136l-.064 3.568c-.011.8-.102 1.456-.272 1.968-.171.512-.331.8587-.48 1.04zm9.914 3.968 1.296-3.44-3.264-8.24h1.408l2.08 5.488c.085.2133.165.4533.239.72.086.256.15.4693.193.64.053-.1707.117-.3893.192-.656.074-.2667.149-.5067.224-.72l1.952-5.472h1.36l-4.336 11.68zm7.929-2.88v-8.8h1.76l1.28 3.584c.107.3093.208.624.304.944s.166.5707.208.752c.054-.1813.123-.432.208-.752.096-.32.198-.64.304-.96l1.232-3.568h1.744v8.8h-1.232v-2.112c0-.4587.006-.9493.016-1.472.011-.5227.022-1.0453.032-1.568.011-.5227.027-1.0133.048-1.472.022-.4693.038-.88.048-1.232l-1.744 5.216h-1.344l-1.744-5.184c.022.4267.038.9653.048 1.616.011.64.022 1.3173.032 2.032.022.7147.032 1.4027.032 2.064v2.112zm12.426.16c-.928 0-1.659-.2347-2.192-.704-.533-.48-.8-1.1253-.8-1.936 0-.8.261-1.4293.784-1.888.523-.4693 1.227-.704 2.112-.704h2.8v-.928c0-.5867-.171-1.04-.512-1.36s-.827-.48-1.456-.48c-.555 0-1.019.1227-1.392.368-.363.2453-.571.576-.624.992h-1.28c.107-.7573.459-1.36 1.056-1.808.608-.448 1.365-.672 2.272-.672.981 0 1.76.2667 2.336.8.576.5227.864 1.232.864 2.128v6.032h-1.248v-1.712h-.208l.24-.256c0 .6507-.251 1.168-.752 1.552s-1.168.576-2 .576zm.304-1.024c.704 0 1.28-.176 1.728-.528s.672-.8107.672-1.376v-1.328h-2.784c-.501 0-.901.1387-1.2.416s-.448.656-.448 1.136c0 .512.181.9227.544 1.232.363.2987.859.448 1.488.448zm9.338.864v-7.664h-3.2v-1.136h7.68v1.136h-3.2v7.664zm7.082 0v-8.8h1.264v3.232h2.64c.981 0 1.754.2507 2.32.752.576.4907.864 1.168.864 2.032 0 .8533-.288 1.5307-.864 2.032-.566.5013-1.339.752-2.32.752zm1.264-1.152h2.64c.608 0 1.072-.1387 1.392-.416.32-.288.48-.6933.48-1.216s-.16-.9227-.48-1.2c-.32-.288-.784-.432-1.392-.432h-2.64zm9.433 3.712 1.248-4.976h1.92l-2.064 4.976zm18.052-2.56v-8.8h1.28v3.696h1.664l2.608-3.696h1.456l-2.96 4.192 3.024 4.608h-1.488l-2.64-4h-1.664v4zm12.089.16c-.927 0-1.658-.2347-2.191-.704-.534-.48-.8-1.1253-.8-1.936 0-.8.261-1.4293.784-1.888.522-.4693 1.226-.704 2.112-.704h2.8v-.928c0-.5867-.171-1.04-.512-1.36-.342-.32-.827-.48-1.456-.48-.555 0-1.019.1227-1.392.368-.363.2453-.571.576-.624.992h-1.28c.106-.7573.458-1.36 1.056-1.808.608-.448 1.365-.672 2.272-.672.981 0 1.76.2667 2.336.8.576.5227.863 1.232.863 2.128v6.032h-1.247v-1.712h-.208l.24-.256c0 .6507-.251 1.168-.752 1.552-.502.384-1.168.576-2.001.576zm.305-1.024c.704 0 1.28-.176 1.728-.528s.672-.8107.672-1.376v-1.328h-2.784c-.502 0-.902.1387-1.2.416-.299.2773-.448.656-.448 1.136 0 .512.181.9227.544 1.232.362.2987.858.448 1.488.448zm6.793.864v-8.8h1.28v3.696h1.664l2.608-3.696h1.456l-2.96 4.192 3.024 4.608h-1.488l-2.64-4h-1.664v4zm19.14 0v-8.8h1.232v5.008c0 .2987-.011.6187-.032.96-.011.3307-.027.6453-.048.944-.022.2987-.043.5493-.064.752l3.728-7.664h1.648v8.8h-1.232v-5.008c0-.3093.005-.6293.016-.96.021-.3307.042-.6453.064-.944.032-.3093.053-.5653.064-.768l-3.744 7.68zm9.594 0v-8.8h1.28v3.744h3.904v-3.744h1.28v8.8h-1.28v-3.904h-3.904v3.904zm8.393 0 1.92-4.512-1.792-4.288h1.232l1.584 3.888h.944v-3.888h1.088v3.888h.912l1.632-3.888h1.216l-1.792 4.24 1.92 4.56h-1.28l-1.648-4.048h-.96v4.048h-1.088v-4.048h-.96l-1.68 4.048zm14.026.16c-.683 0-1.275-.1333-1.776-.4-.501-.2773-.891-.6667-1.168-1.168s-.416-1.0827-.416-1.744v-2.496c0-.672.139-1.2533.416-1.744.277-.5013.667-.8853 1.168-1.152.501-.2773 1.093-.416 1.776-.416s1.275.1387 1.776.416c.501.2667.891.6507 1.168 1.152.277.4907.416 1.072.416 1.744v1.552h-5.472v.944c0 .7147.181 1.2693.544 1.664.373.384.896.576 1.568.576.565 0 1.024-.112 1.376-.336.363-.224.592-.5493.688-.976h1.264c-.117.736-.475 1.3173-1.072 1.744s-1.349.64-2.256.64zm2.112-5.104v-.704c0-.7147-.181-1.264-.544-1.648-.363-.3947-.885-.592-1.568-.592-.672 0-1.195.1973-1.568.592-.363.384-.544.9333-.544 1.648v.56h4.352zm4.25 4.944v-8.8h1.28v3.744h3.904v-3.744h1.28v8.8h-1.28v-3.904h-3.904v3.904zm12.826.16c-.683 0-1.275-.1333-1.776-.4-.502-.2773-.891-.6667-1.168-1.168-.278-.5013-.416-1.0827-.416-1.744v-2.496c0-.672.138-1.2533.416-1.744.277-.5013.666-.8853 1.168-1.152.501-.2773 1.093-.416 1.776-.416.682 0 1.274.1387 1.776.416.501.2667.89.6507 1.168 1.152.277.4907.416 1.072.416 1.744v1.552h-5.472v.944c0 .7147.181 1.2693.544 1.664.373.384.896.576 1.568.576.565 0 1.024-.112 1.376-.336.362-.224.592-.5493.688-.976h1.264c-.118.736-.475 1.3173-1.072 1.744-.598.4267-1.35.64-2.256.64zm2.112-5.104v-.704c0-.7147-.182-1.264-.544-1.648-.363-.3947-.886-.592-1.568-.592-.672 0-1.195.1973-1.568.592-.363.384-.544.9333-.544 1.648v.56h4.352zm4.233 7.824v-11.68h1.264v1.552h.336l-.384.528c0-.6933.224-1.2373.672-1.632.459-.4053 1.062-.608 1.808-.608.886 0 1.59.2933 2.112.88.534.576.8 1.3653.8 2.368v2.608c0 .672-.122 1.2533-.368 1.744-.245.48-.586.8533-1.024 1.12-.426.2667-.933.4-1.52.4-.736 0-1.333-.2027-1.792-.608-.458-.4053-.688-.9493-.688-1.632l.336.528h-.304l.016 1.792v2.64zm3.296-3.824c.64 0 1.136-.192 1.488-.576.363-.384.544-.928.544-1.632v-2.496c0-.7147-.181-1.2587-.544-1.632-.352-.384-.848-.576-1.488-.576-.618 0-1.114.1973-1.488.592-.362.384-.544.9227-.544 1.616v2.496c0 .6933.182 1.2373.544 1.632.374.384.87.576 1.488.576zm9.546 1.104c-.395 0-.709-.112-.944-.336-.224-.2347-.336-.544-.336-.928 0-.4053.112-.7253.336-.96.235-.2347.549-.352.944-.352s.704.1173.928.352c.235.2347.352.5547.352.96 0 .384-.117.6933-.352.928-.224.224-.533.336-.928.336z"/></g></g></svg>