<svg fill="none" height="90" viewBox="0 0 970 90" width="970" xmlns="http://www.w3.org/2000/svg" xmlns:xlink="http://www.w3.org/1999/xlink"><filter id="a" color-interpolation-filters="sRGB" filterUnits="userSpaceOnUse" height="258" width="258" x="631" y="-49"><feFlood flood-opacity="0" result="BackgroundImageFix"/><feBlend in="SourceGraphic" in2="BackgroundImageFix" mode="normal" result="shape"/><feGaussianBlur result="effect1_foregroundBlur_59_713" stdDeviation="50"/></filter><filter id="b" color-interpolation-filters="sRGB" filterUnits="userSpaceOnUse" height="270" width="270" x="-71" y="-131"><feFlood flood-opacity="0" result="BackgroundImageFix"/><feBlend in="SourceGraphic" in2="BackgroundImageFix" mode="normal" result="shape"/><feGaussianBlur result="effect1_foregroundBlur_59_713" stdDeviation="50"/></filter><clipPath id="c"><path d="m0 0h970v90h-970z"/></clipPath><g clip-path="url(#c)"><path d="m0 0h970v90h-970z" fill="#232735"/><path d="m71.1748 42.521h55.9049v5.79789h-55.9049z" fill="#738ada"/><g fill="#fff"><path d="m60 30.7421 5.7833-.0093c.037.3686.1974.6357.4812.8016.2899.1596.7557.2395 1.3973.2395.5367 0 .9407-.0584 1.2121-.1751.2776-.1228.4164-.304.4164-.5435 0-.4177-.7186-.691-2.156-.8199-.2838-.0308-.4997-.0522-.6477-.0645-.0124 0-.0247 0-.037 0-2.3195-.2273-3.8864-.5221-4.7007-.8845-.475-.2088-.8421-.5374-1.1012-.9857-.2529-.4484-.3794-.9766-.3794-1.5846 0-1.2222.5614-2.1159 1.6842-2.6809 1.1227-.5651 2.9117-.8476 5.3669-.8476 2.3195 0 4.0437.2887 5.1726.866 1.1351.5773 1.7396 1.471 1.8136 2.6809h-5.4502c-.0308-.3562-.1974-.6142-.4996-.7739-.2961-.1596-.7742-.2395-1.4343-.2395-.5614 0-.9747.0614-1.24.1843-.259.1167-.3886.3009-.3886.5527 0 .4054.6169.6572 1.8507.7555.2591.0245.4565.043.5922.0553.0987.0061.2529.0184.4627.0368 2.486.2211 3.9357.4023 4.349.5436.8143.2886 1.388.6448 1.7211 1.0686.3332.4177.4997.9919.4997 1.7228 0 1.3512-.5984 2.3278-1.7951 2.9297-1.1906.6019-3.1462.9028-5.8666.9028-2.4182 0-4.1949-.2979-5.33-.8936-1.1289-.6019-1.7211-1.5478-1.7766-2.8375z"/><path d="m86.298 29.1943c-.4935.2457-1.3387.4084-2.5354.4883-.3455.0184-.6108.0368-.7958.0553-.6971.0614-1.1721.1627-1.425.304-.2468.1413-.3702.3593-.3702.6541 0 .3317.1481.5896.4442.7739.3023.1781.7279.2671 1.2769.2671 1.0426 0 1.8754-.2088 2.4984-.6264.6231-.4177.9346-.9704.9346-1.6583 0-.0737-.0031-.1259-.0092-.1566 0-.0369-.0062-.0707-.0185-.1014zm.0185 3.4732c-.5922.6203-1.3078 1.0748-2.1468 1.3635-.8328.2825-1.8908.4238-3.1739.4238-1.7334 0-3.0351-.2887-3.9049-.866s-1.3047-1.4464-1.3047-2.6072c0-.3808.0493-.7309.148-1.0503.0987-.3255.2375-.6049.4164-.8383.364-.4484.8483-.78 1.4528-.995.6107-.2211 1.7581-.3869 3.4422-.4975.5552-.0368 1.277-.0706 2.1653-.1013 1.789-.0737 2.6835-.3225 2.6835-.7463 0-.2886-.1882-.5189-.5645-.6909-.3763-.1781-.8883-.2672-1.536-.2672-.839 0-1.4374.0799-1.7952.2395-.3578.1597-.5675.433-.6292.82h-4.895c.0987-1.2837.7002-2.2019 1.8044-2.7546 1.1104-.5589 2.9364-.8384 5.478-.8384 1.388 0 2.557.0983 3.507.2948.95.1904 1.6687.476 2.156.8568.5305.4115.9068.909 1.1289 1.4925.2221.5773.3331 1.4064.3331 2.4874v4.0813c0 .393.034.6971.1018.912.0741.2088.1974.3747.3702.4975v.2303h-4.9321c-.0863-.2088-.1573-.433-.2128-.6725-.0493-.2457-.0802-.5036-.0925-.7739z"/><path d="m93.7284 34.1139v-10.567h4.8302v10.567zm0-11.433v-2.6809h4.8302v2.6809z"/><path d="m101.214 34.1139v-10.567h4.738v1.0963c.635-.4422 1.296-.7677 1.98-.9765.685-.215 1.422-.3225 2.212-.3225 1.554 0 2.689.3931 3.405 1.1793.722.7861 1.083 2.0329 1.083 3.7403v5.8501h-4.738v-4.9656c0-.7862-.126-1.3267-.379-1.6215-.253-.3009-.694-.4514-1.324-.4514-.697 0-1.246.1658-1.647.4975-.395.3316-.592.7892-.592 1.3727v5.1683z"/><path d="m124.255 34.0955c-.413.0676-.814.1167-1.203.1474-.388.0369-.765.0553-1.129.0553-.586 0-1.113-.0369-1.582-.1106-.469-.0675-.888-.175-1.258-.3224-.525-.215-.895-.5282-1.111-.9397s-.324-1.0841-.324-2.0176v-4.1365h-1.693v-2.9573h1.693v-3.4548h4.775v3.4548h1.703v2.9573h-1.703v2.1926c0 1.0441.077 1.6767.231 1.8978.155.2211.463.3317.926.3317h.675z"/><path d="m140.402 29.4707c-.173 1.6644-.894 2.9143-2.165 3.7496-1.265.8353-3.069 1.2529-5.413 1.2529-2.425 0-4.3-.4913-5.626-1.474-1.32-.9827-1.981-2.3708-1.981-4.1642 0-1.7873.661-3.1753 1.981-4.1641 1.326-.9889 3.201-1.4833 5.626-1.4833 2.251 0 4.006.3839 5.265 1.1516 1.258.7677 1.999 1.907 2.221 3.4179h-5.08c-.192-.4852-.479-.8475-.861-1.0871-.382-.2456-.861-.3685-1.434-.3685-.845 0-1.509.2242-1.99.6725-.481.4423-.721 1.0564-.721 1.8426 0 .7616.234 1.3666.703 1.8149.469.4484 1.101.6725 1.897.6725.66 0 1.215-.1627 1.665-.4882.457-.3317.741-.7801.852-1.3451z"/><path d="m146.583 28.835c0 .7248.219 1.3021.657 1.732.445.4299 1.04.6449 1.786.6449.747 0 1.339-.215 1.777-.6449.444-.4299.666-1.0072.666-1.732 0-.7309-.222-1.3082-.666-1.732-.438-.4299-1.03-.6449-1.777-.6449-.746 0-1.341.215-1.786.6449-.438.4238-.657 1.0011-.657 1.732zm-5.006 0c0-1.7934.651-3.1814 1.953-4.1641 1.301-.9889 3.14-1.4833 5.515-1.4833 2.381 0 4.216.4914 5.506 1.474 1.295.9827 1.943 2.3739 1.943 4.1734 0 1.7934-.648 3.1815-1.943 4.1642-1.29.9827-3.125 1.474-5.506 1.474-2.375 0-4.214-.4913-5.515-1.474-1.302-.9827-1.953-2.3708-1.953-4.1642z"/><path d="m167.496 28.835c0-.7124-.222-1.2806-.666-1.7043-.438-.4238-1.024-.6357-1.758-.6357-.735 0-1.324.2119-1.768.6357-.438.4237-.657.9919-.657 1.7043 0 .7063.219 1.2744.657 1.7044.444.4238 1.033.6357 1.768.6357.734 0 1.32-.2119 1.758-.6357.444-.43.666-.9981.666-1.7044zm4.738-8.4573v13.7362h-4.507l-.037-1.041c-.573.4361-1.209.7646-1.906.9857-.697.215-1.465.3225-2.304.3225-1.77 0-3.183-.5036-4.238-1.5109-1.055-1.0134-1.582-2.3585-1.582-4.0352 0-1.7013.53-3.0525 1.591-4.0536 1.067-1.0011 2.502-1.5017 4.303-1.5017.765 0 1.468.0952 2.11.2856.648.1843 1.258.4668 1.832.8476v-4.0352z"/><path d="m178.933 27.665h5.626c-.068-.5835-.333-1.0349-.796-1.3543-.462-.3193-1.082-.479-1.86-.479-.839 0-1.514.1566-2.026.4698-.506.3132-.821.7677-.944 1.3635zm10.401 3.2245c-.358 1.1731-1.188 2.0636-2.489 2.6717-1.302.608-3.035.912-5.201.912-2.406 0-4.265-.4913-5.579-1.474s-1.971-2.3708-1.971-4.1642c0-1.7995.657-3.1907 1.971-4.1734 1.314-.9826 3.173-1.474 5.579-1.474 2.554 0 4.488.5558 5.802 1.6675 1.32 1.1055 1.98 2.7331 1.98 4.8828v.1842h-10.252c0 .5712.24 1.0134.721 1.3267.482.3132 1.157.4698 2.027.4698.574 0 1.052-.0706 1.434-.2119.383-.1412.657-.347.824-.6172z"/><path d="m65.5517 61.3034c0 .7063.2221 1.2744.6662 1.7043.4442.4238 1.0302.6357 1.7581.6357.7403 0 1.3294-.2119 1.7674-.6357.4442-.4299.6663-.998.6663-1.7043 0-.7125-.2221-1.2806-.6663-1.7044-.438-.4238-1.0271-.6357-1.7674-.6357-.7279 0-1.3139.2119-1.7581.6357-.4441.4238-.6662.9919-.6662 1.7044zm-4.7377 5.2789v-13.7362h4.7377v4.0351c.5737-.3808 1.1813-.6633 1.8229-.8475.6477-.1904 1.354-.2856 2.119-.2856 1.8013 0 3.2325.5005 4.2935 1.5017 1.0673 1.0011 1.6009 2.3523 1.6009 4.0536 0 1.6767-.5275 3.0217-1.5824 4.0351-1.0548 1.0073-2.4675 1.5109-4.238 1.5109-.8328 0-1.5977-.1075-2.2948-.3224-.6971-.2211-1.3325-.5497-1.9062-.9858l-.037 1.0411z"/><path d="m81.5507 61.3034c0 .7247.219 1.302.657 1.732.4441.4299 1.0394.6448 1.7859.6448.7464 0 1.3386-.2149 1.7766-.6448.4442-.43.6662-1.0073.6662-1.732 0-.7309-.222-1.3082-.6662-1.732-.438-.43-1.0302-.6449-1.7766-.6449-.7465 0-1.3418.2149-1.7859.6449-.438.4238-.657 1.0011-.657 1.732zm-5.0061 0c0-1.7935.6508-3.1815 1.9525-4.1642 1.3016-.9888 3.1399-1.4833 5.515-1.4833 2.3812 0 4.2164.4914 5.5057 1.4741 1.2955.9827 1.9432 2.3738 1.9432 4.1734 0 1.7934-.6477 3.1814-1.9432 4.1641-1.2893.9827-3.1245 1.4741-5.5057 1.4741-2.3751 0-4.2134-.4914-5.515-1.4741-1.3017-.9827-1.9525-2.3707-1.9525-4.1641z"/><path d="m97.6145 61.3034c0 .7247.219 1.302.657 1.732.4441.4299 1.0394.6448 1.7855.6448.747 0 1.339-.2149 1.777-.6448.444-.43.666-1.0073.666-1.732 0-.7309-.222-1.3082-.666-1.732-.438-.43-1.03-.6449-1.777-.6449-.7461 0-1.3414.2149-1.7855.6449-.438.4238-.657 1.0011-.657 1.732zm-5.0061 0c0-1.7935.6508-3.1815 1.9525-4.1642 1.3016-.9888 3.1399-1.4833 5.5151-1.4833 2.381 0 4.216.4914 5.506 1.4741 1.295.9827 1.943 2.3738 1.943 4.1734 0 1.7934-.648 3.1814-1.943 4.1641-1.29.9827-3.125 1.4741-5.506 1.4741-2.3752 0-4.2135-.4914-5.5151-1.4741-1.3017-.9827-1.9525-2.3707-1.9525-4.1641z"/><path d="m116.519 66.5638c-.413.0676-.814.1167-1.203.1474-.389.0369-.765.0553-1.129.0553-.586 0-1.113-.0368-1.582-.1105-.469-.0676-.888-.1751-1.259-.3225-.524-.2149-.894-.5282-1.11-.9397s-.324-1.084-.324-2.0176v-4.1365h-1.693v-2.9573h1.693v-3.4548h4.775v3.4548h1.702v2.9573h-1.702v2.1926c0 1.0441.077 1.6768.231 1.8979s.463.3316.926.3316h.675z"/><path d="m132.666 61.939c-.173 1.6645-.894 2.9143-2.165 3.7496-1.265.8353-3.069 1.253-5.413 1.253-2.425 0-4.3-.4914-5.626-1.4741-1.321-.9827-1.981-2.3707-1.981-4.1641 0-1.7873.66-3.1754 1.981-4.1642 1.326-.9888 3.201-1.4833 5.626-1.4833 2.251 0 4.006.3839 5.265 1.1516 1.258.7678 1.998 1.9071 2.221 3.418h-5.081c-.191-.4852-.478-.8476-.86-1.0871-.383-.2457-.861-.3685-1.434-.3685-.845 0-1.509.2241-1.99.6725-.481.4422-.722 1.0564-.722 1.8425 0 .7616.235 1.3666.704 1.8149.469.4484 1.101.6726 1.897.6726.66 0 1.215-.1628 1.665-.4883.457-.3317.74-.78.852-1.3451z"/><path d="m144.168 61.6627c-.494.2456-1.339.4084-2.535.4882-.346.0185-.611.0369-.796.0553-.697.0614-1.172.1628-1.425.304-.247.1413-.37.3593-.37.6541 0 .3317.148.5896.444.7739.302.1781.728.2672 1.277.2672 1.042 0 1.875-.2088 2.498-.6265.623-.4176.935-.9704.935-1.6583 0-.0737-.003-.1259-.01-.1566 0-.0369-.006-.0706-.018-.1013zm.018 3.4732c-.592.6203-1.307 1.0748-2.146 1.3634-.833.2826-1.891.4238-3.174.4238-1.734 0-3.035-.2886-3.905-.866-.87-.5773-1.305-1.4464-1.305-2.6072 0-.3808.05-.7308.148-1.0502.099-.3255.238-.605.417-.8384.364-.4483.848-.78 1.452-.995.611-.2211 1.759-.3869 3.443-.4974.555-.0369 1.277-.0707 2.165-.1014 1.789-.0737 2.683-.3224 2.683-.7462 0-.2887-.188-.519-.564-.691-.376-.1781-.888-.2671-1.536-.2671-.839 0-1.437.0798-1.795.2395s-.568.433-.629.8199h-4.895c.098-1.2836.7-2.2018 1.804-2.7546 1.11-.5589 2.936-.8383 5.478-.8383 1.388 0 2.557.0982 3.507.2948.95.1904 1.669.4759 2.156.8567.53.4115.907.909 1.129 1.4925.222.5773.333 1.4065.333 2.4874v4.0813c0 .3931.034.6971.102.9121.074.2088.197.3746.37.4974v.2304h-4.932c-.087-.2089-.157-.433-.213-.6726-.049-.2456-.08-.5036-.093-.7738z"/><path d="m151.423 66.5823v-10.5671h4.7v1.0964c.63-.4484 1.274-.777 1.934-.9858s1.373-.3132 2.138-.3132c.857 0 1.576.1535 2.156.4606.58.301 1.076.78 1.49 1.4372.697-.651 1.428-1.1301 2.193-1.4372s1.613-.4606 2.544-.4606c1.499 0 2.597.393 3.294 1.1792.698.7861 1.046 2.0329 1.046 3.7404v5.8501h-4.682v-4.9657c0-.7739-.123-1.3113-.37-1.6122-.247-.3071-.666-.4607-1.259-.4607-.666 0-1.187.1659-1.564.4975-.376.3317-.564.7892-.564 1.3727v5.1684h-4.599v-4.9657c0-.7739-.123-1.3113-.37-1.6122-.247-.3071-.669-.4607-1.268-.4607-.66 0-1.178.1659-1.554.4975-.377.3317-.565.7892-.565 1.3727v5.1684z"/><path d="m180.163 61.3034c0 .7063.223 1.2744.667 1.7043.444.4238 1.03.6357 1.758.6357.74 0 1.329-.2119 1.767-.6357.444-.4299.666-.998.666-1.7043 0-.7125-.222-1.2806-.666-1.7044-.438-.4238-1.027-.6357-1.767-.6357-.728 0-1.314.2119-1.758.6357s-.667.9919-.667 1.7044zm-4.737 8.6968v-13.985h4.515l.037 1.0227c.562-.43 1.191-.7524 1.888-.9674.697-.2149 1.468-.3224 2.313-.3224 1.771 0 3.184.5067 4.238 1.5201 1.055 1.0072 1.583 2.3523 1.583 4.0352 0 1.6951-.534 3.0432-1.601 4.0444-1.061 1.0011-2.492 1.5016-4.294 1.5016-.765 0-1.471-.0921-2.119-.2764-.641-.1903-1.249-.4759-1.823-.8567v4.2839z"/></g><g filter="url(#a)"><circle cx="760" cy="80" fill="#738ada" r="29"/></g><g filter="url(#b)"><circle cx="64" cy="4" fill="#738ada" r="35"/></g><g fill="#fff"><path d="m271.65 39v-18.25h11.7v18.25h-3.75v-14.75h-4.2v14.75zm17.265 4.5 1.875-5.175-5.15-13.075h4.075l2.075 6c.15.45.3 1 .45 1.65.167.6333.292 1.15.375 1.55.084-.4.2-.9167.35-1.55.167-.65.325-1.2.475-1.65l2-6h3.9l-6.5 18.25zm16.69-4.5v-10.25h-4.5v-3.5h12.75v3.5h-4.5v10.25zm15.091.25c-1.384 0-2.484-.375-3.3-1.125-.8-.75-1.2-1.7667-1.2-3.05 0-1.3833.475-2.4417 1.425-3.175.966-.75 2.35-1.125 4.15-1.125h2.85v-1.025c0-.5333-.192-.9583-.575-1.275-.367-.3167-.867-.475-1.5-.475-.584 0-1.067.1333-1.45.4-.384.2667-.617.6333-.7 1.1h-3.625c.15-1.3833.75-2.475 1.8-3.275 1.066-.8167 2.433-1.225 4.1-1.225 1.75 0 3.133.4333 4.15 1.3 1.033.85 1.55 2 1.55 3.45v9.25h-3.625v-2.25h-.6l.625-.875c0 1.0333-.375 1.8583-1.125 2.475-.734.6-1.717.9-2.95.9zm1.4-2.75c.733 0 1.333-.1917 1.8-.575.483-.4.725-.9167.725-1.55v-1.475h-2.775c-.567 0-1.025.1667-1.375.5-.35.3167-.525.7417-.525 1.275 0 .5667.191 1.0167.575 1.35.383.3167.908.475 1.575.475zm15.39 2.75c-1.217 0-2.283-.225-3.2-.675-.9-.4667-1.6-1.1083-2.1-1.925-.483-.8333-.725-1.8-.725-2.9v-3.25c0-1.1.242-2.0583.725-2.875.5-.8333 1.2-1.475 2.1-1.925.917-.4667 1.983-.7 3.2-.7s2.267.2333 3.15.7c.9.45 1.592 1.0917 2.075 1.925.5.8167.75 1.775.75 2.875v2.5h-8.425v.75c0 .8667.208 1.525.625 1.975.417.4333 1.042.65 1.875.65.583 0 1.05-.1 1.4-.3.367-.2.608-.475.725-.825h3.675c-.3 1.2-.983 2.1667-2.05 2.9-1.05.7333-2.317 1.1-3.8 1.1zm2.4-8.175v-.625c0-.85-.2-1.5-.6-1.95-.383-.45-.983-.675-1.8-.675s-1.433.2333-1.85.7c-.4.4667-.6 1.125-.6 1.975v.375l5.1-.05zm6.065 7.925v-13.75h3.075v11.25h2.125v-11.25h2.6v11.25h2.125v-11.25h3.075v13.75zm15.74 0v-13.75h3.75v4.125h3.225c1.734 0 3.084.4333 4.05 1.3.984.85 1.475 2.0333 1.475 3.55 0 1.4667-.5 2.6333-1.5 3.5-.983.85-2.316 1.275-4 1.275zm3.75-3.25h3c.634 0 1.117-.1333 1.45-.4.35-.2833.525-.6667.525-1.15 0-.5-.175-.8833-.525-1.15-.333-.2833-.816-.425-1.45-.425h-3zm17.066 3.5c-1.217 0-2.284-.225-3.2-.675-.917-.4667-1.625-1.1083-2.125-1.925-.5-.8333-.75-1.8-.75-2.9v-3.25c0-1.1167.25-2.0833.75-2.9s1.208-1.45 2.125-1.9c.916-.4667 1.983-.7 3.2-.7 1.816 0 3.266.4583 4.35 1.375 1.083.9167 1.658 2.1667 1.725 3.75h-3.75c-.05-.5833-.284-1.0417-.7-1.375-.4-.3333-.942-.5-1.625-.5-.75 0-1.325.1917-1.725.575s-.6.9417-.6 1.675v3.25c0 .7167.2 1.275.6 1.675.4.3833.975.575 1.725.575.683 0 1.225-.1583 1.625-.475.416-.3333.65-.8.7-1.4h3.75c-.067 1.5833-.642 2.8333-1.725 3.75-1.084.9167-2.534 1.375-4.35 1.375zm8.665-.25 3-4.825c-.883-.3333-1.575-.8583-2.075-1.575s-.75-1.5583-.75-2.525c0-1.5167.508-2.7 1.525-3.55s2.425-1.275 4.225-1.275h6.175v13.75h-3.725v-4.35h-1.65l-2.5 4.35zm6.15-7.2h2.25v-3.575h-2.25c-.7 0-1.25.1583-1.65.475s-.6.7583-.6 1.325.192 1.0083.575 1.325c.4.3.958.45 1.675.45zm24.205 7.2v-13.75h6.225c1.684 0 3.017.3417 4 1.025 1 .6667 1.5 1.575 1.5 2.725 0 .9167-.375 1.6583-1.125 2.225-.75.55-1.741.825-2.975.825v-.25c1.35 0 2.425.3 3.225.9.817.6 1.225 1.3917 1.225 2.375 0 1.2167-.5 2.175-1.5 2.875-.983.7-2.325 1.05-4.025 1.05zm3.675-2.65h2.7c.617 0 1.109-.1417 1.475-.425.384-.3.575-.6833.575-1.15 0-.5-.191-.9-.575-1.2-.366-.3-.858-.45-1.475-.45h-2.7zm0-5.425h2.575c.567 0 1.017-.1333 1.35-.4.334-.2833.5-.65.5-1.1 0-.4667-.166-.8417-.5-1.125-.333-.2833-.783-.425-1.35-.425h-2.575zm32.256 8.325c-1.217 0-2.284-.225-3.2-.675-.917-.4667-1.625-1.1083-2.125-1.925-.5-.8333-.75-1.8-.75-2.9v-3.25c0-1.1167.25-2.0833.75-2.9s1.208-1.45 2.125-1.9c.916-.4667 1.983-.7 3.2-.7 1.816 0 3.266.4583 4.35 1.375 1.083.9167 1.658 2.1667 1.725 3.75h-3.75c-.05-.5833-.284-1.0417-.7-1.375-.4-.3333-.942-.5-1.625-.5-.75 0-1.325.1917-1.725.575s-.6.9417-.6 1.675v3.25c0 .7167.2 1.275.6 1.675.4.3833.975.575 1.725.575.683 0 1.225-.1583 1.625-.475.416-.3333.65-.8.7-1.4h3.75c-.067 1.5833-.642 2.8333-1.725 3.75-1.084.9167-2.534 1.375-4.35 1.375zm9.065-.25v-13.75h3.3v6.25c0 .4167-.025.9417-.075 1.575-.05.6167-.117 1.2417-.2 1.875-.067.6333-.142 1.1917-.225 1.675l4.35-11.375h4.55v13.75h-3.3v-6.25c0-.4333.025-.925.075-1.475.05-.5667.108-1.1333.175-1.7s.133-1.05.2-1.45l-4.3 10.875zm14.99 0v-13.75h3.75v5.025h4.2v-5.025h3.75v13.75h-3.75v-5.225h-4.2v5.225zm18.966 0v-10.25h-4.5v-3.5h12.75v3.5h-4.5v10.25zm15.09.25c-1.384 0-2.484-.375-3.3-1.125-.8-.75-1.2-1.7667-1.2-3.05 0-1.3833.475-2.4417 1.425-3.175.966-.75 2.35-1.125 4.15-1.125h2.85v-1.025c0-.5333-.192-.9583-.575-1.275-.367-.3167-.867-.475-1.5-.475-.584 0-1.067.1333-1.45.4-.384.2667-.617.6333-.7 1.1h-3.625c.15-1.3833.75-2.475 1.8-3.275 1.066-.8167 2.433-1.225 4.1-1.225 1.75 0 3.133.4333 4.15 1.3 1.033.85 1.55 2 1.55 3.45v9.25h-3.625v-2.25h-.6l.625-.875c0 1.0333-.375 1.8583-1.125 2.475-.734.6-1.717.9-2.95.9zm1.4-2.75c.733 0 1.333-.1917 1.8-.575.483-.4.725-.9167.725-1.55v-1.475h-2.775c-.567 0-1.025.1667-1.375.5-.35.3167-.525.7417-.525 1.275 0 .5667.191 1.0167.575 1.35.383.3167.908.475 1.575.475zm9.59 2.5v-13.75h3.75v5.2h1.85l2.875-5.2h4.175l-3.825 6.725 3.9 7.025h-4.25l-2.9-5.4h-1.825v5.4zm20.84.25c-1.216 0-2.283-.225-3.2-.675-.916-.4667-1.625-1.1083-2.125-1.925-.5-.8333-.75-1.8-.75-2.9v-3.25c0-1.1167.25-2.0833.75-2.9s1.209-1.45 2.125-1.9c.917-.4667 1.984-.7 3.2-.7 1.817 0 3.267.4583 4.35 1.375 1.084.9167 1.659 2.1667 1.725 3.75h-3.75c-.05-.5833-.283-1.0417-.7-1.375-.4-.3333-.941-.5-1.625-.5-.75 0-1.325.1917-1.725.575s-.6.9417-.6 1.675v3.25c0 .7167.2 1.275.6 1.675.4.3833.975.575 1.725.575.684 0 1.225-.1583 1.625-.475.417-.3333.65-.8.7-1.4h3.75c-.066 1.5833-.641 2.8333-1.725 3.75-1.083.9167-2.533 1.375-4.35 1.375zm9.065-.25v-13.75h3.3v6.25c0 .4167-.025.9417-.075 1.575-.05.6167-.116 1.2417-.2 1.875-.066.6333-.141 1.1917-.225 1.675l4.35-11.375h4.55v13.75h-3.3v-6.25c0-.4333.025-.925.075-1.475.05-.5667.109-1.1333.175-1.7.067-.5667.134-1.05.2-1.45l-4.3 10.875zm20.916.25c-1.217 0-2.284-.225-3.2-.675-.917-.4667-1.625-1.1083-2.125-1.925-.5-.8333-.75-1.8-.75-2.9v-3.25c0-1.1167.25-2.0833.75-2.9s1.208-1.45 2.125-1.9c.916-.4667 1.983-.7 3.2-.7 1.816 0 3.266.4583 4.35 1.375 1.083.9167 1.658 2.1667 1.725 3.75h-3.75c-.05-.5833-.284-1.0417-.7-1.375-.4-.3333-.942-.5-1.625-.5-.75 0-1.325.1917-1.725.575s-.6.9417-.6 1.675v3.25c0 .7167.2 1.275.6 1.675.4.3833.975.575 1.725.575.683 0 1.225-.1583 1.625-.475.416-.3333.65-.8.7-1.4h3.75c-.067 1.5833-.642 2.8333-1.725 3.75-1.084.9167-2.534 1.375-4.35 1.375zm14.94 0c-1.217 0-2.283-.225-3.2-.675-.9-.4667-1.6-1.1083-2.1-1.925-.483-.8333-.725-1.8-.725-2.9v-3.25c0-1.1.242-2.0583.725-2.875.5-.8333 1.2-1.475 2.1-1.925.917-.4667 1.983-.7 3.2-.7s2.267.2333 3.15.7c.9.45 1.592 1.0917 2.075 1.925.5.8167.75 1.775.75 2.875v2.5h-8.425v.75c0 .8667.208 1.525.625 1.975.417.4333 1.042.65 1.875.65.583 0 1.05-.1 1.4-.3.367-.2.608-.475.725-.825h3.675c-.3 1.2-.983 2.1667-2.05 2.9-1.05.7333-2.317 1.1-3.8 1.1zm2.4-8.175v-.625c0-.85-.2-1.5-.6-1.95-.383-.45-.983-.675-1.8-.675s-1.433.2333-1.85.7c-.4.4667-.6 1.125-.6 1.975v.375l5.1-.05zm26.805 8.2c-1.916 0-3.441-.5167-4.575-1.55-1.116-1.05-1.675-2.4583-1.675-4.225h3.75c0 .7667.225 1.3833.675 1.85.45.45 1.059.675 1.825.675.767 0 1.375-.2167 1.825-.65.45-.45.675-1.0583.675-1.825v-9.3h-4.125v-3.5h7.875v12.8c0 1.7667-.558 3.1667-1.675 4.2-1.116 1.0167-2.641 1.525-4.575 1.525zm13.966-.025c-1.384 0-2.484-.375-3.3-1.125-.8-.75-1.2-1.7667-1.2-3.05 0-1.3833.475-2.4417 1.425-3.175.966-.75 2.35-1.125 4.15-1.125h2.85v-1.025c0-.5333-.192-.9583-.575-1.275-.367-.3167-.867-.475-1.5-.475-.584 0-1.067.1333-1.45.4-.384.2667-.617.6333-.7 1.1h-3.625c.15-1.3833.75-2.475 1.8-3.275 1.066-.8167 2.433-1.225 4.1-1.225 1.75 0 3.133.4333 4.15 1.3 1.033.85 1.55 2 1.55 3.45v9.25h-3.625v-2.25h-.6l.625-.875c0 1.0333-.375 1.8583-1.125 2.475-.734.6-1.717.9-2.95.9zm1.4-2.75c.733 0 1.333-.1917 1.8-.575.483-.4.725-.9167.725-1.55v-1.475h-2.775c-.567 0-1.025.1667-1.375.5-.35.3167-.525.7417-.525 1.275 0 .5667.191 1.0167.575 1.35.383.3167.908.475 1.575.475zm13.04 2.5-4.5-13.75h3.875l2.3 7.725c.133.4667.267.975.4 1.525s.233.9917.3 1.325c.083-.3333.183-.775.3-1.325.133-.55.258-1.05.375-1.5l2.275-7.75h3.825l-4.45 13.75zm15.54.25c-1.383 0-2.483-.375-3.3-1.125-.8-.75-1.2-1.7667-1.2-3.05 0-1.3833.475-2.4417 1.425-3.175.967-.75 2.35-1.125 4.15-1.125h2.85v-1.025c0-.5333-.192-.9583-.575-1.275-.367-.3167-.867-.475-1.5-.475-.583 0-1.067.1333-1.45.4s-.617.6333-.7 1.1h-3.625c.15-1.3833.75-2.475 1.8-3.275 1.067-.8167 2.433-1.225 4.1-1.225 1.75 0 3.133.4333 4.15 1.3 1.033.85 1.55 2 1.55 3.45v9.25h-3.625v-2.25h-.6l.625-.875c0 1.0333-.375 1.8583-1.125 2.475-.733.6-1.717.9-2.95.9zm1.4-2.75c.733 0 1.333-.1917 1.8-.575.483-.4.725-.9167.725-1.55v-1.475h-2.775c-.567 0-1.025.1667-1.375.5-.35.3167-.525.7417-.525 1.275 0 .5667.192 1.0167.575 1.35.383.3167.908.475 1.575.475zm14.79 2.75c-1.133 0-2.125-.175-2.975-.525-.85-.3667-1.516-.8667-2-1.5-.466-.6333-.7-1.375-.7-2.225h3.75c0 .4.175.725.525.975.367.2333.834.35 1.4.35h1.1c.684 0 1.2-.125 1.55-.375.367-.25.55-.6.55-1.05 0-.4167-.158-.7333-.475-.95-.316-.2333-.808-.3917-1.475-.475l-1.6-.2c-1.716-.2167-2.966-.6333-3.75-1.25-.783-.6167-1.175-1.5583-1.175-2.825 0-1.3333.459-2.3667 1.375-3.1.917-.7333 2.259-1.1 4.025-1.1h.95c1.684 0 3.025.3667 4.025 1.1s1.5 1.7167 1.5 2.95h-3.75c0-.3333-.166-.6-.5-.8-.316-.2167-.741-.325-1.275-.325h-.95c-.616 0-1.066.1083-1.35.325-.283.2-.425.5083-.425.925 0 .3833.125.675.375.875.267.2.684.3417 1.25.425l1.725.225c1.734.2167 3.017.65 3.85 1.3.85.65 1.275 1.6167 1.275 2.9 0 1.4-.483 2.475-1.45 3.225-.966.75-2.391 1.125-4.275 1.125zm15.641 0c-1.217 0-2.284-.225-3.2-.675-.917-.4667-1.625-1.1083-2.125-1.925-.5-.8333-.75-1.8-.75-2.9v-3.25c0-1.1167.25-2.0833.75-2.9s1.208-1.45 2.125-1.9c.916-.4667 1.983-.7 3.2-.7 1.816 0 3.266.4583 4.35 1.375 1.083.9167 1.658 2.1667 1.725 3.75h-3.75c-.05-.5833-.284-1.0417-.7-1.375-.4-.3333-.942-.5-1.625-.5-.75 0-1.325.1917-1.725.575s-.6.9417-.6 1.675v3.25c0 .7167.2 1.275.6 1.675.4.3833.975.575 1.725.575.683 0 1.225-.1583 1.625-.475.416-.3333.65-.8.7-1.4h3.75c-.067 1.5833-.642 2.8333-1.725 3.75-1.084.9167-2.534 1.375-4.35 1.375zm9.465-.25v-13.75h3.5v2.625h.95l-1.075 1.6c0-1.4833.341-2.6 1.025-3.35.683-.75 1.683-1.125 3-1.125 1.516 0 2.691.4583 3.525 1.375.85.9167 1.275 2.2083 1.275 3.875v1.125h-4v-.875c0-.75-.209-1.3333-.625-1.75-.4-.4167-.942-.625-1.625-.625-.717 0-1.267.2083-1.65.625-.367.4167-.55 1-.55 1.75v8.5zm14.69 0v-3.4h4.75v-6.975h-4.125v-3.375h7.625v10.35h4v3.4zm6.25-15.925c-.683 0-1.233-.175-1.65-.525-.4-.35-.6-.825-.6-1.425s.2-1.075.6-1.425c.417-.35.967-.525 1.65-.525s1.225.175 1.625.525c.417.35.625.825.625 1.425s-.208 1.075-.625 1.425c-.4.35-.942.525-1.625.525zm8.64 20.425v-18.25h3.625v2.625h.875l-.875.875c0-1.1833.325-2.1.975-2.75.65-.6667 1.542-1 2.675-1 1.384 0 2.492.4917 3.325 1.475.834.9667 1.25 2.2667 1.25 3.9v3.5c0 1.0833-.191 2.0333-.575 2.85-.366.8-.891 1.425-1.575 1.875-.683.4333-1.491.65-2.425.65-1.133 0-2.025-.325-2.675-.975-.65-.6667-.975-1.5917-.975-2.775l.875.875h-.875l.125 3.375v3.75zm5.925-7.5c.7 0 1.234-.1917 1.6-.575.384-.4.575-.9583.575-1.675v-3.25c0-.7333-.191-1.2917-.575-1.675-.366-.3833-.9-.575-1.6-.575-.683 0-1.216.2-1.6.6-.383.3833-.575.9333-.575 1.65v3.25c0 .7167.192 1.275.575 1.675.384.3833.917.575 1.6.575zm16.416 3c-1.4 0-2.5-.4-3.3-1.2s-1.2-1.9-1.2-3.3v-5.875h-3.625v-3.375h3.625v-3.875h3.75v3.875h5.125v3.375h-5.125v5.875c0 .75.375 1.125 1.125 1.125h3.75v3.375zm10.515-5.625-.125-5.375h2.5c.683 0 1.225-.1667 1.625-.5.4-.35.6-.8083.6-1.375 0-.5833-.209-1.0417-.625-1.375-.4-.3333-.942-.5-1.625-.5h-4.125v-3.5h3.875c1.283 0 2.391.225 3.325.675.933.4333 1.65 1.05 2.15 1.85.516.8.775 1.75.775 2.85 0 1.05-.217 1.9667-.65 2.75-.434.7833-1.042 1.4-1.825 1.85-.784.4333-1.7.65-2.75.65v2zm1.2 5.75c-.567 0-1.025-.1583-1.375-.475-.334-.3333-.5-.7583-.5-1.275 0-.5333.166-.9583.5-1.275.35-.3167.808-.475 1.375-.475h.75c.566 0 1.016.1583 1.35.475.35.3167.525.7417.525 1.275s-.175.9583-.525 1.275c-.334.3167-.792.475-1.375.475z"/><path d="m271.568 67v-11.68h6.464v11.68h-1.28v-10.528h-3.904v10.528zm12.826.144c-.683 0-1.275-.1333-1.776-.4-.502-.2667-.891-.6507-1.168-1.152-.278-.5013-.416-1.0933-.416-1.776v-2.432c0-.6933.138-1.2853.416-1.776.277-.5013.666-.8853 1.168-1.152.501-.2667 1.093-.4 1.776-.4.682 0 1.274.1333 1.776.4.501.2667.89.6507 1.168 1.152.277.4907.416 1.0773.416 1.76v2.448c0 .6827-.139 1.2747-.416 1.776-.278.5013-.667.8853-1.168 1.152-.502.2667-1.094.4-1.776.4zm0-1.136c.661 0 1.173-.1867 1.536-.56.362-.3733.544-.9173.544-1.632v-2.432c0-.7147-.187-1.2587-.56-1.632-.363-.3733-.87-.56-1.52-.56-.651 0-1.163.1867-1.536.56-.363.3733-.544.9173-.544 1.632v2.432c0 .7147.181 1.2587.544 1.632.373.3733.885.56 1.536.56zm6.074.992v-8.8h1.76l1.28 3.584c.106.3093.208.624.304.944s.165.5707.208.752c.053-.1813.122-.432.208-.752.096-.32.197-.64.304-.96l1.232-3.568h1.744v8.8h-1.232v-2.112c0-.4587.005-.9493.016-1.472.01-.5227.021-1.0453.032-1.568.01-.5227.026-1.0133.048-1.472.021-.4693.037-.88.048-1.232l-1.744 5.216h-1.344l-1.744-5.184c.021.4267.037.9653.048 1.616.01.64.021 1.3173.032 2.032.021.7147.032 1.4027.032 2.064v2.112zm13.113.144c-.682 0-1.274-.1333-1.776-.4-.501-.2667-.89-.6507-1.168-1.152-.277-.5013-.416-1.0933-.416-1.776v-2.432c0-.6933.139-1.2853.416-1.776.278-.5013.667-.8853 1.168-1.152.502-.2667 1.094-.4 1.776-.4.683 0 1.275.1333 1.776.4.502.2667.891.6507 1.168 1.152.278.4907.416 1.0773.416 1.76v2.448c0 .6827-.138 1.2747-.416 1.776-.277.5013-.666.8853-1.168 1.152-.501.2667-1.093.4-1.776.4zm0-1.136c.662 0 1.174-.1867 1.536-.56.363-.3733.544-.9173.544-1.632v-2.432c0-.7147-.186-1.2587-.56-1.632-.362-.3733-.869-.56-1.52-.56-.65 0-1.162.1867-1.536.56-.362.3733-.544.9173-.544 1.632v2.432c0 .7147.182 1.2587.544 1.632.374.3733.886.56 1.536.56zm5.162.992 1.92-4.512-1.792-4.288h1.232l1.584 3.888h.944v-3.888h1.088v3.888h.912l1.632-3.888h1.216l-1.792 4.24 1.92 4.56h-1.28l-1.648-4.048h-.96v4.048h-1.088v-4.048h-.96l-1.68 4.048zm14.026.16c-.683 0-1.275-.1333-1.776-.4-.502-.2773-.891-.6667-1.168-1.168-.278-.5013-.416-1.0827-.416-1.744v-2.496c0-.672.138-1.2533.416-1.744.277-.5013.666-.8853 1.168-1.152.501-.2773 1.093-.416 1.776-.416.682 0 1.274.1387 1.776.416.501.2667.89.6507 1.168 1.152.277.4907.416 1.072.416 1.744v1.552h-5.472v.944c0 .7147.181 1.2693.544 1.664.373.384.896.576 1.568.576.565 0 1.024-.112 1.376-.336.362-.224.592-.5493.688-.976h1.264c-.118.736-.475 1.3173-1.072 1.744-.598.4267-1.35.64-2.256.64zm2.112-5.104v-.704c0-.7147-.182-1.264-.544-1.648-.363-.3947-.886-.592-1.568-.592-.672 0-1.195.1973-1.568.592-.363.384-.544.9333-.544 1.648v.56h4.352zm3.962 4.944v-8.8h1.76l1.28 3.584c.106.3093.208.624.304.944s.165.5707.208.752c.053-.1813.122-.432.208-.752.096-.32.197-.64.304-.96l1.232-3.568h1.744v8.8h-1.232v-2.112c0-.4587.005-.9493.016-1.472.01-.5227.021-1.0453.032-1.568.01-.5227.026-1.0133.048-1.472.021-.4693.037-.88.048-1.232l-1.744 5.216h-1.344l-1.744-5.184c.021.4267.037.9653.048 1.616.01.64.021 1.3173.032 2.032.021.7147.032 1.4027.032 2.064v2.112zm19.459 2.88v-11.68h1.264v1.552h.336l-.384.528c0-.6933.224-1.2373.672-1.632.459-.4053 1.061-.608 1.808-.608.885 0 1.589.2933 2.112.88.533.576.8 1.3653.8 2.368v2.608c0 .672-.123 1.2533-.368 1.744-.245.48-.587.8533-1.024 1.12-.427.2667-.933.4-1.52.4-.736 0-1.333-.2027-1.792-.608s-.688-.9493-.688-1.632l.336.528h-.304l.016 1.792v2.64zm3.296-3.824c.64 0 1.136-.192 1.488-.576.363-.384.544-.928.544-1.632v-2.496c0-.7147-.181-1.2587-.544-1.632-.352-.384-.848-.576-1.488-.576-.619 0-1.115.1973-1.488.592-.363.384-.544.9227-.544 1.616v2.496c0 .6933.181 1.2373.544 1.632.373.384.869.576 1.488.576zm8.858 1.104c-.928 0-1.659-.2347-2.192-.704-.534-.48-.8-1.1253-.8-1.936 0-.8.261-1.4293.784-1.888.522-.4693 1.226-.704 2.112-.704h2.8v-.928c0-.5867-.171-1.04-.512-1.36-.342-.32-.827-.48-1.456-.48-.555 0-1.019.1227-1.392.368-.363.2453-.571.576-.624.992h-1.28c.106-.7573.458-1.36 1.056-1.808.608-.448 1.365-.672 2.272-.672.981 0 1.76.2667 2.336.8.576.5227.864 1.232.864 2.128v6.032h-1.248v-1.712h-.208l.24-.256c0 .6507-.251 1.168-.752 1.552-.502.384-1.168.576-2 .576zm.304-1.024c.704 0 1.28-.176 1.728-.528s.672-.8107.672-1.376v-1.328h-2.784c-.502 0-.902.1387-1.2.416-.299.2773-.448.656-.448 1.136 0 .512.181.9227.544 1.232.362.2987.858.448 1.488.448zm9.562.992c-.918 0-1.659-.1973-2.224-.592-.566-.3947-.907-.928-1.024-1.6h1.328c.085.3093.293.5653.624.768.341.192.773.288 1.296.288h.784c.544 0 .97-.1333 1.28-.4.32-.2773.48-.624.48-1.04 0-.448-.15-.8107-.448-1.088-.299-.2773-.726-.416-1.28-.416h-1.968v-1.104h1.936c.501 0 .885-.128 1.152-.384.277-.256.416-.5867.416-.992 0-.2773-.064-.5173-.192-.72s-.315-.3573-.56-.464c-.246-.1173-.528-.176-.848-.176h-.832c-.48 0-.875.1067-1.184.32-.31.2027-.502.464-.576.784h-1.328c.106-.6613.432-1.2.976-1.616.554-.416 1.258-.624 2.112-.624h.832c.597 0 1.114.1013 1.552.304.437.2027.773.4853 1.008.848.245.3627.368.7893.368 1.28 0 .5333-.166.976-.496 1.328-.32.3413-.774.5333-1.36.576v.064c.704.0427 1.221.2507 1.552.624.33.3627.496.864.496 1.504 0 .7573-.283 1.3707-.848 1.84-.555.4587-1.302.688-2.24.688zm10.009.016c-.682 0-1.274-.1333-1.776-.4-.501-.2667-.89-.6507-1.168-1.152-.277-.5013-.416-1.0933-.416-1.776v-2.432c0-.6933.139-1.2853.416-1.776.278-.5013.667-.8853 1.168-1.152.502-.2667 1.094-.4 1.776-.4.683 0 1.275.1333 1.776.4.502.2667.891.6507 1.168 1.152.278.4907.416 1.0773.416 1.76v2.448c0 .6827-.138 1.2747-.416 1.776-.277.5013-.666.8853-1.168 1.152-.501.2667-1.093.4-1.776.4zm0-1.136c.662 0 1.174-.1867 1.536-.56.363-.3733.544-.9173.544-1.632v-2.432c0-.7147-.186-1.2587-.56-1.632-.362-.3733-.869-.56-1.52-.56-.65 0-1.162.1867-1.536.56-.362.3733-.544.9173-.544 1.632v2.432c0 .7147.182 1.2587.544 1.632.374.3733.886.56 1.536.56zm9.594 1.152c-1.024 0-1.829-.304-2.416-.912s-.88-1.4453-.88-2.512v-4.096c0-1.3867.347-2.4533 1.04-3.2s1.685-1.12 2.976-1.12h2.176v1.264h-2.176c-.896 0-1.579.2667-2.048.8-.469.5227-.704 1.2747-.704 2.256v1.104h.224l-.224.384c.011-.64.224-1.1413.64-1.504.427-.3627 1.008-.544 1.744-.544.939 0 1.664.2987 2.176.896.512.5867.768 1.408.768 2.464v1.296c0 .7147-.133 1.328-.4 1.84-.256.512-.629.9067-1.12 1.184-.491.2667-1.083.4-1.776.4zm0-1.136c.651 0 1.152-.1973 1.504-.592s.528-.96.528-1.696v-1.296c0-.7253-.176-1.2907-.528-1.696s-.853-.608-1.504-.608-1.152.2027-1.504.608-.528.9707-.528 1.696v1.296c0 .736.176 1.3013.528 1.696.363.3947.864.592 1.504.592zm6.346 3.856v-11.68h1.264v1.552h.336l-.384.528c0-.6933.224-1.2373.672-1.632.458-.4053 1.061-.608 1.808-.608.885 0 1.589.2933 2.112.88.533.576.8 1.3653.8 2.368v2.608c0 .672-.123 1.2533-.368 1.744-.246.48-.587.8533-1.024 1.12-.427.2667-.934.4-1.52.4-.736 0-1.334-.2027-1.792-.608-.459-.4053-.688-.9493-.688-1.632l.336.528h-.304l.016 1.792v2.64zm3.296-3.824c.64 0 1.136-.192 1.488-.576.362-.384.544-.928.544-1.632v-2.496c0-.7147-.182-1.2587-.544-1.632-.352-.384-.848-.576-1.488-.576-.619 0-1.115.1973-1.488.592-.363.384-.544.9227-.544 1.616v2.496c0 .6933.181 1.2373.544 1.632.373.384.869.576 1.488.576zm8.857 1.104c-.927 0-1.658-.2347-2.191-.704-.534-.48-.8-1.1253-.8-1.936 0-.8.261-1.4293.784-1.888.522-.4693 1.226-.704 2.112-.704h2.8v-.928c0-.5867-.171-1.04-.512-1.36-.342-.32-.827-.48-1.456-.48-.555 0-1.019.1227-1.392.368-.363.2453-.571.576-.624.992h-1.28c.106-.7573.458-1.36 1.056-1.808.608-.448 1.365-.672 2.272-.672.981 0 1.76.2667 2.336.8.576.5227.863 1.232.863 2.128v6.032h-1.247v-1.712h-.208l.24-.256c0 .6507-.251 1.168-.752 1.552-.502.384-1.168.576-2.001.576zm.305-1.024c.704 0 1.28-.176 1.728-.528s.672-.8107.672-1.376v-1.328h-2.784c-.502 0-.902.1387-1.2.416-.299.2773-.448.656-.448 1.136 0 .512.181.9227.544 1.232.362.2987.858.448 1.488.448zm9.337.864v-7.664h-3.2v-1.136h7.68v1.136h-3.2v7.664zm7.082 0v-8.8h1.264v3.232h2.64c.981 0 1.755.2507 2.32.752.576.4907.864 1.168.864 2.032 0 .8533-.288 1.5307-.864 2.032-.565.5013-1.339.752-2.32.752zm1.264-1.152h2.64c.608 0 1.072-.1387 1.392-.416.32-.288.48-.6933.48-1.216s-.16-.9227-.48-1.2c-.32-.288-.784-.432-1.392-.432h-2.64zm11.498 1.312c-.683 0-1.28-.1333-1.792-.4s-.912-.6453-1.2-1.136c-.278-.5013-.416-1.0933-.416-1.776v-2.496c0-.6827.138-1.2693.416-1.76.288-.5013.688-.8853 1.2-1.152s1.109-.4 1.792-.4c1.002 0 1.808.272 2.416.816s.922 1.2853.944 2.224h-1.264c-.022-.608-.219-1.0773-.592-1.408-.363-.3307-.864-.496-1.504-.496-.651 0-1.168.192-1.552.576-.384.3733-.576.9067-.576 1.6v2.496c0 .6827.192 1.216.576 1.6s.901.576 1.552.576c.64 0 1.141-.1653 1.504-.496.373-.3413.57-.8107.592-1.408h1.264c-.022.9387-.336 1.68-.944 2.224s-1.414.816-2.416.816zm5.85-.16 2.24-3.408c-.683-.1493-1.211-.4533-1.584-.912-.374-.4587-.56-1.0347-.56-1.728 0-.8533.282-1.5253.848-2.016.576-.4907 1.354-.736 2.336-.736h3.68v8.8h-1.28v-3.296h-2.128l-2.08 3.296zm3.28-4.432h2.4v-3.232h-2.4c-.576 0-1.035.144-1.376.432-.342.288-.512.6827-.512 1.184s.17.896.512 1.184c.341.288.8.432 1.376.432zm16.403 4.432v-8.8h1.232v5.008c0 .2987-.011.6187-.032.96-.011.3307-.027.6453-.048.944s-.043.5493-.064.752l3.728-7.664h1.648v8.8h-1.232v-5.008c0-.3093.005-.6293.016-.96.021-.3307.043-.6453.064-.944.032-.3093.053-.5653.064-.768l-3.744 7.68zm19.188 0v-8.8h1.28v3.744h3.904v-3.744h1.28v8.8h-1.28v-3.904h-3.904v3.904zm12.137.16c-.928 0-1.658-.2347-2.192-.704-.533-.48-.8-1.1253-.8-1.936 0-.8.262-1.4293.784-1.888.523-.4693 1.227-.704 2.112-.704h2.8v-.928c0-.5867-.17-1.04-.512-1.36-.341-.32-.826-.48-1.456-.48-.554 0-1.018.1227-1.392.368-.362.2453-.57.576-.624.992h-1.28c.107-.7573.459-1.36 1.056-1.808.608-.448 1.366-.672 2.272-.672.982 0 1.76.2667 2.336.8.576.5227.864 1.232.864 2.128v6.032h-1.248v-1.712h-.208l.24-.256c0 .6507-.25 1.168-.752 1.552-.501.384-1.168.576-2 .576zm.304-1.024c.704 0 1.28-.176 1.728-.528s.672-.8107.672-1.376v-1.328h-2.784c-.501 0-.901.1387-1.2.416-.298.2773-.448.656-.448 1.136 0 .512.182.9227.544 1.232.363.2987.859.448 1.488.448zm8.122 3.744 1.296-3.44-3.264-8.24h1.408l2.08 5.488c.085.2133.165.4533.24.72.085.256.149.4693.192.64.053-.1707.117-.3893.192-.656s.149-.5067.224-.72l1.952-5.472h1.36l-4.336 11.68zm13.322-2.88v-3.248c-.171.0427-.438.0853-.8.128-.363.032-.768.048-1.216.048-1.056.0107-1.878-.2507-2.464-.784-.576-.5333-.864-1.2853-.864-2.256v-2.688h1.264v2.688c0 .5973.181 1.0613.544 1.392.373.3307.901.496 1.584.496.49 0 .906-.016 1.248-.048.341-.0427.576-.08.704-.112v-4.416h1.264v8.8zm4.49 0v-8.8h1.232v5.008c0 .2987-.011.6187-.032.96-.011.3307-.027.6453-.048.944-.022.2987-.043.5493-.064.752l3.728-7.664h1.648v8.8h-1.232v-5.008c0-.3093.005-.6293.016-.96.021-.3307.042-.6453.064-.944.032-.3093.053-.5653.064-.768l-3.744 7.68zm9.305 0v-8.8h1.76l1.28 3.584c.107.3093.208.624.304.944s.166.5707.208.752c.054-.1813.123-.432.208-.752.096-.32.198-.64.304-.96l1.232-3.568h1.744v8.8h-1.232v-2.112c0-.4587.006-.9493.016-1.472.011-.5227.022-1.0453.032-1.568.011-.5227.027-1.0133.048-1.472.022-.4693.038-.88.048-1.232l-1.744 5.216h-1.344l-1.744-5.184c.022.4267.038.9653.048 1.616.011.64.022 1.3173.032 2.032.022.7147.032 1.4027.032 2.064v2.112zm18.452 2.24v-3.328h.72c.181-.2027.368-.5653.56-1.088.202-.5333.309-1.1787.32-1.936l.096-4.688h5.6v7.712h1.136v3.328h-1.136v-2.24h-6.16v2.24zm2.08-3.328h3.952v-6.576h-3.136l-.064 3.568c-.011.8-.102 1.456-.272 1.968-.171.512-.331.8587-.48 1.04zm9.914 3.968 1.296-3.44-3.264-8.24h1.408l2.08 5.488c.085.2133.165.4533.239.72.086.256.15.4693.193.64.053-.1707.117-.3893.192-.656.074-.2667.149-.5067.224-.72l1.952-5.472h1.36l-4.336 11.68zm7.929-2.88v-8.8h1.76l1.28 3.584c.107.3093.208.624.304.944s.166.5707.208.752c.054-.1813.123-.432.208-.752.096-.32.198-.64.304-.96l1.232-3.568h1.744v8.8h-1.232v-2.112c0-.4587.006-.9493.016-1.472.011-.5227.022-1.0453.032-1.568.011-.5227.027-1.0133.048-1.472.022-.4693.038-.88.048-1.232l-1.744 5.216h-1.344l-1.744-5.184c.022.4267.038.9653.048 1.616.011.64.022 1.3173.032 2.032.022.7147.032 1.4027.032 2.064v2.112zm12.426.16c-.928 0-1.659-.2347-2.192-.704-.533-.48-.8-1.1253-.8-1.936 0-.8.261-1.4293.784-1.888.523-.4693 1.227-.704 2.112-.704h2.8v-.928c0-.5867-.171-1.04-.512-1.36s-.827-.48-1.456-.48c-.555 0-1.019.1227-1.392.368-.363.2453-.571.576-.624.992h-1.28c.107-.7573.459-1.36 1.056-1.808.608-.448 1.365-.672 2.272-.672.981 0 1.76.2667 2.336.8.576.5227.864 1.232.864 2.128v6.032h-1.248v-1.712h-.208l.24-.256c0 .6507-.251 1.168-.752 1.552s-1.168.576-2 .576zm.304-1.024c.704 0 1.28-.176 1.728-.528s.672-.8107.672-1.376v-1.328h-2.784c-.501 0-.901.1387-1.2.416s-.448.656-.448 1.136c0 .512.181.9227.544 1.232.363.2987.859.448 1.488.448zm9.338.864v-7.664h-3.2v-1.136h7.68v1.136h-3.2v7.664zm7.082 0v-8.8h1.264v3.232h2.64c.981 0 1.754.2507 2.32.752.576.4907.864 1.168.864 2.032 0 .8533-.288 1.5307-.864 2.032-.566.5013-1.339.752-2.32.752zm1.264-1.152h2.64c.608 0 1.072-.1387 1.392-.416.32-.288.48-.6933.48-1.216s-.16-.9227-.48-1.2c-.32-.288-.784-.432-1.392-.432h-2.64zm9.433 3.712 1.248-4.976h1.92l-2.064 4.976zm18.052-2.56v-8.8h1.28v3.696h1.664l2.608-3.696h1.456l-2.96 4.192 3.024 4.608h-1.488l-2.64-4h-1.664v4zm12.089.16c-.927 0-1.658-.2347-2.191-.704-.534-.48-.8-1.1253-.8-1.936 0-.8.261-1.4293.784-1.888.522-.4693 1.226-.704 2.112-.704h2.8v-.928c0-.5867-.171-1.04-.512-1.36-.342-.32-.827-.48-1.456-.48-.555 0-1.019.1227-1.392.368-.363.2453-.571.576-.624.992h-1.28c.106-.7573.458-1.36 1.056-1.808.608-.448 1.365-.672 2.272-.672.981 0 1.76.2667 2.336.8.576.5227.863 1.232.863 2.128v6.032h-1.247v-1.712h-.208l.24-.256c0 .6507-.251 1.168-.752 1.552-.502.384-1.168.576-2.001.576zm.305-1.024c.704 0 1.28-.176 1.728-.528s.672-.8107.672-1.376v-1.328h-2.784c-.502 0-.902.1387-1.2.416-.299.2773-.448.656-.448 1.136 0 .512.181.9227.544 1.232.362.2987.858.448 1.488.448zm6.793.864v-8.8h1.28v3.696h1.664l2.608-3.696h1.456l-2.96 4.192 3.024 4.608h-1.488l-2.64-4h-1.664v4zm19.14 0v-8.8h1.232v5.008c0 .2987-.011.6187-.032.96-.011.3307-.027.6453-.048.944-.022.2987-.043.5493-.064.752l3.728-7.664h1.648v8.8h-1.232v-5.008c0-.3093.005-.6293.016-.96.021-.3307.042-.6453.064-.944.032-.3093.053-.5653.064-.768l-3.744 7.68zm9.594 0v-8.8h1.28v3.744h3.904v-3.744h1.28v8.8h-1.28v-3.904h-3.904v3.904zm8.393 0 1.92-4.512-1.792-4.288h1.232l1.584 3.888h.944v-3.888h1.088v3.888h.912l1.632-3.888h1.216l-1.792 4.24 1.92 4.56h-1.28l-1.648-4.048h-.96v4.048h-1.088v-4.048h-.96l-1.68 4.048zm14.026.16c-.683 0-1.275-.1333-1.776-.4-.501-.2773-.891-.6667-1.168-1.168s-.416-1.0827-.416-1.744v-2.496c0-.672.139-1.2533.416-1.744.277-.5013.667-.8853 1.168-1.152.501-.2773 1.093-.416 1.776-.416s1.275.1387 1.776.416c.501.2667.891.6507 1.168 1.152.277.4907.416 1.072.416 1.744v1.552h-5.472v.944c0 .7147.181 1.2693.544 1.664.373.384.896.576 1.568.576.565 0 1.024-.112 1.376-.336.363-.224.592-.5493.688-.976h1.264c-.117.736-.475 1.3173-1.072 1.744s-1.349.64-2.256.64zm2.112-5.104v-.704c0-.7147-.181-1.264-.544-1.648-.363-.3947-.885-.592-1.568-.592-.672 0-1.195.1973-1.568.592-.363.384-.544.9333-.544 1.648v.56h4.352zm4.25 4.944v-8.8h1.28v3.744h3.904v-3.744h1.28v8.8h-1.28v-3.904h-3.904v3.904zm12.826.16c-.683 0-1.275-.1333-1.776-.4-.502-.2773-.891-.6667-1.168-1.168-.278-.5013-.416-1.0827-.416-1.744v-2.496c0-.672.138-1.2533.416-1.744.277-.5013.666-.8853 1.168-1.152.501-.2773 1.093-.416 1.776-.416.682 0 1.274.1387 1.776.416.501.2667.89.6507 1.168 1.152.277.4907.416 1.072.416 1.744v1.552h-5.472v.944c0 .7147.181 1.2693.544 1.664.373.384.896.576 1.568.576.565 0 1.024-.112 1.376-.336.362-.224.592-.5493.688-.976h1.264c-.118.736-.475 1.3173-1.072 1.744-.598.4267-1.35.64-2.256.64zm2.112-5.104v-.704c0-.7147-.182-1.264-.544-1.648-.363-.3947-.886-.592-1.568-.592-.672 0-1.195.1973-1.568.592-.363.384-.544.9333-.544 1.648v.56h4.352zm4.233 7.824v-11.68h1.264v1.552h.336l-.384.528c0-.6933.224-1.2373.672-1.632.459-.4053 1.062-.608 1.808-.608.886 0 1.59.2933 2.112.88.534.576.8 1.3653.8 2.368v2.608c0 .672-.122 1.2533-.368 1.744-.245.48-.586.8533-1.024 1.12-.426.2667-.933.4-1.52.4-.736 0-1.333-.2027-1.792-.608-.458-.4053-.688-.9493-.688-1.632l.336.528h-.304l.016 1.792v2.64zm3.296-3.824c.64 0 1.136-.192 1.488-.576.363-.384.544-.928.544-1.632v-2.496c0-.7147-.181-1.2587-.544-1.632-.352-.384-.848-.576-1.488-.576-.618 0-1.114.1973-1.488.592-.362.384-.544.9227-.544 1.616v2.496c0 .6933.182 1.2373.544 1.632.374.384.87.576 1.488.576zm9.546 1.104c-.395 0-.709-.112-.944-.336-.224-.2347-.336-.544-.336-.928 0-.4053.112-.7253.336-.96.235-.2347.549-.352.944-.352s.704.1173.928.352c.235.2347.352.5547.352.96 0 .384-.117.6933-.352.928-.224.224-.533.336-.928.336z"/></g></g></svg>