<svg fill="none" height="160" viewBox="0 0 375 160" width="375" xmlns="http://www.w3.org/2000/svg"><path d="m0 0h375v160h-375z" fill="#484439"/><path d="m15 38h35v5.99998h-35z" fill="#ffc834"/><g fill="#fff"><path d="m15 28.702 6.4969-.0106c.0416.4245.2217.7322.5405.9233.3257.1839.8489.2759 1.5697.2759.6029 0 1.0568-.0672 1.3617-.2017.3119-.1415.4678-.3502.4678-.6261 0-.4811-.8074-.7959-2.422-.9445-.3188-.0353-.5614-.0601-.7277-.0743-.0139 0-.0277 0-.0416 0-2.6057-.2617-4.3659-.6013-5.2806-1.0187-.5337-.2406-.946-.6191-1.237-1.1355-.2842-.5165-.4262-1.1249-.4262-1.8253 0-1.4079.6306-2.4373 1.8918-3.0882 1.2613-.6509 3.271-.9763 6.0292-.9763 2.6056 0 4.5426.3325 5.8108.9975 1.2751.6651 1.9542 1.6945 2.0374 3.0882h-6.1227c-.0346-.4103-.2217-.7075-.5613-.8914-.3326-.184-.8697-.2759-1.6112-.2759-.6307 0-1.095.0707-1.393.2122-.291.1344-.4366.3467-.4366.6367 0 .467.693.757 2.079.8702.2911.0283.5129.0496.6653.0637.1109.0071.2842.0212.5198.0425 2.7928.2546 4.4213.4634 4.8856.6261.9148.3325 1.5593.7428 1.9335 1.231.3742.4811.5613 1.1426.5613 1.9845 0 1.5564-.6722 2.6813-2.0166 3.3747-1.3375.6933-3.5343 1.04-6.5904 1.04-2.7166 0-4.7124-.3432-5.9876-1.0294-1.2681-.6934-1.9334-1.7829-1.9958-3.2686z"/><path d="m50 27.2375c-.194 1.9173-1.0049 3.357-2.4324 4.3192-1.4207.9622-3.4477 1.4433-6.0811 1.4433-2.7235 0-4.8302-.566-6.3202-1.698-1.483-1.132-2.2245-2.7309-2.2245-4.7967 0-2.0588.7415-3.6577 2.2245-4.7967 1.49-1.1391 3.5967-1.7086 6.3202-1.7086 2.5294 0 4.501.4422 5.9147 1.3265 1.4138.8844 2.2454 2.1968 2.4948 3.9372h-5.7068c-.2148-.559-.5371-.9764-.9668-1.2523-.4296-.283-.9667-.4245-1.6112-.4245-.9494 0-1.6944.2583-2.2349.7747-.5405.5094-.8108 1.2169-.8108 2.1225 0 .8772.2633 1.5741.79 2.0906.5267.5164 1.237.7747 2.131.7747.7415 0 1.3652-.1875 1.8711-.5625.5128-.382.8316-.8985.9563-1.5494z"/><path d="m20.2147 58.6c0 .8017.2444 1.4466.7333 1.9346.4889.481 1.1339.7216 1.9351.7216.8148 0 1.4632-.2406 1.9453-.7216.4889-.488.7333-1.1329.7333-1.9346 0-.8087-.2444-1.4536-.7333-1.9347-.4821-.481-1.1305-.7215-1.9453-.7215-.8012 0-1.4462.2405-1.9351.7215-.4889.4811-.7333 1.126-.7333 1.9347zm-5.2147 5.9921v-15.5921h5.2147v4.5804c.6314-.4323 1.3002-.753 2.0064-.9621.7129-.2161 1.4904-.3242 2.3323-.3242 1.9827 0 3.558.5682 4.7258 1.7046 1.1747 1.1364 1.762 2.6701 1.762 4.6013 0 1.9032-.5805 3.43-1.7416 4.5803-1.1611 1.1434-2.716 1.7151-4.6647 1.7151-.9166 0-1.7586-.122-2.5258-.366-.7673-.251-1.4667-.624-2.0981-1.119l-.0408 1.1817z"/><path d="m49.0278 59.3215c-.1901 1.8893-.9846 3.3081-2.3833 4.2562-1.3919.9482-3.378 1.4222-5.9582 1.4222-2.6684 0-4.7326-.5577-6.1924-1.6732-1.453-1.1154-2.1796-2.691-2.1796-4.7267 0-2.0288.7266-3.6044 2.1796-4.7268 1.4598-1.1225 3.524-1.6837 6.1924-1.6837 2.4784 0 4.4101.4358 5.7952 1.3072 1.3852.8715 2.2 2.1647 2.4444 3.8797h-5.5915c-.2105-.5507-.5262-.962-.9472-1.2339-.421-.2789-.9472-.4183-1.5786-.4183-.9303 0-1.6602.2544-2.1898.7634-.5296.5019-.7944 1.1991-.7944 2.0915 0 .8644.258 1.5511.774 2.0601.5161.5089 1.212.7634 2.0879.7634.7266 0 1.3377-.1848 1.8333-.5543.5025-.3764.8148-.8854.937-1.5268z"/><path d="m73.542 37 1.65-4.07-4.642-11.99h3.564l2.112 6.534c.1173.352.22.7553.308 1.21.1027.4547.176.8287.22 1.122.0293-.2933.0807-.6673.154-1.122.088-.4693.1833-.8727.286-1.21l2.002-6.534h3.454l-5.654 16.06zm10.1334 3.08v-5.874h.682c.2493-.2493.506-.682.77-1.298.2787-.6307.4253-1.3933.44-2.288l.11-5.72h8.91v9.306h1.32v5.874h-3.08v-3.08h-6.072v3.08zm3.96-5.874h3.872v-6.468h-2.794l-.066 2.86c-.0147.8507-.1393 1.5987-.374 2.244-.22.6307-.4327 1.0853-.638 1.364zm15.3696 3.014c-1.071 0-2.01-.198-2.816-.594-.7922-.4107-1.4082-.9753-1.8482-1.694-.4253-.7333-.638-1.584-.638-2.552v-2.86c0-.968.2127-1.8113.638-2.53.44-.7333 1.056-1.298 1.8482-1.694.806-.4107 1.745-.616 2.816-.616 1.07 0 1.994.2053 2.772.616.792.396 1.4.9607 1.826 1.694.44.7187.66 1.562.66 2.53v2.2h-7.414v.66c0 .7627.183 1.342.55 1.738.366.3813.916.572 1.65.572.513 0 .924-.088 1.232-.264.322-.176.535-.418.638-.726h3.234c-.264 1.056-.866 1.9067-1.804 2.552-.924.6453-2.039.968-3.344.968zm2.112-7.194v-.55c0-.748-.176-1.32-.528-1.716-.338-.396-.866-.594-1.584-.594-.719 0-1.262.2053-1.628.616-.352.4107-.528.99-.528 1.738v.33l4.488-.044zm4.919 7.128v-2.97h.66c.382 0 .697-.1613.946-.484.25-.3227.382-.748.396-1.276l.132-7.524h9.152v12.1h-3.3v-9.02h-2.618l-.088 4.664c-.014.8947-.212 1.6867-.594 2.376-.366.6747-.88 1.2027-1.54 1.584-.645.3667-1.4.55-2.266.55zm13.83-.154 2.64-4.246c-.778-.2933-1.386-.7553-1.826-1.386s-.66-1.3713-.66-2.222c0-1.3347.447-2.376 1.342-3.124.894-.748 2.134-1.122 3.718-1.122h5.434v12.1h-3.278v-3.828h-1.452l-2.2 3.828zm5.412-6.336h1.98v-3.146h-1.98c-.616 0-1.1.1393-1.452.418s-.528.6673-.528 1.166.168.8873.506 1.166c.352.264.843.396 1.474.396zm13.301 6.556c-1.071 0-2.009-.198-2.816-.594-.792-.4107-1.408-.9753-1.848-1.694-.425-.7333-.638-1.584-.638-2.552v-2.86c0-.968.213-1.8113.638-2.53.44-.7333 1.056-1.298 1.848-1.694.807-.4107 1.745-.616 2.816-.616s1.995.2053 2.772.616c.792.396 1.401.9607 1.826 1.694.44.7187.66 1.562.66 2.53v2.2h-7.414v.66c0 .7627.183 1.342.55 1.738.367.3813.917.572 1.65.572.513 0 .924-.088 1.232-.264.323-.176.535-.418.638-.726h3.234c-.264 1.056-.865 1.9067-1.804 2.552-.924.6453-2.039.968-3.344.968zm2.112-7.194v-.55c0-.748-.176-1.32-.528-1.716-.337-.396-.865-.594-1.584-.594s-1.261.2053-1.628.616c-.352.4107-.528.99-.528 1.738v.33l4.488-.044zm5.381 6.974v-12.1h3.718l1.43 4.51c.162.5133.286.9827.374 1.408.103.4107.162.7187.176.924.03-.2053.081-.5133.154-.924.088-.4253.213-.8947.374-1.408l1.408-4.51h3.718v12.1h-3.014v-2.2c0-.484.008-1.0267.022-1.628.03-.616.059-1.2467.088-1.892.044-.66.081-1.2907.11-1.892.044-.616.088-1.1587.132-1.628l-1.606 5.83h-2.794l-1.694-5.83c.059.6013.118 1.32.176 2.156.074.836.132 1.6867.176 2.552.044.8507.066 1.628.066 2.332v2.2zm26.889 0v-12.1h5.478c1.482 0 2.655.3007 3.52.902.88.5867 1.32 1.386 1.32 2.398 0 .8067-.33 1.4593-.99 1.958-.66.484-1.532.726-2.618.726v-.22c1.188 0 2.134.264 2.838.792.719.528 1.078 1.2247 1.078 2.09 0 1.0707-.44 1.914-1.32 2.53-.865.616-2.046.924-3.542.924zm3.234-2.332h2.376c.543 0 .976-.1247 1.298-.374.338-.264.506-.6013.506-1.012 0-.44-.168-.792-.506-1.056-.322-.264-.755-.396-1.298-.396h-2.376zm0-4.774h2.266c.499 0 .895-.1173 1.188-.352.294-.2493.44-.572.44-.968 0-.4107-.146-.7407-.44-.99-.293-.2493-.689-.374-1.188-.374h-2.266zm9.98 11.066v-16.06h3.19v2.31h.77l-.77.77c0-1.0413.286-1.848.858-2.42.572-.5867 1.356-.88 2.354-.88 1.217 0 2.192.4327 2.926 1.298.733.8507 1.1 1.9947 1.1 3.432v3.08c0 .9533-.169 1.7893-.506 2.508-.323.704-.785 1.254-1.386 1.65-.602.3813-1.313.572-2.134.572-.998 0-1.782-.286-2.354-.858-.572-.5867-.858-1.4007-.858-2.442l.77.77h-.77l.11 2.97v3.3zm5.214-6.6c.616 0 1.085-.1687 1.408-.506.337-.352.506-.8433.506-1.474v-2.86c0-.6453-.169-1.1367-.506-1.474-.323-.3373-.792-.506-1.408-.506-.602 0-1.071.176-1.408.528-.338.3373-.506.8213-.506 1.452v2.86c0 .6307.168 1.122.506 1.474.337.3373.806.506 1.408.506zm13.147 2.86c-1.071 0-2.009-.198-2.816-.594-.792-.4107-1.408-.9753-1.848-1.694-.425-.7333-.638-1.584-.638-2.552v-2.86c0-.968.213-1.8113.638-2.53.44-.7333 1.056-1.298 1.848-1.694.807-.4107 1.745-.616 2.816-.616s1.995.2053 2.772.616c.792.396 1.401.9607 1.826 1.694.44.7187.66 1.562.66 2.53v2.2h-7.414v.66c0 .7627.183 1.342.55 1.738.367.3813.917.572 1.65.572.513 0 .924-.088 1.232-.264.323-.176.535-.418.638-.726h3.234c-.264 1.056-.865 1.9067-1.804 2.552-.924.6453-2.039.968-3.344.968zm2.112-7.194v-.55c0-.748-.176-1.32-.528-1.716-.337-.396-.865-.594-1.584-.594s-1.261.2053-1.628.616c-.352.4107-.528.99-.528 1.738v.33l4.488-.044zm5.381 6.974v-12.1h3.718l1.43 4.51c.162.5133.286.9827.374 1.408.103.4107.162.7187.176.924.03-.2053.081-.5133.154-.924.088-.4253.213-.8947.374-1.408l1.408-4.51h3.718v12.1h-3.014v-2.2c0-.484.008-1.0267.022-1.628.03-.616.059-1.2467.088-1.892.044-.66.081-1.2907.11-1.892.044-.616.088-1.1587.132-1.628l-1.606 5.83h-2.794l-1.694-5.83c.059.6013.118 1.32.176 2.156.074.836.132 1.6867.176 2.552.044.8507.066 1.628.066 2.332v2.2zm13.368 0 2.64-4.246c-.777-.2933-1.386-.7553-1.826-1.386s-.66-1.3713-.66-2.222c0-1.3347.447-2.376 1.342-3.124s2.134-1.122 3.718-1.122h5.434v12.1h-3.278v-3.828h-1.452l-2.2 3.828zm5.412-6.336h1.98v-3.146h-1.98c-.616 0-1.1.1393-1.452.418s-.528.6673-.528 1.166.169.8873.506 1.166c.352.264.843.396 1.474.396zm-163.291 35.336v-12.1h3.3v4.576h1.628l2.53-4.576h3.674l-3.366 5.918 3.432 6.182h-3.74l-2.552-4.752h-1.606v4.752zm16.7114.22c-1.2173 0-2.1853-.33-2.904-.99-.704-.66-1.056-1.5547-1.056-2.684 0-1.2173.418-2.1487 1.254-2.794.8507-.66 2.068-.99 3.652-.99h2.508v-.902c0-.4693-.1687-.8433-.506-1.122-.3227-.2787-.7627-.418-1.32-.418-.5133 0-.9387.1173-1.276.352s-.5427.5573-.616.968h-3.19c.132-1.2173.66-2.178 1.584-2.882.9387-.7187 2.1413-1.078 3.608-1.078 1.54 0 2.7573.3813 3.652 1.144.9093.748 1.364 1.76 1.364 3.036v8.14h-3.19v-1.98h-.528l.55-.77c0 .9093-.33 1.6353-.99 2.178-.6453.528-1.5107.792-2.596.792zm1.232-2.42c.6453 0 1.1733-.1687 1.584-.506.4253-.352.638-.8067.638-1.364v-1.298h-2.442c-.4987 0-.902.1467-1.21.44-.308.2787-.462.6527-.462 1.122 0 .4987.1687.8947.506 1.188.3373.2787.7993.418 1.386.418zm6.9874 2.2 2.31-6.204-2.134-5.896h2.86l1.7822 5.39h.594v-5.39h2.244v5.39h.594l1.958-5.39h2.684l-2.134 5.83 2.31 6.27h-2.772l-2.024-5.61h-.616v5.61h-2.244v-5.61h-.638l-1.8482 5.61zm13.6092 3.08v-5.874h.682c.25-.2493.506-.682.77-1.298.279-.6307.426-1.3933.44-2.288l.11-5.72h8.91v9.306h1.32v5.874h-3.08v-3.08h-6.072v3.08zm3.96-5.874h3.872v-6.468h-2.794l-.066 2.86c-.014.8507-.139 1.5987-.374 2.244-.22.6307-.432 1.0853-.638 1.364zm15.348 3.014c-1.071 0-2.002-.198-2.794-.594-.792-.4107-1.408-.9753-1.848-1.694-.426-.7333-.638-1.584-.638-2.552v-2.86c0-.968.212-1.8113.638-2.53.44-.7333 1.056-1.298 1.848-1.694.792-.4107 1.723-.616 2.794-.616 1.085 0 2.016.2053 2.794.616.792.396 1.4.9607 1.826 1.694.44.7187.66 1.562.66 2.53v2.86c0 .968-.22 1.8187-.66 2.552-.426.7187-1.034 1.2833-1.826 1.694-.778.396-1.709.594-2.794.594zm0-2.86c.645 0 1.136-.1687 1.474-.506.337-.352.506-.8433.506-1.474v-2.86c0-.6453-.169-1.1367-.506-1.474-.338-.3373-.829-.506-1.474-.506-.631 0-1.122.1687-1.474.506-.338.3373-.506.8287-.506 1.474v2.86c0 .6307.168 1.122.506 1.474.352.3373.843.506 1.474.506zm7.515 2.64v-12.1h3.718l1.43 4.51c.161.5133.286.9827.374 1.408.103.4107.161.7187.176.924.029-.2053.081-.5133.154-.924.088-.4253.213-.8947.374-1.408l1.408-4.51h3.718v12.1h-3.014v-2.2c0-.484.007-1.0267.022-1.628.029-.616.059-1.2467.088-1.892.044-.66.081-1.2907.11-1.892.044-.616.088-1.1587.132-1.628l-1.606 5.83h-2.794l-1.694-5.83c.059.6013.117 1.32.176 2.156.073.836.132 1.6867.176 2.552.044.8507.066 1.628.066 2.332v2.2zm15.721 3.96 1.65-4.554-4.532-11.506h3.586l1.826 5.28c.132.396.264.88.396 1.452.147.5573.257 1.012.33 1.364.074-.352.176-.8067.308-1.364.147-.572.286-1.056.418-1.452l1.76-5.28h3.432l-5.72 16.06zm29.595-3.74c-1.07 0-2.009-.198-2.816-.594-.806-.4107-1.43-.9753-1.87-1.694-.44-.7333-.66-1.584-.66-2.552v-2.86c0-.9827.22-1.8333.66-2.552s1.064-1.276 1.87-1.672c.807-.4107 1.746-.616 2.816-.616 1.599 0 2.875.4033 3.828 1.21.954.8067 1.46 1.9067 1.518 3.3h-3.3c-.044-.5133-.249-.9167-.616-1.21-.352-.2933-.828-.44-1.43-.44-.66 0-1.166.1687-1.518.506s-.528.8287-.528 1.474v2.86c0 .6307.176 1.122.528 1.474.352.3373.858.506 1.518.506.602 0 1.078-.1393 1.43-.418.367-.2933.572-.704.616-1.232h3.3c-.058 1.3933-.564 2.4933-1.518 3.3-.953.8067-2.229 1.21-3.828 1.21zm11.476-.22v-9.02h-3.96v-3.08h11.22v3.08h-3.96v9.02zm11.695 3.96 1.65-4.554-4.532-11.506h3.586l1.826 5.28c.132.396.264.88.396 1.452.147.5573.257 1.012.33 1.364.073-.352.176-.8067.308-1.364.147-.572.286-1.056.418-1.452l1.76-5.28h3.432l-5.72 16.06zm10.221-.88v-5.874h.682c.25-.2493.506-.682.77-1.298.279-.6307.426-1.3933.44-2.288l.11-5.72h8.91v9.306h1.32v5.874h-3.08v-3.08h-6.072v3.08zm3.96-5.874h3.872v-6.468h-2.794l-.066 2.86c-.014.8507-.139 1.5987-.374 2.244-.22.6307-.432 1.0853-.638 1.364zm15.37 3.014c-1.071 0-2.009-.198-2.816-.594-.792-.4107-1.408-.9753-1.848-1.694-.425-.7333-.638-1.584-.638-2.552v-2.86c0-.968.213-1.8113.638-2.53.44-.7333 1.056-1.298 1.848-1.694.807-.4107 1.745-.616 2.816-.616s1.995.2053 2.772.616c.792.396 1.401.9607 1.826 1.694.44.7187.66 1.562.66 2.53v2.2h-7.414v.66c0 .7627.183 1.342.55 1.738.367.3813.917.572 1.65.572.513 0 .924-.088 1.232-.264.323-.176.535-.418.638-.726h3.234c-.264 1.056-.865 1.9067-1.804 2.552-.924.6453-2.039.968-3.344.968zm2.112-7.194v-.55c0-.748-.176-1.32-.528-1.716-.337-.396-.865-.594-1.584-.594s-1.261.2053-1.628.616c-.352.4107-.528.99-.528 1.738v.33l4.488-.044zm5.909 6.974v-12.1h3.3v4.422h3.696v-4.422h3.3v12.1h-3.3v-4.598h-3.696v4.598zm16.69 0v-9.02h-3.96v-3.08h11.22v3.08h-3.96v9.02zm11.695 3.96 1.65-4.554-4.532-11.506h3.586l1.826 5.28c.132.396.264.88.396 1.452.147.5573.257 1.012.33 1.364.073-.352.176-.8067.308-1.364.147-.572.286-1.056.418-1.452l1.76-5.28h3.432l-5.72 16.06z"/><path d="m19.8 99.16c-.6827 0-1.2747-.1333-1.776-.4-.4907-.2667-.8693-.6453-1.136-1.136-.2667-.5013-.4-1.0933-.4-1.776v-5.376c0-.6827.1333-1.2693.4-1.76.2667-.5013.6453-.8853 1.136-1.152.5013-.2667 1.0933-.4 1.776-.4s1.2693.1333 1.76.4c.5013.2667.8853.6507 1.152 1.152.2667.4907.4 1.0773.4 1.76v5.376c0 .6827-.1333 1.2747-.4 1.776-.2667.4907-.6507.8693-1.152 1.136-.4907.2667-1.0773.4-1.76.4zm0-1.136c.6613 0 1.168-.1867 1.52-.56.352-.384.528-.9227.528-1.616v-5.376c0-.6933-.1813-1.2267-.544-1.6-.352-.384-.8533-.576-1.504-.576s-1.1573.192-1.52.576c-.352.3733-.528.9067-.528 1.6v5.376c0 .6933.176 1.232.528 1.616.3627.3733.8693.56 1.52.56zm9.5938 1.136c-1.024 0-1.8294-.304-2.416-.912-.5867-.608-.88-1.4453-.88-2.512v-4.096c0-1.3867.3466-2.4533 1.04-3.2.6933-.7467 1.6853-1.12 2.976-1.12h2.176v1.264h-2.176c-.896 0-1.5787.2667-2.048.8-.4694.5227-.704 1.2747-.704 2.256v1.104h.224l-.224.384c.0106-.64.224-1.1413.64-1.504.4266-.3627 1.008-.544 1.744-.544.9386 0 1.664.2987 2.176.896.512.5867.768 1.408.768 2.464v1.296c0 .7147-.1334 1.328-.4 1.84-.256.512-.6294.9067-1.12 1.184-.4907.2667-1.0827.4-1.776.4zm0-1.136c.6506 0 1.152-.1973 1.504-.592s.528-.96.528-1.696v-1.296c0-.7253-.176-1.2907-.528-1.696s-.8534-.608-1.504-.608c-.6507 0-1.152.2027-1.504.608s-.528.9707-.528 1.696v1.296c0 .736.176 1.3013.528 1.696.3626.3947.864.592 1.504.592zm7.7377 3.856 1.296-3.44-3.264-8.24h1.408l2.08 5.488c.0853.2133.1653.4533.24.72.0853.256.1493.4693.192.64.0533-.1707.1173-.3893.192-.656s.1493-.5067.224-.72l1.952-5.472h1.36l-4.336 11.68zm13.3218-2.88v-3.248c-.1707.0427-.4374.0853-.8.128-.3627.032-.768.048-1.216.048-1.056.0107-1.8774-.2507-2.464-.784-.576-.5333-.864-1.2853-.864-2.256v-2.688h1.264v2.688c0 .5973.1813 1.0613.544 1.392.3733.3307.9013.496 1.584.496.4906 0 .9066-.016 1.248-.048.3413-.0427.576-.08.704-.112v-4.416h1.264v8.8zm7.0337.16c-.928 0-1.6587-.2347-2.192-.704-.5333-.48-.8-1.1253-.8-1.936 0-.8.2613-1.4293.784-1.888.5227-.4693 1.2267-.704 2.112-.704h2.8v-.928c0-.5867-.1707-1.04-.512-1.36s-.8267-.48-1.456-.48c-.5547 0-1.0187.1227-1.392.368-.3627.2453-.5707.576-.624.992h-1.28c.1067-.7573.4587-1.36 1.056-1.808.608-.448 1.3653-.672 2.272-.672.9813 0 1.76.2667 2.336.8.576.5227.864 1.232.864 2.128v6.032h-1.248v-1.712h-.208l.24-.256c0 .6507-.2507 1.168-.752 1.552s-1.168.576-2 .576zm.304-1.024c.704 0 1.28-.176 1.728-.528s.672-.8107.672-1.376v-1.328h-2.784c-.5013 0-.9013.1387-1.2.416s-.448.656-.448 1.136c0 .512.1813.9227.544 1.232.3627.2987.8587.448 1.488.448zm6.7458.864v-8.8h1.232v5.008c0 .2987-.0107.6187-.032.96-.0107.3307-.0267.6453-.048.944-.0214.2987-.0427.5493-.064.752l3.728-7.664h1.648v8.8h-1.232v-5.008c0-.3093.0053-.6293.016-.96.0213-.3307.0426-.6453.064-.944.032-.3093.0533-.5653.064-.768l-3.744 7.68zm3.296-10.256c-.7574 0-1.3654-.208-1.824-.624-.448-.4267-.672-.9867-.672-1.68h1.024c0 .4373.128.7893.384 1.056.2666.2667.624.4 1.072.4.4586 0 .8213-.1333 1.088-.4.2666-.2667.4-.6187.4-1.056h1.024c0 .6933-.2294 1.2533-.688 1.68-.448.416-1.0507.624-1.808.624zm9.5457 10.416c-.6827 0-1.28-.1333-1.792-.4s-.912-.6453-1.2-1.136c-.2773-.5013-.416-1.0933-.416-1.776v-2.496c0-.6827.1387-1.2693.416-1.76.288-.5013.688-.8853 1.2-1.152s1.1093-.4 1.792-.4c1.0027 0 1.808.272 2.416.816s.9227 1.2853.944 2.224h-1.264c-.0213-.608-.2187-1.0773-.592-1.408-.3627-.3307-.864-.496-1.504-.496-.6507 0-1.168.192-1.552.576-.384.3733-.576.9067-.576 1.6v2.496c0 .6827.192 1.216.576 1.6s.9013.576 1.552.576c.64 0 1.1413-.1653 1.504-.496.3733-.3413.5707-.8107.592-1.408h1.264c-.0213.9387-.336 1.68-.944 2.224s-1.4133.816-2.416.816zm5.8498-.16 2.24-3.408c-.6827-.1493-1.2107-.4533-1.584-.912-.3734-.4587-.56-1.0347-.56-1.728 0-.8533.2826-1.5253.848-2.016.576-.4907 1.3546-.736 2.336-.736h3.68v8.8h-1.28v-3.296h-2.128l-2.08 3.296zm3.28-4.432h2.4v-3.232h-2.4c-.576 0-1.0347.144-1.376.432-.3414.288-.512.6827-.512 1.184s.1706.896.512 1.184c.3413.288.8.432 1.376.432zm19.0597 7.312v-2.88c-1.024 0-1.83-.288-2.416-.864-.587-.576-.88-1.3653-.88-2.368v-2.368c0-.992.293-1.7707.88-2.336.597-.576 1.402-.864 2.416-.864v-2.88h1.152v2.88c1.024 0 1.829.288 2.416.864.586.5653.88 1.344.88 2.336v2.368c0 1.0027-.294 1.792-.88 2.368-.587.576-1.392.864-2.416.864v2.88zm.032-3.904v-6.752c-.672 0-1.2.192-1.584.576-.374.3733-.56.9067-.56 1.6v2.368c0 .6933.186 1.2373.56 1.632.384.384.912.576 1.584.576zm1.088 0c.682 0 1.21-.192 1.584-.576.373-.3947.56-.9387.56-1.632v-2.368c0-.6933-.187-1.2267-.56-1.6-.374-.384-.902-.576-1.584-.576zm5.802 3.904v-11.68h1.264v1.552h.336l-.384.528c0-.6933.224-1.2373.672-1.632.458-.4053 1.061-.608 1.808-.608.885 0 1.589.2933 2.112.88.533.576.8 1.3653.8 2.368v2.608c0 .672-.123 1.2533-.368 1.744-.246.48-.587.8533-1.024 1.12-.427.2667-.934.4-1.52.4-.736 0-1.334-.2027-1.792-.608-.459-.4053-.688-.9493-.688-1.632l.336.528h-.304l.016 1.792v2.64zm3.296-3.824c.64 0 1.136-.192 1.488-.576.362-.384.544-.928.544-1.632v-2.496c0-.7147-.182-1.2587-.544-1.632-.352-.384-.848-.576-1.488-.576-.619 0-1.115.1973-1.488.592-.363.384-.544.9227-.544 1.616v2.496c0 .6933.181 1.2373.544 1.632.373.384.869.576 1.488.576zm9.545 1.088c-.682 0-1.274-.1333-1.776-.4-.501-.2667-.89-.6507-1.168-1.152-.277-.5013-.416-1.0933-.416-1.776v-2.432c0-.6933.139-1.2853.416-1.776.278-.5013.667-.8853 1.168-1.152.502-.2667 1.094-.4 1.776-.4.683 0 1.275.1333 1.776.4.502.2667.891.6507 1.168 1.152.278.4907.416 1.0773.416 1.76v2.448c0 .6827-.138 1.2747-.416 1.776-.277.5013-.666.8853-1.168 1.152-.501.2667-1.093.4-1.776.4zm0-1.136c.662 0 1.174-.1867 1.536-.56.363-.3733.544-.9173.544-1.632v-2.432c0-.7147-.186-1.2587-.56-1.632-.362-.3733-.869-.56-1.52-.56-.65 0-1.162.1867-1.536.56-.362.3733-.544.9173-.544 1.632v2.432c0 .7147.182 1.2587.544 1.632.374.3733.886.56 1.536.56zm6.362.992v-8.8h1.28v3.744h3.904v-3.744h1.28v8.8h-1.28v-3.904h-3.904v3.904zm12.186 0v-7.664h-3.2v-1.136h7.68v1.136h-3.2v7.664zm10.234.16c-.683 0-1.275-.1333-1.776-.4-.502-.2773-.891-.6667-1.168-1.168-.278-.5013-.416-1.0827-.416-1.744v-2.496c0-.672.138-1.2533.416-1.744.277-.5013.666-.8853 1.168-1.152.501-.2773 1.093-.416 1.776-.416.682 0 1.274.1387 1.776.416.501.2667.89.6507 1.168 1.152.277.4907.416 1.072.416 1.744v1.552h-5.472v.944c0 .7147.181 1.2693.544 1.664.373.384.896.576 1.568.576.565 0 1.024-.112 1.376-.336.362-.224.592-.5493.688-.976h1.264c-.118.736-.475 1.3173-1.072 1.744-.598.4267-1.35.64-2.256.64zm2.112-5.104v-.704c0-.7147-.182-1.264-.544-1.648-.363-.3947-.886-.592-1.568-.592-.672 0-1.195.1973-1.568.592-.363.384-.544.9333-.544 1.648v.56h4.352zm4.249 4.944v-8.8h1.28v3.744h3.904v-3.744h1.28v8.8h-1.28v-3.904h-3.904v3.904zm8.57 2.24v-3.328h.72c.181-.2027.368-.5653.56-1.088.203-.5333.309-1.1787.32-1.936l.096-4.688h5.6v7.712h1.136v3.328h-1.136v-2.24h-6.16v2.24zm2.08-3.328h3.952v-6.576h-3.136l-.064 3.568c-.011.8-.101 1.456-.272 1.968s-.331.8587-.48 1.04zm9.21-3.632v-1.12h5.12v1.12zm8.906 7.6v-11.68h1.264v1.552h.336l-.384.528c0-.6933.224-1.2373.672-1.632.458-.4053 1.061-.608 1.808-.608.885 0 1.589.2933 2.112.88.533.576.8 1.3653.8 2.368v2.608c0 .672-.123 1.2533-.368 1.744-.246.48-.587.8533-1.024 1.12-.427.2667-.934.4-1.52.4-.736 0-1.334-.2027-1.792-.608-.459-.4053-.688-.9493-.688-1.632l.336.528h-.304l.016 1.792v2.64zm3.296-3.824c.64 0 1.136-.192 1.488-.576.362-.384.544-.928.544-1.632v-2.496c0-.7147-.182-1.2587-.544-1.632-.352-.384-.848-.576-1.488-.576-.619 0-1.115.1973-1.488.592-.363.384-.544.9227-.544 1.616v2.496c0 .6933.181 1.2373.544 1.632.373.384.869.576 1.488.576zm8.857 1.104c-.928 0-1.658-.2347-2.192-.704-.533-.48-.8-1.1253-.8-1.936 0-.8.262-1.4293.784-1.888.523-.4693 1.227-.704 2.112-.704h2.8v-.928c0-.5867-.17-1.04-.512-1.36-.341-.32-.826-.48-1.456-.48-.554 0-1.018.1227-1.392.368-.362.2453-.57.576-.624.992h-1.28c.107-.7573.459-1.36 1.056-1.808.608-.448 1.366-.672 2.272-.672.982 0 1.76.2667 2.336.8.576.5227.864 1.232.864 2.128v6.032h-1.248v-1.712h-.208l.24-.256c0 .6507-.25 1.168-.752 1.552-.501.384-1.168.576-2 .576zm.304-1.024c.704 0 1.28-.176 1.728-.528s.672-.8107.672-1.376v-1.328h-2.784c-.501 0-.901.1387-1.2.416-.298.2773-.448.656-.448 1.136 0 .512.182.9227.544 1.232.363.2987.859.448 1.488.448zm9.562.992c-.917 0-1.659-.1973-2.224-.592s-.907-.928-1.024-1.6h1.328c.085.3093.293.5653.624.768.341.192.773.288 1.296.288h.784c.544 0 .971-.1333 1.28-.4.32-.2773.48-.624.48-1.04 0-.448-.149-.8107-.448-1.088s-.725-.416-1.28-.416h-1.968v-1.104h1.936c.501 0 .885-.128 1.152-.384.277-.256.416-.5867.416-.992 0-.2773-.064-.5173-.192-.72s-.315-.3573-.56-.464c-.245-.1173-.528-.176-.848-.176h-.832c-.48 0-.875.1067-1.184.32-.309.2027-.501.464-.576.784h-1.328c.107-.6613.432-1.2.976-1.616.555-.416 1.259-.624 2.112-.624h.832c.597 0 1.115.1013 1.552.304s.773.4853 1.008.848c.245.3627.368.7893.368 1.28 0 .5333-.165.976-.496 1.328-.32.3413-.773.5333-1.36.576v.064c.704.0427 1.221.2507 1.552.624.331.3627.496.864.496 1.504 0 .7573-.283 1.3707-.848 1.84-.555.4587-1.301.688-2.24.688zm6.762 2.752v-11.68h1.264v1.552h.336l-.384.528c0-.6933.224-1.2373.672-1.632.458-.4053 1.061-.608 1.808-.608.885 0 1.589.2933 2.112.88.533.576.8 1.3653.8 2.368v2.608c0 .672-.123 1.2533-.368 1.744-.246.48-.587.8533-1.024 1.12-.427.2667-.934.4-1.52.4-.736 0-1.334-.2027-1.792-.608-.459-.4053-.688-.9493-.688-1.632l.336.528h-.304l.016 1.792v2.64zm3.296-3.824c.64 0 1.136-.192 1.488-.576.362-.384.544-.928.544-1.632v-2.496c0-.7147-.182-1.2587-.544-1.632-.352-.384-.848-.576-1.488-.576-.619 0-1.115.1973-1.488.592-.363.384-.544.9227-.544 1.616v2.496c0 .6933.181 1.2373.544 1.632.373.384.869.576 1.488.576zm8.857 1.104c-.927 0-1.658-.2347-2.191-.704-.534-.48-.8-1.1253-.8-1.936 0-.8.261-1.4293.784-1.888.522-.4693 1.226-.704 2.112-.704h2.8v-.928c0-.5867-.171-1.04-.512-1.36-.342-.32-.827-.48-1.456-.48-.555 0-1.019.1227-1.392.368-.363.2453-.571.576-.624.992h-1.28c.106-.7573.458-1.36 1.056-1.808.608-.448 1.365-.672 2.272-.672.981 0 1.76.2667 2.336.8.576.5227.863 1.232.863 2.128v6.032h-1.247v-1.712h-.208l.24-.256c0 .6507-.251 1.168-.752 1.552-.502.384-1.168.576-2.001.576zm.305-1.024c.704 0 1.28-.176 1.728-.528s.672-.8107.672-1.376v-1.328h-2.784c-.502 0-.902.1387-1.2.416-.299.2773-.448.656-.448 1.136 0 .512.181.9227.544 1.232.362.2987.858.448 1.488.448zm9.977 1.024c-1.024 0-1.829-.304-2.416-.912-.586-.608-.88-1.4453-.88-2.512v-4.096c0-1.3867.347-2.4533 1.04-3.2.694-.7467 1.686-1.12 2.976-1.12h2.176v1.264h-2.176c-.896 0-1.578.2667-2.048.8-.469.5227-.704 1.2747-.704 2.256v1.104h.224l-.224.384c.011-.64.224-1.1413.64-1.504.427-.3627 1.008-.544 1.744-.544.939 0 1.664.2987 2.176.896.512.5867.768 1.408.768 2.464v1.296c0 .7147-.133 1.328-.4 1.84-.256.512-.629.9067-1.12 1.184-.49.2667-1.082.4-1.776.4zm0-1.136c.651 0 1.152-.1973 1.504-.592s.528-.96.528-1.696v-1.296c0-.7253-.176-1.2907-.528-1.696s-.853-.608-1.504-.608c-.65 0-1.152.2027-1.504.608s-.528.9707-.528 1.696v1.296c0 .736.176 1.3013.528 1.696.363.3947.864.592 1.504.592zm9.594 1.12c-.683 0-1.275-.1333-1.776-.4s-.891-.6507-1.168-1.152-.416-1.0933-.416-1.776v-2.432c0-.6933.139-1.2853.416-1.776.277-.5013.667-.8853 1.168-1.152s1.093-.4 1.776-.4 1.275.1333 1.776.4.891.6507 1.168 1.152c.277.4907.416 1.0773.416 1.76v2.448c0 .6827-.139 1.2747-.416 1.776s-.667.8853-1.168 1.152-1.093.4-1.776.4zm0-1.136c.661 0 1.173-.1867 1.536-.56s.544-.9173.544-1.632v-2.432c0-.7147-.187-1.2587-.56-1.632-.363-.3733-.869-.56-1.52-.56s-1.163.1867-1.536.56c-.363.3733-.544.9173-.544 1.632v2.432c0 .7147.181 1.2587.544 1.632.373.3733.885.56 1.536.56zm8.954.992v-7.664h-3.2v-1.136h7.68v1.136h-3.2v7.664zm7.05 0v-8.8h1.28v3.696h1.664l2.608-3.696h1.456l-2.96 4.192 3.024 4.608h-1.488l-2.64-4h-1.664v4zm12.777.16c-.682 0-1.274-.1333-1.776-.4-.501-.2773-.89-.6667-1.168-1.168-.277-.5013-.416-1.0827-.416-1.744v-2.496c0-.672.139-1.2533.416-1.744.278-.5013.667-.8853 1.168-1.152.502-.2773 1.094-.416 1.776-.416.683 0 1.275.1387 1.776.416.502.2667.891.6507 1.168 1.152.278.4907.416 1.072.416 1.744v1.552h-5.472v.944c0 .7147.182 1.2693.544 1.664.374.384.896.576 1.568.576.566 0 1.024-.112 1.376-.336.363-.224.592-.5493.688-.976h1.264c-.117.736-.474 1.3173-1.072 1.744-.597.4267-1.349.64-2.256.64zm2.112-5.104v-.704c0-.7147-.181-1.264-.544-1.648-.362-.3947-.885-.592-1.568-.592-.672 0-1.194.1973-1.568.592-.362.384-.544.9333-.544 1.648v.56h4.352zm13.844 4.944v-8.8h3.776c.874 0 1.562.208 2.064.624.501.4053.752.9707.752 1.696 0 .608-.208 1.0987-.624 1.472-.406.3627-.95.544-1.632.544v-.112c.736 0 1.328.192 1.776.576.448.3733.672.8747.672 1.504 0 .7787-.267 1.392-.8 1.84-.523.4373-1.248.656-2.176.656zm1.248-1.12h2.56c.522 0 .938-.1227 1.248-.368.309-.256.464-.5973.464-1.024 0-.448-.155-.7947-.464-1.04-.31-.256-.726-.384-1.248-.384h-2.56zm0-3.92h2.528c.469 0 .842-.1173 1.12-.352.288-.2347.432-.5547.432-.96s-.144-.7253-.432-.96c-.278-.2453-.651-.368-1.12-.368h-2.528zm-279.467 26.04v-8.8h1.28v3.744h3.904v-3.744h1.28v8.8h-1.28v-3.904h-3.904v3.904zm12.8258.16c-.6827 0-1.2747-.133-1.776-.4-.5014-.277-.8907-.667-1.168-1.168-.2774-.501-.416-1.083-.416-1.744v-2.496c0-.672.1386-1.253.416-1.744.2773-.501.6666-.885 1.168-1.152.5013-.277 1.0933-.416 1.776-.416.6826 0 1.2746.139 1.776.416.5013.267.8906.651 1.168 1.152.2773.491.416 1.072.416 1.744v1.552h-5.472v.944c0 .715.1813 1.269.544 1.664.3733.384.896.576 1.568.576.5653 0 1.024-.112 1.376-.336.3626-.224.592-.549.688-.976h1.264c-.1174.736-.4747 1.317-1.072 1.744-.5974.427-1.3494.64-2.256.64zm2.112-5.104v-.704c0-.715-.1814-1.264-.544-1.648-.3627-.395-.8854-.592-1.568-.592-.672 0-1.1947.197-1.568.592-.3627.384-.544.933-.544 1.648v.56h4.352zm7.4817 5.104c-1.024 0-1.8293-.304-2.416-.912s-.88-1.445-.88-2.512v-4.096c0-1.387.3467-2.453 1.04-3.2s1.6853-1.12 2.976-1.12h2.176v1.264h-2.176c-.896 0-1.5787.267-2.048.8-.4693.523-.704 1.275-.704 2.256v1.104h.224l-.224.384c.0107-.64.224-1.141.64-1.504.4267-.363 1.008-.544 1.744-.544.9387 0 1.664.299 2.176.896.512.587.768 1.408.768 2.464v1.296c0 .715-.1333 1.328-.4 1.84-.256.512-.6293.907-1.12 1.184-.4907.267-1.0827.4-1.776.4zm0-1.136c.6507 0 1.152-.197 1.504-.592s.528-.96.528-1.696v-1.296c0-.725-.176-1.291-.528-1.696s-.8533-.608-1.504-.608-1.152.203-1.504.608-.528.971-.528 1.696v1.296c0 .736.176 1.301.528 1.696.3627.395.864.592 1.504.592zm9.5938 1.12c-.6827 0-1.2747-.133-1.776-.4-.5014-.267-.8907-.651-1.168-1.152-.2774-.501-.416-1.093-.416-1.776v-2.432c0-.693.1386-1.285.416-1.776.2773-.501.6666-.885 1.168-1.152.5013-.267 1.0933-.4 1.776-.4.6826 0 1.2746.133 1.776.4.5013.267.8906.651 1.168 1.152.2773.491.416 1.077.416 1.76v2.448c0 .683-.1387 1.275-.416 1.776-.2774.501-.6667.885-1.168 1.152-.5014.267-1.0934.4-1.776.4zm0-1.136c.6613 0 1.1733-.187 1.536-.56.3626-.373.544-.917.544-1.632v-2.432c0-.715-.1867-1.259-.56-1.632-.3627-.373-.8694-.56-1.52-.56-.6507 0-1.1627.187-1.536.56-.3627.373-.544.917-.544 1.632v2.432c0 .715.1813 1.259.544 1.632.3733.373.8853.56 1.536.56zm5.2417 1.104v-1.2h.32c.4587 0 .7947-.187 1.008-.56.2133-.384.3253-1.019.336-1.904l.112-5.248h5.808v8.8h-1.28v-7.648h-3.28l-.096 4.144c-.0107.832-.112 1.515-.304 2.048-.1813.533-.4587.928-.832 1.184-.3627.256-.8373.384-1.424.384zm10.7938-.112v-8.8h1.264v3.232h2.64c.9813 0 1.7546.251 2.32.752.576.491.864 1.168.864 2.032 0 .853-.288 1.531-.864 2.032-.5654.501-1.3387.752-2.32.752zm1.264-1.152h2.64c.608 0 1.072-.139 1.392-.416.32-.288.48-.693.48-1.216s-.16-.923-.48-1.2c-.32-.288-.784-.432-1.392-.432h-2.64zm7.7857 1.152-.032-8.8h1.2v7.824h2.016v-7.824h1.056v7.824h2v-7.824h1.184v8.8zm13.2898.144c-.6827 0-1.2747-.133-1.776-.4-.5014-.267-.8907-.651-1.168-1.152-.2774-.501-.416-1.093-.416-1.776v-2.432c0-.693.1386-1.285.416-1.776.2773-.501.6666-.885 1.168-1.152.5013-.267 1.0933-.4 1.776-.4.6826 0 1.2746.133 1.776.4.5013.267.8906.651 1.168 1.152.2773.491.416 1.077.416 1.76v2.448c0 .683-.1387 1.275-.416 1.776-.2774.501-.6667.885-1.168 1.152-.5014.267-1.0934.4-1.776.4zm0-1.136c.6613 0 1.1733-.187 1.536-.56.3626-.373.544-.917.544-1.632v-2.432c0-.715-.1867-1.259-.56-1.632-.3627-.373-.8694-.56-1.52-.56-.6507 0-1.1627.187-1.536.56-.3627.373-.544.917-.544 1.632v2.432c0 .715.1813 1.259.544 1.632.3733.373.8853.56 1.536.56zm6.3617.992v-8.8h1.232v5.008c0 .299-.0107.619-.032.96-.0107.331-.0267.645-.048.944s-.0427.549-.064.752l3.728-7.664h1.648v8.8h-1.232v-5.008c0-.309.0053-.629.016-.96.0213-.331.0427-.645.064-.944.032-.309.0533-.565.064-.768l-3.744 7.68zm3.296-10.256c-.7573 0-1.3653-.208-1.824-.624-.448-.427-.672-.987-.672-1.68h1.024c0 .437.128.789.384 1.056.2667.267.624.4 1.072.4.4587 0 .8213-.133 1.088-.4s.4-.619.4-1.056h1.024c0 .693-.2293 1.253-.688 1.68-.448.416-1.0507.624-1.808.624zm16.468 10.256v-8.8h6.24v1.152h-4.976v7.648zm9.001 2.88v-11.68h1.264v1.552h.336l-.384.528c0-.693.224-1.237.672-1.632.459-.405 1.062-.608 1.808-.608.886 0 1.59.293 2.112.88.534.576.8 1.365.8 2.368v2.608c0 .672-.122 1.253-.368 1.744-.245.48-.586.853-1.024 1.12-.426.267-.933.4-1.52.4-.736 0-1.333-.203-1.792-.608-.458-.405-.688-.949-.688-1.632l.336.528h-.304l.016 1.792v2.64zm3.296-3.824c.64 0 1.136-.192 1.488-.576.363-.384.544-.928.544-1.632v-2.496c0-.715-.181-1.259-.544-1.632-.352-.384-.848-.576-1.488-.576-.618 0-1.114.197-1.488.592-.362.384-.544.923-.544 1.616v2.496c0 .693.182 1.237.544 1.632.374.384.87.576 1.488.576zm7.69 3.824 1.296-3.44-3.264-8.24h1.408l2.08 5.488c.085.213.165.453.24.72.085.256.149.469.192.64.053-.171.117-.389.192-.656s.149-.507.224-.72l1.952-5.472h1.36l-4.336 11.68zm8.218-2.88v-8.8h6.464v8.8h-1.28v-7.648h-3.904v7.648zm9.594 0v-8.8h6.464v8.8h-1.28v-7.648h-3.904v7.648zm12.825.16c-.682 0-1.274-.133-1.776-.4-.501-.277-.89-.667-1.168-1.168-.277-.501-.416-1.083-.416-1.744v-2.496c0-.672.139-1.253.416-1.744.278-.501.667-.885 1.168-1.152.502-.277 1.094-.416 1.776-.416.683 0 1.275.139 1.776.416.502.267.891.651 1.168 1.152.278.491.416 1.072.416 1.744v1.552h-5.472v.944c0 .715.182 1.269.544 1.664.374.384.896.576 1.568.576.566 0 1.024-.112 1.376-.336.363-.224.592-.549.688-.976h1.264c-.117.736-.474 1.317-1.072 1.744-.597.427-1.349.64-2.256.64zm2.112-5.104v-.704c0-.715-.181-1.264-.544-1.648-.362-.395-.885-.592-1.568-.592-.672 0-1.194.197-1.568.592-.362.384-.544.933-.544 1.648v.56h4.352zm12.276.224v-1.136h9.6v1.136zm20.755 4.72v-8.8h1.28v3.744h3.904v-3.744h1.28v8.8h-1.28v-3.904h-3.904v3.904zm12.138.16c-.928 0-1.659-.235-2.192-.704-.533-.48-.8-1.125-.8-1.936 0-.8.261-1.429.784-1.888.523-.469 1.227-.704 2.112-.704h2.8v-.928c0-.587-.171-1.04-.512-1.36s-.827-.48-1.456-.48c-.555 0-1.019.123-1.392.368-.363.245-.571.576-.624.992h-1.28c.107-.757.459-1.36 1.056-1.808.608-.448 1.365-.672 2.272-.672.981 0 1.76.267 2.336.8.576.523.864 1.232.864 2.128v6.032h-1.248v-1.712h-.208l.24-.256c0 .651-.251 1.168-.752 1.552s-1.168.576-2 .576zm.304-1.024c.704 0 1.28-.176 1.728-.528s.672-.811.672-1.376v-1.328h-2.784c-.501 0-.901.139-1.2.416s-.448.656-.448 1.136c0 .512.181.923.544 1.232.363.299.859.448 1.488.448zm9.994 1.024c-.683 0-1.28-.133-1.792-.4s-.912-.645-1.2-1.136c-.278-.501-.416-1.093-.416-1.776v-2.496c0-.683.138-1.269.416-1.76.288-.501.688-.885 1.2-1.152s1.109-.4 1.792-.4c1.002 0 1.808.272 2.416.816s.922 1.285.944 2.224h-1.264c-.022-.608-.219-1.077-.592-1.408-.363-.331-.864-.496-1.504-.496-.651 0-1.168.192-1.552.576-.384.373-.576.907-.576 1.6v2.496c0 .683.192 1.216.576 1.6s.901.576 1.552.576c.64 0 1.141-.165 1.504-.496.373-.341.57-.811.592-1.408h1.264c-.022.939-.336 1.68-.944 2.224s-1.414.816-2.416.816zm8.938-.16v-7.664h-3.2v-1.136h7.68v1.136h-3.2v7.664zm9.545.16c-.928 0-1.658-.235-2.192-.704-.533-.48-.8-1.125-.8-1.936 0-.8.262-1.429.784-1.888.523-.469 1.227-.704 2.112-.704h2.8v-.928c0-.587-.17-1.04-.512-1.36-.341-.32-.826-.48-1.456-.48-.554 0-1.018.123-1.392.368-.362.245-.57.576-.624.992h-1.28c.107-.757.459-1.36 1.056-1.808.608-.448 1.366-.672 2.272-.672.982 0 1.76.267 2.336.8.576.523.864 1.232.864 2.128v6.032h-1.248v-1.712h-.208l.24-.256c0 .651-.25 1.168-.752 1.552-.501.384-1.168.576-2 .576zm.304-1.024c.704 0 1.28-.176 1.728-.528s.672-.811.672-1.376v-1.328h-2.784c-.501 0-.901.139-1.2.416-.298.277-.448.656-.448 1.136 0 .512.182.923.544 1.232.363.299.859.448 1.488.448zm6.746.864v-8.8h3.776c.875 0 1.563.208 2.064.624.501.405.752.971.752 1.696 0 .608-.208 1.099-.624 1.472-.405.363-.949.544-1.632.544v-.112c.736 0 1.328.192 1.776.576.448.373.672.875.672 1.504 0 .779-.267 1.392-.8 1.84-.523.437-1.248.656-2.176.656zm1.248-1.12h2.56c.523 0 .939-.123 1.248-.368.309-.256.464-.597.464-1.024 0-.448-.155-.795-.464-1.04-.309-.256-.725-.384-1.248-.384h-2.56zm0-3.92h2.528c.469 0 .843-.117 1.12-.352.288-.235.432-.555.432-.96s-.144-.725-.432-.96c-.277-.245-.651-.368-1.12-.368h-2.528zm8.346 5.04v-8.8h1.28v3.744h3.904v-3.744h1.28v8.8h-1.28v-3.904h-3.904v3.904zm9.594 0v-8.8h1.232v5.008c0 .299-.011.619-.032.96-.011.331-.027.645-.048.944-.022.299-.043.549-.064.752l3.728-7.664h1.648v8.8h-1.232v-5.008c0-.309.005-.629.016-.96.021-.331.042-.645.064-.944.032-.309.053-.565.064-.768l-3.744 7.68zm9.641 0v-8.8h1.28v3.696h1.664l2.608-3.696h1.456l-2.96 4.192 3.024 4.608h-1.488l-2.64-4h-1.664v4zm19.14 0v-8.8h3.776c.874 0 1.562.208 2.064.624.501.405.752.971.752 1.696 0 .608-.208 1.099-.624 1.472-.406.363-.95.544-1.632.544v-.112c.736 0 1.328.192 1.776.576.448.373.672.875.672 1.504 0 .779-.267 1.392-.8 1.84-.523.437-1.248.656-2.176.656zm1.248-1.12h2.56c.522 0 .938-.123 1.248-.368.309-.256.464-.597.464-1.024 0-.448-.155-.795-.464-1.04-.31-.256-.726-.384-1.248-.384h-2.56zm0-3.92h2.528c.469 0 .842-.117 1.12-.352.288-.235.432-.555.432-.96s-.144-.725-.432-.96c-.278-.245-.651-.368-1.12-.368h-2.528zm11.594 5.2c-.683 0-1.28-.133-1.792-.4s-.912-.645-1.2-1.136c-.278-.501-.416-1.093-.416-1.776v-2.496c0-.683.138-1.269.416-1.76.288-.501.688-.885 1.2-1.152s1.109-.4 1.792-.4c1.002 0 1.808.272 2.416.816s.922 1.285.944 2.224h-1.264c-.022-.608-.219-1.077-.592-1.408-.363-.331-.864-.496-1.504-.496-.651 0-1.168.192-1.552.576-.384.373-.576.907-.576 1.6v2.496c0 .683.192 1.216.576 1.6s.901.576 1.552.576c.64 0 1.141-.165 1.504-.496.373-.341.57-.811.592-1.408h1.264c-.022.939-.336 1.68-.944 2.224s-1.414.816-2.416.816zm9.577 0c-.682 0-1.274-.133-1.776-.4-.501-.277-.89-.667-1.168-1.168-.277-.501-.416-1.083-.416-1.744v-2.496c0-.672.139-1.253.416-1.744.278-.501.667-.885 1.168-1.152.502-.277 1.094-.416 1.776-.416.683 0 1.275.139 1.776.416.502.267.891.651 1.168 1.152.278.491.416 1.072.416 1.744v1.552h-5.472v.944c0 .715.182 1.269.544 1.664.374.384.896.576 1.568.576.566 0 1.024-.112 1.376-.336.363-.224.592-.549.688-.976h1.264c-.117.736-.474 1.317-1.072 1.744-.597.427-1.349.64-2.256.64zm2.112-5.104v-.704c0-.715-.181-1.264-.544-1.648-.362-.395-.885-.592-1.568-.592-.672 0-1.194.197-1.568.592-.362.384-.544.933-.544 1.648v.56h4.352zm4.826 4.944v-8.8h6.24v1.152h-4.976v7.648zm7.994 2.24v-3.328h.72c.181-.203.368-.565.56-1.088.202-.533.309-1.179.32-1.936l.096-4.688h5.6v7.712h1.136v3.328h-1.136v-2.24h-6.16v2.24zm2.08-3.328h3.952v-6.576h-3.136l-.064 3.568c-.011.8-.102 1.456-.272 1.968-.171.512-.331.859-.48 1.04zm11.081 1.248c-.927 0-1.658-.235-2.191-.704-.534-.48-.8-1.125-.8-1.936 0-.8.261-1.429.784-1.888.522-.469 1.226-.704 2.112-.704h2.8v-.928c0-.587-.171-1.04-.512-1.36-.342-.32-.827-.48-1.456-.48-.555 0-1.019.123-1.392.368-.363.245-.571.576-.624.992h-1.28c.106-.757.458-1.36 1.056-1.808.608-.448 1.365-.672 2.272-.672.981 0 1.76.267 2.336.8.576.523.863 1.232.863 2.128v6.032h-1.247v-1.712h-.208l.24-.256c0 .651-.251 1.168-.752 1.552-.502.384-1.168.576-2.001.576zm.305-1.024c.704 0 1.28-.176 1.728-.528s.672-.811.672-1.376v-1.328h-2.784c-.502 0-.902.139-1.2.416-.299.277-.448.656-.448 1.136 0 .512.181.923.544 1.232.362.299.858.448 1.488.448zm-325.804 22.008c-.6827 0-1.2747-.133-1.776-.4s-.8907-.651-1.168-1.152-.416-1.093-.416-1.776v-2.432c0-.693.1387-1.285.416-1.776.2773-.501.6667-.885 1.168-1.152s1.0933-.4 1.776-.4 1.2747.133 1.776.4.8907.651 1.168 1.152c.2773.491.416 1.077.416 1.76v2.448c0 .683-.1387 1.275-.416 1.776s-.6667.885-1.168 1.152-1.0933.4-1.776.4zm0-1.136c.6613 0 1.1733-.187 1.536-.56s.544-.917.544-1.632v-2.432c0-.715-.1867-1.259-.56-1.632-.3627-.373-.8693-.56-1.52-.56s-1.1627.187-1.536.56c-.3627.373-.544.917-.544 1.632v2.432c0 .715.1813 1.259.544 1.632.3733.373.8853.56 1.536.56zm9.5938 1.152c-1.024 0-1.8294-.304-2.416-.912-.5867-.608-.88-1.445-.88-2.512v-4.096c0-1.387.3466-2.453 1.04-3.2.6933-.747 1.6853-1.12 2.976-1.12h2.176v1.264h-2.176c-.896 0-1.5787.267-2.048.8-.4694.523-.704 1.275-.704 2.256v1.104h.224l-.224.384c.0106-.64.224-1.141.64-1.504.4266-.363 1.008-.544 1.744-.544.9386 0 1.664.299 2.176.896.512.587.768 1.408.768 2.464v1.296c0 .715-.1334 1.328-.4 1.84-.256.512-.6294.907-1.12 1.184-.4907.267-1.0827.4-1.776.4zm0-1.136c.6506 0 1.152-.197 1.504-.592s.528-.96.528-1.696v-1.296c0-.725-.176-1.291-.528-1.696s-.8534-.608-1.504-.608c-.6507 0-1.152.203-1.504.608s-.528.971-.528 1.696v1.296c0 .736.176 1.301.528 1.696.3626.395.864.592 1.504.592zm7.0177.976v-7.648h-2.176v-1.152h3.456v3.232h2.048c.992 0 1.7707.251 2.336.752.5653.491.848 1.168.848 2.032 0 .853-.288 1.531-.864 2.032-.5653.501-1.3387.752-2.32.752zm1.28-1.168h2.048c.5973 0 1.056-.139 1.376-.416.32-.288.48-.688.48-1.2s-.16-.907-.48-1.184c-.32-.288-.7787-.432-1.376-.432h-2.048zm7.1618 1.168 2.24-3.408c-.6827-.149-1.2107-.453-1.584-.912-.3734-.459-.56-1.035-.56-1.728 0-.853.2826-1.525.848-2.016.576-.491 1.3546-.736 2.336-.736h3.68v8.8h-1.28v-3.296h-2.128l-2.08 3.296zm3.28-4.432h2.4v-3.232h-2.4c-.576 0-1.0347.144-1.376.432-.3414.288-.512.683-.512 1.184s.1706.896.512 1.184c.3413.288.8.432 1.376.432zm10.0577 4.592c-.6827 0-1.28-.133-1.792-.4s-.912-.645-1.2-1.136c-.2773-.501-.416-1.093-.416-1.776v-2.496c0-.683.1387-1.269.416-1.76.288-.501.688-.885 1.2-1.152s1.1093-.4 1.792-.4c1.0027 0 1.808.272 2.416.816s.9227 1.285.944 2.224h-1.264c-.0213-.608-.2187-1.077-.592-1.408-.3627-.331-.864-.496-1.504-.496-.6507 0-1.168.192-1.552.576-.384.373-.576.907-.576 1.6v2.496c0 .683.192 1.216.576 1.6s.9013.576 1.552.576c.64 0 1.1413-.165 1.504-.496.3733-.341.5707-.811.592-1.408h1.264c-.0213.939-.336 1.68-.944 2.224s-1.4133.816-2.416.816zm6.3458-.16v-8.8h1.28v3.744h3.904v-3.744h1.28v8.8h-1.28v-3.904h-3.904v3.904zm9.5937 0v-8.8h1.232v5.008c0 .299-.0107.619-.032.96-.0107.331-.0267.645-.048.944s-.0427.549-.064.752l3.728-7.664h1.648v8.8h-1.232v-5.008c0-.309.0053-.629.016-.96.0213-.331.0427-.645.064-.944.032-.309.0533-.565.064-.768l-3.744 7.68zm12.1858 0v-7.664h-3.2v-1.136h7.68v1.136h-3.2v7.664zm19.4117.128c-.918 0-1.659-.197-2.224-.592-.566-.395-.907-.928-1.024-1.6h1.328c.085.309.293.565.624.768.341.192.773.288 1.296.288h.784c.544 0 .97-.133 1.28-.4.32-.277.48-.624.48-1.04 0-.448-.15-.811-.448-1.088-.299-.277-.726-.416-1.28-.416h-1.968v-1.104h1.936c.501 0 .885-.128 1.152-.384.277-.256.416-.587.416-.992 0-.277-.064-.517-.192-.72s-.315-.357-.56-.464c-.246-.117-.528-.176-.848-.176h-.832c-.48 0-.875.107-1.184.32-.31.203-.502.464-.576.784h-1.328c.106-.661.432-1.2.976-1.616.554-.416 1.258-.624 2.112-.624h.832c.597 0 1.114.101 1.552.304.437.203.773.485 1.008.848.245.363.368.789.368 1.28 0 .533-.166.976-.496 1.328-.32.341-.774.533-1.36.576v.064c.704.043 1.221.251 1.552.624.33.363.496.864.496 1.504 0 .757-.283 1.371-.848 1.84-.555.459-1.302.688-2.24.688zm9.321.032c-.927 0-1.658-.235-2.191-.704-.534-.48-.8-1.125-.8-1.936 0-.8.261-1.429.784-1.888.522-.469 1.226-.704 2.112-.704h2.8v-.928c0-.587-.171-1.04-.512-1.36-.342-.32-.827-.48-1.456-.48-.555 0-1.019.123-1.392.368-.363.245-.571.576-.624.992h-1.28c.106-.757.458-1.36 1.056-1.808.608-.448 1.365-.672 2.272-.672.981 0 1.76.267 2.336.8.576.523.863 1.232.863 2.128v6.032h-1.247v-1.712h-.208l.24-.256c0 .651-.251 1.168-.752 1.552-.502.384-1.168.576-2.001.576zm.305-1.024c.704 0 1.28-.176 1.728-.528s.672-.811.672-1.376v-1.328h-2.784c-.502 0-.902.139-1.2.416-.299.277-.448.656-.448 1.136 0 .512.181.923.544 1.232.362.299.858.448 1.488.448zm5.721 3.104v-3.328h.72c.182-.203.368-.565.56-1.088.203-.533.31-1.179.32-1.936l.096-4.688h5.6v7.712h1.136v3.328h-1.136v-2.24h-6.16v2.24zm2.08-3.328h3.952v-6.576h-3.136l-.064 3.568c-.01.8-.101 1.456-.272 1.968-.17.512-.33.859-.48 1.04zm11.082 1.248c-.928 0-1.659-.235-2.192-.704-.533-.48-.8-1.125-.8-1.936 0-.8.261-1.429.784-1.888.523-.469 1.227-.704 2.112-.704h2.8v-.928c0-.587-.171-1.04-.512-1.36s-.827-.48-1.456-.48c-.555 0-1.019.123-1.392.368-.363.245-.571.576-.624.992h-1.28c.107-.757.459-1.36 1.056-1.808.608-.448 1.365-.672 2.272-.672.981 0 1.76.267 2.336.8.576.523.864 1.232.864 2.128v6.032h-1.248v-1.712h-.208l.24-.256c0 .651-.251 1.168-.752 1.552s-1.168.576-2 .576zm.304-1.024c.704 0 1.28-.176 1.728-.528s.672-.811.672-1.376v-1.328h-2.784c-.501 0-.901.139-1.2.416s-.448.656-.448 1.136c0 .512.181.923.544 1.232.363.299.859.448 1.488.448zm11.85.864v-3.248c-.171.043-.438.085-.8.128-.363.032-.768.048-1.216.048-1.056.011-1.878-.251-2.464-.784-.576-.533-.864-1.285-.864-2.256v-2.688h1.264v2.688c0 .597.181 1.061.544 1.392.373.331.901.496 1.584.496.49 0 .906-.016 1.248-.048.341-.043.576-.08.704-.112v-4.416h1.264v8.8zm5.866 2.88 1.296-3.44-3.264-8.24h1.408l2.08 5.488c.085.213.165.453.239.72.086.256.15.469.193.64.053-.171.117-.389.192-.656.074-.267.149-.507.224-.72l1.952-5.472h1.36l-4.336 11.68zm17.811-2.88v-8.8h1.232v5.008c0 .299-.011.619-.032.96-.011.331-.027.645-.048.944s-.043.549-.064.752l3.728-7.664h1.648v8.8h-1.232v-5.008c0-.309.005-.629.016-.96.021-.331.043-.645.064-.944.032-.309.053-.565.064-.768l-3.744 7.68zm19.188 0v-8.8h6.464v8.8h-1.28v-7.648h-3.904v7.648zm12.825.144c-.682 0-1.274-.133-1.776-.4-.501-.267-.89-.651-1.168-1.152-.277-.501-.416-1.093-.416-1.776v-2.432c0-.693.139-1.285.416-1.776.278-.501.667-.885 1.168-1.152.502-.267 1.094-.4 1.776-.4.683 0 1.275.133 1.776.4.502.267.891.651 1.168 1.152.278.491.416 1.077.416 1.76v2.448c0 .683-.138 1.275-.416 1.776-.277.501-.666.885-1.168 1.152-.501.267-1.093.4-1.776.4zm0-1.136c.662 0 1.174-.187 1.536-.56.363-.373.544-.917.544-1.632v-2.432c0-.715-.186-1.259-.56-1.632-.362-.373-.869-.56-1.52-.56-.65 0-1.162.187-1.536.56-.362.373-.544.917-.544 1.632v2.432c0 .715.182 1.259.544 1.632.374.373.886.56 1.536.56zm6.074.992v-8.8h1.76l1.28 3.584c.107.309.208.624.304.944s.165.571.208.752c.053-.181.123-.432.208-.752.096-.32.197-.64.304-.96l1.232-3.568h1.744v8.8h-1.232v-2.112c0-.459.005-.949.016-1.472s.021-1.045.032-1.568.027-1.013.048-1.472c.021-.469.037-.88.048-1.232l-1.744 5.216h-1.344l-1.744-5.184c.021.427.037.965.048 1.616.011.64.021 1.317.032 2.032.021.715.032 1.403.032 2.064v2.112zm13.114.144c-.683 0-1.275-.133-1.776-.4-.502-.267-.891-.651-1.168-1.152-.278-.501-.416-1.093-.416-1.776v-2.432c0-.693.138-1.285.416-1.776.277-.501.666-.885 1.168-1.152.501-.267 1.093-.4 1.776-.4.682 0 1.274.133 1.776.4.501.267.89.651 1.168 1.152.277.491.416 1.077.416 1.76v2.448c0 .683-.139 1.275-.416 1.776-.278.501-.667.885-1.168 1.152-.502.267-1.094.4-1.776.4zm0-1.136c.661 0 1.173-.187 1.536-.56.362-.373.544-.917.544-1.632v-2.432c0-.715-.187-1.259-.56-1.632-.363-.373-.87-.56-1.52-.56-.651 0-1.163.187-1.536.56-.363.373-.544.917-.544 1.632v2.432c0 .715.181 1.259.544 1.632.373.373.885.56 1.536.56zm5.162.992 1.92-4.512-1.792-4.288h1.232l1.584 3.888h.944v-3.888h1.088v3.888h.912l1.632-3.888h1.216l-1.792 4.24 1.92 4.56h-1.28l-1.648-4.048h-.96v4.048h-1.088v-4.048h-.96l-1.68 4.048zm14.025.16c-.682 0-1.274-.133-1.776-.4-.501-.277-.89-.667-1.168-1.168-.277-.501-.416-1.083-.416-1.744v-2.496c0-.672.139-1.253.416-1.744.278-.501.667-.885 1.168-1.152.502-.277 1.094-.416 1.776-.416.683 0 1.275.139 1.776.416.502.267.891.651 1.168 1.152.278.491.416 1.072.416 1.744v1.552h-5.472v.944c0 .715.182 1.269.544 1.664.374.384.896.576 1.568.576.566 0 1.024-.112 1.376-.336.363-.224.592-.549.688-.976h1.264c-.117.736-.474 1.317-1.072 1.744-.597.427-1.349.64-2.256.64zm2.112-5.104v-.704c0-.715-.181-1.264-.544-1.648-.362-.395-.885-.592-1.568-.592-.672 0-1.194.197-1.568.592-.362.384-.544.933-.544 1.648v.56h4.352zm6.842 4.944v-7.664h-3.2v-1.136h7.68v1.136h-3.2v7.664zm19.844.16c-.683 0-1.28-.133-1.792-.4s-.912-.645-1.2-1.136c-.278-.501-.416-1.093-.416-1.776v-2.496c0-.683.138-1.269.416-1.76.288-.501.688-.885 1.2-1.152s1.109-.4 1.792-.4c1.002 0 1.808.272 2.416.816s.922 1.285.944 2.224h-1.264c-.022-.608-.219-1.077-.592-1.408-.363-.331-.864-.496-1.504-.496-.651 0-1.168.192-1.552.576-.384.373-.576.907-.576 1.6v2.496c0 .683.192 1.216.576 1.6s.901.576 1.552.576c.64 0 1.141-.165 1.504-.496.373-.341.57-.811.592-1.408h1.264c-.022.939-.336 1.68-.944 2.224s-1.414.816-2.416.816zm15.923 2.72v-11.68h1.264v1.552h.336l-.384.528c0-.693.224-1.237.672-1.632.459-.405 1.061-.608 1.808-.608.885 0 1.589.293 2.112.88.533.576.8 1.365.8 2.368v2.608c0 .672-.123 1.253-.368 1.744-.245.48-.587.853-1.024 1.12-.427.267-.933.4-1.52.4-.736 0-1.333-.203-1.792-.608s-.688-.949-.688-1.632l.336.528h-.304l.016 1.792v2.64zm3.296-3.824c.64 0 1.136-.192 1.488-.576.363-.384.544-.928.544-1.632v-2.496c0-.715-.181-1.259-.544-1.632-.352-.384-.848-.576-1.488-.576-.619 0-1.115.197-1.488.592-.363.384-.544.923-.544 1.616v2.496c0 .693.181 1.237.544 1.632.373.384.869.576 1.488.576zm9.546 1.104c-.683 0-1.275-.133-1.776-.4-.502-.277-.891-.667-1.168-1.168-.278-.501-.416-1.083-.416-1.744v-2.496c0-.672.138-1.253.416-1.744.277-.501.666-.885 1.168-1.152.501-.277 1.093-.416 1.776-.416.682 0 1.274.139 1.776.416.501.267.89.651 1.168 1.152.277.491.416 1.072.416 1.744v1.552h-5.472v.944c0 .715.181 1.269.544 1.664.373.384.896.576 1.568.576.565 0 1.024-.112 1.376-.336.362-.224.592-.549.688-.976h1.264c-.118.736-.475 1.317-1.072 1.744-.598.427-1.35.64-2.256.64zm2.112-5.104v-.704c0-.715-.182-1.264-.544-1.648-.363-.395-.886-.592-1.568-.592-.672 0-1.195.197-1.568.592-.363.384-.544.933-.544 1.648v.56h4.352zm3.786 4.944-.032-8.8h1.2v7.824h2.016v-7.824h1.056v7.824h2v-7.824h1.184v8.8zm13.289.16c-.682 0-1.274-.133-1.776-.4-.501-.277-.89-.667-1.168-1.168-.277-.501-.416-1.083-.416-1.744v-2.496c0-.672.139-1.253.416-1.744.278-.501.667-.885 1.168-1.152.502-.277 1.094-.416 1.776-.416.683 0 1.275.139 1.776.416.502.267.891.651 1.168 1.152.278.491.416 1.072.416 1.744v1.552h-5.472v.944c0 .715.182 1.269.544 1.664.374.384.896.576 1.568.576.566 0 1.024-.112 1.376-.336.363-.224.592-.549.688-.976h1.264c-.117.736-.474 1.317-1.072 1.744-.597.427-1.349.64-2.256.64zm2.112-5.104v-.704c0-.715-.181-1.264-.544-1.648-.362-.395-.885-.592-1.568-.592-.672 0-1.194.197-1.568.592-.362.384-.544.933-.544 1.648v.56h4.352zm4.25 4.944v-8.8h1.28v3.744h3.904v-3.744h1.28v8.8h-1.28v-3.904h-3.904v3.904zm9.594 0v-8.8h1.232v5.008c0 .299-.011.619-.032.96-.011.331-.027.645-.048.944-.022.299-.043.549-.064.752l3.728-7.664h1.648v8.8h-1.232v-5.008c0-.309.005-.629.016-.96.021-.331.042-.645.064-.944.032-.309.053-.565.064-.768l-3.744 7.68zm12.826.16c-.683 0-1.275-.133-1.776-.4-.502-.277-.891-.667-1.168-1.168-.278-.501-.416-1.083-.416-1.744v-2.496c0-.672.138-1.253.416-1.744.277-.501.666-.885 1.168-1.152.501-.277 1.093-.416 1.776-.416.682 0 1.274.139 1.776.416.501.267.89.651 1.168 1.152.277.491.416 1.072.416 1.744v1.552h-5.472v.944c0 .715.181 1.269.544 1.664.373.384.896.576 1.568.576.565 0 1.024-.112 1.376-.336.362-.224.592-.549.688-.976h1.264c-.118.736-.475 1.317-1.072 1.744-.598.427-1.35.64-2.256.64zm2.112-5.104v-.704c0-.715-.182-1.264-.544-1.648-.363-.395-.886-.592-1.568-.592-.672 0-1.195.197-1.568.592-.363.384-.544.933-.544 1.648v.56h4.352zm3.961 4.944v-8.8h1.76l1.28 3.584c.107.309.208.624.304.944s.166.571.208.752c.054-.181.123-.432.208-.752.096-.32.198-.64.304-.96l1.232-3.568h1.744v8.8h-1.232v-2.112c0-.459.006-.949.016-1.472.011-.523.022-1.045.032-1.568.011-.523.027-1.013.048-1.472.022-.469.038-.88.048-1.232l-1.744 5.216h-1.344l-1.744-5.184c.022.427.038.965.048 1.616.011.64.022 1.317.032 2.032.022.715.032 1.403.032 2.064v2.112zm13.114.16c-.395 0-.709-.112-.944-.336-.224-.235-.336-.544-.336-.928 0-.405.112-.725.336-.96.235-.235.549-.352.944-.352s.704.117.928.352c.235.235.352.555.352.96 0 .384-.117.693-.352.928-.224.224-.533.336-.928.336z"/></g></svg>